<svg xmlns="http://www.w3.org/2000/svg" width="512" height="512" viewBox="0 0 512 512"><g id="Gruppe_263" data-name="Gruppe 263" transform="translate(8446 -12272)"><circle id="Ellipse_36" data-name="Ellipse 36" cx="256" cy="256" r="256" transform="translate(-8446 12272)" fill="#2b6aff"></circle><g id="Gruppe_262" data-name="Gruppe 262" transform="translate(-491.214 -50.632)"><path id="Pfad_12772" data-name="Pfad 12772" d="M396.269,314.831q-4.238,6.634-8.469,13.275c-10.549,16.654-20.686,33.556-30.993,50.365a48.082,48.082,0,0,1-12.252,13.9c-15.6,11.543-31.7-.17-33.556-13.75a202.342,202.342,0,0,1-2.2-26.5c-.043-10.279,0-20.558-.021-30.837,0-1.5-.149-3-.227-4.5-.7.021-.781.547-.987.887C288.12,349.849,267.69,381.4,247.8,413.3c-1.207,1.938-2.378,3.9-3.642,5.8a1.487,1.487,0,0,0,.213,2.243c20.111,20.792,43.934,34.826,72.776,39.27,34.968,5.381,66.82-2.463,95.258-23.646,3.457-2.57,6.588-5.572,9.995-8.206,4.2-3.237,8.81-5.274,14.318-3.989a4.274,4.274,0,0,1,2.016.987,50.611,50.611,0,0,0,3.975,3.542c4.252,3.138,4.472,7.354,3.3,11.919-1.4,5.452-5.21,9.214-9.335,12.643-19.33,16.057-41.023,27.479-65.713,32.69-47.285,9.974-90.345.483-128.366-29.417-28.984-22.794-47.356-52.623-55.42-88.649a153.986,153.986,0,0,1-1.8-56.5c8.653-58.948,50.685-103.535,97.735-121.445a145.994,145.994,0,0,1,47.462-9.526c17.747-.589,35.174,1,52.168,6.446a153.547,153.547,0,0,1,60.552,36.047c23.674,22.829,38.525,50.493,44.779,82.736a136.312,136.312,0,0,1,1.235,47.483c-3.031,19.124-18.542,38.021-39.5,42.024-20.714,3.961-40.044-6.744-48.427-26.982-3.606-8.7-4.586-17.875-4.628-27.181-.035-8.561,0-17.129-.007-25.69,0-.3-.028-.589-.043-.887-.142-.05-.291-.106-.433-.156" transform="translate(-8036 12243)" fill="#fefefe"></path><path id="Pfad_12773" data-name="Pfad 12773" d="M348.183,367.52V354.657c-.021-17.7.078-35.4-.114-53.1-.078-7.155-1.682-14.006-6.971-19.372a16.374,16.374,0,0,0-18.088-3.478,24.509,24.509,0,0,0-10.5,8.8c-6.233,8.873-11.472,18.393-17.42,27.444-19.053,29.005-36.736,58.87-55.512,88.053-1.5,2.335-2.754,2.378-4.068-.227-1.562-3.1-2.91-6.325-4.167-9.562a122.353,122.353,0,0,1-8.49-43.21c-.4-30.943,8.256-58.969,27.784-83.133,19.174-23.724,43.778-39.135,73.9-44.672,43.508-7.993,81.252,4.131,112.721,34.862,19.571,19.117,30.965,42.834,35.479,69.83a111.325,111.325,0,0,1,1.051,30.127c-.781,7.361-3.784,13.835-9.661,18.577-4.863,3.926-10.442,6.1-16.618,3.663-6.51-2.57-9.846-7.915-10.975-14.673-1.661-9.931-1.384-19.947-1.214-29.964.149-8.554.724-17.193-1.143-25.6-2.172-9.8-7.88-16.774-18.017-19.28-4.912-1.214-9.413.4-13.679,2.662-6.488,3.443-11.33,8.724-15.5,14.609-7.411,10.456-13.757,21.587-20.551,32.441q-8.529,13.619-17.065,27.224c-.192.312-.4.618-.6.923l-.568-.085Z" transform="translate(-8047.386 12231.711)" fill="#2b6aff"></path></g></g></svg>