<svg xmlns="http://www.w3.org/2000/svg" xmlns:xlink="http://www.w3.org/1999/xlink" width="2500" viewBox="0 0 1874.88 1874.999927" height="2500" preserveAspectRatio="xMidYMid meet"><defs><clipPath id="189b40a920"><path d="M 0 0.0585938 L 1874.761719 0.0585938 L 1874.761719 1874.9375 L 0 1874.9375 Z M 0 0.0585938 " clip-rule="nonzero"></path></clipPath></defs><g clip-path="url(#189b40a920)"><path fill="#ff007a" d="M 1874.878906 923.933594 C 1874.878906 1442.171875 1455.675781 1874.941406 937.441406 1874.941406 C 419.203125 1874.941406 0 1440.8125 0 923.933594 C 0 407.050781 419.203125 0.0585938 937.441406 0.0585938 C 1455.675781 0.0585938 1874.878906 405.695312 1874.878906 923.933594 Z M 1874.878906 923.933594 " fill-opacity="1" fill-rule="nonzero"></path></g><path fill="#ffffff" d="M 751.578125 481.667969 C 738.011719 478.953125 736.65625 478.953125 743.441406 478.953125 C 755.648438 477.597656 785.496094 478.953125 805.84375 484.382812 C 853.328125 495.234375 896.742188 525.082031 942.867188 575.277344 L 955.078125 588.84375 L 972.710938 586.128906 C 1047.328125 573.917969 1121.945312 583.417969 1184.347656 611.90625 C 1201.984375 620.046875 1229.117188 636.324219 1231.832031 640.394531 C 1231.832031 640.394531 1234.542969 649.890625 1235.902344 659.386719 C 1239.972656 690.589844 1238.613281 713.652344 1229.117188 731.289062 C 1223.691406 740.785156 1223.691406 743.5 1227.761719 751.640625 C 1230.476562 758.421875 1238.613281 762.492188 1245.398438 762.492188 C 1261.675781 762.492188 1277.957031 736.714844 1286.097656 702.800781 L 1288.808594 689.234375 L 1295.59375 696.015625 C 1329.507812 734.003906 1355.285156 785.554688 1360.710938 822.183594 L 1360.710938 831.683594 C 1360.710938 831.683594 1356.644531 823.542969 1356.644531 823.542969 C 1348.503906 809.976562 1337.648438 799.121094 1324.082031 789.625 C 1301.019531 774.703125 1277.957031 769.277344 1214.195312 766.5625 C 1157.214844 763.847656 1124.65625 758.421875 1092.097656 748.925781 C 1037.832031 731.289062 1010.699219 708.226562 945.578125 622.757812 C 917.089844 584.773438 899.453125 564.421875 881.816406 548.144531 C 841.117188 510.15625 801.777344 489.808594 751.578125 483.023438 Z M 751.578125 481.667969 " fill-opacity="1" fill-rule="nonzero"></path><path fill="#ffffff" d="M 1245.398438 565.78125 C 1246.753906 540.003906 1250.824219 523.722656 1257.609375 508.800781 C 1258.964844 504.730469 1261.675781 500.660156 1263.035156 497.949219 C 1263.035156 497.949219 1263.035156 502.019531 1260.320312 507.445312 C 1254.894531 522.367188 1254.894531 542.71875 1257.609375 565.78125 C 1261.675781 595.625 1264.390625 599.695312 1295.59375 632.253906 C 1310.515625 647.179688 1328.152344 666.171875 1333.578125 674.3125 L 1344.433594 689.234375 L 1333.578125 678.382812 C 1320.011719 664.816406 1287.453125 640.394531 1280.671875 636.324219 C 1276.601562 633.613281 1275.242188 633.613281 1272.53125 636.324219 C 1269.816406 639.039062 1269.816406 643.109375 1268.460938 662.101562 C 1268.460938 691.949219 1264.390625 710.941406 1253.539062 729.933594 C 1248.109375 740.785156 1248.109375 738.074219 1253.539062 725.863281 C 1257.605469 717.722656 1257.605469 713.652344 1257.605469 685.164062 C 1257.605469 628.183594 1250.824219 614.617188 1210.125 590.199219 C 1197.914062 583.417969 1185.707031 576.632812 1173.496094 571.207031 C 1166.710938 568.492188 1161.285156 565.78125 1155.859375 561.710938 C 1155.859375 561.710938 1196.558594 572.5625 1211.480469 577.988281 C 1234.542969 587.484375 1238.613281 587.484375 1241.328125 587.484375 C 1242.683594 587.484375 1244.039062 580.703125 1245.398438 564.421875 Z M 777.355469 663.457031 C 748.867188 625.472656 731.230469 565.78125 735.300781 521.011719 L 735.300781 507.445312 C 735.300781 507.445312 743.441406 507.445312 743.441406 507.445312 C 755.648438 510.15625 776 516.941406 785.496094 523.722656 C 812.628906 540.003906 823.480469 560.351562 835.691406 615.976562 C 839.761719 632.253906 843.832031 649.890625 845.1875 656.675781 C 847.902344 666.171875 861.46875 689.234375 870.964844 704.15625 C 877.746094 715.011719 873.679688 720.4375 857.398438 719.082031 C 832.980469 716.367188 799.0625 693.304688 776 663.457031 Z M 1210.125 951.066406 C 1078.53125 898.15625 1032.40625 852.03125 1032.40625 776.058594 C 1032.40625 765.207031 1032.40625 755.710938 1032.40625 755.710938 C 1032.40625 755.710938 1037.832031 759.78125 1043.257812 763.847656 C 1070.390625 785.554688 1100.238281 793.695312 1182.992188 805.90625 C 1231.832031 812.6875 1258.964844 818.117188 1284.742188 827.613281 C 1364.78125 854.746094 1414.976562 907.652344 1427.1875 980.914062 C 1431.257812 1002.617188 1428.542969 1041.960938 1423.117188 1063.667969 C 1419.046875 1079.949219 1405.480469 1109.792969 1401.410156 1111.148438 C 1401.410156 1111.148438 1400.054688 1107.082031 1398.699219 1103.011719 C 1398.699219 1075.878906 1383.777344 1048.746094 1359.355469 1028.394531 C 1332.222656 1005.332031 1296.949219 987.695312 1208.769531 952.421875 Z M 1117.875 972.773438 C 1116.515625 963.277344 1113.804688 953.78125 1111.089844 945.640625 L 1107.019531 936.144531 L 1113.804688 942.925781 C 1121.945312 952.421875 1128.726562 964.632812 1135.507812 980.914062 C 1139.578125 993.121094 1140.9375 997.191406 1140.9375 1017.542969 C 1140.9375 1037.890625 1140.9375 1041.960938 1136.867188 1052.816406 C 1131.441406 1069.09375 1121.945312 1084.015625 1109.734375 1096.226562 C 1085.3125 1120.648438 1054.109375 1134.214844 1010.699219 1139.640625 C 1002.558594 1139.640625 980.851562 1142.351562 960.503906 1143.710938 C 910.308594 1146.421875 877.746094 1151.847656 847.902344 1161.347656 C 845.1875 1161.347656 842.476562 1162.703125 839.761719 1162.703125 C 839.761719 1162.703125 858.753906 1149.136719 875.035156 1140.996094 C 898.097656 1130.144531 922.515625 1123.359375 974.070312 1115.21875 C 999.84375 1111.148438 1026.976562 1105.722656 1033.761719 1103.011719 C 1097.523438 1084.015625 1131.441406 1032.464844 1120.585938 970.058594 Z M 1117.875 972.773438 " fill-opacity="1" fill-rule="nonzero"></path><path fill="#ffffff" d="M 1178.921875 1079.949219 C 1161.285156 1041.960938 1157.214844 1006.6875 1166.710938 972.773438 C 1166.710938 968.703125 1169.425781 965.988281 1170.78125 965.988281 C 1170.78125 965.988281 1176.210938 968.703125 1180.277344 971.414062 C 1188.417969 976.84375 1204.699219 986.339844 1248.109375 1009.402344 C 1302.375 1039.25 1332.222656 1060.953125 1353.929688 1086.730469 C 1371.566406 1109.792969 1383.773438 1135.570312 1389.203125 1166.773438 C 1391.914062 1184.410156 1389.203125 1227.820312 1386.488281 1245.457031 C 1371.566406 1302.4375 1339.007812 1345.847656 1290.167969 1371.625 C 1283.382812 1375.695312 1276.601562 1378.410156 1276.601562 1378.410156 C 1276.601562 1378.410156 1277.957031 1371.625 1282.027344 1363.484375 C 1298.308594 1329.570312 1299.664062 1297.011719 1287.453125 1261.738281 C 1279.3125 1240.03125 1264.390625 1212.898438 1234.542969 1166.773438 C 1199.273438 1113.863281 1189.773438 1098.941406 1181.636719 1079.949219 Z M 683.746094 1282.085938 C 732.585938 1241.386719 793.636719 1211.542969 849.257812 1203.402344 C 877.746094 1199.332031 906.238281 1200.6875 934.726562 1206.113281 C 970 1215.613281 1002.558594 1235.960938 1018.839844 1259.023438 C 1035.117188 1282.085938 1041.902344 1302.4375 1048.683594 1348.5625 C 1051.398438 1366.199219 1054.109375 1385.191406 1055.46875 1389.261719 C 1060.894531 1412.324219 1071.746094 1431.316406 1083.957031 1440.8125 C 1104.308594 1455.738281 1140.9375 1457.09375 1174.851562 1443.527344 C 1178.921875 1442.171875 1182.992188 1440.8125 1185.707031 1439.457031 C 1185.707031 1439.457031 1169.425781 1453.023438 1157.214844 1458.449219 C 1142.292969 1466.589844 1126.011719 1470.660156 1109.734375 1469.304688 C 1077.175781 1469.304688 1051.398438 1453.023438 1028.335938 1420.464844 C 1020.195312 1406.898438 1013.410156 1391.976562 1006.628906 1377.050781 C 983.566406 1324.144531 971.355469 1307.863281 944.222656 1290.226562 C 919.804688 1275.304688 889.957031 1272.589844 866.894531 1283.445312 C 837.046875 1298.367188 827.550781 1336.351562 849.257812 1360.773438 C 858.753906 1371.625 872.320312 1378.410156 887.242188 1379.765625 C 908.949219 1382.480469 929.300781 1367.554688 932.011719 1345.847656 C 932.011719 1344.492188 932.011719 1341.78125 932.011719 1340.421875 C 932.011719 1324.144531 925.230469 1314.648438 910.308594 1307.863281 C 888.601562 1298.367188 865.539062 1309.21875 866.894531 1329.570312 C 866.894531 1337.710938 870.964844 1343.136719 879.105469 1347.207031 C 884.53125 1349.917969 884.53125 1349.917969 879.105469 1348.5625 C 860.109375 1344.492188 854.683594 1321.429688 870.964844 1305.148438 C 889.957031 1286.15625 929.300781 1294.296875 942.867188 1320.074219 C 948.292969 1330.925781 949.648438 1352.632812 944.222656 1364.84375 C 933.371094 1393.332031 900.8125 1408.253906 868.25 1400.117188 C 846.542969 1394.6875 837.046875 1387.90625 809.914062 1360.773438 C 763.789062 1313.289062 746.152344 1303.792969 678.320312 1294.296875 L 666.113281 1294.296875 C 666.113281 1294.296875 681.035156 1280.730469 681.035156 1280.730469 Z M 683.746094 1282.085938 " fill-opacity="1" fill-rule="nonzero"></path><path fill="#ffffff" d="M 466.683594 432.828125 C 621.34375 618.6875 728.515625 696.015625 739.371094 712.296875 C 748.867188 725.863281 744.796875 738.074219 728.515625 747.570312 C 716.308594 752.996094 704.097656 757.066406 690.53125 758.421875 C 679.679688 758.421875 675.609375 754.351562 675.609375 754.351562 C 668.824219 748.925781 666.113281 748.925781 633.550781 691.949219 C 606.417969 649.890625 577.929688 606.480469 550.796875 564.421875 C 550.796875 564.421875 577.023438 611.90625 629.480469 706.871094 C 643.046875 736.714844 632.195312 747.570312 632.195312 751.640625 C 632.195312 759.78125 629.480469 765.207031 618.628906 777.417969 C 600.992188 797.765625 592.851562 819.472656 586.070312 865.597656 C 579.285156 917.148438 561.648438 953.78125 510.097656 1017.542969 C 480.25 1054.171875 476.179688 1060.953125 468.042969 1075.878906 C 458.546875 1094.871094 455.832031 1105.722656 454.476562 1128.785156 C 454.476562 1153.207031 454.476562 1169.484375 462.613281 1193.90625 C 469.398438 1214.253906 476.179688 1229.179688 493.816406 1256.3125 C 508.742188 1280.730469 518.238281 1298.367188 518.238281 1305.148438 C 518.238281 1310.578125 518.238281 1310.578125 544.011719 1305.148438 C 600.992188 1292.941406 648.476562 1269.878906 674.25 1241.386719 C 690.53125 1223.75 694.601562 1214.253906 694.601562 1191.191406 C 694.601562 1176.269531 694.601562 1172.199219 690.53125 1164.058594 C 683.746094 1149.136719 671.539062 1138.28125 644.40625 1119.289062 C 609.132812 1094.871094 592.851562 1075.878906 588.78125 1048.746094 C 584.710938 1027.039062 588.78125 1010.757812 609.132812 970.058594 C 629.480469 926.648438 634.910156 909.011719 637.621094 865.597656 C 640.335938 837.109375 643.046875 826.253906 651.1875 818.117188 C 659.328125 808.617188 667.46875 805.90625 687.816406 803.191406 C 721.734375 799.121094 743.441406 789.625 761.078125 773.347656 C 776 761.136719 784.140625 743.5 784.140625 725.863281 L 784.140625 710.941406 C 784.140625 710.941406 776 701.445312 776 701.445312 C 744.796875 664.816406 443.621094 407.050781 442.265625 407.050781 C 442.265625 407.050781 451.761719 419.261719 465.328125 435.542969 Z M 538.585938 1157.277344 C 545.371094 1145.066406 541.300781 1128.785156 530.445312 1120.648438 C 519.59375 1113.863281 501.957031 1116.578125 501.957031 1126.074219 C 501.957031 1128.785156 503.3125 1131.5 507.382812 1132.855469 C 514.167969 1135.570312 514.167969 1139.640625 508.742188 1146.421875 C 503.3125 1153.207031 504.671875 1159.988281 508.742188 1164.058594 C 518.238281 1170.84375 530.445312 1166.773438 537.230469 1155.917969 Z M 807.203125 809.976562 C 790.921875 815.402344 776 831.683594 770.574219 849.316406 C 767.859375 860.171875 770.574219 879.164062 773.285156 884.589844 C 780.070312 894.085938 786.851562 896.800781 805.84375 896.800781 C 842.476562 896.800781 873.675781 880.519531 877.746094 861.527344 C 880.460938 845.25 866.894531 823.542969 847.902344 814.046875 C 834.335938 808.617188 820.769531 807.261719 807.203125 809.976562 Z M 849.257812 842.535156 C 854.683594 834.394531 851.972656 826.253906 842.476562 820.828125 C 824.839844 809.976562 797.707031 819.472656 797.707031 835.75 C 797.707031 843.890625 812.628906 853.386719 824.839844 853.386719 C 832.976562 853.386719 845.1875 847.960938 849.257812 842.535156 Z M 849.257812 842.535156 " fill-opacity="1" fill-rule="nonzero"></path></svg>