<svg xmlns="http://www.w3.org/2000/svg" xmlns:xlink="http://www.w3.org/1999/xlink" width="250" viewBox="0 0 187.5 187.499992" height="250" preserveAspectRatio="xMidYMid meet"><path fill="#8dc63f" d="M 187 93.085938 C 187.007812 94.617188 186.976562 96.148438 186.910156 97.675781 C 186.839844 99.203125 186.734375 100.730469 186.589844 102.253906 C 186.449219 103.777344 186.269531 105.296875 186.050781 106.8125 C 185.832031 108.324219 185.578125 109.835938 185.285156 111.335938 C 184.992188 112.839844 184.664062 114.332031 184.300781 115.816406 C 183.933594 117.304688 183.53125 118.78125 183.09375 120.246094 C 182.65625 121.710938 182.183594 123.167969 181.675781 124.609375 C 181.164062 126.054688 180.621094 127.484375 180.042969 128.898438 C 179.460938 130.316406 178.847656 131.71875 178.199219 133.101562 C 177.550781 134.488281 176.871094 135.859375 176.15625 137.210938 C 175.441406 138.5625 174.691406 139.898438 173.910156 141.214844 C 173.128906 142.53125 172.316406 143.828125 171.472656 145.101562 C 170.628906 146.378906 169.753906 147.632812 168.847656 148.867188 C 167.941406 150.097656 167.003906 151.308594 166.039062 152.496094 C 165.074219 153.683594 164.078125 154.847656 163.058594 155.984375 C 162.035156 157.121094 160.984375 158.234375 159.90625 159.320312 C 158.832031 160.410156 157.726562 161.46875 156.597656 162.5 C 155.46875 163.535156 154.316406 164.539062 153.136719 165.515625 C 151.957031 166.488281 150.757812 167.4375 149.53125 168.355469 C 148.304688 169.269531 147.058594 170.15625 145.789062 171.011719 C 144.523438 171.867188 143.234375 172.691406 141.925781 173.484375 C 140.613281 174.277344 139.289062 175.039062 137.941406 175.765625 C 136.59375 176.492188 135.230469 177.1875 133.851562 177.847656 C 132.46875 178.507812 131.074219 179.132812 129.664062 179.722656 C 128.253906 180.316406 126.828125 180.871094 125.390625 181.394531 C 123.949219 181.917969 122.5 182.402344 121.039062 182.855469 C 119.574219 183.304688 118.101562 183.71875 116.621094 184.097656 C 115.136719 184.476562 113.648438 184.816406 112.148438 185.121094 C 110.648438 185.425781 109.140625 185.695312 107.628906 185.925781 C 106.117188 186.15625 104.597656 186.351562 103.078125 186.507812 C 101.554688 186.664062 100.03125 186.785156 98.5 186.867188 C 96.972656 186.949219 95.445312 186.992188 93.914062 187 C 92.382812 187.007812 90.855469 186.976562 89.328125 186.90625 C 87.796875 186.839844 86.273438 186.734375 84.75 186.589844 C 83.222656 186.445312 81.707031 186.265625 80.191406 186.046875 C 78.675781 185.832031 77.167969 185.574219 75.664062 185.285156 C 74.164062 184.992188 72.667969 184.664062 71.183594 184.296875 C 69.699219 183.933594 68.222656 183.53125 66.753906 183.09375 C 65.289062 182.65625 63.835938 182.183594 62.390625 181.671875 C 60.949219 181.164062 59.519531 180.621094 58.101562 180.039062 C 56.6875 179.460938 55.285156 178.847656 53.898438 178.199219 C 52.511719 177.550781 51.144531 176.871094 49.789062 176.152344 C 48.4375 175.4375 47.101562 174.691406 45.789062 173.910156 C 44.472656 173.128906 43.175781 172.316406 41.898438 171.472656 C 40.625 170.628906 39.367188 169.75 38.136719 168.84375 C 36.902344 167.941406 35.691406 167.003906 34.503906 166.039062 C 33.316406 165.074219 32.15625 164.078125 31.015625 163.054688 C 29.878906 162.035156 28.765625 160.984375 27.679688 159.90625 C 26.59375 158.828125 25.53125 157.726562 24.5 156.597656 C 23.46875 155.46875 22.464844 154.3125 21.488281 153.136719 C 20.511719 151.957031 19.566406 150.753906 18.648438 149.53125 C 17.730469 148.304688 16.84375 147.058594 15.988281 145.789062 C 15.132812 144.519531 14.308594 143.230469 13.515625 141.921875 C 12.722656 140.613281 11.964844 139.285156 11.238281 137.941406 C 10.507812 136.59375 9.816406 135.230469 9.15625 133.851562 C 8.496094 132.46875 7.867188 131.074219 7.277344 129.664062 C 6.683594 128.25 6.128906 126.828125 5.605469 125.386719 C 5.085938 123.949219 4.597656 122.5 4.148438 121.035156 C 3.695312 119.574219 3.28125 118.101562 2.90625 116.621094 C 2.527344 115.136719 2.183594 113.644531 1.878906 112.144531 C 1.574219 110.648438 1.304688 109.140625 1.074219 107.628906 C 0.84375 106.117188 0.648438 104.597656 0.492188 103.074219 C 0.335938 101.554688 0.214844 100.027344 0.132812 98.5 C 0.0546875 96.972656 0.0078125 95.445312 0 93.914062 C -0.00390625 92.382812 0.0273438 90.855469 0.09375 89.324219 C 0.164062 87.796875 0.269531 86.269531 0.410156 84.746094 C 0.554688 83.222656 0.734375 81.703125 0.953125 80.191406 C 1.171875 78.675781 1.425781 77.167969 1.71875 75.664062 C 2.007812 74.164062 2.339844 72.667969 2.703125 71.183594 C 3.070312 69.695312 3.46875 68.21875 3.90625 66.753906 C 4.34375 65.289062 4.820312 63.832031 5.328125 62.390625 C 5.835938 60.945312 6.382812 59.515625 6.960938 58.101562 C 7.539062 56.683594 8.152344 55.285156 8.800781 53.898438 C 9.449219 52.511719 10.132812 51.140625 10.847656 49.789062 C 11.5625 48.4375 12.3125 47.101562 13.089844 45.785156 C 13.871094 44.46875 14.683594 43.175781 15.53125 41.898438 C 16.375 40.621094 17.25 39.367188 18.15625 38.132812 C 19.0625 36.902344 19.996094 35.691406 20.960938 34.503906 C 21.929688 33.316406 22.921875 32.152344 23.945312 31.015625 C 24.96875 29.878906 26.015625 28.765625 27.09375 27.679688 C 28.171875 26.589844 29.273438 25.53125 30.402344 24.5 C 31.535156 23.464844 32.6875 22.460938 33.867188 21.484375 C 35.042969 20.511719 36.246094 19.5625 37.472656 18.648438 C 38.695312 17.730469 39.941406 16.84375 41.210938 15.988281 C 42.480469 15.132812 43.769531 14.308594 45.078125 13.515625 C 46.386719 12.722656 47.714844 11.960938 49.0625 11.234375 C 50.40625 10.507812 51.769531 9.8125 53.152344 9.152344 C 54.53125 8.492188 55.925781 7.867188 57.339844 7.277344 C 58.75 6.683594 60.175781 6.128906 61.613281 5.605469 C 63.050781 5.082031 64.5 4.597656 65.964844 4.144531 C 67.425781 3.695312 68.898438 3.28125 70.382812 2.902344 C 71.863281 2.523438 73.355469 2.183594 74.855469 1.878906 C 76.355469 1.570312 77.859375 1.304688 79.371094 1.074219 C 80.886719 0.839844 82.402344 0.648438 83.925781 0.492188 C 85.445312 0.335938 86.972656 0.214844 88.5 0.132812 C 90.027344 0.0507812 91.558594 0.0078125 93.085938 0 C 94.617188 -0.0078125 96.148438 0.0234375 97.675781 0.09375 C 99.203125 0.160156 100.730469 0.265625 102.253906 0.410156 C 103.777344 0.554688 105.296875 0.734375 106.8125 0.953125 C 108.324219 1.167969 109.835938 1.425781 111.335938 1.714844 C 112.839844 2.007812 114.332031 2.335938 115.820312 2.703125 C 117.304688 3.066406 118.78125 3.46875 120.246094 3.90625 C 121.714844 4.34375 123.167969 4.816406 124.609375 5.328125 C 126.054688 5.835938 127.484375 6.378906 128.898438 6.957031 C 130.316406 7.539062 131.71875 8.152344 133.105469 8.800781 C 134.488281 9.449219 135.859375 10.128906 137.210938 10.84375 C 138.566406 11.5625 139.898438 12.308594 141.214844 13.089844 C 142.53125 13.871094 143.828125 14.683594 145.101562 15.527344 C 146.378906 16.371094 147.632812 17.246094 148.867188 18.152344 C 150.101562 19.058594 151.308594 19.996094 152.496094 20.960938 C 153.683594 21.925781 154.847656 22.921875 155.984375 23.945312 C 157.125 24.964844 158.238281 26.015625 159.324219 27.09375 C 160.410156 28.171875 161.46875 29.273438 162.503906 30.402344 C 163.535156 31.53125 164.539062 32.6875 165.515625 33.863281 C 166.492188 35.042969 167.4375 36.246094 168.355469 37.46875 C 169.273438 38.695312 170.160156 39.941406 171.015625 41.210938 C 171.871094 42.480469 172.695312 43.769531 173.488281 45.078125 C 174.277344 46.386719 175.039062 47.714844 175.765625 49.058594 C 176.492188 50.40625 177.1875 51.769531 177.847656 53.148438 C 178.507812 54.53125 179.132812 55.925781 179.726562 57.335938 C 180.316406 58.75 180.875 60.171875 181.398438 61.613281 C 181.917969 63.050781 182.40625 64.5 182.855469 65.964844 C 183.304688 67.425781 183.71875 68.898438 184.097656 70.378906 C 184.476562 71.863281 184.820312 73.355469 185.125 74.855469 C 185.429688 76.355469 185.699219 77.859375 185.929688 79.371094 C 186.160156 80.886719 186.355469 82.402344 186.511719 83.925781 C 186.667969 85.445312 186.785156 86.972656 186.867188 88.5 C 186.949219 90.027344 186.996094 91.558594 187 93.085938 Z M 187 93.085938 " fill-opacity="1" fill-rule="nonzero"></path><path fill="#f9e988" d="M 179.988281 93.121094 C 179.996094 94.535156 179.96875 95.953125 179.90625 97.363281 C 179.84375 98.777344 179.746094 100.191406 179.613281 101.601562 C 179.480469 103.007812 179.316406 104.414062 179.113281 105.816406 C 178.914062 107.214844 178.679688 108.613281 178.410156 110 C 178.140625 111.390625 177.835938 112.773438 177.5 114.148438 C 177.164062 115.523438 176.792969 116.886719 176.386719 118.242188 C 175.984375 119.601562 175.546875 120.945312 175.078125 122.28125 C 174.605469 123.617188 174.105469 124.9375 173.570312 126.25 C 173.03125 127.558594 172.464844 128.855469 171.867188 130.136719 C 171.269531 131.417969 170.636719 132.6875 169.976562 133.9375 C 169.316406 135.1875 168.625 136.421875 167.902344 137.640625 C 167.179688 138.859375 166.429688 140.058594 165.648438 141.238281 C 164.871094 142.417969 164.058594 143.578125 163.222656 144.722656 C 162.386719 145.863281 161.519531 146.980469 160.628906 148.078125 C 159.734375 149.179688 158.816406 150.253906 157.871094 151.308594 C 156.925781 152.359375 155.953125 153.390625 154.957031 154.394531 C 153.960938 155.402344 152.941406 156.382812 151.898438 157.335938 C 150.855469 158.292969 149.789062 159.222656 148.699219 160.125 C 147.609375 161.027344 146.496094 161.90625 145.363281 162.753906 C 144.230469 163.601562 143.078125 164.421875 141.90625 165.214844 C 140.734375 166.007812 139.542969 166.769531 138.332031 167.503906 C 137.121094 168.234375 135.894531 168.941406 134.648438 169.613281 C 133.402344 170.285156 132.140625 170.929688 130.867188 171.539062 C 129.589844 172.152344 128.296875 172.730469 126.992188 173.277344 C 125.6875 173.828125 124.371094 174.34375 123.039062 174.824219 C 121.710938 175.308594 120.367188 175.757812 119.015625 176.175781 C 117.664062 176.59375 116.300781 176.976562 114.929688 177.328125 C 113.558594 177.679688 112.179688 177.996094 110.792969 178.277344 C 109.40625 178.5625 108.015625 178.808594 106.617188 179.023438 C 105.214844 179.238281 103.8125 179.417969 102.40625 179.5625 C 100.996094 179.710938 99.585938 179.820312 98.171875 179.894531 C 96.761719 179.972656 95.347656 180.015625 93.929688 180.019531 C 92.515625 180.027344 91.101562 180 89.6875 179.9375 C 88.273438 179.875 86.859375 179.777344 85.453125 179.644531 C 84.042969 179.511719 82.636719 179.347656 81.238281 179.144531 C 79.835938 178.945312 78.441406 178.710938 77.050781 178.441406 C 75.660156 178.171875 74.28125 177.867188 72.90625 177.53125 C 71.53125 177.191406 70.164062 176.820312 68.808594 176.417969 C 67.453125 176.011719 66.105469 175.574219 64.773438 175.105469 C 63.4375 174.632812 62.113281 174.132812 60.804688 173.597656 C 59.496094 173.0625 58.199219 172.492188 56.914062 171.894531 C 55.632812 171.296875 54.367188 170.664062 53.113281 170.003906 C 51.863281 169.34375 50.628906 168.652344 49.410156 167.929688 C 48.195312 167.207031 46.996094 166.457031 45.816406 165.675781 C 44.632812 164.894531 43.472656 164.085938 42.332031 163.25 C 41.191406 162.410156 40.074219 161.546875 38.972656 160.652344 C 37.875 159.761719 36.800781 158.839844 35.746094 157.894531 C 34.695312 156.949219 33.664062 155.980469 32.660156 154.984375 C 31.652344 153.988281 30.671875 152.96875 29.71875 151.921875 C 28.761719 150.878906 27.832031 149.8125 26.929688 148.722656 C 26.027344 147.632812 25.152344 146.519531 24.300781 145.386719 C 23.453125 144.253906 22.632812 143.101562 21.84375 141.929688 C 21.050781 140.757812 20.289062 139.5625 19.554688 138.355469 C 18.820312 137.144531 18.117188 135.914062 17.445312 134.671875 C 16.773438 133.425781 16.128906 132.164062 15.519531 130.886719 C 14.90625 129.613281 14.328125 128.320312 13.78125 127.015625 C 13.230469 125.710938 12.714844 124.394531 12.234375 123.0625 C 11.75 121.730469 11.300781 120.390625 10.882812 119.039062 C 10.464844 117.6875 10.082031 116.324219 9.730469 114.953125 C 9.382812 113.582031 9.066406 112.203125 8.78125 110.816406 C 8.5 109.429688 8.25 108.035156 8.039062 106.636719 C 7.824219 105.238281 7.644531 103.835938 7.496094 102.425781 C 7.351562 101.019531 7.242188 99.609375 7.164062 98.195312 C 7.089844 96.78125 7.046875 95.367188 7.042969 93.953125 C 7.035156 92.535156 7.0625 91.121094 7.125 89.707031 C 7.1875 88.292969 7.285156 86.882812 7.417969 85.472656 C 7.550781 84.0625 7.71875 82.660156 7.917969 81.257812 C 8.121094 79.855469 8.355469 78.460938 8.625 77.074219 C 8.894531 75.683594 9.199219 74.300781 9.535156 72.925781 C 9.871094 71.550781 10.242188 70.1875 10.648438 68.832031 C 11.054688 67.472656 11.492188 66.128906 11.960938 64.792969 C 12.429688 63.460938 12.933594 62.136719 13.46875 60.828125 C 14.003906 59.515625 14.574219 58.21875 15.171875 56.9375 C 15.773438 55.65625 16.402344 54.390625 17.0625 53.136719 C 17.722656 51.886719 18.417969 50.652344 19.136719 49.433594 C 19.859375 48.21875 20.613281 47.019531 21.390625 45.839844 C 22.171875 44.65625 22.984375 43.496094 23.820312 42.355469 C 24.660156 41.214844 25.523438 40.097656 26.417969 39 C 27.308594 37.898438 28.230469 36.824219 29.175781 35.769531 C 30.121094 34.71875 31.089844 33.6875 32.085938 32.683594 C 33.082031 31.679688 34.101562 30.699219 35.148438 29.742188 C 36.191406 28.785156 37.257812 27.859375 38.347656 26.953125 C 39.4375 26.050781 40.550781 25.175781 41.683594 24.328125 C 42.816406 23.480469 43.96875 22.660156 45.140625 21.867188 C 46.316406 21.078125 47.507812 20.3125 48.71875 19.582031 C 49.929688 18.847656 51.15625 18.144531 52.402344 17.472656 C 53.648438 16.796875 54.90625 16.15625 56.183594 15.546875 C 57.460938 14.933594 58.75 14.355469 60.058594 13.808594 C 61.363281 13.261719 62.679688 12.746094 64.011719 12.261719 C 65.339844 11.777344 66.683594 11.328125 68.035156 10.910156 C 69.386719 10.496094 70.75 10.113281 72.121094 9.761719 C 73.492188 9.410156 74.871094 9.09375 76.257812 8.8125 C 77.644531 8.53125 79.039062 8.28125 80.4375 8.066406 C 81.835938 7.851562 83.238281 7.671875 84.648438 7.527344 C 86.054688 7.382812 87.464844 7.273438 88.878906 7.195312 C 90.292969 7.121094 91.707031 7.078125 93.121094 7.074219 C 94.535156 7.066406 95.949219 7.097656 97.363281 7.160156 C 98.777344 7.222656 100.1875 7.320312 101.597656 7.453125 C 103.003906 7.585938 104.410156 7.75 105.808594 7.953125 C 107.210938 8.15625 108.605469 8.390625 109.992188 8.660156 C 111.382812 8.929688 112.765625 9.234375 114.136719 9.570312 C 115.511719 9.910156 116.878906 10.28125 118.234375 10.683594 C 119.589844 11.089844 120.933594 11.527344 122.269531 11.996094 C 123.601562 12.46875 124.925781 12.96875 126.234375 13.503906 C 127.542969 14.042969 128.839844 14.609375 130.121094 15.207031 C 131.402344 15.804688 132.667969 16.4375 133.917969 17.097656 C 135.171875 17.757812 136.40625 18.449219 137.621094 19.171875 C 138.839844 19.894531 140.035156 20.644531 141.214844 21.425781 C 142.398438 22.207031 143.558594 23.015625 144.695312 23.851562 C 145.835938 24.691406 146.957031 25.554688 148.054688 26.449219 C 149.152344 27.339844 150.226562 28.257812 151.28125 29.203125 C 152.332031 30.148438 153.363281 31.121094 154.367188 32.113281 C 155.371094 33.109375 156.351562 34.128906 157.308594 35.175781 C 158.261719 36.21875 159.191406 37.285156 160.09375 38.375 C 160.996094 39.464844 161.871094 40.574219 162.722656 41.707031 C 163.570312 42.839844 164.390625 43.992188 165.179688 45.164062 C 165.972656 46.335938 166.734375 47.527344 167.46875 48.738281 C 168.203125 49.949219 168.90625 51.175781 169.578125 52.417969 C 170.25 53.664062 170.894531 54.925781 171.503906 56.199219 C 172.117188 57.476562 172.695312 58.765625 173.242188 60.070312 C 173.789062 61.375 174.304688 62.691406 174.789062 64.023438 C 175.273438 65.351562 175.722656 66.691406 176.140625 68.042969 C 176.558594 69.398438 176.941406 70.757812 177.292969 72.128906 C 177.644531 73.5 177.960938 74.878906 178.242188 76.265625 C 178.527344 77.648438 178.773438 79.042969 178.988281 80.441406 C 179.203125 81.839844 179.382812 83.242188 179.53125 84.648438 C 179.675781 86.058594 179.785156 87.46875 179.863281 88.878906 C 179.941406 90.292969 179.980469 91.707031 179.988281 93.121094 Z M 179.988281 93.121094 " fill-opacity="1" fill-rule="nonzero"></path><path fill="#ffffff" d="M 95.09375 12.644531 C 100.632812 11.660156 106.171875 11.660156 111.714844 12.644531 C 117.300781 13.527344 122.59375 15.300781 127.585938 17.960938 C 132.519531 20.671875 136.78125 24.351562 141.023438 27.800781 C 145.265625 31.25 149.484375 34.777344 153.503906 38.640625 C 157.625 42.457031 161.171875 46.75 164.148438 51.511719 C 167.207031 56.234375 169.691406 61.242188 171.601562 66.535156 C 175.210938 77.144531 176.464844 88.574219 174.664062 99.476562 L 174.128906 99.476562 C 172.320312 88.667969 169.867188 78.371094 165.996094 68.574219 C 164.179688 63.644531 162.046875 58.855469 159.601562 54.203125 C 157.050781 49.527344 154.246094 45.011719 151.1875 40.652344 C 148.058594 36.234375 144.300781 32.441406 139.914062 29.269531 C 135.523438 26.140625 130.472656 24.113281 125.589844 22.191406 C 120.703125 20.265625 115.859375 18.292969 110.765625 16.832031 C 105.667969 15.367188 100.492188 14.269531 95.085938 13.207031 Z M 95.09375 12.644531 " fill-opacity="1" fill-rule="nonzero"></path><path fill="#8bc53f" d="M 137.363281 62.597656 C 131.089844 60.78125 124.585938 58.207031 118 55.605469 C 117.621094 53.953125 116.15625 51.894531 113.195312 49.378906 C 108.894531 45.644531 100.8125 45.742188 93.824219 47.394531 C 86.117188 45.578125 78.5 44.933594 71.1875 46.714844 C 11.394531 63.1875 45.300781 103.371094 23.347656 143.765625 C 26.472656 150.394531 60.136719 189.054688 108.855469 178.679688 C 108.855469 178.679688 92.191406 138.644531 129.789062 119.429688 C 160.285156 103.785156 182.320312 74.839844 137.363281 62.597656 Z M 137.363281 62.597656 " fill-opacity="1" fill-rule="nonzero"></path><path fill="#ffffff" d="M 144.75 88.894531 C 144.753906 89.375 144.664062 89.835938 144.480469 90.28125 C 144.300781 90.726562 144.039062 91.121094 143.703125 91.460938 C 143.363281 91.804688 142.972656 92.066406 142.53125 92.253906 C 142.089844 92.441406 141.625 92.535156 141.144531 92.539062 C 140.664062 92.542969 140.203125 92.453125 139.757812 92.269531 C 139.3125 92.089844 138.917969 91.828125 138.578125 91.492188 C 138.234375 91.152344 137.96875 90.761719 137.785156 90.320312 C 137.597656 89.875 137.503906 89.414062 137.5 88.933594 C 137.496094 88.453125 137.585938 87.992188 137.769531 87.546875 C 137.949219 87.101562 138.210938 86.707031 138.546875 86.363281 C 138.886719 86.023438 139.277344 85.757812 139.71875 85.574219 C 140.164062 85.386719 140.625 85.292969 141.105469 85.289062 C 141.585938 85.285156 142.046875 85.378906 142.492188 85.558594 C 142.9375 85.742188 143.332031 86 143.671875 86.339844 C 144.011719 86.675781 144.277344 87.066406 144.464844 87.507812 C 144.652344 87.953125 144.746094 88.414062 144.75 88.894531 Z M 144.75 88.894531 " fill-opacity="1" fill-rule="nonzero"></path><path fill="#009345" d="M 93.824219 47.367188 C 98.183594 47.679688 113.933594 52.789062 118 55.578125 C 114.613281 45.753906 103.210938 44.445312 93.824219 47.367188 Z M 93.824219 47.367188 " fill-opacity="1" fill-rule="nonzero"></path><path fill="#ffffff" d="M 97.972656 72.210938 C 97.972656 72.761719 97.945312 73.304688 97.894531 73.851562 C 97.839844 74.394531 97.757812 74.9375 97.652344 75.476562 C 97.546875 76.011719 97.414062 76.542969 97.253906 77.066406 C 97.09375 77.589844 96.910156 78.105469 96.703125 78.613281 C 96.492188 79.117188 96.257812 79.613281 96 80.09375 C 95.742188 80.578125 95.460938 81.046875 95.15625 81.503906 C 94.855469 81.960938 94.527344 82.398438 94.179688 82.820312 C 93.832031 83.246094 93.464844 83.652344 93.078125 84.039062 C 92.691406 84.425781 92.289062 84.792969 91.863281 85.140625 C 91.441406 85.488281 91 85.816406 90.546875 86.117188 C 90.089844 86.421875 89.621094 86.703125 89.140625 86.964844 C 88.65625 87.222656 88.160156 87.457031 87.65625 87.664062 C 87.148438 87.875 86.636719 88.058594 86.109375 88.21875 C 85.585938 88.378906 85.058594 88.511719 84.519531 88.617188 C 83.984375 88.726562 83.441406 88.804688 82.898438 88.859375 C 82.351562 88.914062 81.804688 88.941406 81.257812 88.941406 C 80.710938 88.941406 80.164062 88.914062 79.617188 88.859375 C 79.074219 88.808594 78.53125 88.726562 77.996094 88.621094 C 77.457031 88.515625 76.925781 88.382812 76.402344 88.222656 C 75.878906 88.0625 75.363281 87.878906 74.859375 87.671875 C 74.351562 87.460938 73.855469 87.226562 73.375 86.96875 C 72.890625 86.710938 72.421875 86.429688 71.964844 86.125 C 71.511719 85.824219 71.070312 85.496094 70.648438 85.148438 C 70.222656 84.800781 69.820312 84.433594 69.429688 84.046875 C 69.042969 83.660156 68.675781 83.253906 68.328125 82.832031 C 67.980469 82.410156 67.65625 81.96875 67.351562 81.515625 C 67.046875 81.058594 66.765625 80.589844 66.507812 80.109375 C 66.25 79.625 66.015625 79.128906 65.804688 78.625 C 65.59375 78.117188 65.410156 77.605469 65.25 77.078125 C 65.09375 76.554688 64.957031 76.023438 64.851562 75.488281 C 64.746094 74.949219 64.664062 74.410156 64.609375 73.863281 C 64.554688 73.320312 64.527344 72.773438 64.527344 72.226562 C 64.527344 71.679688 64.554688 71.132812 64.609375 70.585938 C 64.664062 70.042969 64.742188 69.5 64.847656 68.964844 C 64.957031 68.425781 65.089844 67.894531 65.246094 67.371094 C 65.40625 66.847656 65.589844 66.332031 65.800781 65.828125 C 66.007812 65.320312 66.242188 64.824219 66.5 64.34375 C 66.757812 63.859375 67.039062 63.390625 67.34375 62.933594 C 67.648438 62.480469 67.972656 62.039062 68.320312 61.617188 C 68.667969 61.191406 69.035156 60.789062 69.421875 60.398438 C 69.808594 60.011719 70.214844 59.644531 70.636719 59.296875 C 71.058594 58.949219 71.5 58.625 71.953125 58.320312 C 72.410156 58.015625 72.878906 57.734375 73.363281 57.476562 C 73.84375 57.214844 74.339844 56.984375 74.84375 56.773438 C 75.351562 56.5625 75.867188 56.378906 76.390625 56.21875 C 76.914062 56.058594 77.445312 55.925781 77.980469 55.820312 C 78.519531 55.714844 79.058594 55.632812 79.605469 55.578125 C 80.148438 55.523438 80.695312 55.496094 81.242188 55.496094 C 81.792969 55.496094 82.335938 55.523438 82.882812 55.578125 C 83.425781 55.632812 83.96875 55.710938 84.503906 55.820312 C 85.042969 55.925781 85.570312 56.058594 86.09375 56.214844 C 86.621094 56.375 87.132812 56.558594 87.640625 56.769531 C 88.144531 56.976562 88.640625 57.210938 89.121094 57.46875 C 89.605469 57.726562 90.074219 58.007812 90.53125 58.3125 C 90.984375 58.617188 91.425781 58.941406 91.847656 59.289062 C 92.269531 59.636719 92.675781 60.003906 93.0625 60.390625 C 93.449219 60.777344 93.816406 61.183594 94.164062 61.605469 C 94.511719 62.027344 94.839844 62.46875 95.144531 62.921875 C 95.445312 63.375 95.726562 63.847656 95.988281 64.328125 C 96.246094 64.8125 96.480469 65.304688 96.6875 65.8125 C 96.898438 66.316406 97.082031 66.832031 97.242188 67.355469 C 97.402344 67.878906 97.535156 68.410156 97.640625 68.945312 C 97.75 69.480469 97.828125 70.023438 97.882812 70.566406 C 97.9375 71.113281 97.964844 71.65625 97.964844 72.207031 Z M 97.972656 72.210938 " fill-opacity="1" fill-rule="nonzero"></path><path fill="#58595b" d="M 93.011719 72.363281 C 93.011719 73.132812 92.9375 73.898438 92.785156 74.65625 C 92.636719 75.414062 92.414062 76.148438 92.117188 76.863281 C 91.820312 77.574219 91.460938 78.253906 91.03125 78.894531 C 90.601562 79.539062 90.113281 80.132812 89.566406 80.679688 C 89.023438 81.222656 88.425781 81.710938 87.785156 82.140625 C 87.144531 82.570312 86.464844 82.933594 85.75 83.226562 C 85.039062 83.523438 84.304688 83.746094 83.546875 83.898438 C 82.789062 84.046875 82.023438 84.125 81.25 84.125 C 80.476562 84.125 79.714844 84.046875 78.957031 83.898438 C 78.199219 83.746094 77.464844 83.523438 76.75 83.226562 C 76.035156 82.933594 75.359375 82.570312 74.714844 82.140625 C 74.074219 81.710938 73.480469 81.222656 72.933594 80.679688 C 72.386719 80.132812 71.898438 79.539062 71.472656 78.894531 C 71.042969 78.253906 70.679688 77.574219 70.382812 76.863281 C 70.089844 76.148438 69.867188 75.414062 69.714844 74.65625 C 69.5625 73.898438 69.488281 73.132812 69.488281 72.363281 C 69.488281 71.589844 69.5625 70.824219 69.714844 70.066406 C 69.867188 69.308594 70.089844 68.574219 70.382812 67.859375 C 70.679688 67.148438 71.042969 66.46875 71.472656 65.828125 C 71.898438 65.183594 72.386719 64.589844 72.933594 64.042969 C 73.480469 63.5 74.074219 63.011719 74.714844 62.582031 C 75.359375 62.152344 76.035156 61.789062 76.75 61.496094 C 77.464844 61.199219 78.199219 60.976562 78.957031 60.824219 C 79.714844 60.675781 80.476562 60.597656 81.25 60.597656 C 82.023438 60.597656 82.789062 60.675781 83.546875 60.824219 C 84.304688 60.976562 85.039062 61.199219 85.75 61.496094 C 86.464844 61.789062 87.144531 62.152344 87.785156 62.582031 C 88.425781 63.011719 89.023438 63.5 89.566406 64.042969 C 90.113281 64.589844 90.601562 65.183594 91.03125 65.828125 C 91.460938 66.46875 91.820312 67.148438 92.117188 67.859375 C 92.414062 68.574219 92.636719 69.308594 92.785156 70.066406 C 92.9375 70.824219 93.011719 71.589844 93.011719 72.363281 Z M 93.011719 72.363281 " fill-opacity="1" fill-rule="nonzero"></path><path fill="#8bc53f" d="M 158.292969 96.265625 C 144.742188 105.8125 129.335938 113.054688 107.476562 113.054688 C 97.246094 113.054688 95.175781 102.214844 88.414062 107.511719 C 84.921875 110.261719 72.617188 116.414062 62.855469 115.949219 C 53.09375 115.480469 37.265625 109.761719 32.855469 88.914062 C 31.105469 109.761719 30.210938 125.109375 22.359375 142.703125 C 37.941406 167.65625 75.097656 186.90625 108.828125 178.613281 C 105.230469 153.308594 127.378906 128.523438 139.804688 115.859375 C 144.546875 111.054688 153.558594 103.214844 158.292969 96.273438 Z M 158.292969 96.265625 " fill-opacity="1" fill-rule="nonzero"></path><path fill="#58595b" d="M 157.765625 96.886719 C 153.558594 100.722656 148.550781 103.5625 143.457031 106.070312 C 138.285156 108.519531 132.933594 110.46875 127.398438 111.917969 C 121.871094 113.347656 116.101562 114.421875 110.261719 113.894531 C 104.421875 113.367188 98.453125 111.382812 94.585938 107.003906 L 94.769531 106.792969 C 99.511719 109.871094 104.984375 110.953125 110.433594 111.109375 C 115.972656 111.28125 121.460938 110.828125 126.898438 109.753906 C 132.382812 108.605469 137.714844 106.957031 142.894531 104.808594 C 148.0625 102.675781 153.179688 100.203125 157.582031 96.679688 Z M 157.765625 96.886719 " fill-opacity="1" fill-rule="nonzero"></path></svg>