<svg xmlns="http://www.w3.org/2000/svg" xmlns:xlink="http://www.w3.org/1999/xlink" width="250" viewBox="0 0 187.5 187.499992" height="250" preserveAspectRatio="xMidYMid meet"><path fill="#ffffff" d="M 67.40625 48.253906 L 134.941406 138.535156 L 119.652344 138.535156 L 52.121094 48.253906 Z M 67.40625 48.253906 " fill-opacity="1" fill-rule="nonzero"></path><path fill="#000000" d="M 134.941406 138.535156 L 119.652344 138.535156 L 52.121094 48.253906 L 67.40625 48.253906 Z M 134.941406 138.535156 " fill-opacity="1" fill-rule="nonzero"></path><path fill="#000000" d="M 158.710938 28.078125 C 141.996094 11.367188 118.90625 1.03125 93.398438 1.03125 C 42.382812 1.03125 1.03125 42.382812 1.03125 93.398438 C 1.03125 118.90625 11.367188 141.996094 28.078125 158.710938 C 44.800781 175.429688 67.890625 185.765625 93.398438 185.765625 C 118.90625 185.765625 141.996094 175.429688 158.710938 158.710938 C 175.429688 141.996094 185.765625 118.90625 185.765625 93.398438 C 185.765625 67.890625 175.429688 44.800781 158.710938 28.078125 Z M 116.042969 145.746094 L 85.296875 104.640625 L 47.246094 145.746094 L 37.464844 145.746094 L 80.929688 98.796875 L 37.734375 41.046875 L 71.023438 41.046875 L 99.335938 78.90625 L 134.378906 41.046875 L 144.160156 41.046875 L 103.707031 84.75 L 149.332031 145.746094 Z M 116.042969 145.746094 " fill-opacity="1" fill-rule="nonzero"></path><path fill="#ffffff" d="M 103.707031 84.75 L 144.160156 41.046875 L 134.378906 41.046875 L 99.335938 78.90625 L 71.023438 41.046875 L 37.734375 41.046875 L 80.929688 98.796875 L 37.464844 145.746094 L 47.246094 145.746094 L 85.296875 104.640625 L 116.042969 145.746094 L 149.332031 145.746094 Z M 52.121094 48.253906 L 67.40625 48.253906 L 134.941406 138.535156 L 119.652344 138.535156 Z M 52.121094 48.253906 " fill-opacity="1" fill-rule="nonzero"></path></svg>