<svg xmlns="http://www.w3.org/2000/svg" width="512" height="512" viewBox="0 0 512 512"><g id="Gruppe_257" data-name="Gruppe 257" transform="translate(10642 -12272)"><circle id="Ellipse_36" data-name="Ellipse 36" cx="256" cy="256" r="256" transform="translate(-10642 12272)" fill="#05a3c9"></circle><path id="dextools" d="M100.085,17.5C81.649,27.1,66.566,35.229,66.569,35.56c.008.853,44.246,23.257,45.816,23.2.714-.024,5.9-2.409,11.514-5.3l10.216-5.255,11.157,5.735,11.157,5.736,18.271-8.21c27.531-12.371,30.39-13.727,29.942-14.182-.595-.6-10.469-5.909-37.26-20.014-12.948-6.817-25.515-13.5-27.927-14.853A25.166,25.166,0,0,0,134.337,0C133.935.022,118.521,7.9,100.085,17.5ZM19.226,59.371.035,69.284V112.79C.035,136.718.287,156.3.6,156.3s9.75-4.093,20.982-9.1L42,138.1V92.246l9.979,5.437q11.535,6.28,23.084,12.533l13.1,7.094L94,114.673q5.486-2.484,10.949-5.017c2.814-1.311,9.723-4.422,15.353-6.916a128.39,128.39,0,0,0,11.579-5.576c.982-.76-10.987-7.374-44.27-24.465C62.521,59.816,41.19,49.316,40.206,49.366s-10.425,4.552-20.98,10ZM208.1,62.154c-13.07,5.9-23.774,10.964-23.786,11.253s7.112,4.524,15.832,9.411S216,91.968,216,92.289s-7.715,4.058-17.144,8.309-33.265,15.013-52.968,23.92L79.87,154.359c-16.607,7.507-31.576,14.274-33.264,15.039-33.92,15.355-43.243,19.616-44.524,20.347S.5,194.759.273,216.23L0,241.839l17.162,8.744,17.161,8.744,23.8-10.74c13.089-5.906,23.8-11.048,23.8-11.427s-2.419-1.954-5.373-3.5-9.058-4.981-13.562-7.626A106.685,106.685,0,0,0,53,220.637c-.986-.321-1.778-.882-1.762-1.249s10.5-5.343,23.285-11.062c24.842-11.107,43.853-19.667,84.667-38.125q27.393-12.376,54.776-24.737c16.026-7.244,34.68-15.7,41.435-18.8l12.282-5.628.273-25.9.274-25.9-17.406-8.934c-9.574-4.913-17.757-8.921-18.186-8.907S221.17,56.252,208.1,62.154Zm54.923,93.437c-2.565,1.253-7.631,3.6-11.259,5.212s-10.51,4.719-15.3,6.9l-8.7,3.968-.2,22.738c-.11,12.505-.57,22.682-1.023,22.616-1.03-.153-17.336-8.516-33.726-17.3-11.83-6.338-12.573-6.59-15.353-5.214-1.607.8-11.213,5.1-21.345,9.575s-18.754,8.419-19.16,8.777,19.989,11.41,45.321,24.564l46.056,23.916,19.674-10.177c10.82-5.6,20.02-10.7,20.444-11.344.954-1.444.872-86.712-.083-86.6a46.21,46.21,0,0,0-5.351,2.361ZM154.076,255.675q-5.117,2.2-10.234,4.407c-10.3,4.457-8.282,4.605-20.536-1.5-8.161-4.063-11.679-5.316-13.206-4.708-1.145.456-11,4.891-21.908,9.855s-20.2,9.025-20.666,9.025c-4.575,0,3.031,4.544,32.38,19.349l34.419,17.361,14.482-7.15c7.965-3.932,24.03-11.807,35.7-17.5s21.075-10.5,20.9-10.68-9.956-5.2-21.732-11.159l-21.41-10.829Z" transform="translate(-10520.566 12373.266)" fill="#fff" fill-rule="evenodd"></path></g></svg>