<svg xmlns="http://www.w3.org/2000/svg" xmlns:xlink="http://www.w3.org/1999/xlink" width="6000px" height="3000px" style="shape-rendering:geometricPrecision; text-rendering:geometricPrecision; image-rendering:optimizeQuality; fill-rule:evenodd; clip-rule:evenodd"><g><path style="opacity:0.98" fill="#020201" d="M 1663.5,2257.5 C 1665.51,2183.13 1664.68,2108.8 1661,2034.5C 1657.2,1946.07 1623.03,1871.91 1558.5,1812C 1529.67,1785.66 1497.51,1764.16 1462,1747.5C 1434.4,1786.77 1399.57,1817.94 1357.5,1841C 1303.22,1870.87 1245.88,1892.87 1185.5,1907C 1097.98,1927.19 1009.32,1936.35 919.5,1934.5C 821.602,1935.23 724.935,1924.73 629.5,1903C 579.419,1891.53 530.752,1875.86 483.5,1856C 455.349,1843.1 429.016,1827.44 404.5,1809C 392.893,1798.4 382.393,1786.9 373,1774.5C 368.153,1766.8 363.319,1759.13 358.5,1751.5C 334.359,1768.47 312.193,1787.8 292,1809.5C 263.468,1847.27 247.134,1889.94 243,1937.5C 239.701,1981.77 237.701,2026.11 237,2070.5C 236.185,2132.85 236.352,2195.18 237.5,2257.5C 232.167,2257.5 226.833,2257.5 221.5,2257.5C 221.333,2190.5 221.5,2123.5 222,2056.5C 222.516,2015.76 224.516,1975.09 228,1934.5C 232.695,1883.05 250.695,1837.05 282,1796.5C 302.973,1775.19 325.473,1755.69 349.5,1738C 315.557,1717.01 293.057,1687.18 282,1648.5C 272.917,1616.09 269.584,1583.09 272,1549.5C 273.056,1521.16 276.722,1493.16 283,1465.5C 293.926,1422.28 302.592,1378.61 309,1334.5C 331.203,1237.55 378.037,1155.05 449.5,1087C 465.468,1074.09 480.968,1060.59 496,1046.5C 504.826,1034.85 513.16,1022.85 521,1010.5C 525.118,1002.15 528.452,993.48 531,984.5C 536.26,939.389 549.927,897.056 572,857.5C 592.998,825.833 618.831,798.666 649.5,776C 680.378,759.149 713.044,746.815 747.5,739C 822.794,721.766 897.46,724.1 971.5,746C 1010.28,757.877 1044.61,777.21 1074.5,804C 1082.35,812.015 1090.35,819.848 1098.5,827.5C 1153.82,790.557 1214.82,769.391 1281.5,764C 1384.76,759.074 1486.09,770.741 1585.5,799C 1604.15,805.826 1621.82,814.493 1638.5,825C 1665.02,846.864 1680.52,875.031 1685,909.5C 1686.99,924.906 1689.15,940.239 1691.5,955.5C 1737.62,950.475 1776.78,964.475 1809,997.5C 1815.33,1005.17 1821.67,1012.83 1828,1020.5C 1837.76,1036.35 1846.76,1052.68 1855,1069.5C 1862.12,1079.62 1869.62,1089.45 1877.5,1099C 1898.88,1106.7 1909.71,1121.87 1910,1144.5C 1908.3,1154.09 1903.46,1161.59 1895.5,1167C 1926.53,1197.48 1933.7,1232.98 1917,1273.5C 1912.27,1285.13 1905.44,1295.3 1896.5,1304C 1908.87,1319.85 1908.37,1335.35 1895,1350.5C 1886.53,1358.11 1876.69,1363.28 1865.5,1366C 1861.44,1381.4 1851.77,1391.74 1836.5,1397C 1831.76,1398.47 1827.09,1400.14 1822.5,1402C 1824.69,1412.29 1823.35,1422.12 1818.5,1431.5C 1842.41,1434.59 1852.91,1448.26 1850,1472.5C 1846.26,1492.92 1835.43,1508.42 1817.5,1519C 1790.25,1533.1 1761.25,1539.27 1730.5,1537.5C 1730.92,1557.15 1722.25,1571.31 1704.5,1580C 1694.02,1584.75 1683.02,1586.91 1671.5,1586.5C 1658.97,1586.07 1646.64,1584.57 1634.5,1582C 1630,1587.83 1625.5,1593.67 1621,1599.5C 1608.75,1619.68 1595.75,1639.35 1582,1658.5C 1553.37,1693.74 1517.87,1719.57 1475.5,1736C 1538.23,1766.94 1589.06,1811.44 1628,1869.5C 1656.68,1917.89 1672.68,1970.22 1676,2026.5C 1680.74,2103.47 1681.58,2180.47 1678.5,2257.5C 1673.5,2257.5 1668.5,2257.5 1663.5,2257.5 Z"></path></g><g><path style="opacity:1" fill="#7c5d00" d="M 1033.5,794.5 C 1014.71,819.426 990.373,836.926 960.5,847C 890.565,870.953 820.899,870.286 751.5,845C 725.107,834.919 702.94,819.085 685,797.5C 681.555,792.268 678.389,786.935 675.5,781.5C 773.033,738.447 872.7,732.947 974.5,765C 991.676,771.588 1008.34,779.255 1024.5,788C 1027.92,789.699 1030.92,791.865 1033.5,794.5 Z"></path></g><g><path style="opacity:0.995" fill="#fefffe" d="M 2595.5,777.5 C 2607.21,777.139 2618.88,777.639 2630.5,779C 2649.04,782.542 2660.87,793.376 2666,811.5C 2669.36,833.319 2667.36,854.652 2660,875.5C 2651.38,899.743 2641.38,923.41 2630,946.5C 2609.26,988.322 2588.26,1029.99 2567,1071.5C 2551.61,1102.34 2540.61,1134.67 2534,1168.5C 2531.67,1177.7 2533.17,1186.2 2538.5,1194C 2543.31,1196.89 2548.31,1197.23 2553.5,1195C 2556.17,1193.67 2558.83,1192.33 2561.5,1191C 2574.02,1180.23 2586.35,1169.23 2598.5,1158C 2630.55,1130.31 2667.21,1110.97 2708.5,1100C 2734.38,1094.86 2760.38,1094.19 2786.5,1098C 2836.74,1108.91 2867.91,1139.41 2880,1189.5C 2887.34,1224.37 2885.34,1258.71 2874,1292.5C 2864.73,1320.32 2855.06,1347.98 2845,1375.5C 2835.4,1405.91 2835.4,1436.25 2845,1466.5C 2853.79,1483.83 2867.95,1493.66 2887.5,1496C 2911.96,1500.09 2934.3,1495.09 2954.5,1481C 2973.93,1464.24 2990.43,1445.08 3004,1423.5C 3030.84,1343.11 3072.84,1272.11 3130,1210.5C 3165.57,1172.93 3206.74,1143.09 3253.5,1121C 3313.82,1094.97 3376.16,1088.64 3440.5,1102C 3497.19,1116.38 3538.69,1149.55 3565,1201.5C 3579.56,1234.63 3587.89,1269.29 3590,1305.5C 3594.52,1369.66 3588.02,1432.66 3570.5,1494.5C 3605.17,1495.48 3635.51,1484.65 3661.5,1462C 3673.79,1450.05 3684.95,1437.22 3695,1423.5C 3722.05,1341.75 3751.05,1260.75 3782,1180.5C 3789.96,1161.24 3799.96,1143.24 3812,1126.5C 3829.23,1104.56 3851.89,1094.22 3880,1095.5C 3896.32,1094.29 3911.48,1097.79 3925.5,1106C 3933.88,1113.42 3938.21,1122.75 3938.5,1134C 3936.7,1141.5 3936.53,1149 3938,1156.5C 3941.93,1163.05 3947.77,1166.39 3955.5,1166.5C 3962.34,1165.83 3968.68,1163.66 3974.5,1160C 3986.58,1148.58 3999.25,1137.91 4012.5,1128C 4039.88,1109.21 4070.21,1098.54 4103.5,1096C 4144.79,1091.6 4183.79,1098.93 4220.5,1118C 4263,1144.53 4291.17,1182.03 4305,1230.5C 4313.02,1259.63 4316.52,1289.3 4315.5,1319.5C 4315.54,1379.09 4306.54,1437.26 4288.5,1494C 4310.41,1494.03 4330.75,1488.36 4349.5,1477C 4370.96,1463.21 4388.79,1445.71 4403,1424.5C 4421.47,1370.76 4440.14,1317.09 4459,1263.5C 4472.04,1225.7 4487.04,1188.7 4504,1152.5C 4512.47,1135.02 4524.31,1120.19 4539.5,1108C 4559.65,1096.36 4581.32,1092.36 4604.5,1096C 4637.24,1098.67 4650.91,1116.17 4645.5,1148.5C 4645.83,1160.33 4651.99,1166.33 4664,1166.5C 4670.28,1166.07 4676.11,1164.24 4681.5,1161C 4691.5,1152.33 4701.5,1143.67 4711.5,1135C 4741.06,1111.81 4774.73,1098.81 4812.5,1096C 4857.27,1091.22 4898.94,1100.22 4937.5,1123C 4978.17,1151.78 5004.34,1190.62 5016,1239.5C 5024.43,1278.78 5026.76,1318.45 5023,1358.5C 5019.32,1404.76 5010.82,1450.09 4997.5,1494.5C 5027.92,1493.31 5054.59,1482.81 5077.5,1463C 5090.77,1451.24 5102.27,1438.07 5112,1423.5C 5131.45,1360.62 5154.78,1299.29 5182,1239.5C 5199.16,1201.81 5220.83,1167.14 5247,1135.5C 5259.52,1121.97 5274.02,1111.14 5290.5,1103C 5308.62,1095.13 5327.29,1093.47 5346.5,1098C 5362.08,1105.96 5370.58,1118.79 5372,1136.5C 5373.94,1160.72 5372.27,1184.72 5367,1208.5C 5362.47,1226.3 5357.47,1243.97 5352,1261.5C 5339.07,1299.3 5326.73,1337.3 5315,1375.5C 5307.91,1401.86 5306.25,1428.52 5310,1455.5C 5314.47,1480.3 5329.3,1493.46 5354.5,1495C 5398.28,1499.98 5433.45,1485.15 5460,1450.5C 5470.22,1435.39 5478.89,1419.39 5486,1402.5C 5504.32,1343.2 5525.99,1285.2 5551,1228.5C 5565.56,1195.67 5583.9,1165.34 5606,1137.5C 5621.3,1119.18 5640.14,1106.02 5662.5,1098C 5728.98,1086.81 5757.81,1114.64 5749,1181.5C 5747.64,1190.65 5745.64,1199.65 5743,1208.5C 5718.92,1273.73 5694.26,1338.73 5669,1403.5C 5664,1417.83 5659,1432.17 5654,1446.5C 5620.98,1556.25 5589.98,1666.59 5561,1777.5C 5541.4,1845.64 5517.07,1911.98 5488,1976.5C 5466.09,2024.7 5438.42,2069.03 5405,2109.5C 5343.62,2178.08 5266.78,2208.24 5174.5,2200C 5130.3,2198.04 5089.3,2185.7 5051.5,2163C 4998.72,2126.1 4969.22,2075.27 4963,2010.5C 4957.62,1964.62 4962.62,1919.95 4978,1876.5C 4990.64,1845.21 5009.48,1818.38 5034.5,1796C 5042.13,1790.1 5050.63,1785.93 5060,1783.5C 5062.96,1783.81 5065.29,1785.14 5067,1787.5C 5072.1,1842.27 5099.6,1880.77 5149.5,1903C 5208.37,1921.42 5265.04,1916.09 5319.5,1887C 5395.84,1841.25 5444,1774.75 5464,1687.5C 5466.53,1674.93 5468.37,1662.27 5469.5,1649.5C 5469.91,1641.84 5467.57,1635.17 5462.5,1629.5C 5456.75,1624.65 5450.75,1624.48 5444.5,1629C 5442,1631.5 5439.5,1634 5437,1636.5C 5429.95,1650.29 5423.29,1664.29 5417,1678.5C 5394.52,1723.64 5361.69,1759.14 5318.5,1785C 5273.48,1807.78 5226.48,1813.11 5177.5,1801C 5128.95,1784.45 5098.45,1751.28 5086,1701.5C 5083.59,1690.61 5081.92,1679.61 5081,1668.5C 5080.45,1645.82 5080.45,1623.15 5081,1600.5C 5049.54,1630.81 5012.04,1649.31 4968.5,1656C 4950.91,1658.33 4933.24,1659.66 4915.5,1660C 4879.47,1713.37 4833.8,1756.37 4778.5,1789C 4732.88,1815.46 4683.88,1825.79 4631.5,1820C 4561.95,1808.1 4527.61,1766.77 4528.5,1696C 4528.57,1682.1 4529.57,1668.27 4531.5,1654.5C 4531.56,1637.71 4523.56,1631.21 4507.5,1635C 4499.17,1640.68 4494,1648.51 4492,1658.5C 4473.54,1759.8 4450.87,1860.13 4424,1959.5C 4412.87,1994.75 4398.21,2028.41 4380,2060.5C 4371.95,2073.72 4362.12,2085.55 4350.5,2096C 4328.19,2112.15 4303.52,2116.81 4276.5,2110C 4231.58,2101.41 4207.41,2074.24 4204,2028.5C 4202.33,1989.21 4207.66,1950.88 4220,1913.5C 4252.06,1820.07 4286.89,1727.73 4324.5,1636.5C 4324.17,1636.17 4323.83,1635.83 4323.5,1635.5C 4286.54,1653.06 4247.54,1661.23 4206.5,1660C 4173.41,1708.42 4132.41,1748.75 4083.5,1781C 4051.91,1801.09 4017.57,1814.09 3980.5,1820C 3949.04,1824.45 3918.38,1821.45 3888.5,1811C 3850.45,1795.42 3828.28,1767.25 3822,1726.5C 3820.79,1716.53 3819.96,1706.53 3819.5,1696.5C 3820.75,1679.5 3821.59,1662.5 3822,1645.5C 3819.13,1635.64 3812.63,1631.81 3802.5,1634C 3797.76,1635.12 3793.93,1637.62 3791,1641.5C 3787.25,1647 3784.59,1653 3783,1659.5C 3767.02,1746.42 3748.35,1832.75 3727,1918.5C 3714.61,1971.35 3694.61,2021.02 3667,2067.5C 3655.43,2086.74 3639.26,2100.58 3618.5,2109C 3592.94,2114.48 3567.94,2112.48 3543.5,2103C 3518.75,2091.57 3503.58,2072.4 3498,2045.5C 3493.02,2015.87 3493.86,1986.37 3500.5,1957C 3503.96,1940.65 3508.13,1924.48 3513,1908.5C 3526.35,1868.12 3540.68,1828.12 3556,1788.5C 3576.07,1737.06 3596.07,1685.72 3616,1634.5C 3590.82,1647.84 3563.98,1655.67 3535.5,1658C 3520.18,1659.04 3504.85,1659.71 3489.5,1660C 3445.9,1719.94 3390.57,1765.61 3323.5,1797C 3260.11,1824.37 3195.11,1829.04 3128.5,1811C 3061.2,1787.03 3016.03,1741.2 2993,1673.5C 2988.69,1658.92 2985.02,1644.25 2982,1629.5C 2948.4,1693.78 2901.9,1746.95 2842.5,1789C 2792.88,1819.83 2739.55,1828.83 2682.5,1816C 2651.06,1805.57 2628.9,1785.07 2616,1754.5C 2604.8,1727.29 2599.63,1698.96 2600.5,1669.5C 2600.3,1636.31 2605.47,1603.98 2616,1572.5C 2630.28,1530.34 2644.94,1488.34 2660,1446.5C 2664.5,1432.32 2667.34,1417.82 2668.5,1403C 2668.66,1377.83 2656.66,1361.83 2632.5,1355C 2600.4,1349.81 2572.06,1357.81 2547.5,1379C 2516.1,1407.25 2493.27,1441.42 2479,1481.5C 2468.64,1509.65 2461.97,1538.65 2459,1568.5C 2457.76,1607.82 2457.09,1647.15 2457,1686.5C 2456.64,1718.93 2448.64,1749.26 2433,1777.5C 2410.92,1808.7 2380.58,1823.37 2342,1821.5C 2292.75,1823.06 2259.09,1801.06 2241,1755.5C 2231.89,1728.08 2227.73,1699.92 2228.5,1671C 2229.63,1612.75 2238.13,1555.58 2254,1499.5C 2307.17,1333.64 2364.51,1169.31 2426,1006.5C 2445.33,956.144 2468.66,907.811 2496,861.5C 2509.44,839.477 2525.6,819.644 2544.5,802C 2559.47,789.513 2576.47,781.346 2595.5,777.5 Z M 3330.5,1307.5 C 3381.35,1308.02 3408.02,1333.69 3410.5,1384.5C 3406.9,1436.56 3383.56,1477.06 3340.5,1506C 3312.79,1521.42 3283.79,1524.42 3253.5,1515C 3234.2,1506.02 3221.7,1491.19 3216,1470.5C 3206.46,1414.1 3223.3,1367.27 3266.5,1330C 3285.46,1315.62 3306.8,1308.12 3330.5,1307.5 Z M 4021.5,1307.5 C 4072.39,1308.06 4099.06,1333.72 4101.5,1384.5C 4098.39,1435.89 4075.73,1476.06 4033.5,1505C 4001.31,1523.59 3968.31,1525.26 3934.5,1510C 3917.67,1497.86 3907.83,1481.36 3905,1460.5C 3899.99,1402.7 3920.82,1356.87 3967.5,1323C 3984.3,1313.14 4002.3,1307.97 4021.5,1307.5 Z M 4730.5,1307.5 C 4780.7,1308.7 4807.36,1334.36 4810.5,1384.5C 4806.87,1436.63 4783.53,1477.13 4740.5,1506C 4712.77,1521.42 4683.77,1524.42 4653.5,1515C 4633.88,1506.71 4621.38,1492.21 4616,1471.5C 4605.7,1410.37 4625.2,1361.2 4674.5,1324C 4691.82,1313.51 4710.48,1308.01 4730.5,1307.5 Z"></path></g><g><path style="opacity:1" fill="#7c5d00" d="M 1563.5,810.5 C 1562.5,810.5 1561.5,810.5 1560.5,810.5C 1555.12,823.728 1547.12,835.228 1536.5,845C 1504.79,869.843 1468.79,884.843 1428.5,890C 1364.59,900.345 1303.92,891.012 1246.5,862C 1227.42,850.881 1211.92,836.048 1200,817.5C 1197.38,811.774 1194.88,806.107 1192.5,800.5C 1212.71,792.695 1233.71,787.195 1255.5,784C 1307.81,778.233 1360.14,778.233 1412.5,784C 1463.65,789.011 1513.98,797.845 1563.5,810.5 Z"></path></g><g><path style="opacity:1" fill="#838637" d="M 675.5,781.5 C 678.389,786.935 681.555,792.268 685,797.5C 702.94,819.085 725.107,834.919 751.5,845C 820.899,870.286 890.565,870.953 960.5,847C 990.373,836.926 1014.71,819.426 1033.5,794.5C 1045.16,802.015 1056.16,810.515 1066.5,820C 1111.66,864.192 1149.16,914.026 1179,969.5C 1182.46,978.052 1185.63,986.718 1188.5,995.5C 1184.88,996.659 1181.21,996.825 1177.5,996C 1085.1,980.115 992.096,969.448 898.5,964C 856.509,961.749 814.842,964.416 773.5,972C 740.823,981.177 708.823,992.511 677.5,1006C 672.432,1008.98 671.265,1013.15 674,1018.5C 676.317,1021.1 679.15,1021.93 682.5,1021C 712.787,1008.02 743.787,997.015 775.5,988C 816.803,979.934 858.47,977.267 900.5,980C 947.332,982.076 993.999,986.076 1040.5,992C 1092.16,999.428 1143.83,1006.76 1195.5,1014C 1202.04,1025.59 1209.21,1036.76 1217,1047.5C 1237.73,1073.97 1257.73,1100.97 1277,1128.5C 1277.98,1129.76 1278.32,1131.09 1278,1132.5C 1261.08,1123.46 1243.58,1115.62 1225.5,1109C 1122.56,1071.97 1016.56,1057.64 907.5,1066C 882.522,1069.97 858.022,1075.8 834,1083.5C 808.822,1092.34 783.656,1101.17 758.5,1110C 746.945,1113.14 735.279,1115.81 723.5,1118C 700.871,1120.44 678.205,1122.44 655.5,1124C 649.253,1128.51 648.92,1133.51 654.5,1139C 676.645,1149.9 698.311,1161.57 719.5,1174C 746.551,1194.72 773.885,1215.05 801.5,1235C 833.985,1257.58 868.652,1276.58 905.5,1292C 932.774,1303.65 960.441,1314.31 988.5,1324C 1030.57,1334.24 1073.24,1337.9 1116.5,1335C 1157.3,1332.97 1196.97,1325.31 1235.5,1312C 1242.88,1308.89 1250.05,1305.39 1257,1301.5C 1260.07,1302.95 1262.91,1304.79 1265.5,1307C 1267.33,1308.11 1268.16,1309.61 1268,1311.5C 1258.43,1323.08 1247.59,1333.24 1235.5,1342C 1214.38,1353.49 1192.04,1361.82 1168.5,1367C 1116.49,1378.5 1063.82,1383.34 1010.5,1381.5C 996.476,1381.46 982.476,1381.13 968.5,1380.5C 967.391,1379.71 966.058,1379.21 964.5,1379C 957.508,1378.5 950.508,1378.33 943.5,1378.5C 903.752,1375.76 864.086,1372.09 824.5,1367.5C 817.36,1367.81 814.527,1371.48 816,1378.5C 817.167,1380.33 818.667,1381.83 820.5,1383C 871.039,1388.99 921.705,1393.66 972.5,1397C 1020.25,1398.43 1067.91,1397.09 1115.5,1393C 1140.73,1389.11 1165.73,1384.11 1190.5,1378C 1213.2,1371.81 1234.2,1362.15 1253.5,1349C 1264.04,1339.96 1273.71,1330.12 1282.5,1319.5C 1313.01,1340.09 1346.35,1354.09 1382.5,1361.5C 1386.53,1363.32 1390.87,1364.32 1395.5,1364.5C 1442.19,1377.12 1489.86,1383.79 1538.5,1384.5C 1561.17,1385.83 1583.83,1385.83 1606.5,1384.5C 1657.57,1383.33 1708.24,1378.16 1758.5,1369C 1804.02,1358.85 1846.02,1341.19 1884.5,1316C 1889.66,1322.3 1889.83,1328.8 1885,1335.5C 1883.17,1337.33 1881.33,1339.17 1879.5,1341C 1871.99,1345.42 1863.99,1348.75 1855.5,1351C 1848.18,1354.01 1845.35,1359.51 1847,1367.5C 1845.62,1369.75 1844.12,1371.92 1842.5,1374C 1829.83,1380.89 1816.49,1386.23 1802.5,1390C 1741.55,1405.96 1679.55,1413.29 1616.5,1412C 1610.74,1406.24 1604.41,1401.24 1597.5,1397C 1587.51,1397.04 1585.01,1401.54 1590,1410.5C 1602.06,1420.06 1612.89,1430.72 1622.5,1442.5C 1618.29,1444.44 1613.62,1445.1 1608.5,1444.5C 1550.85,1440.68 1493.18,1440.51 1435.5,1444C 1421.08,1445.82 1406.75,1448.15 1392.5,1451C 1353.23,1460.98 1313.9,1470.65 1274.5,1480C 1211.24,1490.13 1147.57,1494.47 1083.5,1493C 1045.2,1491.23 1007.2,1486.89 969.5,1480C 950.795,1479.08 932.128,1479.41 913.5,1481C 877.406,1487.43 854.24,1508.26 844,1543.5C 840.514,1556 839.68,1568.67 841.5,1581.5C 840.681,1578.69 840.181,1575.69 840,1572.5C 803.796,1641.06 757.962,1702.56 702.5,1757C 680.163,1775.64 655.496,1790.64 628.5,1802C 629.056,1802.38 629.389,1802.88 629.5,1803.5C 565.664,1793.71 502.997,1778.87 441.5,1759C 412.279,1749.72 384.279,1737.72 357.5,1723C 349.958,1717.73 342.625,1712.23 335.5,1706.5C 335.369,1705.62 335.702,1704.96 336.5,1704.5C 351.66,1698.51 362.827,1688.17 370,1673.5C 382.755,1643.81 387.422,1612.81 384,1580.5C 380.766,1549.45 370.432,1521.12 353,1495.5C 343.03,1481.95 330.197,1472.45 314.5,1467C 310.249,1465.81 305.915,1465.31 301.5,1465.5C 301.5,1464.5 301.5,1463.5 301.5,1462.5C 305.304,1447.47 308.97,1432.47 312.5,1417.5C 326.231,1449.52 349.564,1459.35 382.5,1447C 400.116,1439.53 416.116,1429.53 430.5,1417C 463.112,1386.21 490.278,1351.37 512,1312.5C 536.291,1269.57 553.624,1223.9 564,1175.5C 568.195,1151.88 568.528,1128.21 565,1104.5C 557.363,1072.52 537.196,1058.02 504.5,1061C 526.978,1038.89 541.812,1012.39 549,981.5C 557.644,901.004 594.477,837.171 659.5,790C 664.702,786.899 670.035,784.066 675.5,781.5 Z"></path></g><g><path style="opacity:1" fill="#838637" d="M 1192.5,800.5 C 1194.88,806.107 1197.38,811.774 1200,817.5C 1211.92,836.048 1227.42,850.881 1246.5,862C 1303.92,891.012 1364.59,900.345 1428.5,890C 1468.79,884.843 1504.79,869.843 1536.5,845C 1547.12,835.228 1555.12,823.728 1560.5,810.5C 1561.5,810.5 1562.5,810.5 1563.5,810.5C 1588.29,817.231 1611.29,827.731 1632.5,842C 1655.34,863.846 1667.84,890.679 1670,922.5C 1671.31,932.131 1672.14,941.798 1672.5,951.5C 1672.5,953.5 1672.5,955.5 1672.5,957.5C 1671.21,957.263 1670.21,957.596 1669.5,958.5C 1586.13,968.122 1502.46,972.622 1418.5,972C 1371.99,973.626 1325.65,977.293 1279.5,983C 1255.05,989.058 1230.38,993.891 1205.5,997.5C 1199.09,972.34 1188.59,949.007 1174,927.5C 1154.23,897.56 1132.73,868.894 1109.5,841.5C 1134.56,822.804 1162.23,809.137 1192.5,800.5 Z"></path></g><g><path style="opacity:1" fill="#44461d" d="M 1672.5,951.5 C 1673.47,953.607 1673.8,955.941 1673.5,958.5C 1672.17,958.5 1670.83,958.5 1669.5,958.5C 1670.83,958.5 1672.17,958.5 1673.5,958.5C 1673.8,955.941 1673.47,953.607 1672.5,951.5 Z"></path></g><g><path style="opacity:1" fill="#838637" d="M 1348.5,992.5 C 1367.71,992.056 1386.71,990.723 1405.5,988.5C 1501.5,989.039 1597.17,983.539 1692.5,972C 1737.08,967.856 1773.92,982.689 1803,1016.5C 1816.85,1033.5 1828.18,1052.17 1837,1072.5C 1841.44,1079.94 1846.28,1087.11 1851.5,1094C 1784.36,1086.18 1717.03,1084.52 1649.5,1089C 1608.73,1092.22 1569.07,1100.55 1530.5,1114C 1491.78,1131.7 1452.44,1147.7 1412.5,1162C 1380.97,1171.38 1348.97,1178.88 1316.5,1184.5C 1314.53,1173.17 1311.37,1162.17 1307,1151.5C 1299.01,1134.85 1290.01,1118.85 1280,1103.5C 1257.19,1074.54 1235.36,1044.88 1214.5,1014.5C 1234.4,1009.62 1254.4,1004.78 1274.5,1000C 1298.99,995.756 1323.66,993.256 1348.5,992.5 Z"></path></g><g><path style="opacity:1" fill="#6e702e" d="M 1405.5,988.5 C 1386.71,990.723 1367.71,992.056 1348.5,992.5C 1367.28,990.203 1386.28,988.869 1405.5,988.5 Z"></path></g><g><path style="opacity:1" fill="#828537" d="M 508.5,1075.5 C 525.477,1073.24 537.977,1079.57 546,1094.5C 548.778,1101.28 550.778,1108.28 552,1115.5C 554.01,1140.19 552.01,1164.52 546,1188.5C 528.146,1257.1 496.812,1318.76 452,1373.5C 432.978,1396.23 410.812,1415.06 385.5,1430C 348.997,1445.84 328.164,1434.01 323,1394.5C 320.967,1363.46 324.634,1333.13 334,1303.5C 357.043,1231.22 394.543,1167.72 446.5,1113C 459.781,1100.72 474.448,1090.39 490.5,1082C 496.435,1079.3 502.435,1077.14 508.5,1075.5 Z"></path></g><g><path style="opacity:1" fill="#ba9312" d="M 894.5,1083.5 C 896.857,1083.34 899.19,1083.5 901.5,1084C 876.092,1099.41 855.259,1119.57 839,1144.5C 830.564,1160.14 825.564,1176.81 824,1194.5C 823.139,1206.16 822.306,1217.83 821.5,1229.5C 817.253,1227.42 813.419,1224.75 810,1221.5C 806.34,1183.83 815.673,1149.83 838,1119.5C 847.863,1109.3 858.029,1099.47 868.5,1090C 877.281,1087.8 885.947,1085.64 894.5,1083.5 Z"></path></g><g><path style="opacity:1" fill="#bb9412" d="M 1130.5,1170.5 C 1131.33,1183.82 1131.67,1197.15 1131.5,1210.5C 1126.6,1245.8 1110.6,1274.96 1083.5,1298C 1075.17,1305 1066.83,1312 1058.5,1319C 1051.29,1319.71 1044.29,1319.04 1037.5,1317C 1047.83,1308.67 1058.17,1300.33 1068.5,1292C 1118.03,1250.03 1129.86,1199.19 1104,1139.5C 1093.61,1120.06 1080.78,1102.4 1065.5,1086.5C 1073.14,1086.27 1080.81,1087.27 1088.5,1089.5C 1101.44,1105.28 1112.6,1122.28 1122,1140.5C 1125.77,1150.27 1128.61,1160.27 1130.5,1170.5 Z"></path></g><g><path style="opacity:1" fill="#fdfdfd" d="M 1112.5,1095.5 C 1162.13,1103.88 1210.13,1118.38 1256.5,1139C 1268.43,1144.21 1279.26,1151.04 1289,1159.5C 1300.85,1176.08 1304.52,1194.41 1300,1214.5C 1290.08,1253.74 1266.58,1281.24 1229.5,1297C 1182.41,1314.5 1133.74,1321.83 1083.5,1319C 1138.87,1275.89 1158.7,1220.06 1143,1151.5C 1136.35,1130.74 1126.18,1112.08 1112.5,1095.5 Z"></path></g><g><path style="opacity:1" fill="#fafafa" d="M 829.5,1101.5 C 830.675,1101.28 831.675,1101.61 832.5,1102.5C 812.995,1123.8 800.828,1148.8 796,1177.5C 794.923,1187.85 793.756,1198.18 792.5,1208.5C 773.742,1195.24 755.408,1181.41 737.5,1167C 721.488,1156.32 704.822,1146.66 687.5,1138C 712.178,1136.05 736.511,1132.05 760.5,1126C 783.912,1118.7 806.912,1110.53 829.5,1101.5 Z"></path></g><g><path style="opacity:1" fill="#828537" d="M 1631.5,1148.5 C 1608.99,1151.27 1586.66,1155.11 1564.5,1160C 1529.32,1170.29 1493.99,1179.96 1458.5,1189C 1443.27,1192.2 1427.94,1194.7 1412.5,1196.5C 1409.29,1196.19 1406.29,1196.52 1403.5,1197.5C 1388.52,1198.56 1373.52,1198.73 1358.5,1198C 1354.03,1197.51 1349.7,1196.51 1345.5,1195C 1393.06,1185.7 1439.06,1171.37 1483.5,1152C 1548.21,1119.44 1616.87,1103.11 1689.5,1103C 1731.55,1101.88 1773.55,1102.88 1815.5,1106C 1831.56,1107.9 1847.56,1110.23 1863.5,1113C 1876.99,1114.51 1886.49,1121.35 1892,1133.5C 1894.25,1144.99 1889.75,1152.66 1878.5,1156.5C 1867.83,1152.25 1856.83,1149.08 1845.5,1147C 1825.64,1143.68 1805.64,1141.68 1785.5,1141C 1733.79,1138.99 1682.45,1141.49 1631.5,1148.5 Z"></path></g><g><path style="opacity:1" fill="#030301" d="M 494.5,1124.5 C 504.248,1124.41 510.414,1129.08 513,1138.5C 514.123,1154.22 512.123,1169.56 507,1184.5C 484.645,1252.9 450.645,1314.57 405,1369.5C 396.731,1378.45 386.898,1384.95 375.5,1389C 366.077,1389.92 360.244,1385.75 358,1376.5C 356.533,1369.22 356.199,1361.89 357,1354.5C 363.11,1325.72 372.443,1298.05 385,1271.5C 404.541,1228.72 428.874,1189.06 458,1152.5C 465.9,1143.93 474.4,1136.1 483.5,1129C 487.053,1126.88 490.72,1125.38 494.5,1124.5 Z"></path></g><g><path style="opacity:1" fill="#fafafa" d="M 898.5,1132.5 C 921.757,1132.91 929.257,1143.91 921,1165.5C 906.643,1177.76 894.643,1175.76 885,1159.5C 882.651,1150.56 884.818,1143.06 891.5,1137C 893.898,1135.48 896.231,1133.98 898.5,1132.5 Z"></path></g><g><path style="opacity:1" fill="#42431b" d="M 493.5,1140.5 C 495.167,1140.5 496.833,1140.5 498.5,1140.5C 498.705,1148.21 498.205,1155.88 497,1163.5C 478.841,1228.48 449.508,1287.82 409,1341.5C 401.569,1350.93 393.402,1359.77 384.5,1368C 381.611,1370.61 378.278,1372.44 374.5,1373.5C 373.558,1373.39 372.725,1373.06 372,1372.5C 371.327,1359.54 372.994,1346.88 377,1334.5C 398.215,1270.7 429.548,1212.7 471,1160.5C 477.802,1152.85 485.302,1146.19 493.5,1140.5 Z"></path></g><g><path style="opacity:1" fill="#010100" d="M 1647.5,1147.5 C 1642.93,1151.71 1642.59,1156.21 1646.5,1161C 1644.94,1161.21 1643.61,1161.71 1642.5,1162.5C 1638.55,1163.27 1634.55,1163.61 1630.5,1163.5C 1627.76,1162.56 1625.76,1160.73 1624.5,1158C 1614.33,1153.26 1610.33,1156.42 1612.5,1167.5C 1630.81,1187.42 1645.64,1209.76 1657,1234.5C 1666.52,1258.87 1667.52,1283.54 1660,1308.5C 1652.22,1325.28 1641.72,1340.11 1628.5,1353C 1623.33,1357.09 1617.66,1360.42 1611.5,1363C 1603.27,1365.69 1595.27,1368.85 1587.5,1372.5C 1584.36,1377.42 1585.36,1381.26 1590.5,1384C 1573.17,1384.5 1555.84,1384.67 1538.5,1384.5C 1489.86,1383.79 1442.19,1377.12 1395.5,1364.5C 1400.2,1361.71 1401.53,1357.71 1399.5,1352.5C 1399.96,1351.7 1400.62,1351.37 1401.5,1351.5C 1406.22,1351.85 1410.88,1352.51 1415.5,1353.5C 1411.7,1339.73 1408.87,1325.73 1407,1311.5C 1401.94,1275.07 1409.78,1241.74 1430.5,1211.5C 1431.88,1210.7 1431.72,1210.03 1430,1209.5C 1429.24,1209.57 1428.74,1209.9 1428.5,1210.5C 1425.83,1210.5 1423.17,1210.5 1420.5,1210.5C 1418.47,1210.66 1416.47,1210.5 1414.5,1210C 1417.35,1204.23 1415.68,1200.23 1409.5,1198C 1410.74,1197.77 1411.74,1197.27 1412.5,1196.5C 1427.94,1194.7 1443.27,1192.2 1458.5,1189C 1493.99,1179.96 1529.32,1170.29 1564.5,1160C 1586.66,1155.11 1608.99,1151.27 1631.5,1148.5C 1636.83,1148.17 1642.17,1147.83 1647.5,1147.5 Z"></path></g><g><path style="opacity:1" fill="#0a0a0b" d="M 1647.5,1147.5 C 1650.65,1147.21 1653.65,1147.71 1656.5,1149C 1659.17,1152.33 1661.83,1155.67 1664.5,1159C 1666.13,1159.49 1667.8,1159.66 1669.5,1159.5C 1668.74,1160.27 1667.74,1160.77 1666.5,1161C 1693.46,1191.36 1708.46,1226.86 1711.5,1267.5C 1711.62,1278.52 1711.29,1289.52 1710.5,1300.5C 1705.21,1324.08 1694.88,1345.08 1679.5,1363.5C 1680.32,1364.39 1681.32,1364.72 1682.5,1364.5C 1681.12,1365.8 1679.62,1365.8 1678,1364.5C 1673.95,1369.43 1669.78,1374.26 1665.5,1379C 1654.83,1382 1651.5,1378.33 1655.5,1368C 1654.21,1367.51 1652.87,1367.34 1651.5,1367.5C 1652.95,1366.7 1654.62,1366.2 1656.5,1366C 1699.03,1321.97 1707.87,1271.8 1683,1215.5C 1673.73,1196.62 1662.23,1179.29 1648.5,1163.5C 1646.6,1162.53 1644.6,1162.2 1642.5,1162.5C 1643.61,1161.71 1644.94,1161.21 1646.5,1161C 1642.59,1156.21 1642.93,1151.71 1647.5,1147.5 Z"></path></g><g><path style="opacity:1" fill="#080808" d="M 1630.5,1163.5 C 1645.39,1182.92 1658.56,1203.59 1670,1225.5C 1691.55,1281.79 1679.39,1329.29 1633.5,1368C 1633.73,1368.4 1634.06,1368.57 1634.5,1368.5C 1628.76,1370.86 1622.76,1373.69 1616.5,1377C 1609.9,1379.53 1603.23,1381.87 1596.5,1384C 1599.82,1384.5 1603.15,1384.67 1606.5,1384.5C 1583.83,1385.83 1561.17,1385.83 1538.5,1384.5C 1555.84,1384.67 1573.17,1384.5 1590.5,1384C 1585.36,1381.26 1584.36,1377.42 1587.5,1372.5C 1595.27,1368.85 1603.27,1365.69 1611.5,1363C 1617.66,1360.42 1623.33,1357.09 1628.5,1353C 1641.72,1340.11 1652.22,1325.28 1660,1308.5C 1667.52,1283.54 1666.52,1258.87 1657,1234.5C 1645.64,1209.76 1630.81,1187.42 1612.5,1167.5C 1610.33,1156.42 1614.33,1153.26 1624.5,1158C 1625.76,1160.73 1627.76,1162.56 1630.5,1163.5 Z"></path></g><g><path style="opacity:1" fill="#fefefe" d="M 1682.5,1364.5 C 1681.32,1364.72 1680.32,1364.39 1679.5,1363.5C 1694.88,1345.08 1705.21,1324.08 1710.5,1300.5C 1711.99,1294.06 1712.65,1287.4 1712.5,1280.5C 1712.5,1275.99 1712.17,1271.65 1711.5,1267.5C 1708.46,1226.86 1693.46,1191.36 1666.5,1161C 1667.74,1160.77 1668.74,1160.27 1669.5,1159.5C 1723.89,1155.07 1778.22,1155.57 1832.5,1161C 1847.93,1162.86 1862.6,1167.19 1876.5,1174C 1904.21,1194.28 1913.71,1221.12 1905,1254.5C 1899.99,1272.51 1890.49,1287.67 1876.5,1300C 1859.27,1313.79 1840.27,1324.79 1819.5,1333C 1794.01,1343.5 1767.67,1351.16 1740.5,1356C 1721.24,1359.38 1701.91,1362.21 1682.5,1364.5 Z"></path></g><g><path style="opacity:1" fill="#bb9412" d="M 1642.5,1162.5 C 1644.6,1162.2 1646.6,1162.53 1648.5,1163.5C 1662.23,1179.29 1673.73,1196.62 1683,1215.5C 1707.87,1271.8 1699.03,1321.97 1656.5,1366C 1654.62,1366.2 1652.95,1366.7 1651.5,1367.5C 1645.81,1367.53 1640.14,1367.87 1634.5,1368.5C 1634.06,1368.57 1633.73,1368.4 1633.5,1368C 1679.39,1329.29 1691.55,1281.79 1670,1225.5C 1658.56,1203.59 1645.39,1182.92 1630.5,1163.5C 1634.55,1163.61 1638.55,1163.27 1642.5,1162.5 Z"></path></g><g><path style="opacity:1" fill="#fcfcfc" d="M 1021.5,1235.5 C 1019.49,1234.08 1017.15,1233.41 1014.5,1233.5C 999.058,1225.95 992.558,1213.62 995,1196.5C 998.865,1182.96 1007.37,1173.46 1020.5,1168C 1037.51,1161.6 1053.01,1164.1 1067,1175.5C 1077.94,1190.65 1078.28,1205.98 1068,1221.5C 1055.05,1234.45 1039.55,1239.11 1021.5,1235.5 Z"></path></g><g><path style="opacity:1" fill="#92740e" d="M 1130.5,1170.5 C 1132.05,1177.93 1132.72,1185.6 1132.5,1193.5C 1132.5,1199.34 1132.17,1205.01 1131.5,1210.5C 1131.67,1197.15 1131.33,1183.82 1130.5,1170.5 Z"></path></g><g><path style="opacity:1" fill="#0b0a0a" d="M 1403.5,1197.5 C 1406.29,1196.52 1409.29,1196.19 1412.5,1196.5C 1411.74,1197.27 1410.74,1197.77 1409.5,1198C 1415.68,1200.23 1417.35,1204.23 1414.5,1210C 1416.47,1210.5 1418.47,1210.66 1420.5,1210.5C 1418.3,1211.17 1415.97,1211.83 1413.5,1212.5C 1388.54,1254.08 1383.37,1298.08 1398,1344.5C 1398.52,1347.26 1399.68,1349.59 1401.5,1351.5C 1400.62,1351.37 1399.96,1351.7 1399.5,1352.5C 1401.53,1357.71 1400.2,1361.71 1395.5,1364.5C 1390.87,1364.32 1386.53,1363.32 1382.5,1361.5C 1383.98,1361.76 1385.31,1361.43 1386.5,1360.5C 1384.79,1354.93 1382.79,1349.6 1380.5,1344.5C 1381.1,1344.26 1381.43,1343.76 1381.5,1343C 1372.37,1309.88 1372.2,1276.71 1381,1243.5C 1384.34,1233.81 1388.51,1224.48 1393.5,1215.5C 1393.04,1214.7 1392.38,1214.37 1391.5,1214.5C 1392.88,1213.77 1394.38,1213.1 1396,1212.5C 1397.75,1208.67 1399.75,1205.01 1402,1201.5C 1403.32,1199.51 1405.15,1198.35 1407.5,1198C 1406.21,1197.51 1404.87,1197.34 1403.5,1197.5 Z"></path></g><g><path style="opacity:1" fill="#fbfbfb" d="M 908.5,1200.5 C 919.488,1198.58 927.988,1202.25 934,1211.5C 936.95,1223.64 932.783,1232.47 921.5,1238C 902.881,1240.38 894.381,1232.21 896,1213.5C 899.025,1207.98 903.191,1203.64 908.5,1200.5 Z"></path></g><g><path style="opacity:1" fill="#fcfcfc" d="M 1391.5,1214.5 C 1392.38,1214.37 1393.04,1214.7 1393.5,1215.5C 1388.51,1224.48 1384.34,1233.81 1381,1243.5C 1372.2,1276.71 1372.37,1309.88 1381.5,1343C 1381.43,1343.76 1381.1,1344.26 1380.5,1344.5C 1339.79,1335.4 1303.46,1317.73 1271.5,1291.5C 1297.36,1268.12 1313.03,1239.12 1318.5,1204.5C 1342.03,1213.36 1366.36,1216.7 1391.5,1214.5 Z"></path></g><g><path style="opacity:1" fill="#5b4809" d="M 1428.5,1210.5 C 1428.74,1209.9 1429.24,1209.57 1430,1209.5C 1431.72,1210.03 1431.88,1210.7 1430.5,1211.5C 1430.16,1210.66 1429.49,1210.33 1428.5,1210.5 Z"></path></g><g><path style="opacity:1" fill="#ba9312" d="M 1420.5,1210.5 C 1423.17,1210.5 1425.83,1210.5 1428.5,1210.5C 1429.49,1210.33 1430.16,1210.66 1430.5,1211.5C 1409.78,1241.74 1401.94,1275.07 1407,1311.5C 1408.87,1325.73 1411.7,1339.73 1415.5,1353.5C 1410.88,1352.51 1406.22,1351.85 1401.5,1351.5C 1399.68,1349.59 1398.52,1347.26 1398,1344.5C 1383.37,1298.08 1388.54,1254.08 1413.5,1212.5C 1415.97,1211.83 1418.3,1211.17 1420.5,1210.5 Z"></path></g><g><path style="opacity:1" fill="#fafafa" d="M 1462.5,1229.5 C 1485.49,1228.31 1493.65,1238.64 1487,1260.5C 1476.55,1271.6 1465.55,1272.27 1454,1262.5C 1445.6,1248.38 1448.43,1237.38 1462.5,1229.5 Z"></path></g><g><path style="opacity:1" fill="#adadad" d="M 1014.5,1233.5 C 1017.15,1233.41 1019.49,1234.08 1021.5,1235.5C 1018.85,1235.59 1016.51,1234.92 1014.5,1233.5 Z"></path></g><g><path style="opacity:1" fill="#fcfcfc" d="M 1596.5,1260.5 C 1630.27,1260.41 1644.1,1276.75 1638,1309.5C 1630.75,1322.73 1619.58,1330.56 1604.5,1333C 1592.17,1334.44 1580.84,1331.78 1570.5,1325C 1559.64,1314.92 1556.47,1302.75 1561,1288.5C 1563.92,1280.25 1569.08,1273.75 1576.5,1269C 1582.92,1265.28 1589.59,1262.45 1596.5,1260.5 Z"></path></g><g><path style="opacity:1" fill="#a7a7a8" d="M 1711.5,1267.5 C 1712.17,1271.65 1712.5,1275.99 1712.5,1280.5C 1712.65,1287.4 1711.99,1294.06 1710.5,1300.5C 1711.29,1289.52 1711.62,1278.52 1711.5,1267.5 Z"></path></g><g><path style="opacity:1" fill="#f9f9f9" d="M 1474.5,1296.5 C 1491.51,1295.02 1500.01,1302.69 1500,1319.5C 1493.83,1334.67 1483.33,1338.83 1468.5,1332C 1459.72,1324.04 1458.22,1314.88 1464,1304.5C 1466.98,1300.95 1470.48,1298.29 1474.5,1296.5 Z"></path></g><g><path style="opacity:1" fill="#67692b" d="M 943.5,1378.5 C 950.508,1378.33 957.508,1378.5 964.5,1379C 966.058,1379.21 967.391,1379.71 968.5,1380.5C 959.978,1380.34 951.644,1379.68 943.5,1378.5 Z"></path></g><g><path style="opacity:1" fill="#030301" d="M 1241.5,1385.5 C 1246.36,1384.74 1250.69,1385.74 1254.5,1388.5C 1256.02,1392.27 1255.69,1395.77 1253.5,1399C 1234.07,1403.57 1214.74,1408.57 1195.5,1414C 1178.17,1423.33 1160.83,1432.67 1143.5,1442C 1124.28,1448.39 1104.61,1452.89 1084.5,1455.5C 1078.05,1454.56 1075.22,1450.89 1076,1444.5C 1076.95,1442.43 1078.45,1440.93 1080.5,1440C 1096.3,1437.73 1111.97,1434.73 1127.5,1431C 1143.29,1425.44 1157.96,1417.77 1171.5,1408C 1178.38,1404.39 1185.38,1401.06 1192.5,1398C 1208.77,1393.18 1225.1,1389.01 1241.5,1385.5 Z"></path></g><g><path style="opacity:1" fill="#818436" d="M 1630.5,1446.5 C 1630.83,1445.83 1631.17,1445.17 1631.5,1444.5C 1635.08,1443.58 1636.75,1441.24 1636.5,1437.5C 1636.65,1433.97 1635.32,1431.13 1632.5,1429C 1691.51,1428.31 1749.51,1420.47 1806.5,1405.5C 1807.52,1415.97 1804.18,1424.8 1796.5,1432C 1780.9,1444.2 1763.23,1451.54 1743.5,1454C 1736.35,1454.8 1729.19,1455.3 1722,1455.5C 1691.38,1453.63 1660.88,1450.63 1630.5,1446.5 Z"></path></g><g><path style="opacity:1" fill="#606228" d="M 1622.5,1442.5 C 1625.16,1444.27 1628.16,1444.93 1631.5,1444.5C 1631.17,1445.17 1630.83,1445.83 1630.5,1446.5C 1622.97,1446.37 1615.64,1445.71 1608.5,1444.5C 1613.62,1445.1 1618.29,1444.44 1622.5,1442.5 Z"></path></g><g><path style="opacity:1" fill="#a1664f" d="M 1815.5,1449.5 C 1824.61,1448.14 1830.45,1451.8 1833,1460.5C 1834.25,1475.1 1829.41,1487.26 1818.5,1497C 1803.08,1508.48 1785.75,1515.48 1766.5,1518C 1754.91,1519.85 1743.24,1520.68 1731.5,1520.5C 1689.34,1519.43 1647.34,1516.26 1605.5,1511C 1556.18,1503.91 1506.84,1496.91 1457.5,1490C 1415.58,1484.56 1374.25,1487.23 1333.5,1498C 1295.23,1509.87 1257.23,1522.54 1219.5,1536C 1193.64,1543.63 1167.64,1550.63 1141.5,1557C 1093.52,1565.97 1045.18,1569.97 996.5,1569C 993.059,1575.01 994.392,1579.68 1000.5,1583C 1074,1586.52 1145.67,1576.85 1215.5,1554C 1256.64,1539.77 1297.97,1526.1 1339.5,1513C 1381.06,1502.61 1423.06,1500.61 1465.5,1507C 1535.23,1518.15 1605.23,1527.15 1675.5,1534C 1688.17,1534.6 1700.84,1535.27 1713.5,1536C 1714.64,1549.9 1708.64,1559.57 1695.5,1565C 1681.83,1569.8 1667.83,1570.8 1653.5,1568C 1622.82,1561.33 1592.16,1554.66 1561.5,1548C 1522.9,1542.99 1484.23,1542.33 1445.5,1546C 1368.84,1558.34 1293.84,1577 1220.5,1602C 1152,1620.6 1082.34,1632.27 1011.5,1637C 985.5,1637.67 959.5,1637.67 933.5,1637C 914.653,1637.2 896.987,1632.87 880.5,1624C 855.722,1599.2 849.888,1570.36 863,1537.5C 874.423,1512.43 893.923,1498.59 921.5,1496C 954.826,1494.5 987.826,1497.17 1020.5,1504C 1107.88,1512.82 1194.88,1509.82 1281.5,1495C 1319.21,1485.88 1356.88,1476.54 1394.5,1467C 1422.8,1460.48 1451.46,1457.48 1480.5,1458C 1528.58,1456.51 1576.58,1457.84 1624.5,1462C 1656.89,1466.34 1689.39,1469.51 1722,1471.5C 1736.72,1471.4 1751.22,1469.57 1765.5,1466C 1777.5,1462.67 1789.5,1459.33 1801.5,1456C 1806.38,1454.06 1811.04,1451.89 1815.5,1449.5 Z"></path></g><g><path style="opacity:1" fill="#7c5d00" d="M 301.5,1462.5 C 301.5,1463.5 301.5,1464.5 301.5,1465.5C 305.915,1465.31 310.249,1465.81 314.5,1467C 330.197,1472.45 343.03,1481.95 353,1495.5C 370.432,1521.12 380.766,1549.45 384,1580.5C 387.422,1612.81 382.755,1643.81 370,1673.5C 362.827,1688.17 351.66,1698.51 336.5,1704.5C 335.702,1704.96 335.369,1705.62 335.5,1706.5C 318.651,1689.11 306.484,1668.78 299,1645.5C 288.568,1607.11 285.568,1568.11 290,1528.5C 292.639,1506.15 296.472,1484.15 301.5,1462.5 Z"></path></g><g><path style="opacity:1" fill="#a9a606" d="M 669.5,1809.5 C 663.835,1807.24 657.835,1806.24 651.5,1806.5C 644.136,1805.72 636.803,1804.72 629.5,1803.5C 629.389,1802.88 629.056,1802.38 628.5,1802C 655.496,1790.64 680.163,1775.64 702.5,1757C 757.962,1702.56 803.796,1641.06 840,1572.5C 840.181,1575.69 840.681,1578.69 841.5,1581.5C 846.973,1622.14 869.973,1645.31 910.5,1651C 971.054,1655.82 1031.39,1653.82 1091.5,1645C 1138.1,1638.01 1184.1,1628.35 1229.5,1616C 1307.22,1588.99 1386.89,1570.32 1468.5,1560C 1518.96,1556.85 1568.29,1562.52 1616.5,1577C 1600.37,1601.43 1583.87,1625.59 1567,1649.5C 1544.61,1676.78 1517.44,1697.95 1485.5,1713C 1402.1,1750.02 1315.77,1778.02 1226.5,1797C 1082.9,1827.74 937.904,1836.74 791.5,1824C 750.71,1819.98 710.043,1815.15 669.5,1809.5 Z"></path></g><g><path style="opacity:0.999" fill="#19273d" d="M 1663.5,2257.5 C 1618.83,2257.5 1574.17,2257.5 1529.5,2257.5C 1527.81,2183.54 1522.31,2109.87 1513,2036.5C 1509.43,2029.99 1504.77,2028.99 1499,2033.5C 1497.99,2035.53 1497.49,2037.7 1497.5,2040C 1506.4,2112.24 1511.73,2184.74 1513.5,2257.5C 1138.5,2257.5 763.5,2257.5 388.5,2257.5C 389.588,2184.84 394.921,2112.51 404.5,2040.5C 403.444,2033.62 399.444,2030.79 392.5,2032C 391.333,2033.17 390.167,2034.33 389,2035.5C 379.056,2109.15 373.556,2183.15 372.5,2257.5C 327.5,2257.5 282.5,2257.5 237.5,2257.5C 236.352,2195.18 236.185,2132.85 237,2070.5C 237.701,2026.11 239.701,1981.77 243,1937.5C 247.134,1889.94 263.468,1847.27 292,1809.5C 312.193,1787.8 334.359,1768.47 358.5,1751.5C 363.319,1759.13 368.153,1766.8 373,1774.5C 382.393,1786.9 392.893,1798.4 404.5,1809C 429.016,1827.44 455.349,1843.1 483.5,1856C 530.752,1875.86 579.419,1891.53 629.5,1903C 724.935,1924.73 821.602,1935.23 919.5,1934.5C 1009.32,1936.35 1097.98,1927.19 1185.5,1907C 1245.88,1892.87 1303.22,1870.87 1357.5,1841C 1399.57,1817.94 1434.4,1786.77 1462,1747.5C 1497.51,1764.16 1529.67,1785.66 1558.5,1812C 1623.03,1871.91 1657.2,1946.07 1661,2034.5C 1664.68,2108.8 1665.51,2183.13 1663.5,2257.5 Z"></path></g><g><path style="opacity:1" fill="#a8a505" d="M 781.5,1911.5 C 776.056,1910.12 770.389,1909.45 764.5,1909.5C 759.75,1907.97 754.75,1907.3 749.5,1907.5C 710.942,1903.19 672.942,1896.52 635.5,1887.5C 633.485,1886.08 631.152,1885.41 628.5,1885.5C 607.091,1880.9 586.091,1875.23 565.5,1868.5C 565.369,1867.76 565.536,1867.09 566,1866.5C 576.667,1857.17 586.667,1847.17 596,1836.5C 600.428,1829.97 604.595,1823.31 608.5,1816.5C 709.131,1833.43 810.464,1843.1 912.5,1845.5C 1078.35,1846.16 1239.68,1819.66 1396.5,1766C 1410.92,1761.08 1425.09,1755.58 1439,1749.5C 1439.67,1750.17 1439.67,1750.83 1439,1751.5C 1414.98,1782.53 1385.81,1807.36 1351.5,1826C 1304.78,1851.87 1255.78,1871.87 1204.5,1886C 1089.81,1913.93 973.48,1924.59 855.5,1918C 830.737,1916.76 806.07,1914.6 781.5,1911.5 Z"></path></g><g><path style="opacity:1" fill="#828537" d="M 608.5,1816.5 C 604.595,1823.31 600.428,1829.97 596,1836.5C 586.667,1847.17 576.667,1857.17 566,1866.5C 565.536,1867.09 565.369,1867.76 565.5,1868.5C 521.384,1856.19 479.717,1838.36 440.5,1815C 414.167,1799.33 393.167,1778.33 377.5,1752C 452.08,1781.4 529.08,1802.9 608.5,1816.5 Z"></path></g><g><path style="opacity:1" fill="#797704" d="M 651.5,1806.5 C 657.835,1806.24 663.835,1807.24 669.5,1809.5C 663.28,1809.04 657.28,1808.04 651.5,1806.5 Z"></path></g><g><path style="opacity:1" fill="#6e6d04" d="M 628.5,1885.5 C 631.152,1885.41 633.485,1886.08 635.5,1887.5C 632.848,1887.59 630.515,1886.92 628.5,1885.5 Z"></path></g><g><path style="opacity:1" fill="#7d7b04" d="M 749.5,1907.5 C 754.75,1907.3 759.75,1907.97 764.5,1909.5C 759.269,1909.56 754.269,1908.89 749.5,1907.5 Z"></path></g><g><path style="opacity:1" fill="#727104" d="M 764.5,1909.5 C 770.389,1909.45 776.056,1910.12 781.5,1911.5C 775.611,1911.55 769.944,1910.88 764.5,1909.5 Z"></path></g><g><path style="opacity:0.998" fill="#000001" d="M 388.5,2257.5 C 383.167,2257.5 377.833,2257.5 372.5,2257.5C 373.556,2183.15 379.056,2109.15 389,2035.5C 390.167,2034.33 391.333,2033.17 392.5,2032C 399.444,2030.79 403.444,2033.62 404.5,2040.5C 394.921,2112.51 389.588,2184.84 388.5,2257.5 Z"></path></g><g><path style="opacity:0.998" fill="#000001" d="M 1529.5,2257.5 C 1524.17,2257.5 1518.83,2257.5 1513.5,2257.5C 1511.73,2184.74 1506.4,2112.24 1497.5,2040C 1497.49,2037.7 1497.99,2035.53 1499,2033.5C 1504.77,2028.99 1509.43,2029.99 1513,2036.5C 1522.31,2109.87 1527.81,2183.54 1529.5,2257.5 Z"></path></g></svg>