<svg xmlns="http://www.w3.org/2000/svg" xmlns:xlink="http://www.w3.org/1999/xlink" width="4000px" height="4000px" style="shape-rendering:geometricPrecision; text-rendering:geometricPrecision; image-rendering:optimizeQuality; fill-rule:evenodd; clip-rule:evenodd"><g><path style="opacity:0.993" fill="#000000" d="M 3233.5,3999.5 C 3222.83,3999.5 3212.17,3999.5 3201.5,3999.5C 3208.23,3835.76 3206.4,3672.09 3196,3508.5C 3187.53,3368.37 3141.19,3242.7 3057,3131.5C 3009.86,3075.68 2957.02,3026.18 2898.5,2983C 2858.31,2955.14 2815.81,2930.98 2771,2910.5C 2729.4,2970.77 2678.9,3022.6 2619.5,3066C 2489.92,3150.34 2349.58,3210.67 2198.5,3247C 2080.22,3274.66 1960.56,3293.32 1839.5,3303C 1556.85,3324.95 1277.18,3305.28 1000.5,3244C 909.934,3222.44 820.934,3195.78 733.5,3164C 664.741,3137.63 600.075,3103.96 539.5,3063C 486.56,3024.4 444.727,2976.23 414,2918.5C 366.73,2952.42 322.396,2990.08 281,3031.5C 231.237,3091.03 197.904,3159.03 181,3235.5C 173.611,3268.17 168.278,3301.17 165,3334.5C 157.778,3445.71 153.778,3557.05 153,3668.5C 152.188,3778.85 152.688,3889.18 154.5,3999.5C 143.5,3999.5 132.5,3999.5 121.5,3999.5C 118.017,3823.13 119.184,3646.8 125,3470.5C 126.582,3422.77 129.249,3375.1 133,3327.5C 139.551,3255.73 156.884,3186.73 185,3120.5C 205.778,3077.24 231.778,3037.57 263,3001.5C 304.823,2961.04 349.323,2924.04 396.5,2890.5C 369.234,2873.76 344.4,2853.76 322,2830.5C 275.733,2774.79 247.4,2710.79 237,2638.5C 228.531,2588.48 225.864,2538.15 229,2487.5C 231.469,2429.55 238.802,2372.22 251,2315.5C 264.434,2259 277.101,2202.33 289,2145.5C 294.444,2101 301.944,2057.16 311.5,2014C 320.729,1972.28 332.896,1931.11 348,1890.5C 391.375,1776.9 451.708,1673.57 529,1580.5C 570.938,1534.56 616.105,1492.06 664.5,1453C 677.333,1441.5 690.167,1430 703,1418.5C 721.313,1395.21 738.646,1371.21 755,1346.5C 767.237,1326.14 776.57,1304.47 783,1281.5C 789.31,1250.28 794.976,1218.95 800,1187.5C 806.327,1159.86 814.66,1132.86 825,1106.5C 844.504,1051.13 872.504,1000.8 909,955.5C 940.167,917.667 974.667,883.167 1012.5,852C 1033.67,835.238 1056.67,821.238 1081.5,810C 1278.94,724.864 1481.94,708.531 1690.5,761C 1761.25,779.895 1826.91,809.562 1887.5,850C 1925.73,878.556 1961.23,910.389 1994,945.5C 2067.85,894 2148.69,857.167 2236.5,835C 2315.44,813.951 2395.77,804.117 2477.5,805.5C 2632.3,806.608 2785.3,823.774 2936.5,857C 3006.63,870.482 3072.63,894.816 3134.5,930C 3175.49,957.002 3205.66,993.168 3225,1038.5C 3232.36,1055.6 3238.03,1073.27 3242,1091.5C 3250.78,1133.07 3256.28,1175.07 3258.5,1217.5C 3322.69,1210.03 3383.36,1221.2 3440.5,1251C 3490.24,1281.41 3530.74,1321.24 3562,1370.5C 3578.4,1399.91 3594.4,1429.58 3610,1459.5C 3625.01,1482.18 3641.18,1504.01 3658.5,1525C 3694.92,1536.42 3718.08,1560.58 3728,1597.5C 3731.61,1627.7 3721.11,1651.54 3696.5,1669C 3762.12,1732 3778.28,1806.17 3745,1891.5C 3734.47,1918.08 3719.3,1941.58 3699.5,1962C 3716.08,1980.09 3721.91,2001.25 3717,2025.5C 3706.68,2052.49 3688.18,2071.66 3661.5,2083C 3651.61,2087.11 3641.61,2090.94 3631.5,2094.5C 3628.89,2114.89 3619.22,2131.06 3602.5,2143C 3583.43,2154.7 3563.1,2163.7 3541.5,2170C 3547.21,2193.93 3543.55,2216.26 3530.5,2237C 3576.47,2238.47 3599.8,2262.3 3600.5,2308.5C 3600.64,2339.2 3590.47,2365.87 3570,2388.5C 3546.33,2412.43 3518.5,2429.93 3486.5,2441C 3454.69,2451.52 3422.02,2457.52 3388.5,2459C 3374.17,2459.5 3359.84,2459.67 3345.5,2459.5C 3346.98,2496.72 3331.98,2525.22 3300.5,2545C 3266.59,2563.08 3230.59,2569.08 3192.5,2563C 3175.15,2560.64 3157.98,2557.47 3141,2553.5C 3130.33,2567.5 3119.67,2581.5 3109,2595.5C 3083.63,2637.86 3056.29,2678.86 3027,2718.5C 2965.3,2794.95 2888.47,2850.79 2796.5,2886C 2864.15,2917.63 2925.82,2957.96 2981.5,3007C 3017.4,3038.23 3050.57,3072.07 3081,3108.5C 3170.2,3225.39 3219.2,3357.72 3228,3505.5C 3238.4,3670.14 3240.23,3834.8 3233.5,3999.5 Z"></path></g><g><path style="opacity:1" fill="#7c5d00" d="M 1855.5,871.5 C 1839.12,896.757 1818.79,918.257 1794.5,936C 1743.13,970.515 1687.13,994.182 1626.5,1007C 1538.08,1024.77 1449.42,1026.11 1360.5,1011C 1296.88,999.264 1237.88,977.264 1183.5,945C 1159.66,928.796 1138.16,910.296 1119,889.5C 1114,882.833 1109,876.167 1104,869.5C 1099.22,862.274 1095.22,854.608 1092,846.5C 1091.33,845.748 1090.5,845.414 1089.5,845.5C 1280.84,760.535 1478.17,743.702 1681.5,795C 1742.46,811.531 1799.79,836.198 1853.5,869C 1854.38,869.708 1855.05,870.542 1855.5,871.5 Z"></path></g><g><path style="opacity:1" fill="#7c5d00" d="M 2983.5,904.5 C 2983.03,908.737 2981.86,912.737 2980,916.5C 2967.7,941.143 2951.2,962.643 2930.5,981C 2902.02,1005.41 2870.36,1025.08 2835.5,1040C 2772.31,1065.72 2706.31,1080.39 2637.5,1084C 2543.21,1089.82 2452.21,1075.82 2364.5,1042C 2358.34,1038.83 2352.01,1036.16 2345.5,1034C 2333.86,1028.15 2322.19,1022.15 2310.5,1016C 2295.88,1007.35 2281.88,997.681 2268.5,987C 2245.87,968.526 2226.87,946.692 2211.5,921.5C 2205.75,909.219 2200.42,896.886 2195.5,884.5C 2295.94,850.556 2399.28,836.056 2505.5,841C 2667.22,844.394 2826.55,865.561 2983.5,904.5 Z"></path></g><g><path style="opacity:1" fill="#838637" d="M 1089.5,845.5 C 1090.5,845.414 1091.33,845.748 1092,846.5C 1095.22,854.608 1099.22,862.274 1104,869.5C 1109,876.167 1114,882.833 1119,889.5C 1138.16,910.296 1159.66,928.796 1183.5,945C 1237.88,977.264 1296.88,999.264 1360.5,1011C 1449.42,1026.11 1538.08,1024.77 1626.5,1007C 1687.13,994.182 1743.13,970.515 1794.5,936C 1818.79,918.257 1839.12,896.757 1855.5,871.5C 1872.84,882.989 1889.5,895.489 1905.5,909C 1961.06,958.55 2010.9,1013.05 2055,1072.5C 2089.39,1117.6 2121.06,1164.6 2150,1213.5C 2165.32,1242.63 2177.82,1272.96 2187.5,1304.5C 2186.33,1304.83 2185.17,1305.17 2184,1305.5C 2096.57,1292.18 2009.07,1279.35 1921.5,1267C 1796.68,1250.05 1671.35,1239.05 1545.5,1234C 1456.82,1230.37 1369.15,1238.04 1282.5,1257C 1242.35,1267.94 1203.01,1281.27 1164.5,1297C 1140.72,1306.39 1117.05,1316.06 1093.5,1326C 1084.28,1332.2 1082.12,1340.37 1087,1350.5C 1092,1357.02 1098.5,1359.19 1106.5,1357C 1151.83,1338.5 1197.5,1320.83 1243.5,1304C 1299.76,1285.79 1357.43,1274.79 1416.5,1271C 1481.49,1266.55 1546.49,1266.55 1611.5,1271C 1717.22,1277.55 1822.55,1287.88 1927.5,1302C 2019.4,1315.57 2111.23,1329.07 2203,1342.5C 2214.5,1364.18 2227.5,1384.84 2242,1404.5C 2278.28,1453.12 2314.95,1501.45 2352,1549.5C 2361.87,1564.08 2371.37,1578.91 2380.5,1594C 2333.7,1570.72 2285.37,1550.72 2235.5,1534C 2051.21,1472.15 1861.88,1443.48 1667.5,1448C 1628.14,1448.59 1589.14,1452.59 1550.5,1460C 1504.27,1468.56 1458.93,1480.56 1414.5,1496C 1373.42,1510.47 1332.42,1525.14 1291.5,1540C 1254.83,1551.56 1217.5,1560.22 1179.5,1566C 1136.56,1570.47 1093.56,1574.14 1050.5,1577C 1041.86,1579.14 1037.53,1584.64 1037.5,1593.5C 1037.38,1601.09 1040.71,1606.59 1047.5,1610C 1094.46,1633.48 1140.46,1658.48 1185.5,1685C 1217.04,1707.6 1248.04,1730.94 1278.5,1755C 1309.11,1776.61 1339.45,1798.61 1369.5,1821C 1417.9,1854.89 1469.24,1884.22 1523.5,1909C 1605.98,1947.83 1690.65,1981.16 1777.5,2009C 1841.14,2023.63 1905.64,2030.47 1971,2029.5C 2065.27,2030.57 2157.77,2018.4 2248.5,1993C 2278.8,1984.07 2307.47,1971.57 2334.5,1955.5C 2342.69,1962.19 2351.02,1968.69 2359.5,1975C 2343.18,1994.65 2325.51,2012.99 2306.5,2030C 2276.62,2051.61 2243.96,2067.94 2208.5,2079C 2121.82,2105.67 2033.15,2121 1942.5,2125C 1864.16,2129.55 1785.83,2129.55 1707.5,2125C 1607.1,2118.36 1506.94,2109.19 1407,2097.5C 1394.67,2099.16 1389.01,2106.16 1390,2118.5C 1392.26,2125.1 1396.76,2129.26 1403.5,2131C 1523.14,2145.48 1643.14,2155.82 1763.5,2162C 1839.59,2163.31 1915.59,2161.31 1991.5,2156C 2068.36,2149.08 2143.69,2134.41 2217.5,2112C 2255.57,2099.96 2290.9,2082.63 2323.5,2060C 2330.46,2054.71 2337.13,2049.04 2343.5,2043C 2358.77,2027.4 2373.6,2011.57 2388,1995.5C 2437.31,2028.23 2490.47,2053.07 2547.5,2070C 2568.68,2076.46 2590.01,2082.29 2611.5,2087.5C 2615.98,2090.21 2620.98,2091.54 2626.5,2091.5C 2727.84,2117.52 2830.84,2132.02 2935.5,2135C 3084.84,2140.56 3233.18,2130.9 3380.5,2106C 3471.12,2088.67 3556.45,2057.34 3636.5,2012C 3649.11,2003.78 3661.28,1994.95 3673,1985.5C 3683.93,1996.56 3686.26,2009.22 3680,2023.5C 3673.73,2034.44 3664.89,2042.61 3653.5,2048C 3637.32,2054.73 3620.99,2061.06 3604.5,2067C 3601.24,2069.59 3598.74,2072.76 3597,2076.5C 3599.46,2093.49 3593.63,2106.65 3579.5,2116C 3558.47,2127.01 3536.47,2135.68 3513.5,2142C 3416.45,2170.06 3317.45,2186.39 3216.5,2191C 3179.17,2193.06 3141.83,2194.39 3104.5,2195C 3091.39,2182.95 3077.72,2171.62 3063.5,2161C 3054.69,2157.78 3047.69,2159.95 3042.5,2167.5C 3041.5,2167.5 3040.5,2167.5 3039.5,2167.5C 3038.49,2172.49 3038.65,2177.49 3040,2182.5C 3040.38,2183.94 3041.21,2184.94 3042.5,2185.5C 3054.65,2197.14 3067.32,2208.31 3080.5,2219C 3093.53,2232.37 3106.2,2246.03 3118.5,2260C 3130.71,2266.82 3139.88,2263.98 3146,2251.5C 3146.85,2242.35 3143.68,2234.85 3136.5,2229C 3206.75,2226.85 3276.75,2221.52 3346.5,2213C 3400.32,2204.9 3453.48,2193.74 3506,2179.5C 3506.77,2179.64 3507.44,2179.98 3508,2180.5C 3510.84,2202.32 3504.01,2220.48 3487.5,2235C 3470.59,2249.63 3451.59,2260.97 3430.5,2269C 3390.01,2283.27 3348.35,2288.6 3305.5,2285C 3240.45,2278.85 3175.45,2272.18 3110.5,2265C 2977.91,2253.49 2845.24,2252.49 2712.5,2262C 2673.44,2266.84 2634.77,2273.84 2596.5,2283C 2536.51,2298.33 2476.51,2313.66 2416.5,2329C 2359,2340.94 2301,2349.6 2242.5,2355C 2149.74,2364.55 2056.74,2368.21 1963.5,2366C 1890.02,2362.42 1817.02,2354.42 1744.5,2342C 1698.57,2335.69 1652.57,2335.03 1606.5,2340C 1523.83,2352.34 1471.66,2398.84 1450,2479.5C 1444.93,2500.24 1443.1,2521.24 1444.5,2542.5C 1443.69,2540.37 1443.19,2538.04 1443,2535.5C 1373.61,2665.96 1288.27,2784.96 1187,2892.5C 1130.18,2951.49 1064.01,2996.82 988.5,3028.5C 855.032,3008.22 724.032,2977.38 595.5,2936C 549.229,2921.02 503.895,2903.69 459.5,2884C 432.847,2871.02 407.514,2856.02 383.5,2839C 375.675,2833.01 368.342,2826.51 361.5,2819.5C 385.936,2812.03 405.77,2798.03 421,2777.5C 442.718,2745.67 456.718,2710.67 463,2672.5C 479.04,2577.1 464.707,2486.77 420,2401.5C 402.332,2368.84 378.165,2342.34 347.5,2322C 329.625,2311.53 310.291,2306.36 289.5,2306.5C 293.744,2285.94 298.91,2265.6 305,2245.5C 307.26,2231.37 310.093,2217.37 313.5,2203.5C 314.478,2203.98 315.311,2204.64 316,2205.5C 339.278,2265.56 382.445,2288.39 445.5,2274C 469.638,2266.39 492.638,2256.06 514.5,2243C 547.063,2220.45 577.23,2194.95 605,2166.5C 618.705,2151.8 632.038,2136.8 645,2121.5C 740.304,2002.1 807.304,1868.1 846,1719.5C 850.645,1695.94 854.645,1672.27 858,1648.5C 858.724,1636.1 859.558,1623.77 860.5,1611.5C 861.704,1596.81 861.371,1582.14 859.5,1567.5C 857.46,1538.7 849.127,1511.7 834.5,1486.5C 813.75,1455.96 784.75,1440.96 747.5,1441.5C 739.257,1441.38 731.257,1442.22 723.5,1444C 755.939,1411.3 782.106,1374.14 802,1332.5C 807.601,1317.36 812.601,1302.03 817,1286.5C 823.097,1256.58 828.764,1226.58 834,1196.5C 848.774,1134.64 872.107,1076.3 904,1021.5C 943.839,962.989 992.006,912.155 1048.5,869C 1061.57,860.132 1075.24,852.298 1089.5,845.5 Z"></path></g><g><path style="opacity:1" fill="#838637" d="M 2195.5,884.5 C 2200.42,896.886 2205.75,909.219 2211.5,921.5C 2226.87,946.692 2245.87,968.526 2268.5,987C 2281.88,997.681 2295.88,1007.35 2310.5,1016C 2322.19,1022.15 2333.86,1028.15 2345.5,1034C 2352.01,1036.16 2358.34,1038.83 2364.5,1042C 2452.21,1075.82 2543.21,1089.82 2637.5,1084C 2706.31,1080.39 2772.31,1065.72 2835.5,1040C 2870.36,1025.08 2902.02,1005.41 2930.5,981C 2951.2,962.643 2967.7,941.143 2980,916.5C 2981.86,912.737 2983.03,908.737 2983.5,904.5C 3024.91,915.915 3064.57,931.748 3102.5,952C 3138.77,971.606 3166.27,999.773 3185,1036.5C 3197.12,1059.87 3205.46,1084.53 3210,1110.5C 3217.46,1147.48 3221.96,1184.82 3223.5,1222.5C 3115.54,1235.58 3007.2,1244.08 2898.5,1248C 2750.17,1246.97 2602.17,1253.3 2454.5,1267C 2432.13,1269.34 2409.79,1272 2387.5,1275C 2341.42,1284.58 2295.42,1294.58 2249.5,1305C 2241.24,1306.57 2232.9,1307.41 2224.5,1307.5C 2215.56,1280.19 2205.73,1253.19 2195,1226.5C 2176.93,1190.68 2156.6,1156.35 2134,1123.5C 2098.04,1071.03 2059.2,1020.69 2017.5,972.5C 2071.9,933.635 2131.23,904.301 2195.5,884.5 Z"></path></g><g><path style="opacity:1" fill="#838637" d="M 3264.5,1251.5 C 3314.46,1246.99 3362.46,1254.49 3408.5,1274C 3440.08,1290.9 3468.25,1312.4 3493,1338.5C 3511.87,1359.91 3528.54,1382.91 3543,1407.5C 3555.16,1431.82 3567.82,1455.82 3581,1479.5C 3588.55,1491.44 3596.72,1502.94 3605.5,1514C 3444.78,1493.04 3283.78,1491.04 3122.5,1508C 3044.01,1517.62 2968.01,1536.96 2894.5,1566C 2812.29,1604.6 2727.95,1637.94 2641.5,1666C 2581.9,1682.42 2521.57,1695.59 2460.5,1705.5C 2454.2,1669.11 2442.04,1634.78 2424,1602.5C 2409.5,1575.5 2393.5,1549.5 2376,1524.5C 2338.95,1476.45 2302.28,1428.12 2266,1379.5C 2257.24,1367.24 2249.08,1354.57 2241.5,1341.5C 2287.56,1331.65 2333.56,1321.49 2379.5,1311C 2442.23,1302.08 2505.23,1295.74 2568.5,1292C 2598.14,1289.86 2627.81,1288.2 2657.5,1287C 2737.82,1285.04 2818.16,1283.38 2898.5,1282C 3021.12,1277.45 3143.12,1267.28 3264.5,1251.5 Z"></path></g><g><path style="opacity:1" fill="#838637" d="M 743.5,1473.5 C 777.423,1471.95 801.257,1486.61 815,1517.5C 824.474,1542.66 828.974,1568.66 828.5,1595.5C 828.391,1609.51 827.891,1623.51 827,1637.5C 825.18,1652.52 823.18,1667.52 821,1682.5C 805.787,1754.91 782.454,1824.58 751,1891.5C 708.725,1980.9 654.892,2062.57 589.5,2136.5C 580.158,2145.88 570.825,2155.21 561.5,2164.5C 529.351,2195.49 493.017,2220.32 452.5,2239C 397.882,2259.17 361.382,2242 343,2187.5C 335.682,2157.71 333.015,2127.38 335,2096.5C 341.795,2027.56 357.795,1960.9 383,1896.5C 428.533,1779.01 492.866,1673.34 576,1579.5C 604.201,1550.28 635.034,1524.45 668.5,1502C 686.021,1491.74 704.354,1483.4 723.5,1477C 730.254,1475.5 736.921,1474.34 743.5,1473.5 Z"></path></g><g><path style="opacity:1" fill="#be9612" d="M 1569.5,1489.5 C 1571.56,1489.69 1573.56,1490.19 1575.5,1491C 1529.22,1517.94 1489.72,1552.77 1457,1595.5C 1435.97,1623.57 1421.97,1654.9 1415,1689.5C 1406.98,1727.06 1403.15,1765.06 1403.5,1803.5C 1394.25,1797.75 1385.42,1791.41 1377,1784.5C 1371.21,1709.64 1388.88,1640.97 1430,1578.5C 1452.83,1551.67 1477.67,1526.83 1504.5,1504C 1526.1,1498.58 1547.76,1493.75 1569.5,1489.5 Z"></path></g><g><path style="opacity:1" fill="#be9712" d="M 1924.5,1494.5 C 1940.51,1496.86 1956.51,1499.36 1972.5,1502C 1994.94,1531.03 2015.77,1561.2 2035,1592.5C 2066.87,1654.61 2075.87,1719.95 2062,1788.5C 2047.52,1847.65 2018.02,1897.81 1973.5,1939C 1951.87,1958.14 1929.87,1976.81 1907.5,1995C 1894.14,1994.67 1880.81,1993.67 1867.5,1992C 1865.99,1991.16 1865.49,1990 1866,1988.5C 1889.46,1970.05 1912.62,1951.21 1935.5,1932C 1956.81,1911.36 1976.64,1889.53 1995,1866.5C 2030.42,1813.06 2042.42,1754.73 2031,1691.5C 2022.93,1645.94 2006.27,1603.94 1981,1565.5C 1962.81,1541.31 1943.31,1518.15 1922.5,1496C 1923.42,1495.72 1924.08,1495.22 1924.5,1494.5 Z"></path></g><g><path style="opacity:1" fill="#fefefe" d="M 2023.5,1512.5 C 2121.84,1532.5 2217.51,1561.34 2310.5,1599C 2337.53,1610.35 2363.2,1624.01 2387.5,1640C 2410.16,1658.82 2423.33,1682.98 2427,1712.5C 2431.91,1746.87 2427.25,1779.87 2413,1811.5C 2385.77,1875.06 2340.27,1920.23 2276.5,1947C 2202.45,1975.28 2125.79,1991.28 2046.5,1995C 2017.83,1996.83 1989.16,1996.83 1960.5,1995C 1983.5,1977.01 2005,1957.17 2025,1935.5C 2095.45,1849.95 2117.79,1752.95 2092,1644.5C 2085.02,1620.22 2075.69,1596.89 2064,1574.5C 2051.23,1553.26 2037.73,1532.6 2023.5,1512.5 Z"></path></g><g><path style="opacity:1" fill="#fdfdfd" d="M 1426.5,1527.5 C 1427.38,1527.37 1428.04,1527.7 1428.5,1528.5C 1405.08,1551.79 1386.91,1578.79 1374,1609.5C 1359.81,1640.08 1350.47,1672.08 1346,1705.5C 1344.38,1723.15 1343.05,1740.81 1342,1758.5C 1325.76,1746.3 1309.26,1734.47 1292.5,1723C 1268.12,1703.62 1243.45,1684.62 1218.5,1666C 1206.17,1657.5 1193.5,1649.5 1180.5,1642C 1158.97,1630.4 1137.64,1618.57 1116.5,1606.5C 1186.78,1602.81 1255.12,1589.31 1321.5,1566C 1356.37,1552.55 1391.37,1539.72 1426.5,1527.5 Z"></path></g><g><path style="opacity:1" fill="#838637" d="M 3287.5,1530.5 C 3359.92,1529.65 3432.26,1531.82 3504.5,1537C 3551.01,1540.23 3597.01,1546.9 3642.5,1557C 3668.29,1562.79 3685.13,1578.29 3693,1603.5C 3695.15,1617.06 3690.98,1628.23 3680.5,1637C 3675.67,1640.58 3670.67,1643.91 3665.5,1647C 3664.17,1647.67 3662.83,1647.67 3661.5,1647C 3643.9,1638.8 3625.57,1632.8 3606.5,1629C 3576.79,1622.87 3546.79,1618.87 3516.5,1617C 3333.65,1603.44 3152.98,1617.44 2974.5,1659C 2907.7,1678.16 2840.7,1696.49 2773.5,1714C 2702.46,1730.82 2630.46,1738.16 2557.5,1736C 2546,1734.67 2534.66,1732.5 2523.5,1729.5C 2558.91,1721.78 2594.25,1713.62 2629.5,1705C 2688.92,1687.3 2747.26,1666.64 2804.5,1643C 2844.93,1624.78 2885.6,1607.12 2926.5,1590C 3011.27,1559.71 3098.61,1541.71 3188.5,1536C 3221.64,1533.8 3254.64,1531.96 3287.5,1530.5 Z"></path></g><g><path style="opacity:1" fill="#010100" d="M 702.5,1578.5 C 726.856,1577.69 740.69,1589.36 744,1613.5C 745.246,1630.97 744.246,1648.31 741,1665.5C 734.204,1694.7 725.87,1723.36 716,1751.5C 677.326,1851.2 627.993,1944.87 568,2032.5C 547.127,2062.39 523.627,2090.22 497.5,2116C 489.905,2122.93 481.738,2129.1 473,2134.5C 463.631,2139.9 453.631,2143.24 443,2144.5C 432.287,2144.14 423.62,2139.81 417,2131.5C 410.486,2119.94 407.653,2107.44 408.5,2094C 408.949,2083.8 409.782,2073.64 411,2063.5C 424.368,2003.23 444.701,1945.56 472,1890.5C 475.267,1882.54 478.6,1874.54 482,1866.5C 494.955,1841.93 507.955,1817.26 521,1792.5C 550.532,1740.48 583.865,1690.82 621,1643.5C 638.439,1622.75 657.939,1604.25 679.5,1588C 687.313,1584.66 694.98,1581.49 702.5,1578.5 Z"></path></g><g><path style="opacity:1" fill="#fdfdfd" d="M 1571.5,1595.5 C 1588.38,1594.62 1602.88,1599.96 1615,1611.5C 1622.49,1621.62 1625.16,1632.95 1623,1645.5C 1620.09,1665.08 1608.93,1676.91 1589.5,1681C 1572.01,1684.39 1557.51,1679.22 1546,1665.5C 1535.41,1650.89 1533.74,1635.22 1541,1618.5C 1548.39,1607.07 1558.55,1599.4 1571.5,1595.5 Z"></path></g><g><path style="opacity:1" fill="#4f5121" d="M 859.5,1567.5 C 861.371,1582.14 861.704,1596.81 860.5,1611.5C 860.225,1596.83 859.891,1582.17 859.5,1567.5 Z"></path></g><g><path style="opacity:1" fill="#42431b" d="M 705.5,1611.5 C 708.044,1611.1 710.211,1611.77 712,1613.5C 713.203,1639.82 709.87,1665.49 702,1690.5C 686.995,1739.25 668.661,1786.58 647,1832.5C 615.596,1896.46 579.929,1957.8 540,2016.5C 524.387,2037.38 508.054,2057.71 491,2077.5C 480.734,2087.77 469.901,2097.27 458.5,2106C 453.902,2109.15 448.902,2110.81 443.5,2111C 440.989,2106.59 439.989,2101.75 440.5,2096.5C 442.304,2070.28 447.137,2044.61 455,2019.5C 468.573,1977.87 484.573,1937.2 503,1897.5C 538.386,1822.7 580.386,1752.03 629,1685.5C 644.35,1665.48 661.183,1646.64 679.5,1629C 687.546,1622.1 696.213,1616.26 705.5,1611.5 Z"></path></g><g><path style="opacity:1" fill="#060608" d="M 3208.5,1654.5 C 3228.63,1679.41 3246.8,1705.75 3263,1733.5C 3296.81,1797.08 3310.81,1864.74 3305,1936.5C 3300.03,1980.42 3285.36,2020.75 3261,2057.5C 3252.73,2069.04 3244.23,2080.38 3235.5,2091.5C 3226.31,2101.98 3216.98,2112.48 3207.5,2123C 3195.52,2129.56 3186.69,2126.73 3181,2114.5C 3179.83,2109.06 3180.83,2104.06 3184,2099.5C 3186.96,2097.54 3189.63,2095.21 3192,2092.5C 3192.69,2091.56 3192.53,2090.9 3191.5,2090.5C 3207.63,2071.59 3222.79,2051.92 3237,2031.5C 3269.25,1977.57 3279.92,1919.57 3269,1857.5C 3261.09,1809.08 3243.75,1764.41 3217,1723.5C 3201.4,1701.08 3184.9,1679.41 3167.5,1658.5C 3160.43,1651.14 3158.93,1642.81 3163,1633.5C 3169.61,1626.02 3177.45,1624.52 3186.5,1629C 3194.44,1637.11 3201.78,1645.61 3208.5,1654.5 Z"></path></g><g><path style="opacity:1" fill="#060607" d="M 3132.5,1663.5 C 3157.87,1695.88 3181.04,1729.88 3202,1765.5C 3235.45,1825.77 3245.79,1889.77 3233,1957.5C 3226.18,1985.14 3214.51,2010.47 3198,2033.5C 3181.14,2058.49 3161.64,2080.49 3139.5,2099.5C 3114.8,2114.28 3088.13,2125.78 3059.5,2134C 3046.31,2136.75 3038.64,2131.59 3036.5,2118.5C 3036.59,2112.82 3038.93,2108.32 3043.5,2105C 3065.78,2098.24 3087.45,2089.91 3108.5,2080C 3130.29,2065.88 3148.46,2048.04 3163,2026.5C 3175.69,2009.44 3186.36,1991.11 3195,1971.5C 3208.16,1931.67 3209.82,1891.34 3200,1850.5C 3194.2,1825.09 3184.87,1801.09 3172,1778.5C 3148.68,1738.19 3121.68,1700.52 3091,1665.5C 3088.91,1652.63 3094.25,1645.63 3107,1644.5C 3110.46,1644.27 3113.63,1645.1 3116.5,1647C 3122.11,1652.44 3127.45,1657.94 3132.5,1663.5 Z"></path></g><g><path style="opacity:1" fill="#fefefe" d="M 3235.5,2091.5 C 3244.23,2080.38 3252.73,2069.04 3261,2057.5C 3285.36,2020.75 3300.03,1980.42 3305,1936.5C 3310.81,1864.74 3296.81,1797.08 3263,1733.5C 3246.8,1705.75 3228.63,1679.41 3208.5,1654.5C 3318.78,1644.42 3429.12,1643.92 3539.5,1653C 3572.67,1655.7 3605.01,1662.37 3636.5,1673C 3660.82,1683.24 3680.65,1699.07 3696,1720.5C 3711.14,1740.79 3720.81,1763.46 3725,1788.5C 3729.61,1854.36 3707.45,1909.2 3658.5,1953C 3633.59,1974.21 3606.26,1991.88 3576.5,2006C 3516.62,2035.18 3453.95,2056.18 3388.5,2069C 3337.89,2079.25 3286.89,2086.75 3235.5,2091.5 Z"></path></g><g><path style="opacity:1" fill="#be9712" d="M 3167.5,1658.5 C 3184.9,1679.41 3201.4,1701.08 3217,1723.5C 3243.75,1764.41 3261.09,1809.08 3269,1857.5C 3279.92,1919.57 3269.25,1977.57 3237,2031.5C 3222.79,2051.92 3207.63,2071.59 3191.5,2090.5C 3190.07,2092.44 3188.4,2094.27 3186.5,2096C 3170.87,2097.66 3155.2,2098.83 3139.5,2099.5C 3161.64,2080.49 3181.14,2058.49 3198,2033.5C 3214.51,2010.47 3226.18,1985.14 3233,1957.5C 3245.79,1889.77 3235.45,1825.77 3202,1765.5C 3181.04,1729.88 3157.87,1695.88 3132.5,1663.5C 3143.96,1660.77 3155.63,1659.11 3167.5,1658.5 Z"></path></g><g><path style="opacity:1" fill="#fefefe" d="M 1858.5,1663.5 C 1916.7,1662.86 1945.86,1691.53 1946,1749.5C 1939.3,1778.54 1922.13,1798.7 1894.5,1810C 1863.82,1822.51 1833.82,1821.17 1804.5,1806C 1775.33,1785.49 1765.83,1757.99 1776,1723.5C 1785.39,1699.78 1801.89,1682.95 1825.5,1673C 1836.24,1668.47 1847.24,1665.3 1858.5,1663.5 Z"></path></g><g><path style="opacity:1" fill="#060608" d="M 2669.5,1764.5 C 2657.29,1786.25 2646.13,1808.58 2636,1831.5C 2616.12,1892.31 2613.12,1953.98 2627,2016.5C 2630.76,2031.05 2634.6,2045.55 2638.5,2060C 2640.06,2060.21 2641.39,2060.71 2642.5,2061.5C 2641.17,2061.5 2639.83,2061.5 2638.5,2061.5C 2640.83,2068.45 2641,2075.45 2639,2082.5C 2636.08,2087.36 2631.92,2090.36 2626.5,2091.5C 2620.98,2091.54 2615.98,2090.21 2611.5,2087.5C 2612.24,2087.63 2612.91,2087.46 2613.5,2087C 2611.04,2084.59 2609.21,2081.76 2608,2078.5C 2605.46,2069.89 2603.13,2061.22 2601,2052.5C 2600.52,2050.87 2599.69,2049.53 2598.5,2048.5C 2599.1,2048.26 2599.43,2047.76 2599.5,2047C 2579.43,1975.07 2579.6,1903.24 2600,1831.5C 2602.44,1823.28 2605.44,1815.28 2609,1807.5C 2614.87,1795.1 2620.7,1782.77 2626.5,1770.5C 2624.83,1770.5 2623.17,1770.5 2621.5,1770.5C 2623.89,1769.79 2626.39,1769.12 2629,1768.5C 2633.95,1758.09 2639.79,1748.26 2646.5,1739C 2661.23,1730.86 2670.56,1735.03 2674.5,1751.5C 2673.8,1756.27 2672.13,1760.6 2669.5,1764.5 Z"></path></g><g><path style="opacity:1" fill="#fdfdfd" d="M 1596.5,1739.5 C 1614.63,1738.49 1629.13,1745.15 1640,1759.5C 1649.83,1782.03 1644.99,1800.86 1625.5,1816C 1610.74,1824.32 1595.74,1824.65 1580.5,1817C 1559.13,1801.22 1554.97,1781.72 1568,1758.5C 1575,1748.32 1584.5,1741.98 1596.5,1739.5 Z"></path></g><g><path style="opacity:1" fill="#fefefe" d="M 2621.5,1770.5 C 2623.17,1770.5 2624.83,1770.5 2626.5,1770.5C 2620.7,1782.77 2614.87,1795.1 2609,1807.5C 2605.44,1815.28 2602.44,1823.28 2600,1831.5C 2579.6,1903.24 2579.43,1975.07 2599.5,2047C 2599.43,2047.76 2599.1,2048.26 2598.5,2048.5C 2510.87,2028.85 2432.54,1990.85 2363.5,1934.5C 2414.05,1892.11 2446.21,1838.44 2460,1773.5C 2461.49,1765.56 2462.33,1757.56 2462.5,1749.5C 2489.74,1757.73 2517.41,1764.23 2545.5,1769C 2570.78,1771.76 2596.12,1772.26 2621.5,1770.5 Z"></path></g><g><path style="opacity:1" fill="#be9612" d="M 2642.5,2061.5 C 2641.39,2060.71 2640.06,2060.21 2638.5,2060C 2634.6,2045.55 2630.76,2031.05 2627,2016.5C 2613.12,1953.98 2616.12,1892.31 2636,1831.5C 2646.13,1808.58 2657.29,1786.25 2669.5,1764.5C 2680.71,1763.54 2691.87,1762.2 2703,1760.5C 2704.66,1760.39 2705.83,1761.05 2706.5,1762.5C 2652.62,1841.42 2637.46,1927.42 2661,2020.5C 2664.76,2035.78 2668.93,2050.95 2673.5,2066C 2673.33,2067.5 2672.5,2068.33 2671,2068.5C 2661.44,2066.24 2651.94,2063.9 2642.5,2061.5 Z"></path></g><g><path style="opacity:1" fill="#fdfdfd" d="M 2779.5,1801.5 C 2796.38,1800.62 2810.88,1805.96 2823,1817.5C 2830.49,1827.62 2833.16,1838.95 2831,1851.5C 2828.09,1871.08 2816.93,1882.91 2797.5,1887C 2780.01,1890.39 2765.51,1885.22 2754,1871.5C 2743.41,1856.89 2741.74,1841.22 2749,1824.5C 2756.39,1813.07 2766.55,1805.4 2779.5,1801.5 Z"></path></g><g><path style="opacity:1" fill="#fefefe" d="M 3066.5,1869.5 C 3124.7,1868.86 3153.86,1897.53 3154,1955.5C 3147.3,1984.54 3130.13,2004.7 3102.5,2016C 3071.82,2028.51 3041.82,2027.17 3012.5,2012C 2983.33,1991.49 2973.83,1963.99 2984,1929.5C 2993.39,1905.78 3009.89,1888.95 3033.5,1879C 3044.24,1874.47 3055.24,1871.3 3066.5,1869.5 Z"></path></g><g><path style="opacity:1" fill="#fdfdfd" d="M 2804.5,1945.5 C 2822.63,1944.49 2837.13,1951.15 2848,1965.5C 2857.83,1988.03 2852.99,2006.86 2833.5,2022C 2818.74,2030.32 2803.74,2030.65 2788.5,2023C 2767.13,2007.22 2762.97,1987.72 2776,1964.5C 2783,1954.32 2792.5,1947.98 2804.5,1945.5 Z"></path></g><g><path style="opacity:1" fill="#000000" d="M 1947.5,2275.5 C 1945.97,2270.37 1946.3,2265.37 1948.5,2260.5C 1951.05,2256.78 1954.39,2253.95 1958.5,2252C 1998.23,2246.99 2037.23,2238.65 2075.5,2227C 2102.27,2214.46 2127.93,2200.12 2152.5,2184C 2176.03,2170.4 2201.03,2160.4 2227.5,2154C 2255.75,2146.88 2284.25,2141.05 2313,2136.5C 2326.53,2137.03 2332.53,2144.03 2331,2157.5C 2329.57,2162.6 2326.4,2166.1 2321.5,2168C 2297.14,2173.2 2272.81,2178.54 2248.5,2184C 2221.67,2189.42 2196.34,2198.75 2172.5,2212C 2146.77,2228.53 2120.11,2243.53 2092.5,2257C 2067.76,2265.85 2042.42,2272.52 2016.5,2277C 1998.74,2280.32 1980.91,2283.15 1963,2285.5C 1956.26,2284.55 1951.1,2281.22 1947.5,2275.5 Z"></path></g><g><path style="opacity:1" fill="#5f6128" d="M 3042.5,2167.5 C 3039.9,2173.47 3039.9,2179.47 3042.5,2185.5C 3041.21,2184.94 3040.38,2183.94 3040,2182.5C 3038.65,2177.49 3038.49,2172.49 3039.5,2167.5C 3040.5,2167.5 3041.5,2167.5 3042.5,2167.5 Z"></path></g><g><path style="opacity:1" fill="#515322" d="M 1948.5,2260.5 C 1946.3,2265.37 1945.97,2270.37 1947.5,2275.5C 1945.04,2271.05 1944.87,2266.38 1947,2261.5C 1947.38,2260.94 1947.88,2260.61 1948.5,2260.5 Z"></path></g><g><path style="opacity:1" fill="#a2664f" d="M 3531.5,2272.5 C 3550.02,2271.01 3561.18,2279.34 3565,2297.5C 3568.03,2329.43 3557.19,2355.59 3532.5,2376C 3502.34,2399.06 3468.34,2413.4 3430.5,2419C 3403.69,2423.63 3376.69,2425.47 3349.5,2424.5C 3261.19,2422.31 3173.19,2415.81 3085.5,2405C 2981.15,2390.43 2876.82,2375.76 2772.5,2361C 2721.61,2355.96 2670.61,2354.29 2619.5,2356C 2583.61,2358.18 2548.27,2363.84 2513.5,2373C 2448.5,2391 2384.5,2412 2321.5,2436C 2247.43,2460.93 2172.43,2482.6 2096.5,2501C 1993.83,2521.74 1890.17,2529.74 1785.5,2525C 1775.25,2528.07 1771.08,2534.9 1773,2545.5C 1775.24,2552.07 1779.74,2556.24 1786.5,2558C 1929.09,2565.68 2068.76,2549.01 2205.5,2508C 2236.17,2498.67 2266.83,2489.33 2297.5,2480C 2349.5,2462 2401.5,2444 2453.5,2426C 2489.38,2414.61 2525.71,2404.95 2562.5,2397C 2594.76,2391.36 2627.26,2388.86 2660,2389.5C 2697.25,2389.56 2734.42,2391.4 2771.5,2395C 2888.71,2412.17 3006.05,2428.51 3123.5,2444C 3185.71,2450.28 3248.05,2454.95 3310.5,2458C 3312.02,2488.58 3298.35,2509.58 3269.5,2521C 3248.19,2529.06 3226.19,2531.73 3203.5,2529C 3174.29,2524.82 3145.29,2519.49 3116.5,2513C 3085.03,2504.55 3053.36,2496.88 3021.5,2490C 2958.8,2479.32 2895.63,2474.15 2832,2474.5C 2799.73,2474.46 2767.56,2476.29 2735.5,2480C 2628.97,2497.77 2523.63,2520.77 2419.5,2549C 2359.01,2567.94 2298.35,2586.27 2237.5,2604C 2088.39,2644.02 1936.73,2667.68 1782.5,2675C 1742.17,2675.67 1701.83,2675.67 1661.5,2675C 1633.89,2674.46 1606.56,2671.46 1579.5,2666C 1543.18,2659.96 1516.01,2641.12 1498,2609.5C 1481.16,2579.96 1474.83,2548.3 1479,2514.5C 1482.56,2471.42 1500.06,2435.25 1531.5,2406C 1556.57,2386.98 1584.91,2375.98 1616.5,2373C 1649.83,2369.77 1683.16,2369.77 1716.5,2373C 1753.59,2377.68 1790.59,2383.01 1827.5,2389C 1969.51,2404.41 2111.51,2404.07 2253.5,2388C 2318.59,2382.32 2382.93,2371.98 2446.5,2357C 2511.22,2339.57 2576.22,2323.24 2641.5,2308C 2669.63,2302.36 2697.97,2298.03 2726.5,2295C 2857.97,2286.26 2989.3,2287.93 3120.5,2300C 3181.1,2306.99 3241.76,2313.33 3302.5,2319C 3341.38,2321.63 3379.71,2318.3 3417.5,2309C 3440.15,2303 3462.82,2297 3485.5,2291C 3501.26,2285.61 3516.59,2279.44 3531.5,2272.5 Z"></path></g><g><path style="opacity:1" fill="#7c5d00" d="M 289.5,2306.5 C 310.291,2306.36 329.625,2311.53 347.5,2322C 378.165,2342.34 402.332,2368.84 420,2401.5C 464.707,2486.77 479.04,2577.1 463,2672.5C 456.718,2710.67 442.718,2745.67 421,2777.5C 405.77,2798.03 385.936,2812.03 361.5,2819.5C 341.635,2800.46 325.135,2778.79 312,2754.5C 293.364,2719.93 280.698,2683.26 274,2644.5C 262.704,2585.95 259.704,2526.95 265,2467.5C 268.855,2413.05 277.022,2359.38 289.5,2306.5 Z"></path></g><g><path style="opacity:1" fill="#a9a605" d="M 988.5,3028.5 C 1064.01,2996.82 1130.18,2951.49 1187,2892.5C 1288.27,2784.96 1373.61,2665.96 1443,2535.5C 1443.19,2538.04 1443.69,2540.37 1444.5,2542.5C 1446.94,2590.87 1465.27,2632.03 1499.5,2666C 1519.27,2681.71 1541.6,2692.38 1566.5,2698C 1589.91,2703.11 1613.58,2706.44 1637.5,2708C 1756.81,2713.79 1875.47,2707.46 1993.5,2689C 2081.29,2676.38 2167.96,2658.38 2253.5,2635C 2309.59,2618.31 2365.59,2601.31 2421.5,2584C 2521.99,2556.13 2623.65,2533.46 2726.5,2516C 2761.98,2510.91 2797.65,2508.41 2833.5,2508.5C 2897.37,2508.04 2960.7,2513.54 3023.5,2525C 3050.22,2531.35 3076.88,2538.01 3103.5,2545C 3094.64,2555.9 3086.14,2567.06 3078,2578.5C 3053.32,2619.88 3026.65,2659.88 2998,2698.5C 2942.07,2767.74 2872.57,2818.58 2789.5,2851C 2645.01,2913.72 2496.01,2963.05 2342.5,2999C 2217.77,3028.57 2091.77,3051.23 1964.5,3067C 1734.17,3091.66 1503.84,3091.66 1273.5,3067C 1177.95,3057.18 1082.95,3044.35 988.5,3028.5 Z"></path></g><g><path style="opacity:1" fill="#19273d" d="M 3201.5,3999.5 C 3106.5,3999.5 3011.5,3999.5 2916.5,3999.5C 2912.85,3918.14 2908.68,3836.81 2904,3755.5C 2898.11,3679.64 2890.45,3603.98 2881,3528.5C 2874.61,3516.2 2865.44,3513.53 2853.5,3520.5C 2850.07,3523.95 2848.07,3528.12 2847.5,3533C 2866.61,3687.93 2877.94,3843.43 2881.5,3999.5C 2079.83,3999.5 1278.17,3999.5 476.5,3999.5C 480.098,3843.76 491.431,3688.6 510.5,3534C 506.402,3518.3 497.068,3513.97 482.5,3521C 480.273,3523.56 478.439,3526.4 477,3529.5C 467.552,3604.98 459.886,3680.64 454,3756.5C 449.349,3837.48 445.183,3918.48 441.5,3999.5C 345.833,3999.5 250.167,3999.5 154.5,3999.5C 152.688,3889.18 152.188,3778.85 153,3668.5C 153.778,3557.05 157.778,3445.71 165,3334.5C 168.278,3301.17 173.611,3268.17 181,3235.5C 197.904,3159.03 231.237,3091.03 281,3031.5C 322.396,2990.08 366.73,2952.42 414,2918.5C 444.727,2976.23 486.56,3024.4 539.5,3063C 600.075,3103.96 664.741,3137.63 733.5,3164C 820.934,3195.78 909.934,3222.44 1000.5,3244C 1277.18,3305.28 1556.85,3324.95 1839.5,3303C 1960.56,3293.32 2080.22,3274.66 2198.5,3247C 2349.58,3210.67 2489.92,3150.34 2619.5,3066C 2678.9,3022.6 2729.4,2970.77 2771,2910.5C 2815.81,2930.98 2858.31,2955.14 2898.5,2983C 2957.02,3026.18 3009.86,3075.68 3057,3131.5C 3141.19,3242.7 3187.53,3368.37 3196,3508.5C 3206.4,3672.09 3208.23,3835.76 3201.5,3999.5 Z"></path></g><g><path style="opacity:1" fill="#a9a605" d="M 853.5,3168.5 C 854.543,3165.94 856.21,3163.78 858.5,3162C 882.703,3142.13 904.536,3119.96 924,3095.5C 931.942,3082.6 940.108,3069.93 948.5,3057.5C 1098.36,3082.4 1249.02,3100.57 1400.5,3112C 1582.74,3124.05 1764.74,3121.05 1946.5,3103C 2183.62,3076.55 2414.96,3024.55 2640.5,2947C 2668.61,2936.6 2696.61,2926.26 2724.5,2916C 2676.31,2979.21 2617.98,3030.54 2549.5,3070C 2434.12,3136.69 2311.45,3185.36 2181.5,3216C 2096.86,3234.88 2011.53,3249.88 1925.5,3261C 1625.08,3293.39 1327.08,3278.39 1031.5,3216C 971.62,3202.03 912.287,3186.2 853.5,3168.5 Z"></path></g><g><path style="opacity:1" fill="#838637" d="M 948.5,3057.5 C 940.108,3069.93 931.942,3082.6 924,3095.5C 904.536,3119.96 882.703,3142.13 858.5,3162C 856.21,3163.78 854.543,3165.94 853.5,3168.5C 760.311,3142.4 672.311,3104.56 589.5,3055C 533.357,3021.36 488.357,2976.52 454.5,2920.5C 454.833,2920.17 455.167,2919.83 455.5,2919.5C 522.459,2948.32 591.126,2972.49 661.5,2992C 756.192,3018.76 851.859,3040.59 948.5,3057.5 Z"></path></g><g><path style="opacity:1" fill="#000000" d="M 2916.5,3999.5 C 2904.83,3999.5 2893.17,3999.5 2881.5,3999.5C 2877.94,3843.43 2866.61,3687.93 2847.5,3533C 2848.07,3528.12 2850.07,3523.95 2853.5,3520.5C 2865.44,3513.53 2874.61,3516.2 2881,3528.5C 2890.45,3603.98 2898.11,3679.64 2904,3755.5C 2908.68,3836.81 2912.85,3918.14 2916.5,3999.5 Z"></path></g><g><path style="opacity:1" fill="#000000" d="M 476.5,3999.5 C 464.833,3999.5 453.167,3999.5 441.5,3999.5C 445.183,3918.48 449.349,3837.48 454,3756.5C 459.886,3680.64 467.552,3604.98 477,3529.5C 478.439,3526.4 480.273,3523.56 482.5,3521C 497.068,3513.97 506.402,3518.3 510.5,3534C 491.431,3688.6 480.098,3843.76 476.5,3999.5 Z"></path></g></svg>