<svg width="32" height="32" viewBox="0 0 32 32" fill="none" xmlns="http://www.w3.org/2000/svg">
<g id="Trait Icon">
<path id="Vector" d="M25.3295 4.33984C23.4049 4.33984 21.8428 5.89897 21.8428 7.8265C21.8399 8.35702 21.9607 8.88456 22.1965 9.36202C22.5767 10.1372 23.2281 10.7472 24.0297 11.0744L24.0238 11.0597C24.4394 11.2277 24.8815 11.3161 25.3295 11.3131C27.257 11.3131 28.819 9.75108 28.819 7.8265C28.819 5.89897 27.257 4.33984 25.3295 4.33984Z" fill="#E6EFF7"/>
<path id="Vector_2" d="M7.35395 15.4552H3.79364C3.40164 15.4552 3.04208 15.1723 3.00377 14.7832C2.95955 14.3352 3.31028 13.9609 3.74942 13.9609H7.35395C7.56025 13.9609 7.74593 14.0435 7.88151 14.1791C8.01709 14.3146 8.09961 14.5003 8.09961 14.7066C8.09961 15.1192 7.76656 15.4552 7.35395 15.4552Z" fill="#E6EFF7"/>
<path id="Vector_3" d="M31.0002 14.0506C30.9854 14.4603 30.8057 14.8464 30.5021 15.1176L26.5174 18.7928C26.3582 18.9402 26.1254 18.9667 25.9397 18.8635L22.3764 16.9007L20.9617 18.3094L23.1928 22.0584C23.3048 22.2411 23.2842 22.471 23.1486 22.6361L19.4026 27.1189C19.1462 27.4313 18.7778 27.6258 18.377 27.6612H18.3593C17.9997 27.6612 17.6402 27.5521 17.3631 27.3222C16.7118 26.7858 16.5762 25.8545 17.0242 25.156L18.6747 22.5447L16.6823 20.2753L8.60971 25.9547C8.35918 26.1286 8.05562 26.2229 7.74909 26.2229C7.29522 26.2229 6.86491 26.0225 6.57313 25.6747C6.07209 25.0764 6.1163 24.1922 6.67334 23.647L13.8411 16.4527L13.9119 16.3819L14.8373 15.4565L17.5075 12.7862L16.5202 11.5337C16.2962 11.2448 15.8777 11.2036 15.6006 11.4423L14.2449 12.6065C13.5906 13.1075 12.6504 12.9837 12.1494 12.3265C11.7161 11.7606 11.7456 10.9648 12.2172 10.4284L16.5084 6.08119C16.7 5.8896 17.0124 5.8896 17.204 6.08119L21.3655 9.96571L23.4581 11.9197L25.9986 14.2864C26.2256 14.4957 26.5734 14.5015 26.8062 14.3012L28.4803 12.8511C29.0697 12.3412 29.9539 12.3766 30.508 12.9248L30.5463 12.966C30.841 13.249 31.0031 13.6439 31.0002 14.0506Z" fill="#E6EFF7"/>
<path id="Vector_4" d="M10.9378 17.5469L9.43761 19.0412H4.76911C4.35648 19.0412 4.02051 18.7081 4.02051 18.2955C4.02051 17.8829 4.35648 17.5469 4.76911 17.5469H10.9378Z" fill="#E6EFF7"/>
<path id="Vector_5" d="M7.33943 21.1328L5.83927 22.6271H5.0494C4.63678 22.6271 4.30078 22.2941 4.30078 21.8814C4.30078 21.4688 4.63678 21.1328 5.0494 21.1328H7.33943Z" fill="#E6EFF7"/>
<path id="Vector_6" d="M14.5367 13.9609L13.0365 15.4552H11.5953C11.1827 15.4552 10.8496 15.1192 10.8496 14.7066C10.8496 14.294 11.1827 13.9609 11.5953 13.9609H14.5367Z" fill="#E6EFF7"/>
</g>
</svg>
