<svg width="32" height="32" viewBox="0 0 32 32" fill="none" xmlns="http://www.w3.org/2000/svg">
<g id="Trait Icon">
<path id="Vector" d="M29.0578 10.4931L18.5468 4.26967C17.8696 3.86253 17.0158 3.9207 16.4269 4.41508L2.67718 15.3787C2.23554 15.7277 2 16.2512 2 16.8037V20.0608C2 20.7006 2.35331 21.3113 2.88328 21.6312L12.9821 27.6219C13.3943 27.8837 13.836 28 14.307 28C14.8665 28 15.4553 27.7964 15.9264 27.4475L29.2934 16.7746C29.735 16.4256 30 15.9022 30 15.3496V12.0635C29.9706 11.4237 29.6172 10.813 29.0578 10.4931ZM15.2492 9.64971L17.1335 8.1084C17.3985 7.90483 17.7518 7.87575 18.0168 8.05024L23.552 11.3364C24.0231 11.6272 24.0526 12.267 23.6404 12.5869L21.7266 14.1282C21.4616 14.3318 21.1083 14.3609 20.8433 14.1864L15.3375 10.9002C14.8665 10.6094 14.837 9.99868 15.2492 9.64971ZM28.469 15.3496C28.469 15.466 28.4101 15.5532 28.3218 15.6405L14.9842 26.2842C14.6309 26.575 14.1598 26.6041 13.7771 26.3714L3.67823 20.3516C3.56046 20.2935 3.50158 20.1771 3.50158 20.0317V17.5598L13.4238 23.4633C13.7182 23.6378 14.0421 23.725 14.3659 23.725C14.7781 23.725 15.1903 23.5796 15.5142 23.3179L28.469 12.9941V15.3496Z" fill="#E6EFF7"/>
</g>
</svg>
