<svg width="32" height="32" viewBox="0 0 32 32" fill="none" xmlns="http://www.w3.org/2000/svg">
<g id="Trait Icon">
<path id="Vector" d="M19.1863 4.08368L9.46455 10.5851C9.38056 10.6375 9.28083 10.6637 9.18109 10.6637H4.53543C4.24147 10.6637 4 10.9049 4 11.1985V20.788C4 21.0816 4.24147 21.3228 4.53543 21.3228H9.18109C9.28083 21.3228 9.38056 21.349 9.46455 21.4014L19.1863 27.9186C19.5433 28.1388 20 27.8871 20 27.4676V4.53458C20.0052 4.11514 19.5433 3.85823 19.1863 4.08368Z" fill="#E6EFF7"/>
<path id="Vector_2" d="M22.3667 12.3749C21.8259 11.875 20.9464 11.875 20.4056 12.3749C19.8648 12.8749 19.8648 13.6879 20.4056 14.1878C20.93 14.6726 21.2195 15.3189 21.2195 16.0006C21.2195 16.6823 20.93 17.3287 20.4056 17.8135C19.8648 18.3134 19.8648 19.1264 20.4056 19.6263C20.6787 19.8788 21.0338 20 21.3889 20C21.7439 20 22.099 19.8738 22.3721 19.6263C23.421 18.6568 24 17.3691 24 15.9956C23.9945 14.6322 23.4155 13.3445 22.3667 12.3749Z" fill="#E6EFF7"/>
<path id="Vector_3" d="M26.1085 8.39308C25.6267 7.86897 24.8432 7.86897 24.3614 8.39308C23.8795 8.9172 23.8795 9.76954 24.3614 10.2937C27.2522 13.4383 27.2522 18.5577 24.3614 21.7077C23.8795 22.2318 23.8795 23.0841 24.3614 23.6082C24.6047 23.8729 24.921 24 25.2374 24C25.5537 24 25.8701 23.8676 26.1134 23.6082C29.963 19.4153 29.963 12.5913 26.1085 8.39308Z" fill="#E6EFF7"/>
</g>
</svg>
