<svg width="32" height="32" viewBox="0 0 32 32" fill="none" xmlns="http://www.w3.org/2000/svg">
<g id="Trait Icon">
<path id="Vector" d="M27.249 8.40896C27.0374 7.96594 26.5068 7.7783 26.0638 7.98985C25.9727 8.03333 25.8897 8.09201 25.8183 8.16335L21.5257 12.4568L19.5464 12.4517L19.5412 10.4733L23.8356 6.18061C24.1827 5.8334 24.1826 5.27057 23.8354 4.92349C23.764 4.85214 23.681 4.79346 23.5899 4.74998C22.5518 4.25697 21.417 4.0008 20.2677 4C16.0032 3.99928 12.5454 7.45583 12.5447 11.7204C12.5446 12.445 12.6465 13.1661 12.8474 13.8623L5.06583 21.6447C3.64472 23.0688 3.64472 25.3745 5.06583 26.7985L5.19917 26.9319C5.88094 27.6178 6.80885 28.0024 7.77598 28C8.74201 27.9975 9.6681 27.6142 10.3533 26.9333L18.1366 19.1518C22.2349 20.3338 26.5154 17.9698 27.6975 13.8715C28.2208 12.0571 28.0613 10.1137 27.249 8.40896ZM7.83411 25.0537C7.34317 25.0537 6.94519 24.6557 6.94519 24.1647C6.94519 23.6738 7.34317 23.2758 7.83411 23.2758C8.32505 23.2758 8.72303 23.6738 8.72303 24.1647C8.72333 24.6554 8.32582 25.0534 7.83518 25.0537C7.83482 25.0537 7.83447 25.0537 7.83411 25.0537Z" fill="#E6EFF7"/>
</g>
</svg>
