<svg width="32" height="32" viewBox="0 0 32 32" fill="none" xmlns="http://www.w3.org/2000/svg">
<g id="Trait Icon">
<path id="Vector" d="M26.6257 5.05484C19.3345 2.3141 12.1817 2.3141 5.3628 5.06059C5.14398 5.14676 5 5.35935 5 5.59494V15.9112C5 27.6727 15.8272 28.9828 15.9367 28.9942C15.9597 29 15.977 29 16 29C16.023 29 16.0403 29 16.0633 28.9942C16.1728 28.9828 27 27.6727 27 15.9112V5.59494C27 5.35363 26.8503 5.141 26.6257 5.05484ZM8.51884 10.0102C8.51884 8.56805 9.6937 7.39018 11.145 7.39018C12.5906 7.39018 13.7654 8.56805 13.7654 10.0102C13.7654 11.4524 12.5906 12.6303 11.145 12.6303C9.6937 12.6303 8.51884 11.4524 8.51884 10.0102ZM16 22.4843C12.5099 22.4843 9.72826 19.1575 9.72826 17.8532C9.72826 17.5544 9.84345 17.2959 10.0565 17.1293C10.5288 16.75 11.2429 16.8994 12.4235 17.1522C13.4199 17.3648 14.6523 17.6349 16 17.6349C17.3476 17.6349 18.5859 17.3648 19.5765 17.1522C20.7571 16.8994 21.4712 16.75 21.9435 17.1293C22.1566 17.2959 22.2717 17.5544 22.2717 17.8532C22.2717 19.1575 19.4901 22.4843 16 22.4843ZM20.855 12.6303C19.4094 12.6303 18.2346 11.4524 18.2346 10.0102C18.2346 8.56805 19.4094 7.39018 20.855 7.39018C22.3063 7.39018 23.4812 8.56805 23.4812 10.0102C23.4812 11.4524 22.3063 12.6303 20.855 12.6303Z" fill="#E6EFF7"/>
</g>
</svg>
