<svg width="32" height="32" viewBox="0 0 32 32" fill="none" xmlns="http://www.w3.org/2000/svg">
<g id="Trait Icon">
<path id="Vector" d="M28.8872 12.1115L23.8653 6.17303C23.7725 6.06179 23.6362 6 23.4938 6H19.0385C18.7691 6 18.5524 6.21628 18.5524 6.48509C18.5524 7.88475 17.41 9.03105 16.0012 9.03105C14.5925 9.03105 13.4469 7.88784 13.4469 6.48818C13.4469 6.21937 13.2333 6.00309 12.967 6.00309H8.50554C8.36312 6.00309 8.22999 6.06488 8.13401 6.17612L3.10903 12.1115C3.03163 12.2104 2.99447 12.3402 3.00066 12.4669C3.01305 12.5966 3.07188 12.711 3.17405 12.7975L6.73767 15.7853C6.93582 15.9583 7.23924 15.9336 7.41572 15.7296L8.3817 14.6235L8.01946 25.5025C8.01946 25.6354 8.06899 25.7652 8.15878 25.8579C8.24857 25.9506 8.37551 26 8.50554 26H23.4938C23.6269 26 23.7508 25.9475 23.8375 25.8579C23.9273 25.7652 23.983 25.6354 23.9768 25.5026L23.6176 14.6235L24.5836 15.7327C24.7601 15.9336 25.0666 15.9583 25.2679 15.7884L28.8284 12.8006C28.9244 12.714 28.9925 12.5997 28.9987 12.47C29.008 12.3402 28.9677 12.2104 28.8872 12.1115Z" fill="#E6EFF7"/>
</g>
</svg>
