<svg width="39" height="45" viewBox="0 0 39 45" fill="none" xmlns="http://www.w3.org/2000/svg">
<path fill-rule="evenodd" clip-rule="evenodd" d="M15.0452 3.17988C12.4328 4.54824 10.2956 5.70614 10.2961 5.75324C10.2972 5.87479 16.5657 9.06701 16.7882 9.05922C16.8894 9.05582 17.6236 8.71598 18.4196 8.30412L19.8672 7.55543L21.4482 8.37258L23.0291 9.18988L25.6181 8.02007C29.5192 6.25735 29.9244 6.06419 29.8608 5.99929C29.7766 5.91319 28.3773 5.15732 24.5811 3.14763C22.7464 2.17633 20.9657 1.22399 20.6238 1.03129C20.282 0.838584 19.9557 0.683566 19.8987 0.686566C19.8417 0.689567 17.6575 1.81157 15.0452 3.17988ZM3.58758 9.14594L0.868187 10.5584V16.7574C0.868187 20.1669 0.903896 22.9563 0.947696 22.9563C0.991345 22.9563 2.32929 22.3731 3.92084 21.6603L6.81457 20.3644V13.8302L8.22863 14.6049C9.31829 15.2013 10.4086 15.7965 11.4996 16.3905L13.3564 17.4014L14.1827 17.0257C14.7008 16.7897 15.218 16.5514 15.7341 16.3108C16.1329 16.1241 17.1119 15.6807 17.9096 15.3254C18.7072 14.9698 19.4456 14.6124 19.5503 14.5309C19.6894 14.4227 17.9934 13.4802 13.2774 11.045C9.72246 9.20936 6.69986 7.71329 6.56046 7.72046C6.42107 7.72763 5.08328 8.36902 3.58758 9.14594ZM30.3509 9.54259C28.4989 10.3833 26.9822 11.1048 26.9805 11.146C26.9789 11.1871 27.9883 11.7906 29.2239 12.487C30.4593 13.1835 31.4701 13.7906 31.4701 13.8363C31.4701 13.8819 30.3769 14.4146 29.0409 15.0202C27.7046 15.6257 24.3273 17.1594 21.5354 18.4285L12.1808 22.6804C9.82761 23.75 7.70651 24.7142 7.46723 24.8232C2.66078 27.0111 1.33968 27.6182 1.15825 27.7224C0.975818 27.8273 0.934495 28.4368 0.902024 31.4962L0.863281 35.145L3.29508 36.3909L5.72683 37.6368L9.09883 36.1066C10.9535 35.265 12.4708 34.5323 12.4708 34.4784C12.4708 34.4246 12.1281 34.2 11.7094 33.9792C11.2905 33.7584 10.4259 33.2695 9.78771 32.8927C9.14961 32.5157 8.51334 32.1699 8.37364 32.1241C8.23399 32.0783 8.12176 31.9983 8.12404 31.9462C8.12636 31.8941 9.61124 31.1849 11.4236 30.37C14.9437 28.7874 17.6375 27.5677 23.4208 24.9378C26.0069 23.7621 28.5933 22.5871 31.1801 21.4128C33.4535 20.3809 36.0967 19.1758 37.0539 18.7348L38.7943 17.9329L38.833 14.2425L38.8719 10.5523L36.4055 9.27929C35.0488 8.57922 33.8893 8.00812 33.8285 8.01021C33.7678 8.01214 32.2029 8.70163 30.3509 9.54259ZM38.1335 22.856C37.7701 23.0346 37.0522 23.3688 36.5382 23.5987C36.0242 23.8287 35.0488 24.2712 34.3708 24.5823L33.138 25.1477L33.1099 28.3875C33.0944 30.1694 33.0291 31.6193 32.9649 31.6099C32.819 31.5881 30.5084 30.3966 28.1859 29.1452C26.5096 28.2421 26.4043 28.2061 26.0104 28.4023C25.7827 28.5158 24.4216 29.1296 22.9857 29.7666C21.5499 30.4035 20.3283 30.9662 20.2709 31.0172C20.2135 31.068 23.1033 32.643 26.6928 34.5172L33.2188 37.9249L36.0066 36.4748C37.5398 35.6773 38.8435 34.9499 38.9035 34.8584C39.0387 34.6527 39.0271 22.5032 38.8918 22.5197C38.8383 22.5261 38.497 22.6775 38.1335 22.856ZM22.6957 37.1164C22.2121 37.3255 21.7287 37.5348 21.2453 37.7445C19.7859 38.3794 20.0719 38.4005 18.3355 37.5313C17.1791 36.9524 16.6806 36.7738 16.4642 36.8605C16.3019 36.9255 14.9051 37.5574 13.3599 38.2647C11.8148 38.972 10.4971 39.5507 10.4315 39.5507C9.78326 39.5507 10.861 40.1982 15.0197 42.3076L19.8968 44.7812L21.9489 43.7625C23.0775 43.2022 25.354 42.0802 27.0078 41.2692C28.6614 40.458 29.994 39.7733 29.9691 39.7475C29.9439 39.7217 28.5583 39.0063 26.8897 38.1575L23.8559 36.6146L22.6957 37.1164Z" fill="white"/>
</svg>
