<svg width="25" height="24" viewBox="0 0 25 24" fill="none" xmlns="http://www.w3.org/2000/svg">
<g clip-path="url(#clip0_1339_2441)">
<g clip-path="url(#clip1_1339_2441)">
<path d="M12.5 16C11.7089 16 10.9355 15.7654 10.2777 15.3259C9.61992 14.8864 9.10723 14.2616 8.80448 13.5307C8.50173 12.7998 8.42252 11.9956 8.57686 11.2196C8.7312 10.4437 9.11216 9.73099 9.67157 9.17158C10.231 8.61217 10.9437 8.2312 11.7196 8.07686C12.4956 7.92252 13.2998 8.00173 14.0307 8.30448C14.7616 8.60723 15.3864 9.11993 15.8259 9.77772C16.2654 10.4355 16.5 11.2089 16.5 12C16.5 13.0609 16.0786 14.0783 15.3284 14.8284C14.5783 15.5786 13.5609 16 12.5 16ZM6.183 16H1.5C1.23478 16 0.98043 15.8946 0.792893 15.7071C0.605357 15.5196 0.5 15.2652 0.5 15C0.509476 13.5641 1.03172 12.1789 1.97256 11.0941C2.91339 10.0093 4.21087 9.29643 5.631 9.084C5.79602 9.06088 5.9642 9.07937 6.12027 9.13777C6.27633 9.19618 6.41532 9.29266 6.52461 9.41845C6.6339 9.54423 6.71003 9.69533 6.74607 9.85802C6.78212 10.0207 6.77694 10.1898 6.731 10.35C6.57776 10.8866 6.50001 11.4419 6.5 12C6.50029 12.8898 6.70056 13.7681 7.086 14.57C7.1585 14.7222 7.19133 14.8903 7.18146 15.0586C7.17158 15.2269 7.11931 15.39 7.0295 15.5327C6.9397 15.6754 6.81528 15.793 6.66781 15.8747C6.52033 15.9564 6.35459 15.9995 6.186 16H6.183ZM17.5 24H7.5C7.23478 24 6.98043 23.8946 6.79289 23.7071C6.60536 23.5196 6.5 23.2652 6.5 23C6.5 21.4087 7.13214 19.8826 8.25736 18.7574C9.38258 17.6321 10.9087 17 12.5 17C14.0913 17 15.6174 17.6321 16.7426 18.7574C17.8679 19.8826 18.5 21.4087 18.5 23C18.5 23.2652 18.3946 23.5196 18.2071 23.7071C18.0196 23.8946 17.7652 24 17.5 24ZM18.5 8C17.7089 8 16.9355 7.76541 16.2777 7.32588C15.6199 6.88636 15.1072 6.26164 14.8045 5.53074C14.5017 4.79983 14.4225 3.99557 14.5769 3.21964C14.7312 2.44372 15.1122 1.73098 15.6716 1.17157C16.231 0.612165 16.9437 0.231202 17.7196 0.0768607C18.4956 -0.0774802 19.2998 0.00173312 20.0307 0.304484C20.7616 0.607234 21.3864 1.11992 21.8259 1.77772C22.2654 2.43552 22.5 3.20888 22.5 4C22.5 5.06087 22.0786 6.07828 21.3284 6.82843C20.5783 7.57858 19.5609 8 18.5 8ZM6.5 8C5.70887 8 4.93552 7.76541 4.27772 7.32588C3.61992 6.88636 3.10723 6.26164 2.80448 5.53074C2.50173 4.79983 2.42252 3.99557 2.57686 3.21964C2.7312 2.44372 3.11216 1.73098 3.67157 1.17157C4.23098 0.612165 4.94371 0.231202 5.71964 0.0768607C6.49556 -0.0774802 7.29983 0.00173312 8.03073 0.304484C8.76164 0.607234 9.38635 1.11992 9.82588 1.77772C10.2654 2.43552 10.5 3.20888 10.5 4C10.5 5.06087 10.0786 6.07828 9.32843 6.82843C8.57828 7.57858 7.56087 8 6.5 8ZM23.5 16H18.817C18.6484 15.9995 18.4827 15.9564 18.3352 15.8747C18.1877 15.793 18.0633 15.6754 17.9735 15.5327C17.8837 15.39 17.8314 15.2269 17.8215 15.0586C17.8117 14.8903 17.8445 14.7222 17.917 14.57C18.3014 13.7678 18.5006 12.8895 18.5 12C18.4984 11.4417 18.4189 10.8864 18.264 10.35C18.2178 10.1894 18.2126 10.0197 18.2489 9.85656C18.2851 9.6934 18.3617 9.54193 18.4717 9.41601C18.5816 9.29008 18.7213 9.19372 18.878 9.13572C19.0348 9.07772 19.2036 9.05994 19.369 9.084C20.7891 9.29643 22.0866 10.0093 23.0274 11.0941C23.9683 12.1789 24.4905 13.5641 24.5 15C24.5 15.2652 24.3946 15.5196 24.2071 15.7071C24.0196 15.8946 23.7652 16 23.5 16Z" fill="white"/>
</g>
</g>
<defs>
<clipPath id="clip0_1339_2441">
<rect width="24" height="24" fill="white" transform="translate(0.5)"/>
</clipPath>
<clipPath id="clip1_1339_2441">
<rect width="24" height="24" fill="white" transform="translate(0.5)"/>
</clipPath>
</defs>
</svg>
