<svg width="25" height="24" viewBox="0 0 25 24" fill="none" xmlns="http://www.w3.org/2000/svg">
<g clip-path="url(#clip0_1339_2439)">
<g clip-path="url(#clip1_1339_2439)">
<path d="M3.25077 15H0.499773V14C0.484635 12.5979 0.855967 11.2187 1.57303 10.0137C2.2901 8.80869 3.3252 7.82447 4.56477 7.169C5.78591 6.56691 7.10842 6.19728 8.46477 6.079C7.87211 6.81233 7.27777 7.59167 6.68177 8.417C5.33939 10.5019 4.19092 12.7055 3.25077 15ZM16.0828 17.813C13.9981 19.1571 11.7945 20.3073 9.49977 21.249V24H10.4998C11.9019 24.0151 13.2811 23.6438 14.4861 22.9267C15.6911 22.2097 16.6753 21.1746 17.3308 19.935C17.9329 18.7139 18.3025 17.3914 18.4208 16.035C17.6908 16.625 16.9114 17.2177 16.0828 17.813ZM24.4998 2.991C24.3668 7.344 21.2328 11.661 14.9178 16.191C13.1993 17.305 11.3863 18.2661 9.49977 19.063V18.5C9.49531 17.5731 9.12512 16.6855 8.46971 16.0301C7.8143 15.3747 6.92665 15.0045 5.99977 15H5.43677C6.23467 13.1135 7.19705 11.3008 8.31277 9.583C12.8318 3.278 17.1418 0.144 21.4878 0C23.6538 0 24.4998 0.885 24.4998 2.991ZM18.4998 8.5C18.4998 7.83696 18.2364 7.20108 17.7675 6.73223C17.2987 6.26339 16.6628 6 15.9998 6C15.3367 6 14.7008 6.26339 14.232 6.73223C13.7632 7.20108 13.4998 7.83696 13.4998 8.5C13.4998 9.16304 13.7632 9.79893 14.232 10.2678C14.7008 10.7366 15.3367 11 15.9998 11C16.6628 11 17.2987 10.7366 17.7675 10.2678C18.2364 9.79893 18.4998 9.16304 18.4998 8.5ZM1.87377 23.785C2.99977 23.585 5.71477 23.027 6.62177 22.121C6.90037 21.8424 7.12137 21.5117 7.27215 21.1476C7.42292 20.7836 7.50053 20.3935 7.50053 19.9995C7.50053 19.6055 7.42292 19.2154 7.27215 18.8514C7.12137 18.4873 6.90037 18.1566 6.62177 17.878C6.34317 17.5994 6.01243 17.3784 5.64842 17.2276C5.28441 17.0769 4.89427 16.9992 4.50027 16.9992C3.70456 16.9992 2.94143 17.3153 2.37877 17.878C1.47277 18.785 0.913774 21.5 0.714773 22.626L0.467773 24.032L1.87377 23.785Z" fill="white"/>
</g>
</g>
<defs>
<clipPath id="clip0_1339_2439">
<rect width="24" height="24" fill="white" transform="translate(0.5)"/>
</clipPath>
<clipPath id="clip1_1339_2439">
<rect width="24" height="24" fill="white" transform="translate(0.5)"/>
</clipPath>
</defs>
</svg>
