<svg width="25" height="24" viewBox="0 0 25 24" fill="none" xmlns="http://www.w3.org/2000/svg">
<path fill-rule="evenodd" clip-rule="evenodd" d="M3.69805 9.90063L8.10889 6.04019C8.04777 5.87322 8.01444 5.69294 8.01444 5.50483C8.01444 4.64477 8.71166 3.94759 9.57168 3.94759C10.4153 3.94759 11.1021 4.61838 11.1282 5.45566L14.6143 6.67619C14.9 6.34089 15.3252 6.12822 15.8001 6.12822C16.0681 6.12822 16.3203 6.19591 16.5404 6.31511L20.5595 2.88128C20.5025 2.71938 20.4713 2.54528 20.4713 2.36388C20.4713 1.50386 21.1686 0.806641 22.0286 0.806641C22.8887 0.806641 23.5859 1.50386 23.5859 2.36388C23.5859 3.22398 22.8887 3.9212 22.0286 3.9212C21.7606 3.9212 21.5084 3.85352 21.2883 3.73431L17.2693 7.16814C17.3263 7.33005 17.3574 7.50414 17.3574 7.68555C17.3574 8.54556 16.6602 9.24278 15.8001 9.24278C14.9565 9.24278 14.2697 8.572 14.2437 7.73477L10.7575 6.51424C10.4719 6.84953 10.0467 7.0622 9.57168 7.0622C9.31016 7.0622 9.06379 6.99766 8.84741 6.88375L4.43657 10.7442C4.49769 10.9111 4.53102 11.0914 4.53102 11.2795C4.53102 12.1397 3.8338 12.8368 2.97369 12.8368C2.11372 12.8367 1.4165 12.1396 1.4165 11.2795C1.4165 10.4193 2.11372 9.72222 2.97374 9.72222C3.23525 9.72222 3.48168 9.78672 3.69805 9.90063ZM20.8439 6.99653C20.4567 6.99653 20.1408 7.31238 20.1408 7.69966V22.0494C20.1408 22.4367 20.4567 22.7525 20.8439 22.7525H23.2134C23.6007 22.7525 23.9166 22.4367 23.9166 22.0494V7.69966C23.9166 7.31238 23.6008 6.99653 23.2134 6.99653H20.8439ZM14.6154 12.7308C14.2281 12.7308 13.9123 13.0466 13.9123 13.4339V22.1964C13.9123 22.5837 14.2282 22.8995 14.6154 22.8995H16.985C17.3722 22.8995 17.688 22.5837 17.688 22.1964C17.688 19.2756 17.688 16.3548 17.688 13.4339C17.688 13.0466 17.3722 12.7308 16.985 12.7308C16.1951 12.7308 15.4053 12.7308 14.6154 12.7308ZM8.387 10.6721C7.99968 10.6721 7.68383 10.988 7.68383 11.3753V22.3434C7.68383 22.7307 7.99963 23.0465 8.387 23.0465H10.7564C11.1437 23.0465 11.4596 22.7307 11.4596 22.3434V11.3753C11.4596 10.988 11.1437 10.6721 10.7564 10.6721H8.387ZM2.15854 16.7245H4.52793C4.91521 16.7245 5.2311 17.0403 5.2311 17.4276V22.4904C5.2311 22.8776 4.91521 23.1935 4.52793 23.1935H2.15854C1.77125 23.1935 1.45536 22.8776 1.45536 22.4904V17.4276C1.45541 17.0403 1.7713 16.7245 2.15854 16.7245Z" fill="white"/>
</svg>
