<svg width="25" height="24" viewBox="0 0 25 24" fill="none" xmlns="http://www.w3.org/2000/svg">
<g clip-path="url(#clip0_1339_2440)">
<g clip-path="url(#clip1_1339_2440)">
<path d="M19.9999 23.9999C19.8 24 19.6047 23.9403 19.4391 23.8284C19.2735 23.7164 19.1452 23.5574 19.0709 23.3719L18.2269 21.2589L16.1109 20.3679C15.9294 20.2877 15.7756 20.1557 15.6688 19.9885C15.5621 19.8212 15.5071 19.6261 15.5109 19.4278C15.5146 19.2294 15.5769 19.0365 15.6899 18.8734C15.8028 18.7103 15.9615 18.5842 16.1459 18.5109L18.2339 17.7199L19.0709 15.6279C19.1478 15.4451 19.2771 15.289 19.4423 15.1793C19.6076 15.0696 19.8015 15.0111 19.9999 15.0111C20.1982 15.0111 20.3922 15.0696 20.5574 15.1793C20.7227 15.289 20.8519 15.4451 20.9289 15.6279L21.7699 17.7279L23.8699 18.5689C24.0531 18.6455 24.2095 18.7746 24.3195 18.9399C24.4296 19.1052 24.4883 19.2993 24.4883 19.4979C24.4883 19.6965 24.4296 19.8906 24.3195 20.0559C24.2095 20.2212 24.0531 20.3503 23.8699 20.4269L21.7699 21.2679L20.9289 23.3679C20.8551 23.5542 20.7272 23.714 20.5615 23.8267C20.3959 23.9394 20.2002 23.9997 19.9999 23.9999ZM10.4999 20.9999C10.0678 21.0051 9.64575 20.8702 9.29676 20.6155C8.94777 20.3608 8.69064 19.9999 8.56387 19.5869L6.94987 14.5399L1.88687 12.8459C1.47823 12.7093 1.12358 12.4464 0.874154 12.0951C0.624723 11.7437 0.49342 11.3222 0.499207 10.8914C0.504994 10.4606 0.647573 10.0428 0.90635 9.69826C1.16513 9.35377 1.52671 9.10045 1.93887 8.9749L6.96187 7.4409L8.65387 2.3869C8.77967 1.97177 9.03989 1.61023 9.39361 1.35915C9.74733 1.10807 10.1745 0.981695 10.6079 0.999895C11.04 1.00048 11.4603 1.14099 11.8058 1.40039C12.1514 1.6598 12.4037 2.02414 12.5249 2.43889L14.0569 7.4539L19.0869 9.0639C19.4926 9.19998 19.8453 9.46008 20.0952 9.80747C20.3451 10.1549 20.4795 10.572 20.4795 10.9999C20.4795 11.4278 20.3451 11.8449 20.0952 12.1923C19.8453 12.5397 19.4926 12.7998 19.0869 12.9359L14.0479 14.5479L12.4359 19.5869C12.3091 19.9999 12.052 20.3608 11.703 20.6155C11.354 20.8702 10.9319 21.0051 10.4999 20.9999ZM20.9999 6.9999C20.7769 6.99989 20.5604 6.92539 20.3847 6.78824C20.2089 6.65109 20.084 6.45914 20.0299 6.2429L19.6729 4.8129L18.2399 4.4279C18.0245 4.37003 17.8346 4.24182 17.7005 4.06366C17.5663 3.8855 17.4956 3.66761 17.4995 3.44462C17.5034 3.22164 17.5817 3.00636 17.722 2.833C17.8624 2.65965 18.0566 2.53818 18.2739 2.4879L19.6739 2.1629L20.0299 0.756895C20.0841 0.540668 20.2089 0.348747 20.3847 0.211614C20.5604 0.0744812 20.777 0 20.9999 0C21.2228 0 21.4393 0.0744812 21.615 0.211614C21.7908 0.348747 21.9157 0.540668 21.9699 0.756895L22.3239 2.1749L23.7419 2.5299C23.9581 2.58409 24.15 2.70897 24.2871 2.88471C24.4243 3.06046 24.4988 3.27698 24.4988 3.4999C24.4988 3.72281 24.4243 3.93933 24.2871 4.11508C24.15 4.29082 23.9581 4.4157 23.7419 4.46989L22.3239 4.82489L21.9699 6.2429C21.9157 6.45914 21.7908 6.65109 21.6151 6.78824C21.4393 6.92539 21.2228 6.99989 20.9999 6.9999Z" fill="white"/>
</g>
</g>
<defs>
<clipPath id="clip0_1339_2440">
<rect width="24" height="24" fill="white" transform="translate(0.5)"/>
</clipPath>
<clipPath id="clip1_1339_2440">
<rect width="24" height="24" fill="white" transform="translate(0.5)"/>
</clipPath>
</defs>
</svg>
