<svg width="25" height="24" viewBox="0 0 25 24" fill="none" xmlns="http://www.w3.org/2000/svg">
<g clip-path="url(#clip0_1339_2442)">
<g clip-path="url(#clip1_1339_2442)">
<path d="M19.081 2.14L12.816 0.0509967C12.6109 -0.0173244 12.3891 -0.0173244 12.184 0.0509967L5.919 2.14C4.92291 2.47088 4.05642 3.10725 3.44265 3.95871C2.82887 4.81016 2.49904 5.83338 2.5 6.883V12C2.5 19.563 11.7 23.74 12.094 23.914C12.2218 23.9708 12.3601 24.0001 12.5 24.0001C12.6399 24.0001 12.7782 23.9708 12.906 23.914C13.3 23.74 22.5 19.563 22.5 12V6.883C22.501 5.83338 22.1711 4.81016 21.5574 3.95871C20.9436 3.10725 20.0771 2.47088 19.081 2.14ZM17.218 9.717L12.946 13.989C12.7712 14.165 12.5632 14.3045 12.334 14.3994C12.1048 14.4944 11.8591 14.5428 11.611 14.542H11.578C11.3249 14.5381 11.0752 14.483 10.844 14.3798C10.6128 14.2767 10.405 14.1278 10.233 13.942L7.927 11.542C7.82713 11.4493 7.74725 11.3373 7.69226 11.2126C7.63726 11.088 7.60831 10.9534 7.60718 10.8172C7.60606 10.681 7.63278 10.5459 7.6857 10.4204C7.73863 10.2949 7.81665 10.1815 7.91497 10.0872C8.01329 9.9929 8.12985 9.91969 8.25748 9.87205C8.38511 9.82441 8.52113 9.80336 8.65719 9.81017C8.79325 9.81699 8.92648 9.85154 9.04872 9.91169C9.17095 9.97185 9.2796 10.0563 9.368 10.16L11.612 12.5L15.8 8.3C15.9886 8.11784 16.2412 8.01705 16.5034 8.01932C16.7656 8.0216 17.0164 8.12677 17.2018 8.31218C17.3872 8.49759 17.4924 8.7484 17.4947 9.0106C17.497 9.27279 17.3962 9.5254 17.214 9.714L17.218 9.717Z" fill="white"/>
</g>
</g>
<defs>
<clipPath id="clip0_1339_2442">
<rect width="24" height="24" fill="white" transform="translate(0.5)"/>
</clipPath>
<clipPath id="clip1_1339_2442">
<rect width="24" height="24" fill="white" transform="translate(0.5)"/>
</clipPath>
</defs>
</svg>
