<svg width="24" height="25" viewBox="0 0 24 25" fill="none" xmlns="http://www.w3.org/2000/svg">
<path d="M22.3796 2.2287L1.1204 10.7831C-0.330573 11.3904 -0.321968 12.2347 0.855931 12.6112L6.15805 14.3377L8.18676 20.8266C8.4334 21.5368 8.31182 21.8184 9.02669 21.8184C9.57837 21.8184 9.82311 21.556 10.1304 21.2429C10.3258 21.0434 11.4859 19.8667 12.7813 18.5528L18.2965 22.8039C19.3113 23.388 20.0441 23.0854 20.2969 21.8206L23.9172 4.02246C24.2878 2.47216 23.3506 1.76895 22.3796 2.2287ZM6.99016 13.941L18.9412 6.07493C19.5378 5.69746 20.0848 5.9004 19.6357 6.31633L9.40248 15.9486L9.00403 20.3821L6.99016 13.941Z" fill="white"/>
</svg>
