<svg width="24" height="24" viewBox="0 0 24 24" fill="none" xmlns="http://www.w3.org/2000/svg">
<path d="M18.9822 3C15.9868 3 11.9707 5.05431 9.27277 8.58616H7.03569C5.42002 8.58616 4.49418 9.79277 3.85601 11.0678L3 12.7758H7.03569L9.13033 14.8706L11.225 16.9654V21L12.9328 20.1453C14.2078 19.5085 15.4143 18.5812 15.4143 16.9654V14.7281C18.9458 12.03 21 8.01218 21 5.018V3H18.9822ZM15.4143 7.18962C15.7846 7.18962 16.1398 7.33675 16.4017 7.59866C16.6636 7.86056 16.8107 8.21577 16.8107 8.58616C16.8107 8.95654 16.6636 9.31176 16.4017 9.57366C16.1398 9.83556 15.7846 9.9827 15.4143 9.9827C15.0439 9.9827 14.6887 9.83556 14.4268 9.57366C14.165 9.31176 14.0178 8.95654 14.0178 8.58616C14.0178 8.21577 14.165 7.86056 14.4268 7.59866C14.6887 7.33675 15.0439 7.18962 15.4143 7.18962ZM6.33747 15.5689L5.63926 16.2671C4.63103 17.2754 4.24282 19.7585 4.24282 19.7585C4.24282 19.7585 6.61396 19.482 7.7339 18.3619L8.43212 17.6637L6.33747 15.5689Z" fill="white"/>
</svg>
