<svg width="10" height="9" viewBox="0 0 10 9" fill="none" xmlns="http://www.w3.org/2000/svg">
<path d="M6.66748 4.59631L9.95166 7.45938C9.98289 7.35684 9.99998 7.2481 9.99998 7.1355V1.69092L6.66748 4.59631Z" fill="#6C6C70"/>
<path d="M5.00013 4.93336C5.14091 4.93307 5.27962 4.88469 5.3929 4.78614L9.75771 0.98101C9.55412 0.725623 9.24096 0.561523 8.88895 0.561523H1.11131C0.759305 0.561523 0.446145 0.725603 0.242554 0.98101L4.60736 4.78614C4.72049 4.88469 4.85935 4.93307 5.00013 4.93336Z" fill="#6C6C70"/>
<path d="M0.00012207 1.69092V7.1355C0.00012207 7.2481 0.0172117 7.35684 0.0484223 7.45938L3.3326 4.59616L0.00012207 1.69092Z" fill="#6C6C70"/>
<path d="M5.84914 5.30984C5.60633 5.52158 5.30227 5.62825 5.00005 5.62796C4.69782 5.62825 4.39361 5.52144 4.15096 5.30984L3.86102 5.05713L0.452271 8.02879C0.63678 8.16508 0.864219 8.24674 1.11123 8.24674H8.88886C9.13587 8.24674 9.36329 8.16508 9.5478 8.02879L6.13906 5.05713L5.84914 5.30984Z" fill="#6C6C70"/>
</svg>
