<svg width="10" height="10" viewBox="0 0 10 10" fill="none" xmlns="http://www.w3.org/2000/svg">
<path d="M9.43623 9.354L6.23622 4.23327L9.3938 0.696436C9.46521 0.614469 9.50202 0.507144 9.49624 0.39773C9.49046 0.288315 9.44256 0.185631 9.36292 0.111938C9.28328 0.038245 9.17833 -0.000516258 9.07081 0.00405776C8.96329 0.00863178 8.86188 0.0561723 8.78856 0.136372L5.78076 3.50508L3.71097 0.193107C3.67407 0.133954 3.62309 0.0852435 3.56278 0.0514873C3.50246 0.0177311 3.43475 2.17208e-05 3.36592 4.9258e-08H0.912244C0.838921 -3.62602e-05 0.766936 0.0200016 0.703829 0.0580154C0.640721 0.0960292 0.588811 0.150621 0.553535 0.216073C0.51826 0.281526 0.500915 0.355432 0.503319 0.430052C0.505722 0.504673 0.527784 0.577263 0.567196 0.640222L3.7672 5.76043L0.609624 9.29987C0.572751 9.3402 0.544105 9.38758 0.525349 9.43927C0.506592 9.49096 0.498097 9.54592 0.500356 9.60098C0.502616 9.65603 0.515584 9.71008 0.538509 9.76C0.561435 9.80991 0.593861 9.8547 0.63391 9.89176C0.673959 9.92882 0.720834 9.95741 0.771817 9.97589C0.8228 9.99437 0.876877 10.0024 0.930916 9.9994C0.984954 9.99644 1.03788 9.98259 1.08662 9.95865C1.13536 9.93471 1.17895 9.90115 1.21486 9.85993L4.22267 6.49122L6.29245 9.8032C6.32966 9.86187 6.38076 9.91007 6.44106 9.94336C6.50136 9.97665 6.56891 9.99396 6.6375 9.9937H9.09118C9.16442 9.99368 9.23632 9.97363 9.29935 9.93564C9.36238 9.89765 9.41424 9.84312 9.4495 9.77775C9.48476 9.71238 9.50213 9.63857 9.49979 9.56403C9.49746 9.48949 9.47551 9.41695 9.43623 9.354ZM6.86191 9.16089L1.65704 0.832809H3.13947L8.34639 9.16089H6.86191Z" fill="#6C6C70"/>
</svg>
