<svg width="12" height="11" viewBox="0 0 12 11" fill="none" xmlns="http://www.w3.org/2000/svg">
<path fill-rule="evenodd" clip-rule="evenodd" d="M0.821624 4.81292C4.04219 3.40613 6.18616 2.47136 7.26275 2.01785C10.3269 0.73138 10.971 0.509255 11.3851 0.5C11.4771 0.5 11.6795 0.518511 11.8175 0.629573C11.928 0.722125 11.9556 0.842442 11.974 0.934994C11.9924 1.02755 12.0108 1.2219 11.9924 1.36999C11.8267 3.12847 11.109 7.39511 10.741 9.35721C10.5845 10.1902 10.2809 10.4678 9.98643 10.4956C9.34231 10.5511 8.85463 10.0699 8.23812 9.66264C7.26275 9.02403 6.71986 8.62605 5.77209 7.9967C4.6771 7.2748 5.38562 6.87683 6.01133 6.22896C6.17696 6.06237 9.00185 3.47092 9.05707 3.23954C9.06627 3.21177 9.06627 3.10071 9.00185 3.04518C8.93744 2.98965 8.84543 3.00816 8.77181 3.02667C8.6706 3.04518 7.12473 4.08176 4.1158 6.12715C3.67412 6.43258 3.27845 6.58066 2.91959 6.5714C2.52392 6.56215 1.76939 6.34928 1.19889 6.16417C0.50877 5.94205 -0.043327 5.82173 0.00268109 5.43302C0.0302859 5.2294 0.306334 5.02579 0.821624 4.81292Z" fill="#6C6C70"/>
</svg>
