<svg width="20" height="24" viewBox="0 0 20 24" fill="none" xmlns="http://www.w3.org/2000/svg">
<g clip-path="url(#clip0_22_1291)">
<path d="M9.62091 24.0004C9.80615 24.0004 10.1072 23.9309 10.3966 23.7689C16.9842 20.0757 19.2418 18.5127 19.2418 14.287V5.43023C19.2418 4.2146 18.7208 3.83254 17.7367 3.41576C16.3706 2.84846 11.9596 1.26235 10.5934 0.787675C10.2808 0.683479 9.94508 0.614014 9.62091 0.614014C9.29675 0.614014 8.961 0.706633 8.65999 0.787675C7.29385 1.18131 2.87127 2.86004 1.50513 3.41576C0.532624 3.82097 6.10352e-05 4.2146 6.10352e-05 5.43023V14.287C6.10352e-05 18.5127 2.26924 20.0641 8.84523 23.7689C9.14624 23.9309 9.43567 24.0004 9.62091 24.0004ZM9.62091 21.905C9.43567 21.905 9.25043 21.8355 8.90312 21.6271C3.55434 18.3854 1.84087 17.436 1.84087 13.8587V5.78913C1.84087 5.3955 1.91034 5.245 2.23451 5.11765C3.99428 4.423 7.40963 3.27682 9.15782 2.58217C9.34306 2.50114 9.49356 2.47798 9.62091 2.47798C9.74827 2.47798 9.89878 2.51271 10.084 2.58217C11.8322 3.27682 15.2244 4.50404 17.0189 5.11765C17.3314 5.23341 17.4009 5.3955 17.4009 5.78913V13.8587C17.4009 17.436 15.6875 18.3738 10.3387 21.6271C10.003 21.8355 9.80615 21.905 9.62091 21.905Z" fill="url(#paint0_linear_22_1291)"/>
<path d="M4.24909 8.70575C3.87861 9.41197 3.98281 9.75929 4.64273 10.1066L7.54867 11.6927L4.61956 13.3946C3.95965 13.7767 3.86704 14.1124 4.26067 14.8186L4.2954 14.865C4.67745 15.5712 5.03636 15.6638 5.69627 15.2586L8.50958 13.6377V16.8909C8.50958 17.6666 8.77587 17.9214 9.59787 17.9214H9.66734C10.4662 17.9214 10.7325 17.6666 10.7325 16.8909V13.6377L13.5458 15.2586C14.2404 15.6869 14.5878 15.5827 14.9582 14.865L14.9814 14.8186C15.3403 14.1008 15.2592 13.7536 14.6225 13.3946L11.6934 11.6927L14.6109 10.1066C15.2709 9.75929 15.3635 9.41197 14.993 8.70575L14.9582 8.6247C14.5994 7.89533 14.2404 7.79113 13.5226 8.23107L10.7325 9.85192V6.59866C10.7325 5.83455 10.4662 5.57983 9.66734 5.57983H9.59787C8.77587 5.57983 8.50958 5.83455 8.50958 6.59866V9.85192L5.71943 8.23107C5.00162 7.81429 4.64273 7.9069 4.2954 8.6247L4.24909 8.70575Z" fill="url(#paint1_linear_22_1291)"/>
</g>
<defs>
<linearGradient id="paint0_linear_22_1291" x1="-7.33662" y1="24.0004" x2="35.2161" y2="24.0004" gradientUnits="userSpaceOnUse">
<stop stop-color="#F0F0F0" stop-opacity="0"/>
<stop offset="1" stop-color="#F0F0F0"/>
</linearGradient>
<linearGradient id="paint1_linear_22_1291" x1="-0.236871" y1="17.9214" x2="24.4924" y2="17.9214" gradientUnits="userSpaceOnUse">
<stop stop-color="#F0F0F0" stop-opacity="0"/>
<stop offset="1" stop-color="#F0F0F0"/>
</linearGradient>
<clipPath id="clip0_22_1291">
<rect width="19.6701" height="24" fill="white"/>
</clipPath>
</defs>
</svg>
