<svg width="10" height="12" viewBox="0 0 10 12" fill="none" xmlns="http://www.w3.org/2000/svg">
<path d="M0.865318 5.99654C0.865318 5.82383 0.934433 5.66494 1.06573 5.54058L6.53719 0.17962C6.66155 0.0621761 6.81354 0 6.99316 0C7.34548 0 7.62183 0.26943 7.62183 0.62867C7.62183 0.80138 7.55274 0.960275 7.4422 1.07772L2.41285 5.99654L7.4422 10.9154C7.55274 11.0328 7.62183 11.1848 7.62183 11.3645C7.62183 11.7237 7.34548 11.9931 6.99316 11.9931C6.81354 11.9931 6.66155 11.9309 6.53719 11.8066L1.06573 6.4525C0.934433 6.32124 0.865318 6.16925 0.865318 5.99654Z" fill="#F0F0F0"/>
</svg>
