<svg width="10" height="12" viewBox="0 0 10 12" fill="none" xmlns="http://www.w3.org/2000/svg">
<path d="M9.13468 5.99654C9.13468 5.82383 9.06557 5.66494 8.93427 5.54058L3.46281 0.17962C3.33845 0.0621761 3.18646 0 3.00684 0C2.65452 0 2.37817 0.26943 2.37817 0.62867C2.37817 0.80138 2.44726 0.960275 2.5578 1.07772L7.58715 5.99654L2.5578 10.9154C2.44726 11.0328 2.37817 11.1848 2.37817 11.3645C2.37817 11.7237 2.65452 11.9931 3.00684 11.9931C3.18646 11.9931 3.33845 11.9309 3.46281 11.8066L8.93427 6.4525C9.06557 6.32124 9.13468 6.16925 9.13468 5.99654Z" fill="#F0F0F0"/>
</svg>
