<svg width="7" height="11" viewBox="0 0 7 11" fill="none" xmlns="http://www.w3.org/2000/svg">
<g clip-path="url(#clip0_16_448)">
<path d="M6.94561 5.49715C6.94561 5.35322 6.88801 5.22081 6.7786 5.11718L2.21905 0.649714C2.11541 0.551844 1.98876 0.500031 1.83908 0.500031C1.54547 0.500031 1.31519 0.724555 1.31519 1.02392C1.31519 1.16785 1.37276 1.30026 1.46487 1.39813L5.656 5.49715L1.46487 9.59618C1.37276 9.69404 1.31519 9.82067 1.31519 9.97041C1.31519 10.2698 1.54547 10.4943 1.83908 10.4943C1.98876 10.4943 2.11541 10.4424 2.21905 10.3389L6.7786 5.87711C6.88801 5.76773 6.94561 5.64107 6.94561 5.49715Z" fill="#F0DDFA"/>
</g>
<defs>
<clipPath id="clip0_16_448">
<rect width="6.89122" height="10" fill="white" transform="translate(0.0544434 0.5)"/>
</clipPath>
</defs>
</svg>
