<svg width="30" height="25" viewBox="0 0 30 25" fill="none" xmlns="http://www.w3.org/2000/svg">
<path d="M2.11707 10.9348L2.11706 10.9348C1.47842 11.1986 0.998433 11.4527 0.672367 11.698C0.343181 11.9456 0.196498 12.1649 0.170391 12.3534C0.147422 12.5503 0.198397 12.7067 0.311181 12.8463C0.429264 12.9925 0.619983 13.1257 0.88409 13.2543C1.29327 13.4536 1.83467 13.6227 2.46073 13.8181C2.64917 13.877 2.84529 13.9382 3.04778 14.0034L3.04815 14.0035C3.75905 14.2341 4.58339 14.4817 5.3521 14.6743C6.12453 14.8678 6.82804 15.0024 7.30284 15.0136L7.30323 15.0136C8.15159 15.0354 9.10627 14.6855 10.1957 13.9322L10.1967 13.9314C13.9579 11.3747 16.8052 9.44808 18.7439 8.15481C19.7132 7.50825 20.4562 7.01945 20.973 6.68919C21.2313 6.52418 21.4343 6.39794 21.5814 6.31116C21.6548 6.26787 21.716 6.23341 21.764 6.20859C21.7879 6.19622 21.8102 6.18538 21.8302 6.17682C21.8459 6.17008 21.8685 6.16106 21.8928 6.15578C21.9849 6.13267 22.1043 6.10539 22.2257 6.10539C22.3513 6.10539 22.4924 6.13457 22.6124 6.23797C22.7331 6.34207 22.7844 6.4885 22.805 6.60257C22.8157 6.66161 22.8193 6.71807 22.8184 6.76628C22.8176 6.80827 22.8132 6.85484 22.8014 6.89397C22.7906 6.93442 22.7703 6.973 22.7516 7.00446C22.7301 7.04048 22.7027 7.08018 22.671 7.12243C22.6076 7.20705 22.5211 7.31039 22.4162 7.42851C22.2061 7.66517 21.9149 7.9698 21.5702 8.31811C20.8804 9.01518 19.9703 9.89365 19.0527 10.7659C17.9633 11.8016 16.8662 12.8259 16.1098 13.5322C15.5902 14.0174 15.2313 14.3524 15.1461 14.438C14.9486 14.6424 14.7483 14.8366 14.5557 15.0221C14.5358 15.0413 14.5159 15.0605 14.4961 15.0795C14.3242 15.245 14.1598 15.4033 14.0077 15.5581C13.6658 15.9059 13.4023 16.2202 13.2673 16.5288C13.1372 16.8262 13.1261 17.1176 13.2951 17.4412C13.4703 17.7768 13.8453 18.1585 14.521 18.604L14.5215 18.6043C15.6011 19.3212 16.4662 19.9149 17.3171 20.4989C18.3436 21.2033 19.3493 21.8936 20.6857 22.7685L20.6862 22.7689C21.0034 22.9784 21.3074 23.196 21.6012 23.4061C21.6672 23.4534 21.7327 23.5003 21.7978 23.5466C22.1537 23.8002 22.4958 24.038 22.8384 24.2394C23.5225 24.6415 24.1945 24.8898 24.9514 24.8247C25.5689 24.766 26.3021 24.1792 26.6902 22.1126C26.6902 22.1126 26.6902 22.1126 26.6902 22.1126L26.8524 22.143C27.7726 17.2378 29.5669 6.57118 29.9809 2.17497L2.11707 10.9348ZM2.11707 10.9348L2.12011 10.9335M2.11707 10.9348L2.12011 10.9335M2.12011 10.9335C10.1721 7.41627 15.5307 5.07991 18.2209 3.94669L2.12011 10.9335Z" fill="url(#paint0_linear_22_976)" stroke="url(#paint1_linear_22_976)" stroke-width="0.33"/>
<defs>
<linearGradient id="paint0_linear_22_976" x1="15" y1="-11.4838" x2="15" y2="29.7662" gradientUnits="userSpaceOnUse">
<stop stop-color="#6C6C70"/>
<stop offset="1" stop-color="#6C6C70" stop-opacity="0"/>
</linearGradient>
<linearGradient id="paint1_linear_22_976" x1="15" y1="-28.9838" x2="15" y2="25" gradientUnits="userSpaceOnUse">
<stop stop-color="#F0F0F0"/>
<stop offset="1" stop-color="#F0F0F0" stop-opacity="0"/>
</linearGradient>
</defs>
</svg>
