<svg width="7" height="9" viewBox="0 0 7 9" fill="none" xmlns="http://www.w3.org/2000/svg">
<g clip-path="url(#clip0_16_411)">
<path d="M6.56079 4.49744C6.56079 4.3679 6.50895 4.24873 6.41048 4.15547L2.30688 0.134745C2.21361 0.0466626 2.09963 3.05176e-05 1.96491 3.05176e-05C1.70066 3.05176e-05 1.49341 0.202103 1.49341 0.471533C1.49341 0.601065 1.54522 0.720237 1.62813 0.808322L5.40014 4.49744L1.62813 8.18656C1.54522 8.27464 1.49341 8.3886 1.49341 8.52337C1.49341 8.79279 1.70066 8.99483 1.96491 8.99483C2.09963 8.99483 2.21361 8.9482 2.30688 8.85498L6.41048 4.83941C6.50895 4.74096 6.56079 4.62697 6.56079 4.49744Z" fill="#F0F0F0"/>
</g>
<defs>
<clipPath id="clip0_16_411">
<rect width="6.20209" height="9" fill="white" transform="translate(0.358887)"/>
</clipPath>
</defs>
</svg>
