<svg xmlns="http://www.w3.org/2000/svg" viewBox="0 0 41.67879 41.71142"><defs><style>.cls-1{fill:#f2f2f2;fill-rule:evenodd;}</style></defs><title>Asset 1</title><g id="Layer_2" data-name="Layer 2"><g id="Layer_1-2" data-name="Layer 1"><path class="cls-1" d="M6.078.3441c5.3506-.6367,12.4053-.1948,19.708-.1948,6.2061,0,14.1123-.8667,15.6104,3.7075,1.2988,3.9673-2.2207,8.2021-3.708,10.7314-3.6553,6.2266-6.9356,11.875-10.7315,18.5371-1.375,2.4141-3.625,8.5567-6.0488,8.586-2.4307.0302-4.5674-5.8174-6.0488-8.3907-3.7237-6.4687-6.8828-11.8335-10.5381-18.1469-1.6094-2.7808-4.6514-6.4698-4.292-9.9512C.36814,1.9461,3.24994.6805,6.078.3441ZM4.71184,5.0272c-.3213,2.583,1.5654,4.8379,2.7324,6.8296,3.7901,6.4629,7.3721,12.791,11.1221,19.122V4.6371C14.03414,4.8529,8.61024,4.1771,4.71184,5.0272Zm18.5371-.3901c-.3242,8.3906-.3242,18.1464,0,26.5371,3.6504-6.5127,7.0947-12.8296,10.7324-19.1226,1.2032-2.0806,3.0498-4.0166,3.3174-6.6343C34.02724,3.745,27.77924,5.0506,23.24894,4.6371Z"/></g></g></svg>