<?xml version="1.0" encoding="UTF-8"?>
<svg xmlns="http://www.w3.org/2000/svg" version="1.1" viewBox="0 0 309.98 79.78">
  <!-- Generator: Adobe Illustrator 29.0.1, SVG Export Plug-In . SVG Version: 2.1.0 Build 192)  -->
  <defs>
    <style>
      .st0 {
        fill: #3a3d42;
      }

      .st1 {
        fill: #ced8d7;
        opacity: .5;
      }

      .st1, .st2 {
        mix-blend-mode: screen;
      }

      .st3 {
        fill: #231f20;
      }

      .st2 {
        fill: #71a3a3;
      }

      .st4 {
        fill: #787a7c;
        opacity: .4;
      }

      .st4, .st5 {
        mix-blend-mode: multiply;
      }

      .st6 {
        isolation: isolate;
      }

      .st7 {
        fill: #c4e8e6;
      }

      .st8 {
        fill: #00b8b4;
      }

      .st5 {
        fill: #899b9b;
      }

      .st9 {
        fill: #4e5256;
      }

      .st10 {
        fill: #9cbcbc;
      }
    </style>
  </defs>
  <g class="st6">
    <g id="Layer_1">
      <g>
        <path class="st10" d="M285.96,33.91h-4c-14.76-14.17-67.4-24.67-130.07-24.67S36.59,19.75,21.82,33.91h-.29c-2.12,0-3.84,1.73-3.83,3.85l.02,3.65c-.02.22-.03.49-.03.71,0,18.09,60.08,32.78,134.2,32.78s134.2-14.66,134.2-32.75c0-.07-.09-.14-.1-.2l-.04-.02v-8.01Z"/>
        <path class="st2" d="M82.31,14.14c-4.83.72-9.47,1.5-13.87,2.36v51.31c4.41.86,9.04,1.64,13.87,2.36V14.14Z"/>
        <path class="st5" d="M286,41.95l-.04-.03v-7.86h-4c-10.28-9.88-38.95-17.96-76.58-21.96v60.11c47.5-5.04,80.71-16.6,80.71-30.05,0-.07-.09-.14-.1-.21Z"/>
        <path class="st8" d="M286.11,35.96c0,18.09-60.08,32.76-134.2,32.76S17.71,54.05,17.71,35.96,77.79,3.2,151.91,3.2s134.2,14.67,134.2,32.76Z"/>
        <path class="st7" d="M286.11,35.96c0,18.09-60.08,32.76-134.2,32.76S17.71,54.05,17.71,35.96,77.79,3.2,151.91,3.2s134.2,14.67,134.2,32.76Z"/>
        <ellipse class="st1" cx="151.91" cy="35.69" rx="124.52" ry="30.4"/>
        <g>
          <ellipse class="st3" cx="151.91" cy="34.13" rx="101.3" ry="24.73"/>
          <path class="st3" d="M151.91,59.3c-27.09,0-52.57-2.58-71.73-7.26-19.35-4.72-30.01-11.09-30.01-17.92s10.66-13.19,30.01-17.92c19.17-4.68,44.64-7.26,71.73-7.26s52.57,2.58,71.73,7.26c19.35,4.72,30.01,11.09,30.01,17.92s-10.66,13.19-30.01,17.92c-19.17,4.68-44.64,7.26-71.73,7.26ZM151.91,9.84c-55.61,0-100.86,10.89-100.86,24.29s45.24,24.29,100.86,24.29,100.86-10.89,100.86-24.29-45.24-24.29-100.86-24.29Z"/>
        </g>
        <g>
          <ellipse class="st9" cx="151.91" cy="35.01" rx="97.67" ry="23.84"/>
          <path class="st3" d="M151.91,59.3c-26.12,0-50.69-2.48-69.17-7-18.67-4.56-28.95-10.7-28.95-17.29s10.28-12.73,28.95-17.29c18.48-4.51,43.05-7,69.17-7s50.69,2.48,69.17,7c18.67,4.56,28.95,10.7,28.95,17.29s-10.28,12.73-28.95,17.29c-18.48,4.51-43.05,7-69.17,7ZM151.91,11.61c-53.61,0-97.23,10.5-97.23,23.4s43.62,23.4,97.23,23.4,97.23-10.5,97.23-23.4-43.62-23.4-97.23-23.4Z"/>
        </g>
        <ellipse class="st0" cx="151.09" cy="37.38" rx="86.62" ry="20.59"/>
        <path class="st4" d="M151.35,14.82c29.66,0,56.01,3.13,72.69,7.98-15.2-5.76-43.59-9.63-76.12-9.63-48.54,0-87.88,8.63-87.88,19.27,0,.43.07.86.2,1.28,3.07-10.55,42.69-18.9,91.11-18.9Z"/>
      </g>
    </g>
  </g>
</svg>