<svg width="80" height="80" viewBox="0 0 80 80" fill="none" xmlns="http://www.w3.org/2000/svg">
<path fill-rule="evenodd" clip-rule="evenodd" d="M40 0C62.0914 0 80 17.9086 80 40C80 62.0914 62.0914 80 40 80C17.9086 80 0 62.0914 0 40C0 17.9086 17.9086 0 40 0ZM41.2488 28.8842C37.3677 30.5325 29.6112 33.9438 17.979 39.1182C16.09 39.8852 15.1006 40.6355 15.0105 41.3692C14.8583 42.6088 16.3786 43.097 18.4489 43.7617C18.7308 43.8523 19.023 43.9461 19.3225 44.0455C21.3598 44.7217 24.1003 45.5127 25.525 45.544C26.8173 45.5725 28.2597 45.0287 29.8522 43.9122C40.7205 36.4215 46.3308 32.6353 46.683 32.5537C46.9315 32.4962 47.2758 32.4238 47.5092 32.6355C47.7425 32.8472 47.7195 33.2482 47.6948 33.3558C47.5441 34.0115 41.5745 39.6781 38.4856 42.6102C37.5227 43.5242 36.8398 44.1725 36.7002 44.3205C36.3873 44.6523 36.0685 44.9661 35.7621 45.2677C33.8694 47.1307 32.4501 48.5277 35.8407 50.809C37.4702 51.9054 38.7742 52.812 40.075 53.7165C41.4955 54.7042 42.9123 55.6894 44.7455 56.9162C45.2124 57.2287 45.6583 57.5533 46.0926 57.8694C47.746 59.0729 49.2314 60.1542 51.0665 59.9818C52.1327 59.8817 53.234 58.858 53.7933 55.805C55.1153 48.5898 57.7135 32.9567 58.314 26.5147C58.3667 25.9503 58.3005 25.228 58.2473 24.9108C58.1942 24.5938 58.0832 24.142 57.6795 23.8075C57.2013 23.4115 56.4633 23.328 56.1333 23.3337C54.6325 23.3608 52.3298 24.1783 41.2488 28.8842Z" fill="#57A957"/>
</svg>
