<svg width="80" height="80" viewBox="0 0 80 80" fill="none" xmlns="http://www.w3.org/2000/svg">
<path fill-rule="evenodd" clip-rule="evenodd" d="M40 80C62.0914 80 80 62.0914 80 40C80 17.9086 62.0914 0 40 0C17.9086 0 0 17.9086 0 40C0 62.0914 17.9086 80 40 80ZM30.3992 23.8099C30.3987 23.7633 32.5283 22.6184 35.1313 21.2654C37.7344 19.9124 39.9108 18.803 39.9675 18.8C40.0243 18.7971 40.3495 18.9504 40.6901 19.1409C41.0307 19.3314 42.8051 20.2731 44.6332 21.2335C48.416 23.2206 49.8102 23.968 49.8942 24.0532C49.9575 24.1173 49.5537 24.3083 45.6665 26.0513L43.0868 27.208L41.5115 26.3998L39.9362 25.5918L38.4938 26.3321C37.7006 26.7394 36.969 27.0754 36.8681 27.0788C36.6464 27.0865 30.4003 23.9301 30.3992 23.8099ZM21.0049 28.5611L23.7146 27.1645C25.2049 26.3963 26.538 25.7621 26.6769 25.755C26.8158 25.7479 29.8276 27.2272 33.3698 29.0423C38.0691 31.4502 39.759 32.382 39.6204 32.489C39.5161 32.5696 38.7803 32.9231 37.9855 33.2746C37.1907 33.626 36.2152 34.0644 35.8178 34.249C35.3035 34.4869 34.7882 34.7225 34.2719 34.9559L33.4486 35.3274L31.5984 34.3278C30.5113 33.7405 29.4249 33.1519 28.3391 32.5622L26.9301 31.7962V38.2571L24.0467 39.5385C22.4608 40.2433 21.1276 40.82 21.0841 40.82C21.0405 40.82 21.0049 38.0618 21.0049 34.6906V28.5611ZM47.0241 29.1421C47.0258 29.1014 48.5371 28.388 50.3825 27.5567C52.2278 26.7252 53.7872 26.0434 53.8477 26.0415C53.9083 26.0395 55.0637 26.6041 56.4155 27.2964L58.8731 28.5551L58.8344 32.2039L58.7958 35.8529L57.0616 36.6458C56.1078 37.0819 53.474 38.2735 51.2087 39.2937C48.6312 40.4548 46.054 41.6167 43.4771 42.7792C37.7144 45.3796 35.0302 46.5856 31.5226 48.1504C29.7168 48.9562 28.2372 49.6575 28.2349 49.7089C28.2326 49.7605 28.3444 49.8396 28.4836 49.8848C28.6228 49.9302 29.2568 50.2721 29.8926 50.6448C30.5285 51.0174 31.3901 51.5008 31.8075 51.7192C32.2247 51.9375 32.5662 52.1595 32.5662 52.2127C32.5662 52.2661 31.0542 52.9905 29.2062 53.8227L25.8462 55.3357L23.4231 54.1038L21 52.8719L21.0386 49.264C21.071 46.239 21.1121 45.6363 21.2939 45.5325C21.4747 45.4295 22.7911 44.8292 27.5804 42.6658C27.7835 42.574 29.3478 41.8684 31.2565 41.0075L32.2771 40.5471L41.5984 36.3429C44.3803 35.088 47.7457 33.5715 49.0771 32.9729C50.4084 32.374 51.4977 31.8474 51.4977 31.8022C51.4977 31.757 50.4905 31.1567 49.2595 30.468C48.0283 29.7795 47.0225 29.1827 47.0241 29.1421ZM56.5477 41.4552C57.0598 41.2278 57.7752 40.8973 58.1373 40.7208C58.4995 40.5443 58.8396 40.3946 58.8929 40.3882C59.0277 40.3719 59.0393 52.3851 58.9046 52.5885C58.8448 52.679 57.5457 53.3982 56.0181 54.1868L53.2402 55.6206L46.7374 52.2512C43.1608 50.3979 40.2813 48.8406 40.3384 48.7904C40.3956 48.74 41.6128 48.1836 43.0436 47.5538C44.4743 46.924 45.8305 46.317 46.0574 46.2048C46.4499 46.0109 46.5549 46.0464 48.2252 46.9393C50.5395 48.1767 52.8417 49.3549 52.9871 49.3765C53.0511 49.3858 53.1162 47.9521 53.1316 46.1902L53.1596 42.9867L54.3881 42.4277C55.0637 42.1201 56.0356 41.6825 56.5477 41.4552ZM41.3094 55.4422C41.791 55.2349 42.2727 55.0279 42.7546 54.8212L43.9107 54.3249L46.9336 55.8506C48.5963 56.6898 49.977 57.3973 50.002 57.4227C50.0269 57.4483 48.699 58.1253 47.0513 58.9274C45.4034 59.7293 43.1351 60.8387 42.0104 61.3927L39.9657 62.4L35.1059 59.9541C30.962 57.8684 29.8882 57.2281 30.5341 57.2281C30.5994 57.2281 31.9125 56.656 33.4521 55.9566C34.9917 55.2572 36.3836 54.6324 36.5453 54.5681C36.7609 54.4824 37.2576 54.659 38.41 55.2314C39.3362 55.6915 39.6849 55.8993 40.032 55.8968C40.3334 55.8946 40.6336 55.7339 41.3094 55.4422Z" fill="#57A957"/>
</svg>
