<svg width="80" height="80" viewBox="0 0 80 80" fill="none" xmlns="http://www.w3.org/2000/svg">
<path fill-rule="evenodd" clip-rule="evenodd" d="M80 40C80 62.0914 62.0914 80 40 80C17.9086 80 0 62.0914 0 40C0 17.9086 17.9086 0 40 0C62.0914 0 80 17.9086 80 40ZM48.6664 61.3893H60.5579C60.6351 61.3893 60.6351 61.312 60.6351 61.312L44.1878 37.3746C44.1106 37.2974 44.1106 37.2202 44.1878 37.1429L59.168 19.769C59.2452 19.6918 59.2452 19.6146 59.0908 19.6146H55.8476C55.7704 19.6146 55.6932 19.6146 55.616 19.6918L42.5662 34.9036H42.489L31.9874 19.6918C31.9102 19.6146 31.9102 19.6146 31.833 19.6146H19.8643V19.6918L35.6166 42.6254C35.6939 42.7026 35.6939 42.7798 35.6166 42.857L19.7871 61.2348C19.7098 61.312 19.7871 61.312 19.8643 61.312H23.1074C23.1846 61.312 23.2618 61.312 23.3391 61.2348C23.4136 61.1603 23.4962 61.0857 23.5816 61.0086C23.7615 60.8461 23.9541 60.6721 24.1112 60.4626C28.4354 55.4435 32.8368 50.3471 37.3154 45.1736H37.3927L48.512 61.312C48.512 61.3893 48.5892 61.3893 48.6664 61.3893Z" fill="#57A957"/>
<path d="M30.4431 22.3944H25.2695C25.1923 22.3944 25.1923 22.4716 25.1923 22.5488L50.0563 58.6094C50.0563 58.6094 50.0563 58.6094 50.1335 58.6094H55.2299C55.3071 58.6094 55.3071 58.5322 55.3071 58.455L30.4431 22.3944Z" fill="#57A957"/>
</svg>
