<svg width="80" height="80" viewBox="0 0 80 80" fill="none" xmlns="http://www.w3.org/2000/svg">
<path fill-rule="evenodd" clip-rule="evenodd" d="M80 40C80 62.0914 62.0914 80 40 80C17.9086 80 0 62.0914 0 40C0 17.9086 17.9086 0 40 0C62.0914 0 80 17.9086 80 40ZM44.123 35.1212C45.5932 34.388 47.464 33.3088 49.3371 31.8303C49.732 32.6504 49.7752 33.366 49.5718 33.9439C49.4276 34.3512 49.1559 34.7054 48.7986 34.9872C48.4117 35.2918 47.9285 35.5135 47.3943 35.6334C46.3808 35.8617 45.1975 35.7284 44.123 35.1212ZM44.3779 42.6328L46.3241 43.757C42.6025 45.8429 41.4187 49.6027 40.2293 53.3804C40.1487 53.6364 40.0681 53.8925 39.9866 54.1482C39.9053 53.8928 39.8248 53.637 39.7443 53.3813C38.5549 49.6033 37.3711 45.8431 33.6493 43.757L35.5956 42.6328C35.7838 42.5617 35.9448 42.4328 36.0553 42.2645C36.1658 42.0963 36.2202 41.8974 36.2108 41.6964C36.0325 37.9239 37.0511 36.2556 38.4251 35.2082C38.9179 34.8329 39.4559 34.6445 39.9866 34.6445C40.5174 34.6445 41.0554 34.8329 41.5484 35.2082C42.9224 36.2556 43.941 37.9239 43.7627 41.6964C43.7532 41.8974 43.8077 42.0963 43.9182 42.2645C44.0287 42.4328 44.1896 42.5617 44.3779 42.6328ZM39.9866 18C42.2363 18.0604 44.4916 18.4971 46.4489 19.3467C47.8043 19.9358 49.069 20.714 50.2142 21.6445C50.7314 22.0646 51.1572 22.4704 51.6263 22.9376C52.8915 22.9813 54.7405 21.5758 55.5989 20.2606C54.1216 25.1038 47.3802 30.8232 42.7131 33.0117C42.7117 33.0111 42.7106 33.0103 42.7096 33.0095L42.7085 33.0088C41.8709 32.3692 40.9288 32.0494 39.9866 32.0494C39.0444 32.0494 38.1026 32.3692 37.265 33.0088L37.2634 33.0099C37.2625 33.0105 37.2615 33.0113 37.2603 33.0117C32.593 30.8232 25.8518 25.1038 24.3745 20.2606C25.2328 21.5758 27.0818 22.9813 28.347 22.9376C28.8162 22.4705 29.2421 22.0646 29.7591 21.6445C30.9043 20.714 32.169 19.9358 33.5243 19.3467C35.4818 18.4971 37.7371 18.0604 39.9866 18ZM35.8503 35.1212C34.3802 34.388 32.5093 33.3088 30.6364 31.8303C30.2415 32.6504 30.1982 33.366 30.4015 33.9439C30.5459 34.3512 30.8176 34.7054 31.1747 34.9872C31.5618 35.2918 32.045 35.5135 32.5791 35.6334C33.5926 35.8617 34.7758 35.7284 35.8503 35.1212ZM54.0587 26.7983C53.3281 27.8261 52.4195 28.9779 51.3884 30.0184L51.3886 30.0186L51.7106 30.6875C52.3361 31.9868 52.5434 33.4393 52.0559 34.8208C51.7418 35.7106 51.1683 36.4737 50.4292 37.0562C49.7116 37.6219 48.862 38.0032 47.9727 38.2035C47.3934 38.3339 46.8032 38.3876 46.2168 38.3693C46.3536 39.1449 46.4134 39.9493 46.4172 40.7689L51.6505 43.7915L47.6122 46.0551C47.2894 46.236 46.9822 46.4434 46.6936 46.675C43.978 49.113 42.1458 55.4454 40.816 60.0413C40.5154 61.0802 40.2405 62.0304 39.9868 62.8269C39.7333 62.0307 39.4584 61.0809 39.158 60.0423C37.8282 55.4464 35.9959 49.1132 33.2802 46.675C32.9916 46.4434 32.6843 46.2361 32.3615 46.0551L28.3232 43.7915L33.5564 40.7689C33.5602 39.9493 33.62 39.1449 33.7568 38.3693C33.1704 38.3876 32.5802 38.3339 32.0009 38.2035C31.1116 38.0032 30.2621 37.6219 29.5444 37.0562C28.8052 36.4737 28.2318 35.7106 27.9176 34.8208C27.4302 33.4393 27.6374 31.9866 28.263 30.6875L28.585 30.0186C27.5538 28.9779 26.6454 27.8263 25.9148 26.7985L25.5439 27.4969C24.349 29.8866 23.7285 32.2668 23.7285 34.9457L23.7311 39.1965L23.7087 41.4C23.622 46.8097 22.4515 52.283 19.8 57.2919L25.3478 52.8184L29.2731 59.1883L33.3968 55.3062L39.9866 66L46.5765 55.306L50.7003 59.1881L54.6256 52.8183L60.1733 57.2917C57.5218 52.2829 56.3513 46.8096 56.2648 41.3999L56.2423 39.1963L56.2449 34.9456C56.2449 32.2668 55.6242 29.8866 54.4297 27.4967L54.0587 26.7983Z" fill="#57A957"/>
</svg>
