<svg width="80" height="80" viewBox="0 0 80 80" fill="none" xmlns="http://www.w3.org/2000/svg">
<path fill-rule="evenodd" clip-rule="evenodd" d="M40 80C62.0913 80 80 62.0914 80 40C80 17.9086 62.0913 0 40 0C17.9087 0 0 17.9086 0 40C0 62.0914 17.9087 80 40 80ZM59.6279 52.516C62.0459 48.8469 63.3262 44.54 63.3069 40.1403C63.2803 34.2397 60.9209 28.5916 56.7476 24.438C52.574 20.2843 46.9287 17.9656 41.053 17.9918C36.6716 18.0117 32.3945 19.3359 28.7625 21.797C25.1306 24.2579 22.3066 27.7451 20.6484 31.8176C18.99 35.8903 18.5713 40.3651 19.4453 44.6765C20.3193 48.988 22.447 52.9424 25.5588 56.0396C28.6709 59.1368 32.6274 61.2378 36.9285 62.0769C41.2295 62.916 45.6819 62.4556 49.7222 60.7538C53.7627 59.052 57.2097 56.1852 59.6279 52.516ZM58.2375 51.5891C60.4729 48.1959 61.6562 44.2134 61.6379 40.1449C61.6257 37.4435 61.0837 34.7709 60.043 32.2799C59.0022 29.7888 57.4832 27.528 55.5723 25.6265C53.6614 23.725 51.3962 22.2201 48.9062 21.1976C46.4163 20.1753 43.75 19.6554 41.0601 19.6677C37.0085 19.6863 33.0537 20.9109 29.6953 23.1868C26.3369 25.4625 23.7261 28.6873 22.1926 32.4531C20.6594 36.219 20.2725 40.3569 21.0811 44.3436C21.613 46.9664 22.6465 49.4463 24.1108 51.6515C25.7527 47.7668 26.033 44.3105 26.3975 39.816L26.4639 39C26.5049 39.1982 26.55 39.3909 26.5991 39.578C26.6389 39.7297 26.6814 39.8779 26.7263 40.0225C26.9573 35.2632 27.9219 31.2919 35.8572 29.0977C37.5737 28.6858 39.3538 28.829 41.155 29.2474C41.866 29.0754 42.6179 28.9851 43.3418 29.002C43.938 29.0045 44.5061 29.0831 44.9939 29.2622C45.9023 29.5555 46.6389 30.1101 47 31C46.9536 30.9736 46.9011 30.946 46.8433 30.9177C46.8662 30.9639 46.8857 31.009 46.9023 31.053L46.9163 31.0914C46.9307 31.1334 46.9424 31.1744 46.9514 31.2144C48.5061 31.8331 50.0535 32.4449 51.5405 32.8785C61.0198 35.4758 57.9265 41.2166 52.0381 45.0706C51.8979 45.2098 51.7668 45.3419 51.6477 45.4656C48.9949 48.2169 44.4858 53.3429 44.2729 58.7881C44.4932 59.7533 44.7407 60.3864 44.78 60.4845C46.2478 60.2194 47.6897 59.7926 49.0789 59.2074C52.8147 57.6334 56.002 54.9822 58.2375 51.5891ZM54.9163 42.1473C55.4238 41.8108 55.9102 41.4419 56.3723 41.0427L56.3303 40.9935C55.9946 41.2472 55.6479 41.4856 55.292 41.708C55.2515 41.757 55.2104 41.806 55.1689 41.8551C55.0867 41.9525 55.0022 42.0499 54.9163 42.1473ZM50.3706 43.7787C48.5173 44.4158 46.4424 44.7939 44.0356 44.7939C43.8127 44.7939 43.606 44.7716 43.4136 44.7322C42.6436 44.4674 41.9387 44.0531 41.4055 43.4453L41.45 43.3938C42.5798 44.1274 43.8706 44.3853 45.1589 44.4227C46.467 44.4609 47.7754 44.3516 49.0593 44.0969C49.3083 44.0448 49.5564 43.9882 49.8035 43.9271C49.9932 43.8802 50.1824 43.8308 50.3706 43.7787ZM42 21.1766C43.2998 20.9412 44.6306 20.9412 45.9304 21.1766C47.2427 21.3877 48.5112 21.8191 49.6836 22.4534C50.7234 23.0337 51.6387 23.7985 52.5354 24.5479L52.8591 24.8177C53.8611 25.65 54.8606 26.4918 55.811 27.4187C56.7803 28.33 57.6265 29.3674 58.3271 30.5043C59.0498 31.6333 59.6416 32.8431 60.0908 34.11C60.9651 36.6401 61.2139 39.3495 60.8154 42H60.6851C60.3013 39.4678 59.6594 36.9829 58.77 34.5852C58.3435 33.3995 57.8416 32.2432 57.2671 31.1237C56.6636 30.0074 55.9993 28.926 55.2776 27.8844C54.5413 26.8302 53.6394 25.906 52.6077 25.1488C51.5708 24.3993 50.3779 23.9122 49.2224 23.4512C48.0669 22.9901 46.9111 22.5314 45.7114 22.1791C44.5115 21.8268 43.2837 21.5643 42.0046 21.309L42 21.1766ZM40.4956 36.6649C40.825 36.1711 41.0005 35.5909 41 34.9974C40.9988 34.2025 40.6821 33.4404 40.1196 32.8785C39.5574 32.3167 38.7949 32.0006 38 32C37.4065 32 36.8264 32.176 36.333 32.5057C35.8396 32.8356 35.4551 33.3042 35.228 33.8525C35.0012 34.4009 34.9419 35.0042 35.0579 35.5862C35.1738 36.1682 35.4597 36.7028 35.8796 37.1222C36.2993 37.5416 36.8342 37.8271 37.4163 37.9426C37.9983 38.0581 38.6016 37.9984 39.1499 37.7709C39.698 37.5435 40.1663 37.1586 40.4956 36.6649ZM41.5398 37.3848C41.9758 36.7295 42.2085 35.9591 42.2085 35.171C42.2085 34.1141 41.7905 33.1006 41.0461 32.3533C40.302 31.606 39.2927 31.1862 38.2405 31.1862C37.4556 31.1862 36.6885 31.4199 36.0359 31.8578C35.3833 32.2957 34.8748 32.918 34.5745 33.6461C34.2739 34.3741 34.1956 35.1754 34.3486 35.9484C34.5017 36.7213 34.8796 37.4314 35.4346 37.9886C35.9895 38.5459 36.6965 38.9254 37.4663 39.0792C38.2361 39.2329 39.0339 39.1541 39.759 38.8524C40.4839 38.5509 41.1038 38.0402 41.5398 37.3848Z" fill="#57A957"/>
</svg>
