<svg width="80" height="80" viewBox="0 0 80 80" fill="none" xmlns="http://www.w3.org/2000/svg">
<path fill-rule="evenodd" clip-rule="evenodd" d="M40 80C62.0913 80 80 62.0914 80 40C80 17.9086 62.0913 0 40 0C17.9087 0 0 17.9086 0 40C0 62.0914 17.9087 80 40 80ZM55.4233 44.5417C55.5879 44.4769 55.7451 44.3931 55.8918 44.2913H55.8975C57.0605 43.5491 57.6787 42.0195 57.5833 40.0991V40.0481V39.9972C57.5833 30.0721 49.688 21.9995 39.9944 21.9995C30.3008 21.9995 22.4336 30.0721 22.4336 39.9972C22.4229 42.944 23.125 45.849 24.479 48.4607L34.656 31.9926C35.8865 30.1005 37.1509 29.9984 37.9939 30.2477C39.2695 30.6216 39.9438 31.8735 39.9944 33.964V43.028L44.5461 35.6011L44.5815 35.5439C45.3477 34.3079 47.2498 31.2396 49.7834 31.9868C51.3064 32.4344 52.2168 34.0829 52.2168 36.3999V41.2264C52.2168 42.8014 52.6831 43.957 53.5486 44.4498C53.9172 44.6383 54.3293 44.723 54.7417 44.6951C54.9763 44.6792 55.2061 44.6272 55.4233 44.5417ZM61.5112 39.9065V40.0028H61.4888C61.6235 43.3735 60.3367 46.172 57.9766 47.7185C57.0459 48.3269 55.97 48.6716 54.8616 48.7164C53.7532 48.7614 52.6533 48.5046 51.6772 47.9735C49.5305 46.7611 48.3057 44.3026 48.3057 41.2264V37.0287C48.1707 37.2269 48.019 37.4536 47.8616 37.7198L42.8042 45.9738C41.1013 48.7609 39.4773 48.9762 38.4153 48.6646C37.3533 48.353 36.0889 47.288 36.0889 43.9967V37.1477L26.9292 51.99C28.4707 53.7671 30.3525 55.2119 32.4617 56.2375C34.5708 57.2633 36.8638 57.8486 39.2031 57.9587C41.5422 58.0688 43.8794 57.7012 46.0742 56.8779C48.269 56.0548 50.2761 54.793 51.9751 53.1683C52.1626 52.9954 52.3821 52.8615 52.6211 52.7744C52.8599 52.6873 53.1135 52.6487 53.3674 52.6608C53.6213 52.6729 53.8701 52.7355 54.0999 52.845C54.3296 52.9543 54.5356 53.1085 54.7061 53.2986C55.0623 53.6892 55.2512 54.2056 55.2324 54.7357C55.2134 55.266 54.988 55.7672 54.605 56.1311C50.6587 59.8994 45.4299 61.9998 39.9944 62C28.1431 62 18.5 52.126 18.5 39.9972C18.5 27.8684 28.1768 18 39.9944 18C51.812 18 61.4326 27.8118 61.5112 39.9065Z" fill="#57A957"/>
</svg>
