<svg xmlns="http://www.w3.org/2000/svg" width="121" height="28" viewBox="0 0 121 28" fill="none"><g clip-path="url(#clip0_760_85)"><path d="M15.2992 0.874023H11.6758V9.93189H15.2992V0.874023Z" fill="#FCA318"></path><path d="M9.05891 6.30884H5.43555V9.93199H9.05891V6.30884Z" fill="#FCA318"></path><path d="M9.05839 12.5486H0V16.1718H9.05839V12.5486Z" fill="#FCA318"></path><path d="M9.05891 18.8086H5.43555V22.4318H9.05891V18.8086Z" fill="#FCA318"></path><path d="M21.5589 6.30884H17.9355V9.93199H21.5589V6.30884Z" fill="#FCA318"></path><path d="M21.5589 18.8086H17.9355V22.4318H21.5589V18.8086Z" fill="#FCA318"></path><path d="M19.2842 12.5486C17.8348 12.5486 16.466 12.9512 15.3186 13.6758C14.292 14.2998 13.4465 15.1653 12.8225 16.1718C12.118 17.3392 11.6953 18.6878 11.6953 20.1371V27.947H15.3186V26.6185V19.7345C15.3186 17.7619 16.9089 16.1718 18.8816 16.1718H26.9939V14.481V12.5486H19.2842Z" fill="#FCA318"></path><path d="M33.4557 23.3579H30.9395V25.874H33.4557V23.3579Z" fill="#F4F4F4"></path><path d="M38.3267 23.3579H35.8105V25.874H38.3267V23.3579Z" fill="#F4F4F4"></path><path d="M43.1988 23.3579H40.6826V25.874H43.1988V23.3579Z" fill="#F4F4F4"></path><path d="M48.0699 23.3579H45.5537V25.874H48.0699V23.3579Z" fill="#F4F4F4"></path><path d="M52.941 23.3579H50.4248V25.874H52.941V23.3579Z" fill="#F4F4F4"></path><path d="M57.8131 23.3579H55.2969V25.874H57.8131V23.3579Z" fill="#F4F4F4"></path><path d="M62.6842 23.3579H60.168V25.874H62.6842V23.3579Z" fill="#F4F4F4"></path><path d="M67.5553 23.3579H65.0391V25.874H67.5553V23.3579Z" fill="#F4F4F4"></path><path d="M72.4273 23.3579H69.9111V25.874H72.4273V23.3579Z" fill="#F4F4F4"></path><path d="M77.2984 23.3579H74.7822V25.874H77.2984V23.3579Z" fill="#F4F4F4"></path><path d="M82.1695 23.3579H79.6533V25.874H82.1695V23.3579Z" fill="#F4F4F4"></path><path d="M87.0416 23.3579H84.5254V25.874H87.0416V23.3579Z" fill="#F4F4F4"></path><path d="M91.9127 23.3579H89.3965V25.874H91.9127V23.3579Z" fill="#F4F4F4"></path><path d="M96.7838 23.3579H94.2676V25.874H96.7838V23.3579Z" fill="#F4F4F4"></path><path d="M106.527 23.3579H104.011V25.874H106.527V23.3579Z" fill="#F4F4F4"></path><path d="M101.655 23.3579H99.1396V25.874H101.655V23.3579Z" fill="#F4F4F4"></path><path d="M31.04 22.0696V6.87246C31.04 6.51015 31.2212 6.34912 31.6037 6.34912H38.1056C39.5348 6.34912 40.6419 6.71144 41.4068 7.41594C42.1919 8.12044 42.5744 9.12687 42.5744 10.4554V11.4819C42.5744 12.911 41.8698 13.837 40.4406 14.2597C41.1653 14.3603 41.7491 14.6421 42.1718 15.0849C42.6146 15.5278 42.8159 16.1719 42.8159 16.9971V18.5068C42.8159 19.8151 42.4335 20.8216 41.6484 21.5462C40.8633 22.2507 39.7763 22.613 38.3673 22.613H31.6238C31.2413 22.5929 31.04 22.4117 31.04 22.0696ZM34.7842 12.9312H37.5419C38.1257 12.9312 38.5484 12.8104 38.8101 12.589C39.0718 12.3676 39.2127 11.9851 39.2127 11.4618V10.4755C39.2127 9.95214 39.0718 9.5697 38.8101 9.34828C38.5484 9.12687 38.1257 9.0061 37.5419 9.0061H34.7439C34.5426 9.0061 34.442 9.10674 34.442 9.2879V12.6695C34.4822 12.8507 34.5829 12.9312 34.7842 12.9312ZM34.7842 19.9158H37.8238C38.4276 19.9158 38.8504 19.795 39.1121 19.5736C39.3737 19.3522 39.5146 18.9697 39.5146 18.4464V16.977C39.5146 16.4537 39.3737 16.0914 39.1121 15.8699C38.8504 15.6485 38.4075 15.5479 37.7835 15.5479H34.8043C34.603 15.5479 34.5023 15.6485 34.5023 15.8297V19.6541C34.4822 19.8151 34.5829 19.9158 34.7842 19.9158Z" fill="#FFA521"></path><path d="M45.9365 22.0694V10.2338C45.9365 9.87148 46.1176 9.71045 46.48 9.71045H48.815C49.1975 9.71045 49.3786 9.89161 49.3786 10.2338V22.0493C49.3786 22.2707 49.3384 22.4116 49.2579 22.472C49.1773 22.5324 49.0364 22.5726 48.8351 22.5726H46.5001C46.1176 22.5928 45.9365 22.4116 45.9365 22.0694Z" fill="#FFA521"></path><path d="M52.7806 12.4882H51.6936C51.4721 12.4882 51.3312 12.448 51.2507 12.3876C51.1702 12.3272 51.1299 12.1863 51.1299 11.985V10.2338C51.1299 9.87149 51.3111 9.71046 51.6936 9.71046H52.7806C52.9819 9.71046 53.0825 9.60981 53.0825 9.42866V7.03335C53.0825 6.67104 53.2838 6.51001 53.6864 6.51001H55.9611C56.3435 6.51001 56.5247 6.69117 56.5247 7.03335V9.42866C56.5247 9.60981 56.6254 9.71046 56.8468 9.71046H58.9604C59.3429 9.71046 59.5241 9.89162 59.5241 10.2338V11.985C59.5241 12.1662 59.4838 12.3071 59.4033 12.3675C59.3228 12.448 59.1818 12.4882 58.9604 12.4882H56.8468C56.6254 12.4882 56.5247 12.5889 56.5247 12.77V18.3456C56.5247 18.869 56.6455 19.2514 56.9072 19.4728C57.1689 19.6943 57.5715 19.815 58.1552 19.815H59.2422C59.6247 19.815 59.8059 19.9962 59.8059 20.3384V22.0896C59.8059 22.2707 59.7656 22.4116 59.6851 22.472C59.6046 22.5525 59.4637 22.5928 59.2422 22.5928H57.5916C56.1624 22.5928 55.0552 22.2305 54.2702 21.526C53.4851 20.8215 53.1027 19.815 53.1027 18.4865V12.77C53.0825 12.5687 52.9819 12.4882 52.7806 12.4882Z" fill="#FFA521"></path><path d="M61.879 18.4464V17.9432C61.879 17.5809 62.0601 17.4198 62.4426 17.4198H64.7374C65.1199 17.4198 65.301 17.601 65.301 17.9432V18.1445C65.301 18.7886 65.4419 19.2314 65.7036 19.4528C65.9653 19.6944 66.4686 19.8151 67.1932 19.8151H68.4614C69.1659 19.8151 69.6491 19.6944 69.9309 19.4327C70.2127 19.171 70.3536 18.7081 70.3536 18.0237V17.7218C70.3536 17.2387 70.1322 16.8562 69.7095 16.5946C69.2867 16.3329 68.7633 16.1719 68.1192 16.1316C67.4952 16.0712 66.8108 15.9907 66.066 15.8498C65.3413 15.7089 64.6569 15.5278 64.0127 15.2862C63.3887 15.0648 62.8452 14.622 62.4225 13.9376C61.9998 13.2734 61.7783 12.4078 61.7783 11.3813V10.4956C61.7783 9.18725 62.1809 8.16069 62.966 7.43607C63.751 6.71144 64.8582 6.34912 66.2673 6.34912H68.9646C70.3939 6.34912 71.501 6.71144 72.2861 7.43607C73.0711 8.16069 73.4737 9.18725 73.4737 10.4956V10.9787C73.4737 11.341 73.2925 11.502 72.9101 11.502H70.6153C70.2328 11.502 70.0517 11.3209 70.0517 10.9787V10.8177C70.0517 10.1534 69.9107 9.7106 69.6491 9.46905C69.3874 9.22751 68.8841 9.10674 68.1595 9.10674H67.1127C66.3679 9.10674 65.8647 9.22751 65.603 9.48918C65.3413 9.75085 65.2004 10.2541 65.2004 11.019V11.502C65.2004 12.2871 65.9452 12.75 67.4147 12.8708C68.9445 12.9916 70.3133 13.2734 71.501 13.7363C72.125 13.998 72.6685 14.4408 73.0912 15.0849C73.514 15.729 73.7354 16.5543 73.7354 17.5809V18.4464C73.7354 19.7548 73.3328 20.7813 72.5477 21.5059C71.7627 22.2306 70.6555 22.5929 69.2465 22.5929H66.2874C64.8783 22.5929 63.7712 22.2306 62.9861 21.5059C62.2816 20.7813 61.879 19.7548 61.879 18.4464Z" fill="#F4F4F4"></path><path d="M82.1492 22.5928H79.0693C78.7271 22.5928 78.5057 22.4116 78.4252 22.0694L75.7077 10.2338C75.6271 9.87148 75.768 9.71045 76.1103 9.71045H78.7271C79.1297 9.71045 79.331 9.89161 79.3713 10.2338L80.5992 18.869H80.8206L82.7329 10.2338C82.7933 9.87148 82.9946 9.71045 83.357 9.71045H85.7323C86.1147 9.71045 86.3362 9.89161 86.4167 10.2338L88.2888 18.869H88.5102L89.7582 10.2338C89.8186 9.87148 90.0199 9.71045 90.4024 9.71045H92.9991C93.3615 9.71045 93.5024 9.89161 93.4017 10.2338L90.7043 22.0493C90.6238 22.4116 90.4225 22.5726 90.0602 22.5726H86.9803C86.618 22.5726 86.3966 22.3915 86.3362 22.0493L84.6855 13.5148H84.4641L82.8336 22.0493C82.7531 22.4116 82.5316 22.5928 82.1492 22.5928Z" fill="#F4F4F4"></path><path d="M100.327 22.5929H99.6622C98.233 22.5929 97.1258 22.2306 96.3609 21.5261C95.5758 20.8216 95.1934 19.795 95.1934 18.4665V13.8168C95.1934 12.4883 95.5758 11.4618 96.3609 10.7573C97.1459 10.0528 98.233 9.69043 99.6622 9.69043H105.923C106.325 9.69043 106.527 9.87159 106.527 10.2138V22.0293C106.527 22.3916 106.325 22.5526 105.923 22.5526H103.648C103.266 22.5526 103.085 22.3715 103.085 22.0293V21.204H102.984C102.783 21.667 102.44 22.0092 101.937 22.2306C101.414 22.4721 100.89 22.5929 100.327 22.5929ZM103.085 17.8828V12.7701C103.085 12.589 102.984 12.4883 102.762 12.4883H100.226C99.642 12.4883 99.2395 12.6091 98.9979 12.8305C98.7563 13.0519 98.6557 13.4344 98.6557 13.9779V18.3256C98.6557 18.8691 98.7765 19.2515 98.9979 19.473C99.2395 19.6944 99.642 19.8151 100.226 19.8151H101.233C102.461 19.8151 103.085 19.171 103.085 17.8828Z" fill="#F4F4F4"></path><path d="M112.364 26.0349H110.07C109.687 26.0349 109.506 25.8738 109.506 25.5317V10.2339C109.506 9.87159 109.687 9.71056 110.07 9.71056H112.364C112.747 9.71056 112.928 9.89172 112.928 10.2339V11.0592H113.029C113.23 10.5962 113.572 10.2541 114.075 10.0326C114.579 9.8112 115.122 9.69043 115.666 9.69043H116.773C118.162 9.69043 119.209 10.0528 119.933 10.7573C120.638 11.4618 121 12.4883 121 13.8168V18.4665C121 19.795 120.638 20.8216 119.933 21.5261C119.229 22.2306 118.162 22.5929 116.773 22.5929H115.666C115.102 22.5929 114.579 22.4721 114.075 22.2507C113.572 22.0293 113.21 21.6871 113.029 21.2241H112.928V25.5115C112.928 25.8537 112.747 26.0349 112.364 26.0349ZM114.8 19.8151H115.988C116.572 19.8151 116.974 19.6944 117.216 19.473C117.457 19.2515 117.578 18.8691 117.578 18.3256V13.9779C117.578 13.4344 117.457 13.0519 117.216 12.8305C116.974 12.6091 116.551 12.4883 115.988 12.4883H114.8C113.552 12.4883 112.928 13.1324 112.928 14.4006V17.8828C112.928 19.171 113.552 19.8151 114.8 19.8151Z" fill="#F4F4F4"></path><path d="M49.3786 5.66479H45.9365V7.33547H49.3786V5.66479Z" fill="#FFA521" stroke="#FCA318" stroke-width="1.43168" stroke-miterlimit="10"></path><path d="M48.4891 8.21787V4.77588H46.8184V8.21787H48.4891Z" fill="#FFA521" stroke="#FCA318" stroke-width="1.43168" stroke-miterlimit="10"></path></g><defs><clipPath id="clip0_760_85"><rect width="121" height="28" fill="white"></rect></clipPath></defs></svg>