<svg xmlns="http://www.w3.org/2000/svg" width="83" height="83" viewBox="0 0 83 83" fill="none"><path d="M41.5 1.29688C19.2897 1.29688 1.29688 19.2923 1.29688 41.5C1.29688 63.7077 19.2923 81.7031 41.5 81.7031C63.7103 81.7031 81.7031 63.7077 81.7031 41.5C81.7031 19.2923 63.7077 1.29688 41.5 1.29688Z" fill="white"></path><path fill-rule="evenodd" clip-rule="evenodd" d="M9.14649 3.44099C16.9446 12.9203 28.9669 27.6791 29.5638 28.5055C30.0565 29.1877 29.8711 29.8011 29.0269 30.2817C28.5574 30.5491 27.5921 30.8199 27.1088 30.8199C26.5623 30.8199 25.9465 30.5563 25.4981 30.1302C25.1811 29.8292 23.9019 27.916 20.9488 23.3267C18.6892 19.8152 16.7982 16.9021 16.7467 16.8534C16.6274 16.7405 16.6295 16.7444 20.7184 24.072C23.2859 28.6732 24.1526 30.2999 24.1526 30.5174C24.1526 30.9599 24.0322 31.1925 23.4871 31.8014C22.5786 32.8165 22.1725 33.9571 21.8793 36.3178C21.5505 38.9641 20.6263 40.8334 18.0651 44.0327C16.5658 45.9055 16.3205 46.2487 15.9422 47.0036C15.4656 47.9541 15.3346 48.4865 15.2815 49.6868C15.2254 50.9558 15.3347 51.7757 15.7219 52.989C16.0607 54.0514 16.4144 54.7527 17.3188 56.1557C18.0992 57.3663 18.5487 58.2661 18.5487 58.618C18.5487 58.8981 18.6021 58.8984 19.8115 58.625C22.7056 57.9703 25.0558 56.819 26.3776 55.4082C27.1955 54.5349 27.3875 54.0527 27.3938 52.856C27.3978 52.0733 27.3704 51.9094 27.1592 51.4591C26.8153 50.7262 26.1892 50.1168 24.8094 49.1721C23.0015 47.9343 22.2293 46.9377 22.0159 45.5672C21.8409 44.4427 22.044 43.6493 23.0441 41.5498C24.0794 39.3766 24.3359 38.4505 24.5095 36.2601C24.6215 34.8448 24.7768 34.2867 25.1827 33.8388C25.6061 33.3715 25.9873 33.2134 27.0351 33.0699C28.7434 32.8362 29.8312 32.3936 30.7254 31.5683C31.501 30.8525 31.8256 30.1627 31.8755 29.1242L31.9132 28.3372L31.4798 27.831C29.9101 25.9978 8.09525 2 7.99864 2C7.97802 2 8.49456 2.64849 9.14649 3.44099ZM19.4299 51.1227C19.7848 50.4933 19.5962 49.6839 19.0025 49.2886C18.4416 48.915 17.5702 49.091 17.5702 49.5778C17.5702 49.7263 17.6523 49.8344 17.8371 49.9297C18.1483 50.0901 18.1709 50.2705 17.926 50.6391C17.678 51.0125 17.6981 51.3407 17.9825 51.5638C18.441 51.9233 19.0899 51.7256 19.4299 51.1227ZM30.1124 16.7935C29.4122 16.6847 29.3826 16.6719 29.7122 16.6212C30.3437 16.5238 31.835 16.6565 32.8627 16.9012C35.2618 17.4724 37.4449 18.9355 39.7751 21.5341L40.3942 22.2245L41.2798 22.0819C45.0108 21.4814 48.8063 21.9586 51.9809 23.4274C52.8543 23.8315 54.2313 24.636 54.4033 24.8427C54.4582 24.9085 54.5588 25.3326 54.6269 25.7851C54.8627 27.3506 54.7448 28.5506 54.2666 29.4468C54.0065 29.9346 53.992 30.0891 54.1669 30.5065C54.3065 30.8396 54.6957 31.0861 55.0812 31.0856C55.8702 31.0845 56.7193 29.8072 57.1127 28.0299L57.269 27.324L57.5786 27.6752C59.2768 29.6022 60.6107 32.2303 60.8397 34.1009L60.8994 34.5886L60.614 34.1452C60.1227 33.3823 59.6291 32.8628 58.9971 32.444C57.8576 31.6889 56.6529 31.432 53.4623 31.2635C50.5807 31.1114 48.9498 30.865 47.3326 30.3367C44.5812 29.4383 43.1942 28.2417 39.9258 23.9469C38.4741 22.0394 37.5768 20.9839 36.6843 20.1339C34.6562 18.2026 32.6634 17.1898 30.1124 16.7935ZM55.0533 21.0526C55.1258 19.7744 55.2989 18.9312 55.6468 18.1613C55.7846 17.8565 55.9137 17.607 55.9336 17.607C55.9535 17.607 55.8936 17.832 55.8005 18.1069C55.5475 18.8542 55.506 19.8762 55.6802 21.0655C55.9014 22.5743 56.0272 22.7919 57.6195 24.4219C58.3663 25.1864 59.235 26.1505 59.5499 26.5644L60.1225 27.3172L59.5499 26.7792C58.8496 26.1214 57.2392 24.8386 56.8835 24.6551C56.6451 24.5322 56.6096 24.5342 56.4624 24.6809C56.3268 24.8161 56.2983 25.0191 56.2795 25.9792C56.2502 27.4754 56.0466 28.4358 55.5551 29.3961C55.2894 29.9154 55.2475 29.8046 55.488 29.2184C55.6676 28.7807 55.6858 28.5883 55.6845 27.1397C55.6817 24.2296 55.3368 23.5299 53.3137 22.3313C52.8011 22.0277 51.9567 21.5897 51.4372 21.3582C50.9176 21.1266 50.5049 20.9248 50.5199 20.9098C50.5772 20.8526 52.5501 21.4294 53.3442 21.7352C54.5254 22.1904 54.7204 22.2493 54.8639 22.1944C54.96 22.1577 55.0065 21.8771 55.0533 21.0526ZM29.3618 18.8184C29.1715 21.0652 30.051 24.071 31.4727 26.0313C32.5749 27.551 34.2833 28.7319 35.5445 28.8459C36.3704 28.9206 36.6185 28.6616 36.2449 28.1153C35.7262 27.3566 35.0883 26.1883 34.9194 25.6882C34.8145 25.3774 34.5867 24.4596 34.413 23.6486C33.8199 20.8796 33.237 19.8013 31.8906 18.9824C31.3999 18.6839 30.3521 18.2933 29.7443 18.1822L29.4208 18.123L29.3618 18.8184ZM53.3288 40.6215C46.6847 37.9422 44.3447 35.6165 44.3447 31.6925C44.3447 31.1151 44.3646 30.6426 44.3887 30.6426C44.4129 30.6426 44.67 30.8332 44.96 31.0661C46.3073 32.1484 47.816 32.6107 51.9927 33.2209C54.4504 33.5801 55.8335 33.8701 57.1093 34.2939C61.1646 35.6409 63.6736 38.3745 64.2718 42.0978C64.4457 43.1797 64.3437 45.2084 64.0618 46.2777C63.8393 47.1223 63.1603 48.6445 62.9801 48.7029C62.9302 48.7191 62.8813 48.5275 62.8684 48.2666C62.8001 46.8686 62.0947 45.5075 60.9101 44.4879C59.5632 43.3286 57.7535 42.4057 53.3288 40.6215ZM48.3436 40.3265C48.4369 40.6048 48.5812 41.2384 48.6645 41.7344C49.1965 44.9067 47.5342 47.4694 44.3002 48.4625C43.9578 48.5677 42.6092 48.8319 41.3033 49.0498C38.6597 49.4907 37.4798 49.8027 36.2946 50.3746C35.454 50.7801 34.4363 51.3878 34.4968 51.4481C34.5162 51.4675 34.7081 51.4216 34.923 51.346C36.4177 50.8203 38.0812 50.5483 40.6088 50.4167C41.6117 50.3645 42.7524 50.2813 43.1439 50.2319C45.3956 49.9478 46.956 49.2629 48.1696 48.0257C48.845 47.3374 49.2475 46.6961 49.5719 45.7916C49.7776 45.2181 49.8054 45.005 49.8071 43.9884C49.8087 42.9528 49.7837 42.7634 49.561 42.1262C49.2691 41.2913 48.9247 40.6644 48.489 40.1746L48.1741 39.8206L48.3436 40.3265ZM51.7101 47.152C50.8275 45.2514 50.6248 43.4164 51.1083 41.7049C51.1601 41.5221 51.2433 41.3724 51.2934 41.3724C51.3433 41.3724 51.5517 41.4852 51.7562 41.6231C52.163 41.8974 52.9788 42.3592 55.1524 43.5462C57.8647 45.0272 59.4111 46.1741 60.4627 47.4843C61.3837 48.6319 61.9536 49.9388 62.228 51.5325C62.3832 52.4353 62.2922 54.6074 62.061 55.5164C61.3318 58.3826 59.6369 60.6339 57.2195 61.9477C56.8653 62.1401 56.5474 62.2982 56.513 62.2989C56.4786 62.2995 56.6075 61.971 56.7997 61.5685C57.613 59.866 57.7055 58.2099 57.0907 56.3665C56.7142 55.2377 55.9467 53.8605 54.397 51.5328C52.5952 48.8266 52.1534 48.1063 51.7101 47.152ZM35.0822 53.3859C32.2877 53.8406 29.22 55.3218 26.7544 57.4068L26.0204 58.0276L26.6655 58.1284C30.0319 58.6547 30.9384 59.1216 33.2735 61.5307C34.6173 62.9171 35.0711 63.2256 36.1856 63.5106C37.8227 63.9292 39.4364 63.16 39.99 61.6973C40.2372 61.0438 40.2043 59.9615 39.9207 59.4182C39.2455 58.1244 37.2794 57.7061 36.3286 58.6539C35.5367 59.4435 35.7674 60.6327 36.7523 60.8373C36.9779 60.8842 36.9714 60.8743 36.6949 60.7489C36.2639 60.5536 36.0766 60.2831 36.0742 59.8525C36.0687 58.8424 37.2225 58.2754 38.296 58.7605C39.082 59.1157 39.3942 59.58 39.3942 60.3936C39.3942 61.6465 38.3294 62.5906 37.0903 62.4363C36.428 62.3538 35.6179 61.9295 35.1837 61.4377C34.0907 60.1999 34.5165 58.2469 36.0424 57.4977C37.204 56.9272 38.7481 57.0678 39.9454 57.853C41.3212 58.7555 41.9064 59.5801 43.0912 62.287C43.4771 63.1682 43.9735 64.1603 44.1943 64.4915C45.3166 66.1745 46.6616 67 48.2816 67C49.1749 67 49.8472 66.8364 50.6926 66.4134C51.3211 66.0991 52.2117 65.5019 52.1476 65.4381C52.1292 65.4198 51.8686 65.5009 51.5684 65.6182C49.7997 66.3092 48.0016 66.2616 46.9573 65.4961C46.3 65.0141 45.7693 64.0543 45.4968 62.8535C45.4497 62.6457 45.2938 61.7279 45.1507 60.814C44.7877 58.497 44.439 57.4557 43.6262 56.2607C42.7946 55.038 41.1956 54.0118 39.4079 53.5535C38.2927 53.2677 36.2865 53.1899 35.0822 53.3859ZM31.1684 35.4736C31.4098 34.5809 32.1894 33.7296 32.9913 33.4829C33.5013 33.3261 34.5554 33.4262 35.051 33.6785C36.0115 34.1676 36.7089 35.2818 36.5575 36.0857C36.3729 37.0665 34.7852 37.8511 32.9589 37.8638C32.026 37.8704 31.6815 37.7448 31.3253 37.2683C31.1047 36.9734 31.0212 36.0181 31.1684 35.4736ZM34.8058 34.028C35.2848 34.3209 35.408 34.7542 35.1263 35.1549C34.9324 35.4312 34.3317 35.6933 33.8929 35.6933C33.2334 35.6933 32.5141 35.2246 32.5141 34.7949C32.5141 33.9317 33.8936 33.4701 34.8058 34.028Z" fill="#FD2CDC"></path></svg>