<svg xmlns="http://www.w3.org/2000/svg" width="83" height="83" viewBox="0 0 83 83" fill="none"><path d="M41.5 1.29688C19.2897 1.29688 1.29688 19.2923 1.29688 41.5C1.29688 63.7077 19.2923 81.7031 41.5 81.7031C63.7103 81.7031 81.7031 63.7077 81.7031 41.5C81.7031 19.2923 63.7077 1.29688 41.5 1.29688Z" fill="white"></path><path fill-rule="evenodd" clip-rule="evenodd" d="M36.6188 19.7707C33.7418 21.2913 31.388 22.578 31.3885 22.6304C31.3898 22.7654 38.2934 26.3128 38.5385 26.3041C38.6499 26.3003 39.4585 25.9227 40.3352 25.465L41.9295 24.633L43.6706 25.5411L45.4117 26.4493L48.263 25.1494C52.5594 23.1906 53.0056 22.9759 52.9357 22.9038C52.8429 22.8081 51.3018 21.9682 47.1209 19.7349C45.1004 18.6555 43.1392 17.5973 42.7627 17.3831C42.3863 17.169 42.0269 16.9967 41.9641 17C41.9014 17.0034 39.4959 18.2502 36.6188 19.7707ZM24.0003 26.4005L21.0054 27.9701V34.8587C21.0054 38.6474 21.0447 41.7472 21.093 41.7472C21.141 41.7472 22.6145 41.0991 24.3674 40.307L27.5543 38.8669V31.6058L29.1116 32.4667C30.3117 33.1295 31.5125 33.7909 32.714 34.4509L34.759 35.5743L35.6689 35.1568C36.2396 34.8946 36.8092 34.6298 37.3776 34.3624C37.8168 34.1549 38.895 33.6622 39.7734 33.2673C40.6519 32.8723 41.4651 32.475 41.5804 32.3845C41.7336 32.2642 39.8658 31.2169 34.6719 28.5108C30.7568 26.471 27.428 24.8085 27.2744 24.8164C27.1209 24.8244 25.6476 25.5371 24.0003 26.4005ZM53.4754 26.8413C51.4357 27.7755 49.7654 28.5773 49.7635 28.623C49.7617 28.6687 50.8734 29.3393 52.2341 30.1132C53.5947 30.8872 54.708 31.5618 54.708 31.6126C54.708 31.6633 53.504 32.2552 52.0326 32.9282C50.561 33.601 46.8414 35.3054 43.7667 36.7156L33.4642 41.4405C30.8726 42.6292 28.5366 43.7006 28.2731 43.8217C22.9796 46.253 21.5247 46.9276 21.3249 47.0434C21.1239 47.16 21.0784 47.8374 21.0427 51.237L21 55.2918L23.6782 56.6763L26.3563 58.0608L30.07 56.3603C32.1126 55.4252 33.7837 54.611 33.7837 54.551C33.7837 54.4912 33.4062 54.2417 32.9451 53.9963C32.4838 53.7509 31.5315 53.2077 30.8287 52.7889C30.1259 52.37 29.4252 51.9858 29.2713 51.9348C29.1175 51.884 28.9939 51.7951 28.9964 51.7371C28.999 51.6793 30.6343 50.8912 32.6303 49.9856C36.507 48.227 39.4738 46.8715 45.8431 43.9491C48.6912 42.6426 51.5397 41.3368 54.3886 40.0319C56.8923 38.8853 59.8033 37.5461 60.8576 37.056L62.7743 36.1649L62.8169 32.064L62.8597 27.9633L60.1434 26.5487C58.6493 25.7707 57.3723 25.1361 57.3053 25.1384C57.2384 25.1405 55.515 25.9067 53.4754 26.8413ZM62.0465 41.6357C61.6463 41.8341 60.8556 42.2056 60.2896 42.4611C59.7235 42.7166 58.6493 43.2083 57.9026 43.554L56.5449 44.1823L56.5139 47.7826C56.4968 49.7626 56.4249 51.3739 56.3542 51.3635C56.1935 51.3392 53.6489 50.0151 51.091 48.6245C49.2448 47.6209 49.1289 47.581 48.695 47.799C48.4443 47.9251 46.9453 48.6072 45.364 49.3151C43.7826 50.0228 42.4373 50.6481 42.374 50.7048C42.3109 50.7613 45.4935 52.5114 49.4466 54.5942L56.6339 58.381L59.7042 56.7695C61.3926 55.8833 62.8284 55.075 62.8946 54.9733C63.0434 54.7447 63.0306 41.2437 62.8816 41.2619C62.8227 41.2691 62.4468 41.4374 62.0465 41.6357ZM45.0445 57.4825C44.5119 57.7148 43.9795 57.9475 43.4472 58.1805C41.8399 58.886 42.1549 58.9094 40.2426 57.9435C38.9689 57.3003 38.4199 57.1018 38.1816 57.1981C38.0029 57.2704 36.4645 57.9726 34.7628 58.7586C33.0612 59.5445 31.6099 60.1876 31.5377 60.1876C30.8238 60.1876 32.0107 60.9071 36.5907 63.2512L41.9621 66L44.222 64.868C45.4651 64.2453 47.9721 62.9985 49.7935 62.0973C51.6147 61.1958 53.0823 60.435 53.0549 60.4063C53.0272 60.3777 51.5011 59.5826 49.6635 58.6394L46.3223 56.9248L45.0445 57.4825Z" fill="#0EA6FC"></path></svg>