<svg xmlns="http://www.w3.org/2000/svg" width="83" height="83" viewBox="0 0 83 83" fill="none"><path d="M41.5 1.29688C19.2897 1.29688 1.29688 19.2923 1.29688 41.5C1.29688 63.7077 19.2923 81.7031 41.5 81.7031C63.7103 81.7031 81.7031 63.7077 81.7031 41.5C81.7031 19.2923 63.7077 1.29688 41.5 1.29688Z" fill="white"></path><g clip-path="url(#clip0_468_82)"><path d="M54.4264 43.8573C52.7078 42.8755 51.1356 41.9567 49.5396 41.0819C49.0924 40.8365 48.884 40.569 48.8983 40.0466C48.9126 39.4755 48.8044 38.9028 48.7535 38.3647C49.6589 38.1633 50.5548 38.05 51.3886 37.7621C54.6412 36.6403 56.0113 33.5046 54.5632 30.4223C54.2259 29.7049 54.2927 29.3005 54.8417 28.753C55.6023 27.9946 56.2372 27.1151 56.9788 26.2246C57.9542 27.8672 58.6464 29.579 58.9328 31.4089C59.154 32.8249 59.2161 34.2708 59.2606 35.7073C59.3545 38.6668 59.2543 41.6389 59.4802 44.5874C59.808 48.8685 60.9649 52.9671 62.8442 56.8533C62.9428 57.0563 63.0272 57.2655 62.9922 57.5834C61.2115 56.1721 59.4325 54.7607 57.5659 53.2802C56.1943 55.4719 54.8385 57.6369 53.4254 59.8915C51.971 58.5494 50.5659 57.253 49.0733 55.8747C46.7533 59.591 44.4698 63.2475 42.1274 67C39.7914 63.2569 37.5175 59.6114 35.1847 55.8715C33.7207 57.2262 32.3029 58.5384 30.8326 59.8978C29.4545 57.6904 28.0956 55.5144 26.6953 53.2708C24.8271 54.7576 22.9972 56.213 20.9985 57.8021C21.1354 57.4465 21.1863 57.2687 21.2691 57.1066C23.5493 52.5329 24.7332 47.6837 24.9035 42.6002C25.0101 39.4299 24.9449 36.2548 25.0865 33.0861C25.1947 30.6536 26.0365 28.4006 27.265 26.2372C28.1577 27.2709 29.0345 28.2385 29.8365 29.2612C29.9781 29.4421 29.8985 29.9 29.7744 30.1612C29.1681 31.4387 28.9326 32.7557 29.3018 34.1276C29.916 36.4106 32.0976 38.017 34.7678 38.1995C35.0017 38.2152 35.2372 38.2215 35.4902 38.2341C35.4505 38.9468 35.4648 39.6234 35.3518 40.2795C35.3057 40.5501 35.0367 40.8585 34.7837 41.0095C33.1972 41.9535 31.5884 42.8567 29.8412 43.8557C30.6623 44.312 31.3736 44.7384 32.112 45.1097C34.0708 46.0978 35.9231 47.2023 36.9319 49.2587C37.5541 50.5284 38.267 51.7714 38.7237 53.0993C39.8567 56.3845 40.8655 59.7121 41.9269 63.0209C41.9731 63.1641 42.0351 63.3025 42.1608 63.6282C42.7576 61.6285 43.2222 59.7719 43.8667 57.9783C44.8565 55.2265 45.8956 52.4872 47.054 49.8015C47.8528 47.9512 49.2293 46.5525 51.1213 45.6714C52.2145 45.1616 53.2409 44.5134 54.428 43.8557L54.4264 43.8573Z" fill="black"></path><path d="M58.3565 19.9862C58.121 20.4661 57.8902 21.0388 57.5752 21.5596C55.1803 25.515 51.767 28.4604 47.9321 30.9731C47.1396 31.4923 46.301 31.947 45.4513 32.3686C45.2285 32.4788 44.8323 32.4567 44.6127 32.3309C42.9466 31.379 41.3124 31.357 39.6495 32.334C39.4426 32.4552 39.0655 32.5102 38.8698 32.4064C33.66 29.6105 29.1821 26.028 26.2701 20.7934C26.0982 20.485 25.9757 20.1483 25.8818 19.9375C26.808 20.5652 27.7611 21.2449 28.7509 21.8664C29.3492 22.2409 29.8743 22.1213 30.4265 21.6005C33.7682 18.4459 37.8164 16.9339 42.3945 17.0016C46.7895 17.0661 50.6786 18.5796 53.8675 21.6383C54.3783 22.1276 54.8573 22.2393 55.4031 21.9105C56.4072 21.3047 57.3731 20.6329 58.3565 19.9862Z" fill="black"></path><path d="M35.4663 43.8227C36.149 43.4278 36.6725 43.0612 37.2469 42.8079C37.9694 42.4901 38.0935 41.9772 38.1492 41.2487C38.2526 39.8799 38.3513 38.4623 38.8 37.1847C39.1135 36.2895 39.9044 35.476 40.6634 34.8372C41.6261 34.027 42.7846 34.167 43.7998 34.9348C45.2972 36.0676 45.8859 37.6457 46.0626 39.4252C46.096 39.7634 46.1565 40.1175 46.0944 40.4431C45.8239 41.8639 46.4572 42.7198 47.7509 43.2264C48.0899 43.3602 48.3906 43.5899 48.7821 43.8196C44.6432 46.1906 43.5229 50.3491 42.1385 54.6019C40.7334 50.4151 39.6482 46.219 35.4663 43.8212V43.8227Z" fill="black"></path><path d="M51.9838 31.5284C52.7588 33.0294 52.2862 34.4171 50.7028 35.0858C49.3121 35.6743 47.9436 35.5484 46.6133 34.8781C48.4257 33.7485 50.2064 32.6377 51.9838 31.53V31.5284Z" fill="black"></path><path d="M37.5872 34.8499C36.0835 35.7593 33.8812 35.6287 32.7052 34.5557C31.8046 33.7344 31.6645 32.7195 32.266 31.5222C34.0403 32.6314 35.8162 33.7407 37.5888 34.8499H37.5872Z" fill="black"></path></g><defs><clipPath id="clip0_468_82"><rect width="42" height="50" fill="white" transform="translate(21 17)"></rect></clipPath></defs></svg>