<svg xmlns="http://www.w3.org/2000/svg" width="40" height="40" viewBox="0 0 40 40" fill="none"><g clip-path="url(#clip0_468_71)"><path fill-rule="evenodd" clip-rule="evenodd" d="M0.625 20C0.625 9.2975 9.29625 0.625 20 0.625C30.7025 0.625 39.375 9.2975 39.375 20C39.375 30.7025 30.7038 39.375 20 39.375C9.2975 39.375 0.625 30.7025 0.625 20ZM20.0184 10.041L20.2751 10.0413C22.3293 10.0465 24.3646 10.1116 24.3646 10.1116C27.4871 10.1116 29.9477 12.5722 29.9477 15.6947C29.9477 15.6947 30.0075 17.5242 30.0171 19.4632L30.0184 19.9703C30.0184 22.1314 29.9477 24.3873 29.9477 24.3873C29.9477 27.5097 27.4871 29.9703 24.3647 29.9703C24.3647 29.9703 22.0125 30.041 19.8064 30.041C17.7415 30.041 15.7428 29.9703 15.7428 29.9703C12.6203 29.9703 10.089 27.439 10.089 24.3166C10.089 24.3166 10.0184 22.035 10.0184 19.829L10.0187 19.5713C10.0241 17.601 10.089 15.7654 10.089 15.7654C10.089 12.6429 12.6203 10.1116 15.7428 10.1116C15.7428 10.1116 17.8806 10.041 20.0184 10.041ZM24.0191 11.8989C24.0191 11.8989 21.7714 11.8409 20.0184 11.8409C18.2653 11.8409 16.0883 11.8989 16.0883 11.8989C13.528 11.8989 11.8763 13.4798 11.8763 16.0402C11.8763 16.0402 11.8184 18.1739 11.8184 19.8671C11.8184 21.6761 11.8763 23.9709 11.8763 23.9709C11.8763 26.5313 13.5279 28.1829 16.0883 28.1829C16.0883 28.1829 18.1514 28.2409 19.8445 28.2409L20.3067 28.2397C22.0314 28.2316 24.0191 28.1829 24.0191 28.1829C26.5795 28.1829 28.1604 26.602 28.1604 24.0416C28.1604 24.0416 28.2184 21.755 28.2184 19.9829C28.2184 18.2495 28.1604 16.0402 28.1604 16.0402C28.1604 13.4798 26.5795 11.8989 24.0191 11.8989ZM14.8958 20.0409C14.8958 17.2118 17.1892 14.9184 20.0183 14.9184C22.8474 14.9184 25.1409 17.2118 25.1409 20.0409C25.1409 22.87 22.8474 25.1634 20.0183 25.1634C17.1892 25.1634 14.8958 22.87 14.8958 20.0409ZM23.3517 20.0409C23.3517 18.1999 21.8593 16.7076 20.0183 16.7076C18.1774 16.7076 16.685 18.1999 16.685 20.0409C16.685 21.8819 18.1774 23.3742 20.0183 23.3742C21.8593 23.3742 23.3517 21.8819 23.3517 20.0409ZM24.1482 14.7407C24.1482 14.0537 24.7024 13.4968 25.386 13.4968C26.0696 13.4968 26.6237 14.0537 26.6237 14.7407C26.6237 15.4277 26.0696 15.9845 25.386 15.9845C24.7024 15.9845 24.1482 15.4277 24.1482 14.7407Z" fill="#FFDF3A"></path></g><defs><clipPath id="clip0_468_71"><rect width="40" height="40" fill="white"></rect></clipPath></defs></svg>