<svg xmlns="http://www.w3.org/2000/svg" width="40" height="40" viewBox="0 0 40 40" fill="none"><g clip-path="url(#clip0_468_65)"><path d="M20 0.625C9.29625 0.625 0.625 9.2975 0.625 20C0.625 30.7025 9.2975 39.375 20 39.375C30.7038 39.375 39.375 30.7025 39.375 20C39.375 9.2975 30.7025 0.625 20 0.625ZM28.5163 12.8988L25.3363 27.8838C25.1012 28.9463 24.4688 29.2038 23.5863 28.7038L18.7425 25.1337L16.4062 27.3838C16.1488 27.6413 15.93 27.86 15.43 27.86L15.7738 22.93L24.75 14.82C25.1413 14.4762 24.6637 14.2812 24.1475 14.625L13.0538 21.6087L8.2725 20.1162C7.23375 19.7887 7.21 19.0775 8.49125 18.5775L27.1713 11.3738C28.0388 11.0613 28.7962 11.585 28.515 12.8975L28.5163 12.8988Z" fill="#FFDF3A"></path></g><defs><clipPath id="clip0_468_65"><rect width="40" height="40" fill="white"></rect></clipPath></defs></svg>