<svg xmlns="http://www.w3.org/2000/svg" width="40" height="40" viewBox="0 0 40 40" fill="none"><path fill-rule="evenodd" clip-rule="evenodd" d="M0.625 20.375C0.625 9.6725 9.29625 1 20 1C30.7025 1 39.375 9.6725 39.375 20.375C39.375 31.0775 30.7038 39.75 20 39.75C9.2975 39.75 0.625 31.0775 0.625 20.375ZM23.174 8.75496C22.4827 8.75602 21.7901 8.75709 21.0943 8.76771C21.0777 10.9922 21.0784 13.2168 21.0791 15.4434C21.0795 16.7796 21.0799 18.1165 21.0766 19.4547C21.0743 19.8718 21.075 20.2884 21.0757 20.7046C21.0778 21.8698 21.0799 23.0328 21.0146 24.2005C21.0063 24.5256 20.841 24.8115 20.6813 25.0877C20.6713 25.1049 20.6614 25.122 20.6516 25.1391C20.1381 25.9802 19.1907 26.5557 18.199 26.5646C16.7115 26.6974 15.3125 25.4755 15.1 24.0234C15.0987 23.9492 15.0962 23.8745 15.0938 23.7996C15.0804 23.3924 15.0669 22.9793 15.224 22.5979C15.4453 21.9693 15.8703 21.4115 16.4282 21.0484C17.1985 20.5172 18.2256 20.4375 19.1021 20.7208C19.1021 20.1592 19.1119 19.5976 19.1216 19.036C19.1346 18.2872 19.1477 17.5384 19.1375 16.7896C17.2162 16.4266 15.162 17.0375 13.6922 18.3125C12.3995 19.4104 11.5672 21.0219 11.4078 22.7042C11.3901 23.138 11.399 23.5807 11.4167 24.0234C11.6026 26.0953 12.8599 28.0255 14.6485 29.0792C15.7287 29.7167 16.9948 30.062 18.261 29.9911C20.324 29.9557 22.3339 28.849 23.4938 27.149C24.211 26.1307 24.6183 24.9 24.6891 23.6604C24.7057 22.0501 24.705 20.4364 24.7043 18.8213C24.7039 17.8522 24.7035 16.8826 24.7068 15.913C25.1672 16.2141 25.6365 16.5062 26.1412 16.7365C27.3011 17.2854 28.5849 17.551 29.8599 17.5953V14.0271C28.4964 13.8766 27.0974 13.425 26.1058 12.4422C25.1141 11.4859 24.6271 10.1047 24.5563 8.75C24.0957 8.75354 23.6352 8.75425 23.174 8.75496Z" fill="#FFDF3A"></path></svg>