<svg xmlns="http://www.w3.org/2000/svg" width="29" height="28" viewBox="0 0 29 28" fill="none"><rect width="29" height="28" fill="#F5F5F5"></rect><g id="MOG"><rect width="430" height="4270" transform="translate(-56 -2193)" fill="#083ADB"></rect><g id="Group 16"><g id="Group 18"><path id="Union" fill-rule="evenodd" clip-rule="evenodd" d="M5.92094 12.8524C5.86084 12.997 5.82989 13.152 5.82986 13.3086L5.83009 20.7396C5.82989 20.983 5.74014 21.2178 5.57795 21.3993C5.41578 21.5808 5.1925 21.6963 4.95066 21.7237C4.3951 21.789 3.92784 21.8358 3.55255 21.8687C3.21659 21.8987 2.87906 21.8322 2.57959 21.6771C2.28012 21.5219 2.03114 21.2845 1.8619 20.9928C0.890415 19.3014 0.282699 17.4259 0.0776511 15.4863C-0.127397 13.5466 0.0747364 11.5855 0.671117 9.72844C1.2675 7.87137 2.24499 6.15925 3.54105 4.70167C4.8371 3.24406 6.42318 2.07308 8.19777 1.26364C9.97234 0.454211 11.8964 0.0241502 13.8467 0.000988192C15.797 -0.022174 17.7307 0.362072 19.524 1.12913C21.3174 1.8962 22.9308 3.02919 24.2611 4.45559C25.5915 5.882 26.6092 7.57042 27.2496 9.41279C27.3568 9.72466 27.3851 10.0582 27.3321 10.3837C27.2791 10.7092 27.1463 11.0165 26.9455 11.2782C25.5622 13.0811 23.819 14.5804 22.0988 15.827V7.36485C22.0988 7.04913 21.9734 6.74634 21.7502 6.5231C21.5269 6.29984 21.2242 6.17444 20.9084 6.17444H18.9243C18.6086 6.17451 18.3059 6.29993 18.0827 6.52317C17.8595 6.74641 17.7342 7.04917 17.7342 7.36485V17.641C17.734 17.8361 17.6764 18.0269 17.5685 18.1896C17.4606 18.3522 17.3072 18.4795 17.1274 18.5555C16.6436 18.7597 16.1468 18.9607 16.1468 18.9607V10.3409C16.1468 10.0251 16.0214 9.72231 15.7981 9.49903C15.5749 9.27575 15.2721 9.1503 14.9564 9.15023H12.9723C12.6566 9.1503 12.3538 9.27575 12.1305 9.49903C11.9073 9.72231 11.7819 10.0251 11.7819 10.3409V19.6285C11.7819 19.8521 11.7064 20.069 11.5676 20.2443C11.4288 20.4195 11.2349 20.5426 11.0173 20.5937C10.704 20.6675 10.4177 20.738 10.1948 20.8042V13.3169C10.1948 13.0012 10.0693 12.6984 9.84608 12.4751C9.62285 12.2519 9.32006 12.1265 9.00436 12.1265L7.02419 12.12C6.86762 12.1193 6.71246 12.1495 6.5676 12.2089C6.42274 12.2683 6.29106 12.3557 6.18007 12.4662C6.0691 12.5766 5.98104 12.7079 5.92094 12.8524ZM12.9276 27.9564C10.3494 27.7524 7.87785 26.839 5.7865 25.3176L5.78694 25.3165C13.4354 24.2291 22.8925 20.6578 28.0144 13.0188C28.0359 13.3362 28.0508 13.6555 28.0508 13.9782C28.0515 16.5645 27.3367 19.1006 25.9856 21.3058C24.6343 23.511 22.6994 25.2994 20.3948 26.4732C18.0902 27.647 15.5058 28.1602 12.9276 27.9564Z" fill="white"></path></g></g></g></svg>