<svg xmlns="http://www.w3.org/2000/svg" width="27" height="28" viewBox="0 0 27 28" fill="none"><path d="M23.4842 16.7403C23.006 17.0388 22.4481 17.093 22.023 16.8488C21.4917 16.5233 21.1729 15.7907 21.1729 14.7868V11.7209C21.1729 10.2558 20.6151 9.19767 19.6587 8.92635C18.0382 8.43798 16.8161 10.4729 16.3645 11.2326L13.4954 15.9264V10.1473C13.4689 8.81783 13.0438 8.03101 12.2468 7.78682C11.7155 7.62403 10.9185 7.70543 10.1481 8.89923L3.74578 19.3721C2.89567 17.7171 2.44405 15.8721 2.44405 14C2.44405 7.6783 7.41186 2.55039 13.4954 2.55039C19.579 2.55039 24.5468 7.6783 24.5468 14V14.0271V14.0543C24.5999 15.2752 24.228 16.2519 23.4842 16.7403ZM26.9909 14V13.9729V13.9457C26.9643 6.26744 20.9073 0 13.4954 0C6.057 0 0 6.26744 0 14C0 21.7054 6.057 28 13.4954 28C16.9224 28 20.1634 26.6705 22.6606 24.2558C23.1654 23.7674 23.1919 22.9806 22.7138 22.4651C22.2621 21.9496 21.4917 21.9225 20.987 22.3837C20.987 22.3837 20.987 22.3837 20.9604 22.4109C18.9414 24.3643 16.2317 25.4767 13.4423 25.4767C10.1747 25.4767 7.25246 24.0116 5.23346 21.6783L10.9982 12.2364V16.6047C10.9982 18.6938 11.7952 19.3721 12.4594 19.562C13.1235 19.7519 14.133 19.6163 15.2222 17.8527L18.3835 12.6163C18.4898 12.4535 18.5695 12.2907 18.6758 12.1822V14.8411C18.6758 16.7946 19.4462 18.3682 20.7745 19.1279C21.9699 19.8333 23.4842 19.7519 24.7328 18.9651C26.2736 17.9341 27.0971 16.1434 26.9909 14Z" fill="white"></path></svg>