<svg xmlns="http://www.w3.org/2000/svg" width="40" height="40" viewBox="0 0 40 40" fill="none"><g clip-path="url(#clip0_468_61)"><path fill-rule="evenodd" clip-rule="evenodd" d="M0.625 20C0.625 9.2975 9.29625 0.625 20 0.625C30.7025 0.625 39.375 9.2975 39.375 20C39.375 30.7025 30.7038 39.375 20 39.375C9.2975 39.375 0.625 30.7025 0.625 20ZM28.9224 10L21.6408 18.4643H21.6404L29.5599 29.9897H23.7355L18.4025 22.2285L11.7256 29.9897H10L17.6364 21.1136L10 10H15.8244L20.8743 17.3494L27.1969 10H28.9224ZM18.5036 20.1049L19.2773 21.2115V21.212L24.5473 28.7498H27.1977L20.7397 19.5123L19.966 18.4056L14.9978 11.299H12.3474L18.5036 20.1049Z" fill="#FFDF3A"></path></g><defs><clipPath id="clip0_468_61"><rect width="40" height="40" fill="white"></rect></clipPath></defs></svg>