<svg xmlns="http://www.w3.org/2000/svg" id="Capa_1" data-name="Capa 1" viewBox="0 0 256 256"><defs><style>      .cls-1, .cls-2 {        stroke-width: 0px;      }      .cls-2 {        fill: #fff;      }    </style></defs><polygon class="cls-2" points="92.28 66.06 184.73 189.65 163.8 189.65 71.35 66.06 92.28 66.06"></polygon><g><polygon class="cls-1" points="184.73 189.65 163.8 189.65 71.35 66.06 92.28 66.06 184.73 189.65"></polygon><path class="cls-1" d="m217.27,38.44C194.39,15.56,162.78,1.41,127.86,1.41,58.02,1.41,1.41,58.02,1.41,127.86c0,34.92,14.15,66.53,37.03,89.41,22.89,22.89,54.5,37.04,89.42,37.04s66.53-14.15,89.41-37.04c22.89-22.88,37.04-54.49,37.04-89.41s-14.15-66.53-37.04-89.42Zm-58.41,161.08l-42.09-56.27-52.09,56.27h-13.39l59.5-64.27L51.66,56.19h45.57l38.76,51.83,47.97-51.83h13.39l-55.38,59.83,62.46,83.5h-45.57Z"></path><path class="cls-2" d="m141.97,116.02l55.38-59.83h-13.39l-47.97,51.83-38.76-51.83h-45.57l59.13,79.06-59.5,64.27h13.39l52.09-56.27,42.09,56.27h45.57l-62.46-83.5Zm-70.62-49.96h20.93l92.45,123.59h-20.93l-92.45-123.59Z"></path></g></svg>