<svg width="48" height="48" viewBox="0 0 48 48" fill="none" xmlns="http://www.w3.org/2000/svg">
<circle cx="24" cy="24.0114" r="23.1424" stroke="white" stroke-width="1.49306"/>
<path d="M34.1748 12.0693C33.8798 12.0932 33.5902 12.1703 33.3174 12.2975H33.3137C33.0518 12.4131 31.8065 12.9963 29.9133 13.8803L23.1292 17.0612C18.2612 19.3428 13.4758 21.5896 13.4758 21.5896L13.5328 21.565C13.5328 21.565 13.2029 21.6858 12.8583 21.9487C12.6454 22.0995 12.4622 22.2969 12.3197 22.5288C12.1506 22.8051 12.0146 23.2276 12.0652 23.6645C12.1479 24.4032 12.578 24.8462 12.8868 25.0907C13.1992 25.3383 13.497 25.454 13.497 25.454H13.5043L17.9919 27.137C18.1932 27.8563 19.3594 32.1248 19.6397 33.108C19.8051 33.6953 19.9659 34.0626 20.1672 34.3429C20.2646 34.4862 20.3786 34.6059 20.5155 34.7021C20.5867 34.7481 20.6626 34.7846 20.7416 34.8105L20.6956 34.7982C20.7094 34.8023 20.7204 34.8146 20.7306 34.8187C20.7673 34.8299 20.7921 34.834 20.839 34.8422C21.5494 35.0816 22.1201 34.5905 22.1201 34.5905L22.1523 34.5619L24.8018 31.8762L29.2425 35.6689L29.3436 35.717C30.269 36.1692 31.2064 35.9175 31.7017 35.4735C32.2008 35.0264 32.3947 34.4545 32.3947 34.4545L32.4268 34.3624L35.8584 14.7909C35.9559 14.308 35.9807 13.8557 35.8732 13.4168C35.7623 12.9726 35.5063 12.5905 35.1554 12.3456C34.8608 12.1462 34.5192 12.05 34.1748 12.0693ZM34.082 14.1668C34.0783 14.2312 34.0893 14.2241 34.0636 14.3479V14.3591L30.6642 33.727C30.6495 33.7546 30.6247 33.815 30.5567 33.8754C30.485 33.9388 30.428 33.9787 30.1293 33.8467L24.6979 29.2109L21.4171 32.5402L22.1063 27.6394L30.9803 18.4312C31.3461 18.0526 31.2239 17.9728 31.2239 17.9728C31.2496 17.5083 30.6715 17.8367 30.6715 17.8367L19.4816 25.5542L19.4779 25.5338L14.1146 23.5233V23.5192L14.1008 23.5161C14.1102 23.5127 14.1194 23.5086 14.1284 23.5039L14.1578 23.4875L14.1862 23.4762C14.1862 23.4762 18.9752 21.2294 23.8433 18.9479C26.2805 17.805 28.7361 16.654 30.6247 15.7659C31.7447 15.2411 32.8659 14.7193 33.9883 14.2005C34.0636 14.1678 34.0278 14.1668 34.082 14.1668Z" fill="white"/>
</svg>
