<svg width="36" height="36" viewBox="0 0 36 36" fill="none" xmlns="http://www.w3.org/2000/svg">
<rect x="0.5" y="0.5" width="35" height="35" rx="17.5" fill="white"/>
<rect x="0.5" y="0.5" width="35" height="35" rx="17.5" stroke="black"/>
<path fill-rule="evenodd" clip-rule="evenodd" d="M15.8324 5.10536C14.461 5.43523 13.5578 5.87547 12.2902 6.83224C11.8032 7.19986 11.3471 7.53433 11.2766 7.57563C11.1204 7.66714 10.8631 7.53025 10.0583 6.92728C9.71807 6.6724 9.42354 6.48038 9.40375 6.50076C9.30696 6.60042 9.82787 7.5722 10.3886 8.33802C11.5921 9.98153 13.5563 11.7272 15.3307 12.73L16.0269 13.1235L16.497 12.903C17.0916 12.6241 17.8569 12.6194 18.5248 12.8904C19.0355 13.0977 19.0383 13.0977 19.4403 12.8765C20.3211 12.3918 22.3283 10.9107 23.0669 10.2004C23.4967 9.78716 24.0768 9.15082 24.3559 8.7862C24.9104 8.06211 25.6522 6.80542 25.6039 6.67197C25.5871 6.62595 25.1854 6.83352 24.711 7.13324L23.8487 7.67818L23.565 7.44251C22.086 6.21317 21.0099 5.59024 19.7393 5.22765C18.912 4.99155 16.6058 4.91946 15.8324 5.10536ZM9.66035 10.6027C9.11568 11.8024 8.96024 12.6037 8.95514 14.238C8.94785 16.5446 8.76594 19.8615 8.5904 20.8889C8.30233 22.5748 7.89248 23.9624 7.26728 25.3689C7.08996 25.7678 6.97224 26.1225 7.00568 26.1569C7.03912 26.1914 7.6564 25.7298 8.37745 25.1311C9.09849 24.5324 9.73046 24.0693 9.78172 24.1019C9.83308 24.1345 10.2846 24.849 10.7853 25.6896C11.2859 26.5302 11.7337 27.2619 11.7804 27.3156C11.8284 27.3708 12.336 26.9644 12.9488 26.38L14.0323 25.3469L15.6781 28.1061C16.5834 29.6236 17.3752 30.9222 17.4378 30.9918C17.5222 31.0856 17.9924 30.3871 19.2614 28.2832C20.2017 26.7237 21.0087 25.448 21.0545 25.448C21.1003 25.448 21.5867 25.8824 22.1355 26.4134C22.6842 26.9444 23.1732 27.3789 23.2222 27.3789C23.2711 27.3789 23.336 27.3123 23.3664 27.231C23.4666 26.9621 25.2522 24.0534 25.317 24.0534C25.352 24.0534 25.9629 24.5369 26.6746 25.1278C27.3862 25.7187 27.9823 26.1598 27.999 26.1081C28.0158 26.0563 27.8107 25.4643 27.5433 24.7923C26.947 23.2941 26.5082 21.5466 26.3576 20.0709C26.2952 19.4588 26.2055 17.5098 26.1584 15.7398L26.0727 12.5216L25.7361 11.4891C25.551 10.9212 25.3097 10.3046 25.2 10.1187L25.0004 9.78083L24.3893 10.5119C24.0532 10.9139 23.7485 11.3393 23.7122 11.4571C23.6759 11.5748 23.74 11.9458 23.8546 12.2815C24.1064 13.0193 24.1148 13.3755 23.8962 14.0384C23.555 15.0733 22.8427 15.6634 21.5783 15.9585L20.8127 16.1372L20.881 16.6357C20.9185 16.91 20.9699 17.2081 20.9952 17.2985C21.0204 17.3887 21.6041 17.7978 22.2923 18.2075C22.9807 18.6172 23.5294 18.9967 23.5118 19.0509C23.4943 19.1052 23.017 19.3961 22.4512 19.6974C21.1827 20.373 20.4276 21.0932 20.0003 22.0351C19.7436 22.6009 17.6102 28.8629 17.6004 29.0794C17.5897 29.3138 17.2601 28.3989 16.3576 25.6296C15.7405 23.7358 15.1909 22.2416 14.9672 21.8494C14.4486 20.9404 13.7635 20.3256 12.528 19.6604C11.9425 19.3452 11.4852 19.0511 11.5118 19.0068C11.5383 18.9625 12.0999 18.6034 12.7597 18.209C13.4194 17.8146 14.0014 17.4106 14.053 17.3113C14.1046 17.212 14.1611 16.8906 14.1786 16.5969L14.2105 16.063L13.5169 15.9335C12.6316 15.7683 12.0923 15.4827 11.641 14.9398C11.016 14.188 10.9145 13.5166 11.2429 12.3047L11.4456 11.5562L11.194 11.1807C11.0556 10.9742 10.7404 10.5693 10.4935 10.2809L10.0446 9.75648L9.66035 10.6027ZM12.4576 12.745C12.3393 13.0625 12.3939 13.6548 12.5666 13.9262C12.8171 14.3197 13.4474 14.6134 14.0416 14.6134C14.55 14.6134 15.2091 14.4404 15.2053 14.3079C15.2035 14.2382 12.6797 12.5753 12.5757 12.5753C12.5456 12.5753 12.4924 12.6517 12.4576 12.745ZM21.1463 13.3861C20.4878 13.823 19.933 14.2293 19.9138 14.2889C19.8215 14.5741 21.1517 14.7275 21.738 14.4993C22.1704 14.3311 22.5933 13.8709 22.662 13.494C22.7236 13.1562 22.5703 12.5685 22.4246 12.5836C22.3802 12.5881 21.805 12.9493 21.1463 13.3861ZM16.6553 14.3226C16.0908 14.7141 15.834 15.3224 15.6226 16.7689C15.5194 17.4758 15.3787 18.1236 15.3103 18.2086C15.2418 18.2935 14.9535 18.5011 14.6697 18.6698L14.1536 18.9766L14.7307 19.4251C15.7622 20.2271 16.4893 21.4648 17.1344 23.517C17.292 24.0185 17.455 24.4674 17.4964 24.5144C17.5378 24.5615 17.722 24.127 17.9055 23.5489C18.5135 21.6346 18.979 20.784 19.9616 19.7917L20.8355 18.9092L20.3172 18.6387C20.0321 18.4899 19.7502 18.2748 19.6908 18.1605C19.6314 18.0462 19.5374 17.501 19.4817 16.949C19.2744 14.8897 18.7193 14.0771 17.52 14.0771C17.1603 14.0771 16.9045 14.1497 16.6553 14.3226Z" fill="black"/>
</svg>
