<svg width="294" height="384" viewBox="0 0 294 384" fill="none" xmlns="http://www.w3.org/2000/svg">
<g clip-path="url(#clip0_60_2)">
<mask id="mask0_60_2" style="mask-type:luminance" maskUnits="userSpaceOnUse" x="-107" y="-54" width="500" height="500">
<path d="M393 -54H-107V446H393V-54Z" fill="white"/>
</mask>
<g mask="url(#mask0_60_2)">
<path d="M158.142 301.312L156.33 301.305L143.204 301.255L141.396 301.248L131.553 352.878L143.007 352.922L156.133 352.972L167.59 353.016L158.142 301.312Z" fill="#55321D"/>
<g style="mix-blend-mode:multiply" opacity="0.5">
<path d="M139.053 330.209C141.007 329.776 142.904 329.12 144.764 328.386C149.137 326.677 153.466 324.318 156.412 320.572C156.599 320.342 154.593 325.849 153.073 328.159C155.233 327.656 156.997 325.183 158.099 323.49C158.182 323.367 161.44 326.608 163.024 327.994L158.142 301.311L141.396 301.247L135.81 330.555C136.901 330.613 138.027 330.44 139.053 330.209Z" fill="#845339"/>
</g>
<path d="M249.775 300.01C250.298 299.756 236.557 288.164 230.46 280.921C235.785 281.259 241.166 280.735 246.596 279.174C247.892 278.799 226.766 258.389 217.914 248.936C220.848 250.607 231.992 256.193 235.182 256.799C236.762 257.09 217.781 238.289 213.608 232.977C219.739 235.723 226.285 236.278 232.67 235.068C234.047 234.809 213.12 209.964 204.204 198.975C209.581 200.552 215.141 200.849 220.45 199.575C221.918 199.218 210.22 190.772 206.435 187.298C212.868 189.699 219.538 190.309 226.185 188.07C227.448 187.65 211.778 173.043 201.13 161.248C205.002 161.197 209.177 160.513 212.172 158.123C212.213 158.091 212.42 157.873 212.313 157.815C200.172 151.278 188.233 143.32 180.426 131.877C188.085 140.004 198.669 142.498 207.299 140.002C207.386 139.978 207.419 139.921 207.464 139.872C206.815 139.424 206.166 138.961 205.517 138.489C200.26 134.642 182.803 117.998 178.846 113.56C181.345 114.804 183.924 115.51 186.662 115.702C183.605 112.893 180.714 109.719 178.355 106.078C175.795 103.444 173.38 100.442 171.194 97.0395C168.688 93.1505 164.615 85.4899 163.061 83.6516C168.272 89.8289 174.066 95.8306 180.803 95.8153C180.824 95.8154 180.836 95.8074 180.873 95.7996C166.055 83.749 155.073 63.8301 146.477 44.333C142.143 53.1555 136.939 61.3981 131.969 69.4099C125.886 79.2308 119.194 88.8426 110.915 95.475C111.01 95.5243 111.13 95.5497 111.274 95.5503C118.003 95.6169 123.833 89.6595 129.099 83.5222C127.535 85.3486 123.4 92.9779 120.873 96.8477C116.481 103.536 104.047 115.474 104.887 115.432C107.758 115.307 110.463 114.592 113.087 113.309C104.583 122.708 83.2854 139.192 84.4251 139.534C93.3688 142.188 104.421 139.503 112.21 130.719C111.737 131.376 111.225 132.004 110.828 132.592C109.46 134.547 108.135 136.527 106.74 138.466C104.036 142.236 101.183 145.924 97.9666 149.273C91.9091 155.576 84.3842 160.746 75.883 163.065C75.825 163.086 75.5613 163.331 75.689 163.381C79.1181 164.901 82.8364 165.262 86.527 164.996C76.2634 175.715 64.0662 187.077 65.1887 187.456C71.8149 189.746 78.494 189.187 84.9362 186.835C81.1175 190.28 69.3553 198.637 70.8285 199.005C76.1287 200.319 81.6896 200.065 87.0786 198.529C78.0791 209.449 56.9551 234.134 58.3418 234.403C64.7172 235.663 71.2632 235.157 77.4229 232.458C73.2016 237.738 54.919 254.033 56.5016 253.754C59.7039 253.178 70.0496 250.032 72.9882 248.384C64.0565 257.769 42.7845 278.017 44.0679 278.402C52.856 281.009 61.5295 280.911 70.0141 278.732C69.5512 279.084 69.1053 279.425 68.6594 279.765C59.1245 287.249 35.5649 299.559 36.6486 300.425C46.2936 308.09 63.3722 303.089 73.7619 300.422C74.108 300.33 74.455 300.231 74.8051 300.138C67.8541 307.278 49.4403 321.306 50.7985 321.451C64.4464 322.973 78.4831 319.444 91.773 312.109C91.6406 312.258 91.5091 312.413 91.3767 312.561C91.0204 312.979 78.7433 322.727 80.0852 322.975C85.4235 323.971 101.66 317.074 107.35 314.57C105.521 316.705 98.7248 325.468 100.554 325.199C107.843 324.181 116.056 321.073 123.921 316.038C122.533 318.206 120.006 324.318 120.69 324.238C128.255 323.377 135.847 317.739 142.853 313.457C141.65 316.468 139.349 323.61 140.112 323.522C147.351 322.656 155.125 316.965 161.435 309.509C165.665 316.732 170.918 323.046 177.477 326.662C178.373 327.159 179.113 316.438 178.893 312.623C185.695 322.983 195.361 329.63 206.019 326.573C206.86 326.321 202.923 315.454 200.979 311.278C202.892 313.086 204.82 314.88 206.799 316.56C217.563 321.214 228.652 323.299 239.55 322.17C240.913 322.035 222.089 307.689 215.083 300.059C213.844 298.711 212.631 297.335 211.4 295.968C214.302 297.444 217.329 298.639 220.558 299.491C230.215 302.028 240.272 304.67 249.775 300.01Z" fill="#0D4925"/>
<g style="mix-blend-mode:multiply">
<path d="M249.775 300.009C250.299 299.756 236.557 288.163 230.46 280.92C235.785 281.258 241.166 280.734 246.597 279.173C247.892 278.798 226.766 258.388 217.914 248.935C220.848 250.606 231.992 256.192 235.182 256.798C236.763 257.089 217.782 238.288 213.609 232.976C219.74 235.722 226.286 236.278 232.67 235.067C234.047 234.809 213.12 209.963 204.204 198.974C209.581 200.551 215.141 200.848 220.45 199.575C221.918 199.218 210.22 190.772 206.435 187.297C212.868 189.699 219.538 190.309 226.186 188.069C227.448 187.649 211.778 173.043 201.131 161.248C205.002 161.196 209.177 160.512 212.173 158.123C212.214 158.09 212.42 157.872 212.314 157.814C200.173 151.277 188.234 143.319 180.426 131.876C188.086 140.003 198.669 142.497 207.299 140.001C207.386 139.977 207.419 139.92 207.464 139.871C206.815 139.423 206.166 138.96 205.517 138.488C200.26 134.641 182.803 117.997 178.846 113.559C181.345 114.803 183.924 115.509 186.663 115.701C183.605 112.893 180.714 109.718 178.355 106.077C175.795 103.443 173.38 100.441 171.194 97.0386C168.688 93.1496 164.615 85.489 163.061 83.6508C168.272 89.828 174.066 95.8297 180.804 95.8144C180.825 95.8145 180.837 95.8066 180.874 95.7987C166.203 83.8566 155.282 64.1887 146.714 44.8686C146.956 50.6033 147.811 56.3184 149.549 61.811C151.641 68.417 154.871 74.5418 158.943 80.1462C159.124 80.3857 158.776 80.6801 158.542 80.5354C154.898 78.2935 150.374 75.6326 148.383 71.6387C148.58 74.1182 148.653 76.5982 148.874 79.0618C148.907 79.3337 148.55 79.4272 148.378 79.2657C146.712 77.7068 145.246 75.691 144.224 73.5251C143.838 75.5578 143.224 77.5946 141.905 79.0023C141.757 79.1586 141.459 79.0915 141.411 78.8765C141.042 77.3425 140.917 75.6745 140.997 74.0313C140.38 75.059 139.684 76.0245 139.013 77.023C137.095 79.8821 135.521 83.1541 132.54 85.078C132.334 85.2171 132.047 84.9822 132.126 84.7477C133.089 81.6332 134.386 78.4011 134.667 75.1072C133.116 77.651 131.019 79.9988 128.519 81.2532C128.316 81.3593 127.991 81.1812 128.095 80.9268C128.773 79.191 129.793 77.5883 130.468 75.8535C124.999 83.0401 119.53 90.3906 112.047 95.5274C118.449 95.1521 124.04 89.4247 129.099 83.5213C127.535 85.3477 123.401 92.977 120.873 96.8468C116.482 103.535 104.047 115.473 104.888 115.431C105.012 115.423 105.135 115.411 105.254 115.403C109.027 113.214 112.452 110.397 115.524 107.337C119.381 103.505 122.898 99.2184 125.376 94.3593C125.554 94.0093 126.031 94.3208 125.881 94.6539C124.307 98.1448 122.281 101.342 119.987 104.393C125.087 102.003 129.029 97.5204 133.031 93.6931C133.275 93.4632 133.652 93.7564 133.495 94.0525C132.682 95.5321 131.939 97.0449 131.097 98.5163C133.518 96.7791 135.323 94.3153 137.48 92.2843C137.687 92.0833 138.028 92.2864 137.961 92.5749C137.484 94.6122 136.533 96.5598 136.269 98.6469C138.672 96.0155 140.411 92.843 142.51 89.9846C142.691 89.7305 143.153 89.8762 143.04 90.2094C142.211 92.8009 141.644 95.5333 141.437 98.259C141.254 100.606 141.186 103.299 142.319 105.454C144.121 100.469 145.705 95.3559 149 91.1223C149.198 90.8713 149.626 91.0008 149.535 91.3462C149.1 93.062 148.596 94.8144 148.787 96.5906C150.244 94.6269 150.826 92.1174 152.694 90.444C152.88 90.2759 153.205 90.3801 153.195 90.6518C153.053 95.4369 154.707 100.253 156.791 104.512C157.249 105.436 157.731 106.337 158.239 107.232C157.148 102.697 156.652 98.0862 156.88 93.3554C156.902 93.0138 157.346 92.9745 157.461 93.2797C159.392 98.797 161.302 104.492 164.657 109.345C167.663 113.697 171.553 117.366 174.431 121.804C174.574 122.027 174.34 122.294 174.101 122.231C169.875 121.119 166.762 117.78 163.853 114.606C165.592 117.702 167.908 120.437 169.676 123.528C169.807 123.755 169.592 124.026 169.345 123.955C166.111 123.115 162.87 121.925 160.032 120.151C159.201 119.629 158.367 119.041 157.612 118.395C158.263 120.383 158.922 122.392 159.846 124.278C159.977 124.566 159.613 124.902 159.383 124.638C156.849 121.667 154.098 118.588 152.872 114.844C152.722 117.603 152.341 120.344 151.803 123.052C151.736 123.369 151.324 123.293 151.235 123.05C150.574 121.363 150.284 119.508 150.25 117.671C149.002 120.965 147.68 124.387 145.051 126.803C144.827 127.004 144.498 126.802 144.557 126.517C144.947 124.739 145.402 122.987 145.789 121.213C141.529 126.892 135.728 131.657 128.885 133.311C128.667 133.367 128.388 133.1 128.562 132.881C130.846 129.925 132.917 126.836 134.844 123.651C133.353 124.786 131.817 125.85 130.19 126.812C127.557 128.372 124.809 129.86 122.052 131.192C119.923 132.214 117.365 133.444 114.945 132.948C114.768 132.903 114.673 132.667 114.773 132.515C116.153 130.329 118.194 128.747 119.779 126.727C120.715 125.54 121.346 124.172 122.043 122.84C120.422 124.423 118.522 125.788 116.318 125.981C116.042 126.013 115.954 125.658 116.11 125.486C117.562 123.902 118.495 121.994 119.458 120.119C113.46 126.748 105.093 130.778 97.4113 135.127C94.732 136.648 91.8773 138.022 88.9414 138.958C88.0751 139.234 86.5286 139.747 85.1988 139.742C93.9871 142.032 104.648 139.251 112.21 130.718C111.738 131.375 111.225 132.003 110.828 132.591C109.461 134.546 108.135 136.526 106.74 138.465C104.434 141.676 102.016 144.831 99.3524 147.767C99.4595 147.713 99.5586 147.664 99.6617 147.607C101.313 146.703 102.977 145.745 104.562 144.709C108.204 142.309 111.616 139.391 115.717 137.775C115.972 137.669 116.156 137.995 116.045 138.196C114.053 142.006 110.461 144.439 107.722 147.638C115.469 146.695 122.611 143.311 129.817 140.513C130.09 140.415 130.31 140.821 130.095 141.009C128.732 142.199 127.258 143.247 125.898 144.441C128.557 143.829 130.849 142.149 133.226 140.881C133.564 140.7 133.839 141.18 133.521 141.385C131.894 142.429 130.636 143.894 129.206 145.182C128.016 146.231 119.91 150.879 117.895 153.186C120.065 153.319 128.875 149.827 131.181 148.839C136.912 146.361 142.384 143.663 147.652 140.302C147.944 140.114 148.219 140.514 148.004 140.756C146.841 142.036 145.671 143.325 144.513 144.61C147.311 143.373 149.541 140.761 151.407 138.459C151.58 138.236 151.884 138.44 151.904 138.662C152.255 142.956 152.764 147.594 154.28 151.756C154.282 151.407 154.283 151.06 154.301 150.723C154.431 147.172 155.019 143.678 155.609 140.188C155.643 139.937 156.027 139.905 156.137 140.111C157.605 142.979 158.668 146.093 160.511 148.753C160.064 144.847 159.655 140.924 160.37 137.038C160.429 136.747 160.87 136.768 160.942 137.04C161.556 139.481 162.531 141.849 163.947 143.942C163.817 141.368 163.358 138.768 164.178 136.254C164.275 135.966 164.637 136 164.743 136.256C166.684 141.189 169.576 145.715 173.123 149.641C176.507 153.403 180.374 156.7 183.592 160.612C183.773 160.835 183.606 161.172 183.305 161.097C179.882 160.26 176.494 158.785 173.367 156.883C175.426 162.661 180.374 167.532 184.981 171.231C185.182 171.393 185.007 171.746 184.772 171.729C181.676 171.593 178.628 170.609 175.861 169.26C173.325 168.022 170.847 166.456 168.911 164.386C169.281 166.561 169.876 168.674 170.312 170.833C170.368 171.109 170.042 171.326 169.828 171.107C168.322 169.685 167.217 167.913 166.409 166.016C166.501 169.871 166.94 173.696 167.749 177.476C167.814 177.777 167.488 177.939 167.266 177.761C164.409 175.452 162.496 171.776 161.616 167.942C160.011 172.088 158.693 176.337 157.913 180.766C157.876 180.984 157.563 181.052 157.431 180.891C154.954 178.073 154.177 174.38 153.714 170.679C152.432 172.042 151.026 173.302 149.564 174.486C146.416 177.069 143.034 180.4 138.848 181.051C138.642 181.083 138.411 180.927 138.486 180.692C139.02 179.043 140.281 177.802 141.184 176.348C141.743 175.457 142.167 174.49 142.574 173.511C140.13 176.253 136.642 178.209 133.539 179.899C133.296 180.025 132.955 179.744 133.137 179.502C134.545 177.559 135.59 175.421 136.636 173.284C133.976 175.16 131.141 176.797 128.248 178.218C124.799 179.91 121.201 181.346 117.641 182.775C114.267 184.129 110.593 185.58 106.903 185.381C106.647 185.368 106.509 185.071 106.69 184.882C109.643 181.862 113.234 179.591 116.322 176.74C111.72 179.292 107.036 181.902 101.757 182.656C101.427 182.704 101.255 182.324 101.54 182.12C104.774 179.826 108.086 177.615 111.159 175.118C110.565 175.408 109.971 175.694 109.377 175.971C107.396 176.883 105.367 177.686 103.33 178.457C101.49 179.154 99.5598 179.839 97.5674 179.642C97.3327 179.616 97.1639 179.327 97.3625 179.143C101.492 175.192 105.663 171.27 109.403 166.94C106.018 169.126 103.017 171.862 99.6398 174.057C95.6515 176.645 91.4499 178.861 87.1184 180.797C82.8731 182.692 78.5329 184.545 74.0916 185.941C71.2338 186.832 68.2941 187.467 65.3246 187.501C71.9101 189.734 78.5443 189.166 84.9364 186.834C81.1177 190.279 69.3555 198.636 70.8287 199.004C76.1289 200.318 81.6899 200.064 87.0788 198.528C84.2111 202.014 80.0952 206.914 75.8707 211.973C79.5138 211.344 83.05 209.653 86.2238 207.91C90.6561 205.46 94.8036 202.524 99.2438 200.11C99.483 199.979 99.8237 200.256 99.6379 200.507C97.3651 203.603 94.4055 206.059 91.5583 208.614C96.7653 207.361 101.025 203.864 105.66 201.316C105.946 201.156 106.264 201.553 106.016 201.775C101.586 205.737 97.2743 209.863 92.1275 212.871C97.4979 212.805 102.841 211.425 107.865 209.582C113.333 207.585 118.592 204.993 123.484 201.862C123.727 201.706 124.055 202.017 123.889 202.259C122.341 204.411 120.513 206.328 118.915 208.43C122.285 207.216 124.762 204.42 127.473 202.154C127.663 201.985 128.066 202.147 127.954 202.443C125.672 208.027 122.25 213.196 117.812 217.248C121.135 216.301 124.243 214.546 127.12 212.696C131.217 210.071 135.074 207.013 139.408 204.769C139.651 204.642 139.967 204.919 139.802 205.174C138.318 207.499 136.908 209.875 135.552 212.283C139.313 209.884 141.948 206.063 145.057 202.937C145.243 202.752 145.538 202.906 145.55 203.149C145.768 206.613 145.913 210.513 147.974 213.462C148.954 210.307 149.09 206.977 149.972 203.796C150.055 203.499 150.441 203.543 150.531 203.798C151.636 206.85 153.268 209.912 156.174 211.538C156.55 208.895 156.202 206.191 156.867 203.591C156.925 203.349 157.284 203.296 157.403 203.519C158.507 205.558 159.463 207.659 161.158 209.255C161.243 207.398 160.917 205.543 160.903 203.681C160.893 203.335 161.357 203.312 161.472 203.609C163.169 208.022 167.813 210.503 171.841 212.544C172.038 209.386 170.278 206.435 170.649 203.244C170.675 203.014 170.96 202.826 171.148 203.036C173.859 206.095 176.801 209.005 180.265 211.23C182.866 212.899 185.649 214.155 188.579 215.08C188.031 213.875 187.549 212.646 187.117 211.421C185.814 207.635 184.834 203.409 185.648 199.417C185.698 199.153 186.056 199.156 186.183 199.354C192.153 208.635 197.156 218.761 206.67 225.001C206.924 225.183 206.759 225.66 206.438 225.536C202.766 224.063 199.392 222.065 196.188 219.788C201.385 226.303 207.224 232.227 213.988 237.154C214.169 237.286 214.192 237.64 213.92 237.689C208.233 238.677 202.248 237.595 196.935 235.474C194.673 234.568 192.461 233.48 190.391 232.179C192.163 234.971 194.131 237.631 196.456 240.011C200.181 243.831 204.999 246.477 208.525 250.486C208.649 250.626 208.64 250.849 208.475 250.947C205.454 252.504 201.433 251.571 198.343 250.752C194.961 249.849 191.679 248.617 188.435 247.32C185.519 246.172 182.65 244.827 179.962 243.186C181.624 245.869 183.327 248.52 185.03 251.17C185.186 251.418 184.875 251.731 184.637 251.573C181.396 249.394 177.636 247.18 174.958 244.155C176.282 246.878 177.689 249.56 179.64 251.874C181.953 254.626 185.384 256.616 186.899 259.971C186.989 260.173 186.885 260.419 186.65 260.414C183.734 260.341 180.948 258.655 178.582 257.094C175.94 255.345 173.464 253.351 170.968 251.389C167.075 248.326 163.37 244.572 160.825 240.213C160.92 244.382 161.379 248.523 162.479 252.575C162.552 252.888 162.197 253.036 161.984 252.87C158.962 250.371 156.324 246.737 155.408 242.804C154.905 248.453 154.294 254.092 154.849 259.762C154.869 260.005 154.509 260.161 154.349 259.967C152.016 257.119 149.937 253.977 148.442 250.607C148.006 249.621 147.593 248.594 147.271 247.534C145.694 249.496 143.967 251.327 142.115 253.004C139.507 255.371 136.603 257.624 133.238 258.773C133.016 258.851 132.76 258.542 132.914 258.34C134.293 256.533 135.399 254.58 136.437 252.583C135.472 253.761 134.43 254.866 133.331 255.883C131.364 257.729 129.157 259.517 126.58 260.412C126.374 260.481 126.152 260.254 126.219 260.052C126.797 258.395 127.5 256.808 128.288 255.262C125.086 257.824 121.602 260.057 118.06 262.056C114.552 264.032 110.953 265.831 107.302 267.513C103.939 269.074 100.301 270.666 96.5166 270.528C96.2329 270.519 96.0935 270.123 96.3658 269.988C104.333 266.081 111.025 260.081 116.973 253.473C114.649 254.856 112.23 256.098 109.813 257.284C103.578 260.329 97.1218 263.767 90.1912 264.787C89.8533 264.835 89.6989 264.456 89.9714 264.255C92.3923 262.399 94.7547 260.439 96.9538 258.301C93.4524 260.566 90.0164 262.943 86.3561 264.938C82.3325 267.113 77.8799 269.115 73.2145 269.014C72.9837 269.013 72.8041 268.684 73.0146 268.516C78.0168 264.651 83.3195 261.112 87.1852 256.065C79.8015 261.429 72.2723 266.663 64.0812 270.726C58.2424 273.632 52.1699 277.312 45.6939 278.856C53.9183 280.983 62.0407 280.777 70.0143 278.731C69.5514 279.083 69.1055 279.424 68.6596 279.764C61.0988 285.699 44.7145 294.664 38.802 298.562C45.6186 298.613 52.4078 296.946 58.8245 294.706C66.6318 291.98 74.0719 288.372 81.5683 284.911C81.8615 284.773 82.1649 285.119 81.9172 285.365C78.4693 288.779 74.7171 291.813 70.5316 294.252C83.2035 293.361 94.1704 286.084 105.901 281.874C106.136 281.796 106.362 282.098 106.221 282.312C103.561 286.276 99.8113 288.959 95.9748 291.564C100.604 291.537 105.264 289.853 109.394 288C114.361 285.766 119.056 282.983 123.668 280.072C123.845 279.966 124.124 280.106 124.102 280.329C123.819 283.31 122.319 285.767 120.626 288.141C123.378 286.706 125.472 284.198 127.638 282.04C127.829 281.847 128.24 282.042 128.123 282.321C126.714 285.867 123.859 288.393 121.343 291.15C127.793 289.099 133.35 284.59 138.879 280.847C139.102 280.683 139.356 280.939 139.306 281.178C138.678 283.992 136.763 286.126 134.687 288.013C132.658 289.868 130.249 291.653 129.021 294.178C136.739 292.139 143.392 287.512 150.039 283.27C150.188 283.168 150.438 283.264 150.466 283.445C150.906 285.786 151.669 288.029 152.864 290.093C153.36 287.442 154.053 284.833 154.911 282.271C154.994 282.012 155.408 281.972 155.463 282.273C156.466 287.001 159.887 290.704 162.764 294.45C163.219 289.63 163.613 284.722 165.874 280.331C165.995 280.11 166.344 280.177 166.409 280.416C168.018 286.073 171.511 290.48 175.474 294.561C175.514 290.607 176.155 286.619 176.051 282.66C176.039 282.339 176.543 282.275 176.628 282.597C177.565 286.323 178.901 290.258 181.195 293.422C180.975 288.672 180.804 283.914 182.756 279.448C182.856 279.239 183.255 279.281 183.291 279.524C185.006 292.015 190.621 303.68 196.914 314.454C197.061 314.701 196.772 315.014 196.517 314.852C193.024 312.634 190.146 309.625 187.637 306.346C188.891 310.399 190.383 314.379 192.156 318.241C192.258 318.48 192.005 318.825 191.751 318.634C185.426 314.08 178.912 309.072 175.756 301.749C175.296 307.748 174.932 313.752 175.543 319.751C175.575 320.031 175.221 320.1 175.04 319.963C170.717 316.335 168.297 311.238 165.379 306.548C164.588 305.278 163.898 303.928 163.236 302.587C162.283 304.054 161.24 305.455 160.148 306.776C157.541 309.922 153.96 313.553 149.594 313.755C149.35 313.779 149.265 313.511 149.348 313.321C150.462 310.76 151.402 308.147 152.183 305.485C152.113 305.551 152.046 305.629 151.984 305.695C150.326 307.398 148.296 309.259 145.812 309.464C145.523 309.496 145.468 309.142 145.6 308.97C148.183 305.768 149.663 301.959 151.029 298.117C148.549 301.626 145.702 304.885 142.549 307.78C138.911 311.119 134.835 314.118 130.174 315.814C129.906 315.912 129.735 315.594 129.842 315.393C131.66 311.775 133.351 308.091 134.605 304.245C131.87 306.701 129.068 309.08 126.037 311.168C121.395 314.368 115.94 317.288 110.125 316.932C109.886 316.923 109.714 316.617 109.92 316.445C113.763 313.145 115.985 308.276 117.491 303.418C114.767 305.994 111.891 308.417 108.815 310.534C104.33 313.614 99.0799 316.494 93.4793 316.398C93.2446 316.397 93.1336 316.159 93.2252 315.962C95.6654 311.151 98.2899 306.45 100.118 301.374C85.6186 310.322 69.8737 319.809 52.6344 321.622C65.7037 322.644 79.073 319.12 91.7732 312.109C91.6408 312.257 91.5093 312.412 91.3769 312.56C91.0206 312.978 78.7436 322.726 80.0854 322.974C85.4238 323.971 101.66 317.073 107.35 314.569C105.521 316.704 98.725 325.467 100.554 325.198C107.844 324.18 116.056 321.072 123.921 316.037C122.533 318.205 120.006 324.317 120.69 324.237C128.255 323.377 135.847 317.738 142.853 313.456C141.65 316.467 139.349 323.609 140.112 323.521C147.352 322.655 155.125 316.964 161.435 309.508C165.666 316.731 170.918 323.045 177.477 326.661C178.373 327.158 179.114 316.437 178.893 312.623C185.696 322.982 195.361 329.629 206.019 326.572C206.861 326.32 202.924 315.453 200.979 311.277C202.892 313.085 204.82 314.879 206.799 316.559C217.563 321.213 228.652 323.298 239.55 322.169C240.913 322.035 222.089 307.688 215.083 300.058C213.845 298.71 212.631 297.334 211.4 295.967C214.302 297.443 217.329 298.638 220.559 299.49C230.215 302.027 240.272 304.669 249.775 300.009Z" fill="#63B52D"/>
</g>
<path d="M129.219 74.8531C131.627 78.5569 135.022 73.8371 136.043 71.699C137.413 68.8298 139.785 64.6216 141.197 70.138C141.672 71.9932 142.264 73.3252 143.445 74.8084C146.461 78.5805 149.535 73.9754 149.942 71.0775C150.569 66.623 158.541 77.5765 159.574 78.9561C160.848 80.6744 162.132 82.2689 163.816 83.6101C164.021 83.7797 164.694 84.2109 164.865 83.729C166.239 79.7968 164.197 77.3342 162.373 73.7565C162.153 73.3151 161.763 72.9879 161.43 72.8667C156.894 64.7608 153.698 56.1444 150.378 47.3967C149.244 44.4101 146.265 39.3413 142.625 39.3524C140.849 39.3576 139.013 45.9286 138.522 46.9559C136.239 51.7328 133.848 56.4934 131.889 61.4284C130.596 64.6895 126.901 71.2775 129.219 74.8531Z" fill="#EAEAEA"/>
<g style="mix-blend-mode:multiply">
<path d="M135.299 63.788C136.67 60.9188 139.036 56.7106 140.453 62.231C140.924 64.0822 141.52 65.4182 142.7 66.9014C145.709 70.6734 148.791 66.0714 149.198 63.1735C149.816 58.7159 157.789 69.6654 158.822 71.0451C160.1 72.7714 161.387 74.3649 163.066 75.7061C163.17 75.7804 163.367 75.914 163.573 75.9888C164.926 78.4897 165.935 80.6645 164.865 83.7287C164.694 84.2106 164.021 83.7794 163.815 83.6098C162.132 82.2686 160.848 80.6741 159.574 78.9558C158.541 77.5761 150.569 66.6226 149.942 71.0772C149.535 73.975 146.461 78.5801 143.444 74.808C142.264 73.3249 141.672 71.9928 141.197 70.1377C139.785 64.6213 137.413 68.8295 136.043 71.6986C135.022 73.8368 131.627 78.5566 129.219 74.8527C128.031 73.0159 128.428 70.3968 129.266 67.8343C131.569 69.6594 134.381 65.7037 135.299 63.788Z" fill="#E2E2E2"/>
</g>
<path d="M122.168 121.095C122.33 123.007 123.291 125.905 125.655 126.067C128.282 126.246 130.008 124.935 132.097 123.464C136.995 120.015 140.517 125.244 143.752 128.151C146.444 130.571 150.827 135.884 154.79 133.642C155.694 133.126 155.075 131.204 154.942 130.557C154.132 126.851 162.706 133.615 163.737 134.306C164.682 134.94 174.379 141.41 174.883 137.446C175.027 136.35 174.253 135.05 173.804 134.155C173.28 133.127 172.609 132.178 172.111 131.142C172.045 131.022 178.585 133.173 179.621 133.819C186.639 138.208 193.455 143.749 201.643 145.839C204.169 146.487 211.027 147.456 209.571 142.619C208.082 137.671 200.61 133.371 196.676 130.564C192.658 127.698 188.123 124.737 184.033 121.356C184.586 121.362 184.037 119.672 183.634 119.311C181.18 117.128 178.282 115.403 176.125 112.972C175.556 112.13 174.995 111.281 174.529 110.381C174.471 110.274 174.332 110.157 174.204 110.083C174.123 109.914 174.012 109.752 173.938 109.562C173.465 108.398 172.951 107.072 171.966 106.215C169.302 103.911 167.303 106.527 167.391 109.294C167.481 111.857 168.122 114.311 168.355 116.848C168.983 123.688 160.936 119.258 158.58 117.363C155.935 115.231 151.929 109.372 148.032 110.544C146.173 111.1 145.232 113.552 143.623 114.538C139.123 117.288 136.293 114.378 133.397 111.084C127.549 104.427 121.691 115.52 122.168 121.095Z" fill="#EAEAEA"/>
<g style="mix-blend-mode:multiply">
<path d="M128.658 117.313C133.56 113.863 137.077 119.091 140.316 121.999C143.009 124.419 147.395 129.72 151.349 127.49C152.262 126.974 151.638 125.048 151.501 124.401C150.692 120.704 159.273 127.454 160.301 128.15C161.249 128.792 170.941 135.258 171.451 131.281C171.587 130.199 170.816 128.899 170.367 127.999C169.848 126.976 169.168 126.021 168.665 124.986C168.608 124.871 175.149 127.02 176.18 127.667C183.198 132.055 190.018 137.596 198.206 139.687C200.461 140.26 206.142 141.089 206.315 137.827C207.838 139.324 209.063 140.935 209.571 142.617C211.027 147.455 204.169 146.485 201.643 145.837C193.455 143.747 186.639 138.206 179.621 133.817C178.585 133.171 172.045 131.02 172.111 131.14C172.609 132.176 173.28 133.126 173.804 134.154C174.253 135.049 175.027 136.348 174.883 137.444C174.378 141.408 164.682 134.938 163.737 134.304C162.706 133.613 154.132 126.849 154.941 130.555C155.075 131.202 155.694 133.124 154.79 133.641C150.827 135.882 146.444 130.569 143.752 128.149C140.517 125.242 136.995 120.013 132.097 123.462C130.008 124.933 128.282 126.244 125.655 126.065C123.291 125.903 122.33 123.005 122.168 121.093C122.133 120.723 122.134 120.315 122.161 119.908C122.182 119.908 122.193 119.908 122.218 119.908C124.845 120.091 126.568 118.787 128.658 117.313Z" fill="#E2E2E2"/>
</g>
<path d="M65.9558 189.34C69.777 192.823 74.6683 189.999 79.3172 187.1C75.2675 190.603 71.5707 194.576 74.1784 197.695C78.3685 202.708 90.4005 196.97 95.2454 195.571C98.9601 194.499 102.342 193.21 105.44 190.866C106.341 190.194 112.206 183.557 113.419 187.487C114.509 191.033 115.125 194.989 118.63 197.024C122.14 199.068 126.249 199.207 129.71 196.783C131.927 195.235 134.051 193.29 135.234 190.798C137.29 186.494 139.973 183.629 145.029 188.678C147.63 191.261 150.191 194.003 154.044 194.206C158.319 194.42 158.67 188.804 158.475 185.911C158.233 182.352 158.002 182.294 161.176 183.838C163.117 184.784 165.04 185.755 166.98 186.685C171.248 188.724 175.82 191.052 180.511 191.906C185.228 192.764 192.31 190.851 187.48 185.207C182.749 179.678 176.378 176.116 170.38 172.147C166.841 168.053 163.434 163.936 158.576 161.183C158.33 161.042 157.463 160.813 157.44 161.345C157.279 164.671 162.695 173.135 159.618 175.388C153.497 179.871 146.975 170.917 143.2 167.113C137.956 161.834 135.307 172.092 133.63 175.367C130.008 182.458 127.827 172.994 127.653 172.318C127.539 171.856 127.401 171.411 127.25 170.974C126.846 170.066 126.526 169.525 125.928 168.741C124.903 167.39 122.726 166.821 121.163 167.45C116.932 169.139 115.724 172.404 112.821 175.639C111.244 177.395 106.645 180.434 106.143 176.058C105.987 174.747 105.943 173.462 105.96 172.137C106.019 168.586 106.342 163.843 102.043 162.731C99.4544 162.071 96.4008 164.538 94.4185 165.865C88.625 169.735 82.207 172.309 76.2051 175.796C73.1011 177.592 60.5873 184.455 65.9558 189.34Z" fill="#EAEAEA"/>
<g style="mix-blend-mode:multiply">
<path d="M95.3706 189.584C99.0814 188.511 102.468 187.231 105.57 184.891C106.462 184.215 112.329 177.572 113.541 181.502C114.635 185.052 115.242 189.005 118.744 191.041C122.261 193.089 126.371 193.229 129.84 190.803C132.054 189.246 134.173 187.31 135.361 184.819C137.416 180.518 140.096 177.65 145.151 182.69C147.748 185.279 150.312 188.022 154.167 188.218C156.819 188.36 157.963 186.24 158.4 183.926C158.414 184.396 158.462 185.007 158.517 185.822C158.716 188.706 158.36 194.33 154.086 194.108C150.231 193.916 147.673 191.168 145.075 188.579C140.016 183.54 137.336 186.409 135.285 190.709C134.098 193.2 131.972 195.14 129.759 196.685C126.29 199.109 122.182 198.97 118.667 196.934C115.17 194.899 114.551 190.939 113.461 187.397C112.249 183.463 106.391 190.1 105.49 190.78C102.388 193.12 99.0019 194.405 95.2912 195.482C90.4463 196.88 78.4183 202.617 74.2202 197.601C72.8099 195.915 73.2789 193.982 74.6122 192.001C79.0432 196.45 90.6287 190.966 95.3706 189.584Z" fill="#E2E2E2"/>
</g>
<g style="mix-blend-mode:multiply">
<path d="M161.298 177.86C163.234 178.805 165.162 179.778 167.103 180.707C171.37 182.746 175.941 185.073 180.633 185.923C182.914 186.343 185.744 186.099 187.514 185.109C187.514 185.109 187.515 185.109 187.523 185.109C192.358 190.761 185.27 192.671 180.553 191.82C175.869 190.962 171.29 188.631 167.022 186.597C165.081 185.658 163.159 184.691 161.218 183.752C159.475 182.897 158.768 182.562 158.519 183.005C158.647 181.886 158.651 180.782 158.596 179.928C158.355 176.374 158.123 176.315 161.298 177.86Z" fill="#E2E2E2"/>
</g>
<g style="mix-blend-mode:multiply">
<path d="M66.0452 183.316C66.0531 183.337 66.066 183.354 66.078 183.362C69.9032 186.844 74.7906 184.021 79.4394 181.123C76.0593 184.051 72.9737 187.293 73.5565 190.104C70.846 191.14 68.2398 191.294 65.9986 189.251C63.9994 187.423 64.4849 185.333 66.0452 183.316Z" fill="#E2E2E2"/>
</g>
<path d="M156.989 183.544C156.978 183.091 157.011 182.798 157.111 182.622C157.077 182.93 157.044 183.239 156.989 183.544Z" fill="#EAEAEA"/>
</g>
</g>
<defs>
<clipPath id="clip0_60_2">
<rect width="294" height="384" fill="white"/>
</clipPath>
</defs>
</svg>
