<svg width="24" height="24" viewBox="0 0 24 24" fill="none" xmlns="http://www.w3.org/2000/svg">
<path d="M4.99902 3.90625C3.34202 3.90625 1.99902 5.24935 1.99902 6.90625V16.9063C1.99902 18.9063 2.99902 19.9063 4.99902 19.9063H18.999C20.999 19.9063 21.999 18.9063 21.999 16.9063V8.90625C21.999 8.35395 21.551 7.90625 20.999 7.90625H19.999V4.90625C19.999 4.35395 19.551 3.90625 18.999 3.90625H4.99902ZM4.99902 5.90625H17.999V7.90625H4.99902C4.44702 7.90625 3.99902 7.45855 3.99902 6.90625C3.99902 6.35395 4.44702 5.90625 4.99902 5.90625ZM16.999 11.9063C17.551 11.9063 17.999 12.354 17.999 12.9063C17.999 13.4586 17.551 13.9063 16.999 13.9063C16.447 13.9063 15.999 13.4586 15.999 12.9063C15.999 12.354 16.447 11.9063 16.999 11.9063Z" fill="black"/>
</svg>
