<svg width="90" height="90" viewBox="0 0 90 90" fill="none" xmlns="http://www.w3.org/2000/svg">
<rect width="90" height="90" rx="45" fill="#AB9FF2"/>
<path d="M22.8918 69.4265C30.3242 69.4265 35.9096 62.9727 39.243 57.8726C38.8377 59.001 38.6123 60.1292 38.6123 61.2125C38.6123 64.1912 40.324 66.3123 43.7023 66.3123C48.3421 66.3123 53.2969 62.2504 55.8644 57.8726C55.6842 58.5046 55.5941 59.0913 55.5941 59.6328C55.5941 61.709 56.7653 63.0178 59.1528 63.0178C66.6752 63.0178 74.2426 49.7038 74.2426 38.0599C74.2426 28.9884 69.648 21 58.1166 21C37.8467 21 16 45.7322 16 61.709C16 67.9822 19.3783 69.4265 22.8918 69.4265ZM51.1347 37.0669C51.1347 34.8103 52.396 33.2307 54.2429 33.2307C56.0445 33.2307 57.3058 34.8103 57.3058 37.0669C57.3058 39.3235 56.0445 40.9482 54.2429 40.9482C52.396 40.9482 51.1347 39.3235 51.1347 37.0669ZM60.7744 37.0669C60.7744 34.8103 62.0355 33.2307 63.8824 33.2307C65.6842 33.2307 66.9455 34.8103 66.9455 37.0669C66.9455 39.3235 65.6842 40.9482 63.8824 40.9482C62.0355 40.9482 60.7744 39.3235 60.7744 37.0669Z" fill="#FFFDF8"/>
</svg>
