<svg width="206" height="58" viewBox="0 0 206 58" fill="none" xmlns="http://www.w3.org/2000/svg">
    <rect x="0.5" y="0.5" width="204.747" height="57" rx="12.5" fill="#061927"/>
    <rect x="0.5" y="0.5" width="204.747" height="57" rx="12.5" stroke="white"/>
    <path d="M62.8226 17.0929L57.3469 42.9164C56.9334 44.7386 55.8565 45.1923 54.3259 44.3342L45.982 38.1858L41.9566 42.0585C41.5108 42.5043 41.1387 42.8762 40.2794 42.8762L40.8795 34.3795L56.3424 20.4069C57.0151 19.8081 56.1961 19.4751 55.2979 20.0751L36.1814 32.1127L27.9516 29.5362C26.1618 28.9776 26.1293 27.7464 28.3248 26.8871L60.5144 14.4853C62.0049 13.9267 63.3086 14.8158 62.8226 17.0929Z" fill="white"/>
    <path d="M88.4088 24.4347H85.2213C85.1303 23.9119 84.9627 23.4489 84.7184 23.0455C84.4741 22.6364 84.1701 22.2898 83.8065 22.0057C83.4428 21.7216 83.0281 21.5085 82.5622 21.3665C82.1019 21.2188 81.6048 21.1449 81.0707 21.1449C80.1218 21.1449 79.2809 21.3835 78.548 21.8608C77.815 22.3324 77.2411 23.0256 76.8264 23.9403C76.4116 24.8494 76.2042 25.9602 76.2042 27.2727C76.2042 28.608 76.4116 29.733 76.8264 30.6477C77.2468 31.5568 77.8207 32.2443 78.548 32.7102C79.2809 33.1705 80.119 33.4006 81.0622 33.4006C81.5849 33.4006 82.0735 33.3324 82.5281 33.196C82.9883 33.054 83.4002 32.8466 83.7639 32.5739C84.1332 32.3011 84.4428 31.9659 84.6928 31.5682C84.9485 31.1705 85.1247 30.7159 85.2213 30.2045L88.4088 30.2216C88.2894 31.0511 88.0309 31.8295 87.6332 32.5568C87.2411 33.2841 86.7269 33.9261 86.0906 34.483C85.4542 35.0341 84.7099 35.4659 83.8576 35.7784C83.0053 36.0852 82.0593 36.2386 81.0196 36.2386C79.4855 36.2386 78.1161 35.8835 76.9116 35.1733C75.7071 34.4631 74.7582 33.4375 74.065 32.0966C73.3718 30.7557 73.0252 29.1477 73.0252 27.2727C73.0252 25.392 73.3747 23.7841 74.0735 22.4489C74.7724 21.108 75.7241 20.0824 76.9286 19.3722C78.1332 18.6619 79.4968 18.3068 81.0196 18.3068C81.9911 18.3068 82.8946 18.4432 83.7298 18.7159C84.565 18.9886 85.3093 19.3892 85.9627 19.9176C86.6161 20.4403 87.1531 21.0824 87.5735 21.8438C87.9997 22.5994 88.2781 23.4631 88.4088 24.4347ZM94.2532 28.3295V36H91.168V18.5455H94.185V25.1335H94.3384C94.6453 24.3949 95.1197 23.8125 95.7617 23.3864C96.4095 22.9545 97.2333 22.7386 98.2333 22.7386C99.1424 22.7386 99.935 22.929 100.611 23.3097C101.287 23.6903 101.81 24.2472 102.179 24.9801C102.554 25.7131 102.742 26.608 102.742 27.6648V36H99.6566V28.142C99.6566 27.2614 99.4294 26.5767 98.9748 26.0881C98.5259 25.5937 97.8953 25.3466 97.0828 25.3466C96.5373 25.3466 96.0487 25.4659 95.6169 25.7045C95.1907 25.9375 94.8555 26.2756 94.6112 26.7188C94.3725 27.1619 94.2532 27.6989 94.2532 28.3295ZM109.654 36.2642C108.824 36.2642 108.077 36.1165 107.412 35.821C106.753 35.5199 106.23 35.0767 105.844 34.4915C105.463 33.9062 105.273 33.1847 105.273 32.3267C105.273 31.5881 105.409 30.9773 105.682 30.4943C105.955 30.0114 106.327 29.625 106.799 29.3352C107.27 29.0455 107.802 28.8267 108.392 28.679C108.989 28.5256 109.605 28.4148 110.242 28.3466C111.009 28.267 111.631 28.196 112.108 28.1335C112.586 28.0653 112.932 27.9631 113.148 27.8267C113.37 27.6847 113.48 27.4659 113.48 27.1705V27.1193C113.48 26.4773 113.29 25.9801 112.909 25.6278C112.529 25.2756 111.98 25.0994 111.265 25.0994C110.509 25.0994 109.909 25.2642 109.466 25.5938C109.029 25.9233 108.733 26.3125 108.58 26.7614L105.699 26.3523C105.927 25.5568 106.302 24.892 106.824 24.358C107.347 23.8182 107.986 23.4148 108.742 23.1477C109.498 22.875 110.333 22.7386 111.248 22.7386C111.878 22.7386 112.506 22.8125 113.131 22.9602C113.756 23.108 114.327 23.3523 114.844 23.6932C115.361 24.0284 115.776 24.4858 116.088 25.0653C116.407 25.6449 116.566 26.3693 116.566 27.2386V36H113.6V34.2017H113.498C113.31 34.5653 113.046 34.9062 112.705 35.2244C112.37 35.5369 111.946 35.7898 111.435 35.983C110.929 36.1705 110.336 36.2642 109.654 36.2642ZM110.455 33.9972C111.074 33.9972 111.611 33.875 112.066 33.6307C112.52 33.3807 112.87 33.0511 113.114 32.642C113.364 32.233 113.489 31.7869 113.489 31.304V29.7614C113.392 29.8409 113.228 29.9148 112.995 29.983C112.767 30.0511 112.512 30.1108 112.228 30.1619C111.944 30.2131 111.662 30.2585 111.384 30.2983C111.105 30.3381 110.864 30.3722 110.659 30.4006C110.199 30.4631 109.787 30.5653 109.424 30.7074C109.06 30.8494 108.773 31.0483 108.563 31.304C108.353 31.554 108.248 31.8778 108.248 32.2756C108.248 32.8438 108.455 33.2727 108.87 33.5625C109.284 33.8523 109.813 33.9972 110.455 33.9972ZM122.753 28.3295V36H119.668V22.9091H122.617V25.1335H122.77C123.071 24.4006 123.552 23.8182 124.211 23.3864C124.875 22.9545 125.696 22.7386 126.674 22.7386C127.577 22.7386 128.364 22.9318 129.034 23.3182C129.711 23.7045 130.233 24.2642 130.603 24.9972C130.978 25.7301 131.162 26.6193 131.157 27.6648V36H128.071V28.142C128.071 27.267 127.844 26.5824 127.39 26.0881C126.941 25.5937 126.319 25.3466 125.523 25.3466C124.983 25.3466 124.503 25.4659 124.083 25.7045C123.668 25.9375 123.341 26.2756 123.103 26.7188C122.87 27.1619 122.753 27.6989 122.753 28.3295ZM137.378 28.3295V36H134.293V22.9091H137.242V25.1335H137.395C137.696 24.4006 138.177 23.8182 138.836 23.3864C139.5 22.9545 140.321 22.7386 141.299 22.7386C142.202 22.7386 142.989 22.9318 143.659 23.3182C144.336 23.7045 144.858 24.2642 145.228 24.9972C145.603 25.7301 145.787 26.6193 145.782 27.6648V36H142.696V28.142C142.696 27.267 142.469 26.5824 142.015 26.0881C141.566 25.5937 140.944 25.3466 140.148 25.3466C139.608 25.3466 139.128 25.4659 138.708 25.7045C138.293 25.9375 137.966 26.2756 137.728 26.7188C137.495 27.1619 137.378 27.6989 137.378 28.3295ZM154.713 36.2557C153.401 36.2557 152.267 35.983 151.313 35.4375C150.364 34.8864 149.634 34.108 149.123 33.1023C148.611 32.0909 148.355 30.9006 148.355 29.5312C148.355 28.1847 148.611 27.0028 149.123 25.9858C149.64 24.9631 150.361 24.1676 151.287 23.5994C152.213 23.0256 153.302 22.7386 154.552 22.7386C155.358 22.7386 156.12 22.8693 156.836 23.1307C157.557 23.3864 158.194 23.7841 158.745 24.3239C159.302 24.8636 159.739 25.5511 160.057 26.3864C160.375 27.2159 160.534 28.2045 160.534 29.3523V30.2983H149.804V28.2188H157.577C157.571 27.6278 157.444 27.1023 157.194 26.642C156.944 26.1761 156.594 25.8097 156.145 25.5426C155.702 25.2756 155.185 25.142 154.594 25.142C153.963 25.142 153.409 25.2955 152.932 25.6023C152.455 25.9034 152.083 26.3011 151.816 26.7955C151.554 27.2841 151.421 27.821 151.415 28.4062V30.2216C151.415 30.983 151.554 31.6364 151.833 32.1818C152.111 32.7216 152.5 33.1364 153 33.4261C153.5 33.7102 154.086 33.8523 154.756 33.8523C155.205 33.8523 155.611 33.7898 155.975 33.6648C156.338 33.5341 156.654 33.3438 156.921 33.0938C157.188 32.8438 157.39 32.5341 157.526 32.1648L160.407 32.4886C160.225 33.25 159.878 33.9148 159.367 34.483C158.861 35.0455 158.213 35.483 157.424 35.7955C156.634 36.1023 155.73 36.2557 154.713 36.2557ZM166.23 18.5455V36H163.145V18.5455H166.23Z" fill="white"/>
</svg>
