<svg width="106" height="31" viewBox="0 0 106 31" fill="none" xmlns="http://www.w3.org/2000/svg">
    <g clip-path="url(#clip0_112_183)">
        <path d="M16.4688 12.2748C14.4908 10.3045 11.347 10.3045 9.3899 12.2748C7.43279 14.2664 7.45363 17.5078 9.41077 19.4994C11.3678 21.4908 14.5533 21.512 16.5104 19.5206C16.5437 19.4866 16.6813 19.3328 16.923 19.059L14.5629 16.6546C14.3203 16.9412 14.1922 17.0915 14.1786 17.1053C13.5123 17.7832 12.4297 17.7832 11.7634 17.1053C11.0972 16.4274 11.0972 15.3256 11.7426 14.6689C12.388 14.0121 13.4707 14.0121 14.1369 14.69C14.1369 14.69 16.2406 16.8291 20.4479 21.1072C18.7198 23.6495 15.8234 25.262 12.7003 25.262C7.53688 25.262 3.33124 20.9612 3.33124 15.6646C3.33124 10.368 7.53688 6.06728 12.7003 6.06728C15.7193 6.06728 18.4883 7.55033 20.2164 9.94439C19.938 10.2734 19.2267 11.0987 18.0825 12.4204L20.4112 14.7831L24.2763 10.3469C22.2776 5.72832 17.7597 2.67749 12.7003 2.67749C5.68392 2.67749 0 8.50371 0 15.6646C0 22.8256 5.68392 28.6518 12.7003 28.6518C15.8858 28.6518 18.53 27.6348 21.1117 25.3891C23.4644 23.3552 24.5703 20.5352 24.5703 20.5352L16.4688 12.2748Z" fill="url(#paint0_linear_112_183)"/>
        <path d="M78.3013 17.3142V24.4091H75.406V17.1593C75.1122 15.4933 73.6441 14.2268 71.8774 14.2268C70.0843 14.2268 68.5986 15.5323 68.3368 17.236V24.4091H65.4411V11.5337L67.6621 12.9429C68.7923 11.9746 70.2662 11.389 71.8774 11.389C75.2821 11.389 78.0705 14.0024 78.3082 17.3142H78.3013ZM47.9081 9.89905C46.9461 10.4002 46.0872 11.0709 45.3705 11.8716C44.3006 10.3908 42.5579 9.42698 40.5903 9.42698C37.3363 9.42698 34.6986 12.0622 34.6986 15.3128C34.6986 18.5635 37.3363 21.1987 40.5903 21.1987C41.6465 21.1987 42.6378 20.921 43.4948 20.4348C43.8166 21.4789 44.3253 22.4413 44.9818 23.283C43.6797 24.0007 42.1826 24.4091 40.5903 24.4091C35.5618 24.4091 31.485 20.3365 31.485 15.3128C31.485 10.2891 35.5618 6.21655 40.5903 6.21655C43.589 6.21655 46.2489 7.66467 47.9081 9.89905ZM52.216 24.4091C48.6629 24.4091 45.7823 21.5344 45.7823 17.9882C45.7823 14.442 48.6629 11.5673 52.216 11.5673C55.7694 11.5673 58.65 14.442 58.65 17.9882C58.65 21.5344 55.7694 24.4091 52.216 24.4091ZM52.216 21.5554C54.1901 21.5554 55.7906 19.9583 55.7906 17.9882C55.7906 16.0181 54.1901 14.421 52.216 14.421C50.2422 14.421 48.6418 16.0181 48.6418 17.9882C48.6418 19.9583 50.2422 21.5554 52.216 21.5554ZM60.437 11.5673H63.2964V24.4091H60.437V11.5673ZM91.5339 9.29328H83.3537V13.9613H91.2959V16.8597H83.3537V21.5107H91.5339V24.4091H80.2745V6.39489H91.5339V9.29328ZM97.5463 17.9609L93.1438 11.5673H96.7849C96.8922 11.7463 97.0487 11.992 97.2551 12.3052C97.4967 12.6722 97.7472 13.0527 98.0061 13.4466C98.265 13.8406 98.5154 14.2211 98.7568 14.5882C98.9968 14.9525 99.1673 15.223 99.269 15.3982L99.4151 15.6514L102.031 11.5673H105.495L101.171 17.8536L105.652 24.4091H102.056L99.2955 20.2117L99.1464 20.4329C99.0248 20.6134 98.8428 20.8919 98.5999 21.269C98.3586 21.6445 98.1003 22.0424 97.8248 22.4628C97.5476 22.8841 97.2887 23.283 97.0467 23.6595C96.841 23.9799 96.6842 24.2295 96.5772 24.4091H93.1419L97.5463 17.9609Z" fill="white"/>
        <path d="M59.8461 8.30979C59.8461 7.74435 60.0522 7.25558 60.4644 6.84351C60.8765 6.4314 61.3699 6.22534 61.9451 6.22534C62.5295 6.22534 63.0281 6.4314 63.4402 6.84351C63.8521 7.24603 64.0582 7.73956 64.0582 8.32417C64.0582 8.90878 63.8521 9.40714 63.4402 9.81928C63.0375 10.2314 62.5441 10.4374 61.9595 10.4374C61.3748 10.4374 60.8765 10.2314 60.4644 9.81928C60.0522 9.40714 59.8461 8.90398 59.8461 8.30979Z" fill="url(#paint1_linear_112_183)"/>
    </g>
    <defs>
        <linearGradient id="paint0_linear_112_183" x1="24.5703" y1="15.6646" x2="0" y2="15.6646" gradientUnits="userSpaceOnUse">
            <stop stop-color="#22E6B8"/>
            <stop offset="1" stop-color="#00C1CE"/>
        </linearGradient>
        <linearGradient id="paint1_linear_112_183" x1="64.0582" y1="8.33137" x2="59.8461" y2="8.33137" gradientUnits="userSpaceOnUse">
            <stop stop-color="#22E6B8"/>
            <stop offset="1" stop-color="#00C1CE"/>
        </linearGradient>
        <clipPath id="clip0_112_183">
            <rect width="105.652" height="30" fill="white" transform="translate(0 0.351318)"/>
        </clipPath>
    </defs>
</svg>
