<svg width="130" height="31" viewBox="0 0 130 31" fill="none" xmlns="http://www.w3.org/2000/svg">
    <g clip-path="url(#clip0_112_187)">
        <path d="M39.5212 21.6178V9.08252H45.0139C47.6382 9.08252 49.1007 10.8869 49.1007 13.0104C49.1007 15.1339 47.6206 16.9383 45.0139 16.9383H41.7141V21.6178H39.5212ZM44.7133 11.0181H41.7141V15.0027H44.7133C45.9512 15.0027 46.8495 14.214 46.8495 13.0104C46.8495 11.8069 45.9494 11.0181 44.7133 11.0181Z" fill="white"/>
        <path d="M56.748 8.875C60.4971 8.875 63.1408 11.6189 63.1408 15.3589C63.1408 19.0989 60.4971 21.8446 56.748 21.8446C52.999 21.8446 50.3552 19.1007 50.3552 15.3607C50.3552 11.6206 52.999 8.875 56.748 8.875ZM56.748 10.8301C54.2174 10.8301 52.6046 12.7657 52.6046 15.3607C52.6046 17.9361 54.2174 19.8912 56.748 19.8912C59.2609 19.8912 60.8914 17.9361 60.8914 15.3607C60.8914 12.7657 59.2592 10.8301 56.748 10.8301Z" fill="white"/>
        <path d="M65.2576 21.6178V9.08252H67.4504V19.6822H72.9608V21.6178H65.2576Z" fill="white"/>
        <path d="M80.2148 8.875C83.9639 8.875 86.6076 11.6189 86.6076 15.3589C86.6076 19.0989 83.9639 21.8446 80.2148 21.8446C76.4658 21.8446 73.822 19.1007 73.822 15.3607C73.822 11.6206 76.4676 8.875 80.2148 8.875ZM80.2148 10.8301C77.6842 10.8301 76.0714 12.7657 76.0714 15.3607C76.0714 17.9361 77.6842 19.8912 80.2148 19.8912C82.726 19.8912 84.3582 17.9361 84.3582 15.3607C84.3582 12.7657 82.726 10.8301 80.2148 10.8301Z" fill="white"/>
        <path d="M97.443 21.6178L90.9211 12.4858V21.6178H88.7283V9.08252H90.9777L97.3705 17.9735V9.08252H99.5633V21.6196H97.443V21.6178Z" fill="white"/>
        <path d="M102.222 21.6178V9.08252H104.415V21.6196H102.222V21.6178Z" fill="white"/>
        <path d="M107.076 21.6178V9.08252H115.642V11.0181H109.269V14.2689H115.513V16.2045H109.269V19.6822H115.642V21.6178H107.076Z" fill="white"/>
        <path d="M126.253 21.6178L122.748 16.7115L119.243 21.6178H116.619L121.305 15.1906L116.9 9.08252H119.524L122.748 13.6875L125.954 9.08252H128.598L124.212 15.1729L128.879 21.6196L126.253 21.6178Z" fill="white"/>
        <path d="M26.5645 7.85088V15.3504L20.0868 11.5997L13.6091 7.85088L20.0868 4.10021L26.5645 0.351318V7.85088Z" fill="#20392B"/>
        <path d="M13.6076 15.3521V22.8517L7.12985 19.101L0.652161 15.3521L7.12985 11.6015L13.6076 7.85083V15.3521Z" fill="#005C30"/>
        <path d="M0.652161 7.8499V0.350342L7.12985 4.10101L13.6076 7.85167L7.12985 11.6006L0.652161 15.3512V7.8499Z" fill="#3AB06A"/>
        <path d="M0.652161 22.8516V15.3521L7.12985 19.1028L13.6076 22.8535L7.12985 26.6041L0.652161 30.3511V22.8516Z" fill="#20392B"/>
        <path d="M20.0868 11.6015L13.6091 7.85083V15.3504V22.8499L20.0868 26.6006L26.5645 30.3513V22.8517V15.3521L20.0868 11.6015Z" fill="#3AB06A"/>
    </g>
    <defs>
        <clipPath id="clip0_112_187">
            <rect width="129" height="30" fill="white" transform="translate(0.652161 0.351318)"/>
        </clipPath>
    </defs>
</svg>
