<svg width="202" height="58" viewBox="0 0 202 58" fill="none" xmlns="http://www.w3.org/2000/svg">
    <rect x="0.649841" y="0.5" width="200" height="57" rx="12.5" fill="#061927"/>
    <rect x="0.649841" y="0.5" width="200" height="57" rx="12.5" stroke="white"/>
    <g clip-path="url(#clip0_112_160)">
        <path d="M39.5598 29.7779C41.1198 30.6799 41.8998 31.1299 42.7568 31.1309C43.6138 31.1309 44.3938 30.6819 45.9548 29.7839L55.8868 24.0679C56.3358 23.8099 56.6128 23.3309 56.6128 22.8129C56.6128 22.2949 56.3358 21.8159 55.8868 21.5579L45.9518 15.8389C44.3918 14.9409 43.6118 14.4929 42.7568 14.4929C41.9008 14.4929 41.1208 14.9429 39.5628 15.8419L31.0248 20.7629C30.9558 20.8029 30.9208 20.8229 30.8888 20.8429C27.9758 22.5529 26.1768 25.6679 26.1498 29.0459V29.3599C26.1758 32.7339 27.9718 35.8459 30.8798 37.5579L31.0168 37.6379L36.3548 40.7239C39.4788 42.5289 41.0408 43.4319 42.7568 43.4329C44.4718 43.4329 46.0348 42.5319 49.1598 40.7279L54.8018 37.4709C56.3638 36.5699 57.1448 36.1189 57.5738 35.3759C58.0028 34.6339 58.0028 33.7319 58.0028 31.9279V28.4339C58.0018 27.9419 57.7398 27.4869 57.3138 27.2409C56.8878 26.9949 56.3628 26.9939 55.9358 27.2389L44.3518 33.9059C43.5728 34.3539 43.1838 34.5779 42.7558 34.5779C42.3288 34.5779 41.9398 34.3549 41.1608 33.9069L33.3228 29.4019C32.9288 29.1759 32.7328 29.0619 32.5738 29.0419C32.2138 28.9959 31.8678 29.1969 31.7308 29.5329C31.6708 29.6809 31.6718 29.9079 31.6748 30.3629C31.6758 30.6959 31.6768 30.8629 31.7088 31.0169C31.7788 31.3599 31.9588 31.6709 32.2218 31.9009C32.3398 32.0049 32.4848 32.0879 32.7738 32.2549L41.1558 37.0989C41.9368 37.5509 42.3278 37.7759 42.7558 37.7759C43.1858 37.7759 43.5758 37.5509 44.3568 37.0999L54.6308 31.1699C54.8978 31.0159 55.0308 30.9399 55.1308 30.9969C55.2308 31.0549 55.2308 31.2089 55.2308 31.5169V33.0999C55.2308 33.5509 55.2308 33.7759 55.1238 33.9619C55.0168 34.1479 54.8218 34.2599 54.4308 34.4859L45.9588 39.3759C44.3958 40.2779 43.6148 40.7289 42.7568 40.7279C41.8988 40.7279 41.1168 40.2759 39.5558 39.3729L31.6318 34.7899L31.5758 34.7579C29.9158 33.7849 28.8928 32.0099 28.8818 30.0859V28.5659C28.8818 27.5029 29.4468 26.5209 30.3658 25.9869C31.1798 25.5149 32.1838 25.5139 32.9978 25.9849L39.5608 29.7769L39.5598 29.7779ZM79.3338 36.7079C77.6308 36.7079 76.1618 36.3959 74.9288 35.7729C73.6958 35.1359 72.7468 34.2559 72.0818 33.1329C71.4318 31.9979 71.1058 30.6959 71.1058 29.2269C71.1058 27.7729 71.4378 26.4839 72.1028 25.3619C72.7678 24.2259 73.7168 23.3399 74.9498 22.7019C76.1828 22.0649 77.6508 21.7469 79.3548 21.7469C80.9068 21.7469 82.2148 21.9749 83.2828 22.4319C84.3628 22.8899 85.1868 23.5129 85.7548 24.3019C86.3368 25.0779 86.6628 25.9579 86.7318 26.9419H83.7188C83.6698 26.6279 83.5638 26.3249 83.4068 26.0479C83.2548 25.7289 83.0118 25.4379 82.6798 25.1749C82.3608 24.9119 81.9388 24.6969 81.4118 24.5309C80.8998 24.3649 80.2698 24.2809 79.5218 24.2809H79.1888C78.1498 24.2809 77.2358 24.4759 76.4458 24.8639C75.6898 25.2329 75.0608 25.8189 74.6378 26.5469C74.2078 27.2809 73.9938 28.1739 73.9938 29.2269C73.9938 30.2669 74.2088 31.1599 74.6378 31.9069C75.0718 32.6329 75.7068 33.2179 76.4668 33.5909C77.2568 33.9789 78.1638 34.1729 79.1888 34.1729H79.5208C80.5328 34.1729 81.3848 34.0409 82.0768 33.7779C82.7698 33.5009 83.2968 33.1619 83.6568 32.7599C84.0168 32.3579 84.1968 31.9629 84.1968 31.5749V31.4089H79.4168V28.8739H84.9658C85.6028 28.8739 86.0878 29.0469 86.4198 29.3939C86.7658 29.7399 86.9398 30.2319 86.9398 30.8689V36.4999H84.1968V34.8799C84.0168 35.1149 83.7188 35.3779 83.3028 35.6689C82.9018 35.9459 82.3748 36.1889 81.7238 36.3959C81.0728 36.6039 80.2758 36.7079 79.3338 36.7079ZM89.1668 36.4999V21.9549H92.0348V36.4999H89.1668ZM99.3368 36.4999V24.4899H93.4768V21.9549H108.064V24.4899H102.204V36.4999H99.3368ZM109.502 36.4999V21.9549H117.772C118.645 21.9549 119.427 22.1139 120.12 22.4319C120.813 22.7369 121.36 23.1739 121.762 23.7419C122.163 24.3089 122.364 24.9949 122.364 25.7989C122.364 26.6289 122.136 27.3289 121.678 27.8969C121.221 28.4649 120.681 28.8669 120.058 29.1029C120.556 29.2129 121.006 29.4209 121.408 29.7259C121.81 30.0309 122.128 30.4189 122.364 30.8899C122.6 31.3599 122.717 31.9149 122.717 32.5519C122.717 33.3549 122.503 34.0549 122.073 34.6509C121.658 35.2329 121.097 35.6899 120.39 36.0219C119.684 36.3409 118.894 36.4999 118.021 36.4999H109.502ZM112.369 33.9649H117.606C118.298 33.9649 118.839 33.8049 119.226 33.4869C119.628 33.1549 119.829 32.7109 119.829 32.1569C119.829 31.5609 119.629 31.1179 119.226 30.8269C118.839 30.5369 118.298 30.3909 117.606 30.3909H112.369V33.9649ZM112.369 27.8549H117.46C118.098 27.8549 118.59 27.7099 118.936 27.4189C119.296 27.1289 119.476 26.6919 119.476 26.1099C119.476 25.6259 119.296 25.2379 118.936 24.9469C118.589 24.6419 118.098 24.4899 117.46 24.4899H112.37V27.8559L112.369 27.8549ZM132.199 36.7079C130.634 36.7079 129.228 36.4099 127.981 35.8139C126.734 35.2039 125.751 34.3459 125.031 33.2379C124.311 32.1159 123.95 30.7779 123.95 29.2279C123.95 27.6759 124.31 26.3459 125.03 25.2379C125.75 24.1159 126.734 23.2569 127.981 22.6609C129.228 22.0509 130.634 21.7469 132.199 21.7469C133.779 21.7469 135.185 22.0519 136.418 22.6609C137.664 23.2569 138.641 24.1159 139.347 25.2379C140.068 26.3459 140.428 27.6759 140.428 29.2279C140.428 30.7779 140.068 32.1159 139.347 33.2379C138.641 34.3459 137.664 35.2049 136.418 35.8139C135.185 36.4099 133.779 36.7079 132.199 36.7079ZM132.033 34.1729H132.366C133.308 34.1729 134.166 33.9789 134.942 33.5909C135.717 33.2169 136.371 32.6339 136.833 31.9079C137.304 31.1599 137.54 30.2659 137.54 29.2279C137.54 28.1739 137.304 27.2809 136.833 26.5469C136.371 25.8209 135.717 25.2379 134.942 24.8639C134.166 24.4759 133.308 24.2819 132.366 24.2819H132.033C131.105 24.2819 130.246 24.4759 129.456 24.8639C128.678 25.2419 128.018 25.8229 127.545 26.5469C127.074 27.2809 126.838 28.1739 126.838 29.2269C126.838 30.2669 127.074 31.1599 127.545 31.9069C128.018 32.6309 128.678 33.2129 129.456 33.5909C130.246 33.9789 131.105 34.1729 132.033 34.1729ZM149.753 36.7079C148.188 36.7079 146.781 36.4099 145.535 35.8139C144.288 35.2039 143.304 34.3459 142.584 33.2379C141.864 32.1159 141.504 30.7779 141.504 29.2279C141.504 27.6759 141.864 26.3459 142.584 25.2379C143.304 24.1159 144.288 23.2569 145.535 22.6609C146.781 22.0509 148.188 21.7469 149.753 21.7469C151.332 21.7469 152.738 22.0519 153.971 22.6609C155.218 23.2569 156.194 24.1159 156.901 25.2379C157.621 26.3459 157.981 27.6759 157.981 29.2279C157.981 30.7779 157.621 32.1159 156.901 33.2379C156.194 34.3459 155.218 35.2049 153.971 35.8139C152.738 36.4099 151.332 36.7079 149.753 36.7079ZM149.587 34.1729H149.919C150.861 34.1729 151.72 33.9789 152.496 33.5909C153.27 33.2159 153.925 32.6339 154.387 31.9079C154.858 31.1599 155.093 30.2659 155.093 29.2279C155.093 28.1739 154.858 27.2809 154.387 26.5469C153.925 25.8209 153.27 25.2389 152.496 24.8639C151.72 24.4759 150.861 24.2819 149.919 24.2819H149.587C148.659 24.2819 147.8 24.4759 147.01 24.8639C146.232 25.2409 145.571 25.8229 145.098 26.5469C144.627 27.2809 144.392 28.1739 144.392 29.2269C144.392 30.2669 144.627 31.1599 145.098 31.9069C145.571 32.6309 146.232 33.2129 147.01 33.5909C147.8 33.9789 148.659 34.1729 149.587 34.1729ZM162.257 32.1779L161.426 29.5599L170.319 21.9549H174.288L162.257 32.1779ZM159.951 36.4999V21.9549H162.818V36.4999H159.951ZM170.839 36.4999L164.273 29.2689L166.766 27.8769L174.621 36.4999H170.839Z" fill="white"/>
    </g>
    <defs>
        <clipPath id="clip0_112_160">
            <rect width="149" height="32" fill="white" transform="translate(26.1498 13)"/>
        </clipPath>
    </defs>
</svg>
