<svg width="111" height="31" viewBox="0 0 111 31" fill="none" xmlns="http://www.w3.org/2000/svg">
    <mask id="mask0_112_201" style="mask-type:luminance" maskUnits="userSpaceOnUse" x="1" y="0" width="110" height="31">
        <path d="M110.591 0.351318H1.50934V30.3513H110.591V0.351318Z" fill="white"/>
    </mask>
    <g mask="url(#mask0_112_201)">
        <mask id="mask1_112_201" style="mask-type:luminance" maskUnits="userSpaceOnUse" x="1" y="0" width="110" height="31">
            <path d="M110.591 0.352539H1.50934V30.3501H110.591V0.352539Z" fill="white"/>
        </mask>
        <g mask="url(#mask1_112_201)">
            <mask id="mask2_112_201" style="mask-type:luminance" maskUnits="userSpaceOnUse" x="1" y="0" width="110" height="31">
                <path d="M110.591 0.352539H1.50934V30.3501H110.591V0.352539Z" fill="white"/>
            </mask>
            <g mask="url(#mask2_112_201)">
                <path d="M15.8577 7.17017H7.12106V12.824H1.50934L1.50935 17.7559C1.50935 21.5379 4.55233 24.6039 8.30601 24.6039H15.8509L15.8577 18.9496H8.30601C7.6517 18.9496 7.12128 18.4151 7.12127 17.7559L7.12106 12.824H15.8509L15.8577 7.17017Z" fill="#6C4FFF"/>
                <path d="M31.1501 24.09C26.1036 24.09 22.9437 20.7483 22.9437 15.4289C22.9437 10.1778 26.2854 6.72244 31.3092 6.72244C35.5148 6.72244 38.5383 9.13207 39.0611 12.9057H35.1738C34.6737 11.2234 33.2415 10.2687 31.2184 10.2687C28.4905 10.2687 26.8311 12.201 26.8311 15.4062C26.8311 18.566 28.5132 20.5437 31.2184 20.5437C33.287 20.5437 34.8101 19.5207 35.2647 17.8613H39.0837C38.4927 21.6121 35.3557 24.09 31.1501 24.09ZM40.501 18.1114C40.501 14.5197 43.1379 12.11 46.7751 12.11C50.3895 12.11 53.0265 14.5197 53.0265 18.1114C53.0265 21.7031 50.3895 24.09 46.7751 24.09C43.1379 24.09 40.501 21.7031 40.501 18.1114ZM44.0245 18.0886C44.0245 19.8163 45.1384 20.9528 46.7751 20.9528C48.3891 20.9528 49.503 19.8163 49.503 18.0886C49.503 16.3837 48.3891 15.2471 46.7751 15.2471C45.1384 15.2471 44.0245 16.3837 44.0245 18.0886ZM56.7837 10.6778C55.6699 10.6778 54.7833 9.79127 54.7833 8.6774C54.7833 7.56355 55.6699 6.69971 56.7837 6.69971C57.8749 6.69971 58.7615 7.56355 58.7615 8.6774C58.7615 9.79127 57.8749 10.6778 56.7837 10.6778ZM55.056 23.8172V12.451H58.5568V23.8172H55.056ZM64.6839 23.8172H61.1831V12.451H64.4794L64.7067 13.6331C65.4114 12.6556 66.7071 12.0872 68.1847 12.0872C70.8896 12.0872 72.4584 13.8149 72.4584 16.7928V23.8172H68.9576V17.634C68.9576 16.2018 68.162 15.2698 66.9572 15.2698C65.5705 15.2698 64.6839 16.1791 64.6839 17.5886V23.8172ZM77.9057 23.8172L72.8593 6.99523H76.701L78.9065 14.2923C79.2018 15.2926 79.4744 16.2928 79.7471 17.9522C80.0198 16.2928 80.2932 15.338 80.5884 14.2923L82.6569 6.99523H86.7713L88.7492 14.2923C89.0218 15.3153 89.2953 16.3382 89.5904 17.9522C89.9314 16.2473 90.1815 15.3153 90.4767 14.3377L92.7273 6.99523H96.4783L91.3405 23.8172H87.749L84.6804 12.7692L81.5204 23.8172H77.9057Z" fill="white"/>
            </g>
        </g>
    </g>
</svg>
