<svg width="170" height="58" viewBox="0 0 170 58" fill="none" xmlns="http://www.w3.org/2000/svg">
    <rect x="0.649841" y="0.5" width="168.747" height="57" rx="12.5" fill="#061927"/>
    <rect x="0.649841" y="0.5" width="168.747" height="57" rx="12.5" stroke="white"/>
    <g clip-path="url(#clip0_112_163)">
        <path d="M62.9724 17.0929L57.4967 42.9164C57.0833 44.7386 56.0064 45.1923 54.4758 44.3342L46.1319 38.1858L42.1064 42.0585C41.6606 42.5043 41.2886 42.8762 40.4293 42.8762L41.0294 34.3795L56.4923 20.4069C57.1649 19.8081 56.3459 19.4751 55.4477 20.0751L36.3312 32.1127L28.1014 29.5362C26.3116 28.9776 26.2792 27.7464 28.4747 26.8871L60.6642 14.4853C62.1548 13.9267 63.4585 14.8158 62.9724 17.0929Z" fill="white"/>
    </g>
    <path d="M85.3114 25.6193C85.1694 25.1591 84.9734 24.7472 84.7234 24.3835C84.4791 24.0142 84.1836 23.6989 83.837 23.4375C83.4961 23.1761 83.1041 22.9801 82.6609 22.8494C82.2177 22.7131 81.7347 22.6449 81.212 22.6449C80.2745 22.6449 79.4393 22.8807 78.7063 23.3523C77.9734 23.8239 77.3967 24.517 76.9762 25.4318C76.5614 26.3409 76.3541 27.4489 76.3541 28.7557C76.3541 30.0739 76.5614 31.1903 76.9762 32.1051C77.391 33.0199 77.9677 33.7159 78.7063 34.1932C79.445 34.6648 80.3029 34.9006 81.2802 34.9006C82.1666 34.9006 82.9336 34.7301 83.5813 34.3892C84.2347 34.0483 84.7376 33.5653 85.0898 32.9403C85.4421 32.3097 85.6183 31.571 85.6183 30.7244L86.3342 30.8352H81.5955V28.3636H88.6779V30.4602C88.6779 31.9545 88.3597 33.2472 87.7234 34.3381C87.087 35.429 86.212 36.2699 85.0984 36.8608C83.9847 37.446 82.7063 37.7386 81.2631 37.7386C79.6552 37.7386 78.2433 37.3778 77.0273 36.6562C75.8171 35.929 74.8711 34.8977 74.1893 33.5625C73.5131 32.2216 73.1751 30.6307 73.1751 28.7898C73.1751 27.3807 73.3739 26.1222 73.7717 25.0142C74.1751 23.9062 74.7376 22.9659 75.4592 22.1932C76.1808 21.4148 77.0273 20.8239 77.9989 20.4205C78.9705 20.0114 80.0273 19.8068 81.1694 19.8068C82.1353 19.8068 83.0359 19.9489 83.8711 20.233C84.7063 20.5114 85.4478 20.9091 86.0955 21.4261C86.7489 21.9432 87.2859 22.5568 87.7063 23.267C88.1268 23.9773 88.4023 24.7614 88.533 25.6193H85.3114ZM91.5991 37.5V24.4091H94.5906V26.5909H94.7269C94.9656 25.8352 95.3747 25.2528 95.9542 24.8438C96.5394 24.429 97.207 24.2216 97.957 24.2216C98.1275 24.2216 98.3178 24.2301 98.5281 24.2472C98.744 24.2585 98.9229 24.2784 99.065 24.3068V27.1449C98.9343 27.0994 98.7269 27.0597 98.4428 27.0256C98.1644 26.9858 97.8945 26.9659 97.6332 26.9659C97.0707 26.9659 96.565 27.0881 96.1161 27.3324C95.6729 27.571 95.3235 27.9034 95.0678 28.3295C94.8122 28.7557 94.6843 29.2472 94.6843 29.804V37.5H91.5991ZM106.286 37.7557C105.007 37.7557 103.9 37.4744 102.962 36.9119C102.025 36.3494 101.297 35.5625 100.78 34.5511C100.269 33.5398 100.013 32.358 100.013 31.0057C100.013 29.6534 100.269 28.4687 100.78 27.4517C101.297 26.4347 102.025 25.6449 102.962 25.0824C103.9 24.5199 105.007 24.2386 106.286 24.2386C107.564 24.2386 108.672 24.5199 109.61 25.0824C110.547 25.6449 111.272 26.4347 111.783 27.4517C112.3 28.4687 112.559 29.6534 112.559 31.0057C112.559 32.358 112.3 33.5398 111.783 34.5511C111.272 35.5625 110.547 36.3494 109.61 36.9119C108.672 37.4744 107.564 37.7557 106.286 37.7557ZM106.303 35.2841C106.996 35.2841 107.576 35.0937 108.042 34.7131C108.507 34.3267 108.854 33.8097 109.081 33.1619C109.314 32.5142 109.431 31.7926 109.431 30.9972C109.431 30.196 109.314 29.4716 109.081 28.8239C108.854 28.1705 108.507 27.6506 108.042 27.2642C107.576 26.8778 106.996 26.6847 106.303 26.6847C105.593 26.6847 105.002 26.8778 104.53 27.2642C104.064 27.6506 103.715 28.1705 103.482 28.8239C103.255 29.4716 103.141 30.196 103.141 30.9972C103.141 31.7926 103.255 32.5142 103.482 33.1619C103.715 33.8097 104.064 34.3267 104.53 34.7131C105.002 35.0937 105.593 35.2841 106.303 35.2841ZM123.521 31.9943V24.4091H126.606V37.5H123.615V35.1733H123.478C123.183 35.9062 122.697 36.5057 122.021 36.9716C121.351 37.4375 120.524 37.6705 119.541 37.6705C118.683 37.6705 117.924 37.4801 117.265 37.0994C116.612 36.7131 116.101 36.1534 115.731 35.4205C115.362 34.6818 115.177 33.7898 115.177 32.7443V24.4091H118.262V32.267C118.262 33.0966 118.49 33.7557 118.944 34.2443C119.399 34.733 119.995 34.9773 120.734 34.9773C121.189 34.9773 121.629 34.8665 122.055 34.6449C122.481 34.4233 122.831 34.0938 123.103 33.6562C123.382 33.2131 123.521 32.6591 123.521 31.9943ZM129.779 42.4091V24.4091H132.813V26.5739H132.992C133.151 26.2557 133.375 25.9176 133.665 25.5597C133.955 25.196 134.347 24.8864 134.841 24.6307C135.336 24.3693 135.966 24.2386 136.733 24.2386C137.745 24.2386 138.657 24.4972 139.469 25.0142C140.287 25.5256 140.935 26.2841 141.412 27.2898C141.895 28.2898 142.137 29.517 142.137 30.9716C142.137 32.4091 141.901 33.6307 141.429 34.6364C140.958 35.642 140.316 36.4091 139.503 36.9375C138.691 37.4659 137.77 37.7301 136.742 37.7301C135.992 37.7301 135.37 37.6051 134.875 37.3551C134.381 37.1051 133.983 36.804 133.682 36.4517C133.387 36.0937 133.157 35.7557 132.992 35.4375H132.864V42.4091H129.779ZM132.804 30.9545C132.804 31.8011 132.924 32.5426 133.162 33.179C133.407 33.8153 133.756 34.3125 134.211 34.6705C134.671 35.0227 135.228 35.1989 135.881 35.1989C136.563 35.1989 137.134 35.017 137.594 34.6534C138.054 34.2841 138.401 33.7812 138.634 33.1449C138.873 32.5028 138.992 31.7727 138.992 30.9545C138.992 30.142 138.875 29.4205 138.642 28.7898C138.409 28.1591 138.063 27.6648 137.603 27.3068C137.142 26.9489 136.569 26.7699 135.881 26.7699C135.222 26.7699 134.662 26.9432 134.202 27.2898C133.742 27.6364 133.392 28.1222 133.154 28.7472C132.921 29.3722 132.804 30.108 132.804 30.9545Z" fill="white"/>
    <defs>
        <clipPath id="clip0_112_163">
            <rect width="37.0526" height="32" fill="white" transform="translate(26.1498 13)"/>
        </clipPath>
    </defs>
</svg>
