<svg width="135" height="21" viewBox="0 0 135 21" fill="none" xmlns="http://www.w3.org/2000/svg">
    <g clip-path="url(#clip0_112_217)">
        <mask id="mask0_112_217" style="mask-type:luminance" maskUnits="userSpaceOnUse" x="0" y="0" width="135" height="21">
            <path d="M134.193 0.351318H0.00927734V20.3513H134.193V0.351318Z" fill="white"/>
        </mask>
        <g mask="url(#mask0_112_217)">
            <path d="M28.0745 0.500767C27.3445 0.200542 26.5166 0.363219 25.9598 0.920024L19.1274 7.74319V11.6924L26.4782 4.36137V17.3239H13.9349L12.4404 14.9036L10.024 17.3239H10.0188L7.22284 20.1199H27.3392C28.4 20.1146 29.2715 19.2469 29.2715 18.177V2.29021C29.2715 1.50196 28.8033 0.800992 28.0732 0.500767H28.0745Z" fill="white"/>
            <path d="M6.75442 17.3225L15.3339 8.74424V16.4311H18.1299V6.67839C18.1299 5.89013 17.6617 5.18918 16.9316 4.88895C16.2016 4.58873 15.3736 4.7514 14.8169 5.3082L0.00927734 20.1132H6.02435L8.82028 17.3225H6.75442Z" fill="white"/>
            <path d="M82.0137 10.7307C81.4437 9.8803 80.7122 9.2098 79.8314 8.72838C78.9506 8.24828 77.9891 8.00757 76.968 8.00757C76.107 8.00757 75.3068 8.1676 74.5755 8.48767C73.8441 8.80772 73.1842 9.29839 72.6141 9.9293C72.0732 10.5099 71.6526 11.1711 71.3722 11.8814C71.0918 12.5916 70.9517 13.3733 70.9517 14.184C70.9517 14.9947 71.1117 15.7552 71.4119 16.5157C71.7227 17.2762 72.1525 17.9467 72.6935 18.5181C73.2741 19.1291 73.9247 19.5894 74.635 19.8896C75.3452 20.1898 76.1467 20.3499 77.0077 20.3499C78.2892 20.3499 79.4201 19.9994 80.3816 19.3182C81.3431 18.6371 82.1036 17.6359 82.6339 16.3451L82.704 16.1745H80.1211L80.0813 16.234C79.7613 16.8041 79.3302 17.2551 78.7905 17.5751C78.2496 17.8859 77.6492 18.0459 76.9984 18.0459C76.0872 18.0459 75.2764 17.7563 74.6165 17.1849C73.9856 16.644 73.5756 15.9338 73.3957 15.0728H83.0056V14.6218C83.0056 13.8216 82.9249 13.0902 82.7649 12.4594C82.6048 11.8391 82.3549 11.2585 82.0137 10.7281V10.7307ZM73.4751 12.9831C73.7251 12.1724 74.1562 11.5111 74.7567 11.031C75.3968 10.5205 76.1586 10.2599 77.0288 10.2599C77.8992 10.2599 78.6107 10.5099 79.2217 11.0111C79.7917 11.482 80.2123 12.142 80.4622 12.9831H73.4751Z" fill="white"/>
            <path d="M54.2755 13.3735L52.4478 12.8881C51.879 12.7412 51.473 12.5455 51.2402 12.3075C51.014 12.076 50.9069 11.8075 50.9148 11.4769C50.9214 11.1925 50.9995 10.9545 51.1543 10.7468C51.3077 10.5405 51.5285 10.3818 51.8128 10.2733C52.0867 10.1688 52.4107 10.1172 52.7744 10.1186C52.7982 10.1186 52.822 10.1186 52.8472 10.1186C54.1433 10.1252 54.4276 11.3168 54.4739 11.7665L54.4964 11.9609H57.0529C57.0529 11.5298 56.8466 10.4492 56.4895 9.88315C55.6206 8.51166 53.6949 8.02759 52.8988 8.00908C52.8511 8.00908 52.8035 8.00776 52.7558 8.00643C51.9372 8.00247 51.1978 8.13473 50.5591 8.40056C49.8766 8.68359 49.3343 9.0989 48.9455 9.63448C48.5553 10.1728 48.349 10.8117 48.3318 11.547C48.3107 12.4186 48.5739 13.1539 49.1148 13.7306C49.6478 14.3006 50.4665 14.7317 51.5497 15.0135L53.3748 15.4869C53.9515 15.6483 54.3509 15.8401 54.5638 16.057C54.7688 16.2659 54.8654 16.5331 54.8562 16.8862C54.8495 17.1746 54.7648 17.4139 54.5996 17.6162C54.4329 17.82 54.1935 17.976 53.888 18.0818C53.5958 18.1823 53.2399 18.2312 52.8286 18.23C52.7968 18.23 52.7652 18.23 52.7321 18.2287C52.0589 18.2127 51.5364 18.058 51.1768 17.771C50.7826 17.4562 50.5803 17.2248 50.4916 16.7592L50.4546 16.541L47.9113 16.4802C47.9113 16.8809 48.2393 17.9602 48.6083 18.5011C48.9918 19.0606 49.5341 19.5089 50.2178 19.8316C50.8977 20.153 51.7269 20.3262 52.6805 20.3487C52.7294 20.3487 52.777 20.3501 52.826 20.3514C53.6658 20.3553 54.4303 20.2178 55.1008 19.9427C55.8137 19.6491 56.3877 19.2246 56.8043 18.681C57.2248 18.1321 57.4458 17.4827 57.4643 16.7394C57.4854 15.8678 57.246 15.1563 56.7553 14.6246C56.2713 14.0996 55.4381 13.679 54.2782 13.3735H54.2755Z" fill="white"/>
            <path d="M64.1644 10.3009C64.9249 10.3009 65.5955 10.4716 66.1364 10.8009C66.6865 11.1315 67.1375 11.6513 67.488 12.3218L67.5185 12.3919H70.0208L69.9705 12.2319C69.5301 10.9001 68.8093 9.84988 67.828 9.11855C66.8466 8.37789 65.6761 8.00757 64.335 8.00757C63.4846 8.00757 62.6739 8.17819 61.9226 8.5075C61.1714 8.83814 60.4916 9.3288 59.8912 9.96897C59.3502 10.5496 58.9296 11.2109 58.6493 11.9211C58.3689 12.6313 58.2287 13.4024 58.2287 14.2131C58.2287 15.0238 58.3887 15.7843 58.689 16.5448C58.9998 17.3053 59.4296 17.9758 59.9705 18.5472C60.5405 19.1476 61.1913 19.5986 61.8922 19.8989C62.6025 20.1991 63.3934 20.3499 64.2649 20.3499C65.6364 20.3499 66.828 19.9796 67.7883 19.2587C68.7498 18.5379 69.4799 17.4574 69.96 16.0661L70.0195 15.8954H67.5065L67.496 15.9351C67.1852 16.6056 66.7355 17.1267 66.1747 17.4971C65.614 17.8568 64.9831 18.0472 64.2835 18.0472C63.2519 18.0472 62.371 17.6769 61.6806 16.9456C60.9796 16.2049 60.6291 15.2738 60.6291 14.1734C60.6291 13.0731 60.9796 12.1512 61.6608 11.4106C62.3419 10.6699 63.1817 10.2996 64.1631 10.2996L64.1644 10.3009Z" fill="white"/>
            <path d="M89.4459 8.1228C86.6251 8.1228 84.3309 10.4995 84.3309 13.421V20.1212H86.8434V13.421C86.8434 11.8855 88.0109 10.6357 89.4459 10.6357C90.8809 10.6357 92.0493 11.8855 92.0493 13.421V20.1212H94.5618V13.421C94.5618 10.4995 92.2676 8.1228 89.4459 8.1228Z" fill="white"/>
            <path d="M134.193 4.4646H131.328L127.727 10.0644L124.126 4.4646H121.261L126.294 12.2916L121.261 20.1173H124.126L127.727 14.5175L131.328 20.1173H134.193L129.159 12.2916L134.193 4.4646Z" fill="white"/>
            <path d="M105.739 9.61992C105.228 9.14909 104.678 8.78934 104.087 8.53937C103.417 8.25899 102.665 8.10954 101.874 8.10954C100.983 8.10954 100.183 8.26031 99.4926 8.54996C98.7918 8.83959 98.1518 9.30117 97.5601 9.91092C97.0193 10.4717 96.6093 11.1223 96.3193 11.8524C96.0285 12.5838 95.8901 13.3734 95.8901 14.1841C95.8901 15.9353 96.481 17.4178 97.6318 18.5883C98.7926 19.7601 100.265 20.35 102.005 20.35C102.757 20.35 103.467 20.1992 104.128 19.9202C104.698 19.6702 105.239 19.3197 105.719 18.8594V20.1106H108.326V4.4751H105.74L105.739 9.61992ZM104.698 17.0078C103.947 17.7683 103.077 18.1492 102.106 18.1492C101.034 18.1492 100.114 17.7683 99.3826 17.0078C98.6418 16.2473 98.2718 15.2964 98.2718 14.1854C98.2718 13.0745 98.6418 12.2135 99.3826 11.4728C100.123 10.7322 101.024 10.3619 102.065 10.3619C103.106 10.3619 103.967 10.752 104.708 11.5231C105.448 12.2942 105.818 13.2451 105.818 14.3257C105.829 15.3467 105.448 16.2473 104.697 17.0078H104.698Z" fill="white"/>
            <path d="M39.1484 4.46582L33.1083 20.1185H35.7812L37.7055 15.0755H43.4389L45.3064 20.1185H48.1234L42.0833 4.46582H39.1471H39.1484ZM38.5004 12.9912L40.6152 7.4469L42.6679 12.9912H38.5004Z" fill="white"/>
            <path d="M110.182 20.1199H120.362V17.7975H112.635V13.3338H117.907V11.2508H112.635V6.78705H120.362V4.4646H110.182V20.1199Z" fill="white"/>
        </g>
    </g>
    <defs>
        <clipPath id="clip0_112_217">
            <rect width="135" height="20" fill="white" transform="translate(0.00927734 0.351318)"/>
        </clipPath>
    </defs>
</svg>
