<svg width="24" height="20" viewBox="0 0 24 20" fill="none" xmlns="http://www.w3.org/2000/svg">
    <g clip-path="url(#clip0_73_23)">
        <path d="M10.0162 10.5349C11.0887 11.155 11.625 11.4644 12.2142 11.4651C12.8034 11.4651 13.3396 11.1564 14.4128 10.539L21.2411 6.60925C21.5497 6.43187 21.7402 6.10256 21.7402 5.74644C21.7402 5.39031 21.5497 5.061 21.2411 4.88362L14.4108 0.951811C13.3383 0.334436 12.802 0.0264359 12.2142 0.0264359C11.6257 0.0264359 11.0894 0.335811 10.0183 0.953873L4.14844 4.33706C4.101 4.36456 4.07694 4.37831 4.05494 4.39206C2.05225 5.56769 0.815438 7.70925 0.796875 10.0316V10.2475C0.81475 12.5671 2.0495 14.7066 4.04875 15.8836L4.14294 15.9386L7.81281 18.0602C9.96056 19.3012 11.0344 19.922 12.2142 19.9227C13.3933 19.9227 14.4678 19.3032 16.6163 18.063L20.4951 15.8238C21.569 15.2044 22.1059 14.8943 22.4009 14.3835C22.6958 13.8734 22.6958 13.2532 22.6958 12.013V9.61087C22.6951 9.27262 22.515 8.95981 22.2221 8.79069C21.9292 8.62156 21.5683 8.62087 21.2747 8.78931L13.3108 13.3729C12.7752 13.6809 12.5078 13.8349 12.2135 13.8349C11.9199 13.8349 11.6525 13.6816 11.1169 13.3736L5.72831 10.2764C5.45744 10.121 5.32269 10.0426 5.21338 10.0289C4.96588 9.99725 4.728 10.1354 4.63381 10.3664C4.59256 10.4682 4.59325 10.6242 4.59531 10.9371C4.596 11.166 4.59669 11.2808 4.61869 11.3867C4.66681 11.6225 4.79056 11.8363 4.97137 11.9944C5.0525 12.0659 5.15219 12.123 5.35087 12.2378L11.1135 15.5681C11.6504 15.8788 11.9193 16.0335 12.2135 16.0335C12.5091 16.0335 12.7773 15.8788 13.3142 15.5687L20.3776 11.4919C20.5611 11.386 20.6526 11.3337 20.7213 11.3729C20.7901 11.4128 20.7901 11.5187 20.7901 11.7304V12.8187C20.7901 13.1288 20.7901 13.2835 20.7165 13.4114C20.6429 13.5392 20.5089 13.6162 20.2401 13.7716L14.4156 17.1335C13.341 17.7536 12.8041 18.0637 12.2142 18.063C11.6243 18.063 11.0867 17.7522 10.0135 17.1314L4.56575 13.9806L4.52725 13.9586C3.386 13.2897 2.68269 12.0694 2.67513 10.7466V9.70162C2.67513 8.97081 3.06356 8.29569 3.69537 7.92856C4.255 7.60406 4.94525 7.60337 5.50488 7.92719L10.0162 10.5349Z" fill="white"/>
    </g>
    <defs>
        <clipPath id="clip0_73_23">
            <rect width="23" height="20" fill="white" transform="translate(0.507812)"/>
        </clipPath>
    </defs>
</svg>
