<svg width="106" height="26" viewBox="0 0 106 26" fill="none" xmlns="http://www.w3.org/2000/svg">
    <path d="M16.6001 9.59735C14.6221 7.62703 11.4783 7.62703 9.52119 9.59735C7.56408 11.5889 7.58492 14.8303 9.54206 16.8219C11.4991 18.8133 14.6846 18.8345 16.6417 16.8431C16.675 16.8092 16.8126 16.6553 17.0543 16.3815L14.6942 13.9771C14.4516 14.2637 14.3235 14.414 14.3099 14.4278C13.6436 15.1057 12.561 15.1057 11.8947 14.4278C11.2285 13.7499 11.2285 12.6482 11.8739 11.9914C12.5193 11.3346 13.602 11.3346 14.2682 12.0125C14.2682 12.0125 16.3719 14.1516 20.5792 18.4297C18.8511 20.972 15.9547 22.5845 12.8316 22.5845C7.66817 22.5845 3.46253 18.2837 3.46253 12.9872C3.46253 7.69056 7.66817 3.38979 12.8316 3.38979C15.8506 3.38979 18.6196 4.87284 20.3477 7.2669C20.0693 7.59586 19.358 8.42122 18.2138 9.74288L20.5424 12.1056L24.4076 7.66943C22.4089 3.05083 17.891 0 12.8316 0C5.81521 0 0.131287 5.82622 0.131287 12.9872C0.131287 20.1481 5.81521 25.9743 12.8316 25.9743C16.0171 25.9743 18.6613 24.9573 21.243 22.7116C23.5957 20.6777 24.7015 17.8577 24.7015 17.8577L16.6001 9.59735Z" fill="url(#paint0_linear_165_235)"/>
    <path d="M78.5178 14.9885V22.0834H75.6225V14.8336C75.3287 13.1676 73.8606 11.9012 72.0939 11.9012C70.3007 11.9012 68.8151 13.2066 68.5532 14.9104V22.0834H65.6576V9.20798L67.8786 10.6172C69.0088 9.64895 70.4827 9.06329 72.0939 9.06329C75.4986 9.06329 78.2869 11.6767 78.5247 14.9885H78.5178ZM48.1245 7.57337C47.1626 8.07453 46.3037 8.74526 45.5869 9.54587C44.517 8.06508 42.7744 7.10129 40.8068 7.10129C37.5528 7.10129 34.9151 9.73647 34.9151 12.9871C34.9151 16.2378 37.5528 18.873 40.8068 18.873C41.863 18.873 42.8543 18.5953 43.7113 18.1091C44.0331 19.1532 44.5418 20.1156 45.1982 20.9573C43.8962 21.675 42.3991 22.0834 40.8068 22.0834C35.7782 22.0834 31.7015 18.0109 31.7015 12.9871C31.7015 7.9634 35.7782 3.89087 40.8068 3.89087C43.8055 3.89087 46.4654 5.33899 48.1245 7.57337ZM52.4325 22.0834C48.8794 22.0834 45.9988 19.2087 45.9988 15.6625C45.9988 12.1163 48.8794 9.24163 52.4325 9.24163C55.9859 9.24163 58.8665 12.1163 58.8665 15.6625C58.8665 19.2087 55.9859 22.0834 52.4325 22.0834ZM52.4325 19.2297C54.4066 19.2297 56.0071 17.6326 56.0071 15.6625C56.0071 13.6925 54.4066 12.0953 52.4325 12.0953C50.4587 12.0953 48.8582 13.6925 48.8582 15.6625C48.8582 17.6326 50.4587 19.2297 52.4325 19.2297ZM60.6535 9.24163H63.5129V22.0834H60.6535V9.24163ZM91.7504 6.9676H83.5702V11.6356H91.5124V14.534H83.5702V19.185H91.7504V22.0834H80.491V4.06921H91.7504V6.9676ZM97.7628 15.6352L93.3603 9.24163H97.0014C97.1087 9.42062 97.2652 9.66629 97.4716 9.9795C97.7132 10.3465 97.9637 10.727 98.2226 11.1209C98.4815 11.5149 98.7319 11.8954 98.9732 12.2625C99.2132 12.6268 99.3838 12.8973 99.4855 13.0725L99.6316 13.3257L102.248 9.24163H105.712L101.387 15.5279L105.869 22.0834H102.272L99.5119 17.886L99.3629 18.1072C99.2413 18.2877 99.0593 18.5662 98.8164 18.9433C98.5751 19.3188 98.3168 19.7167 98.0413 20.1371C97.7641 20.5584 97.5052 20.9573 97.2632 21.3338C97.0575 21.6542 96.9006 21.9038 96.7937 22.0834H93.3584L97.7628 15.6352Z" fill="white"/>
    <path d="M60.0256 5.95156C60.0256 5.38661 60.2319 4.89825 60.6444 4.48653C61.0569 4.07477 61.5507 3.8689 62.1263 3.8689C62.7112 3.8689 63.2102 4.07477 63.6227 4.48653C64.0348 4.88871 64.2411 5.38182 64.2411 5.96592C64.2411 6.55003 64.0348 7.04796 63.6227 7.45975C63.2196 7.87147 62.7259 8.07732 62.1407 8.07732C61.5556 8.07732 61.0569 7.87147 60.6444 7.45975C60.2319 7.04796 60.0256 6.54524 60.0256 5.95156Z" fill="url(#paint1_linear_165_235)"/>
    <defs>
        <linearGradient id="paint0_linear_165_235" x1="24.7015" y1="12.9872" x2="0.131287" y2="12.9872" gradientUnits="userSpaceOnUse">
            <stop stop-color="#22E6B8"/>
            <stop offset="1" stop-color="#00C1CE"/>
        </linearGradient>
        <linearGradient id="paint1_linear_165_235" x1="64.2411" y1="5.97312" x2="60.0256" y2="5.97312" gradientUnits="userSpaceOnUse">
            <stop stop-color="#22E6B8"/>
            <stop offset="1" stop-color="#00C1CE"/>
        </linearGradient>
    </defs>
</svg>
