<svg width="110" height="31" viewBox="0 0 110 31" fill="none" xmlns="http://www.w3.org/2000/svg">
    <mask id="mask0_165_256" style="mask-type:luminance" maskUnits="userSpaceOnUse" x="0" y="0" width="110" height="31">
        <path d="M109.541 0.975586H0.458923V30.9731H109.541V0.975586Z" fill="white"/>
    </mask>
    <g mask="url(#mask0_165_256)">
        <mask id="mask1_165_256" style="mask-type:luminance" maskUnits="userSpaceOnUse" x="0" y="0" width="110" height="31">
            <path d="M109.541 0.975586H0.458923V30.9731H109.541V0.975586Z" fill="white"/>
        </mask>
        <g mask="url(#mask1_165_256)">
            <path d="M14.8073 7.79321H6.07065V13.447H0.458923L0.458932 18.3789C0.458939 22.161 3.50191 25.227 7.2556 25.227H14.8005L14.8073 19.5726H7.2556C6.60128 19.5726 6.07086 19.0382 6.07085 18.3789L6.07065 13.447H14.8005L14.8073 7.79321Z" fill="#6C4FFF"/>
            <path d="M30.0997 24.713C25.0532 24.713 21.8933 21.3714 21.8933 16.0519C21.8933 10.8008 25.235 7.34549 30.2588 7.34549C34.4644 7.34549 37.4878 9.75512 38.0107 13.5287H34.1233C33.6233 11.8465 32.1911 10.8918 30.168 10.8918C27.4401 10.8918 25.7807 12.824 25.7807 16.0292C25.7807 19.1891 27.4628 21.1667 30.168 21.1667C32.2366 21.1667 33.7597 20.1437 34.2143 18.4844H38.0333C37.4423 22.2351 34.3053 24.713 30.0997 24.713ZM39.4506 18.7345C39.4506 15.1427 42.0875 12.7331 45.7247 12.7331C49.3391 12.7331 51.9761 15.1427 51.9761 18.7345C51.9761 22.3261 49.3391 24.713 45.7247 24.713C42.0875 24.713 39.4506 22.3261 39.4506 18.7345ZM42.9741 18.7116C42.9741 20.4393 44.088 21.5759 45.7247 21.5759C47.3387 21.5759 48.4526 20.4393 48.4526 18.7116C48.4526 17.0068 47.3387 15.8701 45.7247 15.8701C44.088 15.8701 42.9741 17.0068 42.9741 18.7116ZM55.7333 11.3009C54.6195 11.3009 53.7328 10.4143 53.7328 9.30045C53.7328 8.18659 54.6195 7.32275 55.7333 7.32275C56.8245 7.32275 57.7111 8.18659 57.7111 9.30045C57.7111 10.4143 56.8245 11.3009 55.7333 11.3009ZM54.0056 24.4403V13.074H57.5064V24.4403H54.0056ZM63.6335 24.4403H60.1327V13.074H63.429L63.6563 14.2561C64.361 13.2786 65.6567 12.7103 67.1343 12.7103C69.8392 12.7103 71.408 14.4379 71.408 17.4159V24.4403H67.9072V18.257C67.9072 16.8249 67.1116 15.8928 65.9067 15.8928C64.5201 15.8928 63.6335 16.8021 63.6335 18.2116V24.4403ZM76.8552 24.4403L71.8089 7.61828H75.6506L77.8561 14.9154C78.1513 15.9156 78.424 16.9158 78.6967 18.5753C78.9694 16.9158 79.2428 15.9611 79.538 14.9154L81.6065 7.61828H85.7209L87.6987 14.9154C87.9714 15.9384 88.2448 16.9613 88.54 18.5753C88.881 16.8704 89.1311 15.9384 89.4263 14.9608L91.6768 7.61828H95.4279L90.2901 24.4403H86.6986L83.63 13.3922L80.47 24.4403H76.8552Z" fill="white"/>
        </g>
    </g>
</svg>
