<svg width="26" height="26" viewBox="0 0 26 26" fill="none" xmlns="http://www.w3.org/2000/svg">
    <path fill-rule="evenodd" clip-rule="evenodd" d="M9.26677 6.82775L21.6578 5.96128C23.3615 5.84215 24.853 7.1387 24.9722 8.84242L25.8386 21.2334C25.9578 22.9372 24.6612 24.4287 22.9575 24.5478L10.5665 25.4143C8.86274 25.5334 7.37124 24.2368 7.2521 22.5331L6.38564 10.1421C6.2665 8.43839 7.56305 6.94688 9.26677 6.82775ZM3.52029 1.60414L15.9113 0.737679C17.615 0.618543 19.1065 1.91509 19.2257 3.61882L19.3155 4.90311L9.18174 5.61173C6.80905 5.77765 5.0037 7.85445 5.16962 10.2271L5.86119 20.117L4.81993 20.1898C3.11621 20.309 1.6247 19.0124 1.50557 17.3087L0.639101 4.9177C0.519965 3.21398 1.81651 1.72247 3.52024 1.60333L3.52029 1.60414Z" fill="white"/>
</svg>
