<svg width="240" height="157" viewBox="0 0 240 157" fill="none" xmlns="http://www.w3.org/2000/svg">
    <g opacity="0.2" clip-path="url(#clip0_260_138)">
        <path d="M5.1014 116.855C18.8081 102.966 32.1209 88.7056 45.8898 74.8582C53.3342 67.3766 60.7786 59.8949 68.3059 52.4958C74.3609 46.5229 81.6808 40.9219 86.4502 33.8743C87.3004 32.6135 85.6415 31.1461 84.418 31.8488C77.0359 36.0857 71.0431 43.2987 64.988 49.189C57.4193 56.5467 49.9334 63.9871 42.5098 71.4894C28.8238 85.3367 14.806 99.1014 2.03242 113.796C0.207621 115.884 3.13145 118.901 5.12214 116.876L5.1014 116.855Z" fill="white"/>
        <path d="M86.305 31.1047C86.3672 31.2907 86.4502 31.4767 86.5124 31.642C86.5953 31.8694 86.6575 32.0967 86.8234 32.3034C86.8856 32.386 86.9478 32.4687 87.01 32.5514C87.1345 32.7167 87.2589 32.882 87.3833 33.0474C87.5906 33.3367 87.7358 33.5434 88.0675 33.7087C88.109 33.7294 88.1505 33.75 88.192 33.7707C88.2749 33.812 88.3578 33.8534 88.4408 33.8947C88.6689 34.0187 88.9177 34.1014 89.1873 34.1014C89.4568 34.1014 89.7056 34.0394 89.9337 33.8947C90.3692 33.6467 90.7009 33.13 90.6595 32.6134C90.6595 32.5307 90.6595 32.448 90.6595 32.3654C90.6595 32.324 90.6595 32.2827 90.6595 32.2414C90.6387 31.8694 90.5973 31.6214 90.4106 31.2907C90.307 31.1047 90.2033 30.9394 90.0996 30.774C89.9337 30.4847 89.7471 30.1954 89.4983 29.9474C89.3531 29.8027 89.208 29.6787 89.0628 29.534C88.9592 29.4514 88.8348 29.3687 88.7311 29.286C88.5445 29.162 88.3371 29.1 88.1298 29.1C87.9846 29.0587 87.8395 29.0587 87.6943 29.1C87.487 29.1 87.2796 29.1827 87.093 29.286C86.9893 29.3687 86.8649 29.4514 86.7612 29.534C86.6783 29.6374 86.5953 29.7614 86.5124 29.8647C86.388 30.0507 86.3258 30.2574 86.3258 30.464C86.2843 30.6707 86.2843 30.898 86.3465 31.1047H86.305Z" fill="white"/>
        <path d="M88.0882 32.1382C90.0166 34.3083 92.6294 36.0444 94.8897 37.8631C96.8596 39.4545 98.8296 41.0459 100.8 42.6374C104.221 45.3862 107.643 48.1143 111.043 50.8631C114.299 53.4879 117.555 56.0507 120.769 58.7168C124.729 62.003 128.441 65.8058 132.899 68.3686C134.33 69.1953 136.445 67.4385 135.326 65.9505C132.215 61.8583 128.006 58.7168 124.066 55.4306C120.789 52.7025 117.472 49.995 114.071 47.3909C110.691 44.8075 107.29 42.2447 103.889 39.6819C101.899 38.1731 99.9079 36.6644 97.9172 35.1557C95.4081 33.2542 92.9612 30.9188 90.2033 29.3894C88.4199 28.418 86.7818 30.6501 88.0882 32.1175V32.1382Z" fill="white"/>
        <path d="M140.738 68.2445C147.166 62.1269 153.366 55.8026 159.525 49.4163C162.553 46.2748 165.58 43.1126 168.587 39.9298C170.08 38.3384 171.656 36.809 173.17 35.2383C174.58 33.7708 176.695 32.2208 177.172 30.1747C177.483 28.8313 176.259 27.3432 174.808 27.8186C172.817 28.4593 171.635 30.34 170.287 31.8488C168.836 33.4815 167.426 35.1556 165.933 36.7677C162.884 40.0538 159.795 43.34 156.705 46.6055C150.608 53.0331 144.408 59.3988 138.312 65.8264C136.798 67.4385 139.141 69.7739 140.738 68.2445Z" fill="white"/>
        <path d="M0.746571 120.947C5.12194 125.246 9.47658 129.524 13.9142 133.761C16.0915 135.848 18.2688 137.936 20.4461 140.023C21.5037 141.036 22.5612 142.049 23.6188 143.062C24.1994 143.62 24.7593 144.26 25.4436 144.715C26.1279 145.17 26.9366 145.5 27.6831 145.893C29.2591 146.72 31.0631 145.046 30.1507 143.434C29.3213 141.987 28.5955 140.85 27.4135 139.693C26.356 138.68 25.2984 137.647 24.2616 136.634C22.0221 134.484 19.8033 132.314 17.5638 130.165C13.1677 125.907 8.70934 121.691 4.27175 117.496C1.97002 115.326 -1.49296 118.736 0.767307 120.988H0.746571V120.947Z" fill="white"/>
        <path d="M35.5215 146.781C35.7288 146.471 35.9569 146.161 36.185 145.851C36.0813 145.975 35.9776 146.099 35.8947 146.244C36.2057 145.831 36.5582 145.438 36.9107 145.066C37.1803 144.777 37.4499 144.508 37.6779 144.177C37.8231 143.971 37.9682 143.764 38.1341 143.557C38.0512 143.681 37.9475 143.785 37.8646 143.909C37.9475 143.805 38.0304 143.681 38.1341 143.578C38.2378 143.454 38.4037 143.289 38.4659 143.165C38.6318 142.855 38.6525 142.565 38.7147 142.235C38.5696 142.607 38.4037 142.958 38.2585 143.33C38.5488 142.979 38.8391 142.648 39.1709 142.317C39.6271 141.863 39.6685 141.139 39.2746 140.643C39.1087 140.437 38.8806 140.251 38.611 140.189C38.2585 140.106 37.9475 140.189 37.6157 140.313C37.201 140.499 36.7863 140.685 36.3716 140.891C36.6412 140.829 36.89 140.747 37.1596 140.685C36.496 140.643 35.874 141.077 35.3349 141.429C34.8372 141.739 34.4432 142.111 34.07 142.545C33.4272 143.289 32.8051 144.074 32.2868 144.901C31.7476 145.727 32.0794 147.009 32.971 147.484C33.9249 147.98 34.9824 147.691 35.5629 146.802L35.5215 146.781Z" fill="white"/>
        <path d="M41.0376 139.424C50.0994 131.632 58.9953 123.655 67.6631 115.429C71.997 111.295 76.3101 107.141 80.5611 102.925C82.531 100.982 84.501 99.0187 86.4295 97.0346C87.8396 95.6085 90.639 93.6864 90.9293 91.6196C91.0122 90.9996 90.5975 90.5243 89.9547 90.6483C87.964 90.9996 86.2843 93.6244 84.9365 95.0091C83.008 96.9726 81.0588 98.936 79.0888 100.879C74.7549 105.198 70.3588 109.456 65.9212 113.672C57.2741 121.918 48.6063 130.123 39.6897 138.06C38.7773 138.887 40.1044 140.189 41.0376 139.403V139.424Z" fill="white"/>
        <path d="M89.7886 91.4957C96.9427 97.0966 104.304 102.429 111.645 107.802C115.232 110.427 118.799 113.093 122.324 115.801C126.762 119.19 131.054 122.911 135.658 126.073C136.819 126.879 138.167 125.081 137.151 124.13C133.273 120.492 128.794 117.31 124.543 114.127C120.872 111.378 117.161 108.671 113.428 106.004C105.942 100.651 98.3735 95.4226 90.8462 90.1316C90.0375 89.5736 88.9799 90.8963 89.7679 91.5164L89.7886 91.4957Z" fill="white"/>
        <path d="M140.344 122.58C151.894 112.06 163.112 101.189 174.227 90.2143C185.321 79.2604 196.56 68.3066 207.011 56.7533C207.986 55.6786 206.451 54.1079 205.394 55.1413C194.3 66.1158 183.621 77.5243 172.547 88.5402C161.474 99.5561 150.214 110.386 139.017 121.257C138.167 122.084 139.452 123.345 140.302 122.539L140.344 122.58Z" fill="white"/>
        <path d="M175.947 29.9674C173.563 27.3015 170.929 24.9248 168.192 22.6308C166.762 21.4321 165.331 20.2541 163.879 19.0968C163.237 18.5801 162.573 18.0428 161.93 17.5261C161.225 16.9681 160.458 16.2448 159.525 16.3481C158.82 16.4101 158.488 16.9061 158.571 17.5881C158.695 18.4355 159.483 18.9935 160.126 19.4895C160.79 20.0061 161.453 20.5228 162.117 21.0395C163.589 22.1761 165.061 23.3335 166.492 24.5115C169.229 26.7228 172.008 28.9341 174.537 31.3934C175.47 32.3028 176.797 30.9388 175.947 29.9881V29.9674Z" fill="white"/>
        <path d="M161.64 18.5594C166.721 17.5674 171.801 16.844 176.861 15.6866C182.066 14.5086 187.27 13.2479 192.475 12.0285C197.493 10.8504 202.491 9.67235 207.509 8.4943C212.32 7.35758 217.877 6.77888 222.273 4.48477C223.912 3.61673 223.082 1.17795 221.361 1.13661C216.571 1.01261 211.49 2.89336 206.866 3.94741C201.661 5.14614 196.436 6.34486 191.231 7.52292C186.213 8.68031 181.195 9.79636 176.176 10.9744C170.951 12.1938 165.891 13.8266 160.728 15.2113C158.53 15.8106 159.463 18.9935 161.661 18.5594H161.64Z" fill="white"/>
        <path d="M223.538 3.20322C223.538 3.20322 223.6 3.26522 223.642 3.30655C223.476 3.03789 223.331 2.76922 223.165 2.50055C223.165 2.50055 223.165 2.52122 223.165 2.54189C223.227 2.70722 223.289 2.85189 223.372 3.01722C223.497 3.24455 223.663 3.43055 223.891 3.57522C224.015 3.69922 224.16 3.78189 224.326 3.82322C224.554 3.94722 224.824 4.00922 225.093 3.98855C225.259 3.98855 225.425 4.00922 225.591 4.02988C225.674 4.02988 225.757 4.02988 225.84 4.02988C226.026 4.00922 226.192 3.98855 226.379 3.94722C226.545 3.88522 226.711 3.80255 226.856 3.74055C226.856 3.74055 226.877 3.74055 226.897 3.74055C226.939 3.74055 226.98 3.69922 227.022 3.69922C227.312 3.53389 227.54 3.28589 227.727 2.99655C227.913 2.68655 227.996 2.35589 227.996 2.00455C227.996 1.65322 227.913 1.32255 227.727 1.01256C227.561 0.723222 227.312 0.495889 227.022 0.309889C226.98 0.309889 226.96 0.289223 226.918 0.268556C226.918 0.268556 226.897 0.268556 226.877 0.268556C226.794 0.227223 226.711 0.206556 226.628 0.165223C226.462 0.0825562 226.296 0.0205562 226.109 0.0205562C225.944 -0.000110404 225.861 -0.020777 225.715 -0.000110404C225.674 -0.000110404 225.632 -0.000110404 225.591 -0.000110404C225.425 -0.000110404 225.259 0.0205562 225.093 0.0412229C224.927 0.0618895 224.741 0.0825562 224.575 0.103223C224.326 0.165223 224.098 0.289223 223.911 0.454556C223.766 0.537222 223.642 0.661222 223.559 0.805889C223.393 0.991888 223.269 1.21922 223.206 1.46722C223.206 1.46722 223.206 1.48789 223.206 1.50855C223.372 1.23989 223.517 0.971222 223.683 0.702555C223.642 0.743889 223.621 0.764555 223.58 0.805889C223.414 0.950555 223.289 1.13655 223.227 1.34322C223.124 1.54989 223.082 1.75655 223.082 1.98389L223.144 2.43855C223.227 2.72789 223.372 2.97589 223.58 3.18255L223.538 3.20322Z" fill="white"/>
        <path d="M227.852 2.76939C227.934 24.1397 228.017 45.5308 226.255 66.8598C226.13 68.3272 228.453 68.3272 228.557 66.8598C230.278 45.5308 230.195 24.1397 230.07 2.76939C230.07 1.34332 227.831 1.32265 227.831 2.76939H227.852Z" fill="white"/>
        <path d="M206.576 56.0506C209.375 58.6341 212.569 60.8868 215.596 63.2016C218.665 65.5577 221.755 67.9139 224.824 70.2493C225.363 70.6626 226.213 70.332 226.524 69.8153C226.898 69.1952 226.607 68.5339 226.089 68.1205C223.041 65.8471 219.992 63.553 216.944 61.2795C213.917 59.0061 210.931 56.588 207.696 54.6039C206.825 54.0665 205.809 55.3272 206.576 56.0299V56.0506Z" fill="white"/>
        <path d="M157.327 18.1047C158.281 20.5227 159.566 22.7753 160.417 25.2553C160.81 26.454 161.163 27.6733 161.453 28.8927C161.785 30.2566 161.764 31.9926 162.925 32.9433C163.734 33.6046 164.792 33.5426 165.393 32.6333C166.285 31.2693 165.663 29.554 165.289 28.1073C164.937 26.764 164.522 25.4413 164.045 24.1393C163.071 21.494 161.93 18.6833 160.126 16.5133C159.089 15.2733 156.767 16.596 157.348 18.1253L157.327 18.1047Z" fill="white"/>
        <path d="M225.84 70.2285C226.545 72.7912 227.374 75.3125 228.369 77.7719C229.365 80.2518 230.402 82.7318 231.915 84.9225C232.496 85.7698 234.155 85.2738 233.719 84.1578C232.745 81.7398 231.521 79.4458 230.547 77.0279C229.572 74.6099 228.722 72.1299 228.017 69.6085C227.623 68.2239 225.487 68.8025 225.86 70.2079L225.84 70.2285Z" fill="white"/>
        <path d="M32.639 149.241C33.5513 149.902 34.4637 150.543 35.376 151.163C36.3298 151.804 37.2422 152.527 38.196 153.147C39.1291 153.746 40.1244 154.263 41.099 154.78C42.1772 155.358 43.3799 156.164 44.5825 156.433C45.7852 156.702 47.0085 156.164 47.4855 155.007C48.0038 153.788 47.4855 152.692 46.4694 151.948C45.9925 151.597 45.4119 151.39 44.8728 151.163C44.3959 150.956 43.919 150.729 43.4628 150.502C42.4675 150.026 41.4722 149.489 40.4769 149.014C40.2281 148.91 39.9585 148.807 39.7097 148.683C39.4609 148.58 39.4401 148.58 39.6475 148.662C39.4401 148.58 39.2328 148.476 39.0254 148.394C38.4863 148.166 37.9472 147.877 37.4288 147.608C36.4543 147.092 35.4797 146.554 34.5051 145.996C33.655 145.5 32.3901 145.769 31.9132 146.678C31.3948 147.65 31.7266 148.642 32.5975 149.262L32.639 149.241Z" fill="white"/>
        <path d="M50.8457 153.664C58.5804 146.947 66.3773 140.333 74.0912 133.596C77.6786 130.475 81.0793 127.106 84.3972 123.696C86.0975 121.939 87.7772 120.162 89.3946 118.322C90.8669 116.628 92.8991 114.788 93.5626 112.618C93.9981 111.171 92.3392 110.035 91.0743 110.717C89.125 111.771 87.6942 114.085 86.2012 115.718C84.646 117.434 83.07 119.128 81.4526 120.802C78.0311 124.316 74.423 127.602 70.8978 131.012C63.64 138.019 56.0298 144.653 48.5025 151.391C46.9265 152.796 49.2283 155.049 50.8042 153.685L50.8457 153.664Z" fill="white"/>
        <path d="M96.4446 110.882C96.4446 110.882 96.6313 110.778 96.7349 110.737C97.046 110.551 97.2741 110.324 97.4607 110.014C97.6473 109.704 97.7302 109.373 97.7302 109.001C97.7302 108.65 97.6473 108.298 97.4607 107.988C97.2741 107.678 97.046 107.451 96.7349 107.265C96.6313 107.224 96.5483 107.162 96.4446 107.12C96.1129 106.914 95.7396 106.831 95.3457 106.831C94.9517 106.831 94.5785 106.934 94.2467 107.12C93.5832 107.513 93.1685 108.236 93.1685 109.001C93.1685 109.766 93.5832 110.489 94.2467 110.882C94.5785 111.088 94.9517 111.171 95.3457 111.171C95.7396 111.171 96.1129 111.068 96.4446 110.882Z" fill="white"/>
        <path d="M97.3574 109.022C104.408 114.354 111.665 119.397 118.882 124.481C122.448 127.003 126.057 129.504 129.665 131.984C131.303 133.12 132.941 134.257 134.517 135.497C135.948 136.634 137.192 138.122 138.768 139.011C140.365 139.899 142.086 138.122 141.236 136.551C140.385 134.96 138.747 133.782 137.358 132.666C135.823 131.426 134.206 130.268 132.588 129.152C128.939 126.61 125.248 124.089 121.536 121.609C113.988 116.524 106.502 111.399 98.7882 106.562C97.1915 105.57 95.9266 107.947 97.3574 109.022Z" fill="white"/>
        <path d="M146.834 138.907C157.617 129.917 167.861 120.265 177.96 110.51C182.874 105.756 187.727 100.961 192.537 96.1046C197.556 91.041 202.657 85.6468 207.074 80.0665C208.214 78.6198 206.451 76.739 205.021 78.0204C199.837 82.6706 194.86 87.7962 189.987 92.7771C185.072 97.7993 180.116 102.76 175.098 107.678C165.062 117.496 154.673 126.92 144.45 136.551C142.853 138.06 145.196 140.292 146.834 138.928V138.907Z" fill="white"/>
        <path d="M209.956 79.0949C210.225 79.2189 210.495 79.3429 210.765 79.4875C210.827 79.5289 210.91 79.5495 210.972 79.5909C210.993 79.5909 211.034 79.6115 211.055 79.6322C211.366 79.7769 211.594 79.8802 211.946 79.8802C212.175 79.8802 212.465 79.8182 212.693 79.7769C212.921 79.7149 213.128 79.5909 213.315 79.4255C213.46 79.3015 213.543 79.1569 213.605 78.9709C213.688 78.8055 213.73 78.6195 213.73 78.4335C213.73 78.1855 213.668 77.9582 213.543 77.7309C213.419 77.5035 213.315 77.2762 213.128 77.0902C212.983 76.9455 212.817 76.8422 212.631 76.7389L212.444 76.6356C212.175 76.4909 211.926 76.3669 211.656 76.2222C211.47 76.0982 211.262 76.0362 211.034 76.0155C210.806 75.9742 210.578 75.9742 210.371 76.0362C210.142 76.0982 209.956 76.1809 209.79 76.3462C209.603 76.4702 209.458 76.6149 209.355 76.8215C209.292 76.9455 209.251 77.0902 209.189 77.2142C209.106 77.5035 209.106 77.8135 209.189 78.1029C209.251 78.2269 209.292 78.3715 209.355 78.4955C209.5 78.7435 209.707 78.9502 209.956 79.0949Z" fill="white"/>
        <path d="M215.7 80.4384C218.271 82.5257 220.842 84.6131 223.434 86.7004C224.678 87.7131 225.922 88.7257 227.187 89.7384C227.892 90.3171 228.597 90.8751 229.323 91.4124C230.049 91.9497 230.774 92.7144 231.749 92.6111C232.807 92.5077 233.346 91.7431 233.201 90.7097C233.076 89.8004 232.226 89.3044 231.562 88.7464C230.857 88.1677 230.152 87.6304 229.427 87.0724C228.1 86.0804 226.793 85.0677 225.466 84.0757C222.833 82.0711 220.179 80.0664 217.545 78.0617C216.198 77.0284 214.373 79.3431 215.721 80.4384H215.7Z" fill="white"/>
        <path d="M228.307 3.55461C229.303 6.40661 230.443 9.21727 231.729 11.9453C232.351 13.2473 233.014 14.5286 233.698 15.8099C234.466 17.2153 235.378 19.4059 237.265 19.3853C237.866 19.3853 238.468 19.0546 238.779 18.5173C239.691 16.8639 238.302 15.1486 237.514 13.7433C236.83 12.5239 236.187 11.2839 235.565 10.0439C234.321 7.58461 233.18 5.08394 232.185 2.50061C231.791 1.48795 230.837 0.80595 229.717 1.09528C228.722 1.36395 227.955 2.52128 228.307 3.55461Z" fill="white"/>
        <path d="M235.835 19.1589C235.648 30.8775 235.461 42.596 235.088 54.3353C234.902 60.0809 234.819 65.8265 234.715 71.5721C234.611 77.483 234.155 83.6007 234.715 89.4909C234.922 91.7024 237.908 91.6817 238.157 89.4909C238.821 83.6007 238.51 77.483 238.51 71.5721C238.51 65.8265 238.551 60.0809 238.51 54.3353C238.365 42.6167 238.427 30.8981 238.468 19.1589C238.468 17.4848 235.876 17.4848 235.855 19.1589H235.835Z" fill="white"/>
        <path d="M235.731 91.0408C238.199 91.0408 238.199 87.2175 235.731 87.2175C233.263 87.2175 233.263 91.0408 235.731 91.0408Z" fill="white"/>
        <path d="M231.75 86.4114C231.812 86.7421 231.874 87.0727 231.957 87.4034C231.999 87.5687 232.019 87.7341 232.061 87.8994C232.144 88.2714 232.372 88.5194 232.641 88.7674C232.787 88.9121 232.952 88.9947 233.139 89.0567C233.284 89.0981 233.45 89.1187 233.595 89.0567C233.74 89.0567 233.886 89.0154 234.01 88.9327C234.176 88.8294 234.321 88.7054 234.425 88.5194C234.445 88.4574 234.487 88.3954 234.508 88.3334C234.57 88.2094 234.632 88.0854 234.673 87.9614C234.756 87.6927 234.715 87.4447 234.673 87.1761C234.632 87.0107 234.611 86.8454 234.57 86.6801C234.508 86.3494 234.425 85.9981 234.362 85.6674C234.321 85.5021 234.238 85.3367 234.114 85.2127C234.01 85.0681 233.886 84.9441 233.74 84.8614C233.595 84.7581 233.429 84.7167 233.243 84.6961C233.056 84.6547 232.89 84.6548 232.704 84.7168C232.372 84.8201 232.061 85.0267 231.895 85.3367C231.853 85.4401 231.812 85.5434 231.75 85.6467C231.688 85.8741 231.688 86.1221 231.75 86.3494V86.4114Z" fill="white"/>
        <path d="M163.714 33.6881C163.693 33.8741 163.693 34.0601 163.714 34.2255C163.755 34.5561 163.776 34.8868 163.9 35.2175C163.983 35.4448 164.087 35.6721 164.17 35.8788C164.211 35.9615 164.253 36.0441 164.294 36.1061C164.419 36.3128 164.585 36.5195 164.73 36.7055C164.751 36.7468 164.792 36.7675 164.813 36.8088C164.813 36.8088 164.813 36.8088 164.813 36.8295C164.937 36.9328 165.062 37.0361 165.207 37.1188C165.435 37.2635 165.663 37.3255 165.912 37.3461C165.995 37.3668 166.098 37.3875 166.181 37.3875C166.451 37.3875 166.679 37.3461 166.907 37.2221C167.135 37.1395 167.342 37.0155 167.508 36.8295L167.799 36.4368C167.965 36.1475 168.047 35.8168 168.047 35.4861C168.047 35.1555 167.985 34.9901 167.882 34.7215C167.84 34.5561 167.757 34.4115 167.633 34.3081C167.591 34.2255 167.529 34.1635 167.467 34.1015C167.425 34.0601 167.384 34.0395 167.363 33.9981C167.301 33.9361 167.239 33.8535 167.177 33.7915L167.467 34.1635C167.342 33.9981 167.239 33.8328 167.177 33.6468C167.239 33.7915 167.301 33.9361 167.363 34.0808C167.28 33.8948 167.218 33.6881 167.197 33.4815C167.218 33.6468 167.239 33.8121 167.26 33.9568C167.26 33.8535 167.239 33.7501 167.239 33.6261C167.239 33.3781 167.197 33.1508 167.094 32.9235C167.011 32.6961 166.886 32.5101 166.72 32.3448C166.555 32.1795 166.368 32.0555 166.14 31.9728C165.932 31.8695 165.684 31.8075 165.435 31.8281C165.269 31.8488 165.124 31.8695 164.958 31.8901C164.647 31.9728 164.377 32.1381 164.17 32.3448C164.066 32.4688 163.983 32.5928 163.88 32.7168C163.714 33.0061 163.631 33.2955 163.631 33.6261L163.714 33.6881Z" fill="white"/>
        <path d="M135.45 126.362C136.943 128.181 138.27 130.144 139.431 132.19C140.012 133.223 140.53 134.257 141.028 135.331C141.546 136.447 141.878 137.646 142.666 138.617C143.246 139.341 144.47 138.721 144.47 137.873C144.449 136.571 143.765 135.352 143.226 134.195C142.687 133.058 142.106 131.963 141.484 130.888C140.219 128.718 138.726 126.651 137.088 124.729C136.694 124.254 135.865 124.316 135.45 124.729C134.973 125.205 135.056 125.866 135.45 126.362Z" fill="white"/>
        <path d="M88.7101 92.8803C89.6017 95.4223 90.6592 97.923 91.9241 100.32C93.1474 102.676 94.4538 105.177 96.4029 107.016C97.0872 107.657 98.041 106.851 97.647 106.045C96.548 103.73 94.9929 101.643 93.7902 99.3696C92.5876 97.0963 91.5716 94.7403 90.7214 92.3223C90.286 91.0823 88.2954 91.6196 88.7308 92.8803H88.7101Z" fill="white"/>
        <path d="M97.6063 108.65C98.7468 108.65 98.7468 106.893 97.6063 106.893C96.4659 106.893 96.4659 108.65 97.6063 108.65Z" fill="white"/>
        <path d="M207.073 55.8026C207.799 58.7992 208.525 61.7959 209.292 64.7719C209.665 66.2392 210.038 67.7066 210.412 69.1739C210.598 69.9386 210.785 70.7032 211.054 71.4472C211.262 72.0672 211.365 72.7492 212.008 73.0179C212.34 73.1626 212.63 73.0799 212.838 72.7906C213.273 72.2326 213.004 71.5712 212.879 70.9306C212.734 70.1659 212.506 69.4012 212.299 68.6572C211.905 67.1899 211.49 65.7432 211.096 64.2759C210.267 61.2999 209.416 58.3446 208.566 55.3892C208.276 54.4179 206.824 54.8312 207.053 55.8026H207.073Z" fill="white"/>
        <path d="M212.631 75.0442C214.041 75.0442 214.061 72.8535 212.631 72.8535C211.2 72.8535 211.2 75.0442 212.631 75.0442Z" fill="white"/>
        <path d="M212.693 75.3749C213.129 76.1189 213.813 76.7595 214.393 77.3795C214.995 78.0202 215.617 78.6609 216.239 79.2809C216.84 79.9009 217.462 80.5002 218.064 81.0995C218.375 81.4095 218.706 81.7195 219.017 82.0089C219.349 82.3189 219.681 82.7529 220.158 82.8355C220.573 82.9182 220.987 82.5669 220.863 82.1329C220.738 81.6782 220.365 81.4095 220.013 81.0995C219.681 80.8102 219.37 80.5002 219.038 80.2109C218.395 79.6115 217.753 78.9915 217.11 78.3922C216.488 77.7929 215.886 77.1935 215.264 76.5735C214.642 75.9535 214.02 75.2302 213.294 74.7342C212.9 74.4655 212.444 74.9822 212.672 75.3542L212.693 75.3749Z" fill="white"/>
        <path d="M212.008 73.1014C213.377 74.1554 214.704 75.2301 216.01 76.3667C216.653 76.9247 217.275 77.5034 217.918 78.0614C218.229 78.3301 218.54 78.5987 218.851 78.8881C219.183 79.1981 219.515 79.5701 219.95 79.6941C220.323 79.7974 220.697 79.4461 220.572 79.0741C220.427 78.6401 220.095 78.3714 219.784 78.0614C219.473 77.7514 219.162 77.4414 218.851 77.1521C218.208 76.5321 217.503 75.9534 216.819 75.3747C215.471 74.2174 214.061 73.1221 212.651 72.0474C212.382 71.8408 211.926 72.0061 211.78 72.2748C211.594 72.6054 211.739 72.9361 212.008 73.1427V73.1014Z" fill="white"/>
        <path d="M212.029 70.2286C213.315 71.1999 214.58 72.1919 215.803 73.2046C216.425 73.7006 217.027 74.2173 217.628 74.7339C217.939 75.0026 218.25 75.2506 218.582 75.4986C218.893 75.7466 219.225 76.0773 219.618 76.1599C219.971 76.2219 220.344 75.9326 220.22 75.5606C220.095 75.1473 219.764 74.8786 219.453 74.5893C219.162 74.2999 218.893 74.0313 218.582 73.7833C217.939 73.2459 217.296 72.7086 216.633 72.1713C215.326 71.1173 214.02 70.1046 212.672 69.0919C212.382 68.8853 211.926 69.0506 211.76 69.3193C211.552 69.65 211.718 70.0013 211.988 70.2286H212.029Z" fill="white"/>
        <path d="M209.251 64.7724C210.806 65.7437 212.34 66.7771 213.833 67.8517C214.559 68.3684 215.264 68.9057 215.969 69.4637C216.674 70.0424 217.358 70.8071 218.229 71.1584C218.706 71.3444 219.1 70.7244 218.872 70.3111C218.436 69.5464 217.524 69.0091 216.84 68.4717C216.093 67.8931 215.326 67.3144 214.559 66.7771C213.025 65.7024 211.428 64.7517 209.769 63.8837C209.188 63.5737 208.691 64.4211 209.251 64.7724Z" fill="white"/>
        <path d="M212.113 62.2096C213.253 63.5736 214.497 64.8549 215.824 66.0536C216.488 66.6323 217.151 67.2109 217.856 67.7483C218.209 68.0169 218.561 68.2856 218.934 68.5543C219.328 68.8229 219.743 68.9676 220.179 69.1949C220.614 69.4223 221.132 68.8436 220.718 68.4923C220.365 68.2029 220.116 67.8516 219.743 67.6036C219.391 67.3556 219.038 67.0869 218.686 66.8183C217.981 66.3016 217.317 65.7436 216.654 65.165C215.327 64.0076 214.082 62.7676 212.921 61.445C212.444 60.9076 211.677 61.693 212.133 62.2303L212.113 62.2096Z" fill="white"/>
        <path d="M219.681 71.9027C219.868 72.1507 220.034 72.378 220.22 72.626C220.303 72.75 220.407 72.8533 220.49 72.9773C220.532 73.0393 220.594 73.122 220.635 73.1633C220.677 73.2047 220.76 73.2667 220.822 73.308C220.884 73.3493 220.925 73.3907 220.988 73.432C221.05 73.4733 221.174 73.494 221.257 73.494C221.382 73.494 221.485 73.4527 221.568 73.3907C221.734 73.2667 221.796 73.0393 221.755 72.8327C221.755 72.7707 221.713 72.688 221.713 72.626C221.693 72.502 221.63 72.3987 221.568 72.2953C221.506 72.1713 221.423 72.0473 221.361 71.9233C221.216 71.6753 221.071 71.4273 220.905 71.1793C220.822 71.0347 220.656 70.9107 220.49 70.8487C220.324 70.8073 220.096 70.828 219.951 70.9107C219.806 71.014 219.661 71.1587 219.619 71.324C219.578 71.4893 219.578 71.7167 219.681 71.8613V71.9027Z" fill="white"/>
        <path d="M222.937 79.9631C223.6 79.9631 223.6 78.9297 222.937 78.9297C222.273 78.9297 222.273 79.9631 222.937 79.9631Z" fill="white"/>
        <path d="M96.279 106.149C98.1659 107.43 100.032 108.732 101.919 109.993C102.831 110.613 103.744 111.212 104.656 111.832C105.589 112.452 106.564 113.134 107.642 113.486C108.098 113.63 108.326 113.072 108.057 112.762C107.331 111.894 106.315 111.233 105.382 110.613C104.469 109.993 103.557 109.394 102.645 108.774C100.758 107.513 98.8502 106.294 96.9425 105.054C96.2375 104.599 95.5947 105.715 96.279 106.17V106.149Z" fill="white"/>
        <path d="M95.2214 102.925C96.6936 104.041 98.1865 105.157 99.6587 106.252C100.384 106.789 101.131 107.327 101.857 107.864C102.624 108.422 103.412 108.877 104.241 109.352C104.656 109.579 105.133 109.021 104.76 108.67C104.075 108.029 103.412 107.409 102.645 106.851C101.898 106.293 101.131 105.735 100.384 105.177C98.8708 104.082 97.3364 102.987 95.802 101.912C95.1799 101.457 94.5993 102.491 95.2006 102.925H95.2214Z" fill="white"/>
        <path d="M92.0282 96.1459C94.3713 98.0059 96.6522 99.9692 98.8916 101.933C100.011 102.904 101.09 103.917 102.168 104.909C102.707 105.405 103.267 105.901 103.806 106.397C104.324 106.872 104.801 107.471 105.465 107.719C105.817 107.864 106.253 107.43 106.108 107.079C105.859 106.459 105.299 106.025 104.843 105.549C104.304 104.991 103.744 104.433 103.184 103.896C102.085 102.842 100.944 101.85 99.804 100.837C97.5438 98.8532 95.1593 96.9932 92.754 95.1952C92.2149 94.7819 91.4891 95.7119 92.0282 96.1459Z" fill="white"/>
        <path d="M109.156 109.084C109.301 109.084 109.426 109.084 109.571 109.084C109.737 109.084 109.903 109.001 109.986 108.857C110.069 108.712 110.089 108.526 109.986 108.381C109.924 108.278 109.841 108.175 109.778 108.071C109.716 107.968 109.633 107.885 109.53 107.823C109.426 107.761 109.301 107.72 109.177 107.72C108.928 107.72 108.7 107.844 108.576 108.071C108.451 108.278 108.451 108.567 108.576 108.774C108.7 108.981 108.928 109.125 109.177 109.125L109.156 109.084Z" fill="white"/>
        <path d="M115.688 114.292C116.766 114.292 116.766 112.639 115.688 112.639C114.61 112.639 114.61 114.292 115.688 114.292Z" fill="white"/>
        <path d="M221.215 58.0967C221.402 58.3654 221.609 58.6341 221.879 58.8407C222.024 58.9647 222.169 59.0681 222.335 59.1714C222.439 59.2334 222.543 59.2954 222.646 59.3161C222.812 59.3574 222.957 59.3161 223.123 59.3161C223.31 59.2747 223.455 59.1094 223.496 58.9441C223.517 58.8407 223.517 58.7581 223.496 58.6547C223.476 58.5721 223.434 58.4894 223.351 58.4274C223.351 58.4274 223.351 58.4274 223.33 58.4067C223.351 58.4481 223.393 58.4894 223.413 58.5101C223.33 58.3861 223.248 58.2621 223.102 58.1794C223.04 58.1381 222.978 58.1174 222.895 58.0761C222.771 58.0141 222.646 57.9314 222.543 57.8487C222.584 57.8901 222.625 57.9107 222.667 57.9521C222.501 57.8074 222.335 57.6627 222.19 57.4767C222.211 57.5181 222.252 57.5594 222.273 57.6007C222.252 57.5801 222.232 57.5387 222.211 57.5181C222.128 57.3941 222.024 57.2907 221.858 57.2494C221.713 57.2081 221.527 57.2287 221.402 57.3114C221.278 57.3941 221.174 57.5181 221.133 57.6627C221.091 57.8074 221.112 57.9934 221.195 58.1174L221.215 58.0967Z" fill="white"/>
        <path d="M222.73 54.1905C223.663 54.1905 223.663 52.7438 222.73 52.7438C221.797 52.7438 221.797 54.1905 222.73 54.1905Z" fill="white"/>
        <path d="M131.51 114.705C131.635 114.767 131.759 114.85 131.863 114.933C131.925 114.974 131.987 115.015 132.049 115.077C132.132 115.139 131.883 114.953 132.008 115.036C132.029 115.057 132.07 115.077 132.091 115.098C132.319 115.284 132.526 115.491 132.713 115.697C132.817 115.801 132.92 115.904 133.003 116.007C133.107 116.111 133.169 116.235 133.273 116.317C133.148 116.173 133.231 116.276 133.273 116.317C133.273 116.338 133.314 116.359 133.314 116.379C133.356 116.441 133.397 116.503 133.439 116.565C133.563 116.751 133.667 116.958 133.874 117.061C134.185 117.227 134.641 117.082 134.724 116.71C134.828 116.297 134.579 115.842 134.392 115.491C134.247 115.181 134.061 114.871 133.833 114.581C133.397 114.065 132.879 113.631 132.298 113.279C131.946 113.052 131.407 113.197 131.199 113.569C130.992 113.961 131.096 114.437 131.489 114.664L131.51 114.705Z" fill="white"/>
        <path d="M137.856 113.031C138.208 113.3 138.602 113.507 138.996 113.693C139.245 113.796 139.494 113.899 139.763 113.941C140.095 114.003 140.51 114.085 140.842 113.92C141.007 113.817 141.132 113.651 141.153 113.445C141.173 113.238 141.111 113.073 140.966 112.907C140.8 112.721 140.468 112.659 140.24 112.556C140.302 112.577 140.365 112.597 140.406 112.639C140.137 112.515 139.867 112.411 139.597 112.308C139.66 112.329 139.722 112.349 139.784 112.391C139.369 112.225 138.996 111.998 138.644 111.729C138.498 111.626 138.229 111.605 138.063 111.647C137.876 111.688 137.69 111.833 137.607 111.998C137.503 112.184 137.462 112.391 137.524 112.577C137.586 112.783 137.71 112.907 137.876 113.031H137.856Z" fill="white"/>
        <path d="M144.263 108.236C145.383 108.236 145.383 106.521 144.263 106.521C143.143 106.521 143.143 108.236 144.263 108.236Z" fill="white"/>
        <path d="M150.94 103.255C152.06 103.255 152.06 101.54 150.94 101.54C149.82 101.54 149.82 103.255 150.94 103.255Z" fill="white"/>
        <path d="M29.4662 134.877C29.5077 134.98 29.5284 135.084 29.5906 135.187C29.6528 135.332 29.7565 135.456 29.8602 135.58C29.9846 135.724 30.109 135.869 30.2334 136.014C30.5237 136.324 30.8762 136.572 31.2495 136.799C31.4776 136.923 31.8301 136.964 32.0374 136.799C32.0374 136.799 32.0374 136.799 32.0581 136.778C31.8715 136.799 31.6849 136.82 31.4983 136.861C31.7264 136.923 31.9545 136.985 32.1826 136.923C32.5765 136.82 32.7631 136.344 32.5558 136.014C32.4729 135.869 32.3484 135.786 32.224 135.704C32.2655 135.745 32.307 135.766 32.3692 135.807C32.307 135.766 32.2448 135.724 32.2033 135.662C32.2655 135.828 32.3484 135.993 32.4106 136.179V136.158C32.4106 135.91 32.2448 135.6 32.0167 135.476C31.6642 135.311 31.3117 135.084 31.0006 134.856C31.0421 134.898 31.1043 134.939 31.1458 134.96C31.0214 134.856 30.897 134.753 30.7726 134.65C30.6896 134.567 30.6067 134.484 30.503 134.402C30.4408 134.36 30.3786 134.319 30.2956 134.278C30.109 134.154 29.8395 134.195 29.6528 134.319C29.487 134.443 29.3833 134.691 29.4455 134.918L29.4662 134.877Z" fill="white"/>
        <path d="M34.5051 131.88C34.9613 132.004 35.4175 132.107 35.8737 132.231C36.1018 132.293 36.3091 132.355 36.5372 132.397C36.8275 132.479 37.1178 132.459 37.4081 132.459C37.7399 132.459 38.0716 132.231 38.1546 131.901C38.2375 131.57 38.1131 131.198 37.8021 131.033C37.5532 130.888 37.3044 130.743 37.0348 130.661C36.8068 130.599 36.5787 130.537 36.3506 130.475C35.8944 130.351 35.4382 130.227 35.0028 130.123C34.5466 129.999 33.9868 130.268 33.8831 130.764C33.7794 131.239 34.0282 131.756 34.5259 131.88H34.5051Z" fill="white"/>
        <path d="M42.0949 127.251C43.2768 127.251 43.2768 125.432 42.0949 125.432C40.913 125.432 40.913 127.251 42.0949 127.251Z" fill="white"/>
        <path d="M49.7672 121.174C50.8248 121.174 50.8248 119.521 49.7672 119.521C48.7097 119.521 48.7097 121.174 49.7672 121.174Z" fill="white"/>
        <path d="M60.2598 110.51C60.3634 110.489 60.4671 110.469 60.5708 110.427C60.6537 110.427 60.7367 110.345 60.7781 110.283C60.8403 110.221 60.8611 110.117 60.8611 110.035C60.8611 109.869 60.7367 109.683 60.5708 109.642C60.4671 109.621 60.3634 109.601 60.2598 109.559C60.0939 109.518 59.9073 109.559 59.7828 109.683C59.6999 109.787 59.6377 109.89 59.6377 110.035C59.6377 110.159 59.6999 110.283 59.7828 110.386C59.9073 110.51 60.0939 110.551 60.2598 110.51Z" fill="white"/>
    </g>
    <defs>
        <clipPath id="clip0_260_138">
            <rect width="239.09" height="156.496" fill="white"/>
        </clipPath>
    </defs>
</svg>
