<svg width="130" height="31" viewBox="0 0 130 31" fill="none" xmlns="http://www.w3.org/2000/svg">
<g clip-path="url(#clip0_330_270)">
<path d="M39.3691 22.2409V9.70557H44.8618C47.4861 9.70557 48.9486 11.51 48.9486 13.6335C48.9486 15.757 47.4685 17.5614 44.8618 17.5614H41.562V22.2409H39.3691ZM44.5612 11.6412H41.562V15.6258H44.5612C45.7991 15.6258 46.6974 14.8371 46.6974 13.6335C46.6974 12.43 45.7973 11.6412 44.5612 11.6412Z" fill="white"/>
<path d="M56.5959 9.49805C60.345 9.49805 62.9887 12.242 62.9887 15.982C62.9887 19.722 60.345 22.4677 56.5959 22.4677C52.8469 22.4677 50.2031 19.7238 50.2031 15.9838C50.2031 12.2437 52.8469 9.49805 56.5959 9.49805ZM56.5959 11.4532C54.0653 11.4532 52.4525 13.3888 52.4525 15.9838C52.4525 18.5592 54.0653 20.5143 56.5959 20.5143C59.1088 20.5143 60.7393 18.5592 60.7393 15.9838C60.7393 13.3888 59.1071 11.4532 56.5959 11.4532Z" fill="white"/>
<path d="M65.1055 22.2409V9.70557H67.2983V20.3053H72.8087V22.2409H65.1055Z" fill="white"/>
<path d="M80.0627 9.49805C83.8118 9.49805 86.4555 12.242 86.4555 15.982C86.4555 19.722 83.8118 22.4677 80.0627 22.4677C76.3137 22.4677 73.6699 19.7238 73.6699 15.9838C73.6699 12.2437 76.3155 9.49805 80.0627 9.49805ZM80.0627 11.4532C77.5321 11.4532 75.9193 13.3888 75.9193 15.9838C75.9193 18.5592 77.5321 20.5143 80.0627 20.5143C82.5739 20.5143 84.2061 18.5592 84.2061 15.9838C84.2061 13.3888 82.5739 11.4532 80.0627 11.4532Z" fill="white"/>
<path d="M97.2909 22.2409L90.769 13.1089V22.2409H88.5762V9.70557H90.8256L97.2184 18.5966V9.70557H99.4112V22.2427H97.2909V22.2409Z" fill="white"/>
<path d="M102.07 22.2409V9.70557H104.263V22.2427H102.07V22.2409Z" fill="white"/>
<path d="M106.924 22.2409V9.70557H115.49V11.6412H109.117V14.892H115.361V16.8276H109.117V20.3053H115.49V22.2409H106.924Z" fill="white"/>
<path d="M126.101 22.2409L122.596 17.3346L119.091 22.2409H116.467L121.153 15.8137L116.748 9.70557H119.372L122.596 14.3106L125.802 9.70557H128.446L124.06 15.796L128.727 22.2427L126.101 22.2409Z" fill="white"/>
<path d="M26.4124 8.47392V15.9735L19.9347 12.2228L13.457 8.47392L19.9347 4.72325L26.4124 0.974365V8.47392Z" fill="#20392B"/>
<path d="M13.4554 15.9752V23.4748L6.97769 19.7241L0.5 15.9752L6.97769 12.2246L13.4554 8.47388V15.9752Z" fill="#005C30"/>
<path d="M0.5 8.47294V0.973389L6.97769 4.72405L13.4554 8.47471L6.97769 12.2236L0.5 15.9742V8.47294Z" fill="#3AB06A"/>
<path d="M0.5 23.4747V15.9751L6.97769 19.7258L13.4554 23.4765L6.97769 27.2271L0.5 30.9742V23.4747Z" fill="#20392B"/>
<path d="M19.9347 12.2246L13.457 8.47388V15.9735V23.473L19.9347 27.2237L26.4124 30.9744V23.4748V15.9752L19.9347 12.2246Z" fill="#3AB06A"/>
</g>
<defs>
<clipPath id="clip0_330_270">
<rect width="129" height="30" fill="white" transform="translate(0.5 0.974365)"/>
</clipPath>
</defs>
</svg>
