<?xml version="1.0" encoding="UTF-8"?>
<svg id="Capa_1" data-name="Capa 1" xmlns="http://www.w3.org/2000/svg" viewBox="0 0 798.44 949.11">
  <defs>
    <style>
      .cls-1 {
        fill: #fefefd;
      }

      .cls-1, .cls-2, .cls-3, .cls-4, .cls-5, .cls-6, .cls-7, .cls-8, .cls-9, .cls-10, .cls-11, .cls-12, .cls-13, .cls-14, .cls-15, .cls-16, .cls-17, .cls-18, .cls-19, .cls-20, .cls-21, .cls-22, .cls-23, .cls-24, .cls-25, .cls-26, .cls-27, .cls-28, .cls-29, .cls-30, .cls-31, .cls-32, .cls-33, .cls-34, .cls-35, .cls-36, .cls-37, .cls-38, .cls-39, .cls-40, .cls-41, .cls-42, .cls-43, .cls-44, .cls-45, .cls-46, .cls-47, .cls-48, .cls-49, .cls-50, .cls-51, .cls-52, .cls-53, .cls-54, .cls-55, .cls-56, .cls-57, .cls-58, .cls-59, .cls-60, .cls-61, .cls-62, .cls-63, .cls-64, .cls-65, .cls-66, .cls-67, .cls-68, .cls-69, .cls-70, .cls-71, .cls-72, .cls-73, .cls-74, .cls-75, .cls-76, .cls-77, .cls-78, .cls-79, .cls-80, .cls-81, .cls-82, .cls-83, .cls-84 {
        stroke-width: 0px;
      }

      .cls-2 {
        fill: #2d1d0a;
      }

      .cls-3 {
        fill: #d02230;
      }

      .cls-4 {
        fill: #1c1305;
      }

      .cls-5 {
        fill: #4d3b39;
      }

      .cls-6 {
        fill: #512c22;
      }

      .cls-7 {
        fill: #4b211c;
      }

      .cls-8 {
        fill: #5e5244;
      }

      .cls-9 {
        fill: #50211f;
      }

      .cls-10 {
        fill: #f0e08a;
      }

      .cls-11 {
        fill: #000;
      }

      .cls-12 {
        fill: #322a18;
      }

      .cls-13 {
        fill: #fafaf9;
      }

      .cls-14 {
        fill: #d32130;
      }

      .cls-15 {
        fill: #981b26;
      }

      .cls-16 {
        fill: #cbdf5e;
      }

      .cls-17 {
        fill: #e0d789;
      }

      .cls-18 {
        fill: #efe08a;
      }

      .cls-19 {
        fill: #351e0d;
      }

      .cls-20 {
        fill: #3d180a;
      }

      .cls-21 {
        fill: #371c18;
      }

      .cls-22 {
        fill: #d7c47d;
      }

      .cls-23 {
        fill: #d8c57d;
      }

      .cls-24 {
        fill: #361c0e;
      }

      .cls-25 {
        fill: #46150a;
      }

      .cls-26 {
        fill: #e4d871;
      }

      .cls-27 {
        fill: #d7c57e;
      }

      .cls-28 {
        fill: #3d1f11;
      }

      .cls-29 {
        fill: #4f2424;
      }

      .cls-30 {
        fill: #3d3025;
      }

      .cls-31 {
        fill: #38210d;
      }

      .cls-32 {
        fill: #251808;
      }

      .cls-33 {
        fill: #45261d;
      }

      .cls-34 {
        fill: #ede18b;
      }

      .cls-35 {
        fill: #c82434;
      }

      .cls-36 {
        fill: #42271b;
      }

      .cls-37 {
        fill: #46281f;
      }

      .cls-38 {
        fill: #d8c47c;
      }

      .cls-39 {
        fill: #f0e089;
      }

      .cls-40 {
        fill: #060403;
      }

      .cls-41 {
        fill: #4d4b33;
      }

      .cls-42 {
        fill: #d12230;
      }

      .cls-43 {
        fill: #fdfdfd;
      }

      .cls-44 {
        fill: #351f0d;
      }

      .cls-45 {
        fill: #d8c47e;
      }

      .cls-46 {
        fill: #3c3825;
      }

      .cls-47 {
        fill: #45190c;
      }

      .cls-48 {
        fill: #381f0d;
      }

      .cls-49 {
        fill: #f69c59;
      }

      .cls-50 {
        fill: #4d1d22;
      }

      .cls-51 {
        fill: #d8c47b;
      }

      .cls-52 {
        fill: #eaa07d;
      }

      .cls-53 {
        fill: #7a5f5c;
      }

      .cls-54 {
        fill: #7f605d;
      }

      .cls-55 {
        fill: #34322d;
      }

      .cls-56 {
        fill: #31210b;
      }

      .cls-57 {
        fill: #492a1c;
      }

      .cls-58 {
        fill: #3e1a09;
      }

      .cls-59 {
        fill: #e4d973;
      }

      .cls-60 {
        fill: #372410;
      }

      .cls-61 {
        fill: #30220e;
      }

      .cls-62 {
        fill: #883d3f;
      }

      .cls-63 {
        fill: #d8c47d;
      }

      .cls-64 {
        fill: #f69d58;
      }

      .cls-65 {
        fill: #40221d;
      }

      .cls-66 {
        fill: #d8c57c;
      }

      .cls-67 {
        fill: #d7c57d;
      }

      .cls-68 {
        fill: #040202;
      }

      .cls-69 {
        fill: #f0df8d;
      }

      .cls-70 {
        fill: #582727;
      }

      .cls-71 {
        fill: #d0222f;
      }

      .cls-72 {
        fill: #d9c47d;
      }

      .cls-73 {
        fill: #40251a;
      }

      .cls-74 {
        fill: #2f130b;
      }

      .cls-75 {
        fill: #3e2318;
      }

      .cls-76 {
        fill: #eddf8e;
      }

      .cls-77 {
        fill: #3c3921;
      }

      .cls-78 {
        fill: #f0e08b;
      }

      .cls-79 {
        fill: #4f3a39;
      }

      .cls-80 {
        fill: #44231b;
      }

      .cls-81 {
        fill: #991c24;
      }

      .cls-82 {
        fill: #efe089;
      }

      .cls-83 {
        fill: #f89b59;
      }

      .cls-84 {
        fill: #d02430;
      }
    </style>
  </defs>
  <path class="cls-42" d="M22.55,949.11h9c2.58-1.4,2.96-4.08,3.11-6.46.69-10.95,2.97-21.69,4.55-32.5,1.89-12.94,3.93-25.88,6.09-38.78,2.24-13.41,5.18-26.72,8.11-40.01,1.39-6.31,2.66-12.65,4.58-18.83,2.07-10.74,6.03-20.95,8.84-31.48,6.62-16.94,12.63-34.21,26.29-47.25,3.74-3.57,7.8-6.65,12.34-9.12,2.17-1.89,4.57-3.46,7.03-4.97,3.76-2.48,7.42-5.11,11.26-7.44,3.43-2.08,4.23-4.78,3.03-8.47-1.65-5.05-3.65-10-4.57-15.28-2.19-7.28-3.98-14.64-5.56-22.1-3.04-14.29-3.8-28.84-6.04-43.21-2.24-4.5-6.48-7.1-10.2-10.03-14.49-11.41-29.66-21.92-44.62-32.72-.56-.4-1.17-.61-1.86-.55-5.79,8.85-8.64,18.89-11.82,28.81-1.26,3.93-.68,8.29-2.99,11.94.29,3.93-1.24,7.69-1.14,11.6-1.36,5.28-.77,10.66-.89,16,1.17,1.49,2.27,2.92,2.91,4.87,1.35,4.15,4.64,6.82,8.4,8.83,4.72,2.53,9.75,4.25,14.95,5.52,6.94,1.7,13.17,4.81,17.93,10.26,14.32,16.42,8.82,34.9-10.99,43.47-7.84,3.39-16.32,4.51-24.9,4.65-2.75.04-5.7-.77-8.17,1.27-1.21,5.23-2.39,10.46-3.19,15.77-3.23,12.43-6.14,24.93-9.18,37.4-1.33,5.45-2.47,10.94-3.6,16.43,1.59,2.9,4.82,3.36,7.35,4.84,8.42,4.92,12.44,14.88,9.43,23.51-2.16,6.18-7.07,8.86-12.87,10.7-3.98,1.26-8.36.13-12.15,2.24-2.67,8.22-3.13,16.86-4.84,25.27-.42,2.09-.95,4.2-1.02,6.35,1.24,2.19,3.43,1.61,5.32,1.74,6.85.48,12.93,4.18,14.37,8.85,1.79,5.79-1.03,12.21-7.22,16.59-3.67,2.6-7.55,4.73-11.89,6.04-1.84.56-3.96.85-4.93,2.96-.51,10.78-2.29,21.49-1.7,32.32.11,1.18.94,1.87,1.94,1.87,7.94-.01,14.13,3.65,19.53,9.06Z"/>
  <path class="cls-10" d="M410.45,949.11h24.99c-.36-7.86-2.62-15.24-6.34-22.06-2.51-4.59-4.49-9.23-5.54-14.35-.98-4.77-2.57-9.3-5.88-13.06-.76-.87-1.67-1.76-2.07-2.8-6.67-17.46-20.77-30.89-26.44-48.95-1.44-4.59-.07-9.74-3.21-13.9-.57-.76-.71-1.86-1.3-2.68-1.24-1.72-2.53-1.74-3.2.32-2.3,7.09-7.93,11.37-13.3,15.8-2.81,2.32-3.55,4.41-1.39,7.6,4.34,6.42,7.24,13.54,8.63,21.13.85,4.63,4,7.66,6.7,10.85,3.98,4.71,6.86,9.83,8.21,15.74,1.75,7.68,4.45,14.82,8.85,21.46,5.06,7.65,8.25,16.27,11.29,24.9Z"/>
  <path class="cls-39" d="M33.55,949.11h3c11.93-2.2,23.85-4.07,35.99-1.28,3.4.78,7,.53,10.45.16,5.72-.63,8.52-4.95,10.34-9.72,3.83-10.04,1.28-19.97-1.14-29.83-.57-2.33-2.41-2.18-3.94-1.21-6.86,4.35-13.78,3.23-21.03.98-7.92-2.46-16.5-1.64-24.44-4.36-2.08-.71-2.88.79-3.36,2.63-1.14,4.36-1.24,8.86-2.01,13.27-1.59,9.13-2.66,18.35-4.3,27.48-.12.67.02,1.32.45,1.87Z"/>
  <path class="cls-69" d="M126.52,949.11h24.99c1.36-1.85.31-3.87.38-5.81.23-6.45-.35-12.91.82-19.36.74-4.07-.19-8.23-.65-12.36-.76-6.95.04-13.91,1.21-20.79.29-1.68.61-3.47-.83-4.64-1.61-1.3-3.23-.1-4.55.79-5.04,3.4-10.97,3.58-16.62,4.68-5.58,1.09-5.99,1.42-5.73,7.04.09,1.99.71,3.93.5,5.94,0,13.22-.02,26.44.02,39.65,0,1.62-.42,3.31.46,4.86Z"/>
  <path class="cls-61" d="M410.45,949.11c-1.77-10.18-6.79-19.01-12.05-27.62-3-4.91-5.49-9.87-6.49-15.49-1.51-8.47-5.39-15.68-11.24-21.85-2.61-2.76-4.01-5.95-4.85-9.62-1.57-6.84-4.01-13.39-8.05-19.2-2.11-3.02-1.67-4.66,1.36-7.06,5.89-4.65,12.56-8.98,13.8-18.47,1.66,5.3,2.92,9.59,3.96,14.11,2.45,10.62,6.6,21.01,14.15,29.34,2.76,3.05,4.67,6.42,6.31,10.04,3.1,6.81,6.03,13.63,11.09,19.39,2.54,2.89,3.05,6.96,3.87,10.68,1.15,5.23,2.89,10.1,5.89,14.67,4.16,6.34,4.25,14.25,7.25,21.1h2c.31-4.89-2.84-9.06-2.94-14.1,5.91,1.96,11.74,2.04,17.35-.8,2.4-1.21,3.55.24,4.98,1.79,3.46,3.73,3.45,8.86,5.59,13.1h2c0-6.3-2.76-11.53-6.54-16.27-1.62-2.03-2.35-4.04-2.48-6.71-.37-7.53-3.7-13.97-8.45-19.71-1.46-1.76-3.16-3.2-1.92-6.08.92-2.13-.76-4.09-2-5.86-5.04-7.2-9.62-14.54-11.17-23.48-1.06-6.09-4.31-11.41-7.31-16.75-3.17-5.63-6.25-11.29-8.55-17.35-2.46-6.48-8.04-10.87-11.21-16.99-2.79-5.39-3.83-11.22-6.08-16.7-.93-2.25,1.19-2.39,2.39-2.91,4.39-1.9,8.84-3.67,13.27-5.49-.06-.95-.73-1.3-1.5-1.55-6.12.9-11.43,4.21-17.3,5.91-5.27,1.53-10.39,3.5-15.94,3.83-1.68.1-3.23.77-4.78,1.36-4.69,1.76-5.45,3.51-3.1,7.85,1.58,2.92,3.39,5.72,5.16,8.54,4.47,7.1,4.09,11.81-1.56,18.05-2.9,3.2-5.86,6.37-9.75,8.47-1.3.7-2.62,1.48-3.28,2.95,5.93,6.63,9.61,14.58,11.6,23.01,1.32,5.6,3.74,10.18,7.46,14.2,4.88,5.28,7.5,11.58,8.95,18.46,1.21,5.72,3.32,10.97,6.5,15.92,5.46,8.5,9.62,17.66,12.62,27.32h1Z"/>
  <path class="cls-44" d="M33.55,949.11c2.37-14.91,4.74-29.82,7.15-44.97,6.32,2.94,12.8,3.4,19.24,4.13,2.96.34,5.99.75,8.77,1.72,7.87,2.76,15.27,2.96,22.26-3.63,1.86,9.38,5.11,17.77,2.8,26.92-3.09,12.2-8.86,16.05-21.1,13.36-12.31-2.7-24.36-2.45-36.13,2.46h6c10.66-2.09,21.33-1.62,31.99,0h17c.35-6.51.6-6.79,6.2-7.05-2.37-3.54-3-7.3-2.09-11.52,1.63-7.55-1.22-14.69-2.58-21.94-.47-2.48-.66-4.88-.45-7.35.54-1.2.62-2.18-1.09-2.3-8.16,11.02-9.81,11.58-23.86,7.63-5.96-1.67-12.18-1.52-18.18-2.79-6.63-1.4-7.04-2.11-6.07-8.65.88-5.91,1.91-11.8,2.79-17.7.54-3.59,2.07-5.38,6.01-4.5,5.03,1.12,10.41-.23,15.3,1.5,6.82,2.42,13.7,3.64,20.92,3.05,1.26-.1,2.22.55,2.78,1.72.51.86.79,2,2.16,1.84-.71-5.16,1.9-8.72,5.6-11.8,6.32-5.28,11.46-11.51,15.18-18.89.37-.73.78-1.51,1.37-2.06,1.64-1.51,3.86-2.63,5.85-2.14,2.31.57,1.02,3.12,1.06,4.73.26,9.33-.95,18.53-2.43,27.73-.7,4.37-1.66,8.9,1.08,13.05,1.14-.66,1.5-1.75,1.55-2.95.58-14.25,3.06-28.36,2.46-42.72-.31-7.33-2.47-13.64-6.37-19.56-3.39-5.15-6.22-10.5-8.5-16.29-2.08-5.29.4-9.76,1-14.58-.04-.56-.23-1.06-.56-1.51-2.92-.22-3.55,2.13-4.23,4.08-1.89,5.38-1.78,10.81.35,16.11,1.81,4.49,4.16,8.7,7.07,12.6,2.61,3.5,4.65,7.29,5.74,11.56.73,2.85,0,4.99-2.97,5.9-5.63,1.74-11.34,2.97-17.11.7-10.8-4.26-22.08-6.17-33.56-7.2-1.66-.15-3.31-.33-4.91-.85-5.47-1.75-6.27-3.56-5.3-9.29.85-5,3.78-9.69,2.33-15.04-.19-.18-.39-.36-.59-.54-1.68-.01-1.62,1.24-1.86,2.4-3.73,18.2-7.87,36.33-11.13,54.61-3.44,19.26-5.82,38.7-9.13,57.98-1.26,7.34-1.34,14.9-3.81,22.04h2Z"/>
  <path class="cls-23" d="M152.52,949.11h30.99c1.71-7.8-1.34-15.49-.56-23.29.21-2.08-1.17-2.04-2.62-1.35-1.07.51-1.86,1.39-2.74,2.15-6.7,5.73-13.8,5.4-19.96-.78-1.43-1.43-2.46-4.46-4.83-3.46-1.67.7-.94,3.61-1.17,5.5-.87,7.1-1.2,14.23.89,21.23Z"/>
  <path class="cls-2" d="M152.52,949.11c-.66-8.73-1.16-17.45.58-26.77,3.33,5.46,7.52,9.23,13.78,9.67,6.3.45,10.9-2.91,15.68-8.17-.55,9.2.77,17.2.95,25.27h1c.68-6.34-.75-12.6-.78-18.91-.05-12.28,1.42-24.51.81-36.84-.34-6.82-1.1-13.53-2.2-20.24-.99-.03-1.41.63-1.73,1.41-.86,3.52.77,6.9.55,10.41-.41,6.43-5.16,11.86-11.37,12.68-9.32,1.23-16.58-7.13-14.19-16.64,1.74-6.92,1.56-13.83.72-20.81-.43-.79-.94-1.43-1.98-1.1-.4.42-.69.91-.87,1.46-.9,5.02.37,10.16-.87,15.16-1.87,7.61-6.57,11.71-14.45,13.07-5.52.95-11.22,1.07-16.49,3.31,3.72,1.08,2.66,4.25,3.02,6.83.24,1.75.67,3.48,1.01,5.22.24.43.48.45.71,0,.99-3.49-2.06-8.08.88-10.34,2.39-1.84,6.68-1.19,10.12-1.69,5.15-.75,10.05-2.13,13.9-6.3,1.78,2.43.67,4.81.18,6.8-2.88,11.87.95,23.81-.71,35.72-.96,6.89-.95,13.93.74,20.81h1Z"/>
  <path class="cls-22" d="M462.44,949.11c.91-6.76-2.97-11.6-6.59-16.55-.86-1.17-1.49-1.17-2.79-.34-6.51,4.15-13.3,3.84-20.46.69.92,5.77,2.56,11.08,4.85,16.21h24.99Z"/>
  <path class="cls-33" d="M1.74,939.27c-.69-11.44,1.51-22.72,1.92-34.1,1.79-2.4,1.69-5.34,1.97-8.06.76-7.22,1.92-14.38,2.85-21.57.23-1.8.61-3.61-.62-5.23,1.84-10.77,3.03-21.66,5.84-32.25,1.27-1.45,1.48-3.3,1.81-5.07,1.92-10.24,4.31-20.39,6.43-30.59.37-1.77.95-3.56-.17-5.28,4.19-17.99,8.38-35.98,12.58-53.96-.29-.48-.61-.49-.96-.05-5.09,17.26-8.76,34.86-12.87,52.36-6.5,27.69-11.69,55.64-15.68,83.79C1.69,901.44.06,923.79,0,946.23c0,.96.36,1.92.56,2.88h1c2.02-3.24,2.09-6.52.18-9.83Z"/>
  <path class="cls-83" d="M1.74,939.27c-.06,3.28-.12,6.56-.18,9.83h20.99c-4.39-8.67-12.04-10.45-20.81-9.83Z"/>
  <path class="cls-35" d="M97.73,942.06c-1.83.39-2.86-4.06-5.17-.85-1.76,2.45-4.11,4.82-1.04,7.9h10c-.32-2.9-2.97-4.53-3.9-7.1l.1.05Z"/>
  <path class="cls-17" d="M74.54,949.11c-10.66-3.35-21.33-3.85-31.99,0h31.99Z"/>
  <path class="cls-4" d="M126.4,904.12c-.24,0-.47,0-.71,0-.05,14.99-.11,29.99-.16,44.98h1c.42-15,.84-29.99-.13-44.99Z"/>
  <path class="cls-30" d="M97.63,942.01c-.39,3.29,2.65,4.7,3.9,7.1h2c-2.09-2.27-3.27-5.28-5.9-7.1Z"/>
  <path class="cls-42" d="M362.32,850.19c7.46-3.07,13.1-8.25,17.21-15.11,2.78-4.65,2.09-9.24-.62-13.66-2.08-3.39-4.41-6.64-6.34-10.12-1.38-2.48-2.24-4.76,2.24-5.59,11.18-2.06,22.13-5.05,32.66-9.48,1.9-.8,3.5-2.61,5.87-2.17,10.02-3.33,19.1-8.59,28.17-13.87l-.03.02c4.72-3.89,8.64-8.57,12.83-12.99.71-.9,1.42-1.81,2.13-2.71,7.43-13.63,12.02-28.04,11.96-43.71-.02-5.42-1.74-6.79-7.11-5.41-9.72,2.49-17.6,7.78-23.22,16.13-1.88,2.79-4.34,4.46-7.42,4.13-7.93-.87-13.45,3.78-19.45,7.61-6.97,4.44-14.24,7.75-22.95,5.86-3.89-.84-7.96-.35-11.95-.2-1.36.05-2.58.51-3.59,1.51-10,9.81-22.36,15.85-34.8,21.76-.93.44-1.91.59-2.9.64-6.68.34-10.84,3.57-11.97,10.33-.74,4.45-2.46,8.58-4.28,12.67-1.43,3.21-.59,5.32,2.8,6.6,5.26,1.99,10.69,3.72,14.85,7.81l-.05-.03c4.55,2.99,7.13,7.6,9.96,12.02,4.44,6.95,8.09,14.29,11.06,21.98l-.03-.05c1.83,1.91,2.67,4.64,5.09,6.06l-.13-.03Z"/>
  <path class="cls-31" d="M741.38,262.2c3.1-12.23,1.42-23.62-4.3-35-2.2-4.38-1.7-10.43-1.44-15.67.59-11.72-1.38-23.07-3.7-34.44-1.27-6.26,1.62-12.26,1.52-18.47,0-.45.69-1.13,1.21-1.34,8.05-3.36,11.37-11.78,17.96-16.69-.23-.47-.61-.74-1.12-.86-4.32,1.37-7.23,4.53-9.77,8.03-1.69,2.33-3.46,4.44-6.84,5.84-1.16-6.52-3.55-12.37-7.8-17.38-1.84-2.17.51-3.21,1.85-4.27,13.89-11.02,24.78-24.4,32.7-40.33,6.79-13.66,10.3-28.09,10.8-43.19.21-6.37.45-12.53,3.45-18.29-.11-.51-.4-.89-.86-1.13-3.35,5.46-7.68,8.94-13.99,11.53-4.92,2.02-8.4,5.67-14.81,4.47-5.11-.95-9.07,3.3-11.35,8.15-1.1,2.33-2.11,3.6-5.09,1.91-6.34-3.59-12.03-1.69-17.24,2.85-11.06,9.64-22.85,18.02-37.08,22.54-3.32,1.06-5.96.87-8.96-.61-11.45-5.65-23.36-9.95-36.08-11.75-.35.46-.38.94-.09,1.43,4.15,2.76,9.28,2.56,13.69,4.52,13.86,3.92,26.71,9.96,38.55,18.17,1.86,1.29,2.8,2.67,3.36,5.04,2.21,9.27,7.48,17.32,11.02,26.07,1.74,4.29,5.05,7.83,5.95,12.52-1.13,10.24-2.23,20.48-1.93,30.82.1,3.42.58,6.61,2.77,9.37,2.02,2.53,2.44,5.39,1.65,8.48-1.28,5.04-1.2,10.2-1.48,15.35-.42,7.54,2.02,13.78,7.41,18.82,3.35,3.13,4.14,5.98,2.07,10.46-3.42,7.41-5.26,15.37-5.43,23.66-.14,6.88,1.95,12.76,6.95,17.48,1.91,1.81,2.31,3.51.75,5.64-.39.54-.68,1.14-1.02,1.72-3.47,5.99-3.52,6.08-9.49,2.66-3.65-2.09-7.56-3.4-11.56-4.56-5.71-1.65-10.5.08-14.68,3.9-3.72,3.39-3.63,3.45-6.34-.49-1.13-1.64-2.24-3.37-4.59-3.4-.56.12-.92.46-1.11.99-.28,1.45.55,2.53,1.18,3.7,2.06,3.86,1.6,8.41-1.05,11.55-1.63,1.93-3.52,1.54-5.44.73-3.23-1.36-6.07-3.17-5.44-7.31,1.1-7.23,2.64-14.41,3.64-21.63,2.25-16.2,2.25-32.22-7.05-46.76-.72-1.12-1.28-2.34-2.57-2.96-1.36-.2-1.83.68-2.14,1.76.57,2.73,2.57,4.81,3.38,7.43,5.62,13.45,7.18,27.28,3.8,41.55-1.73,7.28-2.09,14.8-4.25,22.61-6.71-6.5-15.45-9.38-23.39-13.7-5.03-2.74-9.2-6.56-13.07-10.74-2.1-1.7-2.88-4.59-5.33-5.97-1.24.23-1.5,1.16-1.56,2.22,3.79,8.43,10.57,13.97,18.43,18.13,8.39,4.44,16.96,8.48,24.31,14.65,2.43,2.04,4.77,4.15,6.91,6.48,1.24,1.35,2.68,2.86,1.19,4.79-1.4,1.81-3.45,1.87-5.47,1.21-2.21-.73-3.5-2.58-4.5-4.48-2.81-5.35-7.2-8.88-12.2-12.13-15.21-9.9-30.2-20.13-42.6-33.62-13.09-14.25-21.52-30.45-23.24-50.15-1.32-15.1,1.44-29.42,5.53-43.69.41-1.44.39-3.81,2.91-3.06,1.87.55,3.02,2.07,2.76,4.22-.22,1.82-.78,3.57-1.29,5.33-.6,2.07-1.44,4.11-.74,6.34.31.7.78,1.21,1.61,1.27,2.77-1.97,2.66-5.21,3.27-8,.83-3.8,2.34-4.03,5.41-2.12,8.28,5.14,16.55,10.28,24.62,15.74,2.49,1.34,4.5,3.4,7.04,4.67.76.13,1.45.01,2.02-.55-.25-3.66-3.2-5.18-5.69-6.98-6.71-4.84-13.89-8.99-20.97-13.23-5.56-3.33-10.27-7.8-15.95-10.89-1.59-.87-3.06-2.05-5.06-1.54-.49.17-.89.45-1.23.84-4.34,9.84-6.75,20.25-7.99,30.82-2.67,22.77,1.2,44.17,15.16,63.01,10.02,13.52,22.46,24.52,36.13,34.19,5.85,4.14,11.64,8.35,17.79,12.04,3.78,2.27,6.87,5.24,8.95,9.2.93,1.78,2.17,3.36,3.67,4.71,3.79,3.4,7.65,3.72,11.89,1.17,4.24-2.55,3.35-6.09,1.8-9.89,2.3,1.06,2.01,2.74,1.54,4.39-4.63,16.35,2.58,28.75,13.3,39.99,1.5,1.57,3.01,3.19,4.87,4.28,5.56,3.25,7.53,8.42,7.19,14.37-.51,8.97,3.28,14.71,11.74,17.37,3.3,1.04,4.12,2.86,2.84,6.02-1.52,3.74-1.89,7.76-2.36,11.72-.35,2.98-1.39,4.26-3.98,2.05-5.55-4.73-11.12-9.3-15.94-14.98-7.13-8.39-12-17.77-16.08-27.78-1.51-3.7-3.88-6.98-5.98-10.38-1.32-2.14-2.68-4.8-4.88-5.57-9.78-3.39-11.75-13.32-17.44-20.09-2.13-2.53-3.81-5.45-6.05-7.93-1.35-1.49-2.82-2.84-4.47-3.98-5.09-3.52-8.22-6.89-11.19-11.86-3.34-5.59-7.26-10.79-11.4-15.79-2.11-2.55-4.45-5-7.98-5.66-.8.13-1.33.61-1.67,1.32.44,3.11,3.63,3.62,5.28,5.61,4.57,5.51,8.97,11.15,12.64,17.29,2.66,4.45,2.37,5.26-2,8.11-2.39,1.56-3.95,3.55-3.29,6.63.74.63.82,1.27.03,1.94-.45,3.99,2.07,7.4,2.19,11.28-.76,6.89-4.33,12.75-6.99,19.39-3.68-6.93-8.73-12.23-14.8-16.65-1.22-.88-1.01-2.75-1.44-4.17-1.34-4.48-2.78-8.94-5.87-12.55-.93-1.09-2.19-3.57-4.01-.65,1.16,4.2,4.01,7.63,5.3,11.77,1.66,5.31,2.01,10.75,2.01,16.26,0,1.39-.1,3.44,1.8,3.52,1.5.06,1.55-1.89,1.98-3.09q1.64-4.65,4.98-.9c1.22,1.36,2.37,2.78,3.53,4.2,3.67,4.5,4.21,9.19,1.33,14.31-1.54,2.75-2.91,5.6-4.38,8.4-1.77,3.38-3.44,2.82-5.54.37-5.2-6.07-7.37-13.29-8.2-21.04-.16-1.48.07-3.02-.44-4.45-.41-1.15-1.27-2.53-2.35-.87-1.87,2.87-3.04.66-4.21-.39-7.7-6.97-11.03-16-12.01-26.08-.05-.5.02-1-.05-1.49-.27-2.02.72-5.16-1.86-5.51-2.1-.28-2.38,2.77-2.78,4.66-.43,2.04-1.66,3.17-3.51,3.81-.35.35-.55.76-.6,1.25.08.69.37,1.62.93,1.64,5.34.17,5.17,4.58,6.33,8.01,2.68,7.93,7.2,14.57,13.9,19.66,1.06.81,2.46,1.54,2.63,2.89.93,7.61,5.36,13.83,7.99,20.76-.19.37-.32.76-.43,1.17,1.81,2.4,6.3.83,7.09,4.76-.57,1.01.08,1.28.88,1.46,1.23-.33,1.94-1.28,2.47-2.32,7.08-13.94,14.51-27.73,19.42-43.14,1.23,3.15,2.71,5.86,4.93,8.1,2.35,2.37,4.64,4.83,7.79,6.14,2.41,1,2.65,2.35,1.63,4.67-2.69,6.1-5.94,11.92-8.78,17.94-.92,1.94-2.21,3.76-2.07,6.07.11.74.43,1.4.87,1.99,5.02,8.55,9.59,17.36,15.16,25.59,5.49,8.1,11.5,15.76,18.5,22.61,1.37,1.34,2.67,3.1,5.06,2.4.4-.32.63-.75.73-1.25-.08-2-1.52-3.04-2.89-4.13-9.68-9.31-17.16-20.3-24.11-31.68-2.43-3.98-4.56-8.14-6.96-12.13-1.68-2.81-2.02-5.41-.21-8.4,3.39-5.56,5.48-11.77,8.44-17.54,1.77-3.02,3.37-3.22,4.49.38,1.04,3.33,1.73,6.76,2.99,10.04,2.41,6.29,6.23,11.42,12.02,14.84,2.37,1.4,3.14,3.77,4.63,5.72,1.16.27,1.93-.31,2.58-1.17,1.38-3.68,1.95-8.29,6.76-9.02,4.44-.67,7.18,3.02,9.06,6.07,7.36,12.02,19.05,19.84,28.31,29.99,1.06,1.16,2.12,3.06,4.06,2,1.76-.96,1.21-2.9.99-4.54-1.08-8.4-.63-16.63,3-24.44,1.65-3.55.32-5.35-3.13-6.15-2.12-.49-4.19-1.08-6.14-2.04-4.4-2.17-6.93-5.58-7.1-10.59-.05-1.5-.06-3-.05-4.49.02-5.64-1.64-10.25-6.64-13.66-6.69-4.55-11.89-10.67-15.69-17.81-6.36-11.96-4.75-25.53,4.02-35.87,1.83-2.16,4.04-3.99,5.85-6.13,5.11-6.05,11.14-5.75,17.65-3.09,15.4,6.29,20.94,18.17,16.44,35.27-.72,2.73-1.61,5.42-2.5,8.11-.49,1.47-1.7,3.65.2,4.44,2.22.93,3.04-1.55,3.71-3.12,2.03-4.77,3.45-9.77,3.84-14.92.55-7.18.49-14.35-3.63-20.76-1.54-2.41-.95-4.68.27-7.06,5.35-10.45,12.92-18.05,25.1-19.84.41-.44.44-.9.09-1.38Z"/>
  <path class="cls-31" d="M553.32,76.18c-6.1,4.06-11.27,1.21-16.8-1.77-26.86-14.47-45.97-36.06-59.01-63.36-1.14-2.39-2.32-4.77-3.66-7.05-2.59-4.38-5.11-5.09-9.38-2.53-1.83,1.1-3.5,2.52-5.07,3.98-2.25,2.09-3.73,6.14-7.78,2.06-.89-.89-2.82-.16-4.27.44-2.66,1.09-5.3,2.42-7,4.61-5.75,7.42-12.22,13.98-19.68,19.75-2.94,2.28-5.41,4.9-8.97,6.57-7.93,3.72-13.73,9.68-16.27,18.35-.42,1.09.23,1.25,1.07,1.25,3.27-3.75,5-8.62,8.91-11.94,2.13-1.81,4.13-3.74,7.45-5.33-5.88,14.69-.48,26.76,7.88,37.23,16.52,20.67,36.07,38.19,58.96,51.78,8.76,5.2,17.68,10.15,27.35,13.32,8.76,2.88,15.92,9.09,24.95,11.26,1.68.4,1.81,1.51,1.26,3.09-2.57,7.27-10.09,11.42-17.63,9.58-4.1-1-7.77-2.87-11.16-5.41-2.64-1.98-5.35-4.08-9.06-3-.28.43-.37.89-.29,1.39,4.09,3.55,8.49,6.62,13.53,8.73,3.15,1.32,6.4,7.98,5.68,11.18-.41,1.81-2.05,1.93-3.31,2.62-5.72,3.13-9.22,7.85-10.15,14.38-.27,1.87-.21,3.64,1.33,5.03.47.19.94.19,1.41-.03,1.66-4.56,1.72-9.66,6.03-13.24,4.34-3.6,6.32-3.33,8,2.01.73,2.3.8,5.01,3.32,6.41.81-.03,1.34-.48,1.74-1.13.42-3.42-1.46-6.41-1.83-9.7-.52-4.59,1.81-6.53,6.24-5.15,1.82.57,3.23,1.72,4.39,3.14,4.13,5.04,7.19,10.73,9.98,16.59.86,1.81.41,3.03-1.15,4.27-1.73,1.37-2.95,3.17-2.4,5.62.33.68.85,1.14,1.58,1.36,2.53-1.24,3.11-5.51,7.43-4.19,4.3,1.32,6.52,4.23,8,8.07,1.84,4.77,3.95,9.44,5.47,14.33,1.09,3.51,1.87,6.85-2.89,8.37-.78.25-1.28,1.01-1.4,1.91.19.77.67,1.27,1.39,1.56,11.22-2.24,13.71-1.21,20.24,8.45,3.98,5.89,8.07,11.72,11.18,18.14.5,1.03.94,2.16,2.32,2.34.77-.25,1.28-.75,1.56-1.51-1.2-8.88-15.65-28.78-23.53-32.06-2.29-.95-3.32-2.37-3.89-4.67-1.65-6.64-4.17-12.98-7.11-19.16-1.98-4.17-4.47-7.81-9.04-9.49-1.91-.7-2.53-2.45-3.4-4.09-3.11-5.88-6.18-11.78-9.89-17.33-3.48-5.2-8.12-7.3-14.15-5.65-2.36.64-3.7.7-4.28-2.13-.63-3.07,1.2-3.31,3.35-3.5,7.57-.66,12.5-5.04,15.81-11.48,1.67-3.24,3.81-5.69,7.28-7.12,5.69-2.34,8.38-7.41,10.48-12.75,1.44-3.66,4.04-6.12,6.62-8.97,5.18-5.72,10.75-8.88,18.44-10.67,8.57-2,10.5-10.7,12.16-18.53.3-1.41-1.03-3.99,1.5-3.96,2.02.02,4.09,1.36,5.66,2.89.79.78-.08,1.51-.61,2.12-4.64,5.28-3.61,11.15-1.45,16.92,2.59,6.92,6.74,12.94,12.24,18.84-10.96-1.11-21.28.96-31.7.81-3.71-.06-7.32.6-10.59,2.45-2.36,1.33-3.66,3.39-3.21,6.22.43,2.74,2.6,3.2,4.82,3.46,2.25.27,4.44,1.7,6.79.44.18-.19.35-.38.52-.57-.58-3.78-4.73-2.94-7.04-5.17,3.88-2.53,7.84-3.12,11.97-3.13,9.93-.02,19.85.01,29.78-.02,2.14,0,4.32.23,6.34-.78,2.01-2.56-.55-3.54-1.84-4.65-6.53-5.68-11.58-12.36-14.64-20.5-2.79-7.44-.16-12.33,7.6-14.03,14.63-3.19,26.85,3.72,32.31,18.25,1.06,2.81,1.67,5.75,2.48,8.63.36,1.26.92,2.77,2.55,2.61,1.24-.12,1.67-1.46,2.1-2.56,1.88-4.79,2.18-4.92,6.62-1.81,12.17,8.53,16.88,21,18.16,35.13.4,4.46,1.35,8.88,1.18,13.41-.05,1.42-.14,3.42,1.64,3.78,1.81.36,2.27-1.52,2.84-2.88.37-.87.31-2.01,1.78-2.55,3.48,4.35,5.92,9.34,8.18,14.5,4.32,9.87,7.74,19.87,6.08,30.9-.17,1.12-.25,2.96,1.04,2.96,4.05,0,3.75,3.2,4.33,5.54,2.21,8.86,4.7,17.72,3.2,27.01-1.64,10.12-10.43,13.89-18.86,7.79-8.36-6.06-11.47-15.23-13.24-24.92-.49-2.68,1.67-2.78,3.49-3.13,1.13-.21,2.53-.34,2.69-1.76.12-1.04-.79-1.85-1.71-2.27-8.58-3.88-14.76-10.03-18.1-18.91-.1-.26-.54-.34-.88-.41-1.07.43-1.51,1.33-1.77,2.37.38,6.6,4.8,10.77,9.33,14.62,2.18,1.85,3.37,2.94,2.49,6.22-.82,3.06.37,6.56,1.55,9.7,2.54,6.75,2.68,13.18-1.76,19.35-1.79,2.49-2.4,5.5-1.4,8.56.48,1.46.71,3.57,3.24,2.45l.19-.17c1.5-3.63,1.03-7.74,3.36-11.28,2.66-4.02,2.35-4.27,5.86-.52,2.65,2.83,5.53,5.12,9.37,6.31,10.87,3.38,19.8-2.78,20.61-14.22.88-12.38-1.91-24.17-5.78-35.7-1.34-3.98-2.32-7.94-2.94-12.04-2.15-14.36-9.3-26.57-16.8-38.58-1.85-2.96-2.46-2.81-4.85-.16,1.35-9.58-2.06-18.23-5.47-26.89-4.08-9.37-10.6-16.34-20.07-20.42-.46-.2-.94-.63-1.37-.55-4.71.82-5.94-2.47-7.59-5.84-6.14-12.6-16.41-18.44-30.31-17.08-4.78.47-8.82-.35-12.63-3.03-4.63-2.17-9-4.62-13.25-7.61-4.91-3.46-11.18-5.05-17.34-5.39-4.71-.26-9.05-1.98-13.66-2.5-3.88-.43-.08-2.69-.89-3.87-.15-.19-.3-.38-.45-.57Z"/>
  <path class="cls-10" d="M537.37,393.98c0-2.16,0-4.33,0-6.49.02-8.22-2.36-16.05-4.08-23.98-1.09-5.04-2.04-10.07-2.39-15.21-.11-1.69-.22-3.5-1.92-4.29-1.82-.84-3.34.41-4.32,1.69-7.46,9.68-16.93,9.4-27.4,6.18-9.64-2.97-9.98-2.33-10.26,7.64-.38,13.47.87,26.88,1.07,40.32.05,3.82,1.28,6.47,5.6,6.71,9.44.53,18.86,1.54,28.34,1.02,9.25-.51,14.64-5.28,15.37-13.58Z"/>
  <path class="cls-60" d="M336.42,810.25c-2.92-5.11-8.42-6.22-13.25-7.95-4.18-1.5-4.38-3.19-2.83-6.9,2.16-5.15,3.73-10.56,5.27-15.94.68-2.39,1.79-3.75,4.27-4.13,15.48-2.36,28.28-10.92,39.83-20.28,6.52-5.28,12.45-5.4,18.84-4.3,8.69,1.48,15.91-1.55,22.61-5.69,6.33-3.91,11.75-8.93,20.07-7.96,3.27.38,5.98-1.33,8-4.7,5.1-8.51,13.24-13.2,22.62-15.8,5.03-1.39,5.62-.75,5.68,4.52.17,13.76-3.21,26.62-9.63,38.73-.78,1.47-1.62,2.92-1.43,4.68,7.19-9.88,10.24-21.29,12-33.12.68-4.58,1.35-9.19,1.06-13.86-.07-1.13-.3-2.58,1.06-3.05,8.02-2.78,8.12-11.09,11.83-16.86,1.03-1.6,1.44-3.6,2.14-5.42-1.02-1.08-2.17-.62-3.22-.14-5.75,2.63-11.71,2.15-17.65,1.06-13.7-2.51-26.57-7.62-39.11-13.43-26.28-12.17-52.54-24.41-78.34-37.59-2.78-1.42-5.59-2.8-8.12-4.83,1.37-1.86,3.29-2.09,4.93-2.73,16.49-6.42,32.26-14.33,47.35-23.52,4.5-2.74,8.3-2.75,13.09-.99,27.02,9.94,53.92,20.3,81.89,27.37,8.91,2.26,17.98,3.5,27.06.28,4.63-1.64,8.37-4.54,12.62-8.71-2.01,9.57-7.03,16.16-12.35,22.46-4.18,4.95-8.76,9.58-14,13.48-2.32,1.72-4.03,4.04-5.19,6.63-2.66,5.93-5.35,11.83-8.67,17.43-.59.99-1.1,2.1-.33,3.27,4.62-2.48,6.03-7.29,7.81-11.56,2.93-7.05,6.75-13.01,12.99-17.75,7.6-5.77,13.37-13.38,18.19-21.64,1.16-1.99,2.89-4.14,2.91-6.23.13-12.76,9.13-22.09,12.61-33.52.96-3.16,2.42-6.17,3.73-9.21.58-1.35.99-3.26,2.48-3.58,6.39-1.41,4.62-5.74,3.45-9.59-.86-2.84-.61-5.12.46-7.96,2.01-5.28,2.22-11.03,2.33-16.7.11-5.65.54-11.26,1.85-16.78.69-2.93.05-5.7-1.8-7.99-2.25-2.77-2.44-5.42-.72-8.54,1.28-2.32,1.89-4.94,1.86-7.66.44-1.16-.16-1.52-1.19-1.55-1.52,1.3-1.66,3.2-2.13,4.94-2.42,8.94-8.17,14.75-16.86,17.55-11.61,3.75-23.72,5.17-35.68,7.28-7.7,1.36-15.44,2.48-23.24,3.15-1.33.11-2.68.32-3.36,1.75.02.89.49,1.52,1.18,2.01,4.32,1.39,8.62.06,12.79-.56,13.32-1.97,26.65-3.99,39.83-6.81,7.68-1.64,15.23-3.68,21.12-9.41,2.26-2.19,3.79-1.37,4.85,1.23.58,1.43.61,2.9.31,4.41-1.53,7.84-2.02,15.79-2.19,23.76-.06,2.68-.35,5.28-1.29,7.83-1.46,3.91-3.96,6.41-8.28,6.94-7.98.99-15.58,3.38-22.95,6.56-2.2.95-4.46,1.17-6.83.72-18.97-3.55-37.77-7.86-56.47-12.64-4.36-1.11-4.27-1.38-1.09-4.93,4.19-4.67,9.72-8.12,12.6-13.97,0-.86-.46-1.43-1.15-1.86-1.75-.36-2.76.82-3.77,1.9-4.98,5.31-10.34,10.26-15.34,15.55-1.22,1.29-3.49,2.38-1.94,4.87,20.53,5.73,41.35,10.17,62.21,14.47,6.29,1.3,12.3.75,18.02-1.99,6.89-3.3,14.52-3.51,21.68-5.6,1.07-.31,2.02-.09,2.44,1.06.58,1.59,1.22,3.47-.39,4.62-6.99,4.99-7.78,13.3-10.9,20.3-3.69,8.27-7.43,16.43-14.26,22.61-6.6,5.97-14.11,8.91-23.33,7.42-9.24-1.49-18.31-3.5-27.18-6.4-21.2-6.94-42.33-14.07-63.26-21.79-1.54-.57-3.13-1.07-4.51-2.08.72-2.11,2.62-2.66,4.07-3.59,11.08-7.13,21.5-15.14,31.62-23.54,1.74-1.45,3.93-2.69,3.78-5.48-3.18-1.65-5.01.92-6.86,2.51-10.25,8.81-21.2,16.66-32.52,24-26.1,16.92-53.52,31.09-83.7,39.29-4.15,1.13-8.29,2.47-12.62,2.91-2.2.22-4.2,1-5.98,2.34-.62.53-1.04,1.18-1.26,1.96.96,7.95,4.54,15.11,6.78,22.68.28.94.71,1.85.97,2.81,7.23,22.5,13.09,45.33,16.7,68.71,3.4,22.32.13,43.68-9.27,64.16-.27.86-.34,1.72-.14,2.6.17.59.51,1.05,1.02,1.39.63-1.12,1.43-2.17,1.85-3.37.82-2.31,1.94-2.26,4.07-1.41,5.42,2.16,10.78,4.38,15.8,7.38Z"/>
  <path class="cls-48" d="M471.43,548.05c-.43-.36-.87-.71-1.3-1.07.55-3.47,3.12-5.8,5.03-8.41,7.23-9.89,12.98-20.52,16.37-32.31.98-3.41,2.81-4.79,6.26-5.18,8.58-.98,17.12-2.34,25.68-3.52,7.7-1.05,14.51-3.58,19.58-9.73,1.58-1.92,3.33-2.66,5.63-1.35,1.38-.43,1.38-1.31.79-2.39-2.92-2.01-2.85-4.47-2.26-7.85,1.3-7.45.27-14.93-2.43-22.01-2.94-7.68-4.03-15.9-7.58-23.45-1.22-2.59.3-6.48.55-9.77.25-3.31.34-6.64.76-9.93.44-3.46-1.9-5.71-2.89-8.47-.63-1.76,2.91-4.82,2.48-8.02-.03-.23-.48-.41-.73-.61-1.8,8.66-8.05,11.76-15.96,12.31-9.67.67-19.28-.87-28.92-1.24-1.91-.07-2.56-.98-2.66-2.79-.89-16.13-1.69-32.27-1.58-48.44.02-2.95,1.4-2.91,3.4-2.35,3.52.99,6.99,2.18,10.54,3.04,8.29,2.01,15.81,1.24,21.73-5.92,1.37-1.65,2.91-4.83,5.13-3.8,1.73.8,1.06,4.25,1.47,6.53,2.2,12.07,4.56,24.11,6.86,36.16,2.41-5.11-.21-10.01-1.25-14.71-2.11-9.55-3.73-19.16-5.38-28.77-.29-1.72,6.03-9.86,7.86-10.05,1.48-.16,1.78,1.25,2.45,2.07,4.09,5.03,8.1,10.12,12.18,15.16,7.65,9.43,17.46,15.61,29.02,19.12.46-.08.92-.15,1.38-.23-.42-2.44-2.62-2.9-4.36-3.62-13.39-5.51-23.16-15.05-31.66-26.56-7.32-9.91-14.61-19.85-20.96-30.37-13.4-22.21-25.88-44.95-33.37-69.98-2.76-9.23-4.43-18.75-4.53-28.46-.07-6.82.22-13.65-.07-20.46-.35-8.09,2.15-15.78,2.74-23.72.21-2.84,1.79-4.93,4-6.6,0-.33,0-.67,0-1-.98-2.36-3-2.9-5.27-2.99-.83.11-1.57.4-2.03,1.16-.08.56-.16,1.12-.24,1.67,1.6.92.41,2.07.25,3.15-5.57,18.34-4.24,37.16-4.01,55.9.02,1.84.73,3.57,1.09,5.36,2.35,13.51,6.8,26.39,11.59,39.19,1.47,2.62,2.18,5.64,3.87,8.1,3.87,5.65,2.94,10.8-.85,16.08-5.11,7.1-8.6,15.01-10.64,23.52-1.48,6.15-2.6,12.4-3.06,18.69-.91,12.44-1.72,24.93-1.07,37.4.82,15.94,1.51,31.88,2.59,47.81,1.76,25.89,3.71,51.84,2.14,77.79-.95,15.65-7.95,29.4-16.92,42.1-2.69,3.81-5.52,7.52-8.37,11.21-1.08,1.4-2.63,2.68-2.04,4.82l.77.95c2.51-1.65,5.68-1.57,8.22-3.14Z"/>
  <path class="cls-12" d="M741.38,262.2c-.05.46-.11.92-.16,1.37.63,2.17,2.71,2.23,4.32,2.93,10.32,4.53,19.63,14.69,16.67,30.08-1.24,6.42-3.15,12.58-5.64,18.58-2.49,5.98-7.33,9.72-12.67,12.99-1.88,1.15-5.43,2.5-4.23,4.67,1.58,2.84,4.31.11,6.44-.9,1.31-.62,2.46-2.38,3.93-1.67,1.81.87.88,2.97,1.02,4.54.49,5.73-1.24,10.89-4.48,15.51-1.81,2.59-2.55,5.32-2.52,8.42.07,5.77-1.09,11.24-4.42,16.1-.87,1.26-1.36,2.67-1.44,4.2-.63,11.58-4.67,22.13-10.3,32.04-6.1,10.74-13.54,20.55-22.15,29.44-.58.6-1.16,1.2-1.81,1.72-2.35,1.89-4.76,4.1-8.01,3.04-3.42-1.11-3.69-4.48-4.08-7.42-1.3-9.73-4.38-18.76-10.06-26.83-1.15-1.64-2.37-3.24-3.88-4.55-8.49-7.38-17.3-14.47-21.83-25.27-.54.34-1.08.67-1.61,1.01-1.68,1.73-.67,3.49.18,5.04,2.72,4.99,5.8,9.78,10.31,13.35,3.94,3.12,7.23,6.89,10.9,10.27,2.42,2.23,2.4,4.5.77,7.11-1.96,3.14-4.33,5.86-7.34,8.07-2.86,2.09-5.71,2.36-8.89.83-1.58-.76-2.93-2.36-5-1.66-.06.49-.12.97-.19,1.46,2.71,4.95,8.1,6.78,13.45,4.49,4.6-1.97,7.84-5.45,10.39-9.65,1.74-2.87,3.03-2.5,4.27.41,3.08,7.24,4.76,14.82,5.37,22.62.28,3.68-2.51,5.43-5.2,7.23-3.19,2.14-7.46,1.75-10.31,4.58.12.87.42,1.48,1.45.95,6.5-.22,11.96-2.61,15.85-7.95.99-1.36,1.5-1.86,3.43-1.32,4.03,1.12,8.03.3,11.07-2.81,14.99-15.35,27.87-32.07,33.82-53.19.9-3.2,1.68-6.4,1.79-9.75.09-2.86.91-5.42,2.61-7.88,3.25-4.71,3.65-10.23,3.5-15.77-.06-2.39.42-4.4,1.9-6.44,4.89-6.74,6.87-14.26,5.05-22.56-.64-2.92.24-5.16,1.96-7.73,7.19-10.77,11.22-22.77,9.42-35.73-1.86-13.4-11.22-20.44-23.62-23.99Z"/>
  <path class="cls-55" d="M674.61,457.32l-1.2-1c-.62-.94-1.62-1.25-2.6-1.21-11.44.56-19.46-6.43-27.13-13.15-11.27-9.87-21.32-21.01-29.25-33.88-1.13-1.84-2.14-3.76-3.28-5.59-3.16-5.08-3.01-9.63.49-14.73,2.56-3.72,5.41-7.61,5.93-12.44-.42-.42-.84-.84-1.26-1.26-2.32.17-2.68,2.25-3.53,3.75-7.35,12.85-14.9,25.59-24.58,36.86-5.83,6.79-11.68,13.73-20.25,17.36-1.75.74-3.83,2.3-5.47.36-1.36-1.6.02-3.49.79-5.11,6.56-13.84,14.98-26.64,22.2-40.11,1.87-3.49,5.15-6.48,4.65-11-.26-.37-.51-.73-.77-1.1-9.41,16.54-19.38,32.77-28.11,49.7-1.69,3.28-4.49,7.16-1.01,10.4,3.34,3.11,7.34.48,10.59-1.25,10.25-5.45,17.22-14.46,24.22-23.33,3.49-4.42,6.54-9.18,10.11-14.23,4.92,11.43,11.79,21.26,19.65,30.4,9.35,10.87,19.22,21.2,32.16,27.93,5.54,2.88,11.32,4.75,17.65,2.63Z"/>
  <path class="cls-80" d="M420.26,389.91c-1.3,6.68-1.47,13.47-1.84,20.23-.57,10.27-1.2,20.52-2.92,30.69-2.03,11.97-8.01,21.51-17.97,28.09-16.54,10.93-34.49,18.86-54.09,22.51-10.7,2-21.11-.87-31.49-2.93-17.68-3.5-35.17-8.06-53.22-9.47-.66-.05-1.33.01-1.99.02-1.21-.38-2.37-.68-2.32,1.26,5.56,2.42,11.61,2.31,17.45,3.28,15.04,2.49,29.97,5.51,44.7,9.45,15,1.51,30.06,3.76,44.46-3.16,8.83-3.38,17.46-7.2,25.91-11.47,6.71-3.4,13.04-7.24,18.43-12.53,8.07-7.44,12.19-16.81,13.42-27.56.23-1.99.62-3.94.94-5.92,1.46-12.39,1.5-24.89,2.87-37.28.13-1.17.07-2.33-.34-3.45-.39-.9-1.03-1.52-1.99-1.77Z"/>
  <path class="cls-36" d="M39.62,620.3c1.17-.2,1.62-.94,1.74-2.07,1.43-13.6,6.83-25.87,12.71-37.98,1.22,0,1.69-.95,2.13-1.81,17.3-33.55,45.29-55.72,77.73-73.18.85-.54,1.61-1.17,1.96-2.17.07-.53-.09-.98-.5-1.33-49.85,25.07-85.53,61.69-96.52,118.43.19.47.43.48.73.1Z"/>
  <path class="cls-31" d="M761.69,131.56c13.22-13.51,22.12-29.66,28.63-47.23,3.51-9.47,6.54-19.09,7.7-29.2.89-7.72.54-15.31-2.6-22.49-4.41-10.09-12.44-11.45-20.36-3.63.2.2.41.41.61.61,2.06.71,3.45-.8,5.05-1.55,4.32-2.02,7.1-1.43,10.02,2.39,3.06,3.99,4.04,8.68,4.3,13.59.47,9.06-.62,17.94-3.15,26.65-5.91,20.38-14.89,39.17-28.73,55.43-1.07,1.26-2.35,2.4-2.36,4.26.08.55.37.95.88,1.18Z"/>
  <path class="cls-46" d="M396.25,58.25c-.27-.34-.55-.67-.82-1.01-3.79,7.6-1.3,14.87,1.5,21.94,2.64,6.67,6.66,12.61,11.49,17.89,15.16,16.55,31.12,32.23,50.09,44.5,1.94,1.25,3.98,2.34,5.98,3.5.81-.22,1.29-.67,1.13-1.59-4.9-4.49-10.94-7.39-16.05-11.62-14.94-12.39-29.62-25.03-41.84-40.26-7.29-9.09-12.04-19.03-10.92-31.06.08-.82.12-1.66-.56-2.31Z"/>
  <path class="cls-37" d="M476.89,178.14c-14.49,26.27-25.04,54.13-33.5,82.83-2.47,8.37-4.55,16.85-6.81,25.27.43.37.92.49,1.47.36,3.84-3.2,2.6-8.31,4.63-12.2,5.53-22.04,13.01-43.42,21.87-64.33,4.16-9.41,8.18-18.89,13.11-27.94.69-1.27,1.69-2.56.65-4.14-.51-.25-.98-.19-1.42.16Z"/>
  <path class="cls-75" d="M437.63,286.28c-.35-.01-.7-.02-1.05-.04-8.3,34.1-14.08,68.6-16.33,103.66.33.44.65.88.98,1.32,2.83-4.46,2.39-9.55,2.81-14.48,1.12-9.74,2.72-19.42,3.57-29.19,2.19-14.48,4.7-28.89,7.83-43.2,1.18-4.41,1.57-8.99,2.71-13.41.41-1.58.68-3.22-.52-4.66Z"/>
  <path class="cls-73" d="M33.39,743.09c.32.02.64.04.96.05,1.16-5.34,2.33-10.68,3.49-16.02,3.2-4.51,2.73-9.89,3.09-14.92,1.42-19.6.66-39.17-1.85-58.67-.19-1.48-.2-3.01-1.26-4.22-.48-5.74.05-11.44.58-17.14-.31-.47-.64-.5-.99-.04-1.98,10.37-1.66,20.91-.48,31.21,2.89,25.16,1.94,50.04-2.82,74.85-.31,1.62-.48,3.26-.71,4.9Z"/>
  <path class="cls-6" d="M254.51,480.03c.74-.32,1.49-.65,2.23-.97-7.81-1.67-15.8-1.65-23.68-1.61-16.89.1-33.71,1.45-50,6.53.33.53.79.91,1.36,1.15,4.79,1.68,9.2-.61,13.65-1.57,6.87-1.47,13.78-1.96,20.76-2.18,9.88-1.11,19.77-.77,29.65-.26,2.1.11,4.3.85,6.01-1.1Z"/>
  <path class="cls-21" d="M630.4,68.94c.02-.27.04-.55.06-.82-12.94-3.25-26.07-3.61-39.24-2.26-4.31.44-8.86.12-12.84,2.44-.27.67-.07,1.12.61,1.36,4.86.57,9.62-.19,14.38-1,7.79-1.33,15.55-1.29,23.32.26,4.54.9,9.14,1.73,13.72.02Z"/>
  <path class="cls-70" d="M441.52,780.2c-2.68-.81-4.41,1.35-6.25,2.41-6.71,3.85-13.36,7.72-20.85,9.92-.46.14-.71,1.01-1.06,1.54.34.24.68.48,1.03.72,9.39-4.23,19.34-7.41,27.14-14.59Z"/>
  <path class="cls-41" d="M549.47,484.09c-.27.67-.55,1.34-.82,2.01-.9.96-.85,2.17-.67,3.3,1.08,6.57,2.18,13.13,2.14,19.83,0,1.16.39,2.3,1.47,3.03.35.43.7.87,1.05,1.3,2.25-8.12-.18-15.95-1.64-23.81-.35-1.88-.17-4.01-1.53-5.66Z"/>
  <path class="cls-29" d="M184.81,484.36c-.58-.13-1.16-.25-1.74-.38-8.94,1.6-17.54,4.33-25.8,8.11.32.47.75.8,1.28,1.01,1.81.56,3.56.29,5.29-.34,5.86-2.1,11.63-4.43,17.73-5.8,1.41-.32,2.89-.83,3.23-2.6Z"/>
  <path class="cls-31" d="M578.4,69.06c0-.26,0-.51-.03-.76-8.97.66-17.15,3.85-25.05,7.88l.12.14c.64.2-.24.13.4.29,3.32.81,22.11-4.96,24.56-7.54Z"/>
  <path class="cls-9" d="M158.84,492.38c-.52-.1-1.05-.19-1.57-.29-7.53,2.68-15.01,5.48-21.87,9.68.04.46.08.93.12,1.39.93.59,1.97.5,2.86.09,6.15-2.82,12.24-5.78,18.55-8.22,1.1-.43,1.9-1.32,1.91-2.65Z"/>
  <path class="cls-31" d="M465.4,144.31c-.3.26-.61.52-.91.77,7.37,5.1,15.49,8.76,23.63,12.38.79-.09,1.58-.19,2.37-.28.04-.34.07-.79-.16-.92-7.77-4.55-15.83-8.55-24.03-12.25-.25-.11-.61.12-.9.3Z"/>
  <path class="cls-65" d="M454.32,767.24c-5.11,3.51-9.14,8.08-12.83,12.99,5.52-3.1,9.78-7.45,12.83-12.99Z"/>
  <path class="cls-31" d="M476.89,178.14c.46.03.93.07,1.39.1,4.22-3.47,6.56-8.02,7.74-13.27-.14-.49-.45-.83-.94-1-3.2,4.45-5.71,9.3-8.19,14.16Z"/>
  <path class="cls-31" d="M752.64,140.59c3.49-2.54,6.53-5.52,9.05-9.03-.23-.2-.46-.4-.68-.6-4.11,1.86-7.11,4.84-8.95,8.96.2.22.39.44.59.66Z"/>
  <path class="cls-74" d="M37.4,632.13c.33,0,.66.02.99.04.57-3.94,1.7-7.82,1.22-11.87-.25,0-.49-.03-.73-.1-.73,3.95-1.66,7.87-1.48,11.93Z"/>
  <path class="cls-31" d="M489.63,160.28c1.09-2.91-1.25-.63-1.74-1.15-.94,1.62-1.87,3.23-2.81,4.85.18.15.36.3.54.45,2.93.16,2.43-3,4.01-4.14Z"/>
  <path class="cls-7" d="M181.38,874.28c.32-.39.64-.77.96-1.16.07-6.11.09-6.19,5.92-4.88,12.93,2.9,25.96,5.32,39.16,6.42,14.93,1.25,28.89-2.09,41.55-10.32-.33-.49-.78-.81-1.35-.96-4.65.15-8.42,2.9-12.53,4.53-8.57,3.41-17.45,4.32-26.4,3.63-18.56-1.44-36.84-4.65-54.61-10.37-4.45-1.43-8.57-3.6-12.85-5.4-2.85-1.2-5.57-1.19-7.42,1.81-.42.69-.6,1.63.81,1.55.36.44.73.89,1.09,1.33,2.32-.45,4.48-.2,6.66.89,2.49,1.25,5.09,2.34,7.77,3.1,4.75,1.34,9.22,2.81,9.74,8.81.06.66.77,1.01,1.5,1.01Z"/>
  <path class="cls-57" d="M314.69,807.65c-.12-.58-.24-1.16-.36-1.74-3.36,1.15-3.54,4.52-4.87,7.05-7.92,15.06-16.7,29.47-30.12,40.42-1.94,1.76-4.16,3.29-5.15,5.89-.05.52.15.91.6,1.17,9.76-6.11,16.99-14.76,23.65-23.9,6.53-8.98,12.21-18.48,16.25-28.88Z"/>
  <path class="cls-60" d="M357.38,844.21c-.41-5.04-3.16-9.13-5.4-13.46-3.1-5.98-6.37-11.84-10.73-17-1.3-1.54-2.24-3.78-4.89-3.54,8.31,9.28,14.24,20,19.17,31.35.41.95.44,2.33,1.85,2.64Z"/>
  <path class="cls-50" d="M267.29,864.03c.56.1,1.12.21,1.68.31,2.29-.79,4.17-2.18,5.82-3.91-.16-.17-.32-.34-.48-.51-3.88-1.25-5.65,1.09-7.02,4.11Z"/>
  <path class="cls-61" d="M362.45,850.22c-1.47-2.21-2.49-4.8-5.09-6.06.61,2.93,1.94,5.26,5.09,6.06Z"/>
  <path class="cls-49" d="M133.36,504.52c-33.62,17.72-62.21,40.7-79.29,75.73,8.18,7.35,17.65,12.94,26.44,19.46,9.87,7.32,19.65,14.74,29.01,22.7,2.26-2.77,1.24-6.05,1.29-9.11.2-11.56,2.06-22.8,6.51-33.49,4.42-10.61,10.86-19.75,20.57-26.27,3.06-2.17,6.15-4.29,9.53-5.97,1.56-.78,3.4-1.4,3.65-3.58-.15-1.61-1.23-2.67-2.21-3.79-8.07-9.24-13.57-19.59-14.08-32.15-.05-1.32-.1-2.69-1.4-3.54Z"/>
  <path class="cls-49" d="M37.81,649.32c-.37,11.64,1.91,23.09,2.23,34.71.37,13.47-.29,26.82-2.13,40.14-.13.97-.06,1.97-.07,2.96,11.39.49,22.53-.59,33.28-4.7,16.67-6.38,24.06-22.92,16.53-37.79-4.94-9.76-13.13-15.66-23.63-18.32-4.85-1.23-9.61-2.66-14.04-5-4.95-2.61-9.36-5.46-9.7-12.09-.16-3.15-1.59.19-2.47.09Z"/>
  <path class="cls-64" d="M21.77,797.11c-2.88,13.61-6.46,27.08-8.07,40.95,5.87.21,11.61-.19,17.02-2.87,13.67-6.78,12.32-25,.02-33.82-2.66-1.91-5.67-3.48-8.96-4.25Z"/>
  <path class="cls-49" d="M7.87,870.31c-1.76,11.58-3.55,23.15-4.21,34.87,7.47-1.13,13.84-4.6,19.48-9.41,4.89-4.17,6.86-11.04,5.01-16.23-1.7-4.76-8.29-9.1-14.3-9.33-1.99-.07-3.99.06-5.99.11Z"/>
  <path class="cls-58" d="M110.28,793.73c.11.54.23,1.08.34,1.62,1.59.18,2.47-.91,3.19-2,3.23-4.94,7.77-8.56,12.1-12.43,8.44-7.56,13.55-7.8,22.01,0,7.68,7.09,15.49,14.05,22.81,21.53,1.77,1.81,3.84,5.83,6.61,3.39,2.32-2.04-1.67-4.39-2.58-6.71-.42-1.08-1.28-1.94-2.5-2.27-1.24.85-1.72-.34-2.43-.92-7.48-6.86-14.3-14.43-22.52-20.49-8.29-6.1-12.87-6.1-21.18-.07-4.62,3.35-8.6,7.37-12.45,11.51-1.96,2.11-3.74,2.36-6.09.8-9.85-6.54-19.76-12.99-29.52-19.67-2.76-1.89-2.97-4.15-1.6-6.91,5.86-11.88,12.27-23.31,23.68-30.95,2.04-1.37,4.29-2.62,5.54-4.93.12-.5,0-.92-.39-1.26-8.77,3.46-15.25,9.85-20.56,17.24-8.51,11.84-14.08,25.23-18.92,38.93.59.59,1.27.58,1.99.3,2.12-1.65,2.77-4.19,3.44-6.51,1.2-4.16,2.88-3.76,5.96-1.67,10.06,6.83,20.03,13.8,30.42,20.12.86.52,1.71,1.03,2.66,1.37Z"/>
  <path class="cls-47" d="M137.53,552.33c-15,10.24-22.54,25.03-26.12,42.36-1.89,9.18-1.59,18.46-1.9,27.72,1.46,14.28,2.57,28.58,5.54,42.7,1.38,6.6,3.06,13.12,4.42,19.72.34,1.66.74,3.22,1.99,4.45.88-.28,1.44-.85,1.59-1.78-.59-8.34-3.65-16.15-5.13-24.33-3.62-20-6.77-40.12-4.63-60.39,1.86-17.55,8.12-33.63,22.47-45.34,1.16-.94,2.32-1.94,2.42-3.62-.04-.58-.26-1.08-.65-1.5Z"/>
  <path class="cls-56" d="M169.41,797.07c.75.18,1.54,1.14,2.2-.13.49-2.72-1.05-4.85-2.36-6.85-8.15-12.48-14.91-25.72-21.46-39.08-.85-1.73-1.52-3.76-3.88-4.13-.91-.63.28,3.14-2.1.7-9.5-9.75-18.69-19.83-29.1-28.67-.46-.18-.91-.13-1.34.1-2.2,1.44-4.83,2.35-6.09,4.95.15.13.29.27.41.44,1.21.68,2.28.11,3.26-.47,2.16-1.29,3.66-.37,5.22,1.2,7.01,7.05,13.75,14.44,21.25,20.92,9.22,7.96,14.33,18.46,20.09,28.69,4.3,7.64,8.16,15.57,13.89,22.33Z"/>
  <path class="cls-20" d="M111.38,719.02c.54.13,1.08.25,1.62.38,3.64.77,5.73-2.08,8.28-3.68,5.9-3.7,5.99-3.85,8.22,2.94,2.38,7.25,5.68,14.11,8.64,21.11.81,1.92,1.16,5.13,4.79,4.03.67-2.24-.09-4.29-1.05-6.21-7.17-14.45-11.84-29.83-16.82-45.1-.54-1.67-.47-3.74-2.75-4.3-.29.37-.57.73-.86,1.1-.2,5.66,2.98,10.42,4.28,15.68.73,2.95.22,4.54-2.38,6.09-4.11,2.45-8,5.29-11.98,7.97Z"/>
  <path class="cls-44" d="M67.46,780.14c-.55,0-1.1,0-1.65-.01-2.31,7.56-4.65,15.12-6.91,22.7-.9,3.01-1.87,6.02-1.42,9.25,0,0,.36.27.36.27,1.94-.53,2.3-2.27,2.69-3.82,2.07-8.16,4.46-16.22,7.14-24.19.46-1.37,1.01-2.86-.22-4.19Z"/>
  <path class="cls-42" d="M122.31,688.18c4.79,15.44,9.81,30.8,16.33,45.63,1.57,3.58,4.01,6.9,3.84,11.1-.43,1.17.04,1.76,1.21,1.92,2.92,2.87,4.09,6.77,5.76,10.3,6.52,13.76,14.61,26.63,22.15,39.81,1.99,2.76,3.98,5.52,6.32,8.76-3,.48-3.85-1.43-4.99-2.56-8.72-8.61-17.37-17.27-26.84-25.08-8.58-7.07-12.65-4.67-20.53,1.44-5.79,4.49-10.6,9.96-14.95,15.84-4.3,7.2-3.14,14.27.65,21.19,2.14,3.91,4.35,7.81,6.87,11.48,3.89,5.67,5.48,11.85,5.7,18.68.39,12.16-.81,24.19-2.61,36.16-.45,2.99,1.26,5.91-.15,8.8.04.34.23.48.59.42,7.57-.27,15.08-1.02,22.25-3.61,5.71-2.07,9.2-6.14,9.82-12.36.9-5.33-.48-10.77.73-16.09-.02-.31.03-.6.15-.89.82-4.06,3.44-3.68,6.13-2.26,14.67,7.74,30.64,10.87,46.81,13.34,4.75.72,9.5,1.42,14.23,2.16,16.24,2.52,31.21-.8,45.51-8.33,2.35-1.36,3.93-4.02,7.02-4.11,1.25-2.4,4.2-3.27,5.25-5.85.94-1.29.37-2.54-.1-3.78-4.39-11.8-18.63-20.37-31.16-18.77-3.31.42-6.6,1-9.76,2.07-8.4,2.84-15.3.18-20.4-6.46-8.07-10.53-10.48-22.68-7.12-35.45,3.29-12.53,12.81-17.99,25.55-15.64,13.66,2.52,26.61,7.36,39.5,12.37,10.87,4.23,21.35,9.33,31.86,14.38,1.99.96,3.91,2.82,6.46,1.4,5.41-10.12,9.41-20.92,10.72-32.18,1.26-10.83,1.33-21.93-1.04-32.79-2.05-2.04-4.68-1.45-7.1-1.43-8.37.07-16.65-.67-24.72-2.93-12.76-3.58-25.53-3.02-37.93.89-11.68,3.68-22.47,1.73-32.87-3.4-8.77-4.33-15.97-10.78-21.44-19.03-1.86-2.81-3.17-5.84-4.01-9.1-1.95-7.53.8-13.5,7.79-16.94,5.84-2.88,12.25-3.59,18.5-3.54,12.94.11,25.57-1.74,38.11-4.47,14.49-3.15,29.01-6.07,43.75-7.79,1.16-.14,2.32-.32,3.12-1.33-2.66-8.25-5.32-16.49-7.98-24.74.14-3.42-1.41-6.43-2.6-9.45-2.72-6.9-5.13-13.93-8.28-20.65-.36-.77-.9-1.37-1.73-1.66-14.1,1.14-27.17,5.94-40.19,11.09-12.14,4.81-23.4,10.76-33.67,19.05-11.38,9.17-24.5,9.36-37.71,3.71-11.06-4.74-20.06-11.79-24.42-23.52-3.19-8.58-.81-18.42,6.22-24.48,4.15-3.57,8.62-6.82,13.84-8.79,11.91-4.51,22.85-10.87,33.09-18.3,12.46-9.04,26.56-12.57,41.49-13.94,2.13-.2,4.92.71,5.64-2.64-.39-2.06-2.04-3.05-3.62-3.87-13.04-6.74-26.54-11.89-41.37-13.25-5.26-.48-10.56-.67-15.81-1.58-6.68-1.16-13.19,1.12-19.71,2.02-12.17,1.67-23.11,6.74-32.81,14.36-4.32,4.69-9.26,8.73-13.06,14.01-7.98,11.1-11.6,23.7-12.81,36.92-1.34,14.57-.11,29.21,2.02,43.63,1.99,13.51,4.89,26.91,8.52,40.12Z"/>
  <path class="cls-8" d="M93.38,881.05c-.36-.75-.72-1.49-1.08-2.24-.42.23-1.06.28-1.18.81-1.52,6.57-2.52,13.14.59,19.57.3.68.61,1.37.91,2.05,1.71-6.68.71-13.46.76-20.2Z"/>
  <path class="cls-63" d="M412.25,832.84c.84,8.33-.88,13.05-6.42,15.85-7.25,3.66-12.3-.28-17.22-5.13,3.55,11.53,6.78,23.49,16.62,31.21,5.87,4.6,13.4,7.08,20.2,10.49,1.89.95,3.13.12,3.99-1.64,1.5-3.07,2.26-6.29,1.6-9.66-.51-2.6-1.12-5.24-2.15-7.65-4.88-11.43-12.25-21.63-16.63-33.47Z"/>
  <path class="cls-63" d="M422.25,905.88c2.03,8.35,2.91,16.3,8.5,22.59,4.65,5.24,14.03,6.85,20.09,3.33,2.36-1.37,3.81-3.3,3.31-6.12-1.23-6.99-3.87-13.38-8.71-18.69-.77-.85-1.41-2.57-3.14-1.25-6.34,4.85-12.9,3.95-20.06.15Z"/>
  <path class="cls-27" d="M406.95,879.01c3.07,6.16,5.38,11.88,8.62,17.01,4.3,6.83,9.98,12.03,19.02,11.15,3.72-.36,6.8-1.81,8.45-5.25,1.55-3.21-.39-5.61-2.34-8.02-3.24-4.02-5.19-8.83-7.53-13.41-1.22.43-1.22,1.5-1.58,2.31-2.24,4.99-3.82,5.63-8.85,3.12-4.85-2.42-9.27-5.76-15.79-6.92Z"/>
  <path class="cls-51" d="M400.86,817.19c-3.91,5.55-8.69,8.02-14.92,7.24-1.44-.18-2.98-.15-2.21,1.92,2.18,5.88,3.34,12.22,7.7,17.15,4.48,5.07,9.83,6.29,14.57,3.19,4.62-3.02,6.17-8.82,3.34-14.62-2.4-4.92-5.4-9.54-8.48-14.89Z"/>
  <path class="cls-22" d="M399.51,811.73c-.08-.71-.11-1.71-.31-2.68-1.4-6.58-1.93-6.77-8.41-5.09-4.94,1.28-9.83,3-15,3.16-2.53.08-2.91,1.16-1.79,3.06,1.94,3.28,3.63,6.83,6.11,9.65,3.47,3.93,8.17,4.07,12.83,2.18,4.39-1.78,6.99-4.95,6.56-10.28Z"/>
  <path class="cls-39" d="M67.46,780.14c-3.21,10.74-6.42,21.47-9.62,32.21-1.29,5.83-2.37,11.72-3.95,17.47-.99,3.59.19,5.37,3.27,7.08,4.45,2.47,9.3,2.44,14.03,2.84,9.35.8,18.38,2.86,27.07,6.3,7.38,2.92,14.3,1.17,21.29-1.32,2.38-.85,2.31-2.45,1.93-4.34-.96-4.79-2.75-9.21-5.68-13.15-2.98-4.01-5.83-8.13-7.63-12.82-2.78-7.21-2.95-14.24,2.12-20.69-.08-1.64-1.53-2.01-2.58-2.71-10.75-7.16-21.56-14.22-32.23-21.5-2.5-1.71-3.48-1.56-4.38,1.4-.96,3.15-2.4,6.16-3.64,9.23Z"/>
  <path class="cls-10" d="M113.12,848.41c-7.16,2.01-13.34,0-19.6-2.26-8.31-3.01-16.95-4.71-25.8-4.96-4.1-.11-7.97-.91-11.37-3.07-3.05-1.94-4.07-.68-4.62,2.19-1.63,8.47-3.19,16.96-4.97,25.39-.64,3.02.78,3.89,3.27,4.09,3.31.26,6.62.47,9.94.66,5.49.31,10.84,1.24,16.08,3,8.39,2.82,15.63,1.71,22.12-5.28,5.54-5.96,11.41-11.49,14.96-19.77Z"/>
  <path class="cls-10" d="M91.71,899.2c.46-6.79-1.18-13.63.59-20.38.22-2.13.7-3.6-2.88-2.98-5.73,1-11.46.9-17.24-1.61-7.72-3.35-16.41-1.7-24.57-3.16-2.04-.36-1.86,1.29-2.07,2.58-1.37,8.52-2.6,17.07-4.23,25.54-.51,2.67.47,3.54,2.55,4.41,3.58,1.49,7.35,2.03,11.14,2.45,5.94.66,11.79,1.47,17.55,3.32,9.44,3.04,16.93-1.15,19.16-10.16Z"/>
  <path class="cls-67" d="M181.38,874.28c-.43-6.85-4.75-9.61-10.9-11.08-3.63-.87-7.11-2.67-10.44-4.45-2.49-1.34-3.57-.58-4.34,1.72-.47,7.56.59,15.11-2.07,22.67-2.12,6.04,5.43,15.36,11.81,16.06,8.81.96,16.64-4.92,16.85-13,.1-3.96-.58-7.94-.91-11.91Z"/>
  <path class="cls-72" d="M153.56,892.25c-1.87,9.08-2.78,17.89.2,26.65,2.72,8,8.04,11.79,15.53,11.34,6.48-.39,11.97-5.74,13.61-13.24.92-4.23.53-19.51-.6-23.61-11.31,10.72-19.17,10.49-28.74-1.14Z"/>
  <path class="cls-7" d="M154.46,860.02c-1.63,5.3-.64,10.72-.73,16.09,1.65-5.3.52-10.72.73-16.09Z"/>
  <path class="cls-10" d="M656.08,381.21c.37,5.11,3.01,9.11,6.43,12.62,3.25,3.33,6.5,6.72,10.11,9.64,11.17,9.05,16.26,21.09,17.99,34.95.41,3.28.6,7.01,4.37,8.33,3.25,1.14,6.39-.23,8.69-2.53,14.32-14.41,26.57-30.22,32.86-49.93,1.53-4.78,2.67-9.61,2.78-14.65.03-1.33-.03-2.63.94-3.76,4.53-5.3,5.34-11.68,5.01-18.3-.12-2.47.47-4.38,2.07-6.34,5.24-6.38,5.79-13.91,4.89-21.75-.34-2.99-1.55-2.09-3.22-1.06-2.83,1.75-5.21,4.44-8.95,4.77.15-1.8,1.46-2.22,2.39-2.66,13.24-6.2,18.05-18.09,20.62-31.17,3.57-18.12-3.43-29.24-21.85-35.79-7.1-1-12.69,1.99-17.36,6.9-2.39,2.52-4.42,5.4-6.41,8.27-3.33,4.8-5.71,9.09-1.4,15.38,5.12,7.48,2.95,24.72-3.71,35.33-.78-1.95.41-3.28.87-4.71,2.56-7.94,4.93-15.87,3.26-24.41-2.35-12.05-15.64-22.68-27.88-22.18-2.44.1-4.48,1.02-6.37,2.51-21.58,16.97-22.93,39.87-3.44,59.22,2.24,2.22,4.53,4.54,7.21,6.13,3.95,2.34,5.05,5.82,5.44,9.95q1.58,16.8,18.08,21.56c-5.76,10.11-6.32,20.96-4.64,32.42-3.75-3.83-7.2-7.78-11.25-11.05-7.12-5.77-13.92-11.78-18.55-19.88-.65-1.14-1.64-2.09-2.56-3.06-2.72-2.87-5.22-6.68-9.94-5.01-4.6,1.63-6.31,5.59-6.51,10.27Z"/>
  <path class="cls-52" d="M575.09,152.59c-2.41-.61-4.8-1.42-7.25-1.76-1.54-.22-3-.1-3.49-1.97-.51-1.99.05-3.62,1.72-4.82,3.27-2.34,7.1-2.83,10.91-2.88,11.41-.14,22.82-.05,34.36-.71-6.11-6.44-10.71-13.26-13.79-21.02-3.15-7.92-1.8-12.59,4.86-17.66-3.49-2.6-7.29-4.28-11.75-5.95.38,5.63-.87,10.62-3.05,15.43-3.38,7.47-8.38,10.8-16.52,9.98-2.96-.3-4.19.59-5.23,3.06-1.03,2.47-2.52,5.19-4.94,6.07-5.15,1.88-6.14,6.31-7.96,10.51-2.57,5.9-5.89,11.26-12.92,12.76-1.44.31-2.04,1.44-2.65,2.71-4.09,8.53-9.24,15.61-20.31,14.22-1.96-.25-1.68,1.19-1.43,2.3.56,2.59,1.26,5.15,2.05,8.33,2.95-3.16,6.41-3.51,10.03-2.83,3.58.67,5.66,3.39,7.47,6.19,3.86,6,8.01,11.87,10.16,18.77.51,1.65,1.53,2.04,2.82,2.29,4.2.82,6.63,3.69,8.23,7.31,3.35,7.57,7.25,15,8.04,23.42.21,2.2,1.57,2.22,3.02,2.43,2.19.31,4.27.93,5.82,2.56,8.08,8.49,14.42,18.12,18.87,28.98-.86,2.85-.28,4.6,3.17,4.19,4.07,1.56,6.91,4.68,9.25,8.09,4.76,6.92,11.29,12.85,12.78,21.7.32,1.91,1.8,1.7,3.08,1.73,2.86.07,5.15,1.4,7.02,3.37,6.8,7.14,12.57,15.04,16.51,24.13.77,1.79,1.23,3.33,3.48,3.47,4.46.27,7.33,3.14,9.47,6.57,4.99,8.01,10.63,15.76,12.33,25.37.26,1.49,1.17,2.29,2.06,3.27,1.69,1.83,3.75,3.5,4.9,5.64,4.94,9.25,13.34,15.1,20.82,21.88,1.3,1.18,2.56,2.25,4.4,1.46,1.71-.73.85-2.32.93-3.52.34-5.51,1-10.99,3.34-16.02,1.26-2.7.3-3.28-2.09-4.01-11.32-3.46-13.01-5.71-13.43-17.64-.22-6.09-2.08-10.78-7.44-14.67-9.64-7.01-16.48-16.34-18.89-28.43-1.04-5.22-.82-10.35,1.21-15.18,1.45-3.44.86-5.02-2.87-5.39-.93-.09-1.82-.56-3.52-1.1.77,1.06,1.1,1.5,1.41,1.96,1.75,2.61,4.15,5.18,1.11,8.39-2.95,3.12-8.06,3.52-11.37.82-1.26-1.03-2.64-2.29-3.22-3.74-2.45-6.13-7.51-9.44-12.72-12.85-12.95-8.49-25.6-17.37-36.95-28.03-28.72-26.99-35.71-59.56-25.33-96.73,1.16-4.14,2.32-8.28,3.48-12.43Z"/>
  <path class="cls-10" d="M741.49,248.84c.1-10.14-4.3-18.61-9.95-26.61-.92-1.3-2.29-2.27-1.12-4.3,6.93-12.02,4.22-24.1-.35-35.96-1.02-2.65-1.47-4.79-.68-7.48,1.59-5.46,2.01-11.11,2.35-16.77.54-9.16-2.74-16.65-9.9-22.29-1.87-1.47-2.44-2.66-1.76-4.94.81-2.69,1.13-5.53,1.67-8.3,2.65-13.73-5.2-24.79-19.15-26.67-4.62-.62-10.49-1.64-13.39,1.52-2,2.18,2.13,7.04,3.76,10.57,3.62,7.84,7.4,15.62,11.43,23.27,1.37,2.6,1.3,5.1,1.07,7.71-.74,8.62-1.89,17.21-1.92,25.88-.01,4.24.49,8.26,3.91,11.4,1.69,1.55,1.86,3.51,1.48,5.91-.97,6.07-1.48,12.21-2.11,18.34-.85,8.39,3.64,14.33,9.55,19.23,2.92,2.42,2.81,4.24,1.37,7.41-3.85,8.51-7.04,17.29-6.68,26.87.21,5.67,1.87,10.8,6.16,14.79,2,1.86,3.77,2.77,6.26.15,3.61-3.79,8.03-6.53,13.54-6.63,1.96-.03,2.53-1.32,3.03-2.75,1.15-3.35,1.56-6.81,1.43-10.35Z"/>
  <path class="cls-42" d="M495.43,160.29c-2.54-.4-4.05.46-4.49,3.19-1.08,6.69-2.94,13.33-3.33,20.06-1.48,25.72.13,50.89,11.2,74.98,5.74,12.5,11.33,25.07,18.11,37,10.61,18.69,22.41,36.62,36.17,53.24,7.41,8.96,16.54,15.07,27.06,19.48,1.21.51,2.33,1.22,3.5,1.84,2.56-.38,1.42-1.53.54-2.6-4.46-5.35-7-11.55-7.88-18.4-.21-1.68-.83-2.62-2.15-3.55-8.49-5.97-13.73-14.1-16.01-24.23-.45-2.02-.3-5.35-4.31-3.5-.49.23-1.63-.94-2.47-1.46-3.21-4.14-7.54-7.41-9.2-12.76-.63-2.05-1.48-3.96-1.52-6.16-.08-4.67-1.63-8.36-6.79-9.4-8.19-6.23-10.95-15.15-12.02-24.77-.56-5.02-1.66-9.31-5.23-13.48-6.27-7.31-9.98-16.01-8.26-26.11.48-2.84-1.16-5.15-1.85-7.65-1.27-4.6-1.39-9.56-4.01-13.77-1.74-8.49,2.84-16.49,11.14-18.9,2.08-.61,2.51-1.07,2.14-3.3-1.04-6.29-2.59-11.46-9.87-13.73-3.6-1.12-6.97-4.01-10.48-6.03Z"/>
  <path class="cls-49" d="M598.36,96.79c3.4,2.79,6.81,4.2,11.69,3.65,16.36-1.86,26.47,4.93,33.02,21.01.42,1.04.24,4.87,2.86,1.07.25-.36,2.16.26,3.21.65,9.75,3.62,16.06,10.82,20.55,19.89,1.11,1.4,2.45.68,3.59.22,8.93-3.62,18.09-6.18,27.82-6.17,1.19,0,2.29-.32,2.9-1.51-.17-4.21-3.19-7.17-4.76-10.76-3.59-8.23-8.87-15.99-10.9-24.55-1.86-7.84-7.07-10.67-12.7-13.9-9.82-5.64-19.9-10.76-31.13-13.08-17.42-.09-32.06,6.1-43.59,19.31-1.08,1.24-2.33,2.4-2.55,4.18Z"/>
  <path class="cls-82" d="M521.25,197.54c-.95-2.8-1.96-5.57-2.82-8.4-.51-1.68-.27-3.86-2.79-4.01-2.11-.12-4.1-.15-5.85,1.74-4.06,4.37-7.32,8.93-6.16,15.33.21,5.42.46,10.81,4.4,15.19,1.22,1.36.43,3.17.13,4.66-2.24,10.81,1.7,19.78,8.06,28.09.3.39.59,1.11.99,1.05,4.72-.69,2.84,3.06,3.17,4.97,1.11,6.5,1.22,13.18,3.87,19.39,2.17,5.09,4.77,9.85,9.44,13.14,2.37.87,3.38-.57,4.02-2.46.69-2.04.79-4.19.86-6.32-.72,9.79.93,19.16,5.26,27.97,1.61,3.28,3.78,6.22,7.62,7.3,2.38,1.36,3.76,1.09,4.41-1.98.42-2.01.32-4.32,2.46-6.63.14,4.75.28,8.91,1.1,13.02,1.72,8.62,5.77,15.84,12.2,21.78,2.31,2.14,4.54,4.08,5.48-1.85.31,12.86,3.09,23.77,13.67,31.73,3.8-6.01,6.63-12.28,9.52-18.51.77-1.66.02-3.23-.68-4.77-2.65-5.86-6.76-10.55-12-15.31-.95,3.48-1.74,6.39-2.54,9.3-.22-11-1.77-21.57-8.72-30.63-.64-2.22-2.29-3.66-3.9-5.14-2.12-1.48-4.11-3.55-7.06-1.51-1.29-9.81-4.75-18.43-12.28-25.04-.25-.22-.47-.47-.72-.69-4.69-4.17-4.88-4.63-6.16-10.59-1.94-9.05-4.3-18.5-11.96-24.03-5.35-3.86-6.63-8.04-7.06-13.73-.25-3.28-1.15-6.69-3.03-9.43-3.41-4.97-3.17-10.16-2.05-15.65.55-2.68,1.47-5.56-.88-7.99Z"/>
  <path class="cls-38" d="M752.05,139.93c2.98-2.99,5.97-5.98,8.95-8.96,10.11-12.19,19.1-25.1,25.02-39.9,6.06-15.16,11.68-30.44,10.25-47.23-.17-1.98-.46-3.96-.87-5.9-2.7-12.6-9.3-15.37-19.73-8.32-3.26,4.25-4.28,9.05-4.35,14.39-.51,37.07-16.3,66.4-45.6,88.67-2.15,1.64-1.88,2.17-.17,3.88,5.11,5.12,7.97,11.35,7.91,19.08,3.87-.98,6.74-3.04,8.67-6.17,2.51-4.06,6.19-6.8,9.91-9.55Z"/>
  <path class="cls-3" d="M703.99,135.59c-12.03-.25-23.26,3.22-34.32,7.46,3.66,8.94,6.09,18.15,5.93,29.38,1.81-4.14,2.84-4.59,4.79-1.4,8.44,13.82,15.41,27.9,17.38,44.51.83,6.97,4.67,14,6.07,21.25,1.66,8.59,3.53,17.39-.2,25.96-2.89,6.63-9.63,9.13-16.55,6.89-5.32-1.72-8.92-5.37-12.25-9.49-1.74-2.15-2.95-2.83-3.55.75-.21,1.26-.87,2.55-1.65,3.59-2.66,3.56-3.54,7.38-2.15,11.66,3.99,1.86,5.6,5.32,6.3,9.66,3.47-1.58,5.01-5.19,7.93-7.12,6.04-4.01,12.16-1.96,18.06.43,3.19,1.29,6.43,2.71,9,5.13,2.16,2.04,3.42,1.08,4.43-1.12.07-.15.03-.35.12-.48,4-5.77,6.21-10.18-.24-17.19-7.49-8.14-3.84-19.21-.98-28.96,1.05-3.58,2.02-7.33,4.13-10.59,1.23-1.91.92-3.79-1.03-5.21-11.13-8.11-11.09-19.64-9.25-31.46.88-5.63,2.59-10.97-2.42-15.71-1.87-1.77-1.34-4.67-1.43-7.16-.38-10.31,1.24-20.5,1.86-30.74Z"/>
  <path class="cls-3" d="M667.33,276.31c-4.18-2.89-3.14-6.85-.97-9.83,4.97-6.84,5.07-13.69,2.08-21.21-1.08-2.72-1.16-5.82-1.94-8.68-.58-2.12,1.27-2.38,2.42-3.63-6.26-4.77-12.88-9.28-14.03-17.94.27-7.28-.12-14.55-.29-21.83-.09-4.12-3.29-5.39-6.82-5.91-5.77,1.15-.94,4.54-1.52,7.15-12.92-19.88-31.9-31.62-53.17-41.27,8.88,1.5,16.3,5.5,23.46,9.82,3.86,2.33,8.37,4.05,10.55,8.79.9,1.96,2.57.72,3.15-.98.54-1.59.39-3.29.45-4.96.47-5.31-1.22-10.78,2.4-15.82,1.69-2.35-1.24-3.33-3.06-3.85-3.96-1.13-8.1-1.66-11.78-3.71-.25-.07-.5-.15-.74-.22-12.42.05-24.84.23-37.26.07-4.1-.06-7.79,1.34-11.65,2.13-1.5.31-2.93,1.28-2.78,2.99.15,1.73,1.88,1.44,3.13,1.73,2.38.54,4.93.73,6.64,2.85,3.82.08,6.37,2.98,8.89,4.97,9.96,7.89,21.52,13.25,31.74,20.68,2.68,1.95,5.24,3.92,7.35,6.47-.04,1.1.62,1.86,1.35,2.52,8.24,7.44,14.91,16.23,21.6,25.01.79,1.04,1.42,2.26,2.85,2.59,5.8,8.47,9.39,17.66,10.14,28.04,1.02,14.28-2.31,28.01-4.64,41.87-.96,5.68,5.77,12.45,11.2,10.95,3.52-.97,6.27-10.78,4.02-14.24-.97-1.49-2.76-2.5-2.78-4.57Z"/>
  <path class="cls-78" d="M617.57,375.31c-3.16,5.44-6.19,10.97-9.55,16.29-1.62,2.56-.88,4.72.12,7.02,5.57,12.83,14.37,23.41,23.68,33.6,5.61,6.14,11.76,11.7,18.51,16.58,6.9,4.99,14.26,8.48,23.08,7.5,2.58-.61,5.24-.96,7.71-1.87,7.34-2.71,8.99-6.08,8.21-13.76-.88-8.71-3.42-16.77-7.85-24.85-2.33,3.31-4.21,6.5-6.59,9.26-6.51,7.52-11.74,7.85-19.68,1.59-12.34-9.75-20.73-22.71-28.88-35.83-3.13-5.05-5.85-10.35-8.75-15.54Z"/>
  <path class="cls-5" d="M572.27,307.34c1.36,1.34,2.72,2.67,4.08,4.01.78-1.14,1.44-.37,1.92.24.92,1.17,1.66,2.47,2.58,3.64,3.81,4.87,2.15,12.33,7.83,16.35,5.26,3.73,9.07,8.68,11.73,14.54.89,1.96,2.06,2.24,2.95.06,2.69-6.56,5.95-12.93,6.93-20.08-.87-2.87-3.37-4.4-5.29-6.39-2.87-2.97-6.01-5.7-8.03-9.41-7.65-5.48-11.71-13.35-14.53-22.01-.65-1.99-1.61-3.74-3.55-4.6-14.73-6.55-18.73-20.14-22.38-33.96-.42-1.57-.19-3.38-2.01-4.29-10.45-5.21-13.08-14.71-13.82-25.24-.04-1.02-.19-2.03-.54-2.99-.66-1.62-1.8-2.81-3.38-3.49-5.56-2.38-9.73-6.23-12.54-11.58-.32-.6-.87-.96-1.82-.86-.99,3.9-1.06,8.04-2.05,12.02-.4,1.62.7,2.82,1.42,4.11,3.13,5.56,5.15,11.49,5.63,17.87.16,2.11.74,3.86,2.48,5.17,9.94,7.46,14.16,18.04,15.99,29.81.45,2.91,1.2,5.05,3.79,6.98,6.65,4.97,11.64,11.41,13.59,19.66.89,3.76,1.99,6.84,6.22,7.87,1.19.29,2.47,1.07,2.8,2.59Z"/>
  <path class="cls-11" d="M649.39,214.26c-7.34-11.12-15.35-21.66-25.8-30.12-.71.03-1.43.07-2.15.1-2.65-.54-3.85,1.6-5.29,3.04-13.46,13.45-20.87,30.05-24.94,48.35.12,1.7-1.09,3.04-1.3,4.66.93,2.98,3.34,4.84,5.35,6.98,3.04,3.25,6.44,6.16,9.08,9.8.95,1.32,2.07,2.64,4,2.5-.02-.95.03-1.86,1.14-2.24,1.88.61,3.21-.52,4.5-1.52,12.39-9.66,22.9-21.19,32.83-33.27,1.38-1.68,3.02-3.73,1.62-6.33.32-.66.64-1.31.96-1.97Z"/>
  <path class="cls-43" d="M590.12,376.16c-8.46,15.07-16.94,30.13-25.36,45.22-1.45,2.61-2.77,5.31-3.92,8.06-.62,1.49-1.1,3.3.4,4.62,1.26,1.11,2.75.69,4.25.26,5.43-1.56,9.83-4.73,13.87-8.54,13.98-13.19,24.1-29.18,33.38-45.79,1.13-2.02,2.37-3.97,3.56-5.95,3.86-8.22,7.72-16.44,11.58-24.67.77-1.63,1.85-3.22-.83-4.33-7.33-3.02-11.78-8.86-15.2-16.64-5.74,17.17-13.14,32.74-21.74,47.74Z"/>
  <path class="cls-23" d="M721.87,133.06c7.08-3.62,12.58-9.18,17.89-14.84,19.98-21.31,30.05-46.6,30.11-75.88,0-2.81-1.23-3.15-3.27-2.74-5.43,1.1-9.46,3.94-11.13,9.48-2.3,7.63-4.37,15.32-7.66,22.61-5.53,12.28-13.31,22.97-23.01,32.26-1.93,1.85-2.57,3.24-1.55,5.92,2.5,6.61-.28,13.09-1.14,19.6-.15,1.12-.87,2.17-.23,3.58Z"/>
  <path class="cls-1" d="M613.23,263.05c4.46,6.3,10.56,10.67,17.46,13.68,7.98,3.49,15.34,7.84,22.18,13.7-.38-7.8,1.79-14.86,3.12-21.99,2.42-12.93,3.37-25.73-.72-38.46-.86-2.67-2.15-5.19-3.25-7.78-3.98,4.6-7.47,9.56-11.66,14.02-7.74,8.26-15.79,16.17-24.51,23.39-1.11.92-2.56,1.68-2.63,3.44Z"/>
  <path class="cls-59" d="M608.34,259.58c-5.95-6.48-11.9-12.95-17.85-19.43-.37-.75-.42-1.68-.92-2.31-13.81-17.61-13.17-37.64-9.55-58.08.42-2.35.08-4.58.24-6.85.94-3.69,1.86-7.38,2.84-11.06.4-1.49.59-2.64-.79-3.99-4.64-4.55-5.37-4.47-7.33,1.74-6.94,22.07-9.38,44.2-.85,66.47,6.63,17.32,18.63,30.5,32.6,42.13,9.48,7.89,19.67,14.81,30.04,21.43,4.61,2.94,8.44,6.26,10.81,11.32,1.61,3.44,4.08,6.14,8.58,5.29,4.94-.92,6.25-3.89,2.88-7.62-6.51-7.2-13.96-13.39-22.88-17.35-11.14-4.94-21.11-11.19-27.83-21.7Z"/>
  <path class="cls-14" d="M598.36,96.79c2.28-.95,3.27-3.21,4.81-4.88,10.17-11.01,23.02-16.15,37.66-17.53,1.28-.12,2.69.12,3.67-1.08-4.36-2.55-9.51-2.55-14.1-4.36-17.34-2.79-34.68-3.37-52,.13-8.62,1.39-16.3,6.01-24.96,7.26.14,2.36-2.72,1.57-3.48,3.41,4.25,3.27,9.63,3.6,14.38,4.1,6.71.71,13.05,2.38,19.18,4.7,3.86,1.46,6.3,5.7,10.65,6.81,1.43.36,2.8.96,4.19,1.45Z"/>
  <path class="cls-1" d="M615.6,179.52c-9.46-7.04-19.89-12.54-29.99-19.08-2.27,4.48-2.93,9.25-4.31,13.79-2.82,5.81-3.05,12.2-3.56,18.41-1.04,12.71-.23,25.25,5.84,36.88.76,1.46,1.36,3.07,2.95,3.91,1.95.05,1.9-1.61,2.16-2.78,4.03-17.98,12.09-33.77,25.32-46.78,1.16-1.14,2.44-2.41,1.6-4.36Z"/>
  <path class="cls-79" d="M629.33,351.18c-4.02,6.48-6.16,13.91-10.29,20.35-1.03,1.6.36,3.54,1.2,5.09,8.17,15.2,17.45,29.66,28.87,42.66.96,1.1,2.25,1.91,3.39,2.86,5.6-3.54,5.55-9.04,4.77-14.57-1.66-11.85-6.05-22.78-12.13-32.99-3.9-6.55-7.55-13.24-11.5-19.77-1.02-1.69-1.86-3.62-4.3-3.64Z"/>
  <path class="cls-45" d="M700.92,93.55c8.21,1.23,14.27,4.03,18.57,9.69,2.28,3,3.26.36,4.45-.77,13.89-13.31,23.23-29.34,28.17-47.9.58-2.19,2.91-4.94.42-6.87-2.73-2.12-6.21-1.97-9.52-.63-2.94,1.19-4.93,3.34-6.35,6.05-8.36,16.01-19.3,29.78-35.75,40.43Z"/>
  <path class="cls-23" d="M673.43,82.62c5.49,3.8,10.43,7.76,15.88,10.78,3.41,1.89,7.54.87,10.82-1.26,12.44-8.1,22.52-18.53,30.24-31.25,1.59-2.62.84-3.86-1.66-4.86-5.49-2.2-10.34-1.2-14.75,2.66-6.25,5.48-12.71,10.68-19.89,14.95-6.42,3.81-13.21,6.76-20.64,8.98Z"/>
  <path class="cls-54" d="M629.33,351.18c5.99,7.76,10.65,16.35,15.28,24.93,5.1,9.47,9.18,19.31,11.13,30.05,1.09,6.03.23,11.14-3.25,15.98.97,1.02,1.93,2.05,2.9,3.07,9.86,6.26,21.39,1.23,24.14-10.4.53-2.25-1.09-2.97-2.07-4.12-5.51-6.44-13.02-10.88-17.99-17.87-2.3-3.23-4.96-6.31-5-10.62-.06-2.16-.05-4.28-2.46-5.47-9.32-4.6-13.08-13.08-15.5-22.45-.25-.96-.22-2.03-.65-2.89-.76-1.52.29-4.25-3.02-4.17-2.87.06-2.95,2.1-3.5,3.95Z"/>
  <path class="cls-10" d="M607.21,313.1c.57-3.07,1.63-6.12,5.01-6.67,4.66-.77,3.72-3.6,2.35-6.01-5.37-9.47-10.99-18.81-20.35-25.07-3.01-2.19-6.36-1.69-9.55-.85-3.75.99-5.68,4.35-4.38,8.77,3.24,11.05,7.26,21.81,17.94,28.13,2.67,1.58,5.39,4.34,8.98,1.7Z"/>
  <path class="cls-26" d="M617.81,307.34c-6.67,0-9.52,2.1-8.43,7.2,2.64,12.36,6.61,24.05,19.64,29.78,3.64,1.6,5.9,1.97,6.33-2.93.23-2.62,2.12-4.24,4.55-4.62,2.72-.42,3.42-1.73,2.23-3.91-4.63-8.44-9.65-16.64-16.82-23.22-2.15-1.98-5-2.5-7.5-2.31Z"/>
  <path class="cls-34" d="M668.17,369.25c-4.09-11.1-8.52-21.03-16.47-28.84-3.01-2.96-7.43-2.63-11.43-2.02-2.78.42-3.97,2.8-3.7,5.18,1.38,12.41,3.68,24.44,15.71,31.63,1.62.97,2.67,1.64,3.86-.57,2.33-4.35,6.01-6.48,12.04-5.38Z"/>
  <path class="cls-16" d="M615.6,179.52c-4.09,4.94-8.37,9.74-12.22,14.86-8.68,11.57-13.96,24.62-16.13,38.92-.97,2.84,1.4,3.9,3.05,4.89,1.63.97,1.34-1.31,2.07-1.97,4.58-20.18,12.72-38.37,29.07-51.97-1.54-2.08-3.73-3.35-5.84-4.72Z"/>
  <path class="cls-16" d="M613.23,263.05c13.96-10.45,25.76-23.11,37.12-36.23,1.18-1.36.97-3.14,1.68-4.62-.85-2.2-1.46-4.55-3.6-5.98-.71,1.67-1.08,3.63-2.19,4.97-10.99,13.32-22.24,26.41-36.76,36.15.05,2.69,2.14,4.04,3.76,5.71Z"/>
  <path class="cls-32" d="M607.21,313.1c-5.81-.19-10.57-3.08-14.42-6.89-6.41-6.33-9.68-14.57-11.45-23.27-1.05-5.13,1.13-7.39,6.43-7.64,2.15-.1,4.31.02,6.46.04.37-.28.74-.56,1.11-.85-2.47-.33-2.59-2.43-3.17-4.19-.29.37-.58.75-.87,1.12-5.22,1.27-11.08,1.42-13.08,8.06-.51,1.68-1.86.85-2.87.31-2.53-1.34-4.73-3.17-6.38-5.44-6.53-8.99-10.97-18.81-11.13-30.17,0-.67-.03-1.32-.4-1.9l-.77-1.01c-3.15,2.01-5.48.77-7.68-1.75-3.5-4.01-5.19-8.76-6.38-13.83-.49-2.09-.1-4.83-3.11-5.57.56,11.03,3.28,20.92,14.29,26.21,1.18.57,1.08,1.21,1.25,2.23,1.52,9.09,5.05,17.42,9.69,25.35,2.93,5.01,7.74,7.6,12.52,10.22,2.01,1.1,3.4,2.34,4.12,4.62,2.82,8.97,6.92,17.14,15.06,22.59,2.12,1.48,4.16,3.11,6.64,4.01,1.62.58,3.17,1,4.19-.96.81-.45.7-.88-.04-1.28Z"/>
  <path class="cls-77" d="M592.37,236.21c-2.27,2.26-2.32,2.23-5.12-2.91-6.24-7.71-7.98-16.95-8.73-26.43-.87-11,.62-21.85,2.77-32.63-.35-.44-.7-.89-1.05-1.33-4.84,19.6-6.48,39.03,3.01,57.87,1.8,3.57,4.03,6.85,7.22,9.37,1.08-1.1,2.57-2,1.89-3.94Z"/>
  <path class="cls-19" d="M551.44,315.19c-8.99-6.53-10.77-16.34-11.82-26.39-.36-3.45-.06-6.97-.06-11.37-2.47,2.86-2.14,5.69-2.89,8.11-.53,1.71-.65,3.43-3.11,2.27-.51.42-.56.89-.14,1.41,5.13.92,5.24,4.89,6.03,8.97,1.46,7.55,4.26,14.54,11.91,18.17.02-.39.04-.78.07-1.16Z"/>
  <path class="cls-53" d="M607.25,314.38c-4.35,1.61-7.02-2.77-10.84-3.05,3.37,6.1,8.98,10.1,13.88,14.76-1.01-3.91-2.03-7.81-3.04-11.71Z"/>
  <path class="cls-62" d="M734.23,215.88c-4.32,3.01-1.76,5.22,1.1,8.44-.45-3.44-.76-5.84-1.1-8.44Z"/>
  <path class="cls-10" d="M655.51,213.02c2.6,10.9,10.43,16.87,20.13,20.98-.29.46-.41.9-.59.92-7.24.89-7.3.9-5.57,7.96,1.92,7.85,4.83,15.2,10.94,20.91,4.07,3.8,8.87,5.09,14.26,4.47,4.55-.53,7.63-4.02,8.68-9.61,2-10.67-.91-20.8-3.42-30.97-.48-1.93-1.18-3.8-1.81-5.8-1.79-.31-2.02,2-3.59,2.21,3.54-20.13-5.77-36.12-16.1-52.97-1.14,3.99-2,7.01-2.86,10.02-2.14-22.88-3.02-45.95-28.86-57.47-.25,2.27-.41,3.72-.57,5.18-.16,1.45-.32,2.91-.56,5.03-1.9-1.58-1.8-3.24-2.11-4.67-1.51-6.92-4.04-13.36-8.73-18.8-7.03-8.16-20.8-11.32-30.67-7.09-5.51,2.36-7.55,6.19-5.94,12.02,2.75,9.93,8.3,18.05,16.47,24.37,1.01.78,2.48,1.07,2.92,2.52,0,0-.09-.04-.09-.04,7,4.19,14.47,5.82,22.52,4.41-8.31,1.78-10.37,7.15-10.12,14.23.46,13.39,5.96,21.75,18.47,26.61,3.92,1.52,7.39,4.35,10.35,4.09-4.5-.63-4.57-.62-4.25,5.28.29,5.4-.94,10.91,1.11,16.19Z"/>
  <path class="cls-39" d="M450.71,29.01c.98,10.6,5.92,19.65,13.23,27.17,25.43,26.16,54.44,46.79,90.14,56.64,2.99.83,5.4,2.48,8.05,3.81,5.81,2.9,11.99,5.16,17.99,1.21,6.69-4.4,8.51-11.72,8.97-19.15.27-4.29-2.95-6.82-6.64-8.51-6.59-3.01-13.7-3.85-20.74-5.1-20-3.55-36.37-14.23-51.45-27.08-12.94-11.03-22.86-24.56-30.75-39.59-1.62-3.09-3.15-6.23-4.72-9.36-4.74-9.43-7.31-9.86-14.65-2.2-5.87,6.12-8.96,13.5-9.44,22.17Z"/>
  <path class="cls-10" d="M553.17,133.57c-6.62.29-12.05-2.58-17.62-5.84-4.8-2.81-10.41-4.25-15.68-6.27-30.75-11.8-55.24-32.33-77.36-56.01-6.04-6.47-10.46-14.11-12.55-22.97-1.18-5.02-.84-9.86.4-14.7-1.47-1.1-2.27.13-3.1.68-12.55,8.2-16.95,22.27-11.3,36.22,2.59,6.38,6.24,12.15,10.89,17.22,23.67,25.81,50.21,47.65,83.48,60.12,4.97,1.86,9.69,4.07,14.29,6.83,13.83,8.3,26.76,1.3,28.55-15.28Z"/>
  <path class="cls-10" d="M465.4,144.31c8.37,4.29,16.73,8.58,25.09,12.87,1.93.03,3.39,1.17,4.93,2.11,3.45.76,6.49,2.27,9.33,4.44,4.45,3.41,9.49,5.51,15.23,5.4,6.61-.12,14.66-7.01,15.86-13.3.29-1.54-.53-1.48-1.48-1.84-35.8-13.57-69.8-30.06-96.7-58.45-6.64-7.01-13.85-13.48-18.92-21.81-6.48-10.67-10.1-21.74-3.79-34.02-7.72,1.63-14.2,8.14-18.7,18.53-3.14,12.96,2.18,23.77,9.89,33.15,16.11,19.62,34.5,36.9,56.01,50.63,1.11.71,2.17,1.51,3.25,2.27Z"/>
  <path class="cls-10" d="M449.24,28.59c-.03-4.96,1.24-9.57,3.46-13.93.79-1.55,1.49-2.95.08-4.55-1.52-1.72-3.27-1.31-5.03-.7-10.03,3.52-18.77,19.55-16.69,30.32,1.99,10.32,7.15,18.93,14.26,26.39,20.34,21.33,42.65,40.02,70.07,51.79,9.27,3.98,18.88,7.04,27.84,11.94,9.22,5.04,17.96,1.57,21.62-7.09.63-1.49,1.17-2.52-.95-3.49-4.65-2.13-9.07-4.61-14.08-6.09-35.1-10.41-63.6-31.18-88.39-57.45-7.09-7.51-11.64-16.53-12.2-27.15Z"/>
  <path class="cls-18" d="M557.44,242.28c-.34,1.26-.89,2.5-.98,3.78-.83,12.58,10.85,31.66,22.57,37,1.03-7.53,1.75-8.28,9.9-9.36,1.57-.21,2.53-.5,2.36-2.27-4.41-9.69-10.11-18.6-16.95-26.71-4.55-5.4-10.66-6.06-16.91-2.44Z"/>
  <path class="cls-82" d="M539.49,220.12c2.3,2.47,1.84,5.83,2.69,8.75,1.52,5.25,4.01,9.61,8.02,13.46,3.22,3.08,4.86,2.76,6.46-1.05.46-.46.86-1.26,1.38-1.34,6.26-.97,5.29-5.05,3.81-9.08-2.05-5.59-4.33-11.09-6.59-16.6-.82-2-1.99-3.85-3.66-5.27-4.91-4.16-9.9-2.68-12.01,3.54-2.06,1.6.12,3.21-.03,4.82-.03.93-.05,1.85-.08,2.78Z"/>
  <path class="cls-18" d="M538.59,211.28c0-2.11.53-4.26,2.52-5.02,3.43-1.33,2.93-3.4,1.58-5.74-3.07-5.31-6.19-10.59-9.41-15.82-.77-1.25-1.86-2.4-3.04-3.26-2.73-1.99-5.91-2.57-8.89-.93-2.93,1.62-2.07,4.63-1.53,7.19.62,2.91,1.57,5.74,2.38,8.61,1.15,8.22,6.09,13.58,13.22,17.13,1.79.89,3.72.92,3.17-2.16Z"/>
  <path class="cls-32" d="M538.59,211.28c-.66,3.25-2.34,1.64-3.93.87-6.77-3.24-9.91-9.31-12.46-15.85-.32.41-.63.82-.95,1.23-1.34,10.31-1.73,20.28,3.73,30.01,2.65,4.72,2.05,10.89,2.46,16.81,2.8-3.25,2.85-3.3,5.7-.25,7.7,8.24,11.31,18.23,12.37,29.28.19,1.96.32,3.92.59,7.22,1.78-3.9,3.21-3.15,5.09-1.39,7.74,7.25,12.2,16.03,13.12,26.61.09.98.26,1.95.42,2.92.01.09.24.14.71.38,1.57-1.04.44-3.03,1.26-4.43,2.32-.21,3.63,1.91,5.56,2.61.68-3.05-2.03-3.37-3.65-3.81-2.51-.69-3.63-2.21-4.07-4.44-1.9-9.54-7.01-17.04-14.72-22.77-2.05-1.52-3.06-3.38-3.39-5.75-1.7-12.37-6.12-23.33-16.34-31.21-2.5-1.93-1.81-4.9-2.38-7.33-.67-2.91-1.37-5.8-2.38-8.58-3.62-9.9-3.67-9.88-2.63-21.59,3.02,6.38,7.51,10.68,13.83,13.06,1.15.43,2.02,1.6,3.02,2.43,2.01-1.6-.39-3.21.03-4.82-.34-.41-.67-.83-1.01-1.24Z"/>
  <path class="cls-24" d="M655.51,213.02c-.08-5.48.36-11.04-.41-16.43-.57-3.96.26-5.13,4.02-4.52.65.1,1.32.01,2.15-.53-3.93-1.49-7.92-2.84-11.79-4.49-11.52-4.94-18.37-13.19-18.83-26.24-.23-6.38,1.51-11.06,8.01-13.15,1.21-.39,2.55-.78,3.61-2.63-8.97,2.65-16.93.05-24.86-2.83,1.2,3.35,4.52,3.21,7.1,4.1,2.61.89,5.4,1.27,8.76,2.01-5.98,5.36-3.7,11.83-3.81,17.89.15,11.58,7.23,17.75,17.02,21.81,5.07.71,7.28,3.34,7.03,8.72-.28,6.1-.46,12.3,1.35,18.29.21-.67.42-1.33.63-2Z"/>
  <path class="cls-28" d="M533.43,289.21c.05-.47.09-.94.14-1.41-9.06-7.81-10.92-18.58-11.94-29.6-.33-3.58-.05-7.22-.05-11.16-2.11.93-1.75,2.75-3,4.39-4.71-4.93-7.74-10.49-9.34-17.01-1.6-6.51-.69-12.77,1.63-19.79-3,3.16-3.9,1.88-4.47-.84-.82-3.88-1.83-7.72-2.76-11.57-.38.02-.75.03-1.13.05.44,6.28,2.27,12.23,4.15,18.2,1.23,3.92-.07,8.08.41,12.21.88,7.5,4.56,13.66,9.17,18.81,2.92,3.27,3.61,6.44,4,10.09,1.06,10.1,3.57,19.51,11.5,26.61.48.43,1.13.68,1.7,1.01Z"/>
  <path class="cls-42" d="M437.63,286.28c-.54,6.02-2.99,11.72-3.06,17.83,1.59,3.44,5.11,3.39,8,4.19,6.04,1.67,10.23,5.59,13.17,10.74,5.59,9.78,1.07,21.09-9.68,24.57-4.43,1.43-9.01,2.32-13.71,2.35-1.95.01-4.05-.34-5.63,1.33-1.13,7.98-2.29,15.95-3.38,23.94-.22,1.64-.23,3.31-.33,4.96,3.12,3.33,7,2.33,10.76,1.85,8.08-1.03,15.81-.87,23.07,3.83,13.26,8.58,14.75,25.1,2.88,35.58-8.89,7.86-19.28,12.28-31.08,13.55-3.43.37-7,.31-10.16,2.1-1.07,8.7-3.05,17.07-7.73,24.7-1.75,2.86-4.33,4.93-6.07,7.71-.53,2.71,1.41,4.29,2.88,6,3.76,4.4,8.52,7.54,13.91,9.4,13.98,4.82,16.13,13.51,14.25,26.32-1.51,10.27-7.02,18.61-15.03,25.12-9.55,7.77-22.24,5.79-30.9-4.46-9.24-10.95-17.66-22.46-24.73-34.93-.97-1.71-1.87-3.57-3.79-4.51-11.1,4.54-22.49,6.24-34.43,4.06-3.38-.62-6.95-.23-10.43-.31-2.63.38-2.62,2.69-3.1,4.48-3.07,11.44.83,21.63,5.97,31.51,3,5.77,6.86,10.99,11.01,15.99,11.3,13.58,9.26,31.28.81,44.07-5.51,8.34-12.64,14.34-22,17.91-6.71,2.56-13,1.7-19.28-1.21-1.75-.81-3.25-2.45-5.49-1.81-1.15,2.04-.25,3.97.64,5.68,5.32,10.25,9.13,21.11,13.22,31.86.53,1.38.73,2.96,2.52,3.38,6.83-1.87,13.63-3.88,20.5-5.58,18.38-4.56,35.52-12.26,52.09-21.12,22.46-12.01,43.88-25.68,63.2-42.45,1.33-1.15,2.57-3.27,5.01-2.65l-.03.03c.02-.48-.17-1.17.08-1.42,6.93-6.9,13.91-13.75,20.87-20.62,7.68-9.58,15.01-19.36,20.72-30.31,7.47-14.33,8.52-29.66,8.55-45.44.04-19.98-1.44-39.88-2.65-59.77-1.41-23.23-3.21-46.44-2.45-69.71.58-17.91,1.65-35.88,10.93-52.03,2.22-3.87,4.63-7.64,7.04-11.4.98-1.53,1.4-3.14.63-4.72-2.37-4.89-4.9-9.71-7.37-14.56-1.95.06-2.83,1.62-3.85,2.86-8.44,10.22-20.05,11.54-32.09,11.2-5.62-.16-11.24-1.03-16.73-2.51-1.26-.34-2.63-.64-3.74.51-1.96,3.75-1.39,8.32-3.8,11.93Z"/>
  <path class="cls-39" d="M484.5,692.26c4.34-6.99,7.36-14.64,11.13-21.92,1.17-2.25,3.06-3.9,5.06-5.45,8.94-6.9,16.11-15.34,21.9-25.01,2.37-3.96,3.54-8.17,3.72-12.78-.48.05-.92-.03-1.07.14-10.33,11.69-23.17,12.77-37.44,9.49-21.28-4.9-41.55-12.87-62.16-19.82-8.98-3.02-17.85-6.37-26.7-9.74-1.91-.73-3.39-.76-5.11.31-18.56,11.5-38,21.24-58.55,28.67-.24.09-.41.38-1.14,1.08,10.88,5.48,21.49,10.94,32.21,16.17,23.59,11.52,47.13,23.16,71.41,33.2,6.27,2.6,12.83,4.6,19.39,6.39,9.14,2.5,18.4,4.13,27.4-.78,0,0-.04.04-.04.04Z"/>
  <path class="cls-39" d="M481.68,695.72c-12.76,3.4-23.9-.39-34.87-4.09-24.16-8.15-46.58-20.32-69.6-31.08-14.61-6.83-29.06-13.99-43.19-21.78-1.71-.94-3.19-1.21-5.12-.59-8.07,2.6-16.3,4.67-24.62,6.31-2.6.51-3.47,1.34-2.29,4.25,2.43,6,4.82,12.1,6.32,18.38,1.57,6.55,4.87,10.96,10.66,14.54,24.89,15.38,48.58,32.73,74.81,45.92,10.69,5.38,22.17,7.93,34.14,8.15,4.7.09,8.27-1.12,11.04-5.81,4.9-8.3,13.22-12.36,22.32-14.79,2.57-.69,5.23-1.08,7.74-1.92,4.34-1.44,7.34-4.09,8.51-8.89.68-2.8,2.52-5.32,4.16-8.6Z"/>
  <path class="cls-49" d="M307.27,670.14c-15.32.64-30.17,4.21-45.09,7.32-13.34,2.78-26.7,4.95-40.42,4.97-7.56.01-15.34.58-21.83,5.47-4.95,3.74-7.07,8.62-5.71,14.8,3.51,16,21.67,32.05,39.34,35.63,9.23,1.87,17.74-.34,26.44-2.47,10.32-2.53,20.68-2.73,30.99.17,10.84,3.05,21.94,3.34,33.09,3.18-2.11-18.89-7.06-37.16-12.35-55.34-1.34-4.61-2.28-9.37-4.45-13.73Z"/>
  <path class="cls-39" d="M441.52,572.24c-7.55,8.27-16.85,14.4-25.78,20.96-5.48,4.03-11.26,7.66-17.57,11.92,5.08,1.88,9.65,3.65,14.28,5.27,24.44,8.55,48.56,18.11,73.81,24.16,4.51,1.08,9.15,1.96,13.77,2.24,12.05.73,20.49-5.66,27.16-14.86,5.82-8.03,8.85-17.45,12.62-26.5,1.55-3.73,2.21-8.22,7.37-9.17,1.65-.3,1.15-1.87.91-2.91-.5-2.25-.59-4.65-1.9-6.37-9.51,3.18-19.7,3.53-28.67,8.1-3.27,1.67-6.7,1.77-10.21,1.06-20.19-4.04-40.35-8.23-60.2-13.8-1.9-.53-3.74-1.24-5.64-.09,0,0,.03-.03.03-.03Z"/>
  <path class="cls-49" d="M314.39,804.18c-10.88-4.98-21.64-10.23-32.66-14.87-14.4-6.07-29.07-11.4-44.49-14.43-15.2-2.99-27.41,5.85-28.69,21.17-.86,10.35.86,20.12,6.49,29.15,5.69,9.13,14.08,12.75,24.2,9.48,19.66-6.35,34.02,2.7,40.32,19.39,7.78-4.59,12.67-11.94,17.9-18.92,6.79-9.06,11.83-19.16,16.87-29.25.02-.57.04-1.15.06-1.72Z"/>
  <path class="cls-39" d="M471.43,548.05c-3.32-.46-6.36-.2-8.22,3.14-5.22,6.7-11.59,12.31-17.93,18.64,8.64,3.29,17.39,4.97,25.99,6.99,12.13,2.85,24.43,4.98,36.59,7.69,3.33.74,6.19.29,9.17-.97,6.91-2.93,14.02-5.31,21.52-6.06,5.64-.57,8.56-3.81,9.89-9,1.62-6.36.91-12.93,1.77-19.36.55-4.1.55-8.24,1.61-12.33.96-3.69-1.48-6.56-4-9.54-6.86,9.09-16.84,11.58-27.14,13.38-16.37,2.85-32.63,6.38-49.27,7.45Z"/>
  <path class="cls-39" d="M418.65,737.92c-27.93-4.95-48.83-22.45-71.52-36.27-11.49-7-22.65-14.54-34.75-22.35,1.6,5.97,2.97,11.25,4.44,16.5,4.21,15.07,7.49,30.33,9.46,45.85.35,2.73,1.7,3.94,3.71,5.29,7.37,4.92,15.29,4.65,23.53,3.13,11.03-2.03,22.25-2.17,33.3-.97,9.04.98,16.74-1.09,24.02-6.01,2.58-1.75,5.2-3.44,7.8-5.16Z"/>
  <path class="cls-10" d="M551.59,512.26c.44-8.88-1.16-17.53-2.94-26.16-.76-2.47-2.38-4.29-4.3-1.52-6.61,9.54-16.53,11.45-26.95,12.66-7.58.87-15.12,2.13-22.71,2.95-2.23.24-2.98,1.02-3.55,3.14-3.89,14.49-11.28,27.18-20.29,39.04-.95,1.25-3.88,2.57-.73,4.62,16.64-2.18,33.22-4.73,49.7-7.86,5.41-1.03,10.84-2.06,15.84-4.32,9.61-4.36,14.66-12.16,15.91-22.53Z"/>
  <path class="cls-18" d="M371.41,750.5c-7.05-.57-13.59.22-20.09,1.58-8.54,1.79-16.49.48-24.15-5.16.21,8.89.91,17.1-.14,25.3-.36,2.79,1.82,1.67,3.02,1.46,6.27-1.14,12.21-3.31,17.71-6.47,6.92-3.97,13.67-8.22,20.46-12.41,1.41-.87,2.62-2.01,3.19-4.29Z"/>
  <path class="cls-25" d="M300.72,644.03c-5.36-13.51-10.72-27.02-16.08-40.53-.51-4.61-3.15-8.42-5.16-12.35-5.97-11.66-11.04-23.95-20.85-33.23-11.86-10.26-25.81-15.95-41-19.18-15.11-3.21-30.33-4.13-45.52-1.67-7.36,1.19-15.24,1.81-21.37,7.13-4.34,2.81-9.31,4.61-13.22,8.11.04.39.08.78.12,1.17,8.87-4.57,17.41-9.69,27.44-11.82,11.58-2.45,23.08-3.65,34.9-2.49,15.95,1.56,31.11,5.61,45.28,13.15,1.86.99,3.95,1.74,5.06,3.78,16.74,13.15,23.32,32.69,31.95,50.93,1.2,2.54,2,5.31,4.19,7.28,4.28,10.36,8.55,20.72,12.83,31.08.47-.46.95-.91,1.42-1.37Z"/>
  <path class="cls-49" d="M441.43,274.35c10.15,2.41,20.28,4.38,30.88,3.05,10.85-1.35,19.61-5.7,25.53-15.11-2.58-9.44-6.95-18.32-8.96-27.95-.71-3.39-1.6-6.74-2.41-10.11-.93-1.38-2.05-2.59-3.55-3.35-6.04-3.05-11.72-6.66-16.93-11-.64-.53-1.41-.84-2.29-.63-9.3,21.06-16.72,42.76-22.27,65.1Z"/>
  <path class="cls-10" d="M507.3,281.41c-10.74,13.38-16.37,28.38-17.71,45.02-.52,6.47-.73,12.96-1.26,19.42-.2,2.48.68,3.41,3.07,3.96,7.22,1.67,14.1,5.19,21.9,3.58,2.36-.49,4.48-1.21,6.2-2.92,5.42-5.41,10.84-10.82,16.24-16.25,1.14-1.15,2.46-2.07,1-4.14-10.97-15.47-20.65-31.74-29.42-48.68Z"/>
  <path class="cls-10" d="M490.69,414.11c.78,13.94,1.66,27.89,2.27,41.84.13,2.98,1.19,3.63,3.86,3.22,7.71-1.19,15.45-2.18,23.16-3.42,4.9-.79,8.32-3.4,10.41-8.18,5.38-12.34,6.16-25.42,6.63-38.54.13-3.78-2.52-5.19-5.88-3.62-5.09,2.38-10.47,3.13-16.01,2.79-6.47-.39-12.98-.54-19.39-1.44-4.36-.61-6.29.16-5.27,4.86.17.79.02,1.66.02,2.49h.2Z"/>
  <path class="cls-10" d="M537.1,432.81c-1.92,5.7-3.47,10.24-4.97,14.8-1.94,5.85-6.21,8.86-12.08,9.77-7.4,1.15-14.8,2.28-22.23,3.19-3.31.4-4.8,1.3-4.6,5.19.52,9.97.61,19.97-.67,29.93-.27,2.11-.27,3.29,2.79,2.8,10.67-1.73,21.44-2.8,32.1-4.53,12.62-2.05,21.19-14.54,18.52-28.06-2.15-10.87-5.69-21.46-8.87-33.08Z"/>
  <path class="cls-3" d="M463.71,209.25c6.56,6.56,14.78,10.6,22.77,14.98-2.26-21.48-1.87-42.83,3.16-63.95-2.25.49-1.91,3.5-4.01,4.14-1.63,5.04-4.84,9.24-7.34,13.82-5.19,10.18-10.39,20.35-14.57,31Z"/>
  <path class="cls-49" d="M258.29,558.79c10,10.92,15.9,24.29,22.3,37.35,1.23,2.51,2.03,5.27,4.05,7.36,16.59,11.18,31.52,3.84,42.63-8,7.67-8.18,12.12-18.18,12.22-29.77.09-10.3-4.68-18.33-10.93-26.04-8.63-10.63-14.98-22.42-14.95-36.64,0-3.8.64-7.56,2.81-10.87-.41-1.02-1.21-1.5-2.26-1.7-19.82-3.81-39.43-8.89-59.65-10.45-10.22-.88-20.47-.92-30.72-.72-1.79.03-3.67-.27-5.25.97-2.3,3.39-1.29,7.02-.66,10.57,1.77,10.01,6.37,18.91,11.87,27.22,9.14,13.82,17.91,27.94,28.54,40.73Z"/>
  <path class="cls-49" d="M361.27,488.44c8.88,16.41,18.68,32.24,32.69,44.79,8.4,7.51,19.18,7.24,27.77-.02,9.97-8.43,15.78-19.14,15.79-32.52,0-10.86-3.89-16.54-14.16-20.35-3.94-1.46-7.68-3.25-10.97-5.81-3.16-2.46-5.82-5.44-7.72-9.03-12.83,10.74-28.05,16.97-43.41,22.94Z"/>
  <path class="cls-49" d="M418.48,433.08c14.4-.25,27.86-3.27,39.52-12.45,7.42-5.84,12.29-13.04,11.1-22.55-1.23-9.83-7.74-16.1-16.69-20.09-5.94-2.65-12.06-2.17-18.11-1.43-3.87.48-7.56.67-11.29-.39-.59,5.01-1.18,10.03-1.77,15.04-.92,13.95-1.84,27.91-2.76,41.86Z"/>
  <path class="cls-42" d="M258.29,558.79c-5.26-9.81-12.3-18.43-18.41-27.67-8.4-12.73-17.6-25.01-20.82-40.44-.73-3.51-.46-6.93-.51-10.4-9.16-.47-18.05.9-26.82,3.51-2.17.65-4.6.4-6.92.57-8.66,2.67-17.32,5.34-25.97,8.02-7.77,3.59-15.55,7.19-23.32,10.78-.72.45-1.44.91-2.16,1.36-.48,15.98,6.68,28.62,17.39,39.7,14.69-5.74,29.99-7.96,45.65-7.05,11.35.66,22.44,2.95,33.37,6.38,10.56,3.31,19.65,8.98,28.53,15.24Z"/>
  <path class="cls-49" d="M426.73,347.28c5.78-.03,11.54,0,17.2-1.64,9.81-2.84,15.44-9.04,15.53-17.49.1-9.13-6.69-18.33-15.53-20.89-3.17-.92-6.44-1.5-9.35-3.15-3.34,9.2-4.12,18.95-5.95,28.47-.93,4.84-2.08,9.7-1.89,14.7Z"/>
  <path class="cls-10" d="M169.41,797.07c-2.78-6.76-8.04-12.23-10.63-18.99-8.01-20.87-24.74-34.58-39.9-49.62-.83-.82-1.85-1.51-2.47-2.46-3-4.59-6.48-5.45-10.71-1.6-13.96,8.77-23.47,21.2-30.26,36.06-1.95,4.27-1.6,6.49,2.56,9.06,10.46,6.45,20.62,13.37,30.79,20.27,1.96,1.33,2.82,1.26,4.35-.59,3.93-4.74,8.45-8.94,13.29-12.76,7.59-6,12.52-6.02,20.13-.15,8.18,6.3,15.24,13.83,22.84,20.77Z"/>
  <path class="cls-76" d="M143.7,746.83c-.3-.71-1.7-.73-1.21-1.92-4.5-5.69-6.08-12.76-9.01-19.19-1.91-4.21-3.48-8.59-4.92-12.99-.78-2.38-1.66-2.26-3.44-1.06-3.98,2.67-8.07,5.16-12.11,7.73,6,7.97,13.78,14.22,20.64,21.36,2.97,3.09,6.2,5.94,9.55,9.11.21-1.23.36-2.13.51-3.03Z"/>
  <path class="cls-49" d="M286.47,614.32c-6.53-16.82-14.1-33.14-24.23-48.11-2.94-4.34-6.65-8.25-11.91-10.09-6.35,1.78-13.06,1.18-19.43,3.06-9.39,2.77-18.65,5.42-26.81,11.44-10.43,7.68-21.72,14.03-33.83,18.94-8.06,3.26-15.49,7.91-19.67,16.01-5.89,11.4-2.25,21.43,5.68,30.12,12.01,13.16,26.8,19.19,44.75,15.56,4.45-.9,8.69-2.82,11.97-5.88,11.87-11.09,26.72-16.46,41.36-22.36,10.38-4.18,21.25-6.37,32.12-8.68Z"/>
  <path class="cls-68" d="M687.56,293.94c-7.64,2.86-9.68,9.48-10.56,16.51-1.08,8.58.73,16.45,7.7,22.33,1.61,1.36,3.53,2.49,5.87,2.17,6.48-4.28,7.27-11.3,7.91-17.97.53-5.43-.78-10.96-3.15-15.98-1.57-3.31-3.61-6.44-7.77-7.05Z"/>
  <path class="cls-66" d="M720.62,388.36c7.77-9.16,8.34-19.88,10.81-29.98,1.41-5.79.69-11.58.93-17.38.09-2.25-1.01-2.21-3.11-2.36-8.37-.58-14.47,3.32-19.89,9.3,14.94,9.68,14.42,24.39,11.27,40.42Z"/>
  <path class="cls-71" d="M687.56,293.94c11.97,7.85,12.45,29.45,3.01,41,4.93,1.12,8.38-1.44,11.21-4.88,6.95-8.48,6.88-23.56.03-32.11-4.16-5.19-8.95-6.54-14.25-4.01Z"/>
  <path class="cls-40" d="M745.78,289.51c-2.99-.28-5.18,1.45-6.91,3.39-6.79,7.66-10.36,16.6-9.78,26.95.15,2.67.6,5.37,3.56,6.62,2.28-.17,3.4-1.9,4.55-3.51,6.03-8.4,9.36-17.81,10.35-28.07.19-2.02.1-4.01-1.76-5.39Z"/>
  <path class="cls-84" d="M745.78,289.51c1.45,11.59-2.84,21.63-8.64,31.17-1.25,2.05-2.35,4.38-4.5,5.8,3.58,1.76,6.17-.44,8.23-2.63,6.84-7.29,10.22-16.13,10.24-26.1,0-3.62-.58-7.42-5.33-8.23Z"/>
  <path class="cls-15" d="M689.25,146.29c-2.66-.77-4.85,1.16-7.06,2.38-2.5,1.38-2.36,6.8.06,7.07,4.47.5,5.86,3.68,7.85,6.62.53.79,1.22,1.72,2.37,1.45,1.12-.26,1.49-1.4,1.62-2.3.51-3.58,1.1-7.18,1.18-10.78.09-3.7-2.51-4.65-6.02-4.45Z"/>
  <path class="cls-81" d="M646.5,188.01c-2.9-2.1-5.83-4.16-8.71-6.3-5.19-3.86-6.85-9.64-8.31-15.52-.36,1.77.41,3.66-.37,5.01-10.05-10.07-22.17-16.26-36.06-19.22-1.13-.24-2.52-1.02-2.88.59-.35,1.57,1.38,1.47,2.39,1.87,12.56,4.91,23.99,11.88,34.41,20.29,6.25,5.05,12.44,10.43,16.25,17.88.93,1.82,2.26,3.63,4.68,3.89,1.25-3.19-2.65-5.4-1.4-8.5Z"/>
  <path class="cls-13" d="M625.9,204.51c.01-3.69-3.23-6.36-7.05-5.82-6.2.89-12.44,8.11-12.29,14.33.07,2.85,1.46,4.79,4.45,5.04,5.2.43,14.88-8.44,14.89-13.55Z"/>
</svg>