<?xml version="1.0" encoding="UTF-8"?>
<svg id="Capa_1" data-name="Capa 1" xmlns="http://www.w3.org/2000/svg" viewBox="0 0 756.49 1152.04">
  <defs>
    <style>
      .cls-1 {
        fill: #ea2532;
      }

      .cls-1, .cls-2, .cls-3, .cls-4, .cls-5, .cls-6, .cls-7, .cls-8, .cls-9, .cls-10, .cls-11, .cls-12, .cls-13, .cls-14, .cls-15, .cls-16, .cls-17, .cls-18, .cls-19, .cls-20, .cls-21, .cls-22, .cls-23, .cls-24, .cls-25, .cls-26, .cls-27, .cls-28, .cls-29, .cls-30, .cls-31, .cls-32, .cls-33, .cls-34, .cls-35, .cls-36, .cls-37, .cls-38, .cls-39, .cls-40, .cls-41, .cls-42, .cls-43, .cls-44, .cls-45, .cls-46, .cls-47, .cls-48, .cls-49, .cls-50, .cls-51, .cls-52, .cls-53, .cls-54, .cls-55, .cls-56, .cls-57, .cls-58, .cls-59, .cls-60, .cls-61, .cls-62, .cls-63, .cls-64, .cls-65 {
        stroke-width: 0px;
      }

      .cls-2 {
        fill: #e82434;
      }

      .cls-3 {
        fill: #9b9359;
      }

      .cls-4 {
        fill: #b6b6b6;
      }

      .cls-5 {
        fill: #761f2b;
      }

      .cls-6 {
        fill: #fefefe;
      }

      .cls-7 {
        fill: #e72632;
      }

      .cls-8 {
        fill: #c9202c;
      }

      .cls-9 {
        fill: #fdf1b7;
      }

      .cls-10 {
        fill: #f32037;
      }

      .cls-11 {
        fill: #fbf1ae;
      }

      .cls-12 {
        fill: #fcf2ac;
      }

      .cls-13 {
        fill: #e1f16e;
      }

      .cls-14 {
        fill: #0e0707;
      }

      .cls-15 {
        fill: #dff16f;
      }

      .cls-16 {
        fill: #9c925e;
      }

      .cls-17 {
        fill: #f77c08;
      }

      .cls-18 {
        fill: #fbf1ac;
      }

      .cls-19 {
        fill: #9b925a;
      }

      .cls-20 {
        fill: #e6a07e;
      }

      .cls-21 {
        fill: #9a935d;
      }

      .cls-22 {
        fill: #fb7c00;
      }

      .cls-23 {
        fill: #010102;
      }

      .cls-24 {
        fill: #fbf2ad;
      }

      .cls-25 {
        fill: #74202b;
      }

      .cls-26 {
        fill: #615b3b;
      }

      .cls-27 {
        fill: #9b925d;
      }

      .cls-28 {
        fill: #c9202d;
      }

      .cls-29 {
        fill: #2d2d2d;
      }

      .cls-30 {
        fill: #eedf8d;
      }

      .cls-31 {
        fill: #9c945d;
      }

      .cls-32 {
        fill: #9a925b;
      }

      .cls-33 {
        fill: #ca202d;
      }

      .cls-34 {
        fill: #fb7b00;
      }

      .cls-35 {
        fill: #9b945d;
      }

      .cls-36 {
        fill: #150a0a;
      }

      .cls-37 {
        fill: #9a935b;
      }

      .cls-38 {
        fill: #fbf2ac;
      }

      .cls-39 {
        fill: #fbf2ab;
      }

      .cls-40 {
        fill: #4d3b39;
      }

      .cls-41 {
        fill: #9b935c;
      }

      .cls-42 {
        fill: #9b925c;
      }

      .cls-43 {
        fill: #771f2b;
      }

      .cls-44 {
        fill: #eee08d;
      }

      .cls-45 {
        fill: #c5212c;
      }

      .cls-46 {
        fill: #fb7b01;
      }

      .cls-47 {
        fill: #ede08c;
      }

      .cls-48 {
        fill: #bbca61;
      }

      .cls-49 {
        fill: #fbf1ad;
      }

      .cls-50 {
        fill: #999260;
      }

      .cls-51 {
        fill: #9b935b;
      }

      .cls-52 {
        fill: #bcca62;
      }

      .cls-53 {
        fill: #fcf3b2;
      }

      .cls-54 {
        fill: #c8202d;
      }

      .cls-55 {
        fill: #eedf8c;
      }

      .cls-56 {
        fill: #9b935f;
      }

      .cls-57 {
        fill: #9b915d;
      }

      .cls-58 {
        fill: #75212a;
      }

      .cls-59 {
        fill: #c9202a;
      }

      .cls-60 {
        fill: #fdfdfd;
      }

      .cls-61 {
        fill: #fbf2ae;
      }

      .cls-62 {
        fill: #9b935e;
      }

      .cls-63 {
        fill: #76202a;
      }

      .cls-64 {
        fill: #0c0806;
      }

      .cls-65 {
        fill: #9a9360;
      }
    </style>
  </defs>
  <path class="cls-14" d="M196.7,1152.04h-4c-.52-.65-1.14-1.35-1.15-2.17-.11-12.33-3.55-24.87,2.23-36.84,1.35-2.79,1.48-5.78,1.38-8.78-.58-16.46.08-32.94,1.38-49.3.6-7.56.32-14.13-2.4-21.21-2.29-5.97-1.79-12.85-1.76-19.25.08-17.63-1.2-35.21-1.21-52.82,0-3.32-.14-6.66.69-9.92.43-1.71.16-3.33-.59-4.84-1.63-3.3-2.54-6.84-3.71-10.31-.55-20.71-.55-41.42-.44-62.12.51-6.26.19-12.54,1.79-18.81,1.25-4.89-.46-10.12-.01-15.36,1.75-20.49,6.64-40.38,10.63-60.44.73-3.66,2.29-7.08,4.58-9.91,5.67-7.02,9.78-15.1,15.52-22.06,2.6-3.14,2.83-6.58.82-10.23-3.46-6.28-6.58-12.73-9.28-19.37-1.43-3.52-2.83-4.04-6.15-1.66-12.16,8.73-25.24,15.53-40.36,17.57-11.07-.12-22.15-.19-33.15-1.71-3.65-.5-7.08-1.78-10.6-2.75-2.84-.79-4.69-.11-5.62,3.06-3.65,12.43-6.54,25.05-9.4,37.67-.83,3.67-.02,5.8,3.76,7.26,4.68,1.81,9.46,3.24,14.3,4.27,4.64.99,8.86,2.71,12.97,4.9,16.56,11.2,19.93,31.76,8.26,48.07-5.42,7.57-12.22,13.05-20.73,16.56-6.45,2.83-13.33,2.1-20.08,2.41-.98.05-1.97-.27-2.97-.31-8.78-.41-8.78.43-9.5,7.94-1,10.55-3.68,20.91-3.85,31.6-.09,5.55.37,6.25,6.06,6.39,7.63.18,15.27.13,22.86-.88,19.45,1.59,33.64,11.43,43.48,27.95,2.43,4.08,3.71,8.75,3.43,13.39-.77,12.76-4.25,24.5-13.95,33.74-9.03,8.6-19.04,15.57-30.69,20.1-2.19.85-4.39,1.56-6.76,1.61-10.85,3.64-22.03,4.49-33.37,4.06-3.27-.12-4.65,1.9-5.32,4.83-3.12,13.6-5.67,27.32-9.52,40.75-1.19,4.15-2.01,8.41-3.28,12.53-.95,3.09-.1,4.85,2.74,6.45,11.52,6.46,23.91,9.77,36.99,10.81,9.42,1.99,18.98,3.14,28.36,5.51,24.47,6.2,36.06,21.18,39.19,46.16.86,6.86.76,13.57-.16,20.35-.27,2-.27,4.04-2.41,5.12h-3c-1.94-2.26-.86-4.73-.47-7.14,2.48-15.6-.53-30.01-9.39-43.13-3.13-4.63-7.1-8.49-12.24-10.66-8.56-3.63-17.34-6.71-26.67-7.72-4.78-.52-9.36-2.36-14.25-2.02-12.59-1.76-24.72-5.03-36.2-10.63-4.82-2.35-5.48-2-6.78,3.24-5.11,20.64-10.88,41.12-14.88,62.05-1.04,5.44-1.58,11.25-5.1,16h-4c-.57-1-.35-2.03-.15-3.06,5.42-25.38,11.8-50.52,18.25-75.65,5.5-21.43,11.97-42.66,15.96-64.43,2.66-14.52,5.7-28.98,6.95-43.82,1.27-15.03,3.3-30.05,5.06-45.06,1.7-14.53,2.8-29.13,4.62-43.65.72-5.76,1.69-11.47,2.4-17.24,1.67-13.5,3.54-27,5.84-40.4,2.81-16.36,4.62-32.89,8.07-49.12,2.31-10.89,5.46-21.61,8.06-32.45,6.26-26.09,14.88-51.45,23.49-76.82,4.56-13.42,10.69-26.21,15.91-39.37,9.12-22.97,20.71-44.69,33.98-65.51,1.88-2.95,3.59-6.06,6.12-8.5,3.88-3.74,4.65-8.72,5.77-13.57.55-2.39-.31-4.27-2.66-5.28-16.39-7.09-30.05-18.37-44.31-28.75-16.96-12.34-34.65-23.67-50.92-36.95-20.26-16.54-36.81-36.08-48.31-59.73-3.87-7.94-7.92-15.77-10.19-24.38-1.97-7.48-3.01-15.13-2.03-22.76,1.38-10.68,8.33-17.97,16.71-23.84,7.91-5.54,16.02-10.84,25.42-13.69.79-.24,1.65-.57,2.2-1.16,5.96-6.42,14.18-10.54,18.69-18.44,6.1-10.69,14.66-18.87,25.47-24.75,2.94-1.6,6.05-4.02,9.13-3.75,6.12.54,10.53-2.51,15.64-4.76,11.25-4.95,20.75.39,29.46,7.01,5.63,4.27,9.56,10.2,13.31,16.11,9.92,15.61,19.61,31.35,30.28,46.47,12.97,18.39,30.56,31.37,49.8,42.39,7.81,4.47,15.59,8.96,23.67,12.94,4.38,2.16,8.44,2.51,12.87.52,4.25-1.91,8.63-3.54,13.03-5.08,19.45-6.81,39.55-10.16,60.05-11.85,9.83-.81,19.63-.91,29.44-.78,17.41.25,34.31,3.83,50.85,9.05,14.46,4.56,28.81,9.45,42.35,16.39,2.63,1.34,5.1.7,7.71-.2,17.35-6.01,32.66-15.6,47.49-26.22,10.33-7.4,21.36-13.62,34.25-15.6,3.01-.46,6.01-.7,8.91.22,3.71,1.17,6.45.08,8.73-2.93,1.72-2.27,4-3.99,6.13-5.87,6.67-5.91,14.4-8.16,23.15-6.57,2.46.45,4.5.33,6.43-1.51,5.28-5.04,11.9-7.58,18.93-8.2,5.16-.46,7.04-3.03,8.41-7.43,3.14-10.04,9.68-17.32,19.14-21.91,8.13-3.94,16.02-2.6,22.42,3.86,6.34,6.4,9.05,14.61,11.24,23.05,5.05,19.42.69,38.08-5.09,56.45-11.52,36.59-32.25,67.77-57.58,96.13-15.8,17.69-33,33.88-52.09,48.02-2.18,1.62-3.19,3.84-3.59,6.35-2.32,14.51-3.69,28.73,1.22,43.36,5.08,15.16,3.68,31.01-.83,46.27-1.62,5.51-.69,9.97,1.61,14.81,4.07,8.56,9.04,16.79,11.04,26.19,2.31,10.85,2.06,21.83.23,32.71-.56,3.35-.63,5.49,3.18,6.31,21.03,4.58,29.54,20.37,33.73,39.13,4.56,20.37-.43,39.58-9.51,57.9-1.41,2.84-3.17,5.66-5.67,7.55-3.33,2.52-4.14,5.29-2.61,9.04,5.12,12.51-.63,23.12-6.32,33.52-2.55,4.66-4.62,8.99-3.89,14.55.61,4.69-1.71,9.08-2.92,13.56-1.9,7.03-5.43,13.71-4.87,21.28,1.47,20.01-6,37.6-15.19,54.55-9.74,17.97-22.9,33.52-36.72,48.42-6.42,6.92-14.36,11.9-23.96,13.56-.82.14-1.72.57-2.46.35-7.17-2.15-12.55,2.01-18.58,4.69-24.48,10.9-47.1,6.85-67.68-9.72-15.24-12.27-28.48-26.55-40.87-41.65-9.74-11.86-19.16-23.92-26.48-37.47-1.86-3.45-3.16-1.64-4.53.38-7.6,11.2-16.04,21.66-25.96,30.93-10.26,9.59-21.42,17.98-33.15,25.65-1.4.91-2.96,1.52-4.48,2.21-3.51,1.6-7.2,2.4-10.31-.44-3.37-3.09-4.59-6.96-3.7-11.76,2.38-12.84,9.57-23.28,16.21-34.05,9.88-16.04,21.87-30.66,31.47-46.88,5.31-8.98,7.17-8.24-3.98-13.16-16.09-7.1-29.8-17.44-42.18-29.77-8.02-7.99-16.39-15.65-22.99-24.95-1.52-2.15-3.28-2.8-5.36-.72-2.96,2.96-6.4,5.32-9.61,7.97-2.17,1.79-2.87,3.72-1.64,6.56,2.54,5.84.81,12.19,1.75,18.29,1.26,8.09,2.78,16.08,5.33,23.84,3.99,12.16,5.89,24.58,5.13,37.4-.34,5.72-1.22,11.25-4.17,16.27-.68,1.16-1.34,2.26-.88,3.73,4.58,14.64,3.52,29.53,1.89,44.44-.17,1.52-.5,3.11.56,4.32,5.07,5.81,5.76,13.06,6.21,20.17.52,8.42,3.01,16.36,5.12,24.37,2.43,9.23,4.75,18.75,4.5,27.98-.21,7.61,1.32,13.46,5.03,19.68,2.46,4.12,1.94,9.39,2.86,14.13,3.1,15.95,3.48,32.06,2.53,48.24-.26,1.15-1.12,1.79-2.03,2.37h-3c-1.33-1.61-.81-3.45-.69-5.25,1.23-19.88-2.03-39.32-5.84-58.69-1.4-2.03-2.89-5.11-5.65-2.19-8.26,8.75-19.14,12.38-30.02,16.02-11.04,3.69-21.75,8.33-32.99,11.42-7.06,1.94-14.11,3.98-21.57,2.07-3.25-.83-4.76.92-5.87,3.84-2.88,7.54-1.53,15.07-.51,22.65.46,3.41,1.44,6.92-.84,10.13Z"/>
  <path class="cls-28" d="M164.68,733.1c14.19-2.68,27.01-8.51,38.76-16.84,6.33-4.48,6.21-4.31,9.44,3.01,2.74,6.21,5.76,12.32,9.03,18.27,2.11,3.84,2.01,6.91-.66,10.46-5.43,7.22-10.56,14.66-15.71,22.08-3.18,4.58-4.69,9.81-5.81,15.24-4.08,19.66-8.1,39.32-9.9,59.36-.15,1.63-.19,3.37.19,4.93.95,3.84.49,7.24-.84,11.09-1.29,3.75-.52,8.21-.65,12.36-3.55-1.36-1.52-4.79-2.41-6.71.09,11.91-.55,24.21.2,36.44.71,11.56,1.59,23.09,1.48,34.69,0,.63.47-.75,1.03-.62,1.88,3.95,2.39,8.52,5.47,11.94.28.31.44,1.05.26,1.4-4.25,8.59-1.77,17.67-1.38,26.4.57,12.96-.08,25.94.9,38.86.54,7.06-1.07,14.64,2.62,21.05,3.13,5.44,2.05,10.12,1.49,15.98-1.7,17.99-1.52,36.18-1.47,54.28.01,3.98-1.7,6.93-2.8,10.26-1.95,5.95-2.66,11.84-1.67,18.11.88,5.56.93,11.24.44,16.89h-27c4.25-21.66,1.9-41.87-13.67-58.82-2.93-3.19-6.84-5.54-11.12-7.17-11.78-4.5-23.9-7.46-36.42-8.87-1.28-.14-2.52-.73-3.77-1.12-1.06-1.25-1.13-2.7-.87-4.23,2.01-11.78,2.57-23.73,4.29-35.55,1.69-11.64,1.35-23.48,2.97-35.17.53-3.82,1.54-6.36,5.65-6.79,18.88-5.54,34.69-15.71,44.53-32.96,5.18-9.08,7.37-19.63,3.52-30.2-2.77-7.58-7.91-13.55-13.84-18.97-8.3-7.59-18.43-10.57-29.16-12.27-1.75-2.83-.9-5.99-.37-8.74,2.32-12.1,3.24-24.39,5.5-36.49.31-1.64.56-3.3,1.81-4.57,10.86-4.79,18.6-12.78,23.82-23.31,4.67-9.43,2.05-24.9-5.63-33.01-1.93-2.04-4.15-3.79-6.24-5.68-3.01-2.04-3.56-4.8-2.96-8.27,2.53-14.57,6.47-28.82,9.67-43.23.72-3.24,2.75-3.77,5.56-3.39,5.25.71,10.49.26,15.73-.15Z"/>
  <path class="cls-34" d="M100,1080.13c16.51,1.7,32.92,3.79,47.09,13.54,5.46,3.76,9,9.16,11.56,15.15,5.26,12.3,7.58,24.98,4.56,38.3-.36,1.59-.35,3.27-.51,4.91h-71.99c-2.49-3.66-1.76-7.8-1.13-11.63,3.09-18.72,5.79-37.5,8.85-56.22.24-1.44.16-3.05,1.56-4.06Z"/>
  <path class="cls-55" d="M294.75,1086.88c.51.62,1.37,1.19,1.48,1.88,3.33,20.96,6.96,41.91,4.46,63.28h-8c-1.59-1.78-1.48-3.98-1.49-6.13-.04-6.8-.12-13.6.01-20.4.14-7.2-2.31-14.04-2.65-21.17-.06-1.26-.48-2.64-2.11-3.43-1.79,1.98-.98,4.3-.81,6.5.83,11.05,3.5,21.95,2.55,33.14-.34,3.94-.11,7.99-2.5,11.48h-83.99c-.31-.39-.79-.79-.8-1.24-.37-8.75-1.94-17.48-.6-26.26.68-4.46,3.39-6.6,7.85-6.83,25.11-1.3,47.24-11.5,69-22.97,5.67-2.99,11.07-6.75,17.61-7.86Z"/>
  <path class="cls-43" d="M100,1080.13c-.73,11.26-3.26,22.27-4.61,33.44-1.55,12.82-5.43,25.36-4.67,38.46h-53.99c2.43-11.13,4.69-22.29,7.33-33.37,3.79-15.94,7.9-31.81,11.74-47.74.91-3.76,2.75-4.45,5.95-2.69,11.93,6.58,24.93,9.76,38.25,11.89Z"/>
  <path class="cls-35" d="M294.75,1086.88c-7.19,5.05-15.43,8.15-23.12,12.27-15.35,8.23-31.39,15.03-48.67,18.21-4.71.87-9.51,1.48-14.29,1.68-4.3.18-6.66,1.46-7.17,6.21-.96,8.97.92,17.86.21,26.78h-5c-.1-6.48-.78-12.91-1.73-19.32-.85-5.75.61-11.21,2.76-16.46.64-1.56,1.4-3.44,4-2.7,12.2,3.48,23.29-1.39,34.43-5.01,10.9-3.54,21.59-7.72,32.38-11.56,7.16-2.55,13.51-6.32,18.82-11.84,3.96-4.12,4.65-3.9,7.39,1.74Z"/>
  <path class="cls-9" d="M285.68,1152.04c.33-4.28.65-8.55.99-12.83.86-10.82-1.88-21.34-2.67-32.01-.23-3.05-2.59-8.12,2.31-8.77,4.54-.61,3.62,4.81,4.18,7.61,3.06,15.19,2.13,30.63,2.19,46h-7Z"/>
  <path class="cls-30" d="M239.74,571.35c2.77-.54,5.41-1.13,7.78-3.02,5-3.98,9.55-3.98,15.24-.59,6.76,4.02,10.52,10.53,13.97,17.19,2.9,5.6,5.51,11.36,8.01,17.15,1.2,2.78,2.93,4.77,5.7,5.91,5.6,2.29,9.65,6.37,12.97,11.29,7.73,11.45,13.28,23.81,15.18,37.57.64,4.6,2.57,7.58,7.1,9.1,10.24,3.42,15.73,11.91,20.98,20.46,5.57,9.06,11.23,18.09,15.75,27.75,1.52,3.24,3.67,5.81,6.82,7.7,18.91,11.35,29.89,28.87,37.38,48.93,1.55,4.15,3.53,7.63,7.66,9.24,10.86,4.23,17.68,12.62,23.33,22.23,4.13,7.02,8.13,14.12,11.99,21.29,2.12,3.93,4.72,6.93,8.99,8.85,16.72,7.5,23.6,22.59,29.02,38.65,1,2.97,1.4,6.15,2.15,9.22.6,2.43,1.26,4.88,3.49,6.43,8.93,6.23,14.04,15.36,18.77,24.77,2.13,4.23,4.71,8.03,8.74,10.66,12.44,8.12,22.17,19.03,31.49,30.39,1.11,1.36,2.03,4.13,4.42,2.69,2.41-1.46.57-3.6-.25-5.28-7.47-15.22-2.95-29.46,3.48-43.56.62-1.36,1.49-2.6,2.06-3.98,1.61-3.93.79-5.06-3.45-4.99-13.21.22-22.09-6.78-24.87-19.79-.62-2.91-1.2-5.97-.96-8.89,1.26-15.13-6.39-25.66-17.38-34.5-6.76-5.44-13.53-10.86-17.73-18.68-12.03-22.4-8.88-43.54,5.51-63.68,4.91-6.88,11.18-12.2,18.35-16.65,14.48-8.98,26.23-7.61,38.69,6.17,10.2,11.27,16.67,25.65,15.95,41.9-.38,8.68-4.57,16.24-7.33,24.23-.97,2.82-2.31,5.55-1.98,8.67.11,1.08.38,1.96,1.71,1.96.95,0,1.65-.43,1.84-1.33,2.04-9.98,7.18-18.93,9.41-28.87,2.5-11.14-1.19-21.01-5.62-30.79-.77-1.7-1.77-3.33-1.26-5.18,3.87-14.07,9.8-27.04,22.04-35.8,15.68-11.22,44.34-8.97,54.64,19.33,8.3,22.81,4.44,44.26-6.24,64.95-4.15,8.05-11.93,12.82-19.86,16.95-2.36,1.23-4.75,2.41-7.11,3.63-1.15.59-2.86,1.01-2.5,2.65.45,2.01,2.28,1.46,3.74,1.34,2.04-.79,4.24-.83,6.36-1.05,5.26-.55,7.52,1.74,6.77,7.07-1.09,7.78-2.53,15.49-7.84,21.78-2.41,2.86-3.34,6.12-2.24,9.78,3.34,11.14-1.07,20.89-5.65,30.53-.94,1.98-2.22,3.7-1.73,6.01,2.76,12.91-1.49,25.06-4.15,37.36-.55,2.55-1.11,5.19-2.5,7.51-10.1,23.96-26.87,43.01-44.89,61.15-6.38,2.47-13.04,2.63-19.69,2-4.28-.41-7.13-3.08-8.89-7.11-3.29-7.53-4.64-15.59-6.26-23.5-4.5-21.95-17.48-37.9-35.32-50.09-9.65-6.6-15.79-14.61-16.65-26.29-.28-3.78-1.98-5.94-5.41-7.47-6.49-2.88-10.81-8.01-14.13-14.26-5.2-9.79-9.1-20.01-11.01-30.93-.82-4.66-3.1-7.67-7.63-9.58-8.31-3.5-16.27-7.75-22.29-14.78-7.7-8.99-12.63-19.57-16.62-30.54-1.87-5.14-4.74-7.65-10.22-8.69-9.67-1.82-15.57-9.31-21.06-16.63-5.4-7.21-9.34-15.36-12.5-23.83-1.01-2.71-2.25-5.23-4.81-6.79-18.1-11.04-26.28-29.02-33.44-47.71-.48-1.24-.93-2.51-1.26-3.79-1.6-6.2-4.72-11.14-10.34-14.66-11.76-7.36-14.46-20.25-18.51-32.1-1.7-4.97-2.33-10.37-3.03-15.67-.49-3.72-1.9-7.28-5.82-8.66-9.96-3.5-16.99-10.21-21.96-19.33-.31-.57-.76-1.1-1.28-1.53-.43-.9-.89-1.78-1.28-2.69-.35-.81-.78-1.46-1.8-1.37-1.3.11-1.54,1.01-1.63,2.08-.78,9.95-2.54,19.76-4.15,29.59-.42,2.56.04,4.96,1.42,7.17,7.32,11.67,10.91,24.5,11.66,38.16.15,2.74.47,4.6,3.78,5.35,2.5.57,4.51,2.64,6.31,4.68,12.69,14.46,20.11,31.18,21.67,50.4.25,3.09.83,5.84,3.66,7.75,13.85,9.39,22.65,22.36,26.46,38.56,1.62,6.87,4.72,11.29,11.46,14.75,12.51,6.43,19.35,17.84,22,31.65.44,2.28,1.14,4.56,1.23,6.86.18,4.35,2.47,6.49,6.45,7.66,8.66,2.55,15.19,7.96,20.15,15.45,1.22,1.85,1.56,3.33.47,5.43-4.35,8.4-8.52,16.89-12.76,25.35-2.88.44-4.23-1.74-5.5-3.57-7.38-10.62-13.34-21.96-15.54-34.85-.99-5.78-3.39-9.83-8.37-13.34-11.34-7.99-18.64-19-20.31-33.05-.56-4.66-2.77-6.9-7.1-7.39-16.88-1.93-26.1-18.54-27.44-33.61-.15-1.66-.16-3.34-.02-4.99.29-3.49-1.24-5.32-4.47-6.78-14.7-6.61-23.53-18.07-26.82-33.8-1.26-6-2.57-11.95-2.5-18.19.05-4.37-1.5-8.3-5.54-11.13-4.36-3.06-6.43-8.03-8.51-12.74-5.34-12.12-8.71-24.52-4.03-37.74,1.06-2.98-.31-5.47-1.38-8.11-4.83-11.9-7.08-23.96-1.72-36.36,2.28-5.28,5.29-9.99,10.36-13.05Z"/>
  <path class="cls-20" d="M398.11,495.59c-13.92-3.86-26.56.98-39.44,3.08-6.26,1.02-12.26-.44-18.37-.84-3.21-.21-6.36-.09-9.43.54-6.85,1.4-9.15,7.39-5.34,13.21,2.17,3.32,5.24,5.59,8.6,7.43,2.43,1.33,2.96,2.59,2.27,5.49-5.95,24.91-11.57,49.91-11.92,75.7-.45,33.14,12.15,61.25,33.84,85.57,18.21,20.42,40.65,35.74,63.2,50.85,10.66,7.14,20.82,14.79,29.08,24.8,5.86,7.11,14.69,7.05,23.51.04,1.93-1.53,2.85-2.17,4.63.02,1.65,2.04,4.16,1.67,6.23.81,2.16,8.51,1.26,16.66,1.24,24.89-.05,18.86,7.21,34.94,22.46,46.81,6.33,4.92,12.13,10.23,16.54,17.11,4.13,6.45,3.09,13.5,3.44,20.36.67,13.37,8.04,24.61,19.45,28.74.78.28,1.55.63,2.35.81,6.74,1.49,6.6,1.42,3.8,7.95-4.44,10.36-6.96,21.09-5.16,34.04-8.41-11.42-18.69-18.67-28.61-26.35-3.29-2.55-4.71-6.41-6.48-9.95-4.21-8.43-9.39-16.1-16.81-22.04-2.22-1.78-3.19-3.91-3.82-6.66-3.51-15.27-9.1-29.55-20.49-40.91-2.5-2.49-5.18-4.86-8.44-6.09-6.64-2.5-10.51-7.23-13.63-13.46-5.29-10.55-11.26-20.76-18.84-29.93-3.48-4.21-7.76-7.29-12.71-9.4-4.87-2.08-7.63-5.45-9.65-10.51-8.08-20.28-19.41-38.24-38.91-49.65-2.44-1.43-3.73-3.67-4.96-6.06-6.25-12.13-12.94-24-20.79-35.18-4.58-6.52-9.98-12.06-17.84-14.57-3.07-.98-4.1-3.04-4.6-6.26-2.52-16.09-9.08-30.49-19.17-43.27-2.4-3.04-5.21-6-8.78-7.2-4.61-1.54-6.2-4.93-7.88-8.82-3.83-8.84-7.81-17.64-13.89-25.25-7.9-9.9-14.89-11.81-26.44-6.99-1.93.8-2.26.27-2.57-1.4-.88-4.75-1.26-9.54-1.43-14.37-.09-2.42,1.08-2.73,3.03-2.61,15.73.92,25-7.85,31.24-21.02.76-1.6,1.67-2.88,3.32-3.48,12.8-4.69,20.33-14.6,25.69-26.43,3.08-6.78,6.57-12.98,12.99-17.24,3.24-2.15,5.15-5.68,6.86-9.09,1.87-3.73,4.73-5.24,8.54-4.26,8.34,2.15,14.08-1.44,18.93-7.74,2.84-3.69,6.08-7.08,8.14-11.31.79-1.62,1.7-2.32,3.51-1.61.91.36,1.96.35,2.92.6,7.36,1.98,7.31,1.99,7.16,9.47-.32,15.89,7.91,27.35,19.37,37.11,1.13.96,2.33,1.86,3.48,2.8.1.09.11.29.61,1.76Z"/>
  <path class="cls-55" d="M137.92,307.46c.6-10.22,2.36-20.85,5.71-31.17,1.47-4.52,4.67-7.12,9.61-7.29,11.49-.41,20.06,4.87,26.81,13.7,9.42,12.32,17.2,25.73,25.2,38.95,17.42,28.78,41.91,49.48,71.28,65.16,16.12,8.61,32.57,15.64,50.77,18.58,10.35,1.67,19.29,7.2,27.19,14.05,7.83,6.79,8.71,11.29,4.67,20.91-3.09,7.37-8.11,13.37-13.98,18.61-4.08,3.64-8.83,1.62-13.31.56-12.26-2.9-23-9.48-34.43-14.4-15.86-6.84-32.83-11.21-47.72-20.18-31.23-18.83-61.94-38.45-87.62-64.78-14.1-14.46-23.66-31.23-24.19-52.7Z"/>
  <path class="cls-30" d="M385.68,440.16c11.52-8.96,28.79-8.79,42.98.28,9.58,6.13,15.65,15.21,21.29,24.7,4.63,7.8,9.82,15.08,18.08,19.49,2.2,1.17,4.38,2.48,6.73,3.24,12.33,4,19.31,13.16,23.61,24.68,3.02,8.09,5.49,16.38,8.12,24.61,2.85,8.93,6.38,17.62,12.3,24.9,12.72,15.63,17.57,34.02,19.93,53.45,1.25,10.23,2.85,20.34,6.71,30.06,4.57,11.51,6.17,23.79,7.38,36.02.87,8.83-1.59,17.15-6.2,24.76-1.47,2.43-3.1,4.75-5.92,5.82-2.96.02-4.94-1.2-5.49-4.27.24-1.52.93-2.86,1.78-4.09,8.02-11.57,7.9-24.27,5.39-37.38-1.51-7.87-3.71-15.5-6.66-22.95-3.84-9.71-3.12-20.41-6.32-30.24-1.97-6.08-1.6-12.51-3.58-18.55-2.79-8.47-8-15.39-12.9-22.75-6.15-9.24-13.14-18.27-15.66-29.81-4.41-20.22-14.88-36.26-33.61-46.65-13.56-7.52-24.62-17.93-32.2-31.92-3.64-6.73-9.56-11.98-15.51-16.76-3.02-2.43-7.44-2.66-11.15-4.12-1.54-.61-3.24-.83-4.41-2.17-1.06,4.35-1,5.03,2.35,5.64,13.69,2.48,21.37,12.49,27.95,23.12,6.56,10.6,14.51,19.35,25.19,25.73,7.44,4.45,14.45,9.51,21.17,15,5.53,4.52,8.41,10.72,11.09,16.96,1.76,4.1,3.3,8.38,4.27,12.78,2.48,11.31,7.86,21.14,15.1,30.05,10.61,13.05,16.2,28.16,18.35,44.66,1.88,14.4,5.92,28.19,10.29,42.05,4.56,14.48,7.14,29.67-1.5,44.05-1.21,2.02-1.41,4.44-2.68,6.43-.3.21-.74.4-.89.21-8.33-10.3-17.66-20-20.59-33.59-.74-3.42-2.76-7.34,3.23-8.44,1.8-.33.69-1.79,0-2.72-2.67-3.63-5.83-6.83-9.08-9.93-10.72-10.22-16.78-23.02-20.46-37.1-1.68-6.44-3.48-12.9-3.7-19.59-.16-5.09,1.56-6.48,5.88-5.93-11.28-11.15-24.46-20.69-35.07-32.93-6.76-7.8-11.89-16.44-11.96-27.29-.02-3.73.84-6.92,3.85-9.29,2.32-1.83,3.19-4.63,4.78-6.94,2.31-3.36,1.17-5.11-2.35-6.17-9.25-2.79-18.14-6.61-27.23-9.85-21.08-7.53-33.18-22.62-35.72-44.97-.49-4.29.21-8.65,3.01-12.32Z"/>
  <path class="cls-22" d="M384.54,429.28c.66-11.56,8.34-18.05,17.49-22.96,14.29-7.66,30.6-10.11,45.29-16.53,10.27-4.49,18.52-.93,27.43,2.3,17.07,6.19,33.35,13.94,48.29,24.33,2.18,1.52,6.54,2.63,2.33,6.75-1.04,1.02.15,2.49,1.11,3.47,10.46,10.67,15.36,24.26,20.16,37.95,2.42,6.89,5.24,13.64,7.99,20.42,1.39,3.42.38,4.78-3.27,4.84-12.05.19-23.78,2.29-35.17,6.22-4.88,1.69-9.62,3.75-13.66,7.01-2.05,1.66-3.06,1.82-4.45-.75-4.51-8.35-11.24-14.32-20.23-17.53-11.8-4.21-19.49-12.76-25.46-23.38-6.79-12.09-15.31-22.63-28.59-28.09-11.32-4.66-22.84-5.34-34.35-.49-4.92,2.07-4.98,2.07-4.93-3.55Z"/>
  <path class="cls-55" d="M271.92,525.31c-6.22,13.09-15.64,18.2-30.32,16.37-6.65-.83-13.05-2.65-19.07-5.58-6.44-3.14-12.92-6.16-19.75-8.32-13.84-4.38-25.83-12.15-37.24-20.76-22.04-16.64-45.53-31.27-66.97-48.73-25.62-20.86-44.33-46.6-55.49-77.74-1.97-5.49-3.26-11.17-3.6-17.03-.48-8.21,1.59-15.56,7.65-21.35,6.64-6.34,14.39-11.12,22.57-15.21,1.44,1.35,1.18,3,.79,4.65-2.57,10.93-2.6,21.72,1.66,32.3.37.93.78,1.87.93,2.85,2.95,19.65,14.48,34.7,26.26,49.73,19.43,24.77,43.1,44.63,69.04,62.22,16.64,11.29,34.09,20.85,52.58,28.53,7.98,3.32,16.6,4.82,24.87,7.38,8.59,2.66,16.52,7.13,25.34,9.12.75.17.95.83.74,1.57Z"/>
  <path class="cls-30" d="M581.59,712.14c-13.97-16.31-14.79-34.52-7.71-53.83,1.31-3.58,2.72-7.18,4.56-10.5,3.19-5.77,1.91-10.77-1.75-15.71-2.87-3.87-5.51-7.91-8.3-11.85-7.02-9.91-8.71-20.85-5.32-32.32,3.72-12.57,3.64-24.39-3.45-35.97-4.9-8.02-4.89-17.15-3.61-26.2,1.33-9.38,2.89-18.72,4.35-28.08.69-4.4-.15-8.66-1.66-12.72-4.62-12.47-9.41-24.88-14.16-37.3-3.24-8.48-8.06-16-14.23-22.66,8.03-5.21,24.34-4.99,32.25.31,14.13,6.7,19.44,18.82,20.41,33.5.52,7.86-.11,15.64-2.92,23.12-1.38,3.69-1.06,7.17,1.4,10.38,4.05,5.28,7.4,11.1,11.96,15.97,3.17,3.38,4.53,7.34,4.55,11.8.04,12.47.6,24.96-1.57,37.35-.86,4.94-.82,9.99,1.37,14.71,5.44,11.78,6.09,24.01,3.72,36.61-1.14,6.05-1.71,12.29-3.62,18.1-2.46,7.47-.39,13.74,3.31,19.89,3.54,5.89,6.04,12.21,8.56,18.56,3.65,9.19,1.4,18.38.56,27.58-.23,2.54-1.82,4.24-4.41,4.8-8.47,1.84-15.24,6.42-20.91,12.83-.87.99-1.8,2.03-3.38,1.63Z"/>
  <path class="cls-28" d="M210.62,702.16c-4.65-9.31-7.03-19.39-9.73-29.34-.94-3.47-2.46-6.86-2.34-10.58-.29-1.52-.51-3.1,1.74-1.53,1.27.89,1.64,2.47,2.09,3.89,1.65,5.22,3.25,10.45,5.1,15.16-1.51-5.97-2.62-12.42-2.29-19.05.38-7.66-.69-15.27-.91-22.9-.39-13.79.75-27.58,1.32-41.34.28-6.76.98-13.86,2.88-20.59.36-1.29.81-2.63.61-3.92-1.59-10.71,5.34-18.42,9.42-27.13,1.56-3.33,3.95-4.25,7.3-2.85,3.58.6,6.82,2.68,10.62,2.43,2.11-.14,2.31,1.4,2.33,3.02.08,5.63-.42,11.3,1.66,16.76.74,1.95-.37,3.25-2.31,3.59-12.87,2.23-18.72,15.57-19.48,26.71-.73,10.66.95,20.82,5.08,30.62,1.01,2.4,1.17,4.83.43,7.31-3.33,11.04-.33,21.35,3.76,31.46,3.33,8.25,8.23,15.47,15.18,21.16,1.43,1.17,1.59,2.73,1.85,4.42,1.94,12.59,2.88,25.41,8.6,37.15,4.11,8.44,10.08,15.06,18.16,19.81,2.59,1.53,4.6,3.25,4.92,6.76,1.63,17.72,8.68,32.33,25.76,39.82,6.44,2.82,6.49,8.19,7.78,13.2,3.3,12.88,10.81,22.44,22.18,29.02,3.06,1.77,4.31,3.85,4.6,7.47.41,5.04,1.76,10.03,3,14.96.53,2.12,1.02,4.18.85,6.36-1.34.94-2.71.42-3.7-.38-4.64-3.79-9.91-6.77-14.21-10.96-10.23-9.98-20.28-20.17-29.85-30.77-5.42-6.01-9.71-13.01-15.1-19.13-9.44-10.71-17.9-22.21-26.49-33.6-2.69-3.57-4.49-7.78-7.15-11.42-1.08-1.48-1.88-3.3-3.59-4.07-2.98-1.34-2.54-3.42-1.6-5.74-2.79,1.45-4.06-.52-5.01-2.48-.9-1.86-.81-3.88.66-5.83-2.7,1.41-4.38,1.49-4.92-2.19-.63-4.33-2.26-8.37-6.51-10.66-1.25-.67-2.17-1.96-2.23-3.19-.39-7.55-6.61-12.88-7.56-20.15-.31-2.36-1.31-2.29-2.92-1.29Z"/>
  <path class="cls-55" d="M322.93,465.34c-4.12,7.77-9.21,14.51-19,14.71-7.39.16-14.6-1.43-21.28-4.64-24.41-11.72-50.05-20.8-73.79-33.95-22.26-12.33-41.7-28.38-60.22-45.7-16.47-15.41-30.05-32.86-39.4-53.43-4.92-10.83-7.81-22.27-8.84-34.14-.13-1.45-.24-3.18.39-4.39,7.17-13.8,17.75-23.74,32.83-28.44,1.97,2.6.3,5.15-.31,7.59-3.4,13.73-4.91,27.5-1.49,41.46,3.39,13.85,9.33,26.27,19.76,36.31,6.59,6.35,12.77,13.09,18.98,19.82,13.23,14.35,29.44,24.89,46.27,34.41,21.71,12.27,43.17,25.06,66.17,34.87,11.65,4.97,24.1,7.59,36.08,11.61,1.86.62,4.73.5,3.85,3.92Z"/>
  <path class="cls-40" d="M384.37,847.34c-6.07-8.62-13.4-14.62-22.84-17.81-2.79-.94-3.54-3.2-3.86-5.83-2.28-19.15-11.04-33.77-29.22-41.84-2.53-1.12-3.31-3.5-3.86-6.05-3.39-15.88-10.36-30.08-23.22-40.06-6.26-4.86-7.89-10.03-9.02-17.25-2.83-18.12-10.19-34.7-24.14-46.88-5.61-4.9-6.86-9.89-7.67-16.23-1-7.79-3.2-15.47-7.38-22.03-4.73-7.41-4.86-14.76-2.82-22.73.78-3.04,1.1-6.19,1.73-9.81,5.25,9.71,12.99,16.12,23.19,19.51,2.43.81,2.26,2.82,2.47,4.87,1.38,12.91,3.21,25.69,10.41,37,2.44,3.82,4.82,7.83,8.75,10.05,8.02,4.52,10.45,12.12,12.92,20.18,4.65,15.14,10.36,29.85,22.55,40.89,1.84,1.67,3.62,3.58,5.77,4.73,7.17,3.84,10.97,10.06,13.54,17.46,6.28,18.07,19.14,29.44,36.88,35.71,1.61.57,3.14,1.31,3.65,3.1,1.76,6.14,3.99,12.21,4.95,18.48.45,2.96-1.46,6.34-2.52,9.45-2.86,8.38-5.68,16.79-10.26,25.08Z"/>
  <path class="cls-55" d="M299.97,497.36c-3.06,6.19-7.15,11.44-12.68,15.75-4.76,3.71-9.76,3.8-15.03,2.33-3.99-1.11-8.03-2.35-11.72-4.2-14.59-7.29-29.64-13.41-44.86-19.27-23.51-9.05-43.56-24.08-63.71-38.82-13.7-10.02-27.07-20.5-38.75-32.84-16.71-17.66-29.33-37.88-34.4-61.96-2.63-12.47-3.31-24.94,5.33-36.25,2.2-2.88,3.98-6.24,6.61-8.91,1.79-.33,1.89,1.14,2.01,2.16,2.3,20.33,11.42,38.01,21,55.65,17.15,31.61,41.67,56.07,70.8,76.66,27.95,19.75,59.11,31.71,91.77,40.51,6.59,1.78,13.06,3.96,19.72,5.51,1.88.44,4.07.88,3.89,3.66Z"/>
  <path class="cls-55" d="M699.7,305.34c7.46-1.3,11.52,3.46,14.74,8.85,7.29,12.17,9.06,25.63,7.54,39.46-5.09,46.29-28.61,83.78-57.54,118.48-16.01,19.2-34.18,36.29-53.96,51.61-1,.77-1.77,2.02-3.81,2,.55-8.69-.66-17.05-5.3-24.59,8.31-7.47,15.04-16.42,22.3-24.8,8.79-10.13,16.18-21.51,22.92-33.19,2.99-5.18,5.54-10.62,8.48-15.83,6.62-11.72,10.63-24.5,13.01-37.55,4.94-27.13,15.63-52.14,26.64-77.09,1.19-2.7,2.41-5.52,4.98-7.35Z"/>
  <path class="cls-55" d="M265.75,853.02c1.92,5.13.5,10.52,1.27,15.78,1.82,12.38,6.8,23.92,9.01,36.18,1.66,9.21,2.01,18.4.56,27.65-1.74,11.18-8.32,16.24-20.77,17.38-14.76,1.34-29.48.11-44.2-1.07-3.62-.29-7.23-.71-10.84-1.06-1.19-1.11-1.47-2.57-1.56-4.09-1.4-23.25-2.87-46.5-.32-69.76.28-2.53-.29-4.98-.44-7.46-.27-4.63,1.27-6.45,5.84-6.91,2.32-.23,4.67-.24,6.99-.06,17.12,1.36,33.9.06,50.08-6.21,1.38-.54,2.84-1.04,4.36-.37Z"/>
  <path class="cls-28" d="M508.72,708.01c4.04,3.55,7.81,7.19,13.36,8.8,14.9,4.33,24.86.08,30.57-12.81,4.89-11.02,4.62-22.41,2.81-34.19-2-13.03-6.59-25.22-10.07-37.78-1.58-5.71-1.87-11.78-2.82-17.67-2.74-17-5.08-34.46-16.24-48.25-12.9-15.93-17-35.28-23.68-53.7-.98-2.7-.41-4.44,2.07-6.23,7.15-5.14,15.27-7.88,23.66-9.78,8.26-1.87,16.67-3.05,25.21-2.25,1.61,2.4.52,4.88,0,7.22-1.71,7.59-2.44,15.41-3.98,22.93-2.9,14.16,1.05,26.33,7.51,38.11,4.51,8.22,2.2,15.9.2,23.97-2.39,9.65-1.94,19.49-.23,29.17.92,5.18,4.03,9.46,8.24,12.74,2.12,1.65,3.89,3.61,5.62,5.65,2.92,3.44,3.12,6.83,1.1,11.01-7.43,15.38-10.5,31.47-6.4,48.4,1.49,6.14,3.59,12.15,6.59,17.69,3.55,6.55,3.21,12.48-.83,18.62-2.83,4.29-6.35,5.4-10.44,2.2-7.96-6.23-16.75-8.9-26.92-8.53-6.66.24-12.36,2.6-17.91,5.53-5.51,2.91-11.74,5.01-15.11,10.97-.43.76-1.37.85-2.24.59-1.97-1.86-1.55-4.26-1.28-6.5,1.17-9.73,5.79-18,11.21-25.91Z"/>
  <path class="cls-33" d="M400.93,555.98c-2.64-3.1-6.6-4-9.96-5.88-4.3-2.41-8.59-4.8-12.45-7.9.75-1.15,3.04-1.18.56-3.8-6.51-6.88-15.04-10.77-22.19-16.56-6.16-4.99-10.56-11.84-16.26-17.39-.61-.59-.64-1.51.04-2.25,11.09.83,22.11.8,32.96-2.11,2.97-.84,6.02-1.3,9.06-1.81.99,0,1.99.02,2.98.03,11.1-.22,18.42,7.35,26.54,13.12,2.8,1.99,5.05,4.84,7.72,7.05,6.74,5.58,10.22,12.8,11.99,21.21,3.05,14.46,9.61,27.02,22.02,35.6,6.58,4.56,7.85,12.12,11.93,18.05,4.69,6.83,3.84,14.96,5.96,22.38,2.56,8.97,4.87,17.86,11.55,24.95,4.69,4.99,4.51,11.98,6.48,18.08,2.62,8.1,2.02,16.76,4.12,24.97.37,1.45.44,3.02,1.27,4.27,3.57,5.34,2.15,10.36.26,16.07-3.33,10.1-7.8,19.79-10.52,30.1-1.37,5.18-2.29,10.3-1.5,15.75.38,2.65.97,5.65-.84,8.23-3.6-.93-3.67-4.01-4.12-6.83-1.6-9.93-.07-19.86.1-29.79.25-15.14.99-30.32-.65-45.37-1.53-13.95-4.62-27.67-9.91-40.78-.23-.57-.87-.97-1.32-1.44-3.08-4.94-4.92-10.47-7.39-15.7-7.14-15.1-17.76-27.75-28.72-39.97-6.94-7.74-15.96-13.48-25.06-18.77-1.69-.98-3.78-1.45-4.66-3.51Z"/>
  <path class="cls-55" d="M273.73,999.13c1.95-.62,3.06.25,3.95,1.97,1.39,2.7,2.55,5.55,2.62,8.5.24,10.92,3.12,21.33,5.81,31.77,2,7.73,3.24,15.55,4.31,23.46,1.39,10.18-2.69,17.3-10.86,22.78-9.41,6.31-20.32,8.9-30.76,12.66-10.46,3.77-20.7,8.18-31.73,10.26-3.81.72-7.56.92-11.38.5-2.57-1.36-3.01-3.86-3.23-6.37-1.45-16.25-.7-32.54-.67-48.81,0-5.23,3.2-8.6,8-10.35,10.48-3.83,20.7-8.17,30.24-14.05,12.55-7.73,24.8-15.7,31.4-29.69.5-1.06,1.45-1.81,2.29-2.62Z"/>
  <path class="cls-30" d="M273.65,953.09c2.31,12.69,1.99,25.4.24,38.11-.2,1.43-.59,3.32-1.59,4.08-10.33,7.88-17.24,19.3-28.06,26.7-11.42,7.81-23.67,13.91-36.51,18.93-2.83-1.25-2.61-4.05-3.11-6.39-1.29-6.04-.98-12.29-2.01-18.34-3.08-18.06-3.61-36.36-5.32-54.55-.4-4.26,2.17-6.36,7.19-5.69,5.11.68,10.25,1.15,15.34,1.86,14.67,2.03,28.83-.92,43.1-3.33,3.55-.6,6.97-2.41,10.73-1.38Z"/>
  <path class="cls-30" d="M231.46,757.25c8.48,12.88,16.58,26.02,26.21,38.11,7.14,8.95,14.1,18.05,21.4,26.87,2.17,2.62,1.58,3.71-.56,5.94-5.38,5.65-12.04,9.79-17.42,15.5-3.1,3.29-8.16,4.29-12.75,5.26-13.04,2.75-26.33,3.17-39.54,4.28-1.1.57-2.29.2-3.42.37-3.76.57-5.01-1.29-5.09-4.77-.26-11.32.26-22.52,2.59-33.7,2.9-13.94,8.24-27.02,13.53-40.08,2.96-7.32,7.87-13.69,15.05-17.79Z"/>
  <path class="cls-47" d="M393.53,919.97c4.78-9.31,9.56-18.62,14.76-28.73,4.48,10.01,9.39,18.97,14.59,27.76,12.16,20.54,25.49,40.3,43.36,56.32,13.4,12.01,26.81,11.81,37.81.85,4.2-4.18,7.13-9.15,8.89-15.65,5.46,7.27,9,14.61,10.52,22.86,1.56,8.5,2.96,17.03,4.42,25.54.18,1.25-.63,1.99-1.6,2.17-10.53,1.97-20.26,7.62-31.52,6.44-8.5-.89-16.1-3.9-23.31-8.2-1.02-.61-1.82-1.45-2.06-2.68,1.92-2.87,4.78-2.01,7.16-1.33,6.71,1.9,13.53,1.37,20.33,1.42,1,0,2.02,0,2.97-.3,2.37-.76,5.98-1.75,5.3-4.23-.85-3.11-3.97-.63-5.91-.05-9.11,2.68-17.89,1.1-26.34-2.23-15.01-5.91-25.67-17.48-36.25-29.03-1.8-1.96-3.4-4.09-5.52-5.74-.53-.41-1.19-.77-1.82-.4-.96.56-.65,1.51-.23,2.18,1.76,2.82,3.83,5.43,6.07,7.88,1.47,1.59,2.63,3.1.89,5.18-2.54.97-3.64-1.25-4.92-2.51-10.84-10.7-20.09-22.67-27.57-35.95-3.35-5.95-6.02-12.26-9.27-18.27-.55-1.01-1.13-2.05-.76-3.29Z"/>
  <path class="cls-44" d="M328.02,603.37c1.04-24.41,5.01-47.14,10.25-69.67.04-.16.1-.32.18-.47,1.65-3.17.08-9.62,3-9.55,4.55.11,9.09,3.56,13.48,5.89,1.81.96.47,2.68-.02,4-9.44,25.56-12.13,52.04-10.13,79.01,2.16,29.19,13.37,53.89,37.05,72.18,5.53,4.27,10.08,9.64,14.56,15.01,18.84,22.62,42.93,36.22,71.67,42.04,1.84.37,5.4-2.04,5.69,2.31.34,5.22,3.09,10.92-3.02,14.89-8.71,5.65-12.36,5.32-19.25-2.67-9.25-10.74-20.77-18.6-32.44-26.3-17.81-11.74-34.98-24.35-50.38-39.13-25.17-24.17-39.33-53.55-40.64-87.53Z"/>
  <path class="cls-55" d="M668.74,342.27c-5.72,21.84-8.31,44.41-15.43,65.93-7.41,22.4-20.97,40.93-36.32,58.36-6.47,7.35-12.99,14.66-19.58,21.91-1.32,1.46-3.39,4.41-4.75,3.02-2.36-2.41-6.49-4.32-5.08-9.26,2.87-10.09,4.8-20.35,3.89-30.93-.07-4.96,3.12-8.15,6.14-11.45,9.21-10.05,19.26-19.35,26.28-31.29,6.72-11.44,11.08-23.85,15.5-36.22,2.3-6.45,4.56-12.81,8.03-18.77,4.01-6.9,9.8-11.22,17.24-13.51,1.84-.56,4.58-1.9,4.08,2.22Z"/>
  <path class="cls-23" d="M400.93,555.98c13.87,6.46,25.88,15.42,35.74,27.11,11.8,13.98,22.56,28.66,29.02,46.04.59,1.58,1.14,3.1,1.07,4.8-.97.87,1.83,4.09-1.99,3.18-1.54-.49-2.09-1.49-1.64-3.06-1.03,3.29-2.62,6.34-4.33,9.32-1.82,3.17-3.47,6.5-5.85,9.28-1.97,2.3-3.48,5.41-7.2,5.51-2.7-2.11-9.08-.95-10.98,2.16-1.04,1.7-2.01,3.31-4.1,3.8-2,.62-3.12-.84-4.19-2-8.93-9.76-17.79-19.58-25.38-30.45-1.27-1.82-3.76-4.29.73-5.59,7.42.87,12.74-2.72,17.1-8.18,3.9-4.88,6.68-10.32,7.32-16.64.56-5.49-1.56-10.75-5.09-12.09-4.96-1.88-9.07.05-12.66,3.49-7.73,7.38-11.22,16.64-11.93,27.11-.7,1.67-1.71,1.87-2.86.48-1.24-1.5-2.89-2.81-3.63-4.55-1.13-2.68-3.59-3.96-5.33-5.97-.47-1.65-.38-3.35-.36-5.04,1.06-7.75,6.46-12.97,11.14-18.49,4.51-5.33,9.84-9.9,15.46-14.1,1.02-.76,3.38-1.17,2.13-3.16-1.01-1.61-2.94-1.47-4.49-.51-4.39,2.71-8.77,5.43-12.75,8.74-4.47,3.73-9.03,7.35-12.45,12.17-.87,1.22-2.04,2.21-3.67,2.36-3.36-2.35-3.55-3.82-.34-7.37,5.47-6.06,11.38-11.67,18.17-16.28,1.1-.75,2.23-1.46,3.32-2.22,3.6-2.53,3.56-2.63-.15-4.88-1.59-.96-3.96-1.16-4.1-3.75,1.1-1.58,2.85-.87,4.29-1.23Z"/>
  <path class="cls-43" d="M148.79,729.97c-9.74-.94-19.3-2.85-28.8-5.16-3.31-.81-3.8-2.67-3.08-5.48,1.76-6.85,4.37-13.43,6.28-20.25,2.7-9.66,6.17-19.12,9.51-28.6,3.85-10.9,7.48-21.87,12.38-32.38,2.93-6.28,5.17-12.87,7.81-19.29.99-2.41,1.26-4.31,4.79-1.15,8.5,7.59,17.68,14.57,29.31,16.99,4.58.95,3.66,4.36,3.55,7.46q-4.61-4.44-7.91,1.98c-12.76,24.66-23.18,50.29-31.83,76.66-.99,3.02-.94,6.23-2.01,9.21Z"/>
  <path class="cls-32" d="M299.97,497.36c-.66-1.94-2.36-1.96-4-2.4-17.33-4.61-34.52-9.66-51.55-15.32-30.47-10.12-57.06-26.81-81.62-47.04-21.43-17.64-38.36-38.92-51.48-63.42-6.77-12.64-13.26-25.31-17.09-39.16-1.52-5.5-2.33-11.21-3.46-16.82,1.23-1.78,3.27-2.06,5.52-3.39,1.27,9.65,2.9,18.68,6.23,27.31,8.86,22.94,23.37,41.92,40.76,59,29.77,29.25,63.58,52.23,102.67,67.25,6.35,2.44,12.47,5.5,18.71,8.23,13.29,5.81,25.86,13.96,42.06,12.22-2.52,5.06-4.63,9.31-6.74,13.55Z"/>
  <path class="cls-60" d="M410.88,830.89c3.93,3.61,7.9,7.27,12.76,9.49,3.73,1.7,3.19,3.9,1.83,6.68-5.9,12.1-11.59,24.3-17.73,36.28-10.23,19.96-19.75,40.29-33.4,58.34-14.49,19.16-32.78,33.87-52.75,46.75-.54.35-1.22.47-1.84.7-1.1-1.88-1.17-1.93.61-4.35,5.61-7.63,10.99-15.43,16.43-23.19,21.14-30.13,40.25-61.45,55.74-94.91,4.61-9.95,9.98-19.54,13.89-29.83.88-2.32,1.68-4.95,4.46-5.96Z"/>
  <path class="cls-6" d="M468.09,648.76c5.13,15.35,6.65,29.7,6.93,44.19.27,13.98-.12,27.95-1.16,41.91-.19,2.55-.66,3.56-3.35,3.13-24.45-3.92-45.01-15.42-63.28-31.93,24.63-14.24,48.37-28.87,60.85-57.29Z"/>
  <path class="cls-34" d="M148.79,729.97c-2.46-2.53-.5-5.28.21-7.48,9.17-28.6,20.32-56.39,34.71-82.81.77-1.41.84-3.9,3.46-3.61,2.63.28,2,2.65,2.6,4.23.23.61.51,1.21.77,1.81,2.37,18,7.28,35.38,12.9,52.59,1.08,3.31,1.85,6.8,3.47,9.83,1.87,3.49.14,5.36-2.24,7.04-16.74,11.81-34.58,20.4-55.88,18.4Z"/>
  <path class="cls-46" d="M117.74,904.1c14.97-2.3,37.4,15.17,40.51,30.35,3.07,14.99-2.36,27.82-13.61,37.99-9.29,8.4-19.63,15.2-31.84,18.72-4.23,1.33-4.44-1.73-4.5-4.41-.11-5.32.63-10.62,1.08-15.9,1.74-20.52,3.56-41.04,5.87-61.51.23-2.07.79-3.9,2.48-5.23Z"/>
  <path class="cls-5" d="M112.75,994.33c-3.06,1.31-3.74,3.54-4.18,6.89-2.1,15.9-1.66,32.01-4.56,47.85-1.63,8.9-1.15,18.12-3.29,27-14.65-.08-27.7-5.52-40.44-12.02-2.8-1.43-1.56-3.77-1.09-5.66,2.86-11.36,5.98-22.66,8.8-34.04,1.75-7.06,3.4-14.16,4.54-21.34.62-3.9,2.42-4.9,5.97-4.9,8.78,0,17.56.22,26.26-1.83,2.66-.63,4.92-3.12,7.99-1.96Z"/>
  <path class="cls-5" d="M117.74,904.1c-1.25,10.87-2.69,21.73-3.71,32.62-1.55,16.68-2.82,33.39-4.19,50.1-.18,2.19-.49,4.57,2.96,4.33-3.79,1.57-7.97,1.82-11.89,2.48-7.3,1.24-14.87.82-22.31,1.35-3.63.26-4.37-1.38-3.79-4.43,2.86-15.13,3.99-30.48,6-45.72,1.6-12.12,2.87-24.3,3.85-36.49.28-3.52,1.24-4.48,4.67-4.39,9.46.24,18.94.12,28.41.14Z"/>
  <path class="cls-40" d="M466.68,937.58c-.09,9.92-3.66,12.07-12.05,9.2-8.51-2.91-13.14-9.93-18.54-16.11-10.72-12.25-17.23-27.06-24.38-41.45-.67-1.35-1.29-2.58-.36-4.19,6.75-11.64,11.44-24.29,17.84-36.1.83-1.54.97-4.44,3.87-3.62,2.5.71,5.05,1.44,5.81,4.72,1.43,6.13,3.08,12.21,4.83,18.26,1.96,6.73,4.56,13.13,9.15,18.66,3.29,3.97,3.28,9.25,4.21,14.06,2.18,11.26,7.13,21.74,9.07,33.05.25,1.47.47,2.94.57,3.52Z"/>
  <path class="cls-6" d="M396.64,557.2c3.23,1.93,6.47,3.86,10.16,6.07-10.3,6.64-19.69,13.61-27.25,22.74-1.68,2.02-2.95,3.7.2,5.39,4.18,3.15,5.88,7.39,5.58,12.53.05,1.96.09,3.91.14,5.87-.22,1.3-.14,2.75-1.73,3.34-1.24,1.54-3.63,1.84-4.33,3.97-4.6-.38-8.31-2.34-11-6.13-.1-1.79-1.18-2.92-2.73-4.11-5.41,10.78-8.35,22.12-10.41,34.95-3.02-6.84-4.46-13.09-5.37-19.39-4.23-29.46-1.05-58.24,8.19-86.45,1.17-3.57,2.16-3.17,4.57-1.11,10.39,8.84,21.28,16.98,33.98,22.33Z"/>
  <path class="cls-29" d="M383.74,613.15l1.73-3.34c2.83-.61,3.53,1.79,4.6,3.43,2.15,3.31,4.01,5.58,5.81,6.57,2.78,1.75,4.62,4.27,5.9,7.24-2.34.44-1.37,1.82-.63,2.79,9.13,12.04,18.39,23.97,29.54,34.27-3.13,4.29-8.05,6.32-12.17,9.28-6.64,4.78-12.92,9.9-18.45,15.88-2.69,2.91-4,3.6-7.45.16-7.4-7.36-15.38-14.15-22.81-21.53-1.4-1.39-1.5-1.97-.83-3.96,2.39-7.17,4.34-14.49,6.53-21.73,2.39-7.91,4.97-15.72,7.79-23.47.64-1.76,1.67-3.63.46-5.6Z"/>
  <path class="cls-4" d="M410.88,830.89c-4.47,9.55-8.86,19.14-13.42,28.65-15.35,32.08-31.97,63.43-52.69,92.46-8.09,11.34-15.98,22.82-23.92,34.27-.56.81-2.19,1.35-1.1,2.85-5.19,1.67-6.43.95-6.42-4.08.02-7.76,3.25-14.5,7.02-21.01,11.91-20.58,26.88-39.18,39.15-59.49,16.43-27.18,30.43-55.6,40.38-85.88.09-.26.39-.45,1.02-1.16,3.03,4.81,6.37,9.21,9.98,13.39Z"/>
  <path class="cls-28" d="M392.68,378.19c24.27-.85,43.07,1.76,57.93,6.69-8.02,2.57-15.33,4.91-22.64,7.27-13.65,4.4-27.6,8.09-38.56,18.29-6.67,6.21-9.66,13.6-8.8,22.62.14,1.49.33,2.99.25,4.48-.22,3.95-2.99,5.94-6.64,4.94-2.85-.78-5.69-1.63-8.57-2.25-1.82-.39-2.4-1.55-1.53-2.83,6-8.88-1-14.13-5.77-19.58-3.68-4.2-8.6-7.2-13.61-9.83-2.82-2.19-.27-3.29.99-4.52,4.77-4.7,10.64-7.83,16.49-10.82,4.87-2.49,9.44-5.45,14.05-8.31,5.13-3.19,10.32-5.75,16.42-6.14Z"/>
  <path class="cls-27" d="M535.55,708.18c1.71,1.33,3.43,2.67,5.14,4-8.26,5.02-16.18,2.95-23.25-2.09-10.65-7.59-14.94-19.2-17.76-31.39-1.27-5.5-2.12-11.1-1.84-16.8.11-2.18.15-5.01,2.03-5.8,1.57-.66,3.23,1.71,4.65,3.04.36.34.61.79.93,1.17.81.94,1.64,1.66,2.93.64,1.3-1.04.63-2.02.06-3.05-1.33-2.42-3.7-3.77-5.65-5.55-12.91-11.72-23.6-24.85-26.57-42.73-1.07-6.43-1.03-12.94-.07-19.37,1.08-7.27.87-8.34-5.59-12.12-10.87-6.36-21.05-13.36-27.41-24.74-4.05-7.25-6.1-15.07-7.4-23.14-.72-4.51.81-8.51,3.52-12.11,5.03-6.68,4.54-8.3-3.58-10.83-13.91-4.34-27.16-10.08-38.67-19.14-9.09-7.16-15.93-16.08-18.08-27.8-1.44-7.85.28-14.86,6.71-20.2-6.12,21.31,6.25,42.11,23.43,51.8,10.86,6.13,23.24,8.79,34.8,13.38,1.7.67,3.39,1.35,5.11,1.98,2.64.98,3.25,2.22,1.37,4.77-2.71,3.67-4.59,7.78-8.05,11.13-3.64,3.52-2.06,8.77-.95,13.23,2.62,10.53,9.02,18.78,16.79,25.98,10.57,9.79,21.35,19.34,32.01,28.96-.59.93-1.22.79-1.88.73-1.89-.16-3.55-2.85-5.36-1.23-1.84,1.65-1.42,4.41-1.1,6.67,2.91,20.94,9.41,40.35,24.67,55.8,2.9,2.94,6.22,5.47,8.7,8.81.73.98,2.52,1.55,1.63,3.21-.65,1.21-1.85,2.16-3.3,1.77-3.44-.94-3.05,1.04-2.62,3.18,2.18,10.9,7.46,20.19,14.9,28.31,2.32,2.53,4.99,4.78,5.87,8.31,1.47-.17,2.86-.07,3.86,1.24Z"/>
  <path class="cls-62" d="M253.56,593.22c2.92,1.31,4.45,4.03,6.02,6.5,3.73,5.9,8.94,10,15.4,12,5.63,1.75,7.75,5.37,8.73,10.72,1.82,9.94,3.98,19.73,7.88,29.24,3.73,9.1,9.39,15.92,17.56,20.91,1.97,1.2,3.08,2.66,3.88,4.85,3.56,9.67,6.97,19.37,11.49,28.7,5.89,12.16,14.01,22.18,25.4,29.42,2.42,1.54,3.78,3.46,4.8,6.05,5.07,12.92,11,25.34,21.7,34.78,4.07,3.59,8.38,6.47,14.04,6.84,4.14.27,6.38,2.79,7.7,6.69,3.54,10.43,8.19,20.37,14.67,29.3,6.05,8.34,14.54,13.66,23.99,17.25,5.54,2.1,7.91,5.69,8.92,11.32,2.21,12.36,6.71,23.92,13.49,34.57,3.29,5.16,7.9,8.6,13.57,10.4,2.21.7,2.92,1.53,2.98,3.68.36,13.17,6.46,22.28,17.61,29.75,14.21,9.52,25.9,22.08,31.52,38.85,2.57,7.66,4.14,15.68,5.75,23.62.91,4.47,2.77,8.55,4.45,12.67,1.33,3.25,4.54,4.45,8.16,4.72,6.19.46,12.26-1.03,18.41-.91-5.68,5.27-12.06,8.47-20.14,8.03-7.1-.39-9.75-2.37-10.82-9.56-.83-5.59-1.45-11.21-2.36-16.78-2.5-15.32-10.27-27.89-20.45-39.26-8.68-9.69-18.3-18.37-27.97-27.02-5.01-4.48-7.61-10.07-7.49-16.75.1-5.51-1.62-9.47-6.96-12-9.92-4.7-14.75-13.53-17.72-23.58-1.56-5.26-3.27-10.52-4.21-15.9-1.03-5.91-4.26-9.12-9.67-11.31-13.38-5.42-24-14.17-30.48-27.35-2.7-5.49-2.99-11.77-5.63-17.39-2.08-4.41-4.3-7.47-9.27-9.29-16.71-6.09-28.44-17.56-34.04-34.69-2.43-7.42-6.75-12.76-13.42-17.12-14.41-9.43-21.18-24.31-26.3-40.08-.62-1.9-1.37-3.77-1.79-5.71-1.79-8.21-5.48-14.65-12.8-19.77-11.91-8.33-15.61-21.74-17.21-35.28-1.18-10.01-2.48-18.03-14.11-21.85-8.13-2.67-12.78-10.75-15.29-19.27Z"/>
  <path class="cls-43" d="M225.82,541.99c-6.32-.6-6.28,5.48-8.98,8.66-.45.53.04,1.89-.42,2.39-5.64,6.09-4.67,13.81-6.13,21.16-4.13,20.76-4.49,41.74-4.2,62.61.19,13.66-1.02,27.6,2.51,41.16.57,2.18.08,4.63-.69,7.22-1.73-4.72-3.52-9.42-5.15-14.17-1.07-3.11-1.66-6.42-2.98-9.42-.73-1.67-.83.31-1.21.65-3.04-5-2.72-10.82-3.7-16.27-4.05-22.45-5.17-45.15-3.94-67.89.81-15.06,4.08-29.81,7.79-44.42.59-2.33,1.82-2.84,4.05-1.97,7.86,3.06,15.54,6.5,23.07,10.3Z"/>
  <path class="cls-51" d="M271.92,525.31c-12.33-3.24-23.72-9.16-36.08-12.4-37.9-9.95-68.96-32.13-98.93-56.09-11.96-9.56-23.25-20.08-32.68-32.06-11.02-14.01-24.03-27.12-28.94-44.94-3.67-13.32-9.47-26.28-7.87-40.79.46-4.15,3.12-7.78,2.28-12.08,2.17-1.6,4.62-2.44,8.37-3.06-2.56,5.58-4.3,10.71-4.64,16.35-.64,10.64,1.03,20.85,4.36,30.81,9.62,28.73,28.45,50.67,51.61,69.39,20.7,16.74,42.04,32.55,65.13,45.88,9.09,5.25,18.66,9.54,28.59,12.87,11.4,3.82,22.24,8.73,32.69,14.64,5.64,3.19,11.81,5.23,18.27,6.36-.23,2.08-1.09,3.64-2.17,5.11Z"/>
  <path class="cls-5" d="M128.84,844.23c-4.37,3.27-9.61,4.27-14.77,4.7-6.28.52-12.64,0-18.96.09-2.24.04-2.73-.61-2.53-2.84.86-9.75,2.84-19.33,4.26-28.99,1.59-10.8,3.33-21.58,4.86-32.39.48-3.43,1.03-5.2,5.19-3.18,7.95,3.86,16.97,4.51,25.18,7.7,1.64.64,3.72.63,4.53,2.69-1.26,1.11-2.25,2.28-2.54,4.1-2.29,14.43-4.68,28.85-6.2,43.39-.18,1.74-.01,3.29.99,4.73Z"/>
  <path class="cls-26" d="M448.4,948.48c1.48.68,2.93,1.44,4.44,2.04,4.49,1.78,9.12,2.81,13.26-.49,4.35-3.48,4.79-8.48,4.18-13.63-1.38-11.64-6.5-22.3-8.89-33.67-.63-2.99-1.12-6.01-1.73-9.34,6.48,2.18,9.2,6.13,9.02,12.46-.19,7.12,3.31,12.76,8.37,17.43,8.93,8.24,17.83,16.49,26.36,25.15,7.16,7.28,7.81,10.98,2.06,19.41-9.29,13.64-21.88,16.76-35.47,5.37-3.07-2.57-6.16-5.09-8.77-8.11-4.54-5.26-8.95-10.62-13.42-15.95.19-.22.39-.44.58-.67Z"/>
  <path class="cls-30" d="M638.66,351.16c-9.13,24.24-17.56,48.78-33.78,69.63-5.05,6.49-11.62,11.38-17.01,17.96-3.99-8.43-11.19-13.04-19.19-16.72-1.5-2.19.32-3.47,1.52-4.62,15.71-15.15,28.7-32.52,41.54-50.06,5.17-7.06,12.05-12.3,19.97-16.06,2.23-1.06,4.59-2.18,6.94-.13Z"/>
  <path class="cls-42" d="M239.74,571.35c-2.99,4.55-7.03,8.28-9.21,13.5-5.16,12.34-2.95,24.16,2.03,35.74,1.62,3.78,1.96,6.89.62,10.86-3.92,11.62-.52,22.7,3.91,33.38,2.46,5.93,5.38,11.67,11.14,15.6,2.87,1.97,3.54,6,3.35,9.57-.52,9.89,2.2,19.2,5.81,28.08,4.7,11.56,13.03,20.05,25.21,23.88,3.21,1.01,3.18,2.91,3.06,5.26-.4,7.79.76,15.3,4.3,22.27,4.57,9,11.02,15.55,21.77,16.95,4.43.57,8.01,1.77,8.6,8.3,1.39,15.12,9.73,26.46,22.68,34.43,4.05,2.49,4.88,6.69,5.75,11.09,2.97,15.05,8.69,28.83,19.89,39.81-.41.9-.79,1.82-1.23,2.7-.29.58-.68,1.11-1.4,2.25-3.29-6.7-9.54-9.72-14.54-14.13-6.65-5.87-8.54-14.03-9.78-22.37-.12-.82-.18-1.66-.19-2.49-.07-7.39-3.25-12.09-9.89-16.19-10.54-6.5-17.15-16.6-18.79-29.25-.67-5.15-3.01-8.6-7.8-10.58-15.59-6.44-22.26-19.35-24.44-35.01-.78-5.62-2.24-9.28-7.69-12.45-12.56-7.32-18.56-19.56-21.05-33.54-1.22-6.85-2.01-13.79-2.89-20.7-.36-2.82-1.68-4.96-3.77-6.79-12.13-10.6-17.35-24.4-18.5-40.07-.05-.66-.19-1.42.05-1.98,3.52-8.07.45-15.45-1.95-23.1-3.25-10.35-3.72-20.99-.1-31.39,2.48-7.13,7.05-12.37,15.04-13.63Z"/>
  <path class="cls-27" d="M581.59,712.14c5.14-5.91,10.54-11.47,18.2-14.14.62-.22,1.2-.59,1.83-.77,7.47-2.14,7.06-2.59,8.21-10.09,2.28-14.96-2.72-27.8-10.15-40.11-4.24-7.02-5.7-14.05-2.93-22.2,2.87-8.48,3.74-17.51,4.63-26.41.67-6.65.25-13.62-2.66-19.56-4.86-9.91-4.27-19.84-2.74-30.18,1.54-10.41.66-20.93.33-31.39-.09-2.95-1.68-5.46-3.69-7.89-4.64-5.63-8.73-11.7-13.11-17.54-2.22-2.96-2.35-6.05-1.09-9.38,5.02-13.2,4.11-26.41-.1-39.58-1.93-6.05-6.88-9.67-11.42-13.55-1.5-1.29-3.26-2.28-4.33-4.02,12.6,1.31,21.65,11.06,24.14,22.35,2.22,10.09.65,19.92-2.08,29.51-1.85,6.47-1.21,11.64,3.78,16.23,1.46,1.34,2.45,3.2,3.95,4.49,10.05,8.71,11.14,19.81,9.92,32.22-.94,9.51-2.2,19.01-2.75,28.57-.33,5.76.9,11.23,2.69,16.63,5.42,16.31,5.08,32.73.51,49.09-1.52,5.42-1.33,10.28.9,15.47,4.27,9.89,10.11,19.16,12.36,29.86,2.4,11.42,1.22,22.75-1.22,34.04-.36,1.68-1.13,2.15-2.64,2.27-10.16.8-18.95,4.62-25.91,12.34-1.69-2.28-3.16-4.25-4.64-6.22Z"/>
  <path class="cls-1" d="M210.62,702.16c.3-1.5.73-3.35,2.48-3.17,1.29.14,1.27,2.02,1.61,3.29,1.17,4.33,1.85,8.76,5.2,12.34,1.12,1.2,3.27,3.11,1.71,6.11-.6,1.15.63,4.1,3.01,5.4,5.15,2.8,5.91,8.02,6.98,13.43,2.23.79,2.66-1.76,3.9-3.01,1.63.69,1.14,1.86.69,2.9-.32.74-1.09,1.31-1.3,2.06-.65,2.3-.13,4.44,2,5.63,2.56,1.43,1.02-2.92,3.13-2.41,2.09,2.42-2.04,5.76-.05,6.88,2.39,1.34,3.69,3.08,5.04,5.09,8.26,12.29,16.9,24.22,26.28,35.75,7.45,9.14,15.33,18.06,22.1,27.9,4.06,5.89,9.93,11.03,15.21,16.31,8.99,8.97,17.82,18.09,28.21,25.49,1.18.84,2.64,1.29,3.97,1.91,5.49,9.08,15.39,13.96,21.58,22.45-15.13-6.61-29.47-14.16-41.85-25.36-25.81-23.36-46.62-50.93-67.42-78.54-14.24-18.91-25.36-39.72-35.19-61.14-2.83-6.16-6.23-12.35-7.29-19.28Z"/>
  <path class="cls-37" d="M699.7,305.34c-5.99,13.68-12.02,27.34-17.96,41.04-5.84,13.47-8.64,27.82-11.89,42.02-3.72,16.25-9.2,31.69-17.16,46.46-7.36,13.68-15.97,26.47-25.15,38.85-6.79,9.16-15.09,17.19-22.73,25.71-.91,1.01-1.97,1.81-3.45,1.71-.42-.24-.88-.44-1.25-.74-3.95-3.14-3.76-5.26,0-9.36,16.72-18.24,33.91-36.15,46.34-57.89,10.15-17.75,15.11-37.18,19.12-56.95,3.38-16.62,6.6-33.28,12.05-49.38,3.23-9.55,8.89-17.1,18.7-20.79,1.06-.4,2.24-.47,3.36-.69Z"/>
  <path class="cls-41" d="M322.93,465.34c-.32-2.23-2.23-2.12-3.77-2.59-17.76-5.47-35.87-9.93-52.35-18.96-16.59-9.09-33.33-17.9-49.81-27.18-13.17-7.42-25.76-15.75-37.4-25.47-9.11-7.61-16-17.36-24.82-25.23-14.35-12.82-22.62-28.89-25.53-47.78-1.82-11.85-.13-23.5,2.59-35.04.61-2.58,1.18-5.16,1.76-7.74,5.88-.09,5.79-.12,4.39,5.49-4.18,16.69-6.11,33.51.05,50.07,5.98,16.09,16.87,28.93,29.43,40.27,23.89,21.57,50.61,39.26,78.01,55.95,11.84,7.21,24.81,12.01,37.82,16.59,13.65,4.81,26.15,12.21,39.67,17.29,3.82,1.43.73,2.9-.07,4.34Z"/>
  <path class="cls-5" d="M164.68,733.1c-4.91,2.17-10.08.84-15.11.88-3.53.03-4.63.91-5.1,4.65-.74,5.84-2.86,11.49-4.17,17.28-1.94,8.6-3.6,17.26-5.55,25.85-.6,2.64,1.24,4.27,1.93,6.37-9.3-5.24-20.25-5.53-29.86-9.95-2.48-1.14-3.53-2.19-2.98-4.7,2.74-12.38,5.19-24.83,9.04-36.94.2-.63.51-1.23.66-1.87,1.97-8.46,1.93-8.37,10.39-5.5,5.34,1.81,10.89,2.78,16.55,2.99,8.06.3,16.13.62,24.19.94Z"/>
  <path class="cls-5" d="M124.74,850.13c-1.55,11.4-2.72,22.87-4.83,34.16-.97,5.21-.49,10.56-2.11,15.64-8.54,1.49-17.14,1.35-25.75,1.04-5.43-.19-5.57-1-5.6-6.48-.07-12.85,3.76-25.21,4.31-37.95.15-3.34,1.67-4.44,5.06-4.47,5.27-.05,10.47.93,15.82.3,4.43-.51,8.87-.65,13.09-2.24Z"/>
  <path class="cls-63" d="M482.66,758.13c-.11-9.36-1.93-18.8,1.88-27.95,2.57-6.19,4.82-12.52,6.99-18.86,1.53-4.47,2.57-9.08,4.83-13.32.62-1.16.66-3.23.03-4.37-4.6-8.34-4.31-17.66-6.17-26.57-1.72-8.23-1.56-17.59-7.41-24.47-5.6-6.58-9.09-14.03-11.16-22.17-1.12-4.4-2.6-8.72-3.1-13.33-1.2-11.2-5.84-21.77-13.89-28.8-10.77-9.4-18.55-19.92-23.18-33.26-1.04-3-1.33-6.15-1.91-9.07-1.88-9.5-8.96-14.55-15.11-20.63-6.18-6.1-14.03-9.8-20.72-15.13-2.41-1.92-5.65-.17-8.08-1.91,10.57-.79,20.65-.19,30.2,5.7,5.66,3.49,12.4,5.3,18.79,7.48,2.91,1,2.86,2.58,1.44,4.29-6.39,7.69-4.7,16.1-2.51,24.61,4.92,19.19,17.4,32.06,34.52,40.9,3.95,2.04,4.51,4.44,3.97,8.8-2.73,22.16,4.1,41.24,19.76,57.18,2.79,2.84,5.17,5.05,3.25,10.4-1.92,5.35-1.18,11.9-.03,17.79,1.16,5.99,2.09,12.09,5.03,17.63,2.69,5.07-1.04,9.28-2.49,13.61-2.62,7.86-5.75,15.57-9.1,23.16-3.33,7.53-3.46,15.44-3.83,23.39-.08,1.81.96,4.21-2,4.89Z"/>
  <path class="cls-30" d="M600.82,366.16c-12.32,19.09-26.41,36.61-44.49,50.65-1.35,1.05-2.61,1.38-4.11,1.12-5.97-1.03-11.9-.85-17.73.81-1.52.43-2.38-.14-3.53-1.01-4.34-3.33-8.81-6.49-13.24-9.71-.16-1.83,1.39-2.14,2.52-2.61,19.61-8.23,37.1-20.18,55.1-31.24,6.53-4.02,13.35-7.58,21.18-8.42,1.45-.16,2.96-.79,4.29.42Z"/>
  <path class="cls-58" d="M498.67,740.14c5.53-8.29,14.4-12.05,22.96-15.53,11.66-4.73,23.62-4.09,34.76,2.41,1.7.99,3.58,1.55,5.05,3.55,2.63,3.59,7.38,2.46,8.87-1.87.78-2.27,2.04-4.08,3.16-6.09,1.85-3.3-.64-6.37-1.86-9.12-3.55-7.97-6.72-15.99-8.18-24.63-2.12-12.55-.67-24.72,3.99-36.51,1.42-3.6,2.46-7.34,4.65-10.68,1.46-2.24-.34-4.32-1.65-6.32-3.02-4.59-8.41-6.81-11.26-11.59-2.51-4.2-4.46-8.57-4.53-13.51-.09-6.49.11-12.99.03-19.48-.04-3.54,1.1-7.27,2.41-9.91,4.2-8.46-.22-14.56-3.49-21.49-4.04-8.56-7.91-17.81-6.52-27.2,1.46-9.92,1.06-20.22,4.87-29.8,1.02-2.56,1.14-5.47,1.68-8.22,4.23-.41,3.07,2.76,2.8,4.72-1.33,9.5-3.37,18.87-4.25,28.48-.84,9.15-1,18.14,3.77,26.04,6.14,10.17,7.01,20.57,3.68,31.55-5.24,17.29-.32,32.3,10.86,45.34,6.19,7.22,5.82,13.54,1.93,21.54-8.66,17.81-9.61,36.02-.3,54.09,2.51,4.86,6.5,8.72,9.18,13.52,1.12,2,1.21,3.02-.02,4.71-5.01,6.83-8.85,14.28-11.21,22.66-2.15-1.28-2.87-3.14-3.88-4.8-5.88-9.64-22.13-18.97-35.23-15.56-7.77,2.03-14.8,6.47-20.96,11.92-4.99,4.42-9.1,9.61-13.11,14.89-2.66-4.84.54-8.85,1.84-13.14Z"/>
  <path class="cls-25" d="M190.43,551.7c.5,4.68-1.49,8.69-2.01,12.93-2.62,21.38-2.56,42.72.06,64.07.32,2.57-.04,4.29-3.05,2.71-9.65-5.08-19.84-9.36-26.89-18.3-1.19-1.51-2.45-2.82-1.4-4.83,10.05-19.12,18.93-38.9,32.2-56.16.08-.11.29-.12,1.08-.41Z"/>
  <path class="cls-27" d="M469.51,1006.15c13.18,9.04,27.11,13.63,42.86,7.13,5.01-2.07,10.73-1.53,15.51-4.37,4.18,4.44,1.35,6.45-2.65,8.59-20.41,10.89-45.38,8.41-63.89-7.23-26.6-22.48-49.35-48.35-67.06-78.46-2.19-3.73-5.32-7.6-.75-11.84,6.95,11.24,11.67,23.72,19.61,34.43,6.79,9.16,13.9,17.98,22.59,25.43,1.1-.24,2.01.26,2.71.96,8.86,8.92,19.42,15.63,29.53,22.93.82.59,1.51,1.31,1.55,2.43Z"/>
  <path class="cls-16" d="M265.75,853.02c-9.54,4.53-19.61,7.05-30.1,8.01-10.43.95-20.86.62-31.28-.09-3.85-.26-5.31,1.48-4.62,5.04,1.87,9.61-.03,19.21-.57,28.71-.72,12.68.77,25.19,1.03,37.77.11,5.12.06,10.29.57,15.41-3.17,1-4.59-1.22-5.86-3.38-1.92-3.25-2.33-6.87-2.32-10.6.03-15.16.08-30.31-.04-45.47-.06-7.81-.31-15.62-.78-23.41-.3-4.97,1.47-7.32,6.61-7.67,12.25-.85,24.47-2.1,36.71-3.09,9.35-.76,18.2-3,26.9-6.75,5.35-2.31,3.28,3.06,3.74,5.52Z"/>
  <path class="cls-37" d="M231.46,757.25c-2.26,2.65-4.62,5.23-6.77,7.96-11.31,14.38-15.26,31.79-20.01,48.86-3.25,11.69-3.07,23.67-2.9,35.65.08,5.86,4.87,1.95,7.03,3.48-4.17,1.33-8.51,1.03-12.75.93-3.53-.08-3.27-3.54-3.13-5.73.42-6.6,1.36-13.17,2.05-19.76,1.54-14.54,5.38-28.66,7.88-43.03.97-5.6,2.93-10.87,6.31-15.55,5.51-7.64,10.97-15.32,16.76-23.43,1.94,3.79,4.62,6.7,5.52,10.61Z"/>
  <path class="cls-43" d="M392.68,378.19c-9.01,3.01-16.87,8.03-24.84,13.15-3.84,2.47-8.04,5.09-12.52,6.68-4.35,1.54-6.46,6.01-10.64,7.75-.88.37-.29,1.46.05,2.21-11.08-7.06-24.18-7.67-37.71-11.34,28.12-12.53,56.52-17.19,85.66-18.45Z"/>
  <path class="cls-31" d="M273.65,953.09c-9.03,3.58-18.68,4.32-28.13,5.79-13.92,2.15-27.77,1.12-41.53-1.71-4.55-.94-5.85.81-5.24,5.47.85,6.56,2.11,13.21,1.8,19.75-.54,11.27,2.87,21.99,3.56,33.07.46,7.4.84,14.89,2.58,22.17.27,1.11.7,2.19,1.06,3.28-2.35,1.87-3.94,1.15-5.81-1.06-3.5-4.14-4.03-9.06-4.18-14.03-.53-17.6-.83-35.2-1.29-52.8-.12-4.64-.47-9.27-.75-13.9-.4-6.66.72-8.33,7.46-7.7,16.21,1.52,32.43,2.06,48.7,1.87,5.57-.06,10.86-1.02,16.07-2.91,2.62-.95,5.66-2.12,5.7,2.69Z"/>
  <path class="cls-21" d="M668.74,342.27c-.57-3.47-2.79-1.43-4.13-1.03-11.28,3.42-17.35,12.2-20.86,22.47-4.35,12.73-8.79,25.42-14.47,37.58-4.06,8.69-9.41,16.73-15.99,23.91-6.92,7.54-14.85,14.21-20.38,23.01-.64,1.01-1.02,2.03-1.45,3.08-2.59-6.12-.96-10.66,4.1-15.13,20-17.68,30.99-41.02,40.12-65.45,2.78-7.45,5.17-15.07,9.4-21.91,4.5-7.27,11.13-11.24,19.41-12.46,6.03-.89,6.48-.1,4.26,5.93Z"/>
  <path class="cls-17" d="M128.84,844.23c-1.86.21-3.43.66-2.94-2.5,2.43-15.77,4.67-31.57,6.8-47.38.39-2.89,1.61-3.19,3.89-2.34,15.48,13.98,15.3,35.3-4.46,49.98-1.06.79-2.19,1.49-3.29,2.24Z"/>
  <path class="cls-3" d="M638.66,351.16c-6.04-.65-10.38,2.97-14.74,6.18-7.43,5.48-13.2,12.53-18.29,20.19-9.85,14.85-21.96,27.8-34.26,40.58-1.09,1.13-2.87,1.89-2.69,3.92-2.82-.9-5.64-1.8-9.25-2.95,3.69-3.09,6.95-5.71,10.09-8.48,12.3-10.88,21.93-24.03,31.57-37.18,6.35-8.66,12.3-17.73,21.57-23.76,3.98-2.59,8.25-4.38,13.05-4.3,5.13.08,5.7,1.35,2.95,5.8Z"/>
  <path class="cls-16" d="M600.82,366.16c-12.89,1.23-23.66,7.65-33.95,14.66-15.56,10.61-32.15,19.24-49.14,27.2-1.99-1.17-3.97-2.34-5.95-3.53-.09-.06-.08-.3-.24-1,5.79-2.41,11.74-4.72,17.56-7.33,13.75-6.19,25.27-15.97,37.99-23.81,8.81-5.43,17.83-10.43,28.52-11.03,1.32-.07,2.71-.16,3.97.14,3.15.75,4.68,2.12,1.23,4.69Z"/>
  <path class="cls-13" d="M444.55,674.88c-3.71,5.26-9.14,8.58-14.27,12.1-7.65,5.25-15.72,9.89-23.46,15.03-4.26,2.83-4.14-2.01-6.02-3.19-1.57-.98-2.43-2.25-.31-4.61,9.9-11,22-19.08,34.21-27.09,4.57.95,7.78,3.64,9.86,7.75Z"/>
  <path class="cls-56" d="M606.57,943.98c1.91-11.75,5.4-23.23,6.06-35.19.16-2.98.19-5.92-.76-8.88-.82-2.56,0-4.72,1.58-7.29,5.3-8.58,8.74-17.96,6.01-28.25-1.25-4.71-1.43-8.68,2.18-12.4,5.98-6.15,6.35-14.37,7.78-22.15.63-3.44-1.02-5.1-4.51-4.53-2.5.41-4.93.35-7.36-.31,3.93-2.1,7.77-4.42,11.83-6.21,3.29-1.45,5.28.29,6.12,3.61,1.58,6.19,1.28,12.22-1.56,17.99-1.91,3.87-3.94,7.69-6.1,11.43-2.55,4.4-4.34,8.81-3.66,14.16.67,5.22-1.07,10.33-3.11,14.99-2.28,5.2-1.6,11.6-6.37,15.78-.3.26-.15,1.33.11,1.87,4.88,9.93.9,19.54-1.51,28.98-1.45,5.66-3.22,11.46-6.74,16.4Z"/>
  <path class="cls-15" d="M368.4,610.99c3.67,2.04,7.33,4.08,11,6.13-4.94,14.61-9.73,29.26-13.97,45.26-2.98-4.84-6.8-8.32-6.49-13.59.78-13.16,3.35-25.94,9.45-37.8Z"/>
  <path class="cls-65" d="M273.73,999.13c-4.08,12.58-13.5,20.69-23.85,27.78-11.24,7.69-23.12,14.24-36.27,18.32-8.91,2.77-10.98,6.02-11.01,15.31-.05,14.29-.39,28.59,1.09,42.85.28,2.66.67,5.26,2.01,7.62-5.62-.03-7.05-3.59-6.65-8.28,1.31-15.42,2.04-30.88,1.63-46.34-.18-6.81,3.14-10.16,8.96-12.55,15.58-6.4,30.76-13.53,43.56-24.86,5.63-4.99,10.09-11.05,15.42-16.29,1.46-1.44,2.53-3.64,5.1-3.55Z"/>
  <path class="cls-7" d="M340.66,502.2c.08.32.06.76.26.94,6.77,6.12,11.82,13.89,18.93,19.72,3.92,3.22,9.32,3.72,12.86,7.76,2.68,3.06,5.13,6.67,9.47,7.91.86.25,1.05,1.13.65,2.06-.89,2.08-2.79,1.31-4.32,1.6-5.98-4.64-11.95-9.27-17.93-13.91-1.72-2.55-4.46-3.26-7.19-4.02-6.77-2.94-13.33-6.27-19.63-10.12-.42-.26-.86-.52-1.2-.86-2.28-2.32-5.67-4.47-4.54-8.15,1.15-3.77,5.11-2.94,8.16-3.16,1.48-.11,2.98.14,4.47.22Z"/>
  <path class="cls-2" d="M498.67,740.14c1.33,4.65-2.58,8.57-1.84,13.14-2.2,4.38-4.39,8.76-6.91,13.77-4.66-24.01,5.35-43.97,14.02-64.56,2.39,1.37,3.57,3.46,4.78,5.53-.4,5.25-4.09,9.04-6.17,13.53-2.76,5.96-4.14,12.07-3.88,18.59Z"/>
  <path class="cls-48" d="M444.55,674.88c-3.29-2.58-6.57-5.17-9.86-7.75,3.51-3.21,8.05-5.16,11.07-8.98,8.21-6.26,11.94-15.61,16.73-24.47,1.83.5,1.03,2.71,2.28,3.42,2.82,5.38.92,9.87-2.12,14.57-5.37,8.29-9.87,17.18-18.1,23.21Z"/>
  <path class="cls-10" d="M188.84,936.86c-.55,2.14.48,4.54-1.34,7.58-1.21-3.92-.7-7.01-.76-10-.11-6,.95-12.21-.27-17.96-3.6-16.97-.83-34.03-1.7-51.02-.08-1.55-.6-3.29.87-5.02,3.13,3.85,1,8.73,2.9,12.61.1,21.27.2,42.53.3,63.8Z"/>
  <path class="cls-33" d="M353.4,524.27c3.43-.51,6.26.04,7.19,4.02-2.4-1.34-4.79-2.68-7.19-4.02Z"/>
  <path class="cls-63" d="M382.69,498.27c-2.89,1.27-5.84,2.22-9.06,1.81,2.73-2.05,5.85-2.19,9.06-1.81Z"/>
  <path class="cls-6" d="M613.3,156.31c-3.62,4.58-6.3,9.35-9.93,13.47-5.33,6.05-11.21,10.53-19.52,11.83-5.08.8-9.09-.29-12.91-3.81-5.28,15.37-10.67,30.37-19.37,43.88-11.04,17.12-26.09,27.28-47.16,26.24-11.01-.54-21.42-3.25-29.37-11.62-5.93-6.25-9.12-13.81-9.41-22.47-.31-9.52-.4-18.99,4.87-27.59,2.38-3.89,5.05-7.47,8.86-9.97,1.96-1.29,4.13-2.36,5.14,1.54,3.24,12.56,11.94,19.18,25.37,19.48,19.55.44,31.65-10.76,40.69-26.46,3.27-5.67,5.2-11.88,5.42-18.49.05-1.49.66-3.65-1.62-4.17-2.51-.57-3.61,1.38-4.38,3.25-3.16,7.66-7.68,14.33-13.9,19.84-10.23,9.07-23.01,11-34.54,4.85-6.8-3.63-10.61-9.82-13.09-16.9-.52-1.49-.89-3.04-1.54-5.31-3.69,5.89-7,11.14-11,15.97-5.84,7.05-12.97,11.22-22.05,12.19-4.11.44-7.15-1.62-10.29-4.32-5.09,15.23-10.73,29.93-19.03,43.43-16.7,27.18-44.84,32.94-68.89,21.2-10.51-5.13-15.91-14.6-17.25-25.9-1.63-13.74-.25-26.99,10.27-37.55,1.04-1.05,2.24-2,3.52-2.73,2.34-1.33,3.92-1.63,4.87,1.98,3.17,12.16,12.1,18.75,25.26,19.17,18.68.59,30.62-9.95,39.88-24.56,3.69-5.81,5.66-12.4,6.41-19.26.2-1.83.99-4.46-1.42-5.31-2.62-.93-3.89,1.37-4.73,3.38-3.05,7.31-7.39,13.66-13.16,19.12-9.97,9.45-24.08,11.92-35.29,5.39-8.38-4.88-12.66-12.87-14.4-22.29-2.01.09-2.38,1.63-3.12,2.83-5.1,8.26-11.04,15.81-19.39,21.01-7.1,4.42-14.92,5.67-22.97,3.29-8.63-2.54-12.4-9.38-14.47-17.55-1.28-5.06-.67-10.21-1.14-16.4-2.75,4.31-4.87,7.92-7.27,11.34-5.67,8.05-11.91,15.61-21.03,19.98-18.99,9.11-35.07,1.15-39.46-19.39-.45-2.09-.83-4.19-1.37-6.98-4.39,5.48-7.84,11.11-12.5,15.82-8.01,8.1-17.05,13.75-28.71,14.28-17.19.78-28.93-8.1-29.43-26.07-.4-14.32,5.58-26.83,10.83-39.57,2.15-5.21,4.56-10.3,6.08-15.77,1.72-6.22-4.55-15.62-10.96-16.36-2.41-.28-2.19,1.72-2.74,2.82-9.69,19.68-19.15,39.47-28.97,59.08-5.99,11.95-12.92,23.36-24.44,30.93-5.82,3.82-12.26,5.55-19.42,4.63-11.01-1.41-15.63-8.93-18.33-18.39-1.53-5.34-1.52-10.84-.9-17.68-3.34,5.23-5.91,9.5-8.73,13.6-4.44,6.43-9.23,12.57-15.88,16.98-19.62,13.02-41.48,3.46-44.42-19.94-3.12-24.78,2.66-47.98,15.12-69.42,7.03-12.09,16.24-22.21,29.53-27.88,8.52-3.63,17.45-4.03,26.44-3.36,5.12.38,9.59,2.8,12.82,6.93,1.68,2.16,3.57,4.9,6.14,4.42,3.04-.56,3.14-4.22,3.9-6.88,4-13.9,8.04-27.79,14.65-40.76,3.34-6.55,7.06-12.72,13.61-16.69C125.85.95,128.74,0,132,0c5.83,0,9.19,3.13,9.73,9.03.67,7.31-2.57,13.62-5.08,20.09-8.61,22.15-17.28,44.28-26,66.39-1.95,4.94-4.27,9.72-5.27,15.02-.88,4.65-.97,9.16,2.81,12.41,3.96,3.41,8.84,2.58,13.29,1.03,3.93-1.37,7.33-3.84,9.99-7.22,8.14-10.36,12.82-22.45,17.45-34.57.5-1.31.51-2.24-.8-3.42-6.67-6.03-8.19-13.68-4.63-21.92,4.45-10.3,12.87-15.48,24.78-14.43,12.48,1.1,24.01,5.09,33.94,13.05,10.57,8.47,12.76,16.2,8.25,28.93-2.77,7.81-6.64,15.2-8.18,23.49-1.14,6.11-.5,11.37,5.07,14.88,5.35,3.37,11.48,3.38,16.69.57,5.22-2.82,8.87-7.62,10.84-13.67,6.4-19.73,16.36-37.07,34.78-48.1,11.1-6.65,23.31-7.32,35.73-5.22,3.07.52,5.75,2.43,8.25,4.46,6.46,5.26,8.21,5.31,14.81.28,4.6-3.51,9.29-6.27,15.48-5.68,4.36.42,6.64,2.48,7.39,6.64,1.07,5.94-1.23,11.13-3.53,16.31-4.04,9.11-8.73,17.94-11.79,27.46-.56,1.73-.96,3.52-1.25,5.31-.69,4.39-1,9.23,2.88,11.95,4.27,3,9.53,2.68,14.33.46,7.94-3.68,11.96-10.27,14.67-18.46,5.99-18.13,16.16-33.47,32.9-43.54,10.91-6.57,22.94-7.38,35.21-5.26,3.79.66,6.98,2.9,9.93,5.46,4.71,4.08,7.23,4.1,12.36.26,4.81-3.6,9.37-7.37,16.09-6.57,5.26.62,7.33,2.54,7.83,7.74.58,5.99-1.82,11.13-4.31,16.17-5.52,11.19-10.54,22.58-14.8,34.31-1.43,3.94-2.32,7.99-2.15,12.18.29,7.12,5.23,10.27,11.59,7.28,3.87-1.82,6.92-4.77,10.03-7.78,7.96-7.69,11.37-17.63,15.47-27.47,5.76-13.81,14.4-25.71,26.96-34.42,10.89-7.55,23.12-8.87,35.79-7.82,4.12.34,7.92,2.35,11.24,5.01,6.85,5.5,8.59,5.61,15.47.03,4.15-3.37,8.4-5.72,14.02-5.25,5.51.46,8.01,2.78,8.36,8.41.32,5.22-1.7,9.82-3.93,14.26-5.51,11.01-10.32,22.3-14.83,33.75-1.68,4.26-2.54,8.65-2.99,13.05-.74,7.14,5.52,11.58,11.8,8.17,9.9-5.37,17.27-13.67,21.21-24.09,5.01-13.22,9.46-26.63,16.71-38.85,3.53-5.95,7.76-11.31,14.52-13.84,8.48-3.18,13.41.15,13.58,9.14.2,10.58-4.18,20.09-7.26,29.89-1.7,5.39-3.7,10.68-3.87,16.41-.13,4.34-.72,9.28,3.64,11.73,5.11,2.87,10.7,1.84,15.75-.84,6.64-3.53,9.48-9.92,11.78-16.63,4.69-13.69,9.04-27.58,17.34-39.64,3.86-5.61,8.35-10.84,16.16-10.93,9.33-.11,14.04,5.69,11.92,14.87-2.59,11.22-7.58,21.59-11.51,32.34-2.34,6.39-5.11,12.64-6.03,19.46-.58,4.3-.33,8.58,3.81,11.05,4.2,2.5,7.88.5,11.39-2.17,6.03-4.6,10.63-10.45,15.02-16.52,3.44-4.76,5.76-5.3,10.41-2.55,4.35,2.57,3.69,5.75,1.82,9.72-5.88,12.47-11.47,25.08-18.28,37.09-4.31,7.6-9.67,14.54-17.04,19.11-6.48,4.01-13.81,6.93-21.4,1.46-3.54-2.56-2.93,1.4-3.34,2.66-4.66,14.43-10.14,28.5-18.27,41.37-10.47,16.59-25.16,25.78-45.23,24.64-18.15-1.04-34.65-8.95-38.02-30.41-2.27-14.46-.55-28.24,10.7-39.15,5-4.85,6.45-4.42,8.3,2.11,2.92,10.32,11.33,16.24,22.02,16.92,25.87,1.65,44.29-23.13,46.33-44.03.2-2.02.27-4.45-2.06-5.08-2.52-.68-3.28,1.87-4.04,3.59-3.57,8.16-8.15,15.51-15.35,21.06-10.5,8.09-27.52,8.68-37.18,1.14-5.65-4.41-7.27-10.84-8.88-17.75Z"/>
  <path class="cls-36" d="M563.97,789.5c-.81,14.47-4.08,28-16.02,37.66-11,8.9-24.86,6.69-33.06-4.88-11.9-16.79-9.97-46.16,4.01-61.24,13.01-14.04,30.91-11.65,39.73,5.36,3.74,7.21,5.4,14.94,5.35,23.1Z"/>
  <path class="cls-36" d="M596.93,790.81c1.05-15.13,5.52-28.62,18.74-37.77,1.22-.84,2.57-1.52,3.93-2.13,10.43-4.7,17.13.79,17.67,10.95.91,17.14-4.99,32.87-17.51,45.16-7.28,7.15-17.15,4.54-20.99-4.89-1.45-3.56-2.27-7.32-1.84-11.31Z"/>
  <path class="cls-64" d="M603.65,843.89c-1.44,26.13-6.85,51.25-19.23,74.56-.8,1.51-1.48,3.81-3.66,3.2-1.79-.5-1.65-2.57-1.61-4.3.2-8.96.32-17.93.46-26.9.12-7.23-1.4-14.14-3.59-21.01-2.54-7.94-7.4-13.53-15.01-16.95-5.07-2.28-5.2-4.02-.72-7.14,5.51-3.82,10.81-7.74,13.18-14.42.77-2.17,2.48-2.67,4.41-1.61,6.93,3.83,14.01,5.72,21.88,2.86,2.35-.86,3.78.8,3.86,3.23.09,2.82.02,5.65.02,8.48Z"/>
  <path class="cls-53" d="M590.35,750.12c-3.25-.15-4-1.52-3.04-4.6,3.15-10.21,9.8-17.19,19.47-21.27,3.94-1.66,8.18-2.65,12.33-3.8,3.89-1.08,7.31-.09,8.31,4.03.97,4.03-1.76,5.94-5.52,6.76-4.05.88-8.18,1.65-12.01,3.15-5.35,2.1-9,6.46-12.36,10.97-1.86,2.5-3.98,4.46-7.17,4.76Z"/>
  <path class="cls-24" d="M594,941.61c.39,5.07-3.45,7.55-5,10.98-6.31,13.92-15.26,26.17-26.26,36.85-2.15,2.09-4.99,5.25-7.55,2.94-3.02-2.71.82-5.54,2.62-7.32,5.2-5.11,10.2-10.31,14.23-16.42,4.82-7.3,9.36-14.74,13.16-22.63.93-1.94,2.11-3.76,3.26-5.58.93-1.47,1.63-3.74,3.97-2.76,1.92.81,2.65,2.54,1.57,3.92Z"/>
  <path class="cls-49" d="M326.82,672.18c1.29-.04,2.13.77,2.99,1.57,6.21,5.73,11.44,12.08,15.32,19.77,3.62,7.15,8.26,13.78,11.45,21.22.97,2.26.91,3.87-1.32,4.93-2.46,1.18-3.4-.46-4.48-2.42-7.32-13.36-13.25-27.64-24.74-38.31-1.7-1.58-1.56-3.56-1.17-5.55.19-.98,1.07-1.14,1.93-1.2Z"/>
  <path class="cls-18" d="M529.62,746.5c-.02,2.01-.13,3.59-1.94,3.46-2.78-.19-4.5,2.16-6.68,2.65-5.75,1.29-7.83,5.94-10.71,9.99-.38.54-.78,1.08-1.24,1.55-1.04,1.06-2.11,2.42-3.81,1.59-1.86-.9-1.7-2.56-1.26-4.31,1.88-7.38,7.34-11.6,13.49-15.09,2.54-1.44,5.37-2.16,8.37-2.63,3.38-.54,3.72.95,3.78,2.8Z"/>
  <path class="cls-38" d="M159.68,319.87c.1-1.65-.23-3.19,1.59-3.56,1.47-.3,2.41.42,3.27,1.68,2.78,4.1,3.9,9.03,6.93,13.05,4.45,5.89,8.02,12.52,12.88,18.02,6.9,7.81,14.32,15.18,21.95,22.37,11.06,10.41,23.37,19.21,35.98,27.27,12.27,7.85,25.27,14.87,38.78,20.65,3.65,1.56,6.89,3.88,10.68,5.26,1.61.58,3.86,2.77,2.32,5.24-1.26,2.02-3.49,1.64-5.37.62-8.56-4.63-17.21-9.25-26.02-13.22-8.36-3.77-15.92-8.66-23.63-13.31-11.29-6.8-22.08-14.45-32.15-23.05-9.75-8.34-18.97-17.25-26.98-27.22-7.71-9.59-16-19-19.6-31.24-.28-.95-.48-1.92-.64-2.55Z"/>
  <path class="cls-12" d="M535.55,708.18c-1.35-.2-2.95.34-3.86-1.24-.11-2.17.18-4.1,1.4-6.13,6.32-10.54,6.3-21.78,4.27-33.63-1.82-10.62-6.51-20.24-8.95-30.62-2.99-12.73-4.05-25.78-7.46-38.45-2.97-11.03-9.06-20.04-15.73-28.87-5.43-7.19-10.06-14.86-12.56-23.52-2.98-10.32-5.65-20.68-11.9-29.68-3.68-5.3-9.09-8.58-14.08-12.3-9.59-7.17-20.66-12.25-28.74-21.61-5.24-6.08-7.95-13.8-13.59-19.49-2.33-2.36-3.82-5.38-6.53-7.46-5.02-3.86-10.04-7.55-16.68-7.99-3.1-.21-4.03-1.85-3.04-4.76.44-1.31,2.77-1.79,4.57-1.55,2.54.33,4.71,1.51,7.06,2.22,13.08,3.93,19.6,14.6,26.02,25.23,4.83,7.99,11.62,13.99,18.76,19.59,4.12,3.24,8.86,5.78,13.34,8.59,11.7,7.35,21.06,17.03,25.82,30.4,2.03,5.7,4.27,11.31,5.56,17.28,1.76,8.14,6.8,14.65,11.35,21.41,6.98,10.38,15.78,20,17.56,32.95,1.66,12.06,5.32,23.7,6.5,35.83.75,7.65,4.7,14.39,6.82,21.67,1.25,4.3,2.15,8.73,2.67,12.98.67,5.44,1.36,10.97.88,16.71-.73,8.81-4.95,15.55-9.47,22.44Z"/>
  <path class="cls-38" d="M585.66,668.76c-.37-4.08.2-8.52.96-12.95,1.84-10.73-1.49-20.27-7.32-28.98-4.27-6.37-6.28-13.45-6.46-20.78-.18-7.53-.44-15.03,1.11-22.74,1.49-7.38,1.5-15.14-2.18-23.14-7.61-16.51-10.03-34.11-3.65-51.95.33-.93.88-1.79,1.32-2.69.7-1.44,1.6-2.72,3.43-2.09,1.74.6,2.01,2.24,1.68,3.74-.87,4.05-1.81,8.05-2.22,12.21-1.06,10.75-1.05,20.96,3.5,31.45,5.72,13.2,7.84,27.16,3.7,41.85-3.3,11.71.1,23.19,6.58,33.2,6.62,10.2,9.27,20.74,6.9,32.71-1.92,9.68-1.67,19.44.97,28.99.72,2.59.93,4.99-1.71,5.9-2.53.86-3.97-1.63-4.5-3.61-1.81-6.75-2.4-13.69-2.12-21.11Z"/>
  <path class="cls-39" d="M708.62,343.02c.91,8.74-2.02,18.56-3.21,28.57-1.39,11.74-5.13,22.82-9.16,33.75-3.38,9.16-8.95,17.31-14.61,25.32-8.99,12.73-19.25,24.43-29.06,36.5-1.99,2.44-4.25,4.66-6.44,6.93-1.14,1.18-2.29,2.71-4.12.89-1.67-1.67-1.91-3.45-.36-5.31,2.02-2.42,4-4.87,6.14-7.18,8.56-9.27,15.92-19.48,23.61-29.45,6.8-8.81,13.03-17.95,17.72-27.98,3.56-7.61,5.54-15.84,7.57-24.03,2-8.05,2.74-16.24,4-24.38,1.19-7.7,1.95-15.43,1.91-23.23,0-1.16-.07-2.34.08-3.49.27-2.01,1.41-3.59,3.5-3.56,2.16.03,2.42,1.9,2.42,3.67,0,3.83,0,7.66,0,12.98Z"/>
  <path class="cls-11" d="M264.37,876.24c-.56,12.9,3.12,24,4.64,35.38,1.38,10.38-1.03,20.02-5.79,29.15-.85,1.63-2.32,3.02-4.5,1.66-1.94-1.22-1.75-2.69-.96-4.69,2.91-7.39,6.12-14.89,4.78-23.02-1.02-6.18-2.19-12.37-3.49-18.49-2.22-10.44-2.37-21.03-3.65-31.52-.24-1.97.7-3.07,2.14-3.35,2.61-.51,4.38,1.6,4.73,3.53.76,4.19.26,8.62,2.09,11.36Z"/>
  <path class="cls-38" d="M283.63,1067.12c.75,3.43-.69,7.12-1.04,10.9-.29,3.16-2.82,4.13-5.41,3.84-3.08-.35-2.93-3.1-2.17-5.08,4.11-10.74.98-21.47-.83-31.85-.94-5.39-3.22-10.96-4.87-16.46-1.08-3.62-.4-7.27-.61-10.9-.09-1.57.75-2.48,2.12-3.01,1.64-.64,2.56.5,3.26,1.59.7,1.09,1.39,2.38,1.5,3.63,1,10.95,5.08,21.27,6.54,32.12.66,4.91,1.89,9.76,1.52,15.22Z"/>
  <path class="cls-61" d="M469.51,1006.15c-11.8-8.08-23.75-15.97-33.79-26.32.93-4.65-4.22-5.51-5.56-8.88-1.06-2.66-5.64-5-2.43-7.89,3.25-2.93,5.12,1.73,6.82,3.59,7.03,7.7,13.92,15.53,22.18,21.96,13.42,10.45,27.83,17.27,45.36,11.15,1.98-.69,4.03-1.45,5.19.96,1.09,2.28-.49,3.52-2.28,4.79-2.4,1.72-4.9,2.36-7.83,2.63-9.36.86-18.42-1.66-27.65-2Z"/>
  <path class="cls-60" d="M401.77,627.05c-3.03-1.54-4.49-4.38-5.9-7.24-.64-10.4,3.57-18.96,10.09-26.64,2.3-2.71,5.15-4.69,8.53-5.76,5.43-1.71,10.36.89,12.22,6.29,4.19,12.16-7.37,31.53-20.08,33.85-1.78.33-3.23-.57-4.86-.5Z"/>
  <path class="cls-52" d="M385.33,603.94c-.48-4.79-3.81-8.32-5.58-12.53,7.68-8.8,16.26-16.48,26.07-22.95,4.44-2.93,7.33-2.71,10.56,1.36-12.7,9.23-24.92,18.93-31.04,34.12Z"/>
  <path class="cls-45" d="M418.2,92.96c10.43.05,15.75,6.47,13.56,16.27-2.13,9.52-7.15,16.86-17.09,19.43-10.33,2.67-18.01-4.89-16.27-15.49,1.22-7.38,4.34-13.5,10.72-17.69,2.87-1.88,5.98-2.87,9.07-2.51Z"/>
  <path class="cls-59" d="M546.14,92.95c9.81-.02,15.06,6.31,13.2,15.95-1.97,10.19-9.21,18.3-17.84,19.98-8.2,1.6-14.31-2.43-15.72-10.48-1.78-10.2,6.93-26.39,20.36-25.45Z"/>
  <path class="cls-8" d="M268.69,115.45c.04-12.81,9.8-22.81,21.94-22.46,7.07.2,11.59,4.74,11.91,11.94.46,10.3-7.81,21.25-17.81,23.59-9.79,2.29-16.07-2.83-16.03-13.07Z"/>
  <path class="cls-54" d="M59.83,92.96c8.22.04,12.42,3.76,13.15,11.66.84,9.06-6.66,20.75-15.36,23.5-9.49,3-18.84-.38-18.32-13.34.48-11.94,9.56-21.88,20.52-21.82Z"/>
  <path class="cls-57" d="M531.21,828.82c7.82-11.84,12.26-23.74,12.43-37.13.15-11.62-4.31-21.72-9.82-31.45-2.08-3.67-.9-4.09,2.47-4.24,8.62-.38,14.03,4.43,18.02,11.18,9.92,16.78,6.2,42.16-7.8,55.74-4.08,3.96-8.87,5.48-15.3,5.9Z"/>
  <path class="cls-50" d="M610.21,807.13c2.5-3.85,4.5-6.8,6.38-9.83,7.52-12.11,9.67-25.58,9.96-39.53.03-1.48-1.13-3.79,1.15-4.24,1.63-.32,2.83,1.48,3.74,2.89.99,1.53,2.12,3.04,2.1,4.97-.15,15.82-4.99,29.92-15.58,41.85-1.79,2.02-4.17,2.99-7.75,3.89Z"/>
  <path class="cls-19" d="M582.73,911.87c.81-10.69,1.65-20.47.23-30.24-2-13.75-5.68-26.54-20.32-32.83,5.32-4.41,11.14-7.68,13.53-14.22.6-1.64,1.9-.66,2.93-.18,6.48,3.03,13.17,4.45,20.21,2.11,2.36,18.18-6.65,59.74-16.59,75.36Z"/>
</svg>