<svg xmlns="http://www.w3.org/2000/svg" width="186" height="60" viewBox="0 0 186 60" fill="none"><path d="M184.306 56.6287C184.306 59.8618 1.85442 58.1899 1.90974 55.9648L1.00003 3.23876C0.913977 0.35597 183.052 1.08128 183.052 1.08128C186.371 1.05054 184.306 56.6287 184.306 56.6287Z" fill="#C78817" stroke="black" stroke-width="2" stroke-miterlimit="10"></path><path opacity="0.2" d="M3.05315 56.2722L1.91602 55.3379L6.83949 51.8405L6.90096 52.3752L168.823 53.3894L178.682 52.3752L179.917 51.0537L180.464 52.4244L184.318 56.2722L183.249 57.0344L173.162 57.772L14.7134 56.9852L3.05315 56.2722Z" fill="black"></path><path d="M5.97904 12.7661C5.97904 12.7661 5.11851 5.60521 6.606 5.60521C12.8817 5.60521 134.721 5.22412 134.721 5.22412" fill="#C78817"></path><path d="M5.97904 12.7661C5.97904 12.7661 5.11851 5.60521 6.606 5.60521C12.8817 5.60521 134.721 5.22412 134.721 5.22412" stroke="black" stroke-width="2" stroke-linecap="round" stroke-linejoin="round"></path><path d="M6.13232 17.2408C6.13232 17.2408 6.52571 50.4205 7.30634 52.1416C8.08696 53.8627 105.942 53.082 105.942 53.082" fill="#C78817"></path><path d="M6.13232 17.2408C6.13232 17.2408 6.52571 50.4205 7.30634 52.1416C8.08696 53.8627 105.942 53.082 105.942 53.082" stroke="black" stroke-width="2" stroke-linecap="round" stroke-linejoin="round"></path><path d="M141.415 53.2603C141.415 53.2603 178.454 54.4958 179.708 51.7729C180.962 49.0499 179.708 31.0586 179.708 31.0586" fill="#C78817"></path><path d="M141.415 53.2603C141.415 53.2603 178.454 54.4958 179.708 51.7729C180.962 49.0499 179.708 31.0586 179.708 31.0586" stroke="black" stroke-width="2" stroke-linecap="round" stroke-linejoin="round"></path><path d="M145.336 5.218C145.336 5.218 177.194 3.96408 177.981 6.15844C178.768 8.3528 179.235 23.5781 179.235 23.5781" fill="#C78817"></path><path d="M145.336 5.218C145.336 5.218 177.194 3.96408 177.981 6.15844C178.768 8.3528 179.235 23.5781 179.235 23.5781" stroke="black" stroke-width="2" stroke-linecap="round" stroke-linejoin="round"></path><path d="M1.91602 55.9647C1.91602 55.9647 5.01393 52.9283 7.21444 51.7543Z" fill="#C78817"></path><path d="M1.91602 55.9647C1.91602 55.9647 5.01393 52.9283 7.21444 51.7543" stroke="black" stroke-width="2" stroke-linecap="round" stroke-linejoin="round"></path><path d="M179.702 51.7789C179.702 51.7789 183.261 54.6802 184.306 56.6286Z" fill="#C78817"></path><path d="M179.702 51.7789C179.702 51.7789 183.261 54.6802 184.306 56.6286" stroke="black" stroke-width="2" stroke-linecap="round" stroke-linejoin="round"></path><path d="M6.60576 5.59909C6.60576 5.59909 2.40759 4.757 1 3.23877Z" fill="#C78817"></path><path d="M6.60576 5.59909C6.60576 5.59909 2.40759 4.757 1 3.23877" stroke="black" stroke-width="2" stroke-linecap="round" stroke-linejoin="round"></path><path d="M177.981 5.87567C177.981 5.87567 181.995 3.41086 183.199 1.34558Z" fill="#C78817"></path><path d="M177.981 5.87567C177.981 5.87567 181.995 3.41086 183.199 1.34558" stroke="black" stroke-width="2" stroke-linecap="round" stroke-linejoin="round"></path><path opacity="0.2" d="M178.682 52.3752L179.979 50.7279L179.032 18.4579L178.055 6.4289L179.124 5.218L183.47 1.0813L184.791 13.2763V46.9662L184.318 56.2722L180.464 52.4244L178.682 52.3752Z" fill="black"></path><mask id="path-20-outside-1_367_790" maskUnits="userSpaceOnUse" x="19" y="9.20898" width="145" height="35" fill="black"><rect fill="white" x="19" y="9.20898" width="145" height="35"></rect><path d="M32.6683 14.609C33.9056 14.609 35.5269 15.1317 37.5323 16.177C39.7296 17.329 40.8283 18.3957 40.8283 19.377C40.8283 19.569 40.7536 19.7503 40.6043 19.921C38.5989 19.3236 36.7643 19.0036 35.1003 18.961C34.6523 18.9397 34.1829 18.9717 33.6923 19.057C33.5429 19.0783 33.3509 19.1103 33.1163 19.153C33.0309 19.153 32.9243 19.2063 32.7963 19.313C29.2763 19.313 27.0363 19.857 26.0763 20.945C25.1803 21.9477 24.7323 24.2517 24.7323 27.857C24.7323 30.609 26.1083 32.6677 28.8603 34.033C30.3109 34.7583 32.9029 35.473 36.6363 36.177C40.0923 36.817 41.8309 37.457 41.8523 38.097L40.9883 39.793L37.9483 40.209C34.4709 40.209 31.4736 39.729 28.9563 38.769C25.6709 37.5317 23.4736 35.5583 22.3643 32.849C21.5963 30.929 21.2016 28.9663 21.1803 26.961C21.1589 23.6543 22.2363 20.7957 24.4123 18.385C26.6523 15.8677 29.4043 14.609 32.6683 14.609ZM54.363 14.609C56.731 14.5876 58.9177 16.049 60.923 18.993C62.9497 21.9157 63.9737 25.2863 63.995 29.105C64.0163 32.2623 62.2883 34.9717 58.811 37.233C55.7817 39.1957 52.699 40.1877 49.563 40.209C47.5577 40.2303 46.0537 38.9823 45.051 36.465C44.3043 34.609 43.931 32.4437 43.931 29.969C43.931 26.1503 44.7523 22.769 46.395 19.825C48.3363 16.369 50.9923 14.6303 54.363 14.609ZM48.635 30.353C48.5923 30.5023 48.5603 30.5983 48.539 30.641C48.5177 30.6837 48.347 30.961 48.027 31.473C47.7283 31.985 47.579 32.4543 47.579 32.881C47.579 33.5637 47.931 34.2997 48.635 35.089L50.139 35.857C50.5657 36.0703 51.2377 36.1983 52.155 36.241L53.883 36.113C54.7363 36.0277 55.963 35.0357 57.563 33.137C59.1843 31.217 60.0057 29.0197 60.027 26.545C60.0483 24.689 59.547 22.9823 58.523 21.425C57.371 19.6543 55.899 18.769 54.107 18.769L53.403 18.833C51.8457 18.833 50.6617 20.0063 49.851 22.353C49.1043 24.5503 48.699 27.217 48.635 30.353ZM73.544 14.609C75.464 14.5876 77.256 15.5263 78.92 17.425C80.4987 19.2383 81.2987 21.1263 81.32 23.089C81.3413 25.2223 80.5093 26.929 78.824 28.209C77.288 29.3823 75.4213 29.9797 73.224 30.001C71.9013 30.0223 70.8453 29.777 70.056 29.265L70.696 33.649C70.9307 35.2277 71.0267 36.4863 70.984 37.425L70.952 38.193C70.952 38.3637 70.9307 38.609 70.888 38.929C70.824 39.7397 70.408 40.1663 69.64 40.209L69 40.145C68.744 40.1237 68.488 39.9423 68.232 39.601L67.464 38.609L66.312 33.073C65.9707 31.4303 65.7893 30.225 65.768 29.457L65.608 23.089C65.544 20.721 66.408 18.705 68.2 17.041C69.9067 15.441 71.688 14.6303 73.544 14.609ZM69.544 23.409C69.6507 24.8597 69.7787 25.8303 69.928 26.321C70.0347 26.6623 70.888 26.8437 72.488 26.865C74.088 26.8863 75.4107 26.545 76.456 25.841C77.6507 25.0517 78.3333 23.8996 78.504 22.385C77.864 21.0836 77.2347 20.1983 76.616 19.729C75.8907 19.153 74.8667 18.865 73.544 18.865C72.1787 18.8436 71.1333 19.153 70.408 19.793C69.704 20.4117 69.3947 21.3183 69.48 22.513L69.544 23.409ZM88.973 14.897C89.357 15.153 89.6557 15.5583 89.869 16.113C90.0183 16.7103 90.1037 17.329 90.125 17.969C90.1463 18.417 90.0823 19.1317 89.933 20.113L89.741 21.425C89.741 22.513 89.9117 23.6757 90.253 24.913C90.5943 26.129 91.149 26.7797 91.917 26.865L93.325 27.025C94.3277 27.025 95.309 26.1717 96.269 24.465L99.085 19.409C100.301 17.617 101.698 16.721 103.277 16.721C103.832 16.9556 104.13 17.4996 104.173 18.353C104.194 18.673 104.056 19.3983 103.757 20.529L103.341 22.161C103.341 24.4437 102.84 27.1423 101.837 30.257C100.877 33.2223 99.6183 35.697 98.061 37.681C96.013 40.305 93.7197 41.6277 91.181 41.649C86.381 41.6917 83.789 41.1263 83.405 39.953C83.149 39.1637 83.021 38.609 83.021 38.289C83.021 37.8837 83.245 37.6703 83.693 37.649C83.7783 37.649 84.3757 37.777 85.485 38.033L87.533 38.513C87.981 38.577 88.5463 38.609 89.229 38.609C93.0263 38.609 95.9383 36.5397 97.965 32.401C98.7543 30.801 99.2023 29.4037 99.309 28.209L99.629 24.849L97.485 28.273C96.653 29.361 95.5117 29.905 94.061 29.905C92.4183 29.905 91.0957 29.6063 90.093 29.009C89.0903 28.4117 88.2157 27.377 87.469 25.905C86.445 23.921 85.933 22.001 85.933 20.145V18.257C85.933 17.041 85.9437 16.369 85.965 16.241C86.093 15.537 86.477 15.0463 87.117 14.769L88.973 14.897ZM125.887 14.609C127.124 14.609 128.746 15.1317 130.751 16.177C132.948 17.329 134.047 18.3957 134.047 19.377C134.047 19.569 133.972 19.7503 133.823 19.921C131.818 19.3236 129.983 19.0036 128.319 18.961C127.871 18.9397 127.402 18.9717 126.911 19.057C126.762 19.0783 126.57 19.1103 126.335 19.153C126.25 19.153 126.143 19.2063 126.015 19.313C122.495 19.313 120.255 19.857 119.295 20.945C118.399 21.9477 117.951 24.2517 117.951 27.857C117.951 30.609 119.327 32.6677 122.079 34.033C123.53 34.7583 126.122 35.473 129.855 36.177C133.311 36.817 135.05 37.457 135.071 38.097L134.207 39.793L131.167 40.209C127.69 40.209 124.692 39.729 122.175 38.769C118.89 37.5317 116.692 35.5583 115.583 32.849C114.815 30.929 114.42 28.9663 114.399 26.961C114.378 23.6543 115.455 20.7957 117.631 18.385C119.871 15.8677 122.623 14.609 125.887 14.609ZM150.046 12.177C151.944 12.1556 153.672 13.7557 155.23 16.977C156.958 20.5397 158.056 23.3663 158.526 25.457L161.47 37.969L161.214 38.897C161.086 39.281 160.904 39.569 160.67 39.761C160.435 39.953 160.19 40.081 159.934 40.145L159.294 40.209C158.867 40.209 158.568 40.1877 158.398 40.145L157.63 39.921V38.321L157.662 36.785C157.704 35.1637 157.47 33.9797 156.958 33.233C156.467 32.4863 155.432 32.113 153.854 32.113C149.416 32.0917 146.643 32.3157 145.534 32.785C144.424 33.233 143.571 34.2037 142.974 35.697C142.376 37.1903 141.288 38.545 139.71 39.761L138.942 39.985L138.11 40.049C137.704 40.049 137.416 39.9317 137.246 39.697C137.16 39.4837 137.118 39.1957 137.118 38.833C137.118 38.1503 137.192 37.4677 137.342 36.785C137.555 35.889 137.747 35.217 137.918 34.769C138.536 33.297 139.603 29.9263 141.118 24.657C142.376 20.3477 143.635 17.105 144.894 14.929C145.96 13.1156 147.678 12.1983 150.046 12.177ZM143.902 29.873L145.694 29.617L146.814 29.521L149.726 29.745C150.216 29.7663 150.91 29.6277 151.806 29.329C152.574 29.073 153.566 28.5077 154.782 27.633C154.526 25.713 153.843 23.377 152.734 20.625C151.646 17.9583 150.814 16.6143 150.238 16.593L149.662 16.529H149.374C147.475 16.529 146.323 18.3423 145.918 21.969C145.512 25.5957 144.84 28.2303 143.902 29.873Z"></path></mask><path d="M32.6683 14.609C33.9056 14.609 35.5269 15.1317 37.5323 16.177C39.7296 17.329 40.8283 18.3957 40.8283 19.377C40.8283 19.569 40.7536 19.7503 40.6043 19.921C38.5989 19.3236 36.7643 19.0036 35.1003 18.961C34.6523 18.9397 34.1829 18.9717 33.6923 19.057C33.5429 19.0783 33.3509 19.1103 33.1163 19.153C33.0309 19.153 32.9243 19.2063 32.7963 19.313C29.2763 19.313 27.0363 19.857 26.0763 20.945C25.1803 21.9477 24.7323 24.2517 24.7323 27.857C24.7323 30.609 26.1083 32.6677 28.8603 34.033C30.3109 34.7583 32.9029 35.473 36.6363 36.177C40.0923 36.817 41.8309 37.457 41.8523 38.097L40.9883 39.793L37.9483 40.209C34.4709 40.209 31.4736 39.729 28.9563 38.769C25.6709 37.5317 23.4736 35.5583 22.3643 32.849C21.5963 30.929 21.2016 28.9663 21.1803 26.961C21.1589 23.6543 22.2363 20.7957 24.4123 18.385C26.6523 15.8677 29.4043 14.609 32.6683 14.609ZM54.363 14.609C56.731 14.5876 58.9177 16.049 60.923 18.993C62.9497 21.9157 63.9737 25.2863 63.995 29.105C64.0163 32.2623 62.2883 34.9717 58.811 37.233C55.7817 39.1957 52.699 40.1877 49.563 40.209C47.5577 40.2303 46.0537 38.9823 45.051 36.465C44.3043 34.609 43.931 32.4437 43.931 29.969C43.931 26.1503 44.7523 22.769 46.395 19.825C48.3363 16.369 50.9923 14.6303 54.363 14.609ZM48.635 30.353C48.5923 30.5023 48.5603 30.5983 48.539 30.641C48.5177 30.6837 48.347 30.961 48.027 31.473C47.7283 31.985 47.579 32.4543 47.579 32.881C47.579 33.5637 47.931 34.2997 48.635 35.089L50.139 35.857C50.5657 36.0703 51.2377 36.1983 52.155 36.241L53.883 36.113C54.7363 36.0277 55.963 35.0357 57.563 33.137C59.1843 31.217 60.0057 29.0197 60.027 26.545C60.0483 24.689 59.547 22.9823 58.523 21.425C57.371 19.6543 55.899 18.769 54.107 18.769L53.403 18.833C51.8457 18.833 50.6617 20.0063 49.851 22.353C49.1043 24.5503 48.699 27.217 48.635 30.353ZM73.544 14.609C75.464 14.5876 77.256 15.5263 78.92 17.425C80.4987 19.2383 81.2987 21.1263 81.32 23.089C81.3413 25.2223 80.5093 26.929 78.824 28.209C77.288 29.3823 75.4213 29.9797 73.224 30.001C71.9013 30.0223 70.8453 29.777 70.056 29.265L70.696 33.649C70.9307 35.2277 71.0267 36.4863 70.984 37.425L70.952 38.193C70.952 38.3637 70.9307 38.609 70.888 38.929C70.824 39.7397 70.408 40.1663 69.64 40.209L69 40.145C68.744 40.1237 68.488 39.9423 68.232 39.601L67.464 38.609L66.312 33.073C65.9707 31.4303 65.7893 30.225 65.768 29.457L65.608 23.089C65.544 20.721 66.408 18.705 68.2 17.041C69.9067 15.441 71.688 14.6303 73.544 14.609ZM69.544 23.409C69.6507 24.8597 69.7787 25.8303 69.928 26.321C70.0347 26.6623 70.888 26.8437 72.488 26.865C74.088 26.8863 75.4107 26.545 76.456 25.841C77.6507 25.0517 78.3333 23.8996 78.504 22.385C77.864 21.0836 77.2347 20.1983 76.616 19.729C75.8907 19.153 74.8667 18.865 73.544 18.865C72.1787 18.8436 71.1333 19.153 70.408 19.793C69.704 20.4117 69.3947 21.3183 69.48 22.513L69.544 23.409ZM88.973 14.897C89.357 15.153 89.6557 15.5583 89.869 16.113C90.0183 16.7103 90.1037 17.329 90.125 17.969C90.1463 18.417 90.0823 19.1317 89.933 20.113L89.741 21.425C89.741 22.513 89.9117 23.6757 90.253 24.913C90.5943 26.129 91.149 26.7797 91.917 26.865L93.325 27.025C94.3277 27.025 95.309 26.1717 96.269 24.465L99.085 19.409C100.301 17.617 101.698 16.721 103.277 16.721C103.832 16.9556 104.13 17.4996 104.173 18.353C104.194 18.673 104.056 19.3983 103.757 20.529L103.341 22.161C103.341 24.4437 102.84 27.1423 101.837 30.257C100.877 33.2223 99.6183 35.697 98.061 37.681C96.013 40.305 93.7197 41.6277 91.181 41.649C86.381 41.6917 83.789 41.1263 83.405 39.953C83.149 39.1637 83.021 38.609 83.021 38.289C83.021 37.8837 83.245 37.6703 83.693 37.649C83.7783 37.649 84.3757 37.777 85.485 38.033L87.533 38.513C87.981 38.577 88.5463 38.609 89.229 38.609C93.0263 38.609 95.9383 36.5397 97.965 32.401C98.7543 30.801 99.2023 29.4037 99.309 28.209L99.629 24.849L97.485 28.273C96.653 29.361 95.5117 29.905 94.061 29.905C92.4183 29.905 91.0957 29.6063 90.093 29.009C89.0903 28.4117 88.2157 27.377 87.469 25.905C86.445 23.921 85.933 22.001 85.933 20.145V18.257C85.933 17.041 85.9437 16.369 85.965 16.241C86.093 15.537 86.477 15.0463 87.117 14.769L88.973 14.897ZM125.887 14.609C127.124 14.609 128.746 15.1317 130.751 16.177C132.948 17.329 134.047 18.3957 134.047 19.377C134.047 19.569 133.972 19.7503 133.823 19.921C131.818 19.3236 129.983 19.0036 128.319 18.961C127.871 18.9397 127.402 18.9717 126.911 19.057C126.762 19.0783 126.57 19.1103 126.335 19.153C126.25 19.153 126.143 19.2063 126.015 19.313C122.495 19.313 120.255 19.857 119.295 20.945C118.399 21.9477 117.951 24.2517 117.951 27.857C117.951 30.609 119.327 32.6677 122.079 34.033C123.53 34.7583 126.122 35.473 129.855 36.177C133.311 36.817 135.05 37.457 135.071 38.097L134.207 39.793L131.167 40.209C127.69 40.209 124.692 39.729 122.175 38.769C118.89 37.5317 116.692 35.5583 115.583 32.849C114.815 30.929 114.42 28.9663 114.399 26.961C114.378 23.6543 115.455 20.7957 117.631 18.385C119.871 15.8677 122.623 14.609 125.887 14.609ZM150.046 12.177C151.944 12.1556 153.672 13.7557 155.23 16.977C156.958 20.5397 158.056 23.3663 158.526 25.457L161.47 37.969L161.214 38.897C161.086 39.281 160.904 39.569 160.67 39.761C160.435 39.953 160.19 40.081 159.934 40.145L159.294 40.209C158.867 40.209 158.568 40.1877 158.398 40.145L157.63 39.921V38.321L157.662 36.785C157.704 35.1637 157.47 33.9797 156.958 33.233C156.467 32.4863 155.432 32.113 153.854 32.113C149.416 32.0917 146.643 32.3157 145.534 32.785C144.424 33.233 143.571 34.2037 142.974 35.697C142.376 37.1903 141.288 38.545 139.71 39.761L138.942 39.985L138.11 40.049C137.704 40.049 137.416 39.9317 137.246 39.697C137.16 39.4837 137.118 39.1957 137.118 38.833C137.118 38.1503 137.192 37.4677 137.342 36.785C137.555 35.889 137.747 35.217 137.918 34.769C138.536 33.297 139.603 29.9263 141.118 24.657C142.376 20.3477 143.635 17.105 144.894 14.929C145.96 13.1156 147.678 12.1983 150.046 12.177ZM143.902 29.873L145.694 29.617L146.814 29.521L149.726 29.745C150.216 29.7663 150.91 29.6277 151.806 29.329C152.574 29.073 153.566 28.5077 154.782 27.633C154.526 25.713 153.843 23.377 152.734 20.625C151.646 17.9583 150.814 16.6143 150.238 16.593L149.662 16.529H149.374C147.475 16.529 146.323 18.3423 145.918 21.969C145.512 25.5957 144.84 28.2303 143.902 29.873Z" fill="black"></path><path d="M37.5323 16.177L38.4609 14.4057L38.4567 14.4035L37.5323 16.177ZM40.6043 19.921L40.0333 21.8378L41.2639 22.2043L42.1094 21.238L40.6043 19.921ZM35.1003 18.961L35.0051 20.9587L35.027 20.9598L35.049 20.9603L35.1003 18.961ZM33.6923 19.057L33.9751 21.0369L34.0051 21.0326L34.0349 21.0274L33.6923 19.057ZM33.1163 19.153V21.153H33.2966L33.474 21.1207L33.1163 19.153ZM32.7963 19.313V21.313H33.5203L34.0766 20.8494L32.7963 19.313ZM26.0763 20.945L27.5676 22.2777L27.5759 22.2682L26.0763 20.945ZM28.8603 34.033L29.7547 32.2441L29.7491 32.2414L28.8603 34.033ZM36.6363 36.177L36.2656 38.1424L36.2721 38.1435L36.6363 36.177ZM41.8523 38.097L43.6343 39.0048L43.8683 38.5455L43.8511 38.0304L41.8523 38.097ZM40.9883 39.793L41.2594 41.7745L42.2956 41.6327L42.7703 40.7008L40.9883 39.793ZM37.9483 40.209V42.209H38.0845L38.2194 42.1905L37.9483 40.209ZM28.9563 38.769L29.6689 36.9002L29.6612 36.8973L28.9563 38.769ZM22.3643 32.849L20.5073 33.5918L20.5103 33.5993L20.5134 33.6068L22.3643 32.849ZM21.1803 26.961L19.1803 26.9739L19.1804 26.9823L21.1803 26.961ZM24.4123 18.385L25.8969 19.7251L25.9016 19.7198L25.9064 19.7145L24.4123 18.385ZM32.6683 16.609C33.416 16.609 34.6883 16.9499 36.6078 17.9505L38.4567 14.4035C36.3656 13.3134 34.3952 12.609 32.6683 12.609V16.609ZM36.6036 17.9483C37.6235 18.483 38.258 18.9332 38.6111 19.2759C38.9849 19.6388 38.8283 19.6647 38.8283 19.377H42.8283C42.8283 18.1079 42.1223 17.1098 41.3974 16.406C40.6518 15.6821 39.6383 15.0229 38.4609 14.4057L36.6036 17.9483ZM38.8283 19.377C38.8283 19.2061 38.8629 19.0411 38.9229 18.8955C38.981 18.7544 39.0515 18.6584 39.0991 18.604L42.1094 21.238C42.5168 20.7724 42.8283 20.1386 42.8283 19.377H38.8283ZM41.1752 18.0042C39.0422 17.3689 37.0299 17.0098 35.1515 16.9616L35.049 20.9603C36.4986 20.9975 38.1556 21.2784 40.0333 21.8378L41.1752 18.0042ZM35.1954 16.9632C34.5858 16.9342 33.9691 16.9788 33.3496 17.0866L34.0349 21.0274C34.3968 20.9645 34.7187 20.9451 35.0051 20.9587L35.1954 16.9632ZM33.4094 17.0771C33.225 17.1034 33.0056 17.1403 32.7585 17.1852L33.474 21.1207C33.6963 21.0803 33.8608 21.0532 33.9751 21.0369L33.4094 17.0771ZM33.1163 17.153C32.2869 17.153 31.7099 17.6148 31.5159 17.7765L34.0766 20.8494C34.0651 20.8591 33.9936 20.9184 33.8667 20.9818C33.7461 21.0421 33.4824 21.153 33.1163 21.153V17.153ZM32.7963 17.313C30.9512 17.313 29.3371 17.4538 28.0043 17.7775C26.7021 18.0937 25.4445 18.6381 24.5766 19.6217L27.5759 22.2682C27.668 22.1639 28.0104 21.8923 28.9482 21.6645C29.8554 21.4442 31.1213 21.313 32.7963 21.313V17.313ZM24.5849 19.6123C23.7781 20.5152 23.3531 21.7674 23.105 23.0432C22.8473 24.3689 22.7323 25.9865 22.7323 27.857H26.7323C26.7323 26.1222 26.8412 24.7851 27.0315 23.8067C27.2314 22.7786 27.4784 22.3774 27.5676 22.2776L24.5849 19.6123ZM22.7323 27.857C22.7323 29.5829 23.1695 31.182 24.1015 32.5764C25.0251 33.9583 26.357 35.0237 27.9714 35.8246L29.7491 32.2414C28.6115 31.677 27.8794 31.0303 27.427 30.3536C26.983 29.6893 26.7323 28.8831 26.7323 27.857H22.7323ZM27.9658 35.8218C29.6898 36.6838 32.5281 37.4376 36.2656 38.1423L37.0069 34.2116C33.2777 33.5084 30.932 32.8328 29.7547 32.2441L27.9658 35.8218ZM36.2721 38.1435C37.9688 38.4578 39.1341 38.7535 39.8414 39.0139C40.0111 39.0763 40.1366 39.1304 40.2255 39.1738C40.3174 39.2188 40.3473 39.2413 40.3379 39.2345C40.3343 39.2319 40.2372 39.1628 40.1285 39.0085C40.0108 38.8413 39.8663 38.5518 39.8534 38.1636L43.8511 38.0304C43.8145 36.93 43.069 36.2747 42.6906 35.9995C42.2531 35.6813 41.7277 35.4459 41.2231 35.2601C40.1918 34.8805 38.7597 34.5362 37.0004 34.2104L36.2721 38.1435ZM40.0702 37.1891L39.2062 38.8851L42.7703 40.7008L43.6343 39.0048L40.0702 37.1891ZM40.7171 37.8115L37.6771 38.2275L38.2194 42.1905L41.2594 41.7745L40.7171 37.8115ZM37.9483 38.209C34.6471 38.209 31.9032 37.7523 29.6689 36.9003L28.2436 40.6377C31.044 41.7056 34.2947 42.209 37.9483 42.209V38.209ZM29.6612 36.8973C26.7838 35.8136 25.0723 34.1848 24.2151 32.0912L20.5134 33.6068C21.8748 36.9319 24.558 39.2497 28.2513 40.6406L29.6612 36.8973ZM24.2212 32.1062C23.5421 30.4085 23.1988 28.69 23.1801 26.9397L19.1804 26.9823C19.2044 29.2426 19.6504 31.4494 20.5073 33.5918L24.2212 32.1062ZM23.1802 26.9481C23.162 24.1309 24.0623 21.7575 25.8969 19.7251L22.9276 17.0449C20.4102 19.8338 19.1558 23.1778 19.1803 26.9739L23.1802 26.9481ZM25.9064 19.7145C27.7809 17.6079 29.9959 16.609 32.6683 16.609V12.609C28.8126 12.609 25.5236 14.1274 22.9181 17.0555L25.9064 19.7145ZM54.363 14.609L54.3757 16.609L54.381 16.6089L54.363 14.609ZM60.923 18.993L59.27 20.1189L59.2747 20.1258L59.2795 20.1327L60.923 18.993ZM63.995 29.105L61.995 29.1162L61.995 29.1185L63.995 29.105ZM58.811 37.233L59.8985 38.9115L59.9013 38.9096L58.811 37.233ZM49.563 40.209L49.5494 38.209L49.5417 38.2091L49.563 40.209ZM45.051 36.465L46.909 35.7249L46.9065 35.7185L45.051 36.465ZM46.395 19.825L44.6513 18.8455L44.6485 18.8505L46.395 19.825ZM48.635 30.353L50.558 30.9024L50.6293 30.6531L50.6346 30.3938L48.635 30.353ZM48.539 30.641L46.7501 29.7466L46.7501 29.7466L48.539 30.641ZM48.027 31.473L46.331 30.413L46.3148 30.4389L46.2994 30.4652L48.027 31.473ZM48.635 35.089L47.1424 36.4202L47.3918 36.6998L47.7254 36.8702L48.635 35.089ZM50.139 35.857L49.2294 37.6382L49.237 37.642L49.2446 37.6458L50.139 35.857ZM52.155 36.241L52.0621 38.2388L52.1825 38.2444L52.3027 38.2355L52.155 36.241ZM53.883 36.113L54.0307 38.1075L54.0564 38.1056L54.082 38.1031L53.883 36.113ZM57.563 33.137L56.0349 31.8466L56.0336 31.8482L57.563 33.137ZM60.027 26.545L58.0271 26.522L58.0271 26.5277L60.027 26.545ZM58.523 21.425L56.8466 22.5157L56.8519 22.5238L58.523 21.425ZM54.107 18.769V16.769H54.0163L53.9259 16.7772L54.107 18.769ZM53.403 18.833V20.833H53.4937L53.5841 20.8248L53.403 18.833ZM49.851 22.353L47.9606 21.6999L47.9573 21.7095L49.851 22.353ZM54.381 16.6089C55.7899 16.5962 57.4403 17.4327 59.27 20.1189L62.576 17.8671C60.395 14.6652 57.6721 12.5791 54.345 12.6091L54.381 16.6089ZM59.2795 20.1327C61.059 22.6989 61.9758 25.6697 61.995 29.1162L65.995 29.0938C65.9716 24.9029 64.8403 21.1324 62.5665 17.8533L59.2795 20.1327ZM61.995 29.1185C62.0104 31.3847 60.8278 33.5357 57.7207 35.5563L59.9013 38.9096C63.7489 36.4076 66.0223 33.1399 65.995 29.0915L61.995 29.1185ZM57.7235 35.5545C54.9647 37.3419 52.2492 38.1907 49.5494 38.209L49.5766 42.2089C53.1488 42.1846 56.5986 41.0494 59.8985 38.9115L57.7235 35.5545ZM49.5417 38.2091C48.9992 38.2149 48.5853 38.0628 48.2081 37.7499C47.7938 37.4061 47.332 36.7868 46.909 35.7249L43.193 37.205C43.7727 38.6605 44.5642 39.9239 45.6539 40.8281C46.7807 41.7632 48.1214 42.2244 49.5843 42.2089L49.5417 38.2091ZM46.9065 35.7185C46.275 34.1488 45.931 32.2465 45.931 29.969H41.931C41.931 32.6408 42.3337 35.0692 43.1955 37.2114L46.9065 35.7185ZM45.931 29.969C45.931 26.4455 46.6861 23.4079 48.1415 20.7995L44.6485 18.8505C42.8185 22.1301 41.931 25.8552 41.931 29.969H45.931ZM48.1387 20.8045C49.802 17.8436 51.8623 16.6249 54.3757 16.6089L54.3503 12.609C50.1223 12.6358 46.8707 14.8944 44.6513 18.8455L48.1387 20.8045ZM46.712 29.8035C46.7038 29.8321 46.6971 29.8549 46.6917 29.8727C46.6862 29.8907 46.6829 29.9009 46.6816 29.9045C46.68 29.9093 46.683 29.9 46.6903 29.881C46.6941 29.8711 46.7004 29.8551 46.7092 29.8346C46.7177 29.8149 46.7313 29.7843 46.7501 29.7466L50.3279 31.5354C50.4478 31.2955 50.5272 31.0104 50.558 30.9024L46.712 29.8035ZM46.7501 29.7466C46.7677 29.7113 46.7819 29.686 46.7849 29.6805C46.79 29.6714 46.7931 29.6659 46.7931 29.6659C46.7931 29.6659 46.7894 29.6724 46.78 29.688C46.7617 29.7186 46.7328 29.7659 46.6917 29.8328C46.61 29.9655 46.4902 30.1582 46.331 30.413L49.723 32.533C49.8838 32.2758 50.0093 32.0738 50.0983 31.9292C50.1515 31.8427 50.2664 31.6583 50.3279 31.5354L46.7501 29.7466ZM46.2994 30.4652C45.8886 31.1696 45.579 31.9886 45.579 32.881H49.579C49.579 32.9201 49.5681 32.8004 49.7546 32.4807L46.2994 30.4652ZM45.579 32.881C45.579 34.2631 46.2838 35.4575 47.1424 36.4202L50.1276 33.7578C49.5782 33.1418 49.579 32.8642 49.579 32.881H45.579ZM47.7254 36.8702L49.2294 37.6382L51.0486 34.0758L49.5446 33.3078L47.7254 36.8702ZM49.2446 37.6458C50.058 38.0526 51.0765 38.193 52.0621 38.2388L52.2479 34.2431C51.854 34.2248 51.5551 34.1898 51.3372 34.1483C51.1107 34.1052 51.0281 34.0655 51.0334 34.0681L49.2446 37.6458ZM52.3027 38.2355L54.0307 38.1075L53.7353 34.1184L52.0073 34.2464L52.3027 38.2355ZM54.082 38.1031C55.104 38.0009 56.0027 37.4245 56.7006 36.8601C57.4522 36.2523 58.2513 35.4238 59.0924 34.4258L56.0336 31.8482C55.2747 32.7488 54.6604 33.3657 54.1854 33.7499C53.6566 34.1775 53.5153 34.1398 53.684 34.1229L54.082 38.1031ZM59.0911 34.4273C61.0082 32.157 62.0015 29.5111 62.0269 26.5622L58.0271 26.5277C58.0098 28.5282 57.3604 30.277 56.0349 31.8466L59.0911 34.4273ZM62.0269 26.568C62.0528 24.3119 61.436 22.2149 60.1941 20.3262L56.8519 22.5238C57.658 23.7498 58.0439 25.0661 58.0271 26.522L62.0269 26.568ZM60.1994 20.3343C58.755 18.1142 56.705 16.769 54.107 16.769V20.769C55.093 20.769 55.987 21.1945 56.8466 22.5157L60.1994 20.3343ZM53.9259 16.7772L53.2219 16.8412L53.5841 20.8248L54.2881 20.7608L53.9259 16.7772ZM53.403 16.833C50.5254 16.833 48.858 19.1024 47.9606 21.6999L51.7414 23.006C52.4654 20.9102 53.166 20.833 53.403 20.833V16.833ZM47.9573 21.7095C47.1261 24.1558 46.7022 27.0381 46.6354 30.3122L50.6346 30.3938C50.6958 27.3958 51.0826 24.9448 51.7447 22.9965L47.9573 21.7095ZM73.544 14.609L73.5218 12.6091L73.521 12.6091L73.544 14.609ZM78.92 17.425L80.4285 16.1117L80.4241 16.1068L78.92 17.425ZM81.32 23.089L83.3199 23.069L83.3199 23.0672L81.32 23.089ZM78.824 28.209L77.6143 26.6163L77.6099 26.6196L78.824 28.209ZM73.224 30.001L73.2046 28.001L73.1917 28.0012L73.224 30.001ZM70.056 29.265L71.1444 27.5871L67.439 25.1836L68.077 29.5539L70.056 29.265ZM70.696 33.649L68.717 33.9379L68.7177 33.9431L70.696 33.649ZM70.984 37.425L68.986 37.3342L68.9857 37.3417L70.984 37.425ZM70.952 38.193L68.9537 38.1097L68.952 38.1513V38.193H70.952ZM70.888 38.929L68.9055 38.6647L68.8984 38.718L68.8942 38.7716L70.888 38.929ZM69.64 40.209L69.441 42.1991L69.5957 42.2145L69.7509 42.2059L69.64 40.209ZM69 40.145L69.199 38.1549L69.1826 38.1533L69.1661 38.1519L69 40.145ZM68.232 39.601L69.832 38.401L69.8228 38.3887L69.8134 38.3766L68.232 39.601ZM67.464 38.609L65.5059 39.0164L65.6 39.4683L65.8826 39.8333L67.464 38.609ZM66.312 33.073L64.3538 33.4799L64.3539 33.4804L66.312 33.073ZM65.768 29.457L63.7686 29.5072L63.7688 29.5125L65.768 29.457ZM65.608 23.089L67.6074 23.0387L67.6073 23.0349L65.608 23.089ZM68.2 17.041L69.5609 18.5066L69.5679 18.5001L68.2 17.041ZM69.544 23.409L67.5491 23.5515L67.5494 23.5556L69.544 23.409ZM69.928 26.321L68.0147 26.9033L68.0168 26.9104L68.019 26.9175L69.928 26.321ZM72.488 26.865L72.5147 24.8652L72.5147 24.8652L72.488 26.865ZM76.456 25.841L75.3535 24.1723L75.3461 24.1772L75.3388 24.1821L76.456 25.841ZM78.504 22.385L80.4914 22.6089L80.5569 22.0274L80.2987 21.5023L78.504 22.385ZM76.616 19.729L75.3722 21.2952L75.3896 21.309L75.4072 21.3224L76.616 19.729ZM73.544 18.865L73.5128 20.8647L73.5284 20.865H73.544V18.865ZM70.408 19.793L71.7282 21.2953L71.7312 21.2927L70.408 19.793ZM69.48 22.513L67.4851 22.6555L67.4851 22.6555L69.48 22.513ZM73.5662 16.6089C74.7315 16.5959 76.0078 17.1365 77.4159 18.7432L80.4241 16.1068C78.5042 13.9162 76.1965 12.5794 73.5218 12.6091L73.5662 16.6089ZM77.4116 18.7382C78.7511 20.2768 79.305 21.7236 79.3201 23.1107L83.3199 23.0672C83.2923 20.529 82.2463 18.1998 80.4284 16.1117L77.4116 18.7382ZM79.3201 23.109C79.3352 24.6161 78.7913 25.7223 77.6143 26.6163L80.0337 29.8017C82.2273 28.1356 83.3475 25.8285 83.3199 23.069L79.3201 23.109ZM77.6099 26.6196C76.4634 27.4954 75.0316 27.9833 73.2046 28.0011L73.2434 32.0009C75.811 31.976 78.1126 31.2692 80.0381 29.7983L77.6099 26.6196ZM73.1917 28.0012C72.1111 28.0187 71.4904 27.8115 71.1444 27.5871L68.9676 30.9429C70.2002 31.7424 71.6916 32.026 73.2563 32.0007L73.1917 28.0012ZM68.077 29.5539L68.717 33.9379L72.675 33.3601L72.035 28.9761L68.077 29.5539ZM68.7177 33.9431C68.9446 35.4693 69.0202 36.5825 68.9861 37.3342L72.9819 37.5158C73.0331 36.3901 72.9167 34.986 72.6743 33.3549L68.7177 33.9431ZM68.9857 37.3417L68.9537 38.1097L72.9503 38.2762L72.9823 37.5082L68.9857 37.3417ZM68.952 38.193C68.952 38.229 68.9449 38.3697 68.9055 38.6647L72.8705 39.1933C72.9165 38.8482 72.952 38.4983 72.952 38.193H68.952ZM68.8942 38.7716C68.8856 38.8805 68.876 38.6864 69.096 38.4608C69.33 38.2208 69.563 38.2102 69.5291 38.2121L69.7509 42.2059C70.485 42.1651 71.31 41.9198 71.96 41.2532C72.596 40.6009 72.8264 39.7881 72.8818 39.0864L68.8942 38.7716ZM69.839 38.2189L69.199 38.1549L68.801 42.1351L69.441 42.1991L69.839 38.2189ZM69.1661 38.1519C69.4656 38.1769 69.6726 38.2905 69.772 38.3609C69.8622 38.4248 69.877 38.461 69.832 38.401L66.632 40.801C67.0123 41.308 67.7257 42.0457 68.8339 42.1381L69.1661 38.1519ZM69.8134 38.3766L69.0454 37.3846L65.8826 39.8333L66.6506 40.8253L69.8134 38.3766ZM69.4221 38.2015L68.2701 32.6655L64.3539 33.4804L65.5059 39.0164L69.4221 38.2015ZM68.2702 32.6661C67.9316 31.0365 67.7833 29.9795 67.7672 29.4014L63.7688 29.5125C63.7954 30.4705 64.0098 31.8241 64.3538 33.4799L68.2702 32.6661ZM67.7674 29.4067L67.6074 23.0387L63.6086 23.1392L63.7686 29.5072L67.7674 29.4067ZM67.6073 23.0349C67.5594 21.2626 68.1747 19.7938 69.5609 18.5066L66.8391 15.5754C64.6413 17.6162 63.5286 20.1794 63.6087 23.143L67.6073 23.0349ZM69.5679 18.5001C71.0084 17.1496 72.3318 16.623 73.567 16.6089L73.521 12.6091C71.0442 12.6376 68.8049 13.7324 66.8321 15.5819L69.5679 18.5001ZM67.5494 23.5556C67.6539 24.9774 67.7905 26.1668 68.0147 26.9033L71.8413 25.7387C71.7668 25.4938 71.6474 24.7419 71.5386 23.2623L67.5494 23.5556ZM68.019 26.9175C68.2654 27.7059 68.8507 28.1179 69.1917 28.3035C69.5513 28.4993 69.9282 28.6047 70.2323 28.6693C70.8516 28.8009 71.6195 28.8536 72.4613 28.8648L72.5147 24.8652C71.7565 24.8551 71.2978 24.8064 71.0637 24.7567C70.9411 24.7306 70.9847 24.7253 71.1043 24.7904C71.2053 24.8454 71.6439 25.1068 71.837 25.7244L68.019 26.9175ZM72.4613 28.8648C74.3586 28.8901 76.1093 28.4858 77.5732 27.4999L75.3388 24.1821C74.7121 24.6042 73.8174 24.8825 72.5147 24.8652L72.4613 28.8648ZM77.5585 27.5097C79.283 26.3703 80.2593 24.6691 80.4914 22.6089L76.5166 22.161C76.4074 23.1302 76.0184 23.733 75.3535 24.1723L77.5585 27.5097ZM80.2987 21.5023C79.6208 20.1239 78.8237 18.8934 77.8248 18.1356L75.4072 21.3224C75.6456 21.5032 76.1072 22.0434 76.7093 23.2676L80.2987 21.5023ZM77.8598 18.1628C76.657 17.2076 75.1298 16.865 73.544 16.865V20.865C74.6036 20.865 75.1244 21.0984 75.3722 21.2952L77.8598 18.1628ZM73.5752 16.8652C71.9164 16.8393 70.3129 17.2097 69.0848 18.2933L71.7312 21.2927C71.9538 21.0963 72.4409 20.848 73.5128 20.8647L73.5752 16.8652ZM69.0878 18.2907C67.7873 19.4335 67.3688 21.0276 67.4851 22.6555L71.4749 22.3705C71.4205 21.609 71.6207 21.3898 71.7282 21.2953L69.0878 18.2907ZM67.4851 22.6555L67.5491 23.5515L71.5389 23.2665L71.4749 22.3705L67.4851 22.6555ZM88.973 14.897L90.0824 13.2329L89.6405 12.9383L89.1106 12.9017L88.973 14.897ZM89.869 16.113L91.8093 15.6279L91.7796 15.5092L91.7357 15.395L89.869 16.113ZM90.125 17.969L88.1261 18.0356L88.1266 18.0499L88.1273 18.0641L90.125 17.969ZM89.933 20.113L87.9557 19.8121L87.9541 19.8234L89.933 20.113ZM89.741 21.425L87.7621 21.1354L87.741 21.2794V21.425H89.741ZM90.253 24.913L88.325 25.4448L88.3274 25.4535L90.253 24.913ZM91.917 26.865L92.1428 24.8778L92.1379 24.8772L91.917 26.865ZM93.325 27.025L93.0992 29.0122L93.2117 29.025H93.325V27.025ZM96.269 24.465L98.0122 25.4455L98.0163 25.4381L96.269 24.465ZM99.085 19.409L97.43 18.286L97.3806 18.3589L97.3377 18.4358L99.085 19.409ZM103.277 16.721L104.056 14.879L103.683 14.721H103.277V16.721ZM104.173 18.353L102.175 18.4529L102.176 18.4695L102.177 18.486L104.173 18.353ZM103.757 20.529L101.823 20.0182L101.821 20.0266L101.819 20.035L103.757 20.529ZM103.341 22.161L101.403 21.667L101.341 21.9101V22.161H103.341ZM101.837 30.257L103.74 30.873L103.741 30.8698L101.837 30.257ZM98.061 37.681L96.4878 36.4461L96.4844 36.4504L98.061 37.681ZM91.181 41.649L91.1642 39.6491L91.1632 39.6491L91.181 41.649ZM83.405 39.953L81.5025 40.57L81.5042 40.5751L83.405 39.953ZM83.693 37.649V35.649H83.6454L83.5979 35.6512L83.693 37.649ZM85.485 38.033L85.9414 36.0857L85.9347 36.0842L85.485 38.033ZM87.533 38.513L87.0766 40.4602L87.1627 40.4804L87.2502 40.4929L87.533 38.513ZM97.965 32.401L96.1714 31.5161L96.1688 31.5214L97.965 32.401ZM99.309 28.209L97.318 28.0194L97.3169 28.0311L99.309 28.209ZM99.629 24.849L101.62 25.0386L97.9339 23.7876L99.629 24.849ZM97.485 28.273L99.0737 29.4879L99.1305 29.4136L99.1801 29.3344L97.485 28.273ZM90.093 29.009L91.1166 27.2908L91.1166 27.2908L90.093 29.009ZM87.469 25.905L89.2527 25.0002L89.2462 24.9877L87.469 25.905ZM85.965 16.241L83.9973 15.8832L83.9946 15.8977L83.9922 15.9122L85.965 16.241ZM87.117 14.769L87.2546 12.7737L86.7687 12.7402L86.3218 12.9339L87.117 14.769ZM87.8636 16.5611C87.8162 16.5295 87.8948 16.5515 88.0023 16.8309L91.7357 15.395C91.4165 14.5651 90.8978 13.7765 90.0824 13.2329L87.8636 16.5611ZM87.9287 16.5981C88.0425 17.053 88.1093 17.5311 88.1261 18.0356L92.1239 17.9024C92.098 17.1268 91.9942 16.3676 91.8093 15.6279L87.9287 16.5981ZM88.1273 18.0641C88.1384 18.2981 88.1032 18.8434 87.9558 19.8121L91.9102 20.4139C92.0615 19.4199 92.1543 18.5358 92.1227 17.8739L88.1273 18.0641ZM87.9541 19.8234L87.7621 21.1354L91.7199 21.7146L91.9119 20.4026L87.9541 19.8234ZM87.741 21.425C87.741 22.7215 87.9442 24.0644 88.325 25.4448L92.181 24.3811C91.8791 23.2869 91.741 22.3045 91.741 21.425H87.741ZM88.3274 25.4535C88.733 26.8985 89.667 28.6273 91.6961 28.8528L92.1379 24.8772C92.2042 24.8846 92.2818 24.9074 92.3535 24.9473C92.422 24.9854 92.4508 25.0199 92.447 25.0155C92.4409 25.0083 92.4045 24.9628 92.352 24.8535C92.2997 24.7446 92.2391 24.5882 92.1786 24.3725L88.3274 25.4535ZM91.6912 28.8522L93.0992 29.0122L93.5508 25.0378L92.1428 24.8778L91.6912 28.8522ZM93.325 29.025C95.5315 29.025 97.0237 27.2027 98.0122 25.4455L94.5259 23.4845C94.1071 24.2288 93.7544 24.6551 93.5006 24.8758C93.2635 25.082 93.2154 25.025 93.325 25.025V29.025ZM98.0163 25.4381L100.832 20.3821L97.3377 18.4358L94.5217 23.4918L98.0163 25.4381ZM100.74 20.532C101.735 19.0656 102.592 18.721 103.277 18.721V14.721C100.805 14.721 98.867 16.1684 97.43 18.286L100.74 20.532ZM102.498 18.5629C102.436 18.537 102.365 18.4944 102.297 18.4324C102.229 18.3708 102.187 18.3098 102.164 18.2675C102.123 18.1937 102.164 18.2211 102.175 18.4529L106.171 18.2531C106.108 17.0022 105.604 15.5337 104.056 14.879L102.498 18.5629ZM102.177 18.486C102.171 18.3964 102.18 18.3688 102.171 18.4459C102.164 18.5097 102.149 18.6122 102.121 18.7614C102.063 19.0605 101.967 19.4751 101.823 20.0182L105.691 21.0398C105.846 20.4522 105.968 19.9388 106.049 19.5125C106.12 19.1423 106.198 18.6591 106.169 18.2199L102.177 18.486ZM101.819 20.035L101.403 21.667L105.279 22.655L105.695 21.023L101.819 20.035ZM101.341 22.161C101.341 24.1669 100.897 26.6493 99.9332 29.6441L103.741 30.8698C104.782 27.6354 105.341 24.7204 105.341 22.161H101.341ZM99.9342 29.641C99.0303 32.4331 97.8699 34.6853 96.4878 36.4461L99.6342 38.9159C101.367 36.7087 102.724 34.0115 103.74 30.873L99.9342 29.641ZM96.4844 36.4504C94.6856 38.7551 92.9136 39.6344 91.1642 39.6491L91.1978 43.6489C94.5257 43.6209 97.3404 41.8549 99.6376 38.9115L96.4844 36.4504ZM91.1632 39.6491C88.8132 39.67 87.1408 39.538 86.0632 39.3029C85.5221 39.1849 85.2368 39.0627 85.1159 38.9921C84.9994 38.924 85.1987 39.0035 85.3058 39.3309L81.5042 40.5751C81.8033 41.4891 82.4706 42.0793 83.0981 42.4459C83.7212 42.8099 84.4559 43.0464 85.2108 43.211C86.7252 43.5413 88.7488 43.6707 91.1988 43.6489L91.1632 39.6491ZM85.3074 39.336C85.19 38.9739 85.1124 38.6971 85.0658 38.4953C85.0139 38.2703 85.021 38.224 85.021 38.289H81.021C81.021 38.9655 81.2531 39.8007 81.5026 40.57L85.3074 39.336ZM85.021 38.289C85.021 38.4557 84.9653 38.8952 84.5683 39.2733C84.2044 39.6198 83.8324 39.6446 83.7881 39.6467L83.5979 35.6512C83.1056 35.6747 82.3976 35.8168 81.8097 36.3767C81.1887 36.9681 81.021 37.7169 81.021 38.289H85.021ZM83.693 39.649C83.5933 39.649 83.5189 39.6409 83.5019 39.6391C83.4742 39.6361 83.4559 39.6334 83.4523 39.6329C83.445 39.6318 83.4532 39.6329 83.4844 39.6387C83.5449 39.6501 83.6429 39.6699 83.7859 39.7006C84.0691 39.7613 84.4837 39.8545 85.0353 39.9818L85.9347 36.0842C85.3769 35.9555 84.9382 35.8567 84.6241 35.7894C84.4684 35.756 84.3318 35.7279 84.2216 35.7072C84.2073 35.7046 83.9429 35.649 83.693 35.649V39.649ZM85.0286 39.9802L87.0766 40.4602L87.9894 36.5658L85.9414 36.0858L85.0286 39.9802ZM87.2502 40.4929C87.8261 40.5752 88.4941 40.609 89.229 40.609V36.609C88.5986 36.609 88.1359 36.5788 87.8158 36.5331L87.2502 40.4929ZM89.229 40.609C91.5152 40.609 93.6032 39.978 95.4195 38.6873C97.2149 37.4114 98.6426 35.5649 99.7612 33.2806L96.1688 31.5214C95.2607 33.3757 94.2191 34.6332 93.1025 35.4267C92.0068 36.2053 90.7402 36.609 89.229 36.609V40.609ZM99.7586 33.2858C100.609 31.5621 101.164 29.9165 101.301 28.3868L97.3169 28.0311C97.2402 28.8908 96.8997 30.0398 96.1714 31.5161L99.7586 33.2858ZM101.3 28.3986L101.62 25.0386L97.638 24.6594L97.318 28.0194L101.3 28.3986ZM97.9339 23.7876L95.7899 27.2116L99.1801 29.3344L101.324 25.9104L97.9339 23.7876ZM95.8963 27.0581C95.468 27.6182 94.9315 27.905 94.061 27.905V31.905C96.0918 31.905 97.838 31.1038 99.0737 29.4879L95.8963 27.0581ZM94.061 27.905C92.6391 27.905 91.7085 27.6434 91.1166 27.2908L89.0694 30.7272C90.4829 31.5693 92.1976 31.905 94.061 31.905V27.905ZM91.1166 27.2908C90.5475 26.9517 89.8958 26.2681 89.2527 25.0002L85.6853 26.8097C86.5356 28.4859 87.6332 29.8716 89.0694 30.7272L91.1166 27.2908ZM89.2462 24.9877C88.3392 23.2303 87.933 21.6233 87.933 20.145H83.933C83.933 22.3787 84.5508 24.6117 85.6918 26.8223L89.2462 24.9877ZM87.933 20.145V18.257H83.933V20.145H87.933ZM87.933 18.257C87.933 17.6526 87.9357 17.1929 87.9407 16.8727C87.9433 16.7116 87.9463 16.5958 87.9494 16.5189C87.951 16.4801 87.9522 16.4607 87.9525 16.4555C87.954 16.435 87.9514 16.4883 87.9378 16.5698L83.9922 15.9122C83.9505 16.1626 83.9453 16.5544 83.9413 16.8092C83.9357 17.161 83.933 17.6454 83.933 18.257H87.933ZM87.9327 16.5988C87.9405 16.5558 87.9481 16.539 87.9473 16.5408C87.947 16.5416 87.945 16.546 87.9409 16.553C87.9367 16.5601 87.9311 16.5685 87.924 16.5776C87.9169 16.5867 87.9094 16.595 87.9021 16.6021C87.8947 16.6093 87.8887 16.6142 87.885 16.617C87.8771 16.6229 87.8831 16.6167 87.9122 16.6041L86.3218 12.9339C85.0499 13.485 84.2411 14.5423 83.9973 15.8832L87.9327 16.5988ZM86.9794 16.7642L88.8354 16.8922L89.1106 12.9017L87.2546 12.7737L86.9794 16.7642ZM130.751 16.177L131.68 14.4057L131.675 14.4035L130.751 16.177ZM133.823 19.921L133.252 21.8378L134.483 22.2043L135.328 21.238L133.823 19.921ZM128.319 18.961L128.224 20.9587L128.246 20.9598L128.268 20.9603L128.319 18.961ZM126.911 19.057L127.194 21.0369L127.224 21.0326L127.254 21.0274L126.911 19.057ZM126.335 19.153V21.153H126.515L126.693 21.1207L126.335 19.153ZM126.015 19.313V21.313H126.739L127.295 20.8494L126.015 19.313ZM119.295 20.945L120.786 22.2777L120.795 22.2682L119.295 20.945ZM122.079 34.033L122.973 32.2441L122.968 32.2414L122.079 34.033ZM129.855 36.177L129.484 38.1424L129.491 38.1435L129.855 36.177ZM135.071 38.097L136.853 39.0048L137.087 38.5455L137.07 38.0304L135.071 38.097ZM134.207 39.793L134.478 41.7745L135.514 41.6327L135.989 40.7008L134.207 39.793ZM131.167 40.209V42.209H131.303L131.438 42.1905L131.167 40.209ZM122.175 38.769L122.888 36.9002L122.88 36.8973L122.175 38.769ZM115.583 32.849L113.726 33.5918L113.729 33.5993L113.732 33.6068L115.583 32.849ZM114.399 26.961L112.399 26.9739L112.399 26.9823L114.399 26.961ZM117.631 18.385L119.116 19.7251L119.12 19.7198L119.125 19.7145L117.631 18.385ZM125.887 16.609C126.635 16.609 127.907 16.9499 129.827 17.9505L131.675 14.4035C129.584 13.3134 127.614 12.609 125.887 12.609V16.609ZM129.822 17.9483C130.842 18.483 131.477 18.9332 131.83 19.2759C132.204 19.6388 132.047 19.6647 132.047 19.377H136.047C136.047 18.1079 135.341 17.1098 134.616 16.406C133.871 15.6821 132.857 15.0229 131.68 14.4057L129.822 17.9483ZM132.047 19.377C132.047 19.2061 132.082 19.0411 132.142 18.8955C132.2 18.7544 132.27 18.6584 132.318 18.604L135.328 21.238C135.736 20.7724 136.047 20.1386 136.047 19.377H132.047ZM134.394 18.0042C132.261 17.3689 130.249 17.0098 128.37 16.9616L128.268 20.9603C129.717 20.9975 131.374 21.2784 133.252 21.8378L134.394 18.0042ZM128.414 16.9632C127.805 16.9342 127.188 16.9788 126.568 17.0866L127.254 21.0274C127.616 20.9645 127.937 20.9451 128.224 20.9587L128.414 16.9632ZM126.628 17.0771C126.444 17.1034 126.224 17.1403 125.977 17.1852L126.693 21.1207C126.915 21.0803 127.08 21.0532 127.194 21.0369L126.628 17.0771ZM126.335 17.153C125.506 17.153 124.929 17.6148 124.735 17.7765L127.295 20.8494C127.284 20.8591 127.212 20.9184 127.085 20.9818C126.965 21.0421 126.701 21.153 126.335 21.153V17.153ZM126.015 17.313C124.17 17.313 122.556 17.4538 121.223 17.7775C119.921 18.0937 118.663 18.6381 117.795 19.6217L120.795 22.2682C120.887 22.1639 121.229 21.8923 122.167 21.6645C123.074 21.4442 124.34 21.313 126.015 21.313V17.313ZM117.804 19.6123C116.997 20.5152 116.572 21.7674 116.324 23.0432C116.066 24.3689 115.951 25.9865 115.951 27.857H119.951C119.951 26.1222 120.06 24.7851 120.25 23.8067C120.45 22.7786 120.697 22.3774 120.786 22.2776L117.804 19.6123ZM115.951 27.857C115.951 29.5829 116.388 31.182 117.32 32.5764C118.244 33.9583 119.576 35.0237 121.19 35.8246L122.968 32.2414C121.83 31.677 121.098 31.0303 120.646 30.3536C120.202 29.6893 119.951 28.8831 119.951 27.857H115.951ZM121.185 35.8218C122.909 36.6838 125.747 37.4376 129.484 38.1423L130.226 34.2116C126.496 33.5084 124.151 32.8328 122.973 32.2441L121.185 35.8218ZM129.491 38.1435C131.188 38.4578 132.353 38.7535 133.06 39.0139C133.23 39.0763 133.355 39.1304 133.444 39.1738C133.536 39.2188 133.566 39.2413 133.557 39.2345C133.553 39.2319 133.456 39.1628 133.347 39.0085C133.23 38.8413 133.085 38.5518 133.072 38.1636L137.07 38.0304C137.033 36.93 136.288 36.2747 135.909 35.9995C135.472 35.6813 134.946 35.4459 134.442 35.2601C133.411 34.8805 131.978 34.5362 130.219 34.2104L129.491 38.1435ZM133.289 37.1891L132.425 38.8851L135.989 40.7008L136.853 39.0048L133.289 37.1891ZM133.936 37.8115L130.896 38.2275L131.438 42.1905L134.478 41.7745L133.936 37.8115ZM131.167 38.209C127.866 38.209 125.122 37.7523 122.888 36.9003L121.462 40.6377C124.263 41.7056 127.513 42.209 131.167 42.209V38.209ZM122.88 36.8973C120.003 35.8136 118.291 34.1848 117.434 32.0912L113.732 33.6068C115.094 36.9319 117.777 39.2497 121.47 40.6406L122.88 36.8973ZM117.44 32.1062C116.761 30.4085 116.418 28.69 116.399 26.9397L112.399 26.9823C112.423 29.2426 112.869 31.4494 113.726 33.5918L117.44 32.1062ZM116.399 26.9481C116.381 24.1309 117.281 21.7575 119.116 19.7251L116.146 17.0449C113.629 19.8338 112.375 23.1778 112.399 26.9739L116.399 26.9481ZM119.125 19.7145C121 17.6079 123.215 16.609 125.887 16.609V12.609C122.031 12.609 118.742 14.1274 116.137 17.0555L119.125 19.7145ZM150.046 12.177L150.064 14.1769L150.068 14.1769L150.046 12.177ZM155.23 16.977L153.429 17.8475L153.43 17.8498L155.23 16.977ZM158.526 25.457L156.574 25.8951L156.577 25.9051L156.579 25.9151L158.526 25.457ZM161.47 37.969L163.398 38.5008L163.534 38.0083L163.417 37.5109L161.47 37.969ZM161.214 38.897L163.111 39.5294L163.128 39.4795L163.142 39.4288L161.214 38.897ZM160.67 39.761L159.403 38.2131L159.403 38.2131L160.67 39.761ZM159.934 40.145L160.133 42.1351L160.278 42.1206L160.419 42.0853L159.934 40.145ZM159.294 40.209V42.209H159.394L159.493 42.1991L159.294 40.209ZM158.398 40.145L157.838 42.065L157.875 42.0759L157.913 42.0853L158.398 40.145ZM157.63 39.921H155.63V41.421L157.07 41.841L157.63 39.921ZM157.63 38.321L155.63 38.2793L155.63 38.3002V38.321H157.63ZM157.662 36.785L155.662 36.7324L155.662 36.7433L157.662 36.785ZM156.958 33.233L155.286 34.3313L155.297 34.3478L155.308 34.364L156.958 33.233ZM153.854 32.113L153.844 34.113H153.854V32.113ZM145.534 32.785L146.283 34.6395L146.298 34.6333L146.313 34.6269L145.534 32.785ZM142.974 35.697L141.117 34.9542L141.117 34.9542L142.974 35.697ZM139.71 39.761L140.27 41.681L140.632 41.5754L140.93 41.3454L139.71 39.761ZM138.942 39.985L139.095 41.9791L139.302 41.9632L139.502 41.905L138.942 39.985ZM138.11 40.049V42.049H138.187L138.263 42.0431L138.11 40.049ZM137.246 39.697L135.389 40.4398L135.481 40.6715L135.628 40.8733L137.246 39.697ZM137.342 36.785L135.396 36.3217L135.392 36.3396L135.388 36.3576L137.342 36.785ZM137.918 34.769L136.074 33.9941L136.061 34.0253L136.049 34.057L137.918 34.769ZM141.118 24.657L139.198 24.0962L139.196 24.1045L141.118 24.657ZM144.894 14.929L143.17 13.9149L143.166 13.9212L143.163 13.9276L144.894 14.929ZM143.902 29.873L142.165 28.8807L140.136 32.4312L144.185 31.8529L143.902 29.873ZM145.694 29.617L145.523 27.6243L145.467 27.6291L145.411 27.6371L145.694 29.617ZM146.814 29.521L146.967 27.5269L146.805 27.5144L146.643 27.5283L146.814 29.521ZM149.726 29.745L149.572 31.7391L149.606 31.7416L149.639 31.7431L149.726 29.745ZM151.806 29.329L152.438 31.2264L152.438 31.2264L151.806 29.329ZM154.782 27.633L155.95 29.2566L156.923 28.5567L156.764 27.3687L154.782 27.633ZM152.734 20.625L154.589 19.8772L154.586 19.8694L152.734 20.625ZM150.238 16.593L150.017 18.5808L150.09 18.5889L150.164 18.5916L150.238 16.593ZM149.662 16.529L149.883 14.5412L149.773 14.529H149.662V16.529ZM145.918 21.969L143.93 21.7468L143.93 21.7468L145.918 21.969ZM150.068 14.1769C150.68 14.17 151.906 14.6979 153.429 17.8475L157.03 16.1065C155.438 12.8134 153.209 10.1413 150.023 10.1771L150.068 14.1769ZM153.43 17.8498C155.137 21.3696 156.156 24.0316 156.574 25.8951L160.477 25.0189C159.957 22.7011 158.778 19.7097 157.029 16.1042L153.43 17.8498ZM156.579 25.9151L159.523 38.4271L163.417 37.5109L160.473 24.9989L156.579 25.9151ZM159.542 37.4371L159.286 38.3651L163.142 39.4288L163.398 38.5008L159.542 37.4371ZM159.316 38.2645C159.294 38.3322 159.28 38.3497 159.289 38.3354C159.3 38.3188 159.334 38.2694 159.403 38.2131L161.936 41.3089C162.546 40.8098 162.903 40.155 163.111 39.5294L159.316 38.2645ZM159.403 38.2131C159.382 38.2307 159.375 38.2327 159.385 38.2278C159.395 38.2225 159.417 38.2127 159.449 38.2047L160.419 42.0853C161.001 41.9398 161.507 41.6599 161.936 41.3089L159.403 38.2131ZM159.735 38.1549L159.095 38.2189L159.493 42.1991L160.133 42.1351L159.735 38.1549ZM159.294 38.209C159.11 38.209 158.979 38.2043 158.892 38.1981C158.85 38.195 158.827 38.1923 158.82 38.1913C158.811 38.1901 158.835 38.1928 158.883 38.2047L157.913 42.0853C158.348 42.194 158.87 42.209 159.294 42.209V38.209ZM158.958 38.225L158.19 38.001L157.07 41.841L157.838 42.065L158.958 38.225ZM159.63 39.921V38.321H155.63V39.921H159.63ZM159.629 38.3626L159.661 36.8266L155.662 36.7433L155.63 38.2793L159.629 38.3626ZM159.661 36.8376C159.707 35.0877 159.482 33.3782 158.607 32.1019L155.308 34.364C155.457 34.5811 155.702 35.2396 155.662 36.7324L159.661 36.8376ZM158.629 32.1346C157.557 30.5024 155.596 30.113 153.854 30.113V34.113C154.504 34.113 154.908 34.1923 155.135 34.2743C155.341 34.3487 155.329 34.3963 155.286 34.3313L158.629 32.1346ZM153.863 30.113C151.617 30.1022 149.751 30.153 148.285 30.2715C146.891 30.3841 145.633 30.5714 144.754 30.943L146.313 34.6269C146.544 34.5292 147.228 34.3699 148.607 34.2585C149.914 34.1529 151.653 34.1024 153.844 34.113L153.863 30.113ZM144.785 30.9305C143.014 31.6455 141.844 33.1355 141.117 34.9542L144.831 36.4398C145.298 35.2718 145.835 34.8204 146.283 34.6395L144.785 30.9305ZM141.117 34.9542C140.681 36.0442 139.852 37.1272 138.489 38.1765L140.93 41.3454C142.725 39.9628 144.072 38.3365 144.831 36.4398L141.117 34.9542ZM139.15 37.841L138.382 38.065L139.502 41.905L140.27 41.681L139.15 37.841ZM138.788 37.9909L137.956 38.0549L138.263 42.0431L139.095 41.9791L138.788 37.9909ZM138.11 38.049C138.091 38.049 138.188 38.0451 138.344 38.1088C138.52 38.1802 138.714 38.315 138.863 38.5206L135.628 40.8733C136.311 41.812 137.337 42.049 138.11 42.049V38.049ZM139.103 38.9542C139.117 38.991 139.125 39.0169 139.128 39.0282C139.131 39.0397 139.13 39.0403 139.128 39.0279C139.124 39.0011 139.118 38.9389 139.118 38.833H135.118C135.118 39.3197 135.17 39.8936 135.389 40.4398L139.103 38.9542ZM139.118 38.833C139.118 38.2974 139.176 37.758 139.296 37.2124L135.388 36.3576C135.209 37.1773 135.118 38.0032 135.118 38.833H139.118ZM139.287 37.2482C139.495 36.3748 139.663 35.8046 139.787 35.481L136.049 34.057C135.831 34.6294 135.615 35.4031 135.396 36.3217L139.287 37.2482ZM139.762 35.5439C140.435 33.9415 141.534 30.4484 143.04 25.2095L139.196 24.1045C137.672 29.4042 136.638 32.6525 136.074 33.9941L139.762 35.5439ZM143.038 25.2177C144.28 20.9622 145.486 17.8996 146.625 15.9304L143.163 13.9276C141.784 16.3103 140.472 19.7331 139.198 24.0963L143.038 25.2177ZM146.618 15.943C147.278 14.8207 148.293 14.1929 150.064 14.1769L150.028 10.1771C147.063 10.2038 144.643 11.4106 143.17 13.9149L146.618 15.943ZM144.185 31.8529L145.977 31.5969L145.411 27.6371L143.619 27.8931L144.185 31.8529ZM145.865 31.6097L146.985 31.5137L146.643 27.5283L145.523 27.6243L145.865 31.6097ZM146.66 31.5151L149.572 31.7391L149.879 27.7509L146.967 27.5269L146.66 31.5151ZM149.639 31.7431C150.506 31.7808 151.484 31.5444 152.438 31.2264L151.173 27.4316C150.336 27.7109 149.927 27.7518 149.813 27.7469L149.639 31.7431ZM152.438 31.2264C153.496 30.8737 154.684 30.167 155.95 29.2566L153.614 26.0094C152.448 26.8483 151.651 27.2723 151.173 27.4316L152.438 31.2264ZM156.764 27.3687C156.478 25.2197 155.731 22.7115 154.589 19.8772L150.879 21.3727C151.955 24.0424 152.574 26.2062 152.799 27.8973L156.764 27.3687ZM154.586 19.8694C154.028 18.5022 153.498 17.3783 152.994 16.5643C152.746 16.1624 152.454 15.7543 152.11 15.4212C151.809 15.1292 151.196 14.6271 150.312 14.5944L150.164 18.5916C149.852 18.5801 149.624 18.4827 149.502 18.4154C149.439 18.3811 149.395 18.3496 149.369 18.3293C149.342 18.3088 149.328 18.295 149.325 18.2928C149.323 18.2903 149.348 18.3149 149.4 18.383C149.45 18.4493 149.515 18.5429 149.593 18.6697C149.921 19.1997 150.352 20.0811 150.882 21.3805L154.586 19.8694ZM150.459 14.6052L149.883 14.5412L149.441 18.5168L150.017 18.5808L150.459 14.6052ZM149.662 14.529H149.374V18.529H149.662V14.529ZM149.374 14.529C147.64 14.529 146.284 15.4219 145.398 16.8165C144.582 18.1004 144.146 19.8146 143.93 21.7468L147.905 22.1911C148.095 20.4967 148.438 19.4909 148.774 18.9614C149.04 18.5427 149.209 18.529 149.374 18.529V14.529ZM143.93 21.7468C143.532 25.3075 142.894 27.6051 142.165 28.8807L145.638 30.8653C146.787 28.8555 147.493 25.8838 147.905 22.1911L143.93 21.7468Z" fill="black" mask="url(#path-20-outside-1_367_790)"></path><mask id="path-22-outside-2_367_790" maskUnits="userSpaceOnUse" x="21" y="8.20898" width="145" height="35" fill="black"><rect fill="white" x="21" y="8.20898" width="145" height="35"></rect><path d="M34.6683 13.609C35.9056 13.609 37.5269 14.1317 39.5323 15.177C41.7296 16.329 42.8283 17.3957 42.8283 18.377C42.8283 18.569 42.7536 18.7503 42.6043 18.921C40.5989 18.3236 38.7643 18.0036 37.1003 17.961C36.6523 17.9397 36.1829 17.9717 35.6923 18.057C35.5429 18.0783 35.3509 18.1103 35.1163 18.153C35.0309 18.153 34.9243 18.2063 34.7963 18.313C31.2763 18.313 29.0363 18.857 28.0763 19.945C27.1803 20.9477 26.7323 23.2517 26.7323 26.857C26.7323 29.609 28.1083 31.6677 30.8603 33.033C32.3109 33.7583 34.9029 34.473 38.6363 35.177C42.0923 35.817 43.8309 36.457 43.8523 37.097L42.9883 38.793L39.9483 39.209C36.4709 39.209 33.4736 38.729 30.9563 37.769C27.6709 36.5317 25.4736 34.5583 24.3643 31.849C23.5963 29.929 23.2016 27.9663 23.1803 25.961C23.1589 22.6543 24.2363 19.7957 26.4123 17.385C28.6523 14.8677 31.4043 13.609 34.6683 13.609ZM56.363 13.609C58.731 13.5876 60.9177 15.049 62.923 17.993C64.9497 20.9157 65.9737 24.2863 65.995 28.105C66.0163 31.2623 64.2883 33.9717 60.811 36.233C57.7817 38.1957 54.699 39.1877 51.563 39.209C49.5577 39.2303 48.0537 37.9823 47.051 35.465C46.3043 33.609 45.931 31.4437 45.931 28.969C45.931 25.1503 46.7523 21.769 48.395 18.825C50.3363 15.369 52.9923 13.6303 56.363 13.609ZM50.635 29.353C50.5923 29.5023 50.5603 29.5983 50.539 29.641C50.5177 29.6837 50.347 29.961 50.027 30.473C49.7283 30.985 49.579 31.4543 49.579 31.881C49.579 32.5637 49.931 33.2997 50.635 34.089L52.139 34.857C52.5657 35.0703 53.2377 35.1983 54.155 35.241L55.883 35.113C56.7363 35.0277 57.963 34.0357 59.563 32.137C61.1843 30.217 62.0057 28.0197 62.027 25.545C62.0483 23.689 61.547 21.9823 60.523 20.425C59.371 18.6543 57.899 17.769 56.107 17.769L55.403 17.833C53.8457 17.833 52.6617 19.0063 51.851 21.353C51.1043 23.5503 50.699 26.217 50.635 29.353ZM75.544 13.609C77.464 13.5876 79.256 14.5263 80.92 16.425C82.4987 18.2383 83.2987 20.1263 83.32 22.089C83.3413 24.2223 82.5093 25.929 80.824 27.209C79.288 28.3823 77.4213 28.9797 75.224 29.001C73.9013 29.0223 72.8453 28.777 72.056 28.265L72.696 32.649C72.9307 34.2277 73.0267 35.4863 72.984 36.425L72.952 37.193C72.952 37.3637 72.9307 37.609 72.888 37.929C72.824 38.7397 72.408 39.1663 71.64 39.209L71 39.145C70.744 39.1237 70.488 38.9423 70.232 38.601L69.464 37.609L68.312 32.073C67.9707 30.4303 67.7893 29.225 67.768 28.457L67.608 22.089C67.544 19.721 68.408 17.705 70.2 16.041C71.9067 14.441 73.688 13.6303 75.544 13.609ZM71.544 22.409C71.6507 23.8597 71.7787 24.8303 71.928 25.321C72.0347 25.6623 72.888 25.8437 74.488 25.865C76.088 25.8863 77.4107 25.545 78.456 24.841C79.6507 24.0517 80.3333 22.8996 80.504 21.385C79.864 20.0836 79.2347 19.1983 78.616 18.729C77.8907 18.153 76.8667 17.865 75.544 17.865C74.1787 17.8436 73.1333 18.153 72.408 18.793C71.704 19.4117 71.3947 20.3183 71.48 21.513L71.544 22.409ZM90.973 13.897C91.357 14.153 91.6557 14.5583 91.869 15.113C92.0183 15.7103 92.1037 16.329 92.125 16.969C92.1463 17.417 92.0823 18.1317 91.933 19.113L91.741 20.425C91.741 21.513 91.9117 22.6757 92.253 23.913C92.5943 25.129 93.149 25.7797 93.917 25.865L95.325 26.025C96.3277 26.025 97.309 25.1717 98.269 23.465L101.085 18.409C102.301 16.617 103.698 15.721 105.277 15.721C105.832 15.9556 106.13 16.4996 106.173 17.353C106.194 17.673 106.056 18.3983 105.757 19.529L105.341 21.161C105.341 23.4437 104.84 26.1423 103.837 29.257C102.877 32.2223 101.618 34.697 100.061 36.681C98.013 39.305 95.7197 40.6277 93.181 40.649C88.381 40.6917 85.789 40.1263 85.405 38.953C85.149 38.1637 85.021 37.609 85.021 37.289C85.021 36.8837 85.245 36.6703 85.693 36.649C85.7783 36.649 86.3757 36.777 87.485 37.033L89.533 37.513C89.981 37.577 90.5463 37.609 91.229 37.609C95.0263 37.609 97.9383 35.5397 99.965 31.401C100.754 29.801 101.202 28.4037 101.309 27.209L101.629 23.849L99.485 27.273C98.653 28.361 97.5117 28.905 96.061 28.905C94.4183 28.905 93.0957 28.6063 92.093 28.009C91.0903 27.4117 90.2157 26.377 89.469 24.905C88.445 22.921 87.933 21.001 87.933 19.145V17.257C87.933 16.041 87.9437 15.369 87.965 15.241C88.093 14.537 88.477 14.0463 89.117 13.769L90.973 13.897ZM127.887 13.609C129.124 13.609 130.746 14.1317 132.751 15.177C134.948 16.329 136.047 17.3957 136.047 18.377C136.047 18.569 135.972 18.7503 135.823 18.921C133.818 18.3236 131.983 18.0036 130.319 17.961C129.871 17.9397 129.402 17.9717 128.911 18.057C128.762 18.0783 128.57 18.1103 128.335 18.153C128.25 18.153 128.143 18.2063 128.015 18.313C124.495 18.313 122.255 18.857 121.295 19.945C120.399 20.9477 119.951 23.2517 119.951 26.857C119.951 29.609 121.327 31.6677 124.079 33.033C125.53 33.7583 128.122 34.473 131.855 35.177C135.311 35.817 137.05 36.457 137.071 37.097L136.207 38.793L133.167 39.209C129.69 39.209 126.692 38.729 124.175 37.769C120.89 36.5317 118.692 34.5583 117.583 31.849C116.815 29.929 116.42 27.9663 116.399 25.961C116.378 22.6543 117.455 19.7957 119.631 17.385C121.871 14.8677 124.623 13.609 127.887 13.609ZM152.046 11.177C153.944 11.1556 155.672 12.7557 157.23 15.977C158.958 19.5397 160.056 22.3663 160.526 24.457L163.47 36.969L163.214 37.897C163.086 38.281 162.904 38.569 162.67 38.761C162.435 38.953 162.19 39.081 161.934 39.145L161.294 39.209C160.867 39.209 160.568 39.1877 160.398 39.145L159.63 38.921V37.321L159.662 35.785C159.704 34.1637 159.47 32.9797 158.958 32.233C158.467 31.4863 157.432 31.113 155.854 31.113C151.416 31.0917 148.643 31.3157 147.534 31.785C146.424 32.233 145.571 33.2037 144.974 34.697C144.376 36.1903 143.288 37.545 141.71 38.761L140.942 38.985L140.11 39.049C139.704 39.049 139.416 38.9317 139.246 38.697C139.16 38.4837 139.118 38.1957 139.118 37.833C139.118 37.1503 139.192 36.4677 139.342 35.785C139.555 34.889 139.747 34.217 139.918 33.769C140.536 32.297 141.603 28.9263 143.118 23.657C144.376 19.3477 145.635 16.105 146.894 13.929C147.96 12.1156 149.678 11.1983 152.046 11.177ZM145.902 28.873L147.694 28.617L148.814 28.521L151.726 28.745C152.216 28.7663 152.91 28.6277 153.806 28.329C154.574 28.073 155.566 27.5077 156.782 26.633C156.526 24.713 155.843 22.377 154.734 19.625C153.646 16.9583 152.814 15.6143 152.238 15.593L151.662 15.529H151.374C149.475 15.529 148.323 17.3423 147.918 20.969C147.512 24.5957 146.84 27.2303 145.902 28.873Z"></path></mask><path d="M34.6683 13.609C35.9056 13.609 37.5269 14.1317 39.5323 15.177C41.7296 16.329 42.8283 17.3957 42.8283 18.377C42.8283 18.569 42.7536 18.7503 42.6043 18.921C40.5989 18.3236 38.7643 18.0036 37.1003 17.961C36.6523 17.9397 36.1829 17.9717 35.6923 18.057C35.5429 18.0783 35.3509 18.1103 35.1163 18.153C35.0309 18.153 34.9243 18.2063 34.7963 18.313C31.2763 18.313 29.0363 18.857 28.0763 19.945C27.1803 20.9477 26.7323 23.2517 26.7323 26.857C26.7323 29.609 28.1083 31.6677 30.8603 33.033C32.3109 33.7583 34.9029 34.473 38.6363 35.177C42.0923 35.817 43.8309 36.457 43.8523 37.097L42.9883 38.793L39.9483 39.209C36.4709 39.209 33.4736 38.729 30.9563 37.769C27.6709 36.5317 25.4736 34.5583 24.3643 31.849C23.5963 29.929 23.2016 27.9663 23.1803 25.961C23.1589 22.6543 24.2363 19.7957 26.4123 17.385C28.6523 14.8677 31.4043 13.609 34.6683 13.609ZM56.363 13.609C58.731 13.5876 60.9177 15.049 62.923 17.993C64.9497 20.9157 65.9737 24.2863 65.995 28.105C66.0163 31.2623 64.2883 33.9717 60.811 36.233C57.7817 38.1957 54.699 39.1877 51.563 39.209C49.5577 39.2303 48.0537 37.9823 47.051 35.465C46.3043 33.609 45.931 31.4437 45.931 28.969C45.931 25.1503 46.7523 21.769 48.395 18.825C50.3363 15.369 52.9923 13.6303 56.363 13.609ZM50.635 29.353C50.5923 29.5023 50.5603 29.5983 50.539 29.641C50.5177 29.6837 50.347 29.961 50.027 30.473C49.7283 30.985 49.579 31.4543 49.579 31.881C49.579 32.5637 49.931 33.2997 50.635 34.089L52.139 34.857C52.5657 35.0703 53.2377 35.1983 54.155 35.241L55.883 35.113C56.7363 35.0277 57.963 34.0357 59.563 32.137C61.1843 30.217 62.0057 28.0197 62.027 25.545C62.0483 23.689 61.547 21.9823 60.523 20.425C59.371 18.6543 57.899 17.769 56.107 17.769L55.403 17.833C53.8457 17.833 52.6617 19.0063 51.851 21.353C51.1043 23.5503 50.699 26.217 50.635 29.353ZM75.544 13.609C77.464 13.5876 79.256 14.5263 80.92 16.425C82.4987 18.2383 83.2987 20.1263 83.32 22.089C83.3413 24.2223 82.5093 25.929 80.824 27.209C79.288 28.3823 77.4213 28.9797 75.224 29.001C73.9013 29.0223 72.8453 28.777 72.056 28.265L72.696 32.649C72.9307 34.2277 73.0267 35.4863 72.984 36.425L72.952 37.193C72.952 37.3637 72.9307 37.609 72.888 37.929C72.824 38.7397 72.408 39.1663 71.64 39.209L71 39.145C70.744 39.1237 70.488 38.9423 70.232 38.601L69.464 37.609L68.312 32.073C67.9707 30.4303 67.7893 29.225 67.768 28.457L67.608 22.089C67.544 19.721 68.408 17.705 70.2 16.041C71.9067 14.441 73.688 13.6303 75.544 13.609ZM71.544 22.409C71.6507 23.8597 71.7787 24.8303 71.928 25.321C72.0347 25.6623 72.888 25.8437 74.488 25.865C76.088 25.8863 77.4107 25.545 78.456 24.841C79.6507 24.0517 80.3333 22.8996 80.504 21.385C79.864 20.0836 79.2347 19.1983 78.616 18.729C77.8907 18.153 76.8667 17.865 75.544 17.865C74.1787 17.8436 73.1333 18.153 72.408 18.793C71.704 19.4117 71.3947 20.3183 71.48 21.513L71.544 22.409ZM90.973 13.897C91.357 14.153 91.6557 14.5583 91.869 15.113C92.0183 15.7103 92.1037 16.329 92.125 16.969C92.1463 17.417 92.0823 18.1317 91.933 19.113L91.741 20.425C91.741 21.513 91.9117 22.6757 92.253 23.913C92.5943 25.129 93.149 25.7797 93.917 25.865L95.325 26.025C96.3277 26.025 97.309 25.1717 98.269 23.465L101.085 18.409C102.301 16.617 103.698 15.721 105.277 15.721C105.832 15.9556 106.13 16.4996 106.173 17.353C106.194 17.673 106.056 18.3983 105.757 19.529L105.341 21.161C105.341 23.4437 104.84 26.1423 103.837 29.257C102.877 32.2223 101.618 34.697 100.061 36.681C98.013 39.305 95.7197 40.6277 93.181 40.649C88.381 40.6917 85.789 40.1263 85.405 38.953C85.149 38.1637 85.021 37.609 85.021 37.289C85.021 36.8837 85.245 36.6703 85.693 36.649C85.7783 36.649 86.3757 36.777 87.485 37.033L89.533 37.513C89.981 37.577 90.5463 37.609 91.229 37.609C95.0263 37.609 97.9383 35.5397 99.965 31.401C100.754 29.801 101.202 28.4037 101.309 27.209L101.629 23.849L99.485 27.273C98.653 28.361 97.5117 28.905 96.061 28.905C94.4183 28.905 93.0957 28.6063 92.093 28.009C91.0903 27.4117 90.2157 26.377 89.469 24.905C88.445 22.921 87.933 21.001 87.933 19.145V17.257C87.933 16.041 87.9437 15.369 87.965 15.241C88.093 14.537 88.477 14.0463 89.117 13.769L90.973 13.897ZM127.887 13.609C129.124 13.609 130.746 14.1317 132.751 15.177C134.948 16.329 136.047 17.3957 136.047 18.377C136.047 18.569 135.972 18.7503 135.823 18.921C133.818 18.3236 131.983 18.0036 130.319 17.961C129.871 17.9397 129.402 17.9717 128.911 18.057C128.762 18.0783 128.57 18.1103 128.335 18.153C128.25 18.153 128.143 18.2063 128.015 18.313C124.495 18.313 122.255 18.857 121.295 19.945C120.399 20.9477 119.951 23.2517 119.951 26.857C119.951 29.609 121.327 31.6677 124.079 33.033C125.53 33.7583 128.122 34.473 131.855 35.177C135.311 35.817 137.05 36.457 137.071 37.097L136.207 38.793L133.167 39.209C129.69 39.209 126.692 38.729 124.175 37.769C120.89 36.5317 118.692 34.5583 117.583 31.849C116.815 29.929 116.42 27.9663 116.399 25.961C116.378 22.6543 117.455 19.7957 119.631 17.385C121.871 14.8677 124.623 13.609 127.887 13.609ZM152.046 11.177C153.944 11.1556 155.672 12.7557 157.23 15.977C158.958 19.5397 160.056 22.3663 160.526 24.457L163.47 36.969L163.214 37.897C163.086 38.281 162.904 38.569 162.67 38.761C162.435 38.953 162.19 39.081 161.934 39.145L161.294 39.209C160.867 39.209 160.568 39.1877 160.398 39.145L159.63 38.921V37.321L159.662 35.785C159.704 34.1637 159.47 32.9797 158.958 32.233C158.467 31.4863 157.432 31.113 155.854 31.113C151.416 31.0917 148.643 31.3157 147.534 31.785C146.424 32.233 145.571 33.2037 144.974 34.697C144.376 36.1903 143.288 37.545 141.71 38.761L140.942 38.985L140.11 39.049C139.704 39.049 139.416 38.9317 139.246 38.697C139.16 38.4837 139.118 38.1957 139.118 37.833C139.118 37.1503 139.192 36.4677 139.342 35.785C139.555 34.889 139.747 34.217 139.918 33.769C140.536 32.297 141.603 28.9263 143.118 23.657C144.376 19.3477 145.635 16.105 146.894 13.929C147.96 12.1156 149.678 11.1983 152.046 11.177ZM145.902 28.873L147.694 28.617L148.814 28.521L151.726 28.745C152.216 28.7663 152.91 28.6277 153.806 28.329C154.574 28.073 155.566 27.5077 156.782 26.633C156.526 24.713 155.843 22.377 154.734 19.625C153.646 16.9583 152.814 15.6143 152.238 15.593L151.662 15.529H151.374C149.475 15.529 148.323 17.3423 147.918 20.969C147.512 24.5957 146.84 27.2303 145.902 28.873Z" fill="white"></path><path d="M39.5323 15.177L40.4609 13.4057L40.4567 13.4035L39.5323 15.177ZM42.6043 18.921L42.0333 20.8378L43.2639 21.2043L44.1094 20.238L42.6043 18.921ZM37.1003 17.961L37.0051 19.9587L37.027 19.9598L37.049 19.9603L37.1003 17.961ZM35.6923 18.057L35.9751 20.0369L36.0051 20.0326L36.0349 20.0274L35.6923 18.057ZM35.1163 18.153V20.153H35.2966L35.474 20.1207L35.1163 18.153ZM34.7963 18.313V20.313H35.5203L36.0766 19.8494L34.7963 18.313ZM28.0763 19.945L29.5676 21.2777L29.5759 21.2682L28.0763 19.945ZM30.8603 33.033L31.7547 31.2441L31.7491 31.2414L30.8603 33.033ZM38.6363 35.177L38.2656 37.1424L38.2721 37.1435L38.6363 35.177ZM43.8523 37.097L45.6343 38.0048L45.8683 37.5455L45.8511 37.0304L43.8523 37.097ZM42.9883 38.793L43.2594 40.7745L44.2956 40.6327L44.7703 39.7008L42.9883 38.793ZM39.9483 39.209V41.209H40.0845L40.2194 41.1905L39.9483 39.209ZM30.9563 37.769L31.6689 35.9002L31.6612 35.8973L30.9563 37.769ZM24.3643 31.849L22.5073 32.5918L22.5103 32.5993L22.5134 32.6068L24.3643 31.849ZM23.1803 25.961L21.1803 25.9739L21.1804 25.9823L23.1803 25.961ZM26.4123 17.385L27.8969 18.7251L27.9016 18.7198L27.9064 18.7145L26.4123 17.385ZM34.6683 15.609C35.416 15.609 36.6883 15.9499 38.6078 16.9505L40.4567 13.4035C38.3656 12.3134 36.3952 11.609 34.6683 11.609V15.609ZM38.6036 16.9483C39.6235 17.483 40.258 17.9332 40.6111 18.2759C40.9849 18.6388 40.8283 18.6647 40.8283 18.377H44.8283C44.8283 17.1079 44.1223 16.1098 43.3974 15.406C42.6518 14.6821 41.6383 14.0229 40.4609 13.4057L38.6036 16.9483ZM40.8283 18.377C40.8283 18.2061 40.8629 18.0411 40.9229 17.8955C40.981 17.7544 41.0515 17.6584 41.0991 17.604L44.1094 20.238C44.5168 19.7724 44.8283 19.1386 44.8283 18.377H40.8283ZM43.1752 17.0042C41.0422 16.3689 39.0299 16.0098 37.1515 15.9616L37.049 19.9603C38.4986 19.9975 40.1556 20.2784 42.0333 20.8378L43.1752 17.0042ZM37.1954 15.9632C36.5858 15.9342 35.9691 15.9788 35.3496 16.0866L36.0349 20.0274C36.3968 19.9645 36.7187 19.9451 37.0051 19.9587L37.1954 15.9632ZM35.4094 16.0771C35.225 16.1034 35.0056 16.1403 34.7585 16.1852L35.474 20.1207C35.6963 20.0803 35.8608 20.0532 35.9751 20.0369L35.4094 16.0771ZM35.1163 16.153C34.2869 16.153 33.7099 16.6148 33.5159 16.7765L36.0766 19.8494C36.0651 19.8591 35.9936 19.9184 35.8667 19.9818C35.7461 20.0421 35.4824 20.153 35.1163 20.153V16.153ZM34.7963 16.313C32.9512 16.313 31.3371 16.4538 30.0043 16.7775C28.7021 17.0937 27.4445 17.6381 26.5766 18.6217L29.5759 21.2682C29.668 21.1639 30.0104 20.8923 30.9482 20.6645C31.8554 20.4442 33.1213 20.313 34.7963 20.313V16.313ZM26.5849 18.6123C25.7781 19.5152 25.3531 20.7674 25.105 22.0432C24.8473 23.3689 24.7323 24.9865 24.7323 26.857H28.7323C28.7323 25.1222 28.8412 23.7851 29.0315 22.8067C29.2314 21.7786 29.4784 21.3774 29.5676 21.2776L26.5849 18.6123ZM24.7323 26.857C24.7323 28.5829 25.1695 30.182 26.1015 31.5764C27.0251 32.9583 28.357 34.0237 29.9714 34.8246L31.7491 31.2414C30.6115 30.677 29.8794 30.0303 29.427 29.3536C28.983 28.6893 28.7323 27.8831 28.7323 26.857H24.7323ZM29.9658 34.8218C31.6898 35.6838 34.5281 36.4376 38.2656 37.1423L39.0069 33.2116C35.2777 32.5084 32.932 31.8328 31.7547 31.2441L29.9658 34.8218ZM38.2721 37.1435C39.9688 37.4578 41.1341 37.7535 41.8414 38.0139C42.0111 38.0763 42.1366 38.1304 42.2255 38.1738C42.3174 38.2188 42.3473 38.2413 42.3379 38.2345C42.3343 38.2319 42.2372 38.1628 42.1285 38.0085C42.0108 37.8413 41.8663 37.5518 41.8534 37.1636L45.8511 37.0304C45.8145 35.93 45.069 35.2747 44.6906 34.9995C44.2531 34.6813 43.7277 34.4459 43.2231 34.2601C42.1918 33.8805 40.7597 33.5362 39.0004 33.2104L38.2721 37.1435ZM42.0702 36.1891L41.2062 37.8851L44.7703 39.7008L45.6343 38.0048L42.0702 36.1891ZM42.7171 36.8115L39.6771 37.2275L40.2194 41.1905L43.2594 40.7745L42.7171 36.8115ZM39.9483 37.209C36.6471 37.209 33.9032 36.7523 31.6689 35.9003L30.2436 39.6377C33.044 40.7056 36.2947 41.209 39.9483 41.209V37.209ZM31.6612 35.8973C28.7838 34.8136 27.0723 33.1848 26.2151 31.0912L22.5134 32.6068C23.8748 35.9319 26.558 38.2497 30.2513 39.6406L31.6612 35.8973ZM26.2212 31.1062C25.5421 29.4085 25.1988 27.69 25.1801 25.9397L21.1804 25.9823C21.2044 28.2426 21.6504 30.4494 22.5073 32.5918L26.2212 31.1062ZM25.1802 25.9481C25.162 23.1309 26.0623 20.7575 27.8969 18.7251L24.9276 16.0449C22.4102 18.8338 21.1558 22.1778 21.1803 25.9739L25.1802 25.9481ZM27.9064 18.7145C29.7809 16.6079 31.9959 15.609 34.6683 15.609V11.609C30.8126 11.609 27.5236 13.1274 24.9181 16.0555L27.9064 18.7145ZM56.363 13.609L56.3757 15.609L56.381 15.6089L56.363 13.609ZM62.923 17.993L61.27 19.1189L61.2747 19.1258L61.2795 19.1327L62.923 17.993ZM65.995 28.105L63.995 28.1162L63.995 28.1185L65.995 28.105ZM60.811 36.233L61.8985 37.9115L61.9013 37.9096L60.811 36.233ZM51.563 39.209L51.5494 37.209L51.5417 37.2091L51.563 39.209ZM47.051 35.465L48.909 34.7249L48.9065 34.7185L47.051 35.465ZM48.395 18.825L46.6513 17.8455L46.6485 17.8505L48.395 18.825ZM50.635 29.353L52.558 29.9024L52.6293 29.6531L52.6346 29.3938L50.635 29.353ZM50.539 29.641L48.7501 28.7466L48.7501 28.7466L50.539 29.641ZM50.027 30.473L48.331 29.413L48.3148 29.4389L48.2994 29.4652L50.027 30.473ZM50.635 34.089L49.1424 35.4202L49.3918 35.6998L49.7254 35.8702L50.635 34.089ZM52.139 34.857L51.2294 36.6382L51.237 36.642L51.2446 36.6458L52.139 34.857ZM54.155 35.241L54.0621 37.2388L54.1825 37.2444L54.3027 37.2355L54.155 35.241ZM55.883 35.113L56.0307 37.1075L56.0564 37.1056L56.082 37.1031L55.883 35.113ZM59.563 32.137L58.0349 30.8466L58.0336 30.8482L59.563 32.137ZM62.027 25.545L60.0271 25.522L60.0271 25.5277L62.027 25.545ZM60.523 20.425L58.8466 21.5157L58.8519 21.5238L60.523 20.425ZM56.107 17.769V15.769H56.0163L55.9259 15.7772L56.107 17.769ZM55.403 17.833V19.833H55.4937L55.5841 19.8248L55.403 17.833ZM51.851 21.353L49.9606 20.6999L49.9573 20.7095L51.851 21.353ZM56.381 15.6089C57.7899 15.5962 59.4403 16.4327 61.27 19.1189L64.576 16.8671C62.395 13.6652 59.6721 11.5791 56.345 11.6091L56.381 15.6089ZM61.2795 19.1327C63.059 21.6989 63.9758 24.6697 63.995 28.1162L67.995 28.0938C67.9716 23.9029 66.8403 20.1324 64.5665 16.8533L61.2795 19.1327ZM63.995 28.1185C64.0104 30.3847 62.8278 32.5357 59.7207 34.5563L61.9013 37.9096C65.7489 35.4076 68.0223 32.1399 67.995 28.0915L63.995 28.1185ZM59.7235 34.5545C56.9647 36.3419 54.2492 37.1907 51.5494 37.209L51.5766 41.2089C55.1488 41.1846 58.5986 40.0494 61.8985 37.9115L59.7235 34.5545ZM51.5417 37.2091C50.9992 37.2149 50.5853 37.0628 50.2081 36.7499C49.7938 36.4061 49.332 35.7868 48.909 34.7249L45.193 36.205C45.7727 37.6605 46.5642 38.9239 47.6539 39.8281C48.7807 40.7632 50.1214 41.2244 51.5843 41.2089L51.5417 37.2091ZM48.9065 34.7185C48.275 33.1488 47.931 31.2465 47.931 28.969H43.931C43.931 31.6408 44.3337 34.0692 45.1955 36.2114L48.9065 34.7185ZM47.931 28.969C47.931 25.4455 48.6861 22.4079 50.1415 19.7995L46.6485 17.8505C44.8185 21.1301 43.931 24.8552 43.931 28.969H47.931ZM50.1387 19.8045C51.802 16.8436 53.8623 15.6249 56.3757 15.6089L56.3503 11.609C52.1223 11.6358 48.8707 13.8944 46.6513 17.8455L50.1387 19.8045ZM48.712 28.8035C48.7038 28.8321 48.6971 28.8549 48.6917 28.8727C48.6862 28.8907 48.6829 28.9009 48.6816 28.9045C48.68 28.9093 48.683 28.9 48.6903 28.881C48.6941 28.8711 48.7004 28.8551 48.7092 28.8346C48.7177 28.8149 48.7313 28.7843 48.7501 28.7466L52.3279 30.5354C52.4478 30.2955 52.5272 30.0104 52.558 29.9024L48.712 28.8035ZM48.7501 28.7466C48.7677 28.7113 48.7819 28.686 48.7849 28.6805C48.79 28.6714 48.7931 28.6659 48.7931 28.6659C48.7931 28.6659 48.7894 28.6724 48.78 28.688C48.7617 28.7186 48.7328 28.7659 48.6917 28.8328C48.61 28.9655 48.4902 29.1582 48.331 29.413L51.723 31.533C51.8838 31.2758 52.0093 31.0738 52.0983 30.9292C52.1515 30.8427 52.2664 30.6583 52.3279 30.5354L48.7501 28.7466ZM48.2994 29.4652C47.8886 30.1696 47.579 30.9886 47.579 31.881H51.579C51.579 31.9201 51.5681 31.8004 51.7546 31.4807L48.2994 29.4652ZM47.579 31.881C47.579 33.2631 48.2838 34.4575 49.1424 35.4202L52.1276 32.7578C51.5782 32.1418 51.579 31.8642 51.579 31.881H47.579ZM49.7254 35.8702L51.2294 36.6382L53.0486 33.0758L51.5446 32.3078L49.7254 35.8702ZM51.2446 36.6458C52.058 37.0526 53.0765 37.193 54.0621 37.2388L54.2479 33.2431C53.854 33.2248 53.5551 33.1898 53.3372 33.1483C53.1107 33.1052 53.0281 33.0655 53.0334 33.0681L51.2446 36.6458ZM54.3027 37.2355L56.0307 37.1075L55.7353 33.1184L54.0073 33.2464L54.3027 37.2355ZM56.082 37.1031C57.104 37.0009 58.0027 36.4245 58.7006 35.8601C59.4522 35.2523 60.2513 34.4238 61.0924 33.4258L58.0336 30.8482C57.2747 31.7488 56.6604 32.3657 56.1854 32.7499C55.6566 33.1775 55.5153 33.1398 55.684 33.1229L56.082 37.1031ZM61.0911 33.4273C63.0082 31.157 64.0015 28.5111 64.0269 25.5622L60.0271 25.5277C60.0098 27.5282 59.3604 29.277 58.0349 30.8466L61.0911 33.4273ZM64.0269 25.568C64.0528 23.3119 63.436 21.2149 62.1941 19.3262L58.8519 21.5238C59.658 22.7498 60.0439 24.0661 60.0271 25.522L64.0269 25.568ZM62.1994 19.3343C60.755 17.1142 58.705 15.769 56.107 15.769V19.769C57.093 19.769 57.987 20.1945 58.8466 21.5157L62.1994 19.3343ZM55.9259 15.7772L55.2219 15.8412L55.5841 19.8248L56.2881 19.7608L55.9259 15.7772ZM55.403 15.833C52.5254 15.833 50.858 18.1024 49.9606 20.6999L53.7414 22.006C54.4654 19.9102 55.166 19.833 55.403 19.833V15.833ZM49.9573 20.7095C49.1261 23.1558 48.7022 26.0381 48.6354 29.3122L52.6346 29.3938C52.6958 26.3958 53.0826 23.9448 53.7447 21.9965L49.9573 20.7095ZM75.544 13.609L75.5218 11.6091L75.521 11.6091L75.544 13.609ZM80.92 16.425L82.4285 15.1117L82.4241 15.1068L80.92 16.425ZM83.32 22.089L85.3199 22.069L85.3199 22.0672L83.32 22.089ZM80.824 27.209L79.6143 25.6163L79.6099 25.6196L80.824 27.209ZM75.224 29.001L75.2046 27.001L75.1917 27.0012L75.224 29.001ZM72.056 28.265L73.1444 26.5871L69.439 24.1836L70.077 28.5539L72.056 28.265ZM72.696 32.649L70.717 32.9379L70.7177 32.9431L72.696 32.649ZM72.984 36.425L70.986 36.3342L70.9857 36.3417L72.984 36.425ZM72.952 37.193L70.9537 37.1097L70.952 37.1513V37.193H72.952ZM72.888 37.929L70.9055 37.6647L70.8984 37.718L70.8942 37.7716L72.888 37.929ZM71.64 39.209L71.441 41.1991L71.5957 41.2145L71.7509 41.2059L71.64 39.209ZM71 39.145L71.199 37.1549L71.1826 37.1533L71.1661 37.1519L71 39.145ZM70.232 38.601L71.832 37.401L71.8228 37.3887L71.8134 37.3766L70.232 38.601ZM69.464 37.609L67.5059 38.0164L67.6 38.4683L67.8826 38.8333L69.464 37.609ZM68.312 32.073L66.3538 32.4799L66.3539 32.4804L68.312 32.073ZM67.768 28.457L65.7686 28.5072L65.7688 28.5125L67.768 28.457ZM67.608 22.089L69.6074 22.0387L69.6073 22.0349L67.608 22.089ZM70.2 16.041L71.5609 17.5066L71.5679 17.5001L70.2 16.041ZM71.544 22.409L69.5491 22.5515L69.5494 22.5556L71.544 22.409ZM71.928 25.321L70.0147 25.9033L70.0168 25.9104L70.019 25.9175L71.928 25.321ZM74.488 25.865L74.5147 23.8652L74.5147 23.8652L74.488 25.865ZM78.456 24.841L77.3535 23.1723L77.3461 23.1772L77.3388 23.1821L78.456 24.841ZM80.504 21.385L82.4914 21.6089L82.5569 21.0274L82.2987 20.5023L80.504 21.385ZM78.616 18.729L77.3722 20.2952L77.3896 20.309L77.4072 20.3224L78.616 18.729ZM75.544 17.865L75.5128 19.8647L75.5284 19.865H75.544V17.865ZM72.408 18.793L73.7282 20.2953L73.7312 20.2927L72.408 18.793ZM71.48 21.513L69.4851 21.6555L69.4851 21.6555L71.48 21.513ZM75.5662 15.6089C76.7315 15.5959 78.0078 16.1365 79.4159 17.7432L82.4241 15.1068C80.5042 12.9162 78.1965 11.5794 75.5218 11.6091L75.5662 15.6089ZM79.4116 17.7382C80.7511 19.2768 81.305 20.7236 81.3201 22.1107L85.3199 22.0672C85.2923 19.529 84.2463 17.1998 82.4284 15.1117L79.4116 17.7382ZM81.3201 22.109C81.3352 23.6161 80.7913 24.7223 79.6143 25.6163L82.0337 28.8017C84.2273 27.1356 85.3475 24.8285 85.3199 22.069L81.3201 22.109ZM79.6099 25.6196C78.4634 26.4954 77.0316 26.9833 75.2046 27.0011L75.2434 31.0009C77.811 30.976 80.1126 30.2692 82.0381 28.7983L79.6099 25.6196ZM75.1917 27.0012C74.1111 27.0187 73.4904 26.8115 73.1444 26.5871L70.9676 29.9429C72.2002 30.7424 73.6916 31.026 75.2563 31.0007L75.1917 27.0012ZM70.077 28.5539L70.717 32.9379L74.675 32.3601L74.035 27.9761L70.077 28.5539ZM70.7177 32.9431C70.9446 34.4693 71.0202 35.5825 70.9861 36.3342L74.9819 36.5158C75.0331 35.3901 74.9167 33.986 74.6743 32.3549L70.7177 32.9431ZM70.9857 36.3417L70.9537 37.1097L74.9503 37.2762L74.9823 36.5082L70.9857 36.3417ZM70.952 37.193C70.952 37.229 70.9449 37.3697 70.9055 37.6647L74.8705 38.1933C74.9165 37.8482 74.952 37.4983 74.952 37.193H70.952ZM70.8942 37.7716C70.8856 37.8805 70.876 37.6864 71.096 37.4608C71.33 37.2208 71.563 37.2102 71.5291 37.2121L71.7509 41.2059C72.485 41.1651 73.31 40.9198 73.96 40.2532C74.596 39.6009 74.8264 38.7881 74.8818 38.0864L70.8942 37.7716ZM71.839 37.2189L71.199 37.1549L70.801 41.1351L71.441 41.1991L71.839 37.2189ZM71.1661 37.1519C71.4656 37.1769 71.6726 37.2905 71.772 37.3609C71.8622 37.4248 71.877 37.461 71.832 37.401L68.632 39.801C69.0123 40.308 69.7257 41.0457 70.8339 41.1381L71.1661 37.1519ZM71.8134 37.3766L71.0454 36.3846L67.8826 38.8333L68.6506 39.8253L71.8134 37.3766ZM71.4221 37.2015L70.2701 31.6655L66.3539 32.4804L67.5059 38.0164L71.4221 37.2015ZM70.2702 31.6661C69.9316 30.0365 69.7833 28.9795 69.7672 28.4014L65.7688 28.5125C65.7954 29.4705 66.0098 30.8241 66.3538 32.4799L70.2702 31.6661ZM69.7674 28.4067L69.6074 22.0387L65.6086 22.1392L65.7686 28.5072L69.7674 28.4067ZM69.6073 22.0349C69.5594 20.2626 70.1747 18.7938 71.5609 17.5066L68.8391 14.5754C66.6413 16.6162 65.5286 19.1794 65.6087 22.143L69.6073 22.0349ZM71.5679 17.5001C73.0084 16.1496 74.3318 15.623 75.567 15.6089L75.521 11.6091C73.0442 11.6376 70.8049 12.7324 68.8321 14.5819L71.5679 17.5001ZM69.5494 22.5556C69.6539 23.9774 69.7905 25.1668 70.0147 25.9033L73.8413 24.7387C73.7668 24.4938 73.6474 23.7419 73.5386 22.2623L69.5494 22.5556ZM70.019 25.9175C70.2654 26.7059 70.8507 27.1179 71.1917 27.3035C71.5513 27.4993 71.9282 27.6047 72.2323 27.6693C72.8516 27.8009 73.6195 27.8536 74.4613 27.8648L74.5147 23.8652C73.7565 23.8551 73.2978 23.8064 73.0637 23.7567C72.9411 23.7306 72.9847 23.7253 73.1043 23.7904C73.2053 23.8454 73.6439 24.1068 73.837 24.7244L70.019 25.9175ZM74.4613 27.8648C76.3586 27.8901 78.1093 27.4858 79.5732 26.4999L77.3388 23.1821C76.7121 23.6042 75.8174 23.8825 74.5147 23.8652L74.4613 27.8648ZM79.5585 26.5097C81.283 25.3703 82.2593 23.6691 82.4914 21.6089L78.5166 21.161C78.4074 22.1302 78.0184 22.733 77.3535 23.1723L79.5585 26.5097ZM82.2987 20.5023C81.6208 19.1239 80.8237 17.8934 79.8248 17.1356L77.4072 20.3224C77.6456 20.5032 78.1072 21.0434 78.7093 22.2676L82.2987 20.5023ZM79.8598 17.1628C78.657 16.2076 77.1298 15.865 75.544 15.865V19.865C76.6036 19.865 77.1244 20.0984 77.3722 20.2952L79.8598 17.1628ZM75.5752 15.8652C73.9164 15.8393 72.3129 16.2097 71.0848 17.2933L73.7312 20.2927C73.9538 20.0963 74.4409 19.848 75.5128 19.8647L75.5752 15.8652ZM71.0878 17.2907C69.7873 18.4335 69.3688 20.0276 69.4851 21.6555L73.4749 21.3705C73.4205 20.609 73.6207 20.3898 73.7282 20.2953L71.0878 17.2907ZM69.4851 21.6555L69.5491 22.5515L73.5389 22.2665L73.4749 21.3705L69.4851 21.6555ZM90.973 13.897L92.0824 12.2329L91.6405 11.9383L91.1106 11.9017L90.973 13.897ZM91.869 15.113L93.8093 14.6279L93.7796 14.5092L93.7357 14.395L91.869 15.113ZM92.125 16.969L90.1261 17.0356L90.1266 17.0499L90.1273 17.0641L92.125 16.969ZM91.933 19.113L89.9557 18.8121L89.9541 18.8234L91.933 19.113ZM91.741 20.425L89.7621 20.1354L89.741 20.2794V20.425H91.741ZM92.253 23.913L90.325 24.4448L90.3274 24.4535L92.253 23.913ZM93.917 25.865L94.1428 23.8778L94.1379 23.8772L93.917 25.865ZM95.325 26.025L95.0992 28.0122L95.2117 28.025H95.325V26.025ZM98.269 23.465L100.012 24.4455L100.016 24.4381L98.269 23.465ZM101.085 18.409L99.43 17.286L99.3806 17.3589L99.3377 17.4358L101.085 18.409ZM105.277 15.721L106.056 13.879L105.683 13.721H105.277V15.721ZM106.173 17.353L104.175 17.4529L104.176 17.4695L104.177 17.486L106.173 17.353ZM105.757 19.529L103.823 19.0182L103.821 19.0266L103.819 19.035L105.757 19.529ZM105.341 21.161L103.403 20.667L103.341 20.9101V21.161H105.341ZM103.837 29.257L105.74 29.873L105.741 29.8698L103.837 29.257ZM100.061 36.681L98.4878 35.4461L98.4844 35.4504L100.061 36.681ZM93.181 40.649L93.1642 38.6491L93.1632 38.6491L93.181 40.649ZM85.405 38.953L83.5025 39.57L83.5042 39.5751L85.405 38.953ZM85.693 36.649V34.649H85.6454L85.5979 34.6512L85.693 36.649ZM87.485 37.033L87.9414 35.0857L87.9347 35.0842L87.485 37.033ZM89.533 37.513L89.0766 39.4602L89.1627 39.4804L89.2502 39.4929L89.533 37.513ZM99.965 31.401L98.1714 30.5161L98.1688 30.5214L99.965 31.401ZM101.309 27.209L99.318 27.0194L99.3169 27.0311L101.309 27.209ZM101.629 23.849L103.62 24.0386L99.9339 22.7876L101.629 23.849ZM99.485 27.273L101.074 28.4879L101.13 28.4136L101.18 28.3344L99.485 27.273ZM92.093 28.009L93.1166 26.2908L93.1166 26.2908L92.093 28.009ZM89.469 24.905L91.2527 24.0002L91.2462 23.9877L89.469 24.905ZM87.965 15.241L85.9973 14.8832L85.9946 14.8977L85.9922 14.9122L87.965 15.241ZM89.117 13.769L89.2546 11.7737L88.7687 11.7402L88.3218 11.9339L89.117 13.769ZM89.8636 15.5611C89.8162 15.5295 89.8948 15.5515 90.0023 15.8309L93.7357 14.395C93.4165 13.5651 92.8978 12.7765 92.0824 12.2329L89.8636 15.5611ZM89.9287 15.5981C90.0425 16.053 90.1093 16.5311 90.1261 17.0356L94.1239 16.9024C94.098 16.1268 93.9942 15.3676 93.8093 14.6279L89.9287 15.5981ZM90.1273 17.0641C90.1384 17.2981 90.1032 17.8434 89.9558 18.8121L93.9102 19.4139C94.0615 18.4199 94.1543 17.5358 94.1227 16.8739L90.1273 17.0641ZM89.9541 18.8234L89.7621 20.1354L93.7199 20.7146L93.9119 19.4026L89.9541 18.8234ZM89.741 20.425C89.741 21.7215 89.9442 23.0644 90.325 24.4448L94.181 23.3811C93.8791 22.2869 93.741 21.3045 93.741 20.425H89.741ZM90.3274 24.4535C90.733 25.8985 91.667 27.6273 93.6961 27.8528L94.1379 23.8772C94.2042 23.8846 94.2818 23.9074 94.3535 23.9473C94.422 23.9854 94.4508 24.0199 94.447 24.0155C94.4409 24.0083 94.4045 23.9628 94.352 23.8535C94.2997 23.7446 94.2391 23.5882 94.1786 23.3725L90.3274 24.4535ZM93.6912 27.8522L95.0992 28.0122L95.5508 24.0378L94.1428 23.8778L93.6912 27.8522ZM95.325 28.025C97.5315 28.025 99.0237 26.2027 100.012 24.4455L96.5259 22.4845C96.1071 23.2288 95.7544 23.6551 95.5006 23.8758C95.2635 24.082 95.2154 24.025 95.325 24.025V28.025ZM100.016 24.4381L102.832 19.3821L99.3377 17.4358L96.5217 22.4918L100.016 24.4381ZM102.74 19.532C103.735 18.0656 104.592 17.721 105.277 17.721V13.721C102.805 13.721 100.867 15.1684 99.43 17.286L102.74 19.532ZM104.498 17.5629C104.436 17.537 104.365 17.4944 104.297 17.4324C104.229 17.3708 104.187 17.3098 104.164 17.2675C104.123 17.1937 104.164 17.2211 104.175 17.4529L108.171 17.2531C108.108 16.0022 107.604 14.5337 106.056 13.879L104.498 17.5629ZM104.177 17.486C104.171 17.3964 104.18 17.3688 104.171 17.4459C104.164 17.5097 104.149 17.6122 104.121 17.7614C104.063 18.0605 103.967 18.4751 103.823 19.0182L107.691 20.0398C107.846 19.4522 107.968 18.9388 108.049 18.5125C108.12 18.1423 108.198 17.6591 108.169 17.2199L104.177 17.486ZM103.819 19.035L103.403 20.667L107.279 21.655L107.695 20.023L103.819 19.035ZM103.341 21.161C103.341 23.1669 102.897 25.6493 101.933 28.6441L105.741 29.8698C106.782 26.6354 107.341 23.7204 107.341 21.161H103.341ZM101.934 28.641C101.03 31.4331 99.8699 33.6853 98.4878 35.4461L101.634 37.9159C103.367 35.7087 104.724 33.0115 105.74 29.873L101.934 28.641ZM98.4844 35.4504C96.6856 37.7551 94.9136 38.6344 93.1642 38.6491L93.1978 42.6489C96.5257 42.6209 99.3404 40.8549 101.638 37.9115L98.4844 35.4504ZM93.1632 38.6491C90.8132 38.67 89.1408 38.538 88.0632 38.3029C87.5221 38.1849 87.2368 38.0627 87.1159 37.9921C86.9994 37.924 87.1987 38.0035 87.3058 38.3309L83.5042 39.5751C83.8033 40.4891 84.4706 41.0793 85.0981 41.4459C85.7212 41.8099 86.4559 42.0464 87.2108 42.211C88.7252 42.5413 90.7488 42.6707 93.1988 42.6489L93.1632 38.6491ZM87.3074 38.336C87.19 37.9739 87.1124 37.6971 87.0658 37.4953C87.0139 37.2703 87.021 37.224 87.021 37.289H83.021C83.021 37.9655 83.2531 38.8007 83.5026 39.57L87.3074 38.336ZM87.021 37.289C87.021 37.4557 86.9653 37.8952 86.5683 38.2733C86.2044 38.6198 85.8324 38.6446 85.7881 38.6467L85.5979 34.6512C85.1056 34.6747 84.3976 34.8168 83.8097 35.3767C83.1887 35.9681 83.021 36.7169 83.021 37.289H87.021ZM85.693 38.649C85.5933 38.649 85.5189 38.6409 85.5019 38.6391C85.4742 38.6361 85.4559 38.6334 85.4523 38.6329C85.445 38.6318 85.4532 38.6329 85.4844 38.6387C85.5449 38.6501 85.6429 38.6699 85.7859 38.7006C86.0691 38.7613 86.4837 38.8545 87.0353 38.9818L87.9347 35.0842C87.3769 34.9555 86.9382 34.8567 86.6241 34.7894C86.4684 34.756 86.3318 34.7279 86.2216 34.7072C86.2073 34.7046 85.9429 34.649 85.693 34.649V38.649ZM87.0286 38.9802L89.0766 39.4602L89.9894 35.5658L87.9414 35.0858L87.0286 38.9802ZM89.2502 39.4929C89.8261 39.5752 90.4941 39.609 91.229 39.609V35.609C90.5986 35.609 90.1359 35.5788 89.8158 35.5331L89.2502 39.4929ZM91.229 39.609C93.5152 39.609 95.6032 38.978 97.4195 37.6873C99.2149 36.4114 100.643 34.5649 101.761 32.2806L98.1688 30.5214C97.2607 32.3757 96.2191 33.6332 95.1025 34.4267C94.0068 35.2053 92.7402 35.609 91.229 35.609V39.609ZM101.759 32.2858C102.609 30.5621 103.164 28.9165 103.301 27.3868L99.3169 27.0311C99.2402 27.8908 98.8997 29.0398 98.1714 30.5161L101.759 32.2858ZM103.3 27.3986L103.62 24.0386L99.638 23.6594L99.318 27.0194L103.3 27.3986ZM99.9339 22.7876L97.7899 26.2116L101.18 28.3344L103.324 24.9104L99.9339 22.7876ZM97.8963 26.0581C97.468 26.6182 96.9315 26.905 96.061 26.905V30.905C98.0918 30.905 99.838 30.1038 101.074 28.4879L97.8963 26.0581ZM96.061 26.905C94.6391 26.905 93.7085 26.6434 93.1166 26.2908L91.0694 29.7272C92.4829 30.5693 94.1976 30.905 96.061 30.905V26.905ZM93.1166 26.2908C92.5475 25.9517 91.8958 25.2681 91.2527 24.0002L87.6853 25.8097C88.5356 27.4859 89.6332 28.8716 91.0694 29.7272L93.1166 26.2908ZM91.2462 23.9877C90.3392 22.2303 89.933 20.6233 89.933 19.145H85.933C85.933 21.3787 86.5508 23.6117 87.6918 25.8223L91.2462 23.9877ZM89.933 19.145V17.257H85.933V19.145H89.933ZM89.933 17.257C89.933 16.6526 89.9357 16.1929 89.9407 15.8727C89.9433 15.7116 89.9463 15.5958 89.9494 15.5189C89.951 15.4801 89.9522 15.4607 89.9525 15.4555C89.954 15.435 89.9514 15.4883 89.9378 15.5698L85.9922 14.9122C85.9505 15.1626 85.9453 15.5544 85.9413 15.8092C85.9357 16.161 85.933 16.6454 85.933 17.257H89.933ZM89.9327 15.5988C89.9405 15.5558 89.9481 15.539 89.9473 15.5408C89.947 15.5416 89.945 15.546 89.9409 15.553C89.9367 15.5601 89.9311 15.5685 89.924 15.5776C89.9169 15.5867 89.9094 15.595 89.9021 15.6021C89.8947 15.6093 89.8887 15.6142 89.885 15.617C89.8771 15.6229 89.8831 15.6167 89.9122 15.6041L88.3218 11.9339C87.0499 12.485 86.2411 13.5423 85.9973 14.8832L89.9327 15.5988ZM88.9794 15.7642L90.8354 15.8922L91.1106 11.9017L89.2546 11.7737L88.9794 15.7642ZM132.751 15.177L133.68 13.4057L133.675 13.4035L132.751 15.177ZM135.823 18.921L135.252 20.8378L136.483 21.2043L137.328 20.238L135.823 18.921ZM130.319 17.961L130.224 19.9587L130.246 19.9598L130.268 19.9603L130.319 17.961ZM128.911 18.057L129.194 20.0369L129.224 20.0326L129.254 20.0274L128.911 18.057ZM128.335 18.153V20.153H128.515L128.693 20.1207L128.335 18.153ZM128.015 18.313V20.313H128.739L129.295 19.8494L128.015 18.313ZM121.295 19.945L122.786 21.2777L122.795 21.2682L121.295 19.945ZM124.079 33.033L124.973 31.2441L124.968 31.2414L124.079 33.033ZM131.855 35.177L131.484 37.1424L131.491 37.1435L131.855 35.177ZM137.071 37.097L138.853 38.0048L139.087 37.5455L139.07 37.0304L137.071 37.097ZM136.207 38.793L136.478 40.7745L137.514 40.6327L137.989 39.7008L136.207 38.793ZM133.167 39.209V41.209H133.303L133.438 41.1905L133.167 39.209ZM124.175 37.769L124.888 35.9002L124.88 35.8973L124.175 37.769ZM117.583 31.849L115.726 32.5918L115.729 32.5993L115.732 32.6068L117.583 31.849ZM116.399 25.961L114.399 25.9739L114.399 25.9823L116.399 25.961ZM119.631 17.385L121.116 18.7251L121.12 18.7198L121.125 18.7145L119.631 17.385ZM127.887 15.609C128.635 15.609 129.907 15.9499 131.827 16.9505L133.675 13.4035C131.584 12.3134 129.614 11.609 127.887 11.609V15.609ZM131.822 16.9483C132.842 17.483 133.477 17.9332 133.83 18.2759C134.204 18.6388 134.047 18.6647 134.047 18.377H138.047C138.047 17.1079 137.341 16.1098 136.616 15.406C135.871 14.6821 134.857 14.0229 133.68 13.4057L131.822 16.9483ZM134.047 18.377C134.047 18.2061 134.082 18.0411 134.142 17.8955C134.2 17.7544 134.27 17.6584 134.318 17.604L137.328 20.238C137.736 19.7724 138.047 19.1386 138.047 18.377H134.047ZM136.394 17.0042C134.261 16.3689 132.249 16.0098 130.37 15.9616L130.268 19.9603C131.717 19.9975 133.374 20.2784 135.252 20.8378L136.394 17.0042ZM130.414 15.9632C129.805 15.9342 129.188 15.9788 128.568 16.0866L129.254 20.0274C129.616 19.9645 129.937 19.9451 130.224 19.9587L130.414 15.9632ZM128.628 16.0771C128.444 16.1034 128.224 16.1403 127.977 16.1852L128.693 20.1207C128.915 20.0803 129.08 20.0532 129.194 20.0369L128.628 16.0771ZM128.335 16.153C127.506 16.153 126.929 16.6148 126.735 16.7765L129.295 19.8494C129.284 19.8591 129.212 19.9184 129.085 19.9818C128.965 20.0421 128.701 20.153 128.335 20.153V16.153ZM128.015 16.313C126.17 16.313 124.556 16.4538 123.223 16.7775C121.921 17.0937 120.663 17.6381 119.795 18.6217L122.795 21.2682C122.887 21.1639 123.229 20.8923 124.167 20.6645C125.074 20.4442 126.34 20.313 128.015 20.313V16.313ZM119.804 18.6123C118.997 19.5152 118.572 20.7674 118.324 22.0432C118.066 23.3689 117.951 24.9865 117.951 26.857H121.951C121.951 25.1222 122.06 23.7851 122.25 22.8067C122.45 21.7786 122.697 21.3774 122.786 21.2776L119.804 18.6123ZM117.951 26.857C117.951 28.5829 118.388 30.182 119.32 31.5764C120.244 32.9583 121.576 34.0237 123.19 34.8246L124.968 31.2414C123.83 30.677 123.098 30.0303 122.646 29.3536C122.202 28.6893 121.951 27.8831 121.951 26.857H117.951ZM123.185 34.8218C124.909 35.6838 127.747 36.4376 131.484 37.1423L132.226 33.2116C128.496 32.5084 126.151 31.8328 124.973 31.2441L123.185 34.8218ZM131.491 37.1435C133.188 37.4578 134.353 37.7535 135.06 38.0139C135.23 38.0763 135.355 38.1304 135.444 38.1738C135.536 38.2188 135.566 38.2413 135.557 38.2345C135.553 38.2319 135.456 38.1628 135.347 38.0085C135.23 37.8413 135.085 37.5518 135.072 37.1636L139.07 37.0304C139.033 35.93 138.288 35.2747 137.909 34.9995C137.472 34.6813 136.946 34.4459 136.442 34.2601C135.411 33.8805 133.978 33.5362 132.219 33.2104L131.491 37.1435ZM135.289 36.1891L134.425 37.8851L137.989 39.7008L138.853 38.0048L135.289 36.1891ZM135.936 36.8115L132.896 37.2275L133.438 41.1905L136.478 40.7745L135.936 36.8115ZM133.167 37.209C129.866 37.209 127.122 36.7523 124.888 35.9003L123.462 39.6377C126.263 40.7056 129.513 41.209 133.167 41.209V37.209ZM124.88 35.8973C122.003 34.8136 120.291 33.1848 119.434 31.0912L115.732 32.6068C117.094 35.9319 119.777 38.2497 123.47 39.6406L124.88 35.8973ZM119.44 31.1062C118.761 29.4085 118.418 27.69 118.399 25.9397L114.399 25.9823C114.423 28.2426 114.869 30.4494 115.726 32.5918L119.44 31.1062ZM118.399 25.9481C118.381 23.1309 119.281 20.7575 121.116 18.7251L118.146 16.0449C115.629 18.8338 114.375 22.1778 114.399 25.9739L118.399 25.9481ZM121.125 18.7145C123 16.6079 125.215 15.609 127.887 15.609V11.609C124.031 11.609 120.742 13.1274 118.137 16.0555L121.125 18.7145ZM152.046 11.177L152.064 13.1769L152.068 13.1769L152.046 11.177ZM157.23 15.977L155.429 16.8475L155.43 16.8498L157.23 15.977ZM160.526 24.457L158.574 24.8951L158.577 24.9051L158.579 24.9151L160.526 24.457ZM163.47 36.969L165.398 37.5008L165.534 37.0083L165.417 36.5109L163.47 36.969ZM163.214 37.897L165.111 38.5294L165.128 38.4795L165.142 38.4288L163.214 37.897ZM162.67 38.761L161.403 37.2131L161.403 37.2131L162.67 38.761ZM161.934 39.145L162.133 41.1351L162.278 41.1206L162.419 41.0853L161.934 39.145ZM161.294 39.209V41.209H161.394L161.493 41.1991L161.294 39.209ZM160.398 39.145L159.838 41.065L159.875 41.0759L159.913 41.0853L160.398 39.145ZM159.63 38.921H157.63V40.421L159.07 40.841L159.63 38.921ZM159.63 37.321L157.63 37.2793L157.63 37.3002V37.321H159.63ZM159.662 35.785L157.662 35.7324L157.662 35.7433L159.662 35.785ZM158.958 32.233L157.286 33.3313L157.297 33.3478L157.308 33.364L158.958 32.233ZM155.854 31.113L155.844 33.113H155.854V31.113ZM147.534 31.785L148.283 33.6395L148.298 33.6333L148.313 33.6269L147.534 31.785ZM144.974 34.697L143.117 33.9542L143.117 33.9542L144.974 34.697ZM141.71 38.761L142.27 40.681L142.632 40.5754L142.93 40.3454L141.71 38.761ZM140.942 38.985L141.095 40.9791L141.302 40.9632L141.502 40.905L140.942 38.985ZM140.11 39.049V41.049H140.187L140.263 41.0431L140.11 39.049ZM139.246 38.697L137.389 39.4398L137.481 39.6715L137.628 39.8733L139.246 38.697ZM139.342 35.785L137.396 35.3217L137.392 35.3396L137.388 35.3576L139.342 35.785ZM139.918 33.769L138.074 32.9941L138.061 33.0253L138.049 33.057L139.918 33.769ZM143.118 23.657L141.198 23.0962L141.196 23.1045L143.118 23.657ZM146.894 13.929L145.17 12.9149L145.166 12.9212L145.163 12.9276L146.894 13.929ZM145.902 28.873L144.165 27.8807L142.136 31.4312L146.185 30.8529L145.902 28.873ZM147.694 28.617L147.523 26.6243L147.467 26.6291L147.411 26.6371L147.694 28.617ZM148.814 28.521L148.967 26.5269L148.805 26.5144L148.643 26.5283L148.814 28.521ZM151.726 28.745L151.572 30.7391L151.606 30.7416L151.639 30.7431L151.726 28.745ZM153.806 28.329L154.438 30.2264L154.438 30.2264L153.806 28.329ZM156.782 26.633L157.95 28.2566L158.923 27.5567L158.764 26.3687L156.782 26.633ZM154.734 19.625L156.589 18.8772L156.586 18.8694L154.734 19.625ZM152.238 15.593L152.017 17.5808L152.09 17.5889L152.164 17.5916L152.238 15.593ZM151.662 15.529L151.883 13.5412L151.773 13.529H151.662V15.529ZM147.918 20.969L145.93 20.7468L145.93 20.7468L147.918 20.969ZM152.068 13.1769C152.68 13.17 153.906 13.6979 155.429 16.8475L159.03 15.1065C157.438 11.8134 155.209 9.14131 152.023 9.17711L152.068 13.1769ZM155.43 16.8498C157.137 20.3696 158.156 23.0316 158.574 24.8951L162.477 24.0189C161.957 21.7011 160.778 18.7097 159.029 15.1042L155.43 16.8498ZM158.579 24.9151L161.523 37.4271L165.417 36.5109L162.473 23.9989L158.579 24.9151ZM161.542 36.4371L161.286 37.3651L165.142 38.4288L165.398 37.5008L161.542 36.4371ZM161.316 37.2645C161.294 37.3322 161.28 37.3497 161.289 37.3354C161.3 37.3188 161.334 37.2694 161.403 37.2131L163.936 40.3089C164.546 39.8098 164.903 39.155 165.111 38.5294L161.316 37.2645ZM161.403 37.2131C161.382 37.2307 161.375 37.2327 161.385 37.2278C161.395 37.2225 161.417 37.2127 161.449 37.2047L162.419 41.0853C163.001 40.9398 163.507 40.6599 163.936 40.3089L161.403 37.2131ZM161.735 37.1549L161.095 37.2189L161.493 41.1991L162.133 41.1351L161.735 37.1549ZM161.294 37.209C161.11 37.209 160.979 37.2043 160.892 37.1981C160.85 37.195 160.827 37.1923 160.82 37.1913C160.811 37.1901 160.835 37.1928 160.883 37.2047L159.913 41.0853C160.348 41.194 160.87 41.209 161.294 41.209V37.209ZM160.958 37.225L160.19 37.001L159.07 40.841L159.838 41.065L160.958 37.225ZM161.63 38.921V37.321H157.63V38.921H161.63ZM161.629 37.3626L161.661 35.8266L157.662 35.7433L157.63 37.2793L161.629 37.3626ZM161.661 35.8376C161.707 34.0877 161.482 32.3782 160.607 31.1019L157.308 33.364C157.457 33.5811 157.702 34.2396 157.662 35.7324L161.661 35.8376ZM160.629 31.1346C159.557 29.5024 157.596 29.113 155.854 29.113V33.113C156.504 33.113 156.908 33.1923 157.135 33.2743C157.341 33.3487 157.329 33.3963 157.286 33.3313L160.629 31.1346ZM155.863 29.113C153.617 29.1022 151.751 29.153 150.285 29.2715C148.891 29.3841 147.633 29.5714 146.754 29.943L148.313 33.6269C148.544 33.5292 149.228 33.3699 150.607 33.2585C151.914 33.1529 153.653 33.1024 155.844 33.113L155.863 29.113ZM146.785 29.9305C145.014 30.6455 143.844 32.1355 143.117 33.9542L146.831 35.4398C147.298 34.2718 147.835 33.8204 148.283 33.6395L146.785 29.9305ZM143.117 33.9542C142.681 35.0442 141.852 36.1272 140.489 37.1765L142.93 40.3454C144.725 38.9628 146.072 37.3365 146.831 35.4398L143.117 33.9542ZM141.15 36.841L140.382 37.065L141.502 40.905L142.27 40.681L141.15 36.841ZM140.788 36.9909L139.956 37.0549L140.263 41.0431L141.095 40.9791L140.788 36.9909ZM140.11 37.049C140.091 37.049 140.188 37.0451 140.344 37.1088C140.52 37.1802 140.714 37.315 140.863 37.5206L137.628 39.8733C138.311 40.812 139.337 41.049 140.11 41.049V37.049ZM141.103 37.9542C141.117 37.991 141.125 38.0169 141.128 38.0282C141.131 38.0397 141.13 38.0403 141.128 38.0279C141.124 38.0011 141.118 37.9389 141.118 37.833H137.118C137.118 38.3197 137.17 38.8936 137.389 39.4398L141.103 37.9542ZM141.118 37.833C141.118 37.2974 141.176 36.758 141.296 36.2124L137.388 35.3576C137.209 36.1773 137.118 37.0032 137.118 37.833H141.118ZM141.287 36.2482C141.495 35.3748 141.663 34.8046 141.787 34.481L138.049 33.057C137.831 33.6294 137.615 34.4031 137.396 35.3217L141.287 36.2482ZM141.762 34.5439C142.435 32.9415 143.534 29.4484 145.04 24.2095L141.196 23.1045C139.672 28.4042 138.638 31.6525 138.074 32.9941L141.762 34.5439ZM145.038 24.2177C146.28 19.9622 147.486 16.8996 148.625 14.9304L145.163 12.9276C143.784 15.3103 142.472 18.7331 141.198 23.0963L145.038 24.2177ZM148.618 14.943C149.278 13.8207 150.293 13.1929 152.064 13.1769L152.028 9.17706C149.063 9.20377 146.643 10.4106 145.17 12.9149L148.618 14.943ZM146.185 30.8529L147.977 30.5969L147.411 26.6371L145.619 26.8931L146.185 30.8529ZM147.865 30.6097L148.985 30.5137L148.643 26.5283L147.523 26.6243L147.865 30.6097ZM148.66 30.5151L151.572 30.7391L151.879 26.7509L148.967 26.5269L148.66 30.5151ZM151.639 30.7431C152.506 30.7808 153.484 30.5444 154.438 30.2264L153.173 26.4316C152.336 26.7109 151.927 26.7518 151.813 26.7469L151.639 30.7431ZM154.438 30.2264C155.496 29.8737 156.684 29.167 157.95 28.2566L155.614 25.0094C154.448 25.8483 153.651 26.2723 153.173 26.4316L154.438 30.2264ZM158.764 26.3687C158.478 24.2197 157.731 21.7115 156.589 18.8772L152.879 20.3727C153.955 23.0424 154.574 25.2062 154.799 26.8973L158.764 26.3687ZM156.586 18.8694C156.028 17.5022 155.498 16.3783 154.994 15.5643C154.746 15.1624 154.454 14.7543 154.11 14.4212C153.809 14.1292 153.196 13.6271 152.312 13.5944L152.164 17.5916C151.852 17.5801 151.624 17.4827 151.502 17.4154C151.439 17.3811 151.395 17.3496 151.369 17.3293C151.342 17.3088 151.328 17.295 151.325 17.2928C151.323 17.2903 151.348 17.3149 151.4 17.383C151.45 17.4493 151.515 17.5429 151.593 17.6697C151.921 18.1997 152.352 19.0811 152.882 20.3805L156.586 18.8694ZM152.459 13.6052L151.883 13.5412L151.441 17.5168L152.017 17.5808L152.459 13.6052ZM151.662 13.529H151.374V17.529H151.662V13.529ZM151.374 13.529C149.64 13.529 148.284 14.4219 147.398 15.8165C146.582 17.1004 146.146 18.8146 145.93 20.7468L149.905 21.1911C150.095 19.4967 150.438 18.4909 150.774 17.9614C151.04 17.5427 151.209 17.529 151.374 17.529V13.529ZM145.93 20.7468C145.532 24.3075 144.894 26.6051 144.165 27.8807L147.638 29.8653C148.787 27.8555 149.493 24.8838 149.905 21.1911L145.93 20.7468Z" fill="black" mask="url(#path-22-outside-2_367_790)"></path></svg>