<svg xmlns="http://www.w3.org/2000/svg" width="170" height="67" viewBox="0 0 170 67" fill="none"><mask id="path-1-outside-1_394_1368" maskUnits="userSpaceOnUse" x="0" y="3" width="137" height="36" fill="black"><rect fill="white" y="3" width="137" height="36"></rect><path d="M16.1362 10.008C17.4082 10.2 18.9922 10.968 20.8882 12.312C22.9762 13.8 23.9482 15.048 23.8042 16.056C23.7802 16.248 23.6722 16.416 23.4802 16.56C21.5122 15.672 19.6882 15.084 18.0082 14.796C17.5522 14.724 17.0722 14.688 16.5682 14.688C16.4002 14.688 16.1962 14.7 15.9562 14.724C15.8602 14.7 15.7402 14.736 15.5962 14.832C12.0202 14.328 9.65616 14.568 8.50416 15.552C7.44816 16.44 6.66816 18.72 6.16416 22.392C5.75616 25.2 6.86016 27.504 9.47616 29.304C10.8442 30.24 13.3882 31.332 17.1082 32.58C20.5402 33.732 22.2202 34.644 22.1482 35.316L21.0322 36.9H17.8642C14.3122 36.396 11.3242 35.472 8.90016 34.128C5.73216 32.4 3.77616 30.072 3.03216 27.144C2.52816 25.08 2.40816 23.028 2.67216 20.988C3.10416 17.604 4.60416 14.832 7.17216 12.672C9.83616 10.44 12.8242 9.552 16.1362 10.008ZM37.3568 7.56C37.1168 6.912 37.6928 6.24 39.0848 5.544C39.6128 5.496 40.2248 5.544 40.9208 5.688C41.2568 6.048 41.4848 6.444 41.6048 6.876L41.5328 7.344V8.244L41.4248 8.388L41.2448 11.268L41.1728 11.808L41.0648 13.68C41.0168 13.728 40.9928 13.824 40.9928 13.968L40.8128 17.64L40.7408 17.856V19.62C42.9968 19.668 43.5608 20.256 42.4328 21.384C41.8328 22.296 41.1728 22.668 40.4528 22.5L40.7408 25.524C41.1968 27.9 40.0328 29.664 37.2488 30.816C36.6008 30.864 36.0128 30.696 35.4848 30.312L35.1608 29.196L35.6288 24.408L35.9528 22.716L33.2168 23.076L30.3368 23.148L31.2368 25.596L31.7048 26.964C32.0168 27.684 32.0528 28.416 31.8128 29.16C31.5488 29.736 31.2368 30.288 30.8768 30.816C30.0128 31.272 29.0288 31.368 27.9248 31.104C27.7328 30.912 27.5288 30.492 27.3128 29.844L27.2048 29.268L26.9528 27.972L26.8808 27.396L26.7728 27.108L26.5928 25.452L26.5208 25.092V24.48C26.4488 24.192 26.4128 23.844 26.4128 23.436C25.9088 23.388 25.3928 23.196 24.8648 22.86C24.6968 21.612 25.1888 20.484 26.3408 19.476V19.044C26.3408 18.636 26.3648 18.132 26.4128 17.532V17.028L26.5208 16.884V16.2L26.7008 15.156V14.868L27.0248 12.996L27.1328 12.492L27.2048 12.024C27.2048 11.832 27.2648 11.58 27.3848 11.268C27.4568 11.028 27.5168 10.788 27.5648 10.548L27.6368 10.224C27.7568 9.936 27.9608 9.564 28.2488 9.108L28.3568 8.964C28.9808 8.268 29.8208 7.728 30.8768 7.344C31.6928 7.248 32.3648 7.488 32.8928 8.064C33.0128 8.472 32.8688 8.808 32.4608 9.072L32.6408 9.9L32.2448 10.584C32.0528 10.968 31.9328 11.196 31.8848 11.268C31.8368 11.34 31.7048 11.664 31.4888 12.24V12.78C31.4888 13.476 31.4048 14.04 31.2368 14.472L30.7688 19.476C32.1128 19.572 33.1928 19.596 34.0088 19.548C34.4168 19.596 35.1608 19.596 36.2408 19.548C36.3368 18.516 36.3848 17.772 36.3848 17.316C37.0088 13.836 37.3328 10.584 37.3568 7.56ZM56.4626 10.764C58.0226 10.86 59.3426 12.408 60.4226 15.408C61.6226 18.72 62.3546 21.324 62.6186 23.22L64.2746 34.668L63.9866 35.46C63.8666 35.82 63.6986 36.072 63.4826 36.216C63.2906 36.384 63.0866 36.492 62.8706 36.54L62.3306 36.576C61.9706 36.552 61.7186 36.504 61.5746 36.432L60.9626 36.216L61.0706 34.776L61.1786 33.372C61.3226 31.932 61.2026 30.864 60.8186 30.168C60.4586 29.448 59.6306 29.04 58.3346 28.944C54.6626 28.68 52.3466 28.728 51.3866 29.088C50.4506 29.424 49.6826 30.252 49.0826 31.572C48.5066 32.868 47.5346 34.02 46.1666 35.028L45.5186 35.172H44.7986C44.4626 35.148 44.2346 35.028 44.1146 34.812C44.0666 34.62 44.0546 34.368 44.0786 34.056C44.1266 33.432 44.2346 32.808 44.4026 32.184C44.6186 31.416 44.8106 30.828 44.9786 30.42C45.5786 29.148 46.6826 26.172 48.2906 21.492C49.5866 17.7 50.8226 14.856 51.9986 12.96C53.0066 11.376 54.4946 10.644 56.4626 10.764ZM51.5306 25.452L52.8266 25.308H53.6186L55.7066 25.632C56.0666 25.68 56.5706 25.596 57.2186 25.38C57.7706 25.212 58.5146 24.792 59.4506 24.12C59.3786 22.536 59.0186 20.58 58.3706 18.252C57.7466 15.996 57.2306 14.832 56.8226 14.76L56.4266 14.688H56.2106C54.8666 14.592 53.9426 16.032 53.4386 19.008C52.9346 21.984 52.2986 24.132 51.5306 25.452ZM74.4033 6.12C74.8353 5.832 75.1713 5.616 75.4113 5.472L76.0593 5.328L76.6713 5.436L77.4633 5.976L78.7593 7.848C80.6553 10.488 81.4593 14.508 81.1713 19.908C80.8113 26.028 78.8433 28.428 75.2673 27.108L74.5833 26.388C74.2473 24.804 73.3113 23.424 71.7753 22.248C71.6313 22.56 71.5473 22.908 71.5233 23.292L71.4153 23.544C71.4393 23.976 71.3553 24.492 71.1633 25.092L70.9113 26.784L70.6953 27.648L70.2273 28.656L69.9033 29.124C69.2553 30.468 68.4153 31.104 67.3833 31.032C66.0153 30.888 65.2233 30.168 65.0073 28.872C65.0313 28.224 65.2113 27.516 65.5473 26.748L65.8353 26.028C65.8593 25.644 65.9793 25.164 66.1953 24.588C67.7313 21.396 69.0033 19.152 70.0113 17.856C72.1713 17.28 74.2113 17.784 76.1313 19.368C78.2673 17.904 77.9553 14.616 75.1953 9.504L74.0433 7.344L74.4033 6.12ZM91.5244 6.12C91.9564 5.832 92.2924 5.616 92.5324 5.472L93.1804 5.328L93.7924 5.436L94.5844 5.976L95.8804 7.848C97.7764 10.488 98.5804 14.508 98.2924 19.908C97.9324 26.028 95.9644 28.428 92.3884 27.108L91.7044 26.388C91.3684 24.804 90.4324 23.424 88.8964 22.248C88.7524 22.56 88.6684 22.908 88.6444 23.292L88.5364 23.544C88.5604 23.976 88.4764 24.492 88.2844 25.092L88.0324 26.784L87.8164 27.648L87.3484 28.656L87.0244 29.124C86.3764 30.468 85.5364 31.104 84.5044 31.032C83.1364 30.888 82.3444 30.168 82.1284 28.872C82.1524 28.224 82.3324 27.516 82.6684 26.748L82.9564 26.028C82.9804 25.644 83.1004 25.164 83.3164 24.588C84.8524 21.396 86.1244 19.152 87.1324 17.856C89.2924 17.28 91.3324 17.784 93.2524 19.368C95.3884 17.904 95.0764 14.616 92.3164 9.504L91.1644 7.344L91.5244 6.12ZM107.241 6.3L108.141 6.012C111.837 5.484 114.117 7.044 114.981 10.692C115.389 14.916 113.577 18.228 109.545 20.628L108.213 21.06C107.805 21.228 107.313 21.348 106.737 21.42L106.197 21.492L105.945 21.6H104.685C104.757 21.936 104.877 22.308 105.045 22.716L105.153 22.896C107.553 26.304 110.745 26.832 114.729 24.48C115.065 24.36 115.449 24.3 115.881 24.3C116.625 24.492 117.261 24.96 117.789 25.704C117.909 26.544 117.801 27.372 117.465 28.188C115.353 29.82 113.541 30.612 112.029 30.564L110.913 30.528L108.681 31.068C107.073 30.828 105.801 30.084 104.865 28.836C103.929 27.588 102.525 26.112 100.653 24.408C98.8295 19.08 99.7655 13.86 103.461 8.748C103.701 8.46 104.061 8.136 104.541 7.776L104.685 7.596L105.153 7.344L105.333 7.164C105.789 6.876 106.425 6.588 107.241 6.3ZM110.553 14.292C111.753 11.412 111.597 9.564 110.085 8.748C106.965 9.924 104.889 12.588 103.857 16.74C103.545 17.388 103.425 18.072 103.497 18.792L106.953 17.964C108.321 17.244 109.521 16.02 110.553 14.292ZM122.867 10.944L123.659 10.692C123.779 10.692 123.899 10.668 124.019 10.62C124.259 10.572 124.439 10.548 124.559 10.548L125.027 10.62C125.459 10.692 125.699 11.136 125.747 11.952C125.747 12.216 125.723 12.492 125.675 12.78C125.675 12.852 125.507 13.392 125.171 14.4C125.099 14.664 124.979 14.952 124.811 15.264L124.235 17.46L123.263 21.96C122.999 23.256 122.867 24.516 122.867 25.74C122.867 26.868 123.371 27.672 124.379 28.152C125.363 28.608 126.683 28.848 128.339 28.872C129.659 28.896 131.171 28.752 132.875 28.44C133.211 28.392 133.571 28.32 133.955 28.224L134.387 28.62C134.483 28.716 134.567 28.968 134.639 29.376C134.639 29.52 134.591 29.7 134.495 29.916L134.099 30.456C131.123 31.848 127.583 32.544 123.479 32.544H122.723C121.643 32.544 120.875 32.472 120.419 32.328C119.987 32.184 119.687 31.824 119.519 31.248L119.771 23.292C119.795 22.764 119.951 21.672 120.239 20.016C120.671 17.688 121.067 15.852 121.427 14.508C121.907 12.708 122.387 11.52 122.867 10.944Z"></path></mask><path d="M16.1362 10.008C17.4082 10.2 18.9922 10.968 20.8882 12.312C22.9762 13.8 23.9482 15.048 23.8042 16.056C23.7802 16.248 23.6722 16.416 23.4802 16.56C21.5122 15.672 19.6882 15.084 18.0082 14.796C17.5522 14.724 17.0722 14.688 16.5682 14.688C16.4002 14.688 16.1962 14.7 15.9562 14.724C15.8602 14.7 15.7402 14.736 15.5962 14.832C12.0202 14.328 9.65616 14.568 8.50416 15.552C7.44816 16.44 6.66816 18.72 6.16416 22.392C5.75616 25.2 6.86016 27.504 9.47616 29.304C10.8442 30.24 13.3882 31.332 17.1082 32.58C20.5402 33.732 22.2202 34.644 22.1482 35.316L21.0322 36.9H17.8642C14.3122 36.396 11.3242 35.472 8.90016 34.128C5.73216 32.4 3.77616 30.072 3.03216 27.144C2.52816 25.08 2.40816 23.028 2.67216 20.988C3.10416 17.604 4.60416 14.832 7.17216 12.672C9.83616 10.44 12.8242 9.552 16.1362 10.008ZM37.3568 7.56C37.1168 6.912 37.6928 6.24 39.0848 5.544C39.6128 5.496 40.2248 5.544 40.9208 5.688C41.2568 6.048 41.4848 6.444 41.6048 6.876L41.5328 7.344V8.244L41.4248 8.388L41.2448 11.268L41.1728 11.808L41.0648 13.68C41.0168 13.728 40.9928 13.824 40.9928 13.968L40.8128 17.64L40.7408 17.856V19.62C42.9968 19.668 43.5608 20.256 42.4328 21.384C41.8328 22.296 41.1728 22.668 40.4528 22.5L40.7408 25.524C41.1968 27.9 40.0328 29.664 37.2488 30.816C36.6008 30.864 36.0128 30.696 35.4848 30.312L35.1608 29.196L35.6288 24.408L35.9528 22.716L33.2168 23.076L30.3368 23.148L31.2368 25.596L31.7048 26.964C32.0168 27.684 32.0528 28.416 31.8128 29.16C31.5488 29.736 31.2368 30.288 30.8768 30.816C30.0128 31.272 29.0288 31.368 27.9248 31.104C27.7328 30.912 27.5288 30.492 27.3128 29.844L27.2048 29.268L26.9528 27.972L26.8808 27.396L26.7728 27.108L26.5928 25.452L26.5208 25.092V24.48C26.4488 24.192 26.4128 23.844 26.4128 23.436C25.9088 23.388 25.3928 23.196 24.8648 22.86C24.6968 21.612 25.1888 20.484 26.3408 19.476V19.044C26.3408 18.636 26.3648 18.132 26.4128 17.532V17.028L26.5208 16.884V16.2L26.7008 15.156V14.868L27.0248 12.996L27.1328 12.492L27.2048 12.024C27.2048 11.832 27.2648 11.58 27.3848 11.268C27.4568 11.028 27.5168 10.788 27.5648 10.548L27.6368 10.224C27.7568 9.936 27.9608 9.564 28.2488 9.108L28.3568 8.964C28.9808 8.268 29.8208 7.728 30.8768 7.344C31.6928 7.248 32.3648 7.488 32.8928 8.064C33.0128 8.472 32.8688 8.808 32.4608 9.072L32.6408 9.9L32.2448 10.584C32.0528 10.968 31.9328 11.196 31.8848 11.268C31.8368 11.34 31.7048 11.664 31.4888 12.24V12.78C31.4888 13.476 31.4048 14.04 31.2368 14.472L30.7688 19.476C32.1128 19.572 33.1928 19.596 34.0088 19.548C34.4168 19.596 35.1608 19.596 36.2408 19.548C36.3368 18.516 36.3848 17.772 36.3848 17.316C37.0088 13.836 37.3328 10.584 37.3568 7.56ZM56.4626 10.764C58.0226 10.86 59.3426 12.408 60.4226 15.408C61.6226 18.72 62.3546 21.324 62.6186 23.22L64.2746 34.668L63.9866 35.46C63.8666 35.82 63.6986 36.072 63.4826 36.216C63.2906 36.384 63.0866 36.492 62.8706 36.54L62.3306 36.576C61.9706 36.552 61.7186 36.504 61.5746 36.432L60.9626 36.216L61.0706 34.776L61.1786 33.372C61.3226 31.932 61.2026 30.864 60.8186 30.168C60.4586 29.448 59.6306 29.04 58.3346 28.944C54.6626 28.68 52.3466 28.728 51.3866 29.088C50.4506 29.424 49.6826 30.252 49.0826 31.572C48.5066 32.868 47.5346 34.02 46.1666 35.028L45.5186 35.172H44.7986C44.4626 35.148 44.2346 35.028 44.1146 34.812C44.0666 34.62 44.0546 34.368 44.0786 34.056C44.1266 33.432 44.2346 32.808 44.4026 32.184C44.6186 31.416 44.8106 30.828 44.9786 30.42C45.5786 29.148 46.6826 26.172 48.2906 21.492C49.5866 17.7 50.8226 14.856 51.9986 12.96C53.0066 11.376 54.4946 10.644 56.4626 10.764ZM51.5306 25.452L52.8266 25.308H53.6186L55.7066 25.632C56.0666 25.68 56.5706 25.596 57.2186 25.38C57.7706 25.212 58.5146 24.792 59.4506 24.12C59.3786 22.536 59.0186 20.58 58.3706 18.252C57.7466 15.996 57.2306 14.832 56.8226 14.76L56.4266 14.688H56.2106C54.8666 14.592 53.9426 16.032 53.4386 19.008C52.9346 21.984 52.2986 24.132 51.5306 25.452ZM74.4033 6.12C74.8353 5.832 75.1713 5.616 75.4113 5.472L76.0593 5.328L76.6713 5.436L77.4633 5.976L78.7593 7.848C80.6553 10.488 81.4593 14.508 81.1713 19.908C80.8113 26.028 78.8433 28.428 75.2673 27.108L74.5833 26.388C74.2473 24.804 73.3113 23.424 71.7753 22.248C71.6313 22.56 71.5473 22.908 71.5233 23.292L71.4153 23.544C71.4393 23.976 71.3553 24.492 71.1633 25.092L70.9113 26.784L70.6953 27.648L70.2273 28.656L69.9033 29.124C69.2553 30.468 68.4153 31.104 67.3833 31.032C66.0153 30.888 65.2233 30.168 65.0073 28.872C65.0313 28.224 65.2113 27.516 65.5473 26.748L65.8353 26.028C65.8593 25.644 65.9793 25.164 66.1953 24.588C67.7313 21.396 69.0033 19.152 70.0113 17.856C72.1713 17.28 74.2113 17.784 76.1313 19.368C78.2673 17.904 77.9553 14.616 75.1953 9.504L74.0433 7.344L74.4033 6.12ZM91.5244 6.12C91.9564 5.832 92.2924 5.616 92.5324 5.472L93.1804 5.328L93.7924 5.436L94.5844 5.976L95.8804 7.848C97.7764 10.488 98.5804 14.508 98.2924 19.908C97.9324 26.028 95.9644 28.428 92.3884 27.108L91.7044 26.388C91.3684 24.804 90.4324 23.424 88.8964 22.248C88.7524 22.56 88.6684 22.908 88.6444 23.292L88.5364 23.544C88.5604 23.976 88.4764 24.492 88.2844 25.092L88.0324 26.784L87.8164 27.648L87.3484 28.656L87.0244 29.124C86.3764 30.468 85.5364 31.104 84.5044 31.032C83.1364 30.888 82.3444 30.168 82.1284 28.872C82.1524 28.224 82.3324 27.516 82.6684 26.748L82.9564 26.028C82.9804 25.644 83.1004 25.164 83.3164 24.588C84.8524 21.396 86.1244 19.152 87.1324 17.856C89.2924 17.28 91.3324 17.784 93.2524 19.368C95.3884 17.904 95.0764 14.616 92.3164 9.504L91.1644 7.344L91.5244 6.12ZM107.241 6.3L108.141 6.012C111.837 5.484 114.117 7.044 114.981 10.692C115.389 14.916 113.577 18.228 109.545 20.628L108.213 21.06C107.805 21.228 107.313 21.348 106.737 21.42L106.197 21.492L105.945 21.6H104.685C104.757 21.936 104.877 22.308 105.045 22.716L105.153 22.896C107.553 26.304 110.745 26.832 114.729 24.48C115.065 24.36 115.449 24.3 115.881 24.3C116.625 24.492 117.261 24.96 117.789 25.704C117.909 26.544 117.801 27.372 117.465 28.188C115.353 29.82 113.541 30.612 112.029 30.564L110.913 30.528L108.681 31.068C107.073 30.828 105.801 30.084 104.865 28.836C103.929 27.588 102.525 26.112 100.653 24.408C98.8295 19.08 99.7655 13.86 103.461 8.748C103.701 8.46 104.061 8.136 104.541 7.776L104.685 7.596L105.153 7.344L105.333 7.164C105.789 6.876 106.425 6.588 107.241 6.3ZM110.553 14.292C111.753 11.412 111.597 9.564 110.085 8.748C106.965 9.924 104.889 12.588 103.857 16.74C103.545 17.388 103.425 18.072 103.497 18.792L106.953 17.964C108.321 17.244 109.521 16.02 110.553 14.292ZM122.867 10.944L123.659 10.692C123.779 10.692 123.899 10.668 124.019 10.62C124.259 10.572 124.439 10.548 124.559 10.548L125.027 10.62C125.459 10.692 125.699 11.136 125.747 11.952C125.747 12.216 125.723 12.492 125.675 12.78C125.675 12.852 125.507 13.392 125.171 14.4C125.099 14.664 124.979 14.952 124.811 15.264L124.235 17.46L123.263 21.96C122.999 23.256 122.867 24.516 122.867 25.74C122.867 26.868 123.371 27.672 124.379 28.152C125.363 28.608 126.683 28.848 128.339 28.872C129.659 28.896 131.171 28.752 132.875 28.44C133.211 28.392 133.571 28.32 133.955 28.224L134.387 28.62C134.483 28.716 134.567 28.968 134.639 29.376C134.639 29.52 134.591 29.7 134.495 29.916L134.099 30.456C131.123 31.848 127.583 32.544 123.479 32.544H122.723C121.643 32.544 120.875 32.472 120.419 32.328C119.987 32.184 119.687 31.824 119.519 31.248L119.771 23.292C119.795 22.764 119.951 21.672 120.239 20.016C120.671 17.688 121.067 15.852 121.427 14.508C121.907 12.708 122.387 11.52 122.867 10.944Z" fill="#0094FF"></path><path d="M16.1362 10.008L16.4347 8.0304L16.4218 8.02846L16.4089 8.02669L16.1362 10.008ZM20.8882 12.312L22.0489 10.6833L22.0448 10.6804L20.8882 12.312ZM23.8042 16.056L21.8243 15.7732L21.8218 15.7905L21.8196 15.8079L23.8042 16.056ZM23.4802 16.56L22.6576 18.383L23.7348 18.8691L24.6802 18.16L23.4802 16.56ZM18.0082 14.796L18.3461 12.8248L18.3331 12.8225L18.3201 12.8205L18.0082 14.796ZM15.9562 14.724L15.4711 16.6643L15.8088 16.7487L16.1552 16.7141L15.9562 14.724ZM15.5962 14.832L15.317 16.8124L16.0716 16.9188L16.7056 16.4961L15.5962 14.832ZM8.50416 15.552L9.79136 17.0827L9.79726 17.0778L9.80313 17.0727L8.50416 15.552ZM6.16416 22.392L8.14337 22.6796L8.14451 22.6718L8.14558 22.664L6.16416 22.392ZM9.47616 29.304L8.34245 30.9516L8.34679 30.9546L9.47616 29.304ZM17.1082 32.58L17.7446 30.684L17.7443 30.6839L17.1082 32.58ZM22.1482 35.316L23.7831 36.4679L24.0816 36.0443L24.1368 35.5291L22.1482 35.316ZM21.0322 36.9V38.9H22.0696L22.6671 38.0519L21.0322 36.9ZM17.8642 36.9L17.5832 38.8802L17.723 38.9H17.8642V36.9ZM8.90016 34.128L9.86999 32.3788L9.85786 32.3722L8.90016 34.128ZM3.03216 27.144L1.08924 27.6184L1.09146 27.6275L1.09375 27.6365L3.03216 27.144ZM2.67216 20.988L4.65562 21.2447L4.65606 21.2413L2.67216 20.988ZM7.17216 12.672L5.88771 11.139L5.88477 11.1414L7.17216 12.672ZM15.8377 11.9856C16.6423 12.107 17.9163 12.6569 19.7316 13.9436L22.0448 10.6804C20.068 9.27912 18.174 8.29295 16.4347 8.0304L15.8377 11.9856ZM19.7275 13.9407C20.6986 14.6328 21.2887 15.1865 21.6053 15.5929C21.9385 16.0208 21.7859 16.0414 21.8243 15.7732L25.7841 16.3388C25.9664 15.0626 25.3998 13.9552 24.761 13.1351C24.1056 12.2935 23.1657 11.4792 22.0489 10.6833L19.7275 13.9407ZM21.8196 15.8079C21.8459 15.5973 21.9203 15.4039 22.0228 15.2445C22.1205 15.0925 22.2232 15.0027 22.2802 14.96L24.6802 18.16C25.1951 17.7738 25.6819 17.1583 25.7887 16.3041L21.8196 15.8079ZM24.3027 14.737C22.2191 13.7968 20.2307 13.1478 18.3461 12.8248L17.6702 16.7672C19.1456 17.0202 20.8052 17.5472 22.6576 18.383L24.3027 14.737ZM18.3201 12.8205C17.752 12.7308 17.1672 12.688 16.5682 12.688V16.688C16.9771 16.688 17.3523 16.7172 17.6962 16.7715L18.3201 12.8205ZM16.5682 12.688C16.312 12.688 16.0375 12.7059 15.7572 12.7339L16.1552 16.7141C16.3549 16.6941 16.4883 16.688 16.5682 16.688V12.688ZM16.4412 12.7837C15.506 12.5499 14.7699 12.9791 14.4868 13.1679L16.7056 16.4961C16.6707 16.5193 16.5554 16.5927 16.3689 16.6487C16.1747 16.7069 15.8536 16.7599 15.4711 16.6643L16.4412 12.7837ZM15.8753 12.8516C14.0012 12.5874 12.3412 12.5019 10.9391 12.6442C9.56523 12.7837 8.22096 13.1636 7.20518 14.0313L9.80313 17.0727C9.93935 16.9564 10.3531 16.7243 11.3432 16.6238C12.3051 16.5261 13.6151 16.5726 15.317 16.8124L15.8753 12.8516ZM7.21696 14.0213C6.27285 14.8152 5.66589 16.0206 5.23483 17.2806C4.78717 18.5892 4.44399 20.2166 4.18273 22.12L8.14558 22.664C8.38833 20.8954 8.68714 19.5468 9.01948 18.5754C9.36842 17.5554 9.67946 17.1768 9.79136 17.0827L7.21696 14.0213ZM4.18494 22.1044C3.93042 23.8561 4.14026 25.5412 4.88252 27.0902C5.61812 28.6254 6.81573 29.9011 8.34246 30.9516L10.6099 27.6564C9.52058 26.9069 8.85819 26.1306 8.48979 25.3618C8.12805 24.6068 7.98989 23.7359 8.14337 22.6796L4.18494 22.1044ZM8.34679 30.9546C9.96695 32.0631 12.7502 33.2275 16.472 34.4761L17.7443 30.6839C14.0261 29.4365 11.7214 28.4169 10.6055 27.6534L8.34679 30.9546ZM16.4717 34.476C18.1567 35.0416 19.3031 35.5139 19.988 35.8857C20.1524 35.975 20.2733 36.0495 20.3587 36.108C20.4468 36.1684 20.476 36.1976 20.4701 36.1918C20.4689 36.1906 20.3863 36.1113 20.3042 35.9472C20.2151 35.769 20.1199 35.4732 20.1595 35.1029L24.1368 35.5291C24.253 34.4446 23.6274 33.6872 23.2772 33.3422C22.882 32.9529 22.3839 32.635 21.8963 32.3703C20.9012 31.8301 19.4916 31.2704 17.7446 30.684L16.4717 34.476ZM20.5132 34.1641L19.3972 35.7481L22.6671 38.0519L23.7831 36.4679L20.5132 34.1641ZM21.0322 34.9H17.8642V38.9H21.0322V34.9ZM18.1451 34.9198C14.7672 34.4405 12.0278 33.5753 9.86997 32.3789L7.93034 35.8771C10.6205 37.3687 13.8571 38.3515 17.5832 38.8802L18.1451 34.9198ZM9.85786 32.3722C7.07518 30.8544 5.55111 28.9362 4.97056 26.6515L1.09375 27.6365C2.0012 31.2078 4.38913 33.9456 7.94245 35.8838L9.85786 32.3722ZM4.97507 26.6696C4.52751 24.8367 4.42425 23.0325 4.65562 21.2447L0.688696 20.7313C0.392064 23.0235 0.528803 25.3233 1.08924 27.6184L4.97507 26.6696ZM4.65606 21.2413C5.02564 18.3462 6.28286 16.0334 8.45955 14.2026L5.88477 11.1414C2.92545 13.6306 1.18267 16.8618 0.688257 20.7347L4.65606 21.2413ZM8.4566 14.205C10.7074 12.3192 13.135 11.6137 15.8634 11.9893L16.4089 8.02669C12.5133 7.49033 8.96491 8.56077 5.88772 11.139L8.4566 14.205ZM37.3568 7.56L39.3567 7.57587L39.3596 7.20921L39.2322 6.86537L37.3568 7.56ZM39.0848 5.544L38.9037 3.55221L38.5279 3.58638L38.1903 3.75514L39.0848 5.544ZM40.9208 5.688L42.3829 4.32336L41.9489 3.85835L41.326 3.72948L40.9208 5.688ZM41.6048 6.876L43.5815 7.18011L43.6469 6.75507L43.5318 6.34071L41.6048 6.876ZM41.5328 7.344L39.556 7.03989L39.5328 7.19105V7.344H41.5328ZM41.5328 8.244L43.1327 9.444L43.5328 8.91067V8.244H41.5328ZM41.4248 8.388L39.8248 7.188L39.4659 7.6664L39.4286 8.26324L41.4248 8.388ZM41.2448 11.268L43.2272 11.5323L43.2365 11.4628L43.2409 11.3928L41.2448 11.268ZM41.1728 11.808L39.1903 11.5437L39.1804 11.618L39.1761 11.6928L41.1728 11.808ZM41.0648 13.68L42.479 15.0942L43.0176 14.5556L43.0614 13.7952L41.0648 13.68ZM40.9928 13.968L42.9904 14.0659L42.9928 14.017V13.968H40.9928ZM40.8128 17.64L42.7101 18.2725L42.7969 18.0121L42.8104 17.7379L40.8128 17.64ZM40.7408 17.856L38.8434 17.2235L38.7408 17.5314V17.856H40.7408ZM40.7408 19.62H38.7408V21.5779L40.6982 21.6195L40.7408 19.62ZM42.4328 21.384L41.0185 19.9698L40.8741 20.1142L40.7619 20.2848L42.4328 21.384ZM40.4528 22.5L40.9072 20.5523L38.198 19.9202L38.4618 22.6896L40.4528 22.5ZM40.7408 25.524L38.7498 25.7136L38.7587 25.8079L38.7766 25.901L40.7408 25.524ZM37.2488 30.816L37.3965 32.8105L37.7167 32.7868L38.0135 32.664L37.2488 30.816ZM35.4848 30.312L33.5641 30.8696L33.7549 31.5269L34.3084 31.9295L35.4848 30.312ZM35.1608 29.196L33.1702 29.0014L33.1328 29.3842L33.2401 29.7536L35.1608 29.196ZM35.6288 24.408L33.6644 24.0319L33.6472 24.122L33.6382 24.2134L35.6288 24.408ZM35.9528 22.716L37.9171 23.0921L38.438 20.3718L35.6918 20.7331L35.9528 22.716ZM33.2168 23.076L33.2667 25.0754L33.3726 25.0727L33.4777 25.0589L33.2168 23.076ZM30.3368 23.148L30.2868 21.1486L27.4965 21.2184L28.4596 23.8381L30.3368 23.148ZM31.2368 25.596L33.1291 24.9486L33.1217 24.9272L33.1139 24.9059L31.2368 25.596ZM31.7048 26.964L29.8124 27.6114L29.8381 27.6864L29.8696 27.7592L31.7048 26.964ZM31.8128 29.16L33.6309 29.9933L33.68 29.8862L33.7162 29.774L31.8128 29.16ZM30.8768 30.816L31.8103 32.5848L32.2495 32.353L32.5292 31.9427L30.8768 30.816ZM27.9248 31.104L26.5105 32.5182L26.9101 32.9177L27.4596 33.0492L27.9248 31.104ZM27.3128 29.844L25.347 30.2126L25.3722 30.3469L25.4154 30.4765L27.3128 29.844ZM27.2048 29.268L29.1705 28.8994L29.168 28.8863L27.2048 29.268ZM26.9528 27.972L24.9682 28.2201L24.9766 28.2873L24.9895 28.3537L26.9528 27.972ZM26.8808 27.396L28.8653 27.1479L28.8361 26.9143L28.7534 26.6938L26.8808 27.396ZM26.7728 27.108L24.7845 27.3241L24.8117 27.5745L24.9001 27.8102L26.7728 27.108ZM26.5928 25.452L28.581 25.2359L28.5714 25.1472L28.5539 25.0598L26.5928 25.452ZM26.5208 25.092H24.5208V25.29L24.5596 25.4842L26.5208 25.092ZM26.5208 24.48H28.5208V24.2338L28.461 23.9949L26.5208 24.48ZM26.4128 23.436H28.4128V21.6174L26.6024 21.445L26.4128 23.436ZM24.8648 22.86L22.8826 23.1268L23.0067 24.0482L23.791 24.5473L24.8648 22.86ZM26.3408 19.476L27.6578 20.9812L28.3408 20.3835V19.476H26.3408ZM26.4128 17.532L28.4064 17.6915L28.4128 17.6119V17.532H26.4128ZM26.4128 17.028L24.8127 15.828L24.4128 16.3613V17.028H26.4128ZM26.5208 16.884L28.1208 18.084L28.5208 17.5507V16.884H26.5208ZM26.5208 16.2L24.5498 15.8602L24.5208 16.0288V16.2H26.5208ZM26.7008 15.156L28.6717 15.4958L28.7008 15.3271V15.156H26.7008ZM26.7008 14.868L24.73 14.5269L24.7008 14.6962V14.868H26.7008ZM27.0248 12.996L25.0691 12.5769L25.0608 12.6158L25.054 12.6549L27.0248 12.996ZM27.1328 12.492L29.0884 12.9111L29.1006 12.8539L29.1095 12.7961L27.1328 12.492ZM27.2048 12.024L29.1815 12.3281L29.2048 12.1769V12.024H27.2048ZM27.3848 11.268L29.2514 11.986L29.2786 11.9153L29.3004 11.8427L27.3848 11.268ZM27.5648 10.548L25.6124 10.1141L25.6078 10.1349L25.6036 10.1558L27.5648 10.548ZM27.6368 10.224L25.7906 9.45477L25.7227 9.61777L25.6844 9.79014L27.6368 10.224ZM28.2488 9.108L26.6487 7.908L26.6006 7.97218L26.5578 8.04001L28.2488 9.108ZM28.3568 8.964L26.8676 7.62891L26.8092 7.69403L26.7567 7.764L28.3568 8.964ZM30.8768 7.344L30.6431 5.3577L30.412 5.38489L30.1933 5.46441L30.8768 7.344ZM32.8928 8.064L34.8115 7.49967L34.6806 7.05456L34.3671 6.71255L32.8928 8.064ZM32.4608 9.072L31.3742 7.39286L30.2124 8.14462L30.5064 9.49686L32.4608 9.072ZM32.6408 9.9L34.3716 10.9021L34.7596 10.2319L34.5951 9.47514L32.6408 9.9ZM32.2448 10.584L30.5139 9.58193L30.4833 9.63486L30.4559 9.68957L32.2448 10.584ZM31.8848 11.268L33.5489 12.3774L33.5489 12.3774L31.8848 11.268ZM31.4888 12.24L29.6161 11.5378L29.4888 11.8773V12.24H31.4888ZM31.2368 14.472L29.3727 13.7471L29.2715 14.0075L29.2454 14.2858L31.2368 14.472ZM30.7688 19.476L28.7774 19.2898L28.5871 21.3253L30.6263 21.4709L30.7688 19.476ZM34.0088 19.548L34.2424 17.5617L34.0673 17.5411L33.8913 17.5515L34.0088 19.548ZM36.2408 19.548L36.3296 21.546L38.0707 21.4686L38.2322 19.7332L36.2408 19.548ZM36.3848 17.316L34.4161 16.963L34.3848 17.1381V17.316H36.3848ZM39.2322 6.86537C39.311 7.07789 39.3276 7.32857 39.2679 7.56286C39.2413 7.66743 39.2053 7.74569 39.1771 7.79616C39.1494 7.84567 39.1284 7.87029 39.1273 7.87158C39.1261 7.87292 39.1395 7.85728 39.1751 7.82634C39.2104 7.79562 39.2624 7.75439 39.3353 7.70372C39.4833 7.60081 39.6931 7.47588 39.9792 7.33285L38.1903 3.75514C37.4093 4.14565 36.6364 4.63125 36.0902 5.26842C35.4841 5.9756 35.0362 7.05309 35.4813 8.25463L39.2322 6.86537ZM39.2658 7.53579C39.5441 7.51049 39.9511 7.52974 40.5155 7.64652L41.326 3.72948C40.4984 3.55825 39.6814 3.48151 38.9037 3.55221L39.2658 7.53579ZM39.4586 7.05263C39.5972 7.20112 39.652 7.31871 39.6777 7.41129L43.5318 6.34071C43.3175 5.56929 42.9163 4.89487 42.3829 4.32336L39.4586 7.05263ZM39.628 6.57189L39.556 7.03989L43.5095 7.64811L43.5815 7.18011L39.628 6.57189ZM39.5328 7.344V8.244H43.5328V7.344H39.5328ZM39.9328 7.044L39.8248 7.188L43.0247 9.588L43.1327 9.444L39.9328 7.044ZM39.4286 8.26324L39.2486 11.1432L43.2409 11.3928L43.4209 8.51276L39.4286 8.26324ZM39.2623 11.0037L39.1903 11.5437L43.1552 12.0723L43.2272 11.5323L39.2623 11.0037ZM39.1761 11.6928L39.0681 13.5648L43.0614 13.7952L43.1694 11.9232L39.1761 11.6928ZM39.6505 12.2658C39.2788 12.6375 39.1326 13.0544 39.0705 13.3029C39.0053 13.5635 38.9928 13.7995 38.9928 13.968H42.9928C42.9928 13.9925 42.9922 14.1085 42.951 14.2731C42.9129 14.4256 42.8027 14.7705 42.479 15.0942L39.6505 12.2658ZM38.9951 13.8701L38.8151 17.5421L42.8104 17.7379L42.9904 14.0659L38.9951 13.8701ZM38.9154 17.0075L38.8434 17.2235L42.6381 18.4885L42.7101 18.2725L38.9154 17.0075ZM38.7408 17.856V19.62H42.7408V17.856H38.7408ZM40.6982 21.6195C41.1939 21.6301 41.5048 21.6698 41.6755 21.7082C41.7576 21.7268 41.7673 21.7363 41.7307 21.7195C41.6973 21.7042 41.5632 21.6387 41.4124 21.4814C41.2463 21.3083 41.0885 21.0515 41.0249 20.7256C40.9638 20.4124 41.0139 20.1596 41.0615 20.0148C41.1374 19.7838 41.2243 19.764 41.0185 19.9698L43.847 22.7982C44.2052 22.44 44.6446 21.9237 44.8615 21.2637C44.9796 20.9044 45.0473 20.454 44.951 19.96C44.8522 19.4534 44.6062 19.0327 44.2991 18.7125C43.7477 18.1377 43.0319 17.9137 42.5555 17.8063C42.0212 17.6857 41.4156 17.6339 40.7833 17.6205L40.6982 21.6195ZM40.7619 20.2848C40.6686 20.4266 40.594 20.515 40.544 20.5659C40.4943 20.6166 40.4797 20.6194 40.5057 20.6047C40.5357 20.5878 40.599 20.5596 40.689 20.5462C40.7799 20.5328 40.8572 20.5407 40.9072 20.5523L39.9983 24.4477C41.9154 24.895 43.3034 23.6995 44.1036 22.4832L40.7619 20.2848ZM38.4618 22.6896L38.7498 25.7136L42.7317 25.3344L42.4437 22.3104L38.4618 22.6896ZM38.7766 25.901C38.9217 26.6568 38.793 27.1447 38.5404 27.5275C38.2539 27.9617 37.6573 28.4825 36.484 28.968L38.0135 32.664C39.6242 31.9975 41.0016 31.0603 41.8791 29.7305C42.7905 28.3493 43.0158 26.7672 42.7049 25.147L38.7766 25.901ZM37.101 28.8215C36.9275 28.8343 36.8083 28.8016 36.6611 28.6945L34.3084 31.9295C35.2172 32.5904 36.274 32.8937 37.3965 32.8105L37.101 28.8215ZM37.4054 29.7544L37.0814 28.6384L33.2401 29.7536L33.5641 30.8696L37.4054 29.7544ZM37.1513 29.3906L37.6193 24.6026L33.6382 24.2134L33.1702 29.0014L37.1513 29.3906ZM37.5931 24.7841L37.9171 23.0921L33.9884 22.3399L33.6644 24.0319L37.5931 24.7841ZM35.6918 20.7331L32.9558 21.0931L33.4777 25.0589L36.2137 24.6989L35.6918 20.7331ZM33.1668 21.0766L30.2868 21.1486L30.3867 25.1474L33.2667 25.0754L33.1668 21.0766ZM28.4596 23.8381L29.3596 26.2861L33.1139 24.9059L32.2139 22.4579L28.4596 23.8381ZM29.3444 26.2434L29.8124 27.6114L33.5971 26.3166L33.1291 24.9486L29.3444 26.2434ZM29.8696 27.7592C29.9892 28.0352 29.9995 28.2664 29.9093 28.546L33.7162 29.774C34.106 28.5656 34.0443 27.3328 33.5399 26.1688L29.8696 27.7592ZM29.9946 28.3267C29.7779 28.7995 29.5215 29.2535 29.2243 29.6893L32.5292 31.9427C32.952 31.3225 33.3196 30.6725 33.6309 29.9933L29.9946 28.3267ZM29.9432 29.0472C29.577 29.2405 29.1028 29.3293 28.3899 29.1588L27.4596 33.0492C28.9547 33.4067 30.4485 33.3035 31.8103 32.5848L29.9432 29.0472ZM29.339 29.6898C29.4178 29.7686 29.4548 29.8264 29.4576 29.8307C29.4627 29.8385 29.4515 29.8221 29.4268 29.7712C29.3757 29.6661 29.302 29.4871 29.2101 29.2115L25.4154 30.4765C25.5395 30.8489 25.6758 31.2039 25.8287 31.5188C25.9686 31.8067 26.1833 32.191 26.5105 32.5182L29.339 29.6898ZM29.2785 29.4754L29.1705 28.8994L25.239 29.6366L25.347 30.2126L29.2785 29.4754ZM29.168 28.8863L28.916 27.5903L24.9895 28.3537L25.2415 29.6497L29.168 28.8863ZM28.9373 27.7239L28.8653 27.1479L24.8962 27.6441L24.9682 28.2201L28.9373 27.7239ZM28.7534 26.6938L28.6454 26.4058L24.9001 27.8102L25.0081 28.0982L28.7534 26.6938ZM28.761 26.8919L28.581 25.2359L24.6045 25.6681L24.7845 27.3241L28.761 26.8919ZM28.5539 25.0598L28.4819 24.6998L24.5596 25.4842L24.6316 25.8442L28.5539 25.0598ZM28.5208 25.092V24.48H24.5208V25.092H28.5208ZM28.461 23.9949C28.4403 23.9122 28.4128 23.7367 28.4128 23.436H24.4128C24.4128 23.9513 24.4572 24.4718 24.5805 24.9651L28.461 23.9949ZM26.6024 21.445C26.4786 21.4332 26.2617 21.3784 25.9385 21.1727L23.791 24.5473C24.5238 25.0136 25.3389 25.3428 26.2231 25.427L26.6024 21.445ZM26.8469 22.5932C26.7884 22.159 26.8859 21.6565 27.6578 20.9812L25.0237 17.9708C23.4916 19.3115 22.6051 21.065 22.8826 23.1268L26.8469 22.5932ZM28.3408 19.476V19.044H24.3408V19.476H28.3408ZM28.3408 19.044C28.3408 18.7077 28.3608 18.2608 28.4064 17.6915L24.4191 17.3725C24.3687 18.0032 24.3408 18.5643 24.3408 19.044H28.3408ZM28.4128 17.532V17.028H24.4128V17.532H28.4128ZM28.0128 18.228L28.1208 18.084L24.9207 15.684L24.8127 15.828L28.0128 18.228ZM28.5208 16.884V16.2H24.5208V16.884H28.5208ZM28.4917 16.5398L28.6717 15.4958L24.7298 14.8162L24.5498 15.8602L28.4917 16.5398ZM28.7008 15.156V14.868H24.7008V15.156H28.7008ZM28.6715 15.2091L28.9955 13.3371L25.054 12.6549L24.73 14.5269L28.6715 15.2091ZM28.9804 13.4151L29.0884 12.9111L25.1771 12.0729L25.0691 12.5769L28.9804 13.4151ZM29.1095 12.7961L29.1815 12.3281L25.228 11.7199L25.156 12.1879L29.1095 12.7961ZM29.2048 12.024C29.2048 12.0789 29.2006 12.1175 29.198 12.1366C29.1954 12.156 29.1934 12.1625 29.1954 12.1542C29.1973 12.1463 29.202 12.1282 29.2113 12.0988C29.2206 12.0697 29.2336 12.0323 29.2514 11.986L25.5181 10.55C25.3653 10.9471 25.2048 11.4689 25.2048 12.024H29.2048ZM29.3004 11.8427C29.39 11.544 29.4653 11.2432 29.5259 10.9402L25.6036 10.1558C25.5682 10.3328 25.5235 10.512 25.4691 10.6933L29.3004 11.8427ZM29.5171 10.9819L29.5891 10.6579L25.6844 9.79014L25.6124 10.1141L29.5171 10.9819ZM29.4829 10.9932C29.5396 10.8573 29.6752 10.5948 29.9397 10.176L26.5578 8.04001C26.2463 8.53323 25.9739 9.01473 25.7906 9.45477L29.4829 10.9932ZM29.8488 10.308L29.9568 10.164L26.7567 7.764L26.6487 7.908L29.8488 10.308ZM29.8459 10.2991C30.21 9.893 30.7514 9.51772 31.5602 9.22358L30.1933 5.46441C28.8901 5.93828 27.7515 6.64299 26.8676 7.62891L29.8459 10.2991ZM31.1104 9.3303C31.2588 9.31284 31.3153 9.33376 31.3201 9.33548C31.3211 9.33586 31.353 9.3441 31.4184 9.41545L34.3671 6.71255C33.3791 5.6348 32.0586 5.19116 30.6431 5.3577L31.1104 9.3303ZM30.974 8.62833C30.9253 8.46263 30.896 8.16191 31.0365 7.83416C31.1649 7.53447 31.3526 7.40689 31.3742 7.39286L33.5473 10.7511C33.9769 10.4731 34.4406 10.0455 34.713 9.40984C34.9975 8.74609 34.9802 8.07336 34.8115 7.49967L30.974 8.62833ZM30.5064 9.49686L30.6864 10.3249L34.5951 9.47514L34.4151 8.64714L30.5064 9.49686ZM30.9099 8.89793L30.5139 9.58193L33.9756 11.5861L34.3716 10.9021L30.9099 8.89793ZM30.4559 9.68957C30.3626 9.87613 30.2916 10.0152 30.2409 10.1115C30.2154 10.1599 30.1987 10.1906 30.1892 10.2075C30.174 10.2347 30.1881 10.2074 30.2206 10.1586L33.5489 12.3774C33.6838 12.175 33.8703 11.805 34.0336 11.4784L30.4559 9.68957ZM30.2206 10.1586C30.1084 10.327 30.0325 10.4972 30.0123 10.5416C29.9743 10.6252 29.9354 10.7177 29.8976 10.8104C29.8211 10.998 29.7266 11.2432 29.6161 11.5378L33.3614 12.9422C33.4669 12.6608 33.5464 12.456 33.6019 12.3196C33.6301 12.2503 33.6467 12.2123 33.6537 12.1969C33.6573 12.1891 33.6535 12.1978 33.6437 12.217C33.6391 12.226 33.6058 12.292 33.5489 12.3774L30.2206 10.1586ZM29.4888 12.24V12.78H33.4888V12.24H29.4888ZM29.4888 12.78C29.4888 13.3402 29.4176 13.6317 29.3727 13.7471L33.1008 15.1969C33.3919 14.4483 33.4888 13.6118 33.4888 12.78H29.4888ZM29.2454 14.2858L28.7774 19.2898L32.7601 19.6622L33.2281 14.6582L29.2454 14.2858ZM30.6263 21.4709C32.0091 21.5697 33.1863 21.5998 34.1262 21.5445L33.8913 17.5515C33.1992 17.5922 32.2164 17.5743 30.9112 17.4811L30.6263 21.4709ZM33.7751 21.5343C34.3649 21.6037 35.2609 21.5935 36.3296 21.546L36.1519 17.55C35.0606 17.5985 34.4686 17.5883 34.2424 17.5617L33.7751 21.5343ZM38.2322 19.7332C38.3286 18.697 38.3848 17.8727 38.3848 17.316H34.3848C34.3848 17.6713 34.345 18.335 34.2493 19.3628L38.2322 19.7332ZM38.3534 17.669C38.9941 14.0958 39.3317 10.73 39.3567 7.57587L35.3568 7.54413C35.3338 10.438 35.0234 13.5762 34.4161 16.963L38.3534 17.669ZM56.4626 10.764L56.5855 8.76777L56.5844 8.76771L56.4626 10.764ZM60.4226 15.408L58.5408 16.0854L58.5422 16.0893L60.4226 15.408ZM62.6186 23.22L60.6377 23.4958L60.6392 23.5063L62.6186 23.22ZM64.2746 34.668L66.1542 35.3515L66.326 34.8791L66.254 34.3817L64.2746 34.668ZM63.9866 35.46L62.107 34.7765L62.0978 34.8019L62.0893 34.8275L63.9866 35.46ZM63.4826 36.216L62.3732 34.5519L62.2642 34.6246L62.1656 34.7108L63.4826 36.216ZM62.8706 36.54L63.0037 38.5356L63.1557 38.5254L63.3045 38.4924L62.8706 36.54ZM62.3306 36.576L62.1976 38.5716L62.3306 38.5804L62.4637 38.5716L62.3306 36.576ZM61.5746 36.432L62.4691 34.6431L62.3577 34.5875L62.2403 34.546L61.5746 36.432ZM60.9626 36.216L58.9682 36.0664L58.8538 37.5926L60.297 38.102L60.9626 36.216ZM61.0706 34.776L59.0765 34.6226L59.0762 34.6264L61.0706 34.776ZM61.1786 33.372L59.1886 33.173L59.1863 33.1958L59.1845 33.2186L61.1786 33.372ZM60.8186 30.168L59.0298 31.0624L59.0479 31.0987L59.0675 31.1342L60.8186 30.168ZM58.3346 28.944L58.4824 26.9495L58.478 26.9491L58.3346 28.944ZM51.3866 29.088L52.0624 30.9704L52.0756 30.9656L52.0889 30.9607L51.3866 29.088ZM49.0826 31.572L47.2619 30.7444L47.2584 30.752L47.255 30.7597L49.0826 31.572ZM46.1666 35.028L46.6005 36.9804L47.0129 36.8887L47.353 36.6381L46.1666 35.028ZM45.5186 35.172V37.172H45.7382L45.9525 37.1244L45.5186 35.172ZM44.7986 35.172L44.6561 37.1669L44.7273 37.172H44.7986V35.172ZM44.1146 34.812L42.1743 35.2971L42.2383 35.5528L42.3663 35.7833L44.1146 34.812ZM44.0786 34.056L42.0845 33.9026L42.0845 33.9026L44.0786 34.056ZM44.4026 32.184L42.4773 31.6425L42.4743 31.6533L42.4714 31.6641L44.4026 32.184ZM44.9786 30.42L43.1698 29.5668L43.1484 29.6121L43.1293 29.6585L44.9786 30.42ZM48.2906 21.492L50.1821 22.1419L50.1831 22.1388L48.2906 21.492ZM51.9986 12.96L50.3113 11.8862L50.3051 11.896L50.299 11.9058L51.9986 12.96ZM51.5306 25.452L49.8019 24.4462L47.8051 27.8783L51.7515 27.4398L51.5306 25.452ZM52.8266 25.308V23.308H52.7159L52.6058 23.3202L52.8266 25.308ZM53.6186 25.308L53.9253 23.3317L53.7729 23.308H53.6186V25.308ZM55.7066 25.632L55.4 27.6083L55.4211 27.6116L55.4423 27.6145L55.7066 25.632ZM57.2186 25.38L56.6363 23.4667L56.6111 23.4743L56.5862 23.4826L57.2186 25.38ZM59.4506 24.12L60.617 25.7446L61.4978 25.1123L61.4486 24.0292L59.4506 24.12ZM58.3706 18.252L56.443 18.7852L56.4439 18.7883L58.3706 18.252ZM56.8226 14.76L56.4649 16.7278L56.4751 16.7296L56.8226 14.76ZM56.4266 14.688L56.7844 12.7203L56.607 12.688H56.4266V14.688ZM56.2106 14.688L56.0681 16.6829L56.1393 16.688H56.2106V14.688ZM53.4386 19.008L51.4667 18.674L51.4667 18.674L53.4386 19.008ZM56.3398 12.7602C56.4278 12.7656 56.6817 12.8032 57.1008 13.2947C57.5415 13.8115 58.0415 14.6982 58.5409 16.0854L62.3044 14.7306C61.7238 13.1178 61.0238 11.7305 60.1445 10.6993C59.2436 9.64279 58.0575 8.85836 56.5855 8.76778L56.3398 12.7602ZM58.5422 16.0893C59.7272 19.3599 60.4028 21.8084 60.6377 23.4958L64.5995 22.9442C64.3065 20.8396 63.518 18.0801 62.303 14.7267L58.5422 16.0893ZM60.6392 23.5063L62.2952 34.9543L66.254 34.3817L64.598 22.9337L60.6392 23.5063ZM62.395 33.9845L62.107 34.7765L65.8662 36.1435L66.1542 35.3515L62.395 33.9845ZM62.0893 34.8275C62.072 34.8794 62.0707 34.8633 62.1065 34.8096C62.1449 34.752 62.2281 34.6487 62.3732 34.5519L64.592 37.8801C65.3146 37.3984 65.686 36.6865 65.884 36.0925L62.0893 34.8275ZM62.1656 34.7108C62.1869 34.6922 62.2785 34.6228 62.4368 34.5876L63.3045 38.4924C63.8947 38.3612 64.3943 38.0758 64.7996 37.7212L62.1656 34.7108ZM62.7376 34.5444L62.1976 34.5804L62.4637 38.5716L63.0037 38.5356L62.7376 34.5444ZM62.4637 34.5804C62.4018 34.5763 62.3525 34.5717 62.3146 34.5672C62.2761 34.5627 62.2541 34.5589 62.2459 34.5573C62.2366 34.5556 62.251 34.5578 62.2829 34.5675C62.2995 34.5725 62.3237 34.5804 62.3538 34.592C62.3838 34.6036 62.4231 34.6202 62.4691 34.6431L60.6802 38.2209C61.2129 38.4872 61.8209 38.5465 62.1976 38.5716L62.4637 34.5804ZM62.2403 34.546L61.6283 34.33L60.297 38.102L60.909 38.318L62.2403 34.546ZM62.957 36.3656L63.065 34.9256L59.0762 34.6264L58.9682 36.0664L62.957 36.3656ZM63.0647 34.9294L63.1727 33.5254L59.1845 33.2186L59.0765 34.6226L63.0647 34.9294ZM63.1687 33.571C63.3243 32.0146 63.2538 30.4417 62.5698 29.2018L59.0675 31.1342C59.1514 31.2863 59.3209 31.8494 59.1886 33.173L63.1687 33.571ZM62.6075 29.2736C61.7721 27.6029 60.0289 27.064 58.4824 26.9495L58.1869 30.9385C58.6755 30.9747 58.9333 31.0617 59.0436 31.116C59.1259 31.1566 59.073 31.1489 59.0298 31.0624L62.6075 29.2736ZM58.478 26.9491C56.6118 26.815 55.0468 26.7566 53.8022 26.7824C52.6306 26.8067 51.5104 26.9056 50.6844 27.2153L52.0889 30.9607C52.2229 30.9104 52.7406 30.8053 53.8851 30.7816C54.9565 30.7594 56.3855 30.809 58.1912 30.9389L58.478 26.9491ZM50.7109 27.2056C49.0725 27.7938 47.9827 29.1587 47.2619 30.7444L50.9034 32.3996C51.3826 31.3453 51.8288 31.0542 52.0624 30.9704L50.7109 27.2056ZM47.255 30.7597C46.8454 31.6812 46.1243 32.5749 44.9802 33.4179L47.353 36.6381C48.945 35.4651 50.1678 34.0548 50.9102 32.3843L47.255 30.7597ZM45.7328 33.0756L45.0848 33.2196L45.9525 37.1244L46.6005 36.9804L45.7328 33.0756ZM45.5186 33.172H44.7986V37.172H45.5186V33.172ZM44.9411 33.1771C44.9679 33.179 45.1137 33.1924 45.3071 33.2942C45.5217 33.4071 45.7258 33.5938 45.8629 33.8407L42.3663 35.7833C42.9271 36.7927 43.9164 37.1141 44.6561 37.1669L44.9411 33.1771ZM46.0549 34.3269C46.063 34.3591 46.0662 34.3806 46.0674 34.3889C46.0685 34.3973 46.0679 34.3962 46.0674 34.3839C46.0661 34.3576 46.0657 34.3015 46.0727 34.2094L42.0845 33.9026C42.0524 34.3195 42.053 34.8116 42.1743 35.2971L46.0549 34.3269ZM46.0727 34.2094C46.1109 33.7132 46.1971 33.2119 46.3339 32.7039L42.4714 31.6641C42.2721 32.4041 42.1423 33.1508 42.0845 33.9026L46.0727 34.2094ZM46.3279 32.7255C46.5368 31.9829 46.7041 31.4822 46.828 31.1815L43.1293 29.6585C42.9171 30.1738 42.7005 30.8491 42.4773 31.6425L46.3279 32.7255ZM46.7875 31.2732C47.4439 29.8817 48.5843 26.7923 50.1821 22.1419L46.3992 20.8421C44.781 25.5517 43.7134 28.4143 43.1698 29.5668L46.7875 31.2732ZM50.1831 22.1388C51.4624 18.3958 52.6408 15.719 53.6982 14.0142L50.299 11.9058C49.0044 13.993 47.7109 17.0042 46.3981 20.8452L50.1831 22.1388ZM53.6859 14.0337C54.0196 13.5094 54.3805 13.2011 54.7535 13.0176C55.1316 12.8316 55.6379 12.7174 56.3409 12.7603L56.5844 8.76771C55.3194 8.69057 54.0976 8.88243 52.9878 9.42839C51.8727 9.97694 50.9856 10.8266 50.3113 11.8862L53.6859 14.0337ZM51.7515 27.4398L53.0475 27.2958L52.6058 23.3202L51.3098 23.4642L51.7515 27.4398ZM52.8266 27.308H53.6186V23.308H52.8266V27.308ZM53.312 27.2843L55.4 27.6083L56.0133 23.6557L53.9253 23.3317L53.312 27.2843ZM55.4423 27.6145C56.2658 27.7243 57.1255 27.5192 57.8511 27.2774L56.5862 23.4826C56.3305 23.5679 56.1471 23.612 56.0258 23.6322C55.8969 23.6537 55.8919 23.639 55.971 23.6495L55.4423 27.6145ZM57.8009 27.2933C58.6803 27.0257 59.6438 26.4434 60.617 25.7446L58.2842 22.4954C57.3854 23.1406 56.8609 23.3983 56.6363 23.4667L57.8009 27.2933ZM61.4486 24.0292C61.3671 22.2379 60.9671 20.1218 60.2974 17.7157L56.4439 18.7883C57.0701 21.0382 57.3901 22.8341 57.4527 24.2108L61.4486 24.0292ZM60.2982 17.7188C59.9779 16.5606 59.662 15.5938 59.344 14.8765C59.188 14.5246 58.995 14.148 58.7507 13.8212C58.5646 13.5722 58.0577 12.9471 57.1702 12.7904L56.4751 16.7296C56.1065 16.6645 55.8589 16.5011 55.7379 16.4052C55.6162 16.3086 55.5556 16.2278 55.547 16.2163C55.5337 16.1985 55.5852 16.2674 55.6872 16.4975C55.8852 16.9442 56.1394 17.6874 56.443 18.7852L60.2982 17.7188ZM57.1804 12.7923L56.7844 12.7203L56.0689 16.6557L56.4649 16.7277L57.1804 12.7923ZM56.4266 12.688H56.2106V16.688H56.4266V12.688ZM56.3531 12.6931C54.7461 12.5783 53.5588 13.4745 52.8264 14.6159C52.1475 15.6739 51.7345 17.0925 51.4667 18.674L55.4105 19.342C55.6467 17.9475 55.9478 17.1581 56.1929 16.7761C56.304 16.6029 56.3533 16.5936 56.301 16.6246C56.2259 16.6691 56.1288 16.6872 56.0681 16.6829L56.3531 12.6931ZM51.4667 18.674C50.9715 21.5982 50.3814 23.4502 49.8019 24.4462L53.2593 26.4578C54.2158 24.8138 54.8978 22.3698 55.4105 19.342L51.4667 18.674ZM74.4033 6.12L73.2939 4.4559L72.6895 4.85881L72.4846 5.55567L74.4033 6.12ZM75.4113 5.472L74.9774 3.51962L74.6606 3.59003L74.3823 3.75701L75.4113 5.472ZM76.0593 5.328L76.4069 3.35843L76.0144 3.28918L75.6254 3.37562L76.0593 5.328ZM76.6713 5.436L77.798 3.78354L77.4425 3.5412L77.0189 3.46643L76.6713 5.436ZM77.4633 5.976L79.1077 4.83758L78.8965 4.53254L78.59 4.32354L77.4633 5.976ZM78.7593 7.848L77.1149 8.98642L77.1247 9.00063L77.1348 9.01466L78.7593 7.848ZM81.1713 19.908L83.1679 20.0254L83.1684 20.0145L81.1713 19.908ZM75.2673 27.108L73.8173 28.4855L74.1379 28.823L74.5747 28.9843L75.2673 27.108ZM74.5833 26.388L72.6268 26.803L72.7441 27.3558L73.1333 27.7655L74.5833 26.388ZM71.7753 22.248L72.9911 20.66L71.0067 19.1407L69.9594 21.4099L71.7753 22.248ZM71.5233 23.292L73.3616 24.0798L73.4978 23.7619L73.5194 23.4168L71.5233 23.292ZM71.4153 23.544L69.577 22.7562L69.3924 23.187L69.4184 23.6549L71.4153 23.544ZM71.1633 25.092L69.2584 24.4824L69.209 24.6369L69.1851 24.7974L71.1633 25.092ZM70.9113 26.784L72.8516 27.2691L72.8751 27.1748L72.8895 27.0786L70.9113 26.784ZM70.6953 27.648L72.5093 28.4902L72.5894 28.3177L72.6356 28.1331L70.6953 27.648ZM70.2273 28.656L71.8717 29.7944L71.9692 29.6536L72.0413 29.4982L70.2273 28.656ZM69.9033 29.124L68.2589 27.9856L68.1698 28.1143L68.1017 28.2554L69.9033 29.124ZM67.3833 31.032L67.1739 33.021L67.2089 33.0247L67.2441 33.0271L67.3833 31.032ZM65.0073 28.872L63.0087 28.798L63.0011 29.0007L63.0345 29.2008L65.0073 28.872ZM65.5473 26.748L67.3796 27.5496L67.3924 27.5204L67.4042 27.4908L65.5473 26.748ZM65.8353 26.028L67.6922 26.7708L67.8114 26.4729L67.8314 26.1528L65.8353 26.028ZM66.1953 24.588L64.3931 23.7208L64.3541 23.8017L64.3226 23.8858L66.1953 24.588ZM70.0113 17.856L69.496 15.9235L68.8457 16.0969L68.4326 16.6281L70.0113 17.856ZM76.1313 19.368L74.8585 20.9107L76.02 21.869L77.262 21.0177L76.1313 19.368ZM75.1953 9.504L73.4306 10.4452L73.4354 10.4542L75.1953 9.504ZM74.0433 7.344L72.1246 6.77967L71.8939 7.5639L72.2786 8.28517L74.0433 7.344ZM75.5127 7.7841C75.9365 7.50157 76.2413 7.30635 76.4403 7.18698L74.3823 3.75701C74.1012 3.92565 73.7341 4.16242 73.2939 4.4559L75.5127 7.7841ZM75.8451 7.42437L76.4931 7.28037L75.6254 3.37562L74.9774 3.51962L75.8451 7.42437ZM75.7117 7.29756L76.3237 7.40557L77.0189 3.46643L76.4069 3.35843L75.7117 7.29756ZM75.5446 7.08845L76.3366 7.62845L78.59 4.32354L77.798 3.78354L75.5446 7.08845ZM75.8189 7.11442L77.1149 8.98642L80.4037 6.70958L79.1077 4.83758L75.8189 7.11442ZM77.1348 9.01466C78.6394 11.1096 79.4527 14.579 79.1741 19.8015L83.1684 20.0145C83.4659 14.437 82.6712 9.8664 80.3837 6.68133L77.1348 9.01466ZM79.1747 19.7906C78.9992 22.7738 78.4376 24.3483 77.8787 25.0298C77.6508 25.3078 77.4551 25.4004 77.2654 25.4374C77.0366 25.482 76.6265 25.4778 75.9599 25.2317L74.5747 28.9843C75.6961 29.3982 76.8729 29.589 78.0302 29.3636C79.2265 29.1306 80.2158 28.4882 80.9718 27.5662C82.381 25.8477 82.9833 23.1622 83.1678 20.0254L79.1747 19.7906ZM76.7173 25.7305L76.0333 25.0105L73.1333 27.7655L73.8173 28.4855L76.7173 25.7305ZM76.5397 25.973C76.0862 23.835 74.8287 22.0669 72.9911 20.66L70.5595 23.836C71.7938 24.7811 72.4083 25.773 72.6268 26.803L76.5397 25.973ZM69.9594 21.4099C69.7 21.9718 69.5648 22.5658 69.5272 23.1672L73.5194 23.4168C73.5298 23.2502 73.5625 23.1482 73.5912 23.0861L69.9594 21.4099ZM69.685 22.5042L69.577 22.7562L73.2536 24.3318L73.3616 24.0798L69.685 22.5042ZM69.4184 23.6549C69.4241 23.759 69.407 24.0183 69.2584 24.4824L73.0681 25.7016C73.3036 24.9657 73.4544 24.193 73.4122 23.4331L69.4184 23.6549ZM69.1851 24.7974L68.9331 26.4894L72.8895 27.0786L73.1415 25.3866L69.1851 24.7974ZM68.971 26.2989L68.755 27.1629L72.6356 28.1331L72.8516 27.2691L68.971 26.2989ZM68.8813 26.8058L68.4133 27.8138L72.0413 29.4982L72.5093 28.4902L68.8813 26.8058ZM68.5829 27.5176L68.2589 27.9856L71.5477 30.2624L71.8717 29.7944L68.5829 27.5176ZM68.1017 28.2554C67.8618 28.7532 67.6642 28.9507 67.58 29.0145C67.5446 29.0413 67.5337 29.0415 67.5443 29.0383C67.5555 29.0349 67.5531 29.039 67.5225 29.0368L67.2441 33.0271C69.4487 33.181 70.8872 31.6885 71.7048 29.9926L68.1017 28.2554ZM67.5927 29.043C67.2108 29.0028 67.1103 28.9056 67.1086 28.9041C67.1029 28.8989 67.0876 28.8845 67.0661 28.8416C67.0426 28.7946 67.0066 28.7023 66.9801 28.5432L63.0345 29.2008C63.1991 30.1885 63.6192 31.1378 64.4179 31.8639C65.2083 32.5824 66.1878 32.9172 67.1739 33.021L67.5927 29.043ZM67.0059 28.946C67.0183 28.6104 67.1161 28.1518 67.3796 27.5496L63.715 25.9464C63.3064 26.8802 63.0442 27.8376 63.0087 28.798L67.0059 28.946ZM67.4042 27.4908L67.6922 26.7708L63.9783 25.2852L63.6903 26.0052L67.4042 27.4908ZM67.8314 26.1528C67.8379 26.0482 67.8851 25.7777 68.0679 25.2902L64.3226 23.8858C64.0734 24.5503 63.8806 25.2398 63.8392 25.9032L67.8314 26.1528ZM67.9975 25.4552C69.5257 22.2793 70.7216 20.2004 71.59 19.0839L68.4326 16.6281C67.285 18.1036 65.9368 20.5127 64.3931 23.7208L67.9975 25.4552ZM70.5266 19.7885C71.9848 19.3996 73.3711 19.6836 74.8585 20.9107L77.404 17.8253C75.0515 15.8844 72.3578 15.1604 69.496 15.9235L70.5266 19.7885ZM77.262 21.0177C79.1002 19.7578 79.693 17.7504 79.4903 15.6151C79.2967 13.5742 78.3805 11.1937 76.9552 8.55383L73.4354 10.4542C74.7701 12.9263 75.3899 14.7458 75.5082 15.9929C75.6176 17.1456 75.2984 17.5142 75.0006 17.7183L77.262 21.0177ZM76.96 8.56282L75.808 6.40282L72.2786 8.28517L73.4306 10.4452L76.96 8.56282ZM75.962 7.90833L76.322 6.68433L72.4846 5.55567L72.1246 6.77967L75.962 7.90833ZM91.5244 6.12L90.415 4.4559L89.8106 4.85881L89.6056 5.55567L91.5244 6.12ZM92.5324 5.472L92.0985 3.51962L91.7817 3.59003L91.5034 3.75701L92.5324 5.472ZM93.1804 5.328L93.5279 3.35843L93.1355 3.28918L92.7465 3.37562L93.1804 5.328ZM93.7924 5.436L94.919 3.78354L94.5636 3.5412L94.1399 3.46643L93.7924 5.436ZM94.5844 5.976L96.2288 4.83758L96.0176 4.53254L95.711 4.32354L94.5844 5.976ZM95.8804 7.848L94.236 8.98642L94.2458 9.00063L94.2559 9.01466L95.8804 7.848ZM98.2924 19.908L100.289 20.0254L100.29 20.0145L98.2924 19.908ZM92.3884 27.108L90.9384 28.4855L91.259 28.823L91.6958 28.9843L92.3884 27.108ZM91.7044 26.388L89.7479 26.803L89.8652 27.3558L90.2544 27.7655L91.7044 26.388ZM88.8964 22.248L90.1122 20.66L88.1278 19.1407L87.0805 21.4099L88.8964 22.248ZM88.6444 23.292L90.4827 24.0798L90.6189 23.7619L90.6405 23.4168L88.6444 23.292ZM88.5364 23.544L86.6981 22.7562L86.5135 23.187L86.5395 23.6549L88.5364 23.544ZM88.2844 25.092L86.3795 24.4824L86.3301 24.6369L86.3062 24.7974L88.2844 25.092ZM88.0324 26.784L89.9727 27.2691L89.9962 27.1748L90.0106 27.0786L88.0324 26.784ZM87.8164 27.648L89.6304 28.4902L89.7105 28.3177L89.7567 28.1331L87.8164 27.648ZM87.3484 28.656L88.9928 29.7944L89.0903 29.6536L89.1624 29.4982L87.3484 28.656ZM87.0244 29.124L85.38 27.9856L85.2909 28.1143L85.2228 28.2554L87.0244 29.124ZM84.5044 31.032L84.295 33.021L84.33 33.0247L84.3652 33.0271L84.5044 31.032ZM82.1284 28.872L80.1297 28.798L80.1222 29.0007L80.1556 29.2008L82.1284 28.872ZM82.6684 26.748L84.5007 27.5496L84.5135 27.5204L84.5253 27.4908L82.6684 26.748ZM82.9564 26.028L84.8133 26.7708L84.9325 26.4729L84.9525 26.1528L82.9564 26.028ZM83.3164 24.588L81.5142 23.7208L81.4752 23.8017L81.4437 23.8858L83.3164 24.588ZM87.1324 17.856L86.6171 15.9235L85.9668 16.0969L85.5537 16.6281L87.1324 17.856ZM93.2524 19.368L91.9796 20.9107L93.1411 21.869L94.3831 21.0177L93.2524 19.368ZM92.3164 9.504L90.5516 10.4452L90.5565 10.4542L92.3164 9.504ZM91.1644 7.344L89.2456 6.77967L89.015 7.5639L89.3997 8.28517L91.1644 7.344ZM92.6338 7.7841C93.0576 7.50157 93.3624 7.30635 93.5614 7.18698L91.5034 3.75701C91.2223 3.92565 90.8552 4.16242 90.415 4.4559L92.6338 7.7841ZM92.9662 7.42437L93.6142 7.28037L92.7465 3.37562L92.0985 3.51962L92.9662 7.42437ZM92.8328 7.29756L93.4448 7.40557L94.1399 3.46643L93.5279 3.35843L92.8328 7.29756ZM92.6657 7.08845L93.4577 7.62845L95.711 4.32354L94.919 3.78354L92.6657 7.08845ZM92.94 7.11442L94.236 8.98642L97.5248 6.70958L96.2288 4.83758L92.94 7.11442ZM94.2559 9.01466C95.7604 11.1096 96.5737 14.579 96.2952 19.8015L100.29 20.0145C100.587 14.437 99.7923 9.8664 97.5048 6.68133L94.2559 9.01466ZM96.2958 19.7906C96.1203 22.7738 95.5587 24.3483 94.9998 25.0298C94.7719 25.3078 94.5762 25.4004 94.3865 25.4374C94.1577 25.482 93.7476 25.4778 93.081 25.2317L91.6958 28.9843C92.8172 29.3982 93.994 29.589 95.1513 29.3636C96.3476 29.1306 97.3369 28.4882 98.0929 27.5662C99.5021 25.8477 100.104 23.1622 100.289 20.0254L96.2958 19.7906ZM93.8384 25.7305L93.1544 25.0105L90.2544 27.7655L90.9384 28.4855L93.8384 25.7305ZM93.6608 25.973C93.2073 23.835 91.9498 22.0669 90.1122 20.66L87.6806 23.836C88.9149 24.7811 89.5294 25.773 89.7479 26.803L93.6608 25.973ZM87.0805 21.4099C86.8211 21.9718 86.6859 22.5658 86.6483 23.1672L90.6405 23.4168C90.6509 23.2502 90.6836 23.1482 90.7123 23.0861L87.0805 21.4099ZM86.8061 22.5042L86.6981 22.7562L90.3747 24.3318L90.4827 24.0798L86.8061 22.5042ZM86.5395 23.6549C86.5452 23.759 86.5281 24.0183 86.3795 24.4824L90.1892 25.7016C90.4247 24.9657 90.5755 24.193 90.5333 23.4331L86.5395 23.6549ZM86.3062 24.7974L86.0542 26.4894L90.0106 27.0786L90.2626 25.3866L86.3062 24.7974ZM86.0921 26.2989L85.8761 27.1629L89.7567 28.1331L89.9727 27.2691L86.0921 26.2989ZM86.0024 26.8058L85.5344 27.8138L89.1624 29.4982L89.6304 28.4902L86.0024 26.8058ZM85.704 27.5176L85.38 27.9856L88.6688 30.2624L88.9928 29.7944L85.704 27.5176ZM85.2228 28.2554C84.9828 28.7532 84.7853 28.9507 84.7011 29.0145C84.6657 29.0413 84.6548 29.0415 84.6654 29.0383C84.6766 29.0349 84.6742 29.039 84.6436 29.0368L84.3652 33.0271C86.5698 33.181 88.0082 31.6885 88.8259 29.9926L85.2228 28.2554ZM84.7137 29.043C84.3319 29.0028 84.2314 28.9056 84.2297 28.9041C84.224 28.8989 84.2087 28.8845 84.1872 28.8416C84.1637 28.7946 84.1277 28.7023 84.1012 28.5432L80.1556 29.2008C80.3202 30.1885 80.7403 31.1378 81.539 31.8639C82.3294 32.5824 83.3089 32.9172 84.295 33.021L84.7137 29.043ZM84.127 28.946C84.1394 28.6104 84.2372 28.1518 84.5007 27.5496L80.8361 25.9464C80.4275 26.8802 80.1653 27.8376 80.1297 28.798L84.127 28.946ZM84.5253 27.4908L84.8133 26.7708L81.0994 25.2852L80.8114 26.0052L84.5253 27.4908ZM84.9525 26.1528C84.959 26.0482 85.0062 25.7777 85.189 25.2902L81.4437 23.8858C81.1945 24.5503 81.0017 25.2398 80.9603 25.9032L84.9525 26.1528ZM85.1186 25.4552C86.6468 22.2793 87.8427 20.2004 88.7111 19.0839L85.5537 16.6281C84.406 18.1036 83.0579 20.5127 81.5142 23.7208L85.1186 25.4552ZM87.6477 19.7885C89.1059 19.3996 90.4922 19.6836 91.9796 20.9107L94.5251 17.8253C92.1726 15.8844 89.4789 15.1604 86.6171 15.9235L87.6477 19.7885ZM94.3831 21.0177C96.2212 19.7578 96.8141 17.7504 96.6114 15.6151C96.4178 13.5742 95.5016 11.1937 94.0763 8.55383L90.5565 10.4542C91.8912 12.9263 92.511 14.7458 92.6293 15.9929C92.7387 17.1456 92.4195 17.5142 92.1217 17.7183L94.3831 21.0177ZM94.0811 8.56282L92.9291 6.40282L89.3997 8.28517L90.5517 10.4452L94.0811 8.56282ZM93.0831 7.90833L93.4431 6.68433L89.6056 5.55567L89.2456 6.77967L93.0831 7.90833ZM107.241 6.3L106.632 4.39515L106.604 4.40417L106.576 4.41402L107.241 6.3ZM108.141 6.012L107.859 4.0321L107.692 4.05589L107.532 4.10715L108.141 6.012ZM114.981 10.692L116.972 10.4997L116.959 10.3639L116.928 10.2311L114.981 10.692ZM109.545 20.628L110.162 22.5304L110.376 22.4613L110.568 22.3466L109.545 20.628ZM108.213 21.06L107.596 19.1576L107.523 19.1813L107.452 19.2106L108.213 21.06ZM106.737 21.42L106.489 19.4354L106.481 19.4365L106.473 19.4375L106.737 21.42ZM106.197 21.492L105.933 19.5095L105.662 19.5458L105.41 19.6537L106.197 21.492ZM105.945 21.6V23.6H106.356L106.733 23.4383L105.945 21.6ZM104.685 21.6V19.6H102.211L102.73 22.0191L104.685 21.6ZM105.045 22.716L103.196 23.4775L103.253 23.6163L103.33 23.745L105.045 22.716ZM105.153 22.896L103.438 23.925L103.476 23.9877L103.518 24.0476L105.153 22.896ZM114.729 24.48L114.057 22.5965L113.877 22.6607L113.713 22.7577L114.729 24.48ZM115.881 24.3L116.381 22.3634L116.135 22.3H115.881V24.3ZM117.789 25.704L119.769 25.4212L119.701 24.9416L119.42 24.5465L117.789 25.704ZM117.465 28.188L118.688 29.7706L119.111 29.4437L119.315 28.9495L117.465 28.188ZM112.029 30.564L111.965 32.563L111.966 32.563L112.029 30.564ZM110.913 30.528L110.978 28.529L110.707 28.5203L110.443 28.5841L110.913 30.528ZM108.681 31.068L108.386 33.0461L108.772 33.1037L109.152 33.0119L108.681 31.068ZM104.865 28.836L106.465 27.636L106.465 27.636L104.865 28.836ZM100.653 24.408L98.7613 25.0558L98.9275 25.5415L99.3072 25.887L100.653 24.408ZM103.461 8.748L101.925 7.46763L101.881 7.52046L101.841 7.57618L103.461 8.748ZM104.541 7.776L105.741 9.376L105.945 9.22366L106.103 9.02539L104.541 7.776ZM104.685 7.596L103.737 5.83506L103.378 6.02831L103.124 6.34661L104.685 7.596ZM105.153 7.344L106.102 9.10494L106.36 8.96577L106.568 8.75821L105.153 7.344ZM105.333 7.164L104.265 5.47302L104.077 5.5921L103.919 5.74978L105.333 7.164ZM110.553 14.292L112.271 15.3175L112.344 15.194L112.4 15.0612L110.553 14.292ZM110.085 8.748L111.035 6.98795L110.233 6.555L109.38 6.87653L110.085 8.748ZM103.857 16.74L105.659 17.6076L105.749 17.4222L105.798 17.2224L103.857 16.74ZM103.497 18.792L101.507 18.991L101.735 21.2708L103.963 20.737L103.497 18.792ZM106.953 17.964L107.419 19.909L107.663 19.8506L107.885 19.7338L106.953 17.964ZM107.851 8.20485L108.751 7.91685L107.532 4.10715L106.632 4.39515L107.851 8.20485ZM108.424 7.9919C109.954 7.77342 110.894 8.02595 111.494 8.43661C112.096 8.84823 112.677 9.63827 113.035 11.1529L116.928 10.2311C116.422 8.09773 115.431 6.28377 113.753 5.13538C112.073 3.98605 110.025 3.72257 107.859 4.0321L108.424 7.9919ZM112.991 10.8843C113.161 12.6486 112.864 14.1225 112.174 15.3841C111.477 16.6585 110.305 17.8483 108.523 18.9094L110.568 22.3466C112.818 21.0077 114.568 19.3415 115.683 17.3039C116.805 15.2535 117.21 12.9594 116.972 10.4997L112.991 10.8843ZM108.928 18.7256L107.596 19.1576L108.83 22.9624L110.162 22.5304L108.928 18.7256ZM107.452 19.2106C107.251 19.2935 106.941 19.379 106.489 19.4354L106.986 23.4046C107.686 23.317 108.36 23.1625 108.975 22.9094L107.452 19.2106ZM106.473 19.4375L105.933 19.5095L106.462 23.4745L107.002 23.4025L106.473 19.4375ZM105.41 19.6537L105.158 19.7617L106.733 23.4383L106.985 23.3303L105.41 19.6537ZM105.945 19.6H104.685V23.6H105.945V19.6ZM102.73 22.0191C102.833 22.4996 102.995 22.9882 103.196 23.4775L106.895 21.9545C106.76 21.6278 106.682 21.3724 106.641 21.1809L102.73 22.0191ZM103.33 23.745L103.438 23.925L106.868 21.867L106.76 21.687L103.33 23.745ZM103.518 24.0476C104.934 26.0573 106.755 27.4464 109.021 27.8212C111.244 28.1889 113.521 27.5162 115.746 26.2023L113.713 22.7577C111.954 23.7958 110.643 24.0351 109.674 23.8748C108.747 23.7216 107.773 23.1427 106.789 21.7444L103.518 24.0476ZM115.402 26.3635C115.482 26.3349 115.632 26.3 115.881 26.3V22.3C115.267 22.3 114.649 22.3851 114.057 22.5965L115.402 26.3635ZM115.382 26.2366C115.586 26.2893 115.85 26.427 116.158 26.8615L119.42 24.5465C118.673 23.493 117.665 22.6947 116.381 22.3634L115.382 26.2366ZM115.81 25.9868C115.877 26.4588 115.822 26.9269 115.616 27.4265L119.315 28.9495C119.781 27.8171 119.942 26.6292 119.769 25.4212L115.81 25.9868ZM116.243 26.6054C114.246 28.1483 112.9 28.5906 112.093 28.565L111.966 32.563C114.183 32.6334 116.461 31.4917 118.688 29.7706L116.243 26.6054ZM112.094 28.565L110.978 28.529L110.849 32.527L111.965 32.563L112.094 28.565ZM110.443 28.5841L108.211 29.1241L109.152 33.0119L111.384 32.4719L110.443 28.5841ZM108.977 29.0899C107.865 28.9239 107.071 28.4438 106.465 27.636L103.265 30.036C104.532 31.7242 106.282 32.7321 108.386 33.0461L108.977 29.0899ZM106.465 27.636C105.422 26.2448 103.915 24.6724 102 22.929L99.3072 25.887C101.136 27.5516 102.437 28.9312 103.265 30.036L106.465 27.636ZM102.546 23.7602C100.96 19.1278 101.714 14.5788 105.082 9.91981L101.841 7.57618C97.8172 13.1412 96.6991 19.0322 98.7613 25.0558L102.546 23.7602ZM104.998 10.0284C105.098 9.90879 105.321 9.69132 105.741 9.376L103.341 6.176C102.802 6.58068 102.305 7.0112 101.925 7.46763L104.998 10.0284ZM106.103 9.02539L106.247 8.84539L103.124 6.34661L102.98 6.52661L106.103 9.02539ZM105.634 9.35694L106.102 9.10494L104.205 5.58306L103.737 5.83506L105.634 9.35694ZM106.568 8.75821L106.748 8.57821L103.919 5.74978L103.739 5.92978L106.568 8.75821ZM106.401 8.85498C106.679 8.67987 107.158 8.45023 107.907 8.18598L106.576 4.41402C105.693 4.72577 104.9 5.07213 104.265 5.47302L106.401 8.85498ZM112.4 15.0612C113.049 13.5021 113.447 11.9695 113.329 10.5778C113.2 9.04472 112.439 7.74571 111.035 6.98795L109.136 10.508C109.238 10.5634 109.262 10.6022 109.27 10.6149C109.282 10.6335 109.327 10.7125 109.344 10.9142C109.382 11.3705 109.258 12.2019 108.707 13.5228L112.4 15.0612ZM109.38 6.87653C105.473 8.34909 103.057 11.6693 101.917 16.2576L105.798 17.2224C106.722 13.5067 108.458 11.4989 110.791 10.6195L109.38 6.87653ZM102.055 15.8724C101.583 16.854 101.399 17.9073 101.507 18.991L105.488 18.593C105.452 18.2367 105.508 17.922 105.659 17.6076L102.055 15.8724ZM103.963 20.737L107.419 19.909L106.487 16.019L103.031 16.847L103.963 20.737ZM107.885 19.7338C109.663 18.7982 111.106 17.2677 112.271 15.3175L108.836 13.2665C107.937 14.7723 106.98 15.6898 106.022 16.1942L107.885 19.7338ZM122.867 10.944L122.26 9.03815L121.704 9.21515L121.33 9.66363L122.867 10.944ZM123.659 10.692V8.692H123.348L123.052 8.78615L123.659 10.692ZM124.019 10.62L123.627 8.65884L123.447 8.69485L123.276 8.76305L124.019 10.62ZM124.559 10.548L124.863 8.57126L124.712 8.548H124.559V10.548ZM125.027 10.62L125.356 8.64721L125.343 8.64516L125.331 8.64325L125.027 10.62ZM125.747 11.952H127.747V11.8932L127.743 11.8346L125.747 11.952ZM125.675 12.78L123.702 12.4512L123.675 12.6145V12.78H125.675ZM125.171 14.4L123.274 13.7675L123.256 13.8202L123.241 13.8738L125.171 14.4ZM124.811 15.264L123.05 14.3158L122.937 14.5258L122.876 14.7566L124.811 15.264ZM124.235 17.46L122.3 16.9526L122.289 16.9949L122.28 17.0377L124.235 17.46ZM123.263 21.96L121.308 21.5377L121.305 21.5492L121.303 21.5608L123.263 21.96ZM124.379 28.152L123.519 29.9577L123.528 29.9622L123.538 29.9666L124.379 28.152ZM128.339 28.872L128.375 26.8723L128.368 26.8722L128.339 28.872ZM132.875 28.44L132.592 26.4601L132.553 26.4656L132.515 26.4727L132.875 28.44ZM133.955 28.224L135.306 26.7497L134.513 26.0228L133.47 26.2837L133.955 28.224ZM134.387 28.62L135.801 27.2058L135.77 27.1751L135.738 27.1457L134.387 28.62ZM134.639 29.376H136.639V29.2009L136.608 29.0284L134.639 29.376ZM134.495 29.916L136.108 31.0987L136.235 30.9251L136.322 30.7283L134.495 29.916ZM134.099 30.456L134.946 32.2676L135.409 32.051L135.712 31.6387L134.099 30.456ZM120.419 32.328L119.786 34.2254L119.801 34.2304L119.817 34.2352L120.419 32.328ZM119.519 31.248L117.52 31.1847L117.51 31.5026L117.599 31.808L119.519 31.248ZM119.771 23.292L117.773 23.2012L117.772 23.2149L117.772 23.2287L119.771 23.292ZM120.239 20.016L118.272 19.6511L118.27 19.6622L118.268 19.6733L120.239 20.016ZM121.427 14.508L123.359 15.0255L123.359 15.0233L121.427 14.508ZM123.473 12.8499L124.265 12.5979L123.052 8.78615L122.26 9.03815L123.473 12.8499ZM123.659 12.692C124.052 12.692 124.424 12.6121 124.762 12.4769L123.276 8.76305C123.374 8.72389 123.505 8.692 123.659 8.692V12.692ZM124.411 12.5812C124.502 12.5629 124.563 12.5532 124.598 12.5485C124.615 12.5462 124.621 12.5458 124.617 12.5461C124.614 12.5464 124.593 12.548 124.559 12.548V8.548C124.232 8.548 123.892 8.60584 123.627 8.65884L124.411 12.5812ZM124.255 12.5247L124.723 12.5967L125.331 8.64325L124.863 8.57126L124.255 12.5247ZM124.698 12.5928C124.494 12.5587 124.282 12.4723 124.097 12.33C123.919 12.1936 123.82 12.0479 123.771 11.958C123.692 11.8118 123.734 11.7935 123.75 12.0694L127.743 11.8346C127.712 11.2945 127.609 10.6462 127.29 10.056C126.927 9.38445 126.279 8.80102 125.356 8.64721L124.698 12.5928ZM123.747 11.952C123.747 12.095 123.734 12.2606 123.702 12.4512L127.648 13.1088C127.712 12.7234 127.747 12.337 127.747 11.952H123.747ZM123.675 12.78C123.675 12.6243 123.694 12.5068 123.698 12.4812C123.705 12.4372 123.712 12.4059 123.715 12.3951C123.72 12.373 123.721 12.3685 123.715 12.3923C123.703 12.4367 123.679 12.5176 123.639 12.6449C123.561 12.8954 123.44 13.2673 123.274 13.7675L127.068 15.0325C127.237 14.5247 127.369 14.1226 127.459 13.8331C127.503 13.6904 127.542 13.5598 127.572 13.4512C127.586 13.3985 127.604 13.3321 127.619 13.2628C127.62 13.2582 127.675 13.0388 127.675 12.78H123.675ZM123.241 13.8738C123.219 13.9556 123.166 14.1006 123.05 14.3158L126.572 16.2122C126.792 15.8034 126.979 15.3724 127.1 14.9262L123.241 13.8738ZM122.876 14.7566L122.3 16.9526L126.169 17.9674L126.745 15.7714L122.876 14.7566ZM122.28 17.0377L121.308 21.5377L125.218 22.3823L126.19 17.8823L122.28 17.0377ZM121.303 21.5608C121.014 22.9777 120.867 24.3717 120.867 25.74H124.867C124.867 24.6603 124.983 23.5343 125.223 22.3592L121.303 21.5608ZM120.867 25.74C120.867 26.608 121.064 27.4751 121.55 28.2513C122.038 29.0287 122.733 29.5836 123.519 29.9577L125.239 26.3463C125.016 26.2404 124.956 26.1533 124.939 26.1267C124.922 26.0989 124.867 26 124.867 25.74H120.867ZM123.538 29.9666C124.875 30.5862 126.507 30.8457 128.31 30.8718L128.368 26.8722C126.859 26.8503 125.851 26.6298 125.22 26.3374L123.538 29.9666ZM128.303 30.8717C129.789 30.8987 131.438 30.7363 133.235 30.4073L132.515 26.4727C130.903 26.7677 129.529 26.8933 128.375 26.8723L128.303 30.8717ZM133.158 30.4199C133.572 30.3607 134 30.2743 134.44 30.1643L133.47 26.2837C133.142 26.3657 132.85 26.4233 132.592 26.4601L133.158 30.4199ZM132.603 29.6983L133.035 30.0943L135.738 27.1457L135.306 26.7497L132.603 29.6983ZM132.973 30.0342C132.883 29.9448 132.819 29.8613 132.775 29.7979C132.731 29.7339 132.7 29.679 132.68 29.6401C132.642 29.5655 132.626 29.5168 132.625 29.5135C132.623 29.51 132.642 29.5691 132.669 29.7236L136.608 29.0284C136.564 28.7749 136.504 28.504 136.419 28.2485C136.356 28.0579 136.192 27.597 135.801 27.2058L132.973 30.0342ZM132.639 29.376C132.639 29.2318 132.662 29.1354 132.67 29.1037C132.68 29.0693 132.683 29.0676 132.667 29.1037L136.322 30.7283C136.468 30.4003 136.639 29.9231 136.639 29.376H132.639ZM132.882 28.7333L132.486 29.2733L135.712 31.6387L136.108 31.0987L132.882 28.7333ZM133.252 28.6444C130.598 29.8854 127.361 30.544 123.479 30.544V34.544C127.805 34.544 131.647 33.8106 134.946 32.2676L133.252 28.6444ZM123.479 30.544H122.723V34.544H123.479V30.544ZM122.723 30.544C121.656 30.544 121.159 30.4643 121.021 30.4208L119.817 34.2352C120.591 34.4797 121.63 34.544 122.723 34.544V30.544ZM121.051 30.4306C121.117 30.4525 121.187 30.4861 121.254 30.5322C121.32 30.5781 121.371 30.6272 121.406 30.6696C121.474 30.7511 121.467 30.7832 121.439 30.688L117.599 31.808C117.886 32.7929 118.541 33.8103 119.786 34.2254L121.051 30.4306ZM121.518 31.3113L121.77 23.3553L117.772 23.2287L117.52 31.1847L121.518 31.3113ZM121.769 23.3828C121.786 23.0046 121.917 22.0412 122.209 20.3587L118.268 19.6733C117.985 21.3028 117.804 22.5234 117.773 23.2012L121.769 23.3828ZM122.205 20.3809C122.633 18.0741 123.018 16.2963 123.359 15.0255L119.495 13.9905C119.115 15.4077 118.708 17.3019 118.272 19.6511L122.205 20.3809ZM123.359 15.0233C123.587 14.1706 123.802 13.5083 124.001 13.0162C124.21 12.4988 124.358 12.2791 124.403 12.2244L121.33 9.66363C120.896 10.1849 120.563 10.8472 120.293 11.5178C120.011 12.2137 119.747 13.0454 119.494 13.9927L123.359 15.0233Z" fill="black" mask="url(#path-1-outside-1_394_1368)"></path><g clip-path="url(#clip0_394_1368)"><path fill-rule="evenodd" clip-rule="evenodd" d="M132.099 49.0948C132.099 49.0948 139.237 62.2821 140.551 61.8185C141.865 61.3549 139.882 48.6816 139.882 48.6816C139.882 48.6816 153.84 30.4083 153.867 28.5162C153.894 26.6242 135.939 47.2645 132.099 49.0948Z" fill="#0082D2" stroke="black" stroke-width="2" stroke-linecap="round" stroke-linejoin="round"></path><path fill-rule="evenodd" clip-rule="evenodd" d="M140.55 61.8105C140.55 61.8105 146.18 53.8321 147.485 49.7907L144.416 45.5303L139.883 48.6817C139.883 48.6817 141.942 59.268 140.551 61.8185L140.55 61.8105Z" fill="#00578B" stroke="black" stroke-width="2" stroke-linecap="round" stroke-linejoin="round"></path><path fill-rule="evenodd" clip-rule="evenodd" d="M131.483 49.3432C131.483 49.3432 117.177 51.7878 118.738 49.6535C120.3 47.5193 157.732 18.2555 159.314 18.6236C160.895 18.9918 166.143 45.2058 163.371 46.9685C160.599 48.7312 139.882 48.6817 139.882 48.6817C139.882 48.6817 153.656 30.7909 153.867 28.5163C154.077 26.2417 133.65 49.4777 131.483 49.3432Z" fill="#0094FF" stroke="black" stroke-width="2" stroke-linecap="round" stroke-linejoin="round"></path><path d="M127.83 47.2355C127.83 47.2355 124.371 48.1718 124.894 47.4486C125.418 46.7254 147.247 29.4284 158.441 21.5505" stroke="#55BEFF" stroke-width="3" stroke-linecap="round" stroke-linejoin="round"></path><path d="M152.834 36.3645C152.834 36.3645 157.519 28.7547 156.768 27.749" stroke="#55BEFF" stroke-width="3" stroke-linecap="round" stroke-linejoin="round"></path></g><defs><clipPath id="clip0_394_1368"><rect width="48.7805" height="40" fill="white" transform="translate(113.045 27.6001) rotate(-11.9962)"></rect></clipPath></defs></svg>