<svg xmlns="http://www.w3.org/2000/svg" width="111" height="67" viewBox="0 0 111 67" fill="none"><mask id="path-1-outside-1_394_1368" maskUnits="userSpaceOnUse" x="2" y="3" width="83" height="36" fill="black"><rect fill="white" x="2" y="3" width="83" height="36"></rect><path d="M17.976 10.008C19.248 10.2 20.832 10.968 22.728 12.312C24.816 13.8 25.788 15.048 25.644 16.056C25.62 16.248 25.512 16.416 25.32 16.56C23.352 15.672 21.528 15.084 19.848 14.796C19.392 14.724 18.912 14.688 18.408 14.688C18.24 14.688 18.036 14.7 17.796 14.724C17.7 14.7 17.58 14.736 17.436 14.832C13.86 14.328 11.496 14.568 10.344 15.552C9.288 16.44 8.508 18.72 8.004 22.392C7.596 25.2 8.7 27.504 11.316 29.304C12.684 30.24 15.228 31.332 18.948 32.58C22.38 33.732 24.06 34.644 23.988 35.316L22.872 36.9H19.704C16.152 36.396 13.164 35.472 10.74 34.128C7.572 32.4 5.616 30.072 4.872 27.144C4.368 25.08 4.248 23.028 4.512 20.988C4.944 17.604 6.444 14.832 9.012 12.672C11.676 10.44 14.664 9.552 17.976 10.008ZM39.1966 7.56C38.9566 6.912 39.5326 6.24 40.9246 5.544C41.4526 5.496 42.0646 5.544 42.7606 5.688C43.0966 6.048 43.3246 6.444 43.4446 6.876L43.3726 7.344V8.244L43.2646 8.388L43.0846 11.268L43.0126 11.808L42.9046 13.68C42.8566 13.728 42.8326 13.824 42.8326 13.968L42.6526 17.64L42.5806 17.856V19.62C44.8366 19.668 45.4006 20.256 44.2726 21.384C43.6726 22.296 43.0126 22.668 42.2926 22.5L42.5806 25.524C43.0366 27.9 41.8726 29.664 39.0886 30.816C38.4406 30.864 37.8526 30.696 37.3246 30.312L37.0006 29.196L37.4686 24.408L37.7926 22.716L35.0566 23.076L32.1766 23.148L33.0766 25.596L33.5446 26.964C33.8566 27.684 33.8926 28.416 33.6526 29.16C33.3886 29.736 33.0766 30.288 32.7166 30.816C31.8526 31.272 30.8686 31.368 29.7646 31.104C29.5726 30.912 29.3686 30.492 29.1526 29.844L29.0446 29.268L28.7926 27.972L28.7206 27.396L28.6126 27.108L28.4326 25.452L28.3606 25.092V24.48C28.2886 24.192 28.2526 23.844 28.2526 23.436C27.7486 23.388 27.2326 23.196 26.7046 22.86C26.5366 21.612 27.0286 20.484 28.1806 19.476V19.044C28.1806 18.636 28.2046 18.132 28.2526 17.532V17.028L28.3606 16.884V16.2L28.5406 15.156V14.868L28.8646 12.996L28.9726 12.492L29.0446 12.024C29.0446 11.832 29.1046 11.58 29.2246 11.268C29.2966 11.028 29.3566 10.788 29.4046 10.548L29.4766 10.224C29.5966 9.936 29.8006 9.564 30.0886 9.108L30.1966 8.964C30.8206 8.268 31.6606 7.728 32.7166 7.344C33.5326 7.248 34.2046 7.488 34.7326 8.064C34.8526 8.472 34.7086 8.808 34.3006 9.072L34.4806 9.9L34.0846 10.584C33.8926 10.968 33.7726 11.196 33.7246 11.268C33.6766 11.34 33.5446 11.664 33.3286 12.24V12.78C33.3286 13.476 33.2446 14.04 33.0766 14.472L32.6086 19.476C33.9526 19.572 35.0326 19.596 35.8486 19.548C36.2566 19.596 37.0006 19.596 38.0806 19.548C38.1766 18.516 38.2246 17.772 38.2246 17.316C38.8486 13.836 39.1726 10.584 39.1966 7.56ZM58.3025 10.764C59.8625 10.86 61.1825 12.408 62.2625 15.408C63.4625 18.72 64.1945 21.324 64.4585 23.22L66.1145 34.668L65.8265 35.46C65.7065 35.82 65.5385 36.072 65.3225 36.216C65.1305 36.384 64.9265 36.492 64.7105 36.54L64.1705 36.576C63.8105 36.552 63.5585 36.504 63.4145 36.432L62.8025 36.216L62.9105 34.776L63.0185 33.372C63.1625 31.932 63.0425 30.864 62.6585 30.168C62.2985 29.448 61.4705 29.04 60.1745 28.944C56.5025 28.68 54.1865 28.728 53.2265 29.088C52.2905 29.424 51.5225 30.252 50.9225 31.572C50.3465 32.868 49.3745 34.02 48.0065 35.028L47.3585 35.172H46.6385C46.3025 35.148 46.0745 35.028 45.9545 34.812C45.9065 34.62 45.8945 34.368 45.9185 34.056C45.9665 33.432 46.0745 32.808 46.2425 32.184C46.4585 31.416 46.6505 30.828 46.8185 30.42C47.4185 29.148 48.5225 26.172 50.1305 21.492C51.4265 17.7 52.6625 14.856 53.8385 12.96C54.8465 11.376 56.3345 10.644 58.3025 10.764ZM53.3705 25.452L54.6665 25.308H55.4585L57.5465 25.632C57.9065 25.68 58.4105 25.596 59.0585 25.38C59.6105 25.212 60.3545 24.792 61.2905 24.12C61.2185 22.536 60.8585 20.58 60.2105 18.252C59.5865 15.996 59.0705 14.832 58.6625 14.76L58.2665 14.688H58.0505C56.7065 14.592 55.7825 16.032 55.2785 19.008C54.7745 21.984 54.1385 24.132 53.3705 25.452ZM74.4791 9.684C74.8391 7.908 75.6071 6.636 76.7831 5.868C78.1271 5.58 78.7151 6.588 78.5471 8.892L81.1031 8.424L81.2831 8.352L81.8951 8.208H82.2551C82.4711 8.424 82.6511 8.7 82.7951 9.036C82.9631 10.188 82.7471 11.316 82.1471 12.42C81.6911 12.684 81.1031 12.888 80.3831 13.032C79.8071 13.176 79.3391 13.248 78.9791 13.248C78.8591 13.296 78.6911 13.32 78.4751 13.32L78.2951 13.536C78.3431 13.896 78.3311 14.304 78.2591 14.76C78.2831 15.048 78.2591 15.372 78.1871 15.732V16.416C78.1391 16.704 78.1151 17.052 78.1151 17.46L78.0071 18.432V19.116C77.9351 19.716 77.8991 20.22 77.8991 20.628L77.8271 20.988L77.7551 21.96L77.7191 22.356C77.7191 22.812 77.6471 23.436 77.5031 24.228C77.4791 25.092 77.3471 25.788 77.1071 26.316C76.0031 28.644 74.8271 29.232 73.5791 28.08C73.4591 27.672 73.3991 27.216 73.3991 26.712C73.4711 26.352 73.5071 25.896 73.5071 25.344L73.5791 24.84C73.6031 24.384 73.6391 24 73.6871 23.688V23.4L73.8671 21.06C73.9631 20.676 74.0111 20.184 74.0111 19.584L74.0471 19.188V18.432L74.1191 18.216V17.676L74.1911 17.388V16.92C74.2151 16.536 74.2271 16.044 74.2271 15.444C74.2751 15.036 74.2991 14.532 74.2991 13.932L74.3711 12.6C73.3391 12.792 72.4871 12.78 71.8151 12.564L69.9791 12.744L69.0791 12.564L68.4671 12.312L67.9991 12.276L67.5671 11.952C67.3991 11.832 67.2311 11.484 67.0631 10.908C67.1111 10.404 67.2911 9.972 67.6031 9.612C67.8431 9.228 68.0831 9 68.3231 8.928L68.8991 8.964L69.5111 9.216L70.2311 9.432L74.4791 9.684Z"></path></mask><path d="M17.976 10.008C19.248 10.2 20.832 10.968 22.728 12.312C24.816 13.8 25.788 15.048 25.644 16.056C25.62 16.248 25.512 16.416 25.32 16.56C23.352 15.672 21.528 15.084 19.848 14.796C19.392 14.724 18.912 14.688 18.408 14.688C18.24 14.688 18.036 14.7 17.796 14.724C17.7 14.7 17.58 14.736 17.436 14.832C13.86 14.328 11.496 14.568 10.344 15.552C9.288 16.44 8.508 18.72 8.004 22.392C7.596 25.2 8.7 27.504 11.316 29.304C12.684 30.24 15.228 31.332 18.948 32.58C22.38 33.732 24.06 34.644 23.988 35.316L22.872 36.9H19.704C16.152 36.396 13.164 35.472 10.74 34.128C7.572 32.4 5.616 30.072 4.872 27.144C4.368 25.08 4.248 23.028 4.512 20.988C4.944 17.604 6.444 14.832 9.012 12.672C11.676 10.44 14.664 9.552 17.976 10.008ZM39.1966 7.56C38.9566 6.912 39.5326 6.24 40.9246 5.544C41.4526 5.496 42.0646 5.544 42.7606 5.688C43.0966 6.048 43.3246 6.444 43.4446 6.876L43.3726 7.344V8.244L43.2646 8.388L43.0846 11.268L43.0126 11.808L42.9046 13.68C42.8566 13.728 42.8326 13.824 42.8326 13.968L42.6526 17.64L42.5806 17.856V19.62C44.8366 19.668 45.4006 20.256 44.2726 21.384C43.6726 22.296 43.0126 22.668 42.2926 22.5L42.5806 25.524C43.0366 27.9 41.8726 29.664 39.0886 30.816C38.4406 30.864 37.8526 30.696 37.3246 30.312L37.0006 29.196L37.4686 24.408L37.7926 22.716L35.0566 23.076L32.1766 23.148L33.0766 25.596L33.5446 26.964C33.8566 27.684 33.8926 28.416 33.6526 29.16C33.3886 29.736 33.0766 30.288 32.7166 30.816C31.8526 31.272 30.8686 31.368 29.7646 31.104C29.5726 30.912 29.3686 30.492 29.1526 29.844L29.0446 29.268L28.7926 27.972L28.7206 27.396L28.6126 27.108L28.4326 25.452L28.3606 25.092V24.48C28.2886 24.192 28.2526 23.844 28.2526 23.436C27.7486 23.388 27.2326 23.196 26.7046 22.86C26.5366 21.612 27.0286 20.484 28.1806 19.476V19.044C28.1806 18.636 28.2046 18.132 28.2526 17.532V17.028L28.3606 16.884V16.2L28.5406 15.156V14.868L28.8646 12.996L28.9726 12.492L29.0446 12.024C29.0446 11.832 29.1046 11.58 29.2246 11.268C29.2966 11.028 29.3566 10.788 29.4046 10.548L29.4766 10.224C29.5966 9.936 29.8006 9.564 30.0886 9.108L30.1966 8.964C30.8206 8.268 31.6606 7.728 32.7166 7.344C33.5326 7.248 34.2046 7.488 34.7326 8.064C34.8526 8.472 34.7086 8.808 34.3006 9.072L34.4806 9.9L34.0846 10.584C33.8926 10.968 33.7726 11.196 33.7246 11.268C33.6766 11.34 33.5446 11.664 33.3286 12.24V12.78C33.3286 13.476 33.2446 14.04 33.0766 14.472L32.6086 19.476C33.9526 19.572 35.0326 19.596 35.8486 19.548C36.2566 19.596 37.0006 19.596 38.0806 19.548C38.1766 18.516 38.2246 17.772 38.2246 17.316C38.8486 13.836 39.1726 10.584 39.1966 7.56ZM58.3025 10.764C59.8625 10.86 61.1825 12.408 62.2625 15.408C63.4625 18.72 64.1945 21.324 64.4585 23.22L66.1145 34.668L65.8265 35.46C65.7065 35.82 65.5385 36.072 65.3225 36.216C65.1305 36.384 64.9265 36.492 64.7105 36.54L64.1705 36.576C63.8105 36.552 63.5585 36.504 63.4145 36.432L62.8025 36.216L62.9105 34.776L63.0185 33.372C63.1625 31.932 63.0425 30.864 62.6585 30.168C62.2985 29.448 61.4705 29.04 60.1745 28.944C56.5025 28.68 54.1865 28.728 53.2265 29.088C52.2905 29.424 51.5225 30.252 50.9225 31.572C50.3465 32.868 49.3745 34.02 48.0065 35.028L47.3585 35.172H46.6385C46.3025 35.148 46.0745 35.028 45.9545 34.812C45.9065 34.62 45.8945 34.368 45.9185 34.056C45.9665 33.432 46.0745 32.808 46.2425 32.184C46.4585 31.416 46.6505 30.828 46.8185 30.42C47.4185 29.148 48.5225 26.172 50.1305 21.492C51.4265 17.7 52.6625 14.856 53.8385 12.96C54.8465 11.376 56.3345 10.644 58.3025 10.764ZM53.3705 25.452L54.6665 25.308H55.4585L57.5465 25.632C57.9065 25.68 58.4105 25.596 59.0585 25.38C59.6105 25.212 60.3545 24.792 61.2905 24.12C61.2185 22.536 60.8585 20.58 60.2105 18.252C59.5865 15.996 59.0705 14.832 58.6625 14.76L58.2665 14.688H58.0505C56.7065 14.592 55.7825 16.032 55.2785 19.008C54.7745 21.984 54.1385 24.132 53.3705 25.452ZM74.4791 9.684C74.8391 7.908 75.6071 6.636 76.7831 5.868C78.1271 5.58 78.7151 6.588 78.5471 8.892L81.1031 8.424L81.2831 8.352L81.8951 8.208H82.2551C82.4711 8.424 82.6511 8.7 82.7951 9.036C82.9631 10.188 82.7471 11.316 82.1471 12.42C81.6911 12.684 81.1031 12.888 80.3831 13.032C79.8071 13.176 79.3391 13.248 78.9791 13.248C78.8591 13.296 78.6911 13.32 78.4751 13.32L78.2951 13.536C78.3431 13.896 78.3311 14.304 78.2591 14.76C78.2831 15.048 78.2591 15.372 78.1871 15.732V16.416C78.1391 16.704 78.1151 17.052 78.1151 17.46L78.0071 18.432V19.116C77.9351 19.716 77.8991 20.22 77.8991 20.628L77.8271 20.988L77.7551 21.96L77.7191 22.356C77.7191 22.812 77.6471 23.436 77.5031 24.228C77.4791 25.092 77.3471 25.788 77.1071 26.316C76.0031 28.644 74.8271 29.232 73.5791 28.08C73.4591 27.672 73.3991 27.216 73.3991 26.712C73.4711 26.352 73.5071 25.896 73.5071 25.344L73.5791 24.84C73.6031 24.384 73.6391 24 73.6871 23.688V23.4L73.8671 21.06C73.9631 20.676 74.0111 20.184 74.0111 19.584L74.0471 19.188V18.432L74.1191 18.216V17.676L74.1911 17.388V16.92C74.2151 16.536 74.2271 16.044 74.2271 15.444C74.2751 15.036 74.2991 14.532 74.2991 13.932L74.3711 12.6C73.3391 12.792 72.4871 12.78 71.8151 12.564L69.9791 12.744L69.0791 12.564L68.4671 12.312L67.9991 12.276L67.5671 11.952C67.3991 11.832 67.2311 11.484 67.0631 10.908C67.1111 10.404 67.2911 9.972 67.6031 9.612C67.8431 9.228 68.0831 9 68.3231 8.928L68.8991 8.964L69.5111 9.216L70.2311 9.432L74.4791 9.684Z" fill="#0094FF"></path><path d="M17.976 10.008L18.2745 8.0304L18.2617 8.02846L18.2488 8.02669L17.976 10.008ZM22.728 12.312L23.8887 10.6833L23.8846 10.6804L22.728 12.312ZM25.644 16.056L23.6641 15.7732L23.6616 15.7905L23.6594 15.8079L25.644 16.056ZM25.32 16.56L24.4974 18.383L25.5746 18.8691L26.52 18.16L25.32 16.56ZM19.848 14.796L20.1859 12.8248L20.1729 12.8225L20.1599 12.8205L19.848 14.796ZM17.796 14.724L17.3109 16.6643L17.6486 16.7487L17.995 16.7141L17.796 14.724ZM17.436 14.832L17.1569 16.8124L17.9114 16.9188L18.5454 16.4961L17.436 14.832ZM10.344 15.552L11.6312 17.0827L11.6371 17.0778L11.643 17.0727L10.344 15.552ZM8.004 22.392L9.98322 22.6796L9.98435 22.6718L9.98542 22.664L8.004 22.392ZM11.316 29.304L10.1823 30.9516L10.1866 30.9546L11.316 29.304ZM18.948 32.58L19.5844 30.684L19.5841 30.6839L18.948 32.58ZM23.988 35.316L25.623 36.4679L25.9214 36.0443L25.9766 35.5291L23.988 35.316ZM22.872 36.9V38.9H23.9094L24.507 38.0519L22.872 36.9ZM19.704 36.9L19.423 38.8802L19.5628 38.9H19.704V36.9ZM10.74 34.128L11.7098 32.3788L11.6977 32.3722L10.74 34.128ZM4.872 27.144L2.92909 27.6184L2.9313 27.6275L2.9336 27.6365L4.872 27.144ZM4.512 20.988L6.49546 21.2447L6.4959 21.2413L4.512 20.988ZM9.012 12.672L7.72756 11.139L7.72461 11.1414L9.012 12.672ZM17.6775 11.9856C18.4821 12.107 19.7561 12.6569 21.5714 13.9436L23.8846 10.6804C21.9079 9.27912 20.0139 8.29295 18.2745 8.0304L17.6775 11.9856ZM21.5673 13.9407C22.5384 14.6328 23.1285 15.1865 23.4451 15.5929C23.7784 16.0208 23.6258 16.0414 23.6641 15.7732L27.6239 16.3388C27.8062 15.0626 27.2396 13.9552 26.6009 13.1351C25.9455 12.2935 25.0056 11.4792 23.8887 10.6833L21.5673 13.9407ZM23.6594 15.8079C23.6858 15.5973 23.7602 15.4039 23.8626 15.2445C23.9603 15.0925 24.063 15.0027 24.12 14.96L26.52 18.16C27.035 17.7738 27.5218 17.1583 27.6286 16.3041L23.6594 15.8079ZM26.1426 14.737C24.059 13.7968 22.0706 13.1478 20.1859 12.8248L19.5101 16.7672C20.9854 17.0202 22.645 17.5472 24.4974 18.383L26.1426 14.737ZM20.1599 12.8205C19.5919 12.7308 19.007 12.688 18.408 12.688V16.688C18.817 16.688 19.1921 16.7172 19.5361 16.7715L20.1599 12.8205ZM18.408 12.688C18.1519 12.688 17.8773 12.7059 17.597 12.7339L17.995 16.7141C18.1947 16.6941 18.3281 16.688 18.408 16.688V12.688ZM18.2811 12.7837C17.3459 12.5499 16.6097 12.9791 16.3266 13.1679L18.5454 16.4961C18.5106 16.5193 18.3952 16.5927 18.2087 16.6487C18.0145 16.7069 17.6934 16.7599 17.3109 16.6643L18.2811 12.7837ZM17.7151 12.8516C15.841 12.5874 14.1811 12.5019 12.779 12.6442C11.4051 12.7837 10.0608 13.1636 9.04503 14.0313L11.643 17.0727C11.7792 16.9564 12.1929 16.7243 13.183 16.6238C14.1449 16.5261 15.455 16.5726 17.1569 16.8124L17.7151 12.8516ZM9.0568 14.0213C8.1127 14.8152 7.50574 16.0206 7.07467 17.2806C6.62702 18.5892 6.28383 20.2166 6.02258 22.12L9.98542 22.664C10.2282 20.8954 10.527 19.5468 10.8593 18.5754C11.2083 17.5554 11.5193 17.1768 11.6312 17.0827L9.0568 14.0213ZM6.02478 22.1044C5.77027 23.8561 5.98011 25.5412 6.72237 27.0902C7.45796 28.6254 8.65558 29.9011 10.1823 30.9516L12.4497 27.6564C11.3604 26.9069 10.698 26.1306 10.3296 25.3618C9.96789 24.6068 9.82974 23.7359 9.98322 22.6796L6.02478 22.1044ZM10.1866 30.9546C11.8068 32.0631 14.59 33.2275 18.3119 34.4761L19.5841 30.6839C15.866 29.4365 13.5612 28.4169 12.4454 27.6534L10.1866 30.9546ZM18.3116 34.476C19.9965 35.0416 21.1429 35.5139 21.8278 35.8857C21.9923 35.975 22.1132 36.0495 22.1985 36.108C22.2866 36.1684 22.3159 36.1976 22.31 36.1918C22.3087 36.1906 22.2261 36.1113 22.144 35.9472C22.055 35.769 21.9597 35.4732 21.9994 35.1029L25.9766 35.5291C26.0928 34.4446 25.4672 33.6872 25.117 33.3422C24.7218 32.9529 24.2237 32.635 23.7362 32.3703C22.7411 31.8301 21.3315 31.2704 19.5844 30.684L18.3116 34.476ZM22.353 34.1641L21.237 35.7481L24.507 38.0519L25.623 36.4679L22.353 34.1641ZM22.872 34.9H19.704V38.9H22.872V34.9ZM19.985 34.9198C16.6071 34.4405 13.8676 33.5753 11.7098 32.3789L9.77019 35.8771C12.4604 37.3687 15.6969 38.3515 19.423 38.8802L19.985 34.9198ZM11.6977 32.3722C8.91502 30.8544 7.39095 28.9362 6.8104 26.6515L2.9336 27.6365C3.84105 31.2078 6.22898 33.9456 9.7823 35.8838L11.6977 32.3722ZM6.81491 26.6696C6.36735 24.8367 6.26409 23.0325 6.49546 21.2447L2.52854 20.7313C2.23191 23.0235 2.36865 25.3233 2.92909 27.6184L6.81491 26.6696ZM6.4959 21.2413C6.86548 18.3462 8.12271 16.0334 10.2994 14.2026L7.72461 11.1414C4.76529 13.6306 3.02252 16.8618 2.5281 20.7347L6.4959 21.2413ZM10.2964 14.205C12.5473 12.3192 14.9749 11.6137 17.7032 11.9893L18.2488 8.02669C14.3531 7.49033 10.8048 8.56077 7.72756 11.139L10.2964 14.205ZM39.1966 7.56L41.1965 7.57587L41.1994 7.20921L41.0721 6.86537L39.1966 7.56ZM40.9246 5.544L40.7435 3.55221L40.3677 3.58638L40.0302 3.75514L40.9246 5.544ZM42.7606 5.688L44.2227 4.32336L43.7887 3.85835L43.1658 3.72948L42.7606 5.688ZM43.4446 6.876L45.4213 7.18011L45.4867 6.75507L45.3716 6.34071L43.4446 6.876ZM43.3726 7.344L41.3959 7.03989L41.3726 7.19105V7.344H43.3726ZM43.3726 8.244L44.9726 9.444L45.3726 8.91067V8.244H43.3726ZM43.2646 8.388L41.6646 7.188L41.3058 7.6664L41.2685 8.26324L43.2646 8.388ZM43.0846 11.268L45.0671 11.5323L45.0763 11.4628L45.0807 11.3928L43.0846 11.268ZM43.0126 11.808L41.0301 11.5437L41.0202 11.618L41.0159 11.6928L43.0126 11.808ZM42.9046 13.68L44.3188 15.0942L44.8574 14.5556L44.9013 13.7952L42.9046 13.68ZM42.8326 13.968L44.8302 14.0659L44.8326 14.017V13.968H42.8326ZM42.6526 17.64L44.55 18.2725L44.6368 18.0121L44.6502 17.7379L42.6526 17.64ZM42.5806 17.856L40.6832 17.2235L40.5806 17.5314V17.856H42.5806ZM42.5806 19.62H40.5806V21.5779L42.5381 21.6195L42.5806 19.62ZM44.2726 21.384L42.8584 19.9698L42.714 20.1142L42.6018 20.2848L44.2726 21.384ZM42.2926 22.5L42.7471 20.5523L40.0378 19.9202L40.3016 22.6896L42.2926 22.5ZM42.5806 25.524L40.5896 25.7136L40.5986 25.8079L40.6164 25.901L42.5806 25.524ZM39.0886 30.816L39.2363 32.8105L39.5566 32.7868L39.8533 32.664L39.0886 30.816ZM37.3246 30.312L35.4039 30.8696L35.5947 31.5269L36.1483 31.9295L37.3246 30.312ZM37.0006 29.196L35.0101 29.0014L34.9727 29.3842L35.0799 29.7536L37.0006 29.196ZM37.4686 24.408L35.5043 24.0319L35.487 24.122L35.4781 24.2134L37.4686 24.408ZM37.7926 22.716L39.7569 23.0921L40.2778 20.3718L37.5317 20.7331L37.7926 22.716ZM35.0566 23.076L35.1066 25.0754L35.2125 25.0727L35.3175 25.0589L35.0566 23.076ZM32.1766 23.148L32.1266 21.1486L29.3363 21.2184L30.2994 23.8381L32.1766 23.148ZM33.0766 25.596L34.9689 24.9486L34.9616 24.9272L34.9538 24.9059L33.0766 25.596ZM33.5446 26.964L31.6523 27.6114L31.6779 27.6864L31.7095 27.7592L33.5446 26.964ZM33.6526 29.16L35.4707 29.9933L35.5198 29.8862L35.556 29.774L33.6526 29.16ZM32.7166 30.816L33.6501 32.5848L34.0893 32.353L34.369 31.9427L32.7166 30.816ZM29.7646 31.104L28.3504 32.5182L28.7499 32.9177L29.2994 33.0492L29.7646 31.104ZM29.1526 29.844L27.1868 30.2126L27.212 30.3469L27.2552 30.4765L29.1526 29.844ZM29.0446 29.268L31.0104 28.8994L31.0078 28.8863L29.0446 29.268ZM28.7926 27.972L26.808 28.2201L26.8164 28.2873L26.8294 28.3537L28.7926 27.972ZM28.7206 27.396L30.7051 27.1479L30.6759 26.9143L30.5933 26.6938L28.7206 27.396ZM28.6126 27.108L26.6243 27.3241L26.6515 27.5745L26.7399 27.8102L28.6126 27.108ZM28.4326 25.452L30.4209 25.2359L30.4112 25.1472L30.3938 25.0598L28.4326 25.452ZM28.3606 25.092H26.3606V25.29L26.3994 25.4842L28.3606 25.092ZM28.3606 24.48H30.3606V24.2338L30.3009 23.9949L28.3606 24.48ZM28.2526 23.436H30.2526V21.6174L28.4422 21.445L28.2526 23.436ZM26.7046 22.86L24.7225 23.1268L24.8465 24.0482L25.6308 24.5473L26.7046 22.86ZM28.1806 19.476L29.4976 20.9812L30.1806 20.3835V19.476H28.1806ZM28.2526 17.532L30.2462 17.6915L30.2526 17.6119V17.532H28.2526ZM28.2526 17.028L26.6526 15.828L26.2526 16.3613V17.028H28.2526ZM28.3606 16.884L29.9606 18.084L30.3606 17.5507V16.884H28.3606ZM28.3606 16.2L26.3897 15.8602L26.3606 16.0288V16.2H28.3606ZM28.5406 15.156L30.5115 15.4958L30.5406 15.3271V15.156H28.5406ZM28.5406 14.868L26.5699 14.5269L26.5406 14.6962V14.868H28.5406ZM28.8646 12.996L26.909 12.5769L26.9007 12.6158L26.8939 12.6549L28.8646 12.996ZM28.9726 12.492L30.9282 12.9111L30.9404 12.8539L30.9493 12.7961L28.9726 12.492ZM29.0446 12.024L31.0213 12.3281L31.0446 12.1769V12.024H29.0446ZM29.2246 11.268L31.0913 11.986L31.1185 11.9153L31.1402 11.8427L29.2246 11.268ZM29.4046 10.548L27.4522 10.1141L27.4476 10.1349L27.4434 10.1558L29.4046 10.548ZM29.4766 10.224L27.6304 9.45477L27.5625 9.61777L27.5242 9.79014L29.4766 10.224ZM30.0886 9.108L28.4886 7.908L28.4405 7.97218L28.3976 8.04001L30.0886 9.108ZM30.1966 8.964L28.7075 7.62891L28.6491 7.69403L28.5966 7.764L30.1966 8.964ZM32.7166 7.344L32.4829 5.3577L32.2518 5.38489L32.0331 5.46441L32.7166 7.344ZM34.7326 8.064L36.6513 7.49967L36.5204 7.05456L36.2069 6.71255L34.7326 8.064ZM34.3006 9.072L33.2141 7.39286L32.0523 8.14462L32.3462 9.49686L34.3006 9.072ZM34.4806 9.9L36.2114 10.9021L36.5995 10.2319L36.4349 9.47514L34.4806 9.9ZM34.0846 10.584L32.3537 9.58193L32.3231 9.63486L32.2957 9.68957L34.0846 10.584ZM33.7246 11.268L35.3887 12.3774L35.3887 12.3774L33.7246 11.268ZM33.3286 12.24L31.4559 11.5378L31.3286 11.8773V12.24H33.3286ZM33.0766 14.472L31.2126 13.7471L31.1113 14.0075L31.0853 14.2858L33.0766 14.472ZM32.6086 19.476L30.6173 19.2898L30.4269 21.3253L32.4661 21.4709L32.6086 19.476ZM35.8486 19.548L36.0823 17.5617L35.9072 17.5411L35.7312 17.5515L35.8486 19.548ZM38.0806 19.548L38.1694 21.546L39.9106 21.4686L40.072 19.7332L38.0806 19.548ZM38.2246 17.316L36.256 16.963L36.2246 17.1381V17.316H38.2246ZM41.0721 6.86537C41.1508 7.07789 41.1674 7.32857 41.1078 7.56286C41.0812 7.66743 41.0451 7.74569 41.0169 7.79616C40.9893 7.84567 40.9682 7.87029 40.9671 7.87158C40.966 7.87292 40.9793 7.85728 41.0149 7.82634C41.0502 7.79562 41.1022 7.75439 41.1751 7.70372C41.3232 7.60081 41.533 7.47588 41.819 7.33285L40.0302 3.75514C39.2492 4.14565 38.4762 4.63125 37.9301 5.26842C37.3239 5.9756 36.8761 7.05309 37.3211 8.25463L41.0721 6.86537ZM41.1057 7.53579C41.3839 7.51049 41.791 7.52974 42.3554 7.64652L43.1658 3.72948C42.3382 3.55825 41.5213 3.48151 40.7435 3.55221L41.1057 7.53579ZM41.2985 7.05263C41.4371 7.20112 41.4918 7.31871 41.5176 7.41129L45.3716 6.34071C45.1573 5.56929 44.7561 4.89487 44.2227 4.32336L41.2985 7.05263ZM41.4679 6.57189L41.3959 7.03989L45.3493 7.64811L45.4213 7.18011L41.4679 6.57189ZM41.3726 7.344V8.244H45.3726V7.344H41.3726ZM41.7726 7.044L41.6646 7.188L44.8646 9.588L44.9726 9.444L41.7726 7.044ZM41.2685 8.26324L41.0885 11.1432L45.0807 11.3928L45.2607 8.51276L41.2685 8.26324ZM41.1021 11.0037L41.0301 11.5437L44.9951 12.0723L45.0671 11.5323L41.1021 11.0037ZM41.0159 11.6928L40.9079 13.5648L44.9013 13.7952L45.0093 11.9232L41.0159 11.6928ZM41.4904 12.2658C41.1186 12.6375 40.9724 13.0544 40.9103 13.3029C40.8452 13.5635 40.8326 13.7995 40.8326 13.968H44.8326C44.8326 13.9925 44.832 14.1085 44.7909 14.2731C44.7528 14.4256 44.6425 14.7705 44.3188 15.0942L41.4904 12.2658ZM40.835 13.8701L40.655 17.5421L44.6502 17.7379L44.8302 14.0659L40.835 13.8701ZM40.7552 17.0075L40.6832 17.2235L44.478 18.4885L44.55 18.2725L40.7552 17.0075ZM40.5806 17.856V19.62H44.5806V17.856H40.5806ZM42.5381 21.6195C43.0338 21.6301 43.3447 21.6698 43.5153 21.7082C43.5975 21.7268 43.6072 21.7363 43.5705 21.7195C43.5372 21.7042 43.4031 21.6387 43.2522 21.4814C43.0862 21.3083 42.9283 21.0515 42.8648 20.7256C42.8037 20.4124 42.8538 20.1596 42.9013 20.0148C42.9772 19.7838 43.0642 19.764 42.8584 19.9698L45.6868 22.7982C46.045 22.44 46.4844 21.9237 46.7014 21.2637C46.8194 20.9044 46.8871 20.454 46.7908 19.96C46.692 19.4534 46.446 19.0327 46.139 18.7125C45.5876 18.1377 44.8718 17.9137 44.3954 17.8063C43.861 17.6857 43.2554 17.6339 42.6231 17.6205L42.5381 21.6195ZM42.6018 20.2848C42.5084 20.4266 42.4339 20.515 42.3839 20.5659C42.3342 20.6166 42.3195 20.6194 42.3456 20.6047C42.3755 20.5878 42.4389 20.5596 42.5289 20.5462C42.6197 20.5328 42.6971 20.5407 42.7471 20.5523L41.8381 24.4477C43.7552 24.895 45.1432 23.6995 45.9434 22.4832L42.6018 20.2848ZM40.3016 22.6896L40.5896 25.7136L44.5716 25.3344L44.2836 22.3104L40.3016 22.6896ZM40.6164 25.901C40.7615 26.6568 40.6328 27.1447 40.3803 27.5275C40.0937 27.9617 39.4972 28.4825 38.3239 28.968L39.8533 32.664C41.464 31.9975 42.8414 31.0603 43.7189 29.7305C44.6304 28.3493 44.8557 26.7672 44.5447 25.147L40.6164 25.901ZM38.9409 28.8215C38.7674 28.8343 38.6481 28.8016 38.5009 28.6945L36.1483 31.9295C37.0571 32.5904 38.1138 32.8937 39.2363 32.8105L38.9409 28.8215ZM39.2453 29.7544L38.9213 28.6384L35.0799 29.7536L35.4039 30.8696L39.2453 29.7544ZM38.9911 29.3906L39.4591 24.6026L35.4781 24.2134L35.0101 29.0014L38.9911 29.3906ZM39.4329 24.7841L39.7569 23.0921L35.8283 22.3399L35.5043 24.0319L39.4329 24.7841ZM37.5317 20.7331L34.7957 21.0931L35.3175 25.0589L38.0535 24.6989L37.5317 20.7331ZM35.0066 21.0766L32.1266 21.1486L32.2266 25.1474L35.1066 25.0754L35.0066 21.0766ZM30.2994 23.8381L31.1994 26.2861L34.9538 24.9059L34.0538 22.4579L30.2994 23.8381ZM31.1843 26.2434L31.6523 27.6114L35.4369 26.3166L34.9689 24.9486L31.1843 26.2434ZM31.7095 27.7592C31.8291 28.0352 31.8394 28.2664 31.7492 28.546L35.556 29.774C35.9458 28.5656 35.8841 27.3328 35.3797 26.1688L31.7095 27.7592ZM31.8345 28.3267C31.6177 28.7995 31.3613 29.2535 31.0641 29.6893L34.369 31.9427C34.7919 31.3225 35.1594 30.6725 35.4707 29.9933L31.8345 28.3267ZM31.7831 29.0472C31.4168 29.2405 30.9426 29.3293 30.2297 29.1588L29.2994 33.0492C30.7946 33.4067 32.2884 33.3035 33.6501 32.5848L31.7831 29.0472ZM31.1788 29.6898C31.2576 29.7686 31.2947 29.8264 31.2975 29.8307C31.3025 29.8385 31.2914 29.8221 31.2666 29.7712C31.2156 29.6661 31.1418 29.4871 31.05 29.2115L27.2552 30.4765C27.3794 30.8489 27.5156 31.2039 27.6686 31.5188C27.8084 31.8067 28.0232 32.191 28.3504 32.5182L31.1788 29.6898ZM31.1183 29.4754L31.0103 28.8994L27.0788 29.6366L27.1868 30.2126L31.1183 29.4754ZM31.0078 28.8863L30.7558 27.5903L26.8294 28.3537L27.0814 29.6497L31.0078 28.8863ZM30.7771 27.7239L30.7051 27.1479L26.736 27.6441L26.808 28.2201L30.7771 27.7239ZM30.5933 26.6938L30.4853 26.4058L26.7399 27.8102L26.8479 28.0982L30.5933 26.6938ZM30.6009 26.8919L30.4209 25.2359L26.4443 25.6681L26.6243 27.3241L30.6009 26.8919ZM30.3938 25.0598L30.3218 24.6998L26.3994 25.4842L26.4714 25.8442L30.3938 25.0598ZM30.3606 25.092V24.48H26.3606V25.092H30.3606ZM30.3009 23.9949C30.2802 23.9122 30.2526 23.7367 30.2526 23.436H26.2526C26.2526 23.9513 26.297 24.4718 26.4203 24.9651L30.3009 23.9949ZM28.4422 21.445C28.3184 21.4332 28.1016 21.3784 27.7783 21.1727L25.6308 24.5473C26.3636 25.0136 27.1788 25.3428 28.063 25.427L28.4422 21.445ZM28.6867 22.5932C28.6283 22.159 28.7258 21.6565 29.4976 20.9812L26.8636 17.9708C25.3314 19.3115 24.4449 21.065 24.7225 23.1268L28.6867 22.5932ZM30.1806 19.476V19.044H26.1806V19.476H30.1806ZM30.1806 19.044C30.1806 18.7077 30.2007 18.2608 30.2462 17.6915L26.259 17.3725C26.2085 18.0032 26.1806 18.5643 26.1806 19.044H30.1806ZM30.2526 17.532V17.028H26.2526V17.532H30.2526ZM29.8526 18.228L29.9606 18.084L26.7606 15.684L26.6526 15.828L29.8526 18.228ZM30.3606 16.884V16.2H26.3606V16.884H30.3606ZM30.3315 16.5398L30.5115 15.4958L26.5697 14.8162L26.3897 15.8602L30.3315 16.5398ZM30.5406 15.156V14.868H26.5406V15.156H30.5406ZM30.5113 15.2091L30.8353 13.3371L26.8939 12.6549L26.5699 14.5269L30.5113 15.2091ZM30.8202 13.4151L30.9282 12.9111L27.017 12.0729L26.909 12.5769L30.8202 13.4151ZM30.9493 12.7961L31.0213 12.3281L27.0679 11.7199L26.9959 12.1879L30.9493 12.7961ZM31.0446 12.024C31.0446 12.0789 31.0404 12.1175 31.0378 12.1366C31.0352 12.156 31.0332 12.1625 31.0352 12.1542C31.0371 12.1463 31.0418 12.1282 31.0512 12.0988C31.0605 12.0697 31.0735 12.0323 31.0913 11.986L27.3579 10.55C27.2052 10.9471 27.0446 11.4689 27.0446 12.024H31.0446ZM31.1402 11.8427C31.2298 11.544 31.3052 11.2432 31.3658 10.9402L27.4434 10.1558C27.408 10.3328 27.3633 10.512 27.3089 10.6933L31.1402 11.8427ZM31.357 10.9819L31.429 10.6579L27.5242 9.79014L27.4522 10.1141L31.357 10.9819ZM31.3227 10.9932C31.3794 10.8573 31.5151 10.5948 31.7796 10.176L28.3976 8.04001C28.0861 8.53323 27.8138 9.01473 27.6304 9.45477L31.3227 10.9932ZM31.6886 10.308L31.7966 10.164L28.5966 7.764L28.4886 7.908L31.6886 10.308ZM31.6857 10.2991C32.0498 9.893 32.5912 9.51772 33.4001 9.22358L32.0331 5.46441C30.73 5.93828 29.5914 6.64299 28.7075 7.62891L31.6857 10.2991ZM32.9503 9.3303C33.0987 9.31284 33.1551 9.33376 33.1599 9.33548C33.161 9.33586 33.1929 9.3441 33.2583 9.41545L36.2069 6.71255C35.219 5.6348 33.8985 5.19116 32.4829 5.3577L32.9503 9.3303ZM32.8139 8.62833C32.7651 8.46263 32.7358 8.16191 32.8763 7.83416C33.0047 7.53447 33.1924 7.40689 33.2141 7.39286L35.3871 10.7511C35.8168 10.4731 36.2804 10.0455 36.5529 9.40984C36.8373 8.74609 36.8201 8.07336 36.6513 7.49967L32.8139 8.62833ZM32.3462 9.49686L32.5262 10.3249L36.4349 9.47514L36.2549 8.64714L32.3462 9.49686ZM32.7497 8.89793L32.3537 9.58193L35.8154 11.5861L36.2114 10.9021L32.7497 8.89793ZM32.2957 9.68957C32.2025 9.87613 32.1315 10.0152 32.0808 10.1115C32.0553 10.1599 32.0386 10.1906 32.0291 10.2075C32.0139 10.2347 32.028 10.2074 32.0605 10.1586L35.3887 12.3774C35.5236 12.175 35.7102 11.805 35.8734 11.4784L32.2957 9.68957ZM32.0605 10.1586C31.9482 10.327 31.8723 10.4972 31.8521 10.5416C31.8141 10.6252 31.7752 10.7177 31.7374 10.8104C31.661 10.998 31.5664 11.2432 31.4559 11.5378L35.2013 12.9422C35.3068 12.6608 35.3862 12.456 35.4418 12.3196C35.47 12.2503 35.4866 12.2123 35.4936 12.1969C35.4971 12.1891 35.4933 12.1978 35.4835 12.217C35.4789 12.226 35.4456 12.292 35.3887 12.3774L32.0605 10.1586ZM31.3286 12.24V12.78H35.3286V12.24H31.3286ZM31.3286 12.78C31.3286 13.3402 31.2574 13.6317 31.2126 13.7471L34.9406 15.1969C35.2317 14.4483 35.3286 13.6118 35.3286 12.78H31.3286ZM31.0853 14.2858L30.6173 19.2898L34.5999 19.6622L35.0679 14.6582L31.0853 14.2858ZM32.4661 21.4709C33.8489 21.5697 35.0261 21.5998 35.966 21.5445L35.7312 17.5515C35.0391 17.5922 34.0563 17.5743 32.7511 17.4811L32.4661 21.4709ZM35.6149 21.5343C36.2048 21.6037 37.1007 21.5935 38.1694 21.546L37.9918 17.55C36.9005 17.5985 36.3084 17.5883 36.0823 17.5617L35.6149 21.5343ZM40.072 19.7332C40.1684 18.697 40.2246 17.8727 40.2246 17.316H36.2246C36.2246 17.6713 36.1848 18.335 36.0892 19.3628L40.072 19.7332ZM40.1932 17.669C40.8339 14.0958 41.1715 10.73 41.1965 7.57587L37.1967 7.54413C37.1737 10.438 36.8633 13.5762 36.256 16.963L40.1932 17.669ZM58.3025 10.764L58.4253 8.76777L58.4242 8.76771L58.3025 10.764ZM62.2625 15.408L60.3807 16.0854L60.3821 16.0893L62.2625 15.408ZM64.4585 23.22L62.4776 23.4958L62.4791 23.5063L64.4585 23.22ZM66.1145 34.668L67.9941 35.3515L68.1658 34.8791L68.0939 34.3817L66.1145 34.668ZM65.8265 35.46L63.9469 34.7765L63.9376 34.8019L63.9291 34.8275L65.8265 35.46ZM65.3225 36.216L64.2131 34.5519L64.1041 34.6246L64.0055 34.7108L65.3225 36.216ZM64.7105 36.54L64.8435 38.5356L64.9956 38.5254L65.1443 38.4924L64.7105 36.54ZM64.1705 36.576L64.0374 38.5716L64.1705 38.5804L64.3035 38.5716L64.1705 36.576ZM63.4145 36.432L64.3089 34.6431L64.1975 34.5875L64.0801 34.546L63.4145 36.432ZM62.8025 36.216L60.8081 36.0664L60.6936 37.5926L62.1368 38.102L62.8025 36.216ZM62.9105 34.776L60.9164 34.6226L60.9161 34.6264L62.9105 34.776ZM63.0185 33.372L61.0284 33.173L61.0261 33.1958L61.0244 33.2186L63.0185 33.372ZM62.6585 30.168L60.8696 31.0624L60.8877 31.0987L60.9073 31.1342L62.6585 30.168ZM60.1745 28.944L60.3222 26.9495L60.3179 26.9491L60.1745 28.944ZM53.2265 29.088L53.9022 30.9704L53.9155 30.9656L53.9287 30.9607L53.2265 29.088ZM50.9225 31.572L49.1017 30.7444L49.0983 30.752L49.0948 30.7597L50.9225 31.572ZM48.0065 35.028L48.4403 36.9804L48.8527 36.8887L49.1929 36.6381L48.0065 35.028ZM47.3585 35.172V37.172H47.578L47.7923 37.1244L47.3585 35.172ZM46.6385 35.172L46.496 37.1669L46.5671 37.172H46.6385V35.172ZM45.9545 34.812L44.0142 35.2971L44.0781 35.5528L44.2062 35.7833L45.9545 34.812ZM45.9185 34.056L43.9244 33.9026L43.9244 33.9026L45.9185 34.056ZM46.2425 32.184L44.3172 31.6425L44.3141 31.6533L44.3112 31.6641L46.2425 32.184ZM46.8185 30.42L45.0096 29.5668L44.9882 29.6121L44.9691 29.6585L46.8185 30.42ZM50.1305 21.492L52.0219 22.1419L52.023 22.1388L50.1305 21.492ZM53.8385 12.96L52.1511 11.8862L52.1449 11.896L52.1389 11.9058L53.8385 12.96ZM53.3705 25.452L51.6418 24.4462L49.6449 27.8783L53.5913 27.4398L53.3705 25.452ZM54.6665 25.308V23.308H54.5557L54.4456 23.3202L54.6665 25.308ZM55.4585 25.308L55.7651 23.3317L55.6127 23.308H55.4585V25.308ZM57.5465 25.632L57.2398 27.6083L57.2609 27.6116L57.2821 27.6145L57.5465 25.632ZM59.0585 25.38L58.4761 23.4667L58.451 23.4743L58.426 23.4826L59.0585 25.38ZM61.2905 24.12L62.4569 25.7446L63.3376 25.1123L63.2884 24.0292L61.2905 24.12ZM60.2105 18.252L58.2828 18.7852L58.2837 18.7883L60.2105 18.252ZM58.6625 14.76L58.3047 16.7278L58.3149 16.7296L58.6625 14.76ZM58.2665 14.688L58.6242 12.7203L58.4468 12.688H58.2665V14.688ZM58.0505 14.688L57.908 16.6829L57.9791 16.688H58.0505V14.688ZM55.2785 19.008L53.3065 18.674L53.3065 18.674L55.2785 19.008ZM58.1796 12.7602C58.2676 12.7656 58.5215 12.8032 58.9406 13.2947C59.3813 13.8115 59.8813 14.6982 60.3807 16.0854L64.1442 14.7306C63.5636 13.1178 62.8636 11.7305 61.9843 10.6993C61.0834 9.64279 59.8973 8.85836 58.4253 8.76778L58.1796 12.7602ZM60.3821 16.0893C61.5671 19.3599 62.2426 21.8084 62.4776 23.4958L66.4394 22.9442C66.1463 20.8396 65.3579 18.0801 64.1429 14.7267L60.3821 16.0893ZM62.4791 23.5063L64.1351 34.9543L68.0939 34.3817L66.4379 22.9337L62.4791 23.5063ZM64.2349 33.9845L63.9469 34.7765L67.7061 36.1435L67.9941 35.3515L64.2349 33.9845ZM63.9291 34.8275C63.9118 34.8794 63.9106 34.8633 63.9464 34.8096C63.9847 34.752 64.0679 34.6487 64.2131 34.5519L66.4319 37.8801C67.1545 37.3984 67.5258 36.6865 67.7238 36.0925L63.9291 34.8275ZM64.0055 34.7108C64.0268 34.6922 64.1184 34.6228 64.2766 34.5876L65.1443 38.4924C65.7346 38.3612 66.2341 38.0758 66.6395 37.7212L64.0055 34.7108ZM64.5774 34.5444L64.0374 34.5804L64.3035 38.5716L64.8435 38.5356L64.5774 34.5444ZM64.3035 34.5804C64.2416 34.5763 64.1924 34.5717 64.1544 34.5672C64.116 34.5627 64.094 34.5589 64.0857 34.5573C64.0764 34.5556 64.0908 34.5578 64.1227 34.5675C64.1394 34.5725 64.1635 34.5804 64.1937 34.592C64.2237 34.6036 64.2629 34.6202 64.3089 34.6431L62.52 38.2209C63.0527 38.4872 63.6608 38.5465 64.0374 38.5716L64.3035 34.5804ZM64.0801 34.546L63.4681 34.33L62.1368 38.102L62.7488 38.318L64.0801 34.546ZM64.7969 36.3656L64.9049 34.9256L60.9161 34.6264L60.8081 36.0664L64.7969 36.3656ZM64.9046 34.9294L65.0126 33.5254L61.0244 33.2186L60.9164 34.6226L64.9046 34.9294ZM65.0085 33.571C65.1642 32.0146 65.0937 30.4417 64.4096 29.2018L60.9073 31.1342C60.9913 31.2863 61.1607 31.8494 61.0284 33.173L65.0085 33.571ZM64.4473 29.2736C63.612 27.6029 61.8688 27.064 60.3222 26.9495L60.0267 30.9385C60.5154 30.9747 60.7731 31.0617 60.8835 31.116C60.9657 31.1566 60.9129 31.1489 60.8696 31.0624L64.4473 29.2736ZM60.3179 26.9491C58.4516 26.815 56.8866 26.7566 55.642 26.7824C54.4705 26.8067 53.3502 26.9056 52.5242 27.2153L53.9287 30.9607C54.0627 30.9104 54.5805 30.8053 55.7249 30.7816C56.7963 30.7594 58.2253 30.809 60.031 30.9389L60.3179 26.9491ZM52.5507 27.2056C50.9123 27.7938 49.8225 29.1587 49.1017 30.7444L52.7432 32.3996C53.2224 31.3453 53.6686 31.0542 53.9022 30.9704L52.5507 27.2056ZM49.0948 30.7597C48.6853 31.6812 47.9641 32.5749 46.8201 33.4179L49.1929 36.6381C50.7848 35.4651 52.0077 34.0548 52.7501 32.3843L49.0948 30.7597ZM47.5726 33.0756L46.9246 33.2196L47.7923 37.1244L48.4403 36.9804L47.5726 33.0756ZM47.3585 33.172H46.6385V37.172H47.3585V33.172ZM46.781 33.1771C46.8078 33.179 46.9535 33.1924 47.147 33.2942C47.3616 33.4071 47.5656 33.5938 47.7028 33.8407L44.2062 35.7833C44.767 36.7927 45.7563 37.1141 46.496 37.1669L46.781 33.1771ZM47.8948 34.3269C47.9028 34.3591 47.9061 34.3806 47.9072 34.3889C47.9083 34.3973 47.9078 34.3962 47.9072 34.3839C47.906 34.3576 47.9055 34.3015 47.9126 34.2094L43.9244 33.9026C43.8923 34.3195 43.8928 34.8116 44.0142 35.2971L47.8948 34.3269ZM47.9126 34.2094C47.9507 33.7132 48.0369 33.2119 48.1737 32.7039L44.3112 31.6641C44.112 32.4041 43.9822 33.1508 43.9244 33.9026L47.9126 34.2094ZM48.1678 32.7255C48.3766 31.9829 48.544 31.4822 48.6678 31.1815L44.9691 29.6585C44.7569 30.1738 44.5403 30.8491 44.3172 31.6425L48.1678 32.7255ZM48.6273 31.2732C49.2837 29.8817 50.4241 26.7923 52.0219 22.1419L48.239 20.8421C46.6208 25.5517 45.5532 28.4143 45.0096 29.5668L48.6273 31.2732ZM52.023 22.1388C53.3022 18.3958 54.4807 15.719 55.5381 14.0142L52.1389 11.9058C50.8443 13.993 49.5507 17.0042 48.2379 20.8452L52.023 22.1388ZM55.5258 14.0337C55.8595 13.5094 56.2204 13.2011 56.5933 13.0176C56.9715 12.8316 57.4777 12.7174 58.1807 12.7603L58.4242 8.76771C57.1592 8.69057 55.9375 8.88243 54.8276 9.42839C53.7126 9.97694 52.8255 10.8266 52.1511 11.8862L55.5258 14.0337ZM53.5913 27.4398L54.8873 27.2958L54.4456 23.3202L53.1496 23.4642L53.5913 27.4398ZM54.6665 27.308H55.4585V23.308H54.6665V27.308ZM55.1518 27.2843L57.2398 27.6083L57.8531 23.6557L55.7651 23.3317L55.1518 27.2843ZM57.2821 27.6145C58.1057 27.7243 58.9653 27.5192 59.6909 27.2774L58.426 23.4826C58.1703 23.5679 57.987 23.612 57.8657 23.6322C57.7367 23.6537 57.7317 23.639 57.8108 23.6495L57.2821 27.6145ZM59.6408 27.2933C60.5202 27.0257 61.4837 26.4434 62.4569 25.7446L60.1241 22.4954C59.2253 23.1406 58.7008 23.3983 58.4761 23.4667L59.6408 27.2933ZM63.2884 24.0292C63.207 22.2379 62.807 20.1218 62.1372 17.7157L58.2837 18.7883C58.91 21.0382 59.23 22.8341 59.2925 24.2108L63.2884 24.0292ZM62.1381 17.7188C61.8177 16.5606 61.5019 15.5938 61.1839 14.8765C61.0279 14.5246 60.8349 14.148 60.5906 13.8212C60.4044 13.5722 59.8975 12.9471 59.01 12.7904L58.3149 16.7296C57.9463 16.6645 57.6987 16.5011 57.5777 16.4052C57.456 16.3086 57.3955 16.2278 57.3869 16.2163C57.3736 16.1985 57.4251 16.2674 57.5271 16.4975C57.7251 16.9442 57.9792 17.6874 58.2828 18.7852L62.1381 17.7188ZM59.0202 12.7923L58.6242 12.7203L57.9087 16.6557L58.3047 16.7277L59.0202 12.7923ZM58.2665 12.688H58.0505V16.688H58.2665V12.688ZM58.193 12.6931C56.586 12.5783 55.3986 13.4745 54.6662 14.6159C53.9873 15.6739 53.5744 17.0925 53.3065 18.674L57.2504 19.342C57.4865 17.9475 57.7876 17.1581 58.0327 16.7761C58.1438 16.6029 58.1931 16.5936 58.1408 16.6246C58.0657 16.6691 57.9686 16.6872 57.908 16.6829L58.193 12.6931ZM53.3065 18.674C52.8113 21.5982 52.2213 23.4502 51.6418 24.4462L55.0992 26.4578C56.0557 24.8138 56.7376 22.3698 57.2504 19.342L53.3065 18.674ZM74.4791 9.684L74.3607 11.6805L76.0943 11.7833L76.4393 10.0813L74.4791 9.684ZM76.7831 5.868L76.3641 3.91239L76.0007 3.99026L75.6895 4.19346L76.7831 5.868ZM78.5471 8.892L76.5524 8.74655L76.3644 11.3249L78.9073 10.8593L78.5471 8.892ZM81.1031 8.424L81.4633 10.3913L81.6601 10.3553L81.8459 10.281L81.1031 8.424ZM81.2831 8.352L80.825 6.40517L80.6793 6.43945L80.5404 6.49504L81.2831 8.352ZM81.8951 8.208V6.208H81.663L81.437 6.26117L81.8951 8.208ZM82.2551 8.208L83.6693 6.79379L83.0836 6.208H82.2551V8.208ZM82.7951 9.036L84.7742 8.74739L84.7364 8.48857L84.6334 8.24816L82.7951 9.036ZM82.1471 12.42L83.1492 14.1509L83.6359 13.8691L83.9044 13.375L82.1471 12.42ZM80.3831 13.032L79.9909 11.0708L79.9442 11.0802L79.8981 11.0917L80.3831 13.032ZM78.9791 13.248V11.248H78.594L78.2364 11.391L78.9791 13.248ZM78.4751 13.32V11.32H77.5384L76.9387 12.0396L78.4751 13.32ZM78.2951 13.536L76.7587 12.2556L76.1966 12.9301L76.3127 13.8003L78.2951 13.536ZM78.2591 14.76L76.2836 14.4481L76.246 14.686L76.266 14.9261L78.2591 14.76ZM78.1871 15.732L76.226 15.3398L76.1871 15.534V15.732H78.1871ZM78.1871 16.416L80.1599 16.7448L80.1871 16.5815V16.416H78.1871ZM78.1151 17.46L80.1029 17.6809L80.1151 17.5708V17.46H78.1151ZM78.0071 18.432L76.0194 18.2111L76.0071 18.3212V18.432H78.0071ZM78.0071 19.116L79.9929 19.3543L80.0071 19.2356V19.116H78.0071ZM77.8991 20.628L79.8603 21.0202L79.8991 20.826V20.628H77.8991ZM77.8271 20.988L75.866 20.5958L75.8417 20.717L75.8326 20.8403L77.8271 20.988ZM77.7551 21.96L79.7469 22.1411L79.7484 22.1244L79.7497 22.1077L77.7551 21.96ZM77.7191 22.356L75.7273 22.1749L75.7191 22.2653V22.356H77.7191ZM77.5031 24.228L75.5354 23.8702L75.5081 24.0201L75.5039 24.1725L77.5031 24.228ZM77.1071 26.316L78.9142 27.173L78.9212 27.1583L78.9279 27.1436L77.1071 26.316ZM73.5791 28.08L71.6604 28.6443L71.8164 29.1747L72.2226 29.5496L73.5791 28.08ZM73.3991 26.712L71.438 26.3198L71.3991 26.514V26.712H73.3991ZM73.5071 25.344L71.5272 25.0612L71.5071 25.2019V25.344H73.5071ZM73.5791 24.84L75.559 25.1228L75.5717 25.0344L75.5764 24.9451L73.5791 24.84ZM73.6871 23.688L75.6639 23.9921L75.6871 23.8409V23.688H73.6871ZM73.6871 23.4L71.693 23.2466L71.6871 23.3232V23.4H73.6871ZM73.8671 21.06L71.9268 20.5749L71.8859 20.7385L71.873 20.9066L73.8671 21.06ZM74.0111 19.584L72.0193 19.4029L72.0111 19.4933V19.584H74.0111ZM74.0471 19.188L76.0389 19.3691L76.0471 19.2787V19.188H74.0471ZM74.0471 18.432L72.1498 17.7995L72.0471 18.1074V18.432H74.0471ZM74.1191 18.216L76.0165 18.8485L76.1191 18.5406V18.216H74.1191ZM74.1191 17.676L72.1788 17.1909L72.1191 17.4298V17.676H74.1191ZM74.1911 17.388L76.1314 17.8731L76.1911 17.6342V17.388H74.1911ZM74.1911 16.92L72.195 16.7952L72.1911 16.8576V16.92H74.1911ZM74.2271 15.444L72.2408 15.2103L72.2271 15.3268V15.444H74.2271ZM74.2991 13.932L72.302 13.824L72.2991 13.878V13.932H74.2991ZM74.3711 12.6L76.3682 12.7079L76.5055 10.1686L74.0053 10.6337L74.3711 12.6ZM71.8151 12.564L72.4271 10.6599L72.0325 10.5331L71.62 10.5735L71.8151 12.564ZM69.9791 12.744L69.5869 14.7052L69.8784 14.7635L70.1743 14.7345L69.9791 12.744ZM69.0791 12.564L68.3176 14.4134L68.4968 14.4872L68.6869 14.5252L69.0791 12.564ZM68.4671 12.312L69.2286 10.4626L68.936 10.3422L68.6205 10.3179L68.4671 12.312ZM67.9991 12.276L66.7991 13.876L67.265 14.2254L67.8457 14.2701L67.9991 12.276ZM67.5671 11.952L68.7671 10.352L68.7485 10.338L68.7296 10.3245L67.5671 11.952ZM67.0631 10.908L65.0721 10.7184L65.0358 11.1L65.1431 11.468L67.0631 10.908ZM67.6031 9.612L69.1145 10.9219L69.2165 10.8041L69.2991 10.672L67.6031 9.612ZM68.3231 8.928L68.4479 6.93189L68.091 6.90959L67.7484 7.01235L68.3231 8.928ZM68.8991 8.964L69.6606 7.11464L69.3544 6.98855L69.0239 6.96789L68.8991 8.964ZM69.5111 9.216L68.7496 11.0654L68.8414 11.1031L68.9364 11.1317L69.5111 9.216ZM70.2311 9.432L69.6564 11.3477L69.8798 11.4147L70.1127 11.4285L70.2311 9.432ZM76.4393 10.0813C76.7252 8.67046 77.2688 7.93955 77.8767 7.54254L75.6895 4.19346C73.9455 5.33244 72.953 7.14554 72.519 9.28668L76.4393 10.0813ZM77.2022 7.8236C77.2867 7.80549 77.1672 7.84969 76.951 7.76909C76.7028 7.67662 76.5578 7.50696 76.5046 7.41574C76.471 7.35825 76.5152 7.40538 76.5473 7.65861C76.5781 7.90165 76.5882 8.25652 76.5524 8.74655L80.5418 9.03745C80.6312 7.8113 80.5762 6.45718 79.9597 5.40026C79.6125 4.80504 79.0789 4.29338 78.3478 4.02091C77.6485 3.76031 76.9515 3.78651 76.3641 3.91239L77.2022 7.8236ZM78.9073 10.8593L81.4633 10.3913L80.7429 6.4567L78.1869 6.9247L78.9073 10.8593ZM81.8459 10.281L82.0259 10.209L80.5404 6.49504L80.3604 6.56704L81.8459 10.281ZM81.7412 10.2988L82.3532 10.1548L81.437 6.26117L80.825 6.40517L81.7412 10.2988ZM81.8951 10.208H82.2551V6.208H81.8951V10.208ZM80.8409 9.62221C80.8454 9.62667 80.8938 9.67674 80.9568 9.82384L84.6334 8.24816C84.4085 7.72326 84.0969 7.22133 83.6693 6.79379L80.8409 9.62221ZM80.8161 9.32461C80.9166 10.0144 80.8009 10.7087 80.3899 11.465L83.9044 13.375C84.6934 11.9233 85.0096 10.3616 84.7742 8.74739L80.8161 9.32461ZM81.1451 10.6891C80.9367 10.8098 80.5742 10.9542 79.9909 11.0708L80.7754 14.9932C81.632 14.8218 82.4456 14.5582 83.1492 14.1509L81.1451 10.6891ZM79.8981 11.0917C79.3925 11.2181 79.1045 11.248 78.9791 11.248V15.248C79.5737 15.248 80.2218 15.1339 80.8682 14.9723L79.8981 11.0917ZM78.2364 11.391C78.3619 11.3408 78.4527 11.326 78.4803 11.3221C78.5112 11.3177 78.5127 11.32 78.4751 11.32V15.32C78.7978 15.32 79.2591 15.2901 79.7219 15.105L78.2364 11.391ZM76.9387 12.0396L76.7587 12.2556L79.8316 14.8164L80.0116 14.6004L76.9387 12.0396ZM76.3127 13.8003C76.3293 13.9253 76.3332 14.1338 76.2836 14.4481L80.2347 15.0719C80.329 14.4742 80.3569 13.8667 80.2776 13.2717L76.3127 13.8003ZM76.266 14.9261C76.2709 14.985 76.2706 15.1164 76.226 15.3398L80.1483 16.1242C80.2476 15.6276 80.2953 15.111 80.2522 14.5939L76.266 14.9261ZM76.1871 15.732V16.416H80.1871V15.732H76.1871ZM76.2143 16.0872C76.1427 16.5171 76.1151 16.9816 76.1151 17.46H80.1151C80.1151 17.1224 80.1356 16.8909 80.1599 16.7448L76.2143 16.0872ZM76.1274 17.2391L76.0194 18.2111L79.9949 18.6529L80.1029 17.6809L76.1274 17.2391ZM76.0071 18.432V19.116H80.0071V18.432H76.0071ZM76.0214 18.8777C75.9439 19.5231 75.8991 20.1124 75.8991 20.628H79.8991C79.8991 20.3276 79.9263 19.9089 79.9929 19.3543L76.0214 18.8777ZM75.938 20.2358L75.866 20.5958L79.7883 21.3802L79.8603 21.0202L75.938 20.2358ZM75.8326 20.8403L75.7606 21.8123L79.7497 22.1077L79.8217 21.1357L75.8326 20.8403ZM75.7633 21.7789L75.7273 22.1749L79.7109 22.5371L79.7469 22.1411L75.7633 21.7789ZM75.7191 22.356C75.7191 22.6345 75.6715 23.1215 75.5354 23.8702L79.4709 24.5858C79.6227 23.7505 79.7191 22.9895 79.7191 22.356H75.7191ZM75.5039 24.1725C75.484 24.8885 75.3756 25.2921 75.2864 25.4884L78.9279 27.1436C79.3186 26.2839 79.4742 25.2955 79.5024 24.2835L75.5039 24.1725ZM75.3 25.459C75.0646 25.9555 74.8568 26.2907 74.6901 26.5038C74.5183 26.7235 74.4457 26.7426 74.5027 26.7141C74.6001 26.6654 74.7768 26.6284 74.9549 26.6698C75.0903 26.7013 75.0821 26.7455 74.9357 26.6104L72.2226 29.5496C72.7002 29.9905 73.3069 30.3932 74.0484 30.5657C74.8324 30.7481 75.6061 30.6346 76.2916 30.2919C77.5145 29.6804 78.3267 28.4118 78.9142 27.173L75.3 25.459ZM75.4979 27.5157C75.4406 27.3211 75.3991 27.0592 75.3991 26.712H71.3991C71.3991 27.3728 71.4776 28.0229 71.6604 28.6443L75.4979 27.5157ZM75.3603 27.1042C75.4675 26.568 75.5071 25.969 75.5071 25.344H71.5071C71.5071 25.823 71.4747 26.136 71.438 26.3198L75.3603 27.1042ZM75.487 25.6268L75.559 25.1228L71.5992 24.5572L71.5272 25.0612L75.487 25.6268ZM75.5764 24.9451C75.5983 24.5292 75.6294 24.2162 75.6639 23.9921L71.7104 23.3839C71.6489 23.7838 71.608 24.2388 71.5819 24.7349L75.5764 24.9451ZM75.6871 23.688V23.4H71.6871V23.688H75.6871ZM75.6812 23.5534L75.8612 21.2134L71.873 20.9066L71.693 23.2466L75.6812 23.5534ZM75.8074 21.5451C75.9578 20.9434 76.0111 20.2728 76.0111 19.584H72.0111C72.0111 20.0952 71.9684 20.4086 71.9268 20.5749L75.8074 21.5451ZM76.0029 19.7651L76.0389 19.3691L72.0553 19.0069L72.0193 19.4029L76.0029 19.7651ZM76.0471 19.188V18.432H72.0471V19.188H76.0471ZM75.9445 19.0645L76.0165 18.8485L72.2218 17.5835L72.1498 17.7995L75.9445 19.0645ZM76.1191 18.216V17.676H72.1191V18.216H76.1191ZM76.0594 18.1611L76.1314 17.8731L72.2508 16.9029L72.1788 17.1909L76.0594 18.1611ZM76.1911 17.388V16.92H72.1911V17.388H76.1911ZM76.1872 17.0448C76.2148 16.603 76.2271 16.0654 76.2271 15.444H72.2271C72.2271 16.0226 72.2154 16.469 72.195 16.7952L76.1872 17.0448ZM76.2134 15.6777C76.2737 15.1657 76.2991 14.578 76.2991 13.932H72.2991C72.2991 14.486 72.2766 14.9063 72.2408 15.2103L76.2134 15.6777ZM76.2962 14.0399L76.3682 12.7079L72.374 12.492L72.302 13.824L76.2962 14.0399ZM74.0053 10.6337C73.1526 10.7924 72.6666 10.7369 72.4271 10.6599L71.2031 14.4681C72.3076 14.8231 73.5256 14.7916 74.7369 14.5663L74.0053 10.6337ZM71.62 10.5735L69.784 10.7535L70.1743 14.7345L72.0103 14.5545L71.62 10.5735ZM70.3714 10.7828L69.4714 10.6028L68.6869 14.5252L69.5869 14.7052L70.3714 10.7828ZM69.8406 10.7146L69.2286 10.4626L67.7056 14.1614L68.3176 14.4134L69.8406 10.7146ZM68.6205 10.3179L68.1525 10.2819L67.8457 14.2701L68.3137 14.3061L68.6205 10.3179ZM69.1991 10.676L68.7671 10.352L66.3671 13.552L66.7991 13.876L69.1991 10.676ZM68.7296 10.3245C68.8291 10.3956 68.9033 10.4652 68.9547 10.5195C69.0065 10.574 69.0428 10.6209 69.0658 10.6528C69.1093 10.7135 69.1239 10.7473 69.1162 10.7315C69.1101 10.7188 69.0936 10.6821 69.0687 10.6138C69.0443 10.5467 69.0155 10.4591 68.9831 10.348L65.1431 11.468C65.2432 11.811 65.3632 12.1581 65.514 12.4705C65.6373 12.7258 65.9005 13.2193 66.4046 13.5795L68.7296 10.3245ZM69.0541 11.0976C69.0653 10.9803 69.0926 10.9472 69.1145 10.9219L66.0917 8.30214C65.4897 8.99684 65.157 9.8277 65.0721 10.7184L69.0541 11.0976ZM69.2991 10.672C69.3601 10.5745 69.3782 10.5673 69.3406 10.603C69.3033 10.6384 69.1589 10.7653 68.8978 10.8437L67.7484 7.01235C66.7913 7.2995 66.2186 8.05372 65.9071 8.552L69.2991 10.672ZM68.1984 10.9241L68.7744 10.9601L69.0239 6.96789L68.4479 6.93189L68.1984 10.9241ZM68.1376 10.8134L68.7496 11.0654L70.2726 7.36664L69.6606 7.11464L68.1376 10.8134ZM68.9364 11.1317L69.6564 11.3477L70.8058 7.51635L70.0858 7.30035L68.9364 11.1317ZM70.1127 11.4285L74.3607 11.6805L74.5976 7.68751L70.3496 7.43551L70.1127 11.4285Z" fill="black" mask="url(#path-1-outside-1_394_1368)"></path><g clip-path="url(#clip0_394_1368)"><path fill-rule="evenodd" clip-rule="evenodd" d="M71.099 49.0948C71.099 49.0948 78.2373 62.2821 79.5511 61.8185C80.8649 61.3549 78.8823 48.6816 78.8823 48.6816C78.8823 48.6816 92.8396 30.4083 92.867 28.5162C92.8944 26.6242 74.9389 47.2645 71.099 49.0948Z" fill="#0082D2" stroke="black" stroke-width="2" stroke-linecap="round" stroke-linejoin="round"></path><path fill-rule="evenodd" clip-rule="evenodd" d="M79.5496 61.8105C79.5496 61.8105 85.1803 53.8321 86.4854 49.7907L83.4162 45.5303L78.8825 48.6817C78.8825 48.6817 80.942 59.268 79.5513 61.8185L79.5496 61.8105Z" fill="#00578B" stroke="black" stroke-width="2" stroke-linecap="round" stroke-linejoin="round"></path><path fill-rule="evenodd" clip-rule="evenodd" d="M70.4826 49.3432C70.4826 49.3432 56.1766 51.7878 57.7384 49.6535C59.3002 47.5193 96.7323 18.2555 98.3137 18.6236C99.8952 18.9918 105.143 45.2058 102.371 46.9685C99.5987 48.7312 78.8822 48.6817 78.8822 48.6817C78.8822 48.6817 92.6564 30.7909 92.8668 28.5163C93.0773 26.2417 72.6504 49.4777 70.4826 49.3432Z" fill="#0094FF" stroke="black" stroke-width="2" stroke-linecap="round" stroke-linejoin="round"></path><path d="M66.8304 47.2355C66.8304 47.2355 63.3705 48.1718 63.8941 47.4486C64.4177 46.7254 86.247 29.4284 97.441 21.5505" stroke="#55BEFF" stroke-width="3" stroke-linecap="round" stroke-linejoin="round"></path><path d="M91.8341 36.3645C91.8341 36.3645 96.5189 28.7547 95.7684 27.749" stroke="#55BEFF" stroke-width="3" stroke-linecap="round" stroke-linejoin="round"></path></g><defs><clipPath id="clip0_394_1368"><rect width="48.7805" height="40" fill="white" transform="translate(52.0449 27.6001) rotate(-11.9962)"></rect></clipPath></defs></svg>