<svg xmlns="http://www.w3.org/2000/svg" width="541" height="539" viewBox="0 0 541 539" fill="none"><g opacity="0.9"><path d="M480.268 450.75C480.268 450.75 488.858 449.52 485.458 442.88C485.458 442.88 493.798 441.18 490.058 431.14C490.058 431.14 494.488 428.42 492.268 422.8C490.048 417.18 486.648 416.16 485.798 415.82C484.948 415.48 480.008 416.33 478.988 415.82C477.968 415.31 460.438 397.27 449.708 397.78C438.978 398.29 432.418 404.33 432.378 412.38V442.51" fill="#FFD42A"></path><path d="M480.268 450.75C480.268 450.75 488.858 449.52 485.458 442.88C485.458 442.88 493.798 441.18 490.058 431.14C490.058 431.14 494.488 428.42 492.268 422.8C490.048 417.18 486.648 416.16 485.798 415.82C484.948 415.48 480.008 416.33 478.988 415.82C477.968 415.31 460.438 397.27 449.708 397.78C438.978 398.29 432.418 404.33 432.378 412.38V442.51" stroke="black" stroke-width="2" stroke-linecap="round" stroke-linejoin="round"></path><path d="M472.088 437.01C472.088 437.01 478.728 447.22 480.768 451.82C482.808 456.42 489.198 485.52 469.538 499.56C449.878 513.6 429.198 502.88 421.278 498.28C413.358 493.68 378.128 471.47 370.468 462.79L412.278 390.26C412.278 390.26 444.758 426.79 454.718 434.96" fill="#FFD42A"></path><path d="M472.088 437.01C472.088 437.01 478.728 447.22 480.768 451.82C482.808 456.42 489.198 485.52 469.538 499.56C449.878 513.6 429.198 502.88 421.278 498.28C413.358 493.68 378.128 471.47 370.468 462.79L412.278 390.26C412.278 390.26 444.758 426.79 454.718 434.96" stroke="black" stroke-width="2" stroke-linecap="round" stroke-linejoin="round"></path><path d="M490.048 431.14C490.048 431.14 482.938 433.18 479.498 429.99Z" fill="#FFD42A"></path><path d="M490.048 431.14C490.048 431.14 482.938 433.18 479.498 429.99" stroke="black" stroke-width="2" stroke-linecap="round" stroke-linejoin="round"></path><path d="M485.448 442.88C485.448 442.88 482.698 443.01 478.728 442.11Z" fill="#FFD42A"></path><path d="M485.448 442.88C485.448 442.88 482.698 443.01 478.728 442.11" stroke="black" stroke-width="2" stroke-linecap="round" stroke-linejoin="round"></path><path d="M292.178 477.71C292.178 477.71 251.238 553.18 214.468 535.14C177.698 517.1 188.938 478.63 195.318 460.25C201.698 441.87 205.018 441.36 205.128 436.02C205.298 427.82 208.288 417.74 216.738 413.08C225.188 408.42 288.428 447.68 292.168 477.71H292.178Z" fill="#FFD42A" stroke="black" stroke-width="2" stroke-linecap="round" stroke-linejoin="round"></path><path d="M223.078 430.05C223.078 430.05 218.808 433.94 213.958 445.94C209.108 457.94 199.408 474.03 199.408 474.03" fill="#FFD42A"></path><path d="M223.078 430.05C223.078 430.05 218.808 433.94 213.958 445.94C209.108 457.94 199.408 474.03 199.408 474.03" stroke="black" stroke-width="2" stroke-linecap="round" stroke-linejoin="round"></path><path d="M339.748 246.8C339.748 246.8 349.958 150.12 348.938 84.08C348.938 84.08 357.448 65.7 368.678 61.61C368.678 61.61 357.108 53.78 345.528 57.18C345.528 57.18 345.528 37.09 339.738 27.9C339.738 27.9 326.798 38.11 316.248 38.45C316.248 38.45 309.098 19.73 311.138 8.49C311.138 8.49 291.738 15.98 284.248 25.51C284.248 25.51 274.038 11.55 273.358 1C273.358 1 258.038 6.11 250.208 19.04C250.208 19.04 238.978 10.19 236.248 1C236.248 1 222.628 9.85 219.228 22.11C219.228 22.11 206.628 17.68 200.848 9.51C200.848 9.51 188.588 20.06 186.888 39.47C186.888 39.47 179.398 34.7 163.398 33.68C163.398 33.68 172.928 47.98 171.908 55.81C171.908 55.81 161.698 90.53 161.018 116.75C161.018 116.75 147.398 122.2 153.868 141.26L150.128 194.03C150.128 194.03 155.238 212.41 150.128 222.29C145.018 232.17 138.558 247.48 160.678 257.01C182.798 266.54 194.378 268.92 206.638 265.52C206.638 265.52 209.018 281.52 236.258 277.09C236.258 277.09 239.658 285.26 232.858 292.75C232.858 292.75 199.828 284.56 117.458 286.62C90.2283 287.3 78.3083 286.18 73.8883 272.79C69.4683 259.4 75.2483 252.58 64.6983 251.22C54.1483 249.86 52.4383 263.13 54.8283 275.05C54.8283 275.05 21.1283 254.62 12.9583 266.88C4.78825 279.14 28.9583 281.52 30.3183 283.22C31.6783 284.92 31.3382 288.67 26.5782 289.01C21.8182 289.35 2.06828 283.56 1.04828 297.86C0.0282788 312.16 15.3482 308.07 23.5182 306.71C31.6882 305.35 26.9183 313.52 19.7783 316.92C12.6383 320.32 5.47828 325.09 11.6083 334.28C17.7383 343.47 34.0783 328.15 34.0783 328.15C34.0783 328.15 44.5583 338.44 61.6483 333.94C68.1183 332.24 75.3483 338.2 82.7583 339.47C90.1683 340.74 211.948 353.51 211.948 353.51C211.948 353.51 212.718 363.72 217.308 373.94C217.308 373.94 204.798 415.81 234.928 445.94C265.058 476.07 289.568 481.68 331.948 478.11C374.328 474.54 408.628 436.71 411.608 406.62C414.158 380.83 410.698 372.28 395.778 356.58C390.928 351.47 390.418 351.22 389.648 344.84C388.878 338.46 383.008 335.39 383.008 335.39C383.008 335.39 386.068 330.79 396.288 329.01C406.508 327.23 431.998 326.72 476.458 282.03C485.648 272.79 496.118 260.07 499.438 259.31C502.758 258.55 505.568 260.33 516.288 245.01C516.288 245.01 525.988 251.9 531.858 250.12C537.728 248.34 544.118 239.14 533.898 233.78C523.678 228.42 517.748 226.85 518.578 221.01C518.838 219.22 538.238 224.33 538.238 211.82C538.238 199.31 532.108 196.5 522.668 201.1C513.228 205.7 504.288 202.89 504.288 198.29C504.288 193.69 516.798 186.55 511.948 179.65C507.098 172.75 499.948 172.5 493.568 181.44C487.188 190.38 483.098 197.53 483.098 197.53C483.098 197.53 478.248 187.06 468.288 189.62C458.328 192.18 468.548 208.77 460.888 220.51C453.228 232.25 405.758 269.04 383.528 270.81C358.508 272.8 346.508 279.49 346.508 279.49C346.508 279.49 334.338 274.38 339.788 246.81L339.748 246.8Z" fill="#FFD42A" stroke="black" stroke-width="2" stroke-linecap="round" stroke-linejoin="round"></path><path d="M330.898 237.1C330.898 237.1 340.088 222.55 350.298 233.53C360.508 244.51 355.408 257.27 344.678 260.08C333.948 262.89 329.358 254.97 329.358 254.97" fill="#FFD42A"></path><path d="M330.898 237.1C330.898 237.1 340.088 222.55 350.298 233.53C360.508 244.51 355.408 257.27 344.678 260.08C333.948 262.89 329.358 254.97 329.358 254.97" stroke="black" stroke-width="2" stroke-linecap="round" stroke-linejoin="round"></path><path d="M334.978 245.05C334.978 245.05 344.638 233.38 344.678 247.82C344.698 254.59 338.838 252.35 338.838 252.35" fill="#FFD42A"></path><path d="M334.978 245.05C334.978 245.05 344.638 233.38 344.678 247.82C344.698 254.59 338.838 252.35 338.838 252.35" stroke="black" stroke-width="2" stroke-linecap="round" stroke-linejoin="round"></path><path d="M346.218 240.92C346.218 240.92 341.498 238.43 337.088 242.9" stroke="black" stroke-width="2" stroke-linecap="round" stroke-linejoin="round"></path><path d="M280.348 272.79C280.348 272.79 275.498 268.24 274.728 265.43C273.958 262.62 272.938 257.52 272.938 257.52" fill="#FFD42A"></path><path d="M280.348 272.79C280.348 272.79 275.498 268.24 274.728 265.43C273.958 262.62 272.938 257.52 272.938 257.52" stroke="black" stroke-width="2" stroke-linecap="round" stroke-linejoin="round"></path><path d="M274.728 265.44C274.728 265.44 264.518 269.61 248.178 265.44C231.838 261.27 213.448 255.31 208.338 262.29C203.228 269.27 215.388 275.59 215.388 275.59C215.388 275.59 224.008 279.33 237.318 276.86" fill="#FFD42A"></path><path d="M274.728 265.44C274.728 265.44 264.518 269.61 248.178 265.44C231.838 261.27 213.448 255.31 208.338 262.29C203.228 269.27 215.388 275.59 215.388 275.59C215.388 275.59 224.008 279.33 237.318 276.86" stroke="black" stroke-width="2" stroke-linecap="round" stroke-linejoin="round"></path><path d="M232.028 143.85C232.028 143.85 218.808 121.44 184.848 125.78C150.888 130.12 146.298 159.48 146.548 171.99C146.798 184.5 145.778 213.44 197.868 210.59C249.958 207.74 232.028 143.85 232.028 143.85Z" fill="white" stroke="black" stroke-width="2" stroke-linecap="round" stroke-linejoin="round"></path><path d="M236.688 187.82C236.688 187.82 221.628 180.67 213.708 175.05C205.788 169.43 194.818 166.88 189.198 181.43C183.578 195.98 187.408 206.2 216.518 217.69" fill="#FFD42A"></path><path d="M236.688 187.82C236.688 187.82 221.628 180.67 213.708 175.05C205.788 169.43 194.818 166.88 189.198 181.43C183.578 195.98 187.408 206.2 216.518 217.69" stroke="black" stroke-width="2" stroke-linecap="round" stroke-linejoin="round"></path><path d="M382.978 335.39C382.978 335.39 379.578 337.69 379.238 345.52C378.898 353.35 381.108 378.88 364.428 393.52" fill="#FFD42A"></path><path d="M382.978 335.39C382.978 335.39 379.578 337.69 379.238 345.52C378.898 353.35 381.108 378.88 364.428 393.52" stroke="black" stroke-width="2" stroke-linecap="round" stroke-linejoin="round"></path><path d="M211.738 350.29C211.738 352 212.358 357.03 212.358 357.03Z" fill="#FFD42A"></path><path d="M211.738 350.29C211.738 352 212.358 357.03 212.358 357.03" stroke="black" stroke-width="2" stroke-linecap="round" stroke-linejoin="round"></path><path d="M346.468 279.48C346.468 279.48 339.918 281.61 334.978 286.8Z" fill="#FFD42A"></path><path d="M346.468 279.48C346.468 279.48 339.918 281.61 334.978 286.8" stroke="black" stroke-width="2" stroke-linecap="round" stroke-linejoin="round"></path><path d="M66.2183 311.48C66.2183 311.48 50.8983 310.12 46.9883 296.84Z" fill="#FFD42A"></path><path d="M66.2183 311.48C66.2183 311.48 50.8983 310.12 46.9883 296.84" stroke="black" stroke-width="2" stroke-linecap="round" stroke-linejoin="round"></path><path d="M495.068 217.95C495.068 217.95 503.748 235.7 480.768 242.91Z" fill="#FFD42A"></path><path d="M495.068 217.95C495.068 217.95 503.748 235.7 480.768 242.91" stroke="black" stroke-width="2" stroke-linecap="round" stroke-linejoin="round"></path><path d="M483.068 197.52C483.068 197.52 485.368 204.24 484.348 210.58Z" fill="#FFD42A"></path><path d="M483.068 197.52C483.068 197.52 485.368 204.24 484.348 210.58" stroke="black" stroke-width="2" stroke-linecap="round" stroke-linejoin="round"></path><path d="M54.8078 275.05C54.8078 275.05 54.8978 277.31 55.5278 279.86Z" fill="#FFD42A"></path><path d="M54.8078 275.05C54.8078 275.05 54.8978 277.31 55.5278 279.86" stroke="black" stroke-width="2" stroke-linecap="round" stroke-linejoin="round"></path><path d="M232.858 292.75C232.858 292.75 230.988 295.13 228.948 296.66Z" fill="#FFD42A"></path><path d="M232.858 292.75C232.858 292.75 230.988 295.13 228.948 296.66" stroke="black" stroke-width="2" stroke-linecap="round" stroke-linejoin="round"></path><path d="M166.638 168.5C163.021 168.5 160.088 165.832 160.088 162.54C160.088 159.248 163.021 156.58 166.638 156.58C170.255 156.58 173.188 159.248 173.188 162.54C173.188 165.832 170.255 168.5 166.638 168.5Z" fill="black"></path><path d="M276.638 210.58C249.073 210.58 226.728 189.958 226.728 164.52C226.728 139.082 249.073 118.46 276.638 118.46C304.202 118.46 326.548 139.082 326.548 164.52C326.548 189.958 304.202 210.58 276.638 210.58Z" fill="white" stroke="black" stroke-width="2" stroke-linecap="round" stroke-linejoin="round"></path><path d="M276.638 166.88C272.358 166.88 268.888 163.679 268.888 159.73C268.888 155.781 272.358 152.58 276.638 152.58C280.918 152.58 284.388 155.781 284.388 159.73C284.388 163.679 280.918 166.88 276.638 166.88Z" fill="black"></path><path d="M315.021 471.413C315.231 473.052 316.949 474.19 318.877 473.974C320.805 473.757 322.189 472.226 321.979 470.587C321.769 468.948 320.051 467.81 318.123 468.026C316.195 468.243 314.811 469.774 315.021 471.413ZM318.36 469.855C319.45 469.72 320.428 470.37 320.554 471.305C320.68 472.24 319.883 473.093 318.793 473.228C317.704 473.364 316.726 472.714 316.6 471.779C316.474 470.844 317.27 469.991 318.36 469.855Z" fill="black"></path><path d="M236.398 386.48C236.398 388.57 238.418 390.27 240.908 390.27C243.398 390.27 245.418 388.57 245.418 386.48C245.418 384.39 243.398 382.69 240.908 382.69C238.418 382.69 236.398 384.39 236.398 386.48ZM240.908 384.99C241.888 384.99 242.688 385.66 242.688 386.48C242.688 387.3 241.888 387.97 240.908 387.97C239.928 387.97 239.128 387.3 239.128 386.48C239.128 385.66 239.928 384.99 240.908 384.99Z" fill="black"></path><path d="M344.788 376.45C345.228 378.49 347.558 379.73 349.998 379.2C352.438 378.67 354.048 376.59 353.608 374.55C353.168 372.51 350.838 371.27 348.398 371.8C345.958 372.33 344.348 374.41 344.788 376.45ZM348.898 374.09C349.818 373.89 350.708 374.36 350.878 375.13C351.048 375.9 350.428 376.7 349.508 376.9C348.588 377.1 347.698 376.63 347.528 375.86C347.358 375.09 347.978 374.29 348.898 374.09Z" fill="black"></path><path d="M325.338 470.97C325.338 470.97 322.628 467.04 317.918 468.1C313.208 469.16 312.138 472.63 312.138 472.63" stroke="black" stroke-width="2" stroke-linecap="round" stroke-linejoin="round"></path></g></svg>