<svg xmlns="http://www.w3.org/2000/svg" width="1920" height="287" viewBox="0 0 1920 287" fill="none"><path d="M1448.38 157.742C1451.65 156.192 1455.15 155.002 1458.88 155.482C1465.86 156.382 1472.86 156.002 1479.86 156.092C1501.6 156.372 1522.23 151.412 1541.82 142.242C1546.37 140.112 1550.68 139.662 1555.45 140.372C1572.74 142.942 1589.91 142.082 1606.76 137.552C1614.06 135.592 1621.28 135.342 1628.62 136.292C1641.64 137.982 1654.57 138.482 1667.35 134.652C1669.4 134.042 1671.4 133.332 1671.76 130.932C1672.15 128.312 1670.28 126.952 1668.27 125.982C1657.09 120.572 1645.26 117.842 1632.86 118.732C1628.93 119.012 1625.95 118.112 1622.79 115.982C1614.58 110.442 1605.65 107.092 1595.5 108.632C1593.65 108.912 1592.27 108.252 1590.79 107.322C1586.62 104.712 1582.19 102.912 1577.11 103.652C1575.25 103.922 1573.9 103.042 1572.51 101.992C1569.52 99.7516 1566.48 97.6016 1563.08 95.9516C1553.66 91.3816 1544.41 93.5016 1535.29 96.6816C1532.06 97.8116 1529.34 97.6516 1526.28 96.3716C1512.32 90.5416 1498.27 89.2816 1484.26 96.2616C1482.16 97.3116 1480.94 96.4616 1479.55 95.0616C1468.85 84.2716 1455.77 81.2516 1441.28 84.1616C1437.42 84.9416 1436.02 84.0316 1434.51 80.6816C1428.04 66.3116 1418.28 54.7416 1403.25 49.0916C1372.12 37.3916 1341.3 37.9016 1311.55 53.7616C1300.89 59.4416 1291.83 67.2416 1285.8 78.0016C1284.63 80.0916 1283.07 80.6516 1280.83 80.8316C1268.45 81.8516 1257.55 86.0216 1249.66 96.1616C1248.12 98.1416 1246.31 98.2616 1244.19 97.5416C1236.14 94.8016 1227.84 93.4216 1219.4 92.5716C1202.59 90.8716 1185.88 90.5216 1169.59 95.9816C1163.22 98.1216 1157.28 101.182 1153.44 106.992C1151.86 109.382 1150.01 110.382 1147.21 110.462C1141.89 110.612 1136.62 112.032 1132.77 115.522C1128.59 119.312 1124.27 120.662 1120.52 119.932C1111.85 119.552 1104.94 120.492 1098.61 123.912C1091.4 127.802 1091.11 132.722 1097.91 137.312C1103.8 141.292 1110.67 142.772 1117.48 144.532C1126.56 146.882 1136.18 146.762 1144.89 150.862C1148.48 152.552 1152.48 153.252 1156.44 153.792C1177.29 156.652 1198.08 155.522 1218.85 152.902C1224.14 152.232 1229.49 151.792 1234.66 153.422C1245.24 156.742 1255.87 157.912 1266.73 155.022C1268.55 154.542 1270.31 154.652 1272.03 155.422C1289.18 162.992 1306.87 162.222 1324.58 158.332C1330.01 157.132 1334.79 157.312 1340.06 159.072C1353.97 163.722 1368.19 165.932 1382.77 162.112C1384.18 161.742 1385.63 161.362 1387.05 161.862C1392.12 163.642 1397.41 164.072 1402.71 164.432C1418.41 165.512 1433.81 164.652 1448.36 157.742H1448.38Z" fill="white"></path><path d="M1634.35 129.742C1621 127.702 1608.08 128.652 1595.41 133.172C1591.47 134.582 1587.52 135.002 1583.42 134.072C1580.66 133.442 1577.87 132.892 1575.1 132.322C1561.28 129.452 1547.53 128.422 1533.99 133.762C1531.38 134.792 1528.7 134.752 1525.99 134.092C1516.93 131.892 1507.78 130.652 1498.52 132.442C1492.96 133.512 1487.79 132.562 1482.64 130.582C1481.15 130.012 1479.55 129.722 1478.04 129.202C1465.38 124.802 1452.82 126.262 1440.34 129.972C1438.14 130.632 1436.61 129.942 1434.89 128.792C1427.72 124.022 1420.71 119.032 1412.35 116.332C1398.34 111.802 1383.86 110.652 1369.33 110.322C1359.24 110.092 1349.19 111.292 1339.21 113.092C1322.9 116.032 1307.53 121.262 1293.55 130.312C1289.86 132.702 1286.07 133.942 1281.38 133.282C1271.01 131.832 1260.7 132.982 1250.76 136.212C1247.37 137.312 1244.39 137.082 1241.06 136.332C1231.95 134.262 1223.08 131.322 1213.61 130.612C1204.93 129.952 1196.36 130.442 1187.78 131.052C1178.21 131.732 1168.67 132.682 1159.24 134.892C1150.16 137.022 1140.98 138.972 1131.5 136.092C1122.2 133.262 1112.8 130.762 1102.82 132.322C1099.59 132.832 1096.34 132.212 1093.13 131.472C1093.5 133.412 1095.09 135.392 1097.94 137.312C1103.83 141.292 1110.7 142.772 1117.51 144.532C1126.59 146.882 1136.21 146.762 1144.92 150.862C1148.51 152.552 1152.51 153.252 1156.47 153.792C1177.32 156.652 1198.11 155.522 1218.88 152.902C1224.17 152.232 1229.52 151.792 1234.69 153.422C1245.27 156.742 1255.9 157.912 1266.76 155.022C1268.58 154.542 1270.34 154.652 1272.06 155.422C1289.21 162.992 1306.9 162.222 1324.61 158.332C1330.04 157.132 1334.82 157.312 1340.09 159.072C1354 163.722 1368.22 165.932 1382.8 162.112C1384.21 161.742 1385.66 161.362 1387.08 161.862C1392.15 163.642 1397.44 164.072 1402.74 164.432C1418.44 165.512 1433.84 164.652 1448.39 157.742C1451.66 156.192 1455.16 155.002 1458.89 155.482C1465.87 156.382 1472.87 156.002 1479.87 156.092C1501.61 156.372 1522.24 151.412 1541.83 142.242C1546.38 140.112 1550.69 139.662 1555.46 140.372C1572.75 142.942 1589.92 142.082 1606.77 137.552C1614.07 135.592 1621.29 135.342 1628.63 136.292C1641.65 137.982 1654.58 138.482 1667.36 134.652C1669.41 134.042 1671.41 133.332 1671.77 130.932C1671.84 130.472 1671.82 130.072 1671.76 129.682C1669.03 130.922 1665.97 131.242 1663.08 131.492C1653.48 132.322 1643.84 131.182 1634.36 129.732L1634.35 129.742Z" fill="#D5EFFC"></path><path d="M271.161 150.813C278.841 152.733 286.661 153.003 294.521 152.943C301.401 152.823 308.351 152.593 315.031 154.383C330.541 158.523 346.311 158.513 362.121 157.633C366.911 157.363 371.661 156.443 376.401 155.383C381.421 154.263 386.521 152.823 391.781 154.013C404.311 156.853 417.041 157.793 429.851 157.993C436.961 158.103 444.081 157.743 451.191 158.363C464.761 159.533 478.291 161.553 491.971 160.833C496.061 160.623 500.161 160.423 504.251 160.153C518.821 159.193 533.341 158.083 547.321 153.193C557.811 149.523 568.721 148.633 579.821 149.733C591.001 150.843 602.281 151.693 613.411 150.293C621.621 149.263 629.441 149.993 637.421 151.543C654.861 154.913 672.361 155.693 689.881 151.993C692.111 151.523 694.161 150.123 696.531 150.423C701.981 151.123 707.361 149.783 712.791 149.913C714.741 149.963 716.831 149.683 717.491 147.373C718.141 145.123 716.541 143.733 715.031 142.533C711.891 140.023 708.001 139.483 704.231 138.673C702.331 138.263 700.371 137.973 699.031 136.403C694.591 131.203 688.691 129.033 682.141 128.413C679.431 128.153 677.951 126.903 676.561 124.603C672.121 117.263 665.361 111.883 656.981 112.023C648.521 112.163 641.901 109.723 635.691 104.683C635.321 104.383 634.871 104.163 634.431 103.973C620.621 97.9032 606.881 96.2432 593.301 104.663C592.711 105.023 591.721 105.553 591.341 105.313C587.651 103.013 582.651 102.853 580.181 98.5532C578.501 95.6232 576.871 92.6632 575.101 89.7832C562.571 69.4532 544.981 56.5232 521.011 53.0832C502.401 50.4132 484.391 52.5832 467.321 60.6632C454.141 66.9032 442.571 75.2132 434.951 88.0632C433.911 89.8132 432.571 90.0332 430.731 90.0532C422.371 90.1332 414.351 91.4432 407.921 97.4932C406.611 98.7332 405.181 98.7132 403.561 98.4432C398.681 97.6232 393.741 97.0032 388.791 97.3132C378.571 97.9532 368.921 100.153 361.891 108.523C360.661 109.993 359.011 110.153 357.301 110.153C350.341 110.153 343.601 111.513 337.151 114.013C330.431 116.613 324.331 120.253 320.361 126.583C319.411 128.103 318.291 128.673 316.491 128.543C309.981 128.053 303.481 128.273 296.981 128.983C286.351 130.153 276.931 134.013 268.831 141.043C266.921 142.703 265.511 144.643 266.161 147.343C266.781 149.933 269.051 150.293 271.181 150.823L271.161 150.813Z" fill="white"></path><path d="M693.871 142.123C691.181 142.323 688.601 141.573 686.041 140.763C672.381 136.413 658.611 133.213 644.231 137.233C642.301 137.773 640.511 137.283 638.831 136.113C633.041 132.073 626.311 130.073 619.811 127.623C612.241 124.763 604.151 124.693 596.221 123.943C587.291 123.093 578.421 123.693 569.941 126.653C566.641 127.803 564.401 127.423 561.561 125.563C548.001 116.663 532.771 112.493 516.801 111.003C504.351 109.843 491.971 111.113 479.861 114.083C467.941 117.013 455.861 119.623 445.551 126.973C440.551 130.543 435.281 132.883 428.671 132.373C418.681 131.603 408.981 133.663 399.841 137.923C398.001 138.783 396.161 138.673 394.271 138.193C383.891 135.563 373.881 137.023 364.121 140.983C362.191 141.763 360.261 142.333 358.211 142.073C344.341 140.283 330.941 142.773 317.641 146.333C314.211 147.253 310.681 148.083 307.141 146.953C298.501 144.213 289.901 144.763 281.251 146.913C276.881 148.003 272.551 149.533 268.051 149.803C268.971 150.303 270.091 150.533 271.181 150.803C278.861 152.723 286.681 152.993 294.541 152.933C301.421 152.813 308.371 152.583 315.051 154.373C330.561 158.513 346.331 158.503 362.141 157.623C366.931 157.353 371.681 156.433 376.421 155.373C381.441 154.253 386.541 152.813 391.801 154.003C404.331 156.843 417.061 157.783 429.871 157.983C436.981 158.093 444.101 157.733 451.211 158.353C464.781 159.523 478.311 161.543 491.991 160.823C496.081 160.613 500.181 160.413 504.271 160.143C518.841 159.183 533.361 158.073 547.341 153.183C557.831 149.513 568.741 148.623 579.841 149.723C591.021 150.833 602.301 151.683 613.431 150.283C621.641 149.253 629.461 149.983 637.441 151.533C654.881 154.903 672.381 155.683 689.901 151.983C692.131 151.513 694.181 150.113 696.551 150.413C702.001 151.113 707.381 149.773 712.811 149.903C714.761 149.953 716.851 149.673 717.511 147.363C717.611 147.003 717.641 146.673 717.641 146.363C717.171 146.223 716.711 146.073 716.241 145.923C708.961 143.603 701.671 141.533 693.891 142.113L693.871 142.123Z" fill="#D5EFFC"></path><path d="M537.77 207.752C542.37 209.762 547.49 209.532 552.2 211.092C560.39 213.802 568.74 214.152 577.23 212.842C584.88 211.662 592.58 210.632 600.3 211.552C611.61 212.892 622.81 213.482 634.15 211.472C645.12 209.532 656.24 209.522 667.33 210.842C671.18 210.642 675.07 210.872 678.83 209.732C680.7 209.162 681.96 207.902 682.39 205.982C682.71 204.562 681.78 203.642 680.67 203.102C675.28 200.432 670.31 196.782 664.23 195.702C660.86 195.102 658.82 193.502 657.41 190.162C653.28 180.412 645.27 175.842 634.71 176.692C632.88 176.842 631.21 176.872 629.52 175.792C622.01 171.022 613.92 171.292 605.81 173.642C601.3 174.952 596.74 176.552 594.09 180.942C592.78 183.112 590.95 184.102 588.52 184.422C583.86 185.052 579.68 186.792 576.28 190.162C575.3 191.132 574.14 191.642 572.77 191.862C563.38 193.322 554.52 197.042 545.09 198.372C542.61 198.722 540.2 199.692 537.83 200.582C536.03 201.252 534.01 202.102 534 204.422C534 206.702 536.14 207.062 537.77 207.772V207.752Z" fill="white"></path><path d="M634.15 211.462C645.12 209.522 656.24 209.512 667.33 210.832C671.18 210.632 675.07 210.862 678.83 209.722C680.7 209.152 681.96 207.892 682.39 205.972C682.46 205.652 682.46 205.362 682.42 205.082C681.45 205.592 680.33 205.412 679.21 205.012C675.07 203.562 670.91 203.322 666.55 204.002C661.59 204.772 656.76 203.982 652.41 201.292C648.05 198.602 643.33 198.442 638.57 199.522C636.12 200.072 634.51 199.482 632.61 197.942C627.59 193.852 621.85 191.762 615.22 192.732C608.55 193.712 602.35 196.162 596.86 199.822C590.7 203.932 584.21 204.352 577.22 203.802C570.05 203.232 562.95 203.162 555.72 204.772C549.22 206.222 542.59 205.062 536.93 200.922C535.42 201.562 534 202.472 534 204.402C534 206.682 536.14 207.042 537.77 207.752C542.37 209.762 547.49 209.532 552.2 211.092C560.39 213.802 568.74 214.152 577.23 212.842C584.88 211.662 592.58 210.632 600.3 211.552C611.61 212.892 622.81 213.482 634.15 211.472V211.462Z" fill="#D5EFFC"></path><path d="M1653.83 193.273C1653.65 193.113 1653.45 192.983 1653.26 192.833C1647.22 188.183 1640 186.663 1632.78 185.203C1630.49 184.743 1628.35 184.123 1626.48 182.673C1618.6 176.553 1609.27 175.313 1599.78 175.423C1596.55 175.463 1594.3 174.873 1592.18 172.543C1583.34 162.793 1572.12 158.653 1559.14 159.023C1548.54 159.323 1540.11 163.913 1534.13 172.673C1532.75 174.693 1531.24 175.663 1528.85 175.743C1520.7 176.023 1513.03 178.153 1506.57 183.193C1502.2 186.603 1497.69 188.313 1492.2 187.233C1484.64 186.603 1477.58 188.223 1471.05 192.113C1468.95 193.363 1466.82 194.703 1467.03 197.603C1467.23 200.333 1469.39 201.343 1471.5 202.313C1481.88 207.073 1493 208.023 1504.07 207.233C1518.32 206.203 1532.45 206.093 1546.64 207.843C1554.55 208.813 1562.52 208.683 1570.46 207.843C1579.79 206.853 1589.04 204.583 1598.51 205.513C1609.19 206.563 1619.86 207.443 1630.58 207.993C1637.79 208.363 1644.78 207.863 1651.64 205.703C1654.4 204.833 1657.62 203.993 1658.19 200.713C1658.78 197.363 1656.05 195.333 1653.84 193.283L1653.83 193.273Z" fill="white"></path><path d="M1657.13 200.053C1651.55 198.093 1646.04 198.993 1640.7 200.803C1637.71 201.813 1635.1 201.593 1632.26 200.433C1624.42 197.223 1616.37 195.023 1607.76 196.493C1605.89 196.813 1604.55 195.973 1603.14 194.883C1599.79 192.263 1596.3 189.763 1592.41 188.043C1576.39 180.953 1560.7 180.863 1545.55 190.583C1543.31 192.023 1541.1 193.343 1538.12 192.983C1527.81 191.733 1517.75 192.643 1508.27 197.283C1506.46 198.163 1504.56 198.443 1502.59 198.073C1493.16 196.313 1483.74 196.563 1474.3 198.013C1471.52 198.443 1469.04 197.813 1467.35 195.503C1467.09 196.103 1466.96 196.783 1467.01 197.593C1467.21 200.323 1469.37 201.333 1471.48 202.303C1481.86 207.063 1492.98 208.013 1504.05 207.223C1518.3 206.193 1532.43 206.083 1546.62 207.833C1554.53 208.803 1562.5 208.673 1570.44 207.833C1579.77 206.843 1589.02 204.573 1598.49 205.503C1609.17 206.553 1619.84 207.433 1630.56 207.983C1637.77 208.353 1644.76 207.853 1651.62 205.693C1654.38 204.823 1657.6 203.983 1658.17 200.703C1658.2 200.523 1658.22 200.353 1658.23 200.183C1657.86 200.213 1657.49 200.183 1657.12 200.063L1657.13 200.053Z" fill="#D5EFFC"></path><path d="M518.83 224.273C518.65 224.113 518.45 223.983 518.26 223.833C512.22 219.183 505 217.663 497.78 216.203C495.49 215.743 493.35 215.123 491.48 213.673C483.6 207.553 474.27 206.313 464.78 206.423C461.55 206.463 459.3 205.873 457.18 203.543C448.34 193.793 437.12 189.653 424.14 190.023C413.54 190.323 405.11 194.913 399.13 203.673C397.75 205.693 396.24 206.663 393.85 206.743C385.7 207.023 378.03 209.153 371.57 214.193C367.2 217.603 362.69 219.313 357.2 218.233C349.64 217.603 342.58 219.223 336.05 223.113C333.95 224.363 331.82 225.703 332.03 228.603C332.23 231.333 334.39 232.343 336.5 233.313C346.88 238.073 358 239.023 369.07 238.233C383.32 237.203 397.45 237.093 411.64 238.843C419.55 239.813 427.52 239.683 435.46 238.843C444.79 237.853 454.04 235.583 463.51 236.513C474.19 237.563 484.86 238.443 495.58 238.993C502.79 239.363 509.78 238.863 516.64 236.703C519.4 235.833 522.62 234.993 523.19 231.713C523.78 228.363 521.05 226.333 518.84 224.283L518.83 224.273Z" fill="white"></path><path d="M522.131 231.053C516.551 229.093 511.041 229.993 505.701 231.803C502.711 232.813 500.101 232.593 497.261 231.433C489.421 228.223 481.371 226.023 472.761 227.493C470.891 227.813 469.551 226.973 468.141 225.883C464.791 223.263 461.301 220.763 457.411 219.043C441.391 211.953 425.701 211.863 410.551 221.583C408.311 223.023 406.101 224.343 403.121 223.983C392.811 222.733 382.751 223.643 373.271 228.283C371.461 229.163 369.561 229.443 367.591 229.073C358.161 227.313 348.741 227.563 339.301 229.013C336.521 229.443 334.041 228.813 332.351 226.503C332.091 227.103 331.961 227.783 332.011 228.593C332.211 231.323 334.371 232.333 336.481 233.303C346.861 238.063 357.981 239.013 369.051 238.223C383.301 237.193 397.431 237.083 411.621 238.833C419.531 239.803 427.501 239.673 435.441 238.833C444.771 237.843 454.021 235.573 463.491 236.503C474.171 237.553 484.841 238.433 495.561 238.983C502.771 239.353 509.761 238.853 516.621 236.693C519.381 235.823 522.601 234.983 523.171 231.703C523.201 231.523 523.221 231.353 523.231 231.183C522.861 231.213 522.491 231.183 522.121 231.063L522.131 231.053Z" fill="#D5EFFC"></path><path d="M1195.45 261.066C1189.02 255.946 1181.71 252.781 1173.55 252.007C1170.37 251.71 1168.32 250.428 1166.62 247.903C1164.3 244.456 1161.64 241.259 1158.23 238.781C1148.46 231.661 1137.47 229.714 1125.73 231.434C1120.79 232.153 1120.84 232.302 1119.37 227.393C1117.52 221.187 1114.97 215.301 1110.54 210.478C1102.16 201.348 1091.15 198.128 1079.3 197.182C1072.95 196.682 1066.61 197.253 1060.78 200.137C1059.04 200.997 1057.73 200.934 1056.04 200.145C1050.88 197.745 1045.56 197.104 1040.19 199.574C1039.03 200.106 1038.06 200.121 1037.1 199.175C1033.09 195.212 1028.19 194.063 1022.76 194.947C1020.82 195.259 1019.85 194.65 1019.22 192.742C1016.08 183.347 1010.99 174.983 1005.24 167.011C999.021 158.389 989.923 154.082 980.215 150.901C969.6 147.423 958.626 147.047 947.527 147.001C934.739 146.946 923.733 151.198 913.713 158.694C912.618 159.515 911.524 160.132 910.14 160.195C902.957 160.507 896.188 162.376 889.833 165.713C878.554 171.646 870.628 180.181 868.658 193.251C868.346 195.33 867.267 196.369 865.336 196.94C857.911 199.144 852.549 203.662 849.961 211.111C849.211 213.276 848.203 213.87 845.756 213.253C835.907 210.767 827.075 212.917 819.626 219.952C818.336 221.171 817.132 221.562 815.577 220.905C813.146 219.881 810.738 218.795 808.315 217.755C789.751 209.829 770.382 206.499 750.27 207.969C743.306 208.477 736.349 209.689 730.065 212.979C719.489 218.513 712.485 227.018 709.586 238.711C709.226 240.165 708.444 240.954 706.991 241.33C704.388 242.002 702.027 243.198 700.245 245.269C699.135 246.559 698.041 246.606 696.509 245.988C688.669 242.823 680.485 241.744 672.09 242.432C666.658 242.877 661.444 244.198 657.121 247.747C655.738 248.888 654.354 249.56 652.58 249.717C645.67 250.334 640.183 253.383 636.494 259.393C635.775 260.566 634.923 261.465 633.406 261.559C625.684 262.059 619.165 266.632 611.7 268.031C611.254 268.117 610.817 268.375 610.418 268.617C609.191 269.375 607.932 270.227 608.003 271.845C608.081 273.565 609.41 274.471 610.848 275.042C613.154 275.957 615.593 276.207 618.055 276.308C626.919 276.676 635.712 277.52 644.435 279.302C660.146 282.515 675.975 283.648 691.975 281.577C696.352 281.006 700.862 280.983 705.247 281.717C717.05 283.687 728.884 283.64 740.765 282.866C752.06 282.132 763.332 281.647 774.572 283.804C779.746 284.797 785.038 285.086 790.322 285.368C804.048 286.11 817.382 283.687 830.67 280.811C835.204 279.834 839.8 279.036 844.412 279.31C852.228 279.771 859.974 280.983 867.72 282.147C876.608 283.484 885.503 284.101 894.5 283.202C902.293 282.421 910.133 282.311 917.902 283.539C929.299 285.344 940.734 286.321 952.279 285.915C953.311 285.876 954.35 285.985 955.39 286.048C967.169 286.775 978.941 286.845 990.705 285.602C997.927 284.836 1005.06 283.148 1012.27 282.632C1028.07 281.506 1043.91 281.069 1059.76 281.405C1065.27 281.522 1070.7 280.897 1076.06 279.794C1088.81 277.16 1101.57 274.557 1114.52 273.205C1121.07 272.517 1127.7 272.525 1134.28 272.087C1145.46 271.337 1156.59 269.625 1167.86 270.039C1170.87 270.039 1173.91 270.219 1176.91 270C1182.64 269.578 1188.42 269.61 1194.04 268.257C1195.64 267.874 1197.55 267.304 1197.83 265.311C1198.08 263.474 1196.82 262.145 1195.45 261.051V261.066Z" fill="white"></path><path d="M1114.52 273.229C1121.07 272.541 1127.7 272.549 1134.28 272.111C1145.46 271.36 1156.59 269.649 1167.86 270.063C1170.87 270.063 1173.91 270.243 1176.91 270.024C1182.64 269.602 1188.42 269.633 1194.04 268.281C1195.64 267.898 1197.55 267.327 1197.83 265.334C1197.95 264.412 1197.69 263.622 1197.24 262.926C1191.56 262.215 1185.86 262.184 1180.07 262.504C1173.37 262.872 1166.58 264.208 1159.91 263.02C1148.73 261.035 1137.58 259.706 1126.22 261.004C1119.24 261.801 1112.13 261.746 1105.47 264.474C1104.26 264.967 1103.01 265.146 1101.74 264.474C1099.81 263.466 1097.87 262.465 1095.88 261.574C1078.35 253.719 1060.54 252.304 1042.49 259.651C1040.29 260.542 1038.46 260.871 1036.29 259.878C1029.34 256.689 1022.2 255.946 1014.89 258.573C1013.2 259.175 1012.1 258.479 1010.99 257.275C1007.75 253.773 1004.24 250.592 1000.36 247.778C990.627 240.72 979.316 238.406 967.787 236.601C959.259 235.264 950.731 235.71 942.313 236.929C932.84 238.305 924.101 241.744 917.316 248.958C915.972 250.389 914.432 250.623 912.485 250.498C896.001 249.435 879.774 250.131 864.469 257.478C859.967 259.644 855.402 260.355 850.134 259.112C840.16 256.775 830.045 257.174 820.275 260.808C818.75 261.371 817.437 261.262 816.015 260.496C813.31 259.05 810.613 257.517 807.76 256.4C798.662 252.82 789.196 250.936 779.441 250.021C767.107 248.865 754.866 248.896 742.853 252.093C733.746 254.516 725.047 257.908 719.763 266.577C718.887 268.015 717.621 268.226 716.159 267.671C715.237 267.319 714.362 266.803 713.416 266.53C699.057 262.379 684.534 259.362 669.456 261.035C660.545 262.028 651.509 263.403 643.912 268.242C637.877 272.087 632.531 272.736 625.91 270.313C620.572 268.359 614.639 268.335 609.371 271.048C608.917 271.282 608.464 271.47 608.026 271.642C608.026 271.72 608.011 271.798 608.011 271.884C608.089 273.604 609.418 274.51 610.856 275.081C613.162 275.996 615.601 276.246 618.063 276.347C626.927 276.715 635.72 277.559 644.443 279.341C660.154 282.554 675.983 283.687 691.983 281.616C696.36 281.045 700.87 281.022 705.255 281.756C717.058 283.726 728.892 283.679 740.773 282.905C752.068 282.171 763.34 281.686 774.58 283.843C779.754 284.836 785.046 285.125 790.33 285.407C804.055 286.149 817.39 283.726 830.678 280.85C835.212 279.873 839.808 279.075 844.42 279.349C852.236 279.81 859.982 281.022 867.728 282.186C876.616 283.523 885.511 284.14 894.508 283.241C902.301 282.46 910.141 282.35 917.91 283.578C929.306 285.383 940.742 286.36 952.287 285.954C953.319 285.915 954.358 286.024 955.398 286.087C967.177 286.814 978.949 286.884 990.713 285.641C997.935 284.875 1005.06 283.187 1012.28 282.671C1028.08 281.545 1043.92 281.108 1059.77 281.444C1065.28 281.561 1070.71 280.936 1076.07 279.833C1088.82 277.199 1101.57 274.596 1114.53 273.244L1114.52 273.229Z" fill="#D5EFFC"></path><path d="M1452.08 228.629C1450.15 227.264 1448.01 226.142 1445.86 225.157C1432.16 218.911 1417.51 216.879 1402.67 216.03C1398.89 215.818 1395.77 215.363 1392.9 212.301C1380.38 198.899 1364.69 194.063 1346.7 196.367C1343.86 196.731 1341.77 195.882 1339.59 194.381C1319.07 180.222 1294.67 182.132 1277.06 199.324C1274.73 201.598 1272.33 202.932 1268.95 203.19C1262.15 203.705 1255.63 205.585 1249.81 209.33C1238.71 216.47 1228.69 225.597 1215.07 228.098C1214.74 228.159 1214.42 228.416 1214.12 228.614C1211.5 230.281 1208.36 231.737 1209.12 235.633C1209.8 239.211 1212.21 241.379 1215.77 242.091C1222.05 243.349 1228.26 244.562 1234.8 243.653C1241.51 242.713 1248.2 242.895 1254.88 244.881C1264.74 247.837 1274.85 249.505 1282.95 248.731C1290.88 248.595 1296.53 248.625 1302.18 247.973C1321.29 245.79 1340.39 244.957 1359.54 248.095C1367.07 249.323 1374.76 250.035 1382.47 249.808C1400.21 249.277 1417.72 246.063 1435.46 245.684C1439.81 245.593 1444.16 244.638 1448.5 243.956C1452.58 243.319 1455.85 241.454 1456.82 237.103C1457.75 232.98 1454.93 230.645 1452.06 228.598L1452.08 228.629Z" fill="white"></path><path d="M1456.09 239.15C1455.68 239.15 1455.26 239.12 1454.82 239.089C1432.5 237.786 1410.2 237.346 1387.93 239.847C1385.45 240.12 1382.96 239.62 1380.85 238.362C1369.28 231.449 1357.05 231.07 1344.42 234.45C1341.22 235.299 1338.13 235.557 1335.14 233.829C1318.68 224.278 1301.64 224.551 1284.1 230.493C1278.06 232.54 1271.82 233.95 1265.81 236.163C1260.61 238.074 1255.13 238.695 1249.74 237.088C1241.45 234.602 1233.19 234.177 1224.73 236.133C1220.71 237.073 1216.6 237.604 1212.45 236.633C1210.83 236.254 1209.55 235.663 1209.01 234.496C1209.01 234.86 1209.04 235.224 1209.11 235.633C1209.8 239.211 1212.21 241.379 1215.77 242.091C1222.05 243.349 1228.26 244.562 1234.8 243.653C1241.51 242.713 1248.2 242.895 1254.88 244.881C1264.74 247.837 1274.85 249.505 1282.95 248.731C1290.87 248.595 1296.53 248.625 1302.18 247.973C1321.29 245.79 1340.39 244.957 1359.54 248.095C1367.07 249.323 1374.76 250.035 1382.47 249.808C1400.21 249.277 1417.72 246.063 1435.46 245.684C1439.81 245.593 1444.16 244.638 1448.5 243.956C1451.86 243.425 1454.67 242.046 1456.09 239.135V239.15Z" fill="#D5EFFC"></path><path d="M1849.1 48.8029C1848.8 48.5331 1848.46 48.3138 1848.14 48.0608C1837.95 40.2183 1825.78 37.6548 1813.6 35.1924C1809.74 34.4166 1806.13 33.3709 1802.97 30.9254C1789.68 20.6036 1773.95 18.5123 1757.94 18.6978C1752.49 18.7653 1748.7 17.7702 1745.12 13.8405C1730.22 -2.60342 1711.29 -9.58576 1689.4 -8.96173C1671.52 -8.45576 1657.31 -0.714465 1647.22 14.0598C1644.89 17.4666 1642.35 19.1026 1638.31 19.2375C1624.57 19.7098 1611.63 23.3021 1600.74 31.8024C1593.37 37.5536 1585.76 40.4376 1576.5 38.6161C1563.75 37.5536 1551.84 40.2858 1540.83 46.8465C1537.29 48.9547 1533.7 51.2147 1534.05 56.1057C1534.39 60.71 1538.03 62.4134 1541.59 64.0494C1559.1 72.0774 1577.85 73.6797 1596.52 72.3473C1620.56 70.6101 1644.39 70.4246 1668.32 73.3761C1681.66 75.012 1695.1 74.7928 1708.49 73.3761C1724.23 71.7064 1739.83 67.8779 1755.8 69.4464C1773.81 71.2173 1791.81 72.7015 1809.89 73.6291C1822.05 74.2531 1833.84 73.4098 1845.41 69.7669C1850.06 68.2995 1855.49 66.8829 1856.45 61.3509C1857.45 55.701 1852.85 52.2772 1849.12 48.8198L1849.1 48.8029Z" fill="white"></path><path d="M1854.67 60.2379C1845.26 56.9322 1835.96 58.4501 1826.96 61.5028C1821.91 63.2062 1817.51 62.8352 1812.72 60.8788C1799.5 55.4649 1785.92 51.7545 1771.4 54.2337C1768.25 54.7734 1765.99 53.3567 1763.61 51.5183C1757.96 47.0995 1752.07 42.8831 1745.51 39.9823C1718.49 28.0245 1692.03 27.8728 1666.48 44.2661C1662.7 46.6948 1658.97 48.921 1653.95 48.3139C1636.56 46.2057 1619.59 47.7404 1603.61 55.5661C1600.55 57.0502 1597.35 57.5225 1594.03 56.8984C1578.12 53.9301 1562.23 54.3517 1546.31 56.7973C1541.62 57.5225 1537.44 56.4599 1534.59 52.564C1534.15 53.5759 1533.93 54.7228 1534.02 56.0889C1534.36 60.6932 1538 62.3966 1541.56 64.0326C1559.06 72.0606 1577.82 73.6628 1596.49 72.3305C1620.52 70.5933 1644.35 70.4078 1668.28 73.3593C1681.63 74.9952 1695.07 74.776 1708.46 73.3593C1724.19 71.6896 1739.79 67.8611 1755.77 69.4296C1773.78 71.2005 1791.77 72.6847 1809.85 73.6123C1822.01 74.2363 1833.8 73.393 1845.37 69.75C1850.03 68.2827 1855.46 66.866 1856.42 61.3341C1856.47 61.0305 1856.5 60.7438 1856.52 60.4571C1855.9 60.5077 1855.27 60.4571 1854.65 60.2547L1854.67 60.2379Z" fill="#D5EFFC"></path><path d="M71.5397 48.8029C71.8433 48.5331 72.1806 48.3138 72.5011 48.0608C82.6879 40.2183 94.8649 37.6548 107.042 35.1924C110.904 34.4166 114.513 33.3709 117.667 30.9254C130.957 20.6036 146.693 18.5123 162.698 18.6978C168.146 18.7653 171.941 17.7702 175.516 13.8405C190.425 -2.60342 209.349 -9.58576 231.24 -8.96173C249.118 -8.45576 263.335 -0.714465 273.421 14.0598C275.748 17.4666 278.295 19.1026 282.326 19.2375C296.071 19.7098 309.007 23.3021 319.903 31.8024C327.273 37.5536 334.879 40.4376 344.138 38.6161C356.889 37.5536 368.796 40.2858 379.809 46.8465C383.351 48.9547 386.943 51.2147 386.589 56.1057C386.252 60.71 382.609 62.4134 379.05 64.0494C361.544 72.0774 342.789 73.6797 324.119 72.3473C300.085 70.6101 276.254 70.4246 252.322 73.3761C238.981 75.012 225.54 74.7928 212.148 73.3761C196.413 71.7064 180.812 67.8779 164.84 69.4464C146.828 71.2173 128.832 72.7015 110.752 73.6291C98.5921 74.2531 86.8031 73.4098 75.2333 69.7669C70.5784 68.2995 65.1477 66.8829 64.1864 61.3509C63.1913 55.701 67.7956 52.2772 71.5229 48.8198L71.5397 48.8029Z" fill="white"></path><path d="M65.9741 60.2379C75.3851 56.9322 84.6781 58.4501 93.6843 61.5028C98.7271 63.2062 103.129 62.8352 107.919 60.8788C121.141 55.4649 134.718 51.7545 149.24 54.2337C152.393 54.7734 154.653 53.3567 157.031 51.5183C162.681 47.0995 168.568 42.8831 175.128 39.9823C202.147 28.0245 228.609 27.8728 254.16 44.2661C257.938 46.6948 261.666 48.921 266.692 48.3139C284.08 46.2057 301.047 47.7404 317.035 55.5661C320.088 57.0502 323.293 57.5225 326.615 56.8984C342.519 53.9301 358.407 54.3517 374.328 56.7973C379.016 57.5225 383.199 56.4599 386.049 52.564C386.488 53.5759 386.707 54.7228 386.623 56.0889C386.286 60.6932 382.643 62.3966 379.084 64.0326C361.577 72.0606 342.823 73.6628 324.153 72.3305C300.119 70.5933 276.288 70.4078 252.356 73.3593C239.015 74.9952 225.573 74.776 212.182 73.3593C196.446 71.6896 180.846 67.8611 164.874 69.4296C146.861 71.2005 128.866 72.6847 110.786 73.6123C98.6259 74.2363 86.8368 73.393 75.267 69.75C70.6121 68.2827 65.1814 66.866 64.2201 61.3341C64.1695 61.0305 64.1358 60.7438 64.1189 60.4571C64.7429 60.5077 65.3669 60.4571 65.991 60.2547L65.9741 60.2379Z" fill="#D5EFFC"></path><path d="M707.491 48.8029C707.794 48.5331 708.132 48.3138 708.452 48.0608C718.639 40.2183 730.816 37.6548 742.993 35.1924C746.855 34.4166 750.464 33.3709 753.618 30.9254C766.908 20.6036 782.644 18.5123 798.649 18.6978C804.097 18.7653 807.892 17.7702 811.467 13.8405C826.376 -2.60342 845.3 -9.58576 867.191 -8.96173C885.069 -8.45576 899.286 -0.714465 909.372 14.0598C911.7 17.4666 914.246 19.1026 918.277 19.2375C932.023 19.7098 944.959 23.3021 955.854 31.8024C963.224 37.5536 970.83 40.4376 980.09 38.6161C992.84 37.5536 1004.75 40.2858 1015.76 46.8465C1019.3 48.9547 1022.89 51.2147 1022.54 56.1057C1022.2 60.71 1018.56 62.4134 1015 64.0494C997.495 72.0774 978.74 73.6797 960.07 72.3473C936.037 70.6101 912.206 70.4246 888.273 73.3761C874.933 75.012 861.491 74.7928 848.099 73.3761C832.364 71.7064 816.763 67.8779 800.791 69.4464C782.779 71.2173 764.783 72.7015 746.703 73.6291C734.543 74.2531 722.754 73.4098 711.184 69.7669C706.53 68.2995 701.099 66.8829 700.138 61.3509C699.142 55.701 703.747 52.2772 707.474 48.8198L707.491 48.8029Z" fill="white"></path><path d="M701.925 60.2379C711.336 56.9322 720.629 58.4501 729.635 61.5028C734.678 63.2062 739.08 62.8352 743.87 60.8788C757.093 55.4649 770.669 51.7545 785.191 54.2337C788.345 54.7734 790.605 53.3567 792.983 51.5183C798.633 47.0995 804.519 42.8831 811.079 39.9823C838.098 28.0245 864.56 27.8728 890.112 44.2661C893.889 46.6948 897.617 48.921 902.643 48.3139C920.031 46.2057 936.998 47.7404 952.987 55.5661C956.039 57.0502 959.244 57.5225 962.566 56.8984C978.47 53.9301 994.358 54.3517 1010.28 56.7973C1014.97 57.5225 1019.15 56.4599 1022 52.564C1022.44 53.5759 1022.66 54.7228 1022.57 56.0889C1022.24 60.6932 1018.59 62.3966 1015.04 64.0326C997.529 72.0606 978.774 73.6628 960.104 72.3305C936.07 70.5933 912.239 70.4078 888.307 73.3593C874.966 74.9952 861.524 74.776 848.133 73.3593C832.398 71.6896 816.797 67.8611 800.825 69.4296C782.813 71.2005 764.817 72.6847 746.737 73.6123C734.577 74.2363 722.788 73.393 711.218 69.75C706.563 68.2827 701.133 66.866 700.171 61.3341C700.121 61.0305 700.087 60.7438 700.07 60.4571C700.694 60.5077 701.318 60.4571 701.942 60.2547L701.925 60.2379Z" fill="#D5EFFC"></path><path d="M1692.16 166.813C1699.84 168.733 1707.66 169.003 1715.52 168.943C1722.4 168.823 1729.35 168.593 1736.03 170.383C1751.54 174.523 1767.31 174.513 1783.12 173.633C1787.91 173.363 1792.66 172.443 1797.4 171.383C1802.42 170.263 1807.52 168.823 1812.78 170.013C1825.31 172.853 1838.04 173.793 1850.85 173.993C1857.96 174.103 1865.08 173.743 1872.19 174.363C1885.76 175.533 1899.29 177.553 1912.97 176.833C1917.06 176.623 1921.16 176.423 1925.25 176.153C1939.82 175.193 1954.34 174.083 1968.32 169.193C1978.81 165.523 1989.72 164.633 2000.82 165.733C2012 166.843 2023.28 167.693 2034.41 166.293C2042.62 165.263 2050.44 165.993 2058.42 167.543C2075.86 170.913 2093.36 171.693 2110.88 167.993C2113.11 167.523 2115.16 166.123 2117.53 166.423C2122.98 167.123 2128.36 165.783 2133.79 165.913C2135.74 165.963 2137.83 165.683 2138.49 163.373C2139.14 161.123 2137.54 159.733 2136.03 158.533C2132.89 156.023 2129 155.483 2125.23 154.673C2123.33 154.263 2121.37 153.973 2120.03 152.403C2115.59 147.203 2109.69 145.033 2103.14 144.413C2100.43 144.153 2098.95 142.903 2097.56 140.603C2093.12 133.263 2086.36 127.883 2077.98 128.023C2069.52 128.163 2062.9 125.723 2056.69 120.683C2056.32 120.383 2055.87 120.163 2055.43 119.973C2041.62 113.903 2027.88 112.243 2014.3 120.663C2013.71 121.023 2012.72 121.553 2012.34 121.313C2008.65 119.013 2003.65 118.853 2001.18 114.553C1999.5 111.623 1997.87 108.663 1996.1 105.783C1983.57 85.4532 1965.98 72.5232 1942.01 69.0832C1923.4 66.4132 1905.39 68.5832 1888.32 76.6632C1875.14 82.9032 1863.57 91.2132 1855.95 104.063C1854.91 105.813 1853.57 106.033 1851.73 106.053C1843.37 106.133 1835.35 107.443 1828.92 113.493C1827.61 114.733 1826.18 114.713 1824.56 114.443C1819.68 113.623 1814.74 113.003 1809.79 113.313C1799.57 113.953 1789.92 116.153 1782.89 124.523C1781.66 125.993 1780.01 126.153 1778.3 126.153C1771.34 126.153 1764.6 127.513 1758.15 130.013C1751.43 132.613 1745.33 136.253 1741.36 142.583C1740.41 144.103 1739.29 144.673 1737.49 144.543C1730.98 144.053 1724.48 144.273 1717.98 144.983C1707.35 146.153 1697.93 150.013 1689.83 157.043C1687.92 158.703 1686.51 160.643 1687.16 163.343C1687.78 165.933 1690.05 166.293 1692.18 166.823L1692.16 166.813Z" fill="white"></path><path d="M2114.87 158.123C2112.18 158.323 2109.6 157.573 2107.04 156.763C2093.38 152.413 2079.61 149.213 2065.23 153.233C2063.3 153.773 2061.51 153.283 2059.83 152.113C2054.04 148.073 2047.31 146.073 2040.81 143.623C2033.24 140.763 2025.15 140.693 2017.22 139.943C2008.29 139.093 1999.42 139.693 1990.94 142.653C1987.64 143.803 1985.4 143.423 1982.56 141.563C1969 132.663 1953.77 128.493 1937.8 127.003C1925.35 125.843 1912.97 127.113 1900.86 130.083C1888.94 133.013 1876.86 135.623 1866.55 142.973C1861.55 146.543 1856.28 148.883 1849.67 148.373C1839.68 147.603 1829.98 149.663 1820.84 153.923C1819 154.783 1817.16 154.673 1815.27 154.193C1804.89 151.563 1794.88 153.023 1785.12 156.983C1783.19 157.763 1781.26 158.333 1779.21 158.073C1765.34 156.283 1751.94 158.773 1738.64 162.333C1735.21 163.253 1731.68 164.083 1728.14 162.953C1719.5 160.213 1710.9 160.763 1702.25 162.913C1697.88 164.003 1693.55 165.533 1689.05 165.803C1689.97 166.303 1691.09 166.533 1692.18 166.803C1699.86 168.723 1707.68 168.993 1715.54 168.933C1722.42 168.813 1729.37 168.583 1736.05 170.373C1751.56 174.513 1767.33 174.503 1783.14 173.623C1787.93 173.353 1792.68 172.433 1797.42 171.373C1802.44 170.253 1807.54 168.813 1812.8 170.003C1825.33 172.843 1838.06 173.783 1850.87 173.983C1857.98 174.093 1865.1 173.733 1872.21 174.353C1885.78 175.523 1899.31 177.543 1912.99 176.823C1917.08 176.613 1921.18 176.413 1925.27 176.143C1939.84 175.183 1954.36 174.073 1968.34 169.183C1978.83 165.513 1989.74 164.623 2000.84 165.723C2012.02 166.833 2023.3 167.683 2034.43 166.283C2042.64 165.253 2050.46 165.983 2058.44 167.533C2075.88 170.903 2093.38 171.683 2110.9 167.983C2113.13 167.513 2115.18 166.113 2117.55 166.413C2123 167.113 2128.38 165.773 2133.81 165.903C2135.76 165.953 2137.85 165.673 2138.51 163.363C2138.61 163.003 2138.64 162.673 2138.64 162.363C2138.17 162.223 2137.71 162.073 2137.24 161.923C2129.96 159.603 2122.67 157.533 2114.89 158.113L2114.87 158.123Z" fill="#D5EFFC"></path><path d="M228.48 166.813C220.8 168.733 212.98 169.003 205.12 168.943C198.24 168.823 191.29 168.593 184.61 170.383C169.1 174.523 153.33 174.513 137.52 173.633C132.73 173.363 127.98 172.443 123.24 171.383C118.22 170.263 113.12 168.823 107.86 170.013C95.3301 172.853 82.6001 173.793 69.7901 173.993C62.6801 174.103 55.56 173.743 48.45 174.363C34.88 175.533 21.3501 177.553 7.67006 176.833C3.58006 176.623 -0.51997 176.423 -4.60997 176.153C-19.18 175.193 -33.7 174.083 -47.68 169.193C-58.17 165.523 -69.08 164.633 -80.18 165.733C-91.36 166.843 -102.64 167.693 -113.77 166.293C-121.98 165.263 -129.8 165.993 -137.78 167.543C-155.22 170.913 -172.72 171.693 -190.24 167.993C-192.47 167.523 -194.52 166.123 -196.89 166.423C-202.34 167.123 -207.72 165.783 -213.15 165.913C-215.1 165.963 -217.19 165.683 -217.85 163.373C-218.5 161.123 -216.9 159.733 -215.39 158.533C-212.25 156.023 -208.36 155.483 -204.59 154.673C-202.69 154.263 -200.73 153.973 -199.39 152.403C-194.95 147.203 -189.05 145.033 -182.5 144.413C-179.79 144.153 -178.31 142.903 -176.92 140.603C-172.48 133.263 -165.72 127.883 -157.34 128.023C-148.88 128.163 -142.26 125.723 -136.05 120.683C-135.68 120.383 -135.23 120.163 -134.79 119.973C-120.98 113.903 -107.24 112.243 -93.66 120.663C-93.07 121.023 -92.08 121.553 -91.7 121.313C-88.01 119.013 -83.01 118.853 -80.54 114.553C-78.86 111.623 -77.23 108.663 -75.46 105.783C-62.93 85.4532 -45.34 72.5232 -21.37 69.0832C-2.75998 66.4132 15.25 68.5832 32.32 76.6632C45.5 82.9032 57.07 91.2132 64.69 104.063C65.73 105.813 67.07 106.033 68.91 106.053C77.27 106.133 85.29 107.443 91.72 113.493C93.03 114.733 94.46 114.713 96.08 114.443C100.96 113.623 105.9 113.003 110.85 113.313C121.07 113.953 130.72 116.153 137.75 124.523C138.98 125.993 140.63 126.153 142.34 126.153C149.3 126.153 156.04 127.513 162.49 130.013C169.21 132.613 175.31 136.253 179.28 142.583C180.23 144.103 181.35 144.673 183.15 144.543C189.66 144.053 196.16 144.273 202.66 144.983C213.29 146.153 222.71 150.013 230.81 157.043C232.72 158.703 234.13 160.643 233.48 163.343C232.86 165.933 230.59 166.293 228.46 166.823L228.48 166.813Z" fill="white"></path><path d="M-194.23 158.123C-191.54 158.323 -188.96 157.573 -186.4 156.763C-172.74 152.413 -158.97 149.213 -144.59 153.233C-142.66 153.773 -140.87 153.283 -139.19 152.113C-133.4 148.073 -126.67 146.073 -120.17 143.623C-112.6 140.763 -104.51 140.693 -96.5801 139.943C-87.6501 139.093 -78.7802 139.693 -70.3002 142.653C-67.0002 143.803 -64.7602 143.423 -61.9202 141.563C-48.3602 132.663 -33.1302 128.493 -17.1602 127.003C-4.71016 125.843 7.66985 127.113 19.7798 130.083C31.6998 133.013 43.7798 135.623 54.0898 142.973C59.0898 146.543 64.3598 148.883 70.9698 148.373C80.9598 147.603 90.6599 149.663 99.7999 153.923C101.64 154.783 103.48 154.673 105.37 154.193C115.75 151.563 125.76 153.023 135.52 156.983C137.45 157.763 139.38 158.333 141.43 158.073C155.3 156.283 168.7 158.773 182 162.333C185.43 163.253 188.96 164.083 192.5 162.953C201.14 160.213 209.74 160.763 218.39 162.913C222.76 164.003 227.09 165.533 231.59 165.803C230.67 166.303 229.55 166.533 228.46 166.803C220.78 168.723 212.96 168.993 205.1 168.933C198.22 168.813 191.27 168.583 184.59 170.373C169.08 174.513 153.31 174.503 137.5 173.623C132.71 173.353 127.96 172.433 123.22 171.373C118.2 170.253 113.1 168.813 107.84 170.003C95.3098 172.843 82.5798 173.783 69.7698 173.983C62.6598 174.093 55.5399 173.733 48.4299 174.353C34.8599 175.523 21.3298 177.543 7.64984 176.823C3.55984 176.613 -0.540127 176.413 -4.63013 176.143C-19.2001 175.183 -33.7201 174.073 -47.7001 169.183C-58.1901 165.513 -69.1001 164.623 -80.2001 165.723C-91.3801 166.833 -102.66 167.683 -113.79 166.283C-122 165.253 -129.82 165.983 -137.8 167.533C-155.24 170.903 -172.74 171.683 -190.26 167.983C-192.49 167.513 -194.54 166.113 -196.91 166.413C-202.36 167.113 -207.74 165.773 -213.17 165.903C-215.12 165.953 -217.21 165.673 -217.87 163.363C-217.97 163.003 -218 162.673 -218 162.363C-217.53 162.223 -217.07 162.073 -216.6 161.923C-209.32 159.603 -202.03 157.533 -194.25 158.113L-194.23 158.123Z" fill="#D5EFFC"></path></svg>