<svg xmlns="http://www.w3.org/2000/svg" width="60" height="60" viewBox="0 0 60 60" fill="none"><path d="M58.2352 56.6262C58.2352 59.8592 1.27045 58.1874 1.28889 55.9624L1.00001 3.23866C0.975422 0.355999 57.8418 1.08127 57.8418 1.08127C58.8744 1.05054 58.2352 56.6262 58.2352 56.6262Z" fill="#C68717" stroke="black" stroke-width="2" stroke-miterlimit="10"></path><path opacity="0.2" d="M1.59624 56.2697L1.23975 55.3354L3.88884 53.8541L6.09539 52.4343L50.2203 53.3194L52.6973 52.4343L54.4613 53.0551L55.0514 53.4177L58.1922 56.2697L57.8541 57.0318L54.7072 57.7694L29.1935 58.3349L1.59624 56.2697Z" fill="black"></path><path d="M6.22426 12.7655C6.22426 12.7655 5.86777 5.60495 6.32875 5.60495C8.28945 5.60495 42.7461 5.22388 42.7461 5.22388" fill="#C68717"></path><path d="M6.22426 12.7655C6.22426 12.7655 5.86777 5.60495 6.32875 5.60495C8.28945 5.60495 42.7461 5.22388 42.7461 5.22388" stroke="black" stroke-width="2" stroke-linecap="round" stroke-linejoin="round"></path><path d="M6.0956 18.3219C6.0956 18.3219 5.84974 50.7072 6.0956 52.4344C6.34145 54.1615 33.7666 53.0797 33.7666 53.0797" fill="#C68717"></path><path d="M6.0956 18.3219C6.0956 18.3219 5.84974 50.7072 6.0956 52.4344C6.34145 54.1615 33.7666 53.0797 33.7666 53.0797" stroke="black" stroke-width="2" stroke-linecap="round" stroke-linejoin="round"></path><path d="M44.8423 53.258C44.8423 53.258 53.0784 53.8542 53.0784 51.746V31.0573" fill="#C68717"></path><path d="M44.8423 53.258C44.8423 53.258 53.0784 53.8542 53.0784 51.746V31.0573" stroke="black" stroke-width="2" stroke-linecap="round" stroke-linejoin="round"></path><path d="M46.0654 5.21778C46.0654 5.21778 52.8326 4.19748 53.0785 6.39789C53.3243 8.5983 52.8879 23.5832 52.8879 23.5832" fill="#C68717"></path><path d="M46.0654 5.21778C46.0654 5.21778 52.8326 4.19748 53.0785 6.39789C53.3243 8.5983 52.8879 23.5832 52.8879 23.5832" stroke="black" stroke-width="2" stroke-linecap="round" stroke-linejoin="round"></path><path d="M1.28311 55.9624C1.19706 55.6796 5.18607 52.883 6.08959 52.4343Z" fill="#C68717"></path><path d="M1.28311 55.9624C1.19706 55.6796 5.18607 52.883 6.08959 52.4343" stroke="black" stroke-width="2" stroke-linecap="round" stroke-linejoin="round"></path><path d="M53.0781 52.2992C53.0781 52.2992 57.9092 54.6778 58.2349 56.6263Z" fill="#C68717"></path><path d="M53.0781 52.2992C53.0781 52.2992 57.9092 54.6778 58.2349 56.6263" stroke="black" stroke-width="2" stroke-linecap="round" stroke-linejoin="round"></path><path d="M6.32892 5.5989C6.32892 5.5989 2.97914 5.21783 1 3.23254Z" fill="#C68717"></path><path d="M6.32892 5.5989C6.32892 5.5989 2.97914 5.21783 1 3.23254" stroke="black" stroke-width="2" stroke-linecap="round" stroke-linejoin="round"></path><path d="M53.0781 5.59888C53.0781 5.59888 57.5097 3.40462 57.8846 1.34558Z" fill="#C68717"></path><path d="M53.0781 5.59888C53.0781 5.59888 57.5097 3.40462 57.8846 1.34558" stroke="black" stroke-width="2" stroke-linecap="round" stroke-linejoin="round"></path><path opacity="0.2" d="M53.2077 51.7521L53.2814 51.0515L53.1523 18.3219L53.2077 5.5989L55.8322 3.98854L58.1063 1.0813L58.5181 13.2757V46.9641L58.3706 56.2697L55.6539 53.8173L53.2077 51.7521Z" fill="black"></path><path fill-rule="evenodd" clip-rule="evenodd" d="M29.8082 39.7175C29.003 39.7175 28.2962 39.2012 28.0503 38.4329L27.8659 37.8428C27.0177 35.1384 26.2802 32.8028 24.0859 31.5735C23.5081 31.2477 23.1455 30.6392 23.1455 29.9754C23.1455 29.3116 23.4958 28.697 24.0675 28.3651L25.0816 27.7812C25.0816 27.019 25.1431 26.3245 25.2721 25.6914C25.1492 25.6976 25.0263 25.7037 24.9034 25.7037C24.5223 25.7037 24.1412 25.6607 23.7724 25.5808C23.1025 25.4333 22.4755 25.1382 21.9715 24.7387C21.4184 24.3023 21.0066 23.7369 20.7853 23.1099C20.5517 22.4523 20.4104 21.3951 21.0434 20.0859C21.1233 19.9261 21.2217 19.7786 21.3385 19.6495C19.0274 17.6273 16.9438 15.1258 16.1755 12.6242C15.905 11.7452 16.3291 10.8048 17.1589 10.4176C17.4109 10.3008 17.6752 10.2455 17.9395 10.2455C18.548 10.2455 19.1319 10.5467 19.4822 11.0814C19.7342 11.4687 20.1399 11.8251 20.478 12.0464C20.607 11.9358 20.7361 11.8251 20.8713 11.7145C21.8855 10.8909 22.9918 10.2148 24.1658 9.70464C25.813 8.98552 27.7491 8.57985 29.7652 8.52454C29.7836 8.52454 29.8451 8.52454 29.8635 8.52454C31.8795 8.57985 33.8156 8.98552 35.4629 9.6985C36.6368 10.2086 37.7432 10.8848 38.7573 11.7084C38.8987 11.819 39.0278 11.9296 39.1507 12.0403C39.4887 11.819 39.8944 11.4687 40.1464 11.0753C40.4968 10.5406 41.0868 10.2394 41.6892 10.2394C41.9534 10.2394 42.2177 10.2947 42.4697 10.4115C43.2995 10.7987 43.7236 11.7391 43.4532 12.618C42.691 15.1196 40.6012 17.6212 38.2902 19.6434C38.407 19.7724 38.5053 19.9199 38.5852 20.0798C39.2122 21.3889 39.0708 22.4461 38.8434 23.0976C38.6221 23.7307 38.2103 24.29 37.6571 24.7264C37.147 25.1259 36.52 25.421 35.8501 25.5685C35.4874 25.6484 35.1064 25.6914 34.7191 25.6914C34.5962 25.6914 34.4733 25.6914 34.3504 25.6791C34.4794 26.3122 34.5409 27.0067 34.5409 27.7689L35.5551 28.3528C36.1267 28.6847 36.4832 29.2993 36.477 29.9631C36.4709 30.627 36.1144 31.2355 35.5366 31.5612C33.3424 32.7905 32.6109 35.1261 31.7566 37.8244L31.5722 38.4144C31.3263 39.1766 30.6195 39.699 29.8143 39.699L29.8082 39.7175Z" fill="black"></path><path fill-rule="evenodd" clip-rule="evenodd" d="M29.8084 48.7342C29.1692 48.7342 28.573 48.4023 28.2411 47.8553L24.4119 41.6474L22.9245 43.0488C22.5803 43.3746 22.1254 43.5528 21.6583 43.5528C21.5784 43.5528 21.4985 43.5528 21.4186 43.5344C20.8716 43.4606 20.3798 43.1471 20.091 42.6739L18.204 39.6068L15.6102 41.6966C15.2722 41.967 14.8604 42.1022 14.4547 42.1022C14.0491 42.1022 13.625 41.9609 13.2808 41.6781C12.6047 41.1188 12.4141 40.1661 12.8259 39.3917C14.5899 36.0603 15.5181 32.268 15.5857 28.1315L15.6041 26.4658V23.2513C15.6041 21.0017 16.1204 18.8812 17.1776 16.7607L17.4788 16.1891C17.7799 15.6236 18.3515 15.2548 18.9908 15.2118C19.0276 15.2118 19.0707 15.2118 19.1075 15.2118C19.7037 15.2118 20.2631 15.5007 20.6073 15.9862C21.2158 16.8406 21.8365 17.5904 22.445 18.2051C22.9921 18.7583 23.1334 19.6003 22.7954 20.301L22.5495 20.8112C22.3405 21.2475 22.1377 21.8991 22.3651 22.5444C22.4819 22.8702 22.7032 23.1714 23.0044 23.4111C23.3178 23.6569 23.705 23.8352 24.1353 23.9335C24.3811 23.9888 24.6393 24.0196 24.8974 24.0196C24.8974 24.0196 25.045 24.0196 25.0634 24.0196C25.5981 24.0196 26.1083 24.2531 26.4586 24.6588C26.8213 25.0767 26.9749 25.6422 26.8827 26.1831C26.8028 26.6379 26.7598 27.1481 26.7598 27.6951C26.7598 28.3528 26.4033 28.9551 25.8378 29.2809L24.6639 29.957L24.9097 30.0922C25.2416 30.2766 25.5613 30.4979 25.8624 30.7314C25.887 30.7499 25.9177 30.7745 25.9423 30.799C27.651 32.3356 28.8557 35.163 29.8146 38.0641C30.7734 35.163 31.9781 32.3295 33.6868 30.799C33.7114 30.7745 33.736 30.756 33.7667 30.7314C34.0617 30.4917 34.3875 30.2766 34.7194 30.0922L34.9652 29.957L33.7913 29.2809C33.2258 28.9551 32.8755 28.3466 32.8693 27.6951C32.8693 27.1419 32.8263 26.6318 32.7464 26.1831C32.648 25.6361 32.8017 25.0767 33.1705 24.6588C33.5208 24.2531 34.031 24.0196 34.5657 24.0196C34.5842 24.0196 34.7317 24.0196 34.7317 24.0196C34.9898 24.0196 35.248 23.9888 35.4938 23.9335C35.9241 23.8352 36.3174 23.6569 36.6248 23.4111C36.9259 23.1714 37.1472 22.8702 37.264 22.5444C37.4914 21.9052 37.2886 21.2475 37.0796 20.8112L36.8337 20.301C36.4957 19.6003 36.637 18.7583 37.1841 18.2051C37.7926 17.5904 38.4134 16.8406 39.0218 15.9862C39.366 15.5007 39.9315 15.2118 40.5216 15.2118C40.5584 15.2118 40.6015 15.2118 40.6445 15.2118C41.2837 15.2548 41.8553 15.6236 42.1504 16.1891L42.4331 16.7177C43.5149 18.8812 44.0312 21.0017 44.0312 23.2513V26.4843L44.0434 28.1377C44.1111 32.2619 45.0392 36.0481 46.8032 39.3855C47.215 40.16 47.0244 41.1127 46.3483 41.672C46.0103 41.9547 45.5923 42.0961 45.1744 42.0961C44.7564 42.0961 44.3569 41.9609 44.0189 41.6904L41.4251 39.6007L39.5381 42.6677C39.2493 43.141 38.7576 43.4545 38.2105 43.5282C38.1306 43.5405 38.0507 43.5466 37.9708 43.5466C37.5037 43.5466 37.0489 43.3684 36.7047 43.0426L35.2172 41.6413L31.388 47.8491C31.05 48.3961 30.4599 48.7281 29.8207 48.7281L29.8084 48.7342Z" fill="black"></path><path fill-rule="evenodd" clip-rule="evenodd" d="M32.9549 23.3988C34.0735 22.8395 35.4995 22.022 36.9193 20.8972C37.2205 21.5241 37.2512 22.065 37.0975 22.5076C36.9869 22.8149 36.7841 23.0853 36.5075 23.3004C36.2125 23.534 35.8437 23.7 35.438 23.7922C34.6697 23.9643 33.7662 23.8659 32.9487 23.4049M33.1454 29.1211L34.6267 29.9754C31.6027 31.6718 30.7791 34.8188 29.8079 37.8797C28.8307 34.8126 28.007 31.6657 24.9892 29.9754L26.4704 29.1211C26.7655 29.0104 26.956 28.7216 26.9376 28.4081C26.8023 25.5377 27.5768 24.2716 28.6217 23.4725C28.9966 23.1898 29.4084 23.0423 29.8079 23.0423C30.2074 23.0423 30.6193 23.1837 30.9942 23.4725C32.0391 24.2716 32.8135 25.5377 32.6783 28.4081C32.666 28.7216 32.8504 29.0104 33.1454 29.1211ZM29.8018 10.3807C31.5105 10.4238 33.2315 10.7618 34.7189 11.4072C35.7515 11.8559 36.7103 12.4459 37.5831 13.1528C37.9765 13.4724 38.3022 13.7797 38.6587 14.1362C39.6237 14.1669 41.0251 13.0974 41.6828 12.1017C40.558 15.7834 35.4319 20.1351 31.8793 21.8007C31.24 21.3152 30.5271 21.0693 29.8079 21.0693C29.0888 21.0693 28.3758 21.3152 27.7366 21.8007C24.184 20.1351 19.0579 15.7834 17.9331 12.1017C18.5846 13.1036 19.9921 14.1731 20.9571 14.1362C21.3136 13.7797 21.6394 13.4724 22.0327 13.1528C22.9055 12.4459 23.8644 11.8559 24.897 11.4072C26.3844 10.7618 28.0992 10.4299 29.8141 10.3807M26.6671 23.4049C25.5485 22.8456 24.1225 22.0281 22.7027 20.9034C22.4015 21.5303 22.3708 22.0712 22.5245 22.5137C22.6351 22.821 22.8441 23.0915 23.1145 23.3066C23.4095 23.5402 23.7783 23.7061 24.184 23.7983C24.9523 23.9704 25.8558 23.8721 26.6733 23.4111" fill="white"></path><path fill-rule="evenodd" clip-rule="evenodd" d="M38.4806 19.5143C39.2674 18.7214 39.9558 17.8486 40.5151 17.0619L40.7978 17.5905C41.7075 19.4098 42.1808 21.2168 42.1808 23.2575V26.4905L42.193 28.1684C42.2607 32.2865 43.1519 36.4476 45.1679 40.2584L40.9453 36.8533L37.9582 41.6966L34.8235 38.7402L29.8081 46.878L24.7926 38.7402L21.658 41.6966L18.6708 36.8533L14.4482 40.2584C16.4643 36.4476 17.3555 32.2865 17.4231 28.1684L17.4415 26.4905V23.2575C17.4415 21.2168 17.9087 19.4098 18.8183 17.5905L19.1011 17.0619C19.6542 17.8425 20.3488 18.7214 21.1355 19.5143L20.8897 20.0245C20.4164 21.014 20.2566 22.1204 20.6254 23.1714C20.8651 23.8475 21.3015 24.4314 21.8608 24.874C22.4078 25.3042 23.0532 25.5931 23.7293 25.7467C24.1718 25.8451 24.6205 25.8881 25.0631 25.8758C24.9586 26.4659 24.9155 27.0805 24.9094 27.7013L20.9265 30L23.9997 31.721C24.2456 31.8563 24.4792 32.0161 24.7004 32.1943C27.2327 34.4685 28.757 41.1988 29.8019 44.4809C30.8468 41.1926 32.3711 34.4685 34.9034 32.1943C35.1247 32.0161 35.3583 31.8624 35.6041 31.721L38.6773 30L34.6945 27.7013C34.6945 27.0805 34.6453 26.4659 34.5408 25.8758C34.9895 25.8881 35.4382 25.8512 35.8746 25.7467C36.5507 25.5931 37.196 25.3042 37.7431 24.874C38.3024 24.4314 38.7388 23.8475 38.9785 23.1714C39.3473 22.1204 39.1936 21.014 38.7142 20.0245L38.4683 19.5143H38.4806Z" fill="white"></path></svg>