<svg xmlns="http://www.w3.org/2000/svg" width="60" height="60" viewBox="0 0 60 60" fill="none"><path d="M58.2352 56.6262C58.2352 59.8592 1.27045 58.1874 1.28889 55.9624L1.00001 3.23866C0.975422 0.355999 57.8418 1.08127 57.8418 1.08127C58.8744 1.05054 58.2352 56.6262 58.2352 56.6262Z" fill="#C68717" stroke="black" stroke-width="2" stroke-miterlimit="10"></path><path opacity="0.2" d="M1.59624 56.2697L1.23975 55.3354L3.88884 53.8541L6.09539 52.4343L50.2203 53.3194L52.6973 52.4343L54.4613 53.0551L55.0514 53.4177L58.1922 56.2697L57.8541 57.0318L54.7072 57.7694L29.1935 58.3349L1.59624 56.2697Z" fill="black"></path><path d="M6.22426 12.7656C6.22426 12.7656 5.86777 5.60508 6.32875 5.60508C8.28945 5.60508 42.7461 5.224 42.7461 5.224" fill="#C68717"></path><path d="M6.22426 12.7656C6.22426 12.7656 5.86777 5.60508 6.32875 5.60508C8.28945 5.60508 42.7461 5.224 42.7461 5.224" stroke="black" stroke-width="2" stroke-linecap="round" stroke-linejoin="round"></path><path d="M6.0956 18.3219C6.0956 18.3219 5.84974 50.7072 6.0956 52.4344C6.34145 54.1615 33.7666 53.0797 33.7666 53.0797" fill="#C68717"></path><path d="M6.0956 18.3219C6.0956 18.3219 5.84974 50.7072 6.0956 52.4344C6.34145 54.1615 33.7666 53.0797 33.7666 53.0797" stroke="black" stroke-width="2" stroke-linecap="round" stroke-linejoin="round"></path><path d="M44.8423 53.258C44.8423 53.258 53.0784 53.8542 53.0784 51.746V31.0573" fill="#C68717"></path><path d="M44.8423 53.258C44.8423 53.258 53.0784 53.8542 53.0784 51.746V31.0573" stroke="black" stroke-width="2" stroke-linecap="round" stroke-linejoin="round"></path><path d="M46.0654 5.21778C46.0654 5.21778 52.8326 4.19748 53.0785 6.39789C53.3243 8.5983 52.8879 23.5832 52.8879 23.5832" fill="#C68717"></path><path d="M46.0654 5.21778C46.0654 5.21778 52.8326 4.19748 53.0785 6.39789C53.3243 8.5983 52.8879 23.5832 52.8879 23.5832" stroke="black" stroke-width="2" stroke-linecap="round" stroke-linejoin="round"></path><path d="M1.28311 55.9624C1.19706 55.6796 5.18607 52.883 6.08959 52.4343Z" fill="#C68717"></path><path d="M1.28311 55.9624C1.19706 55.6796 5.18607 52.883 6.08959 52.4343" stroke="black" stroke-width="2" stroke-linecap="round" stroke-linejoin="round"></path><path d="M53.0781 52.2992C53.0781 52.2992 57.9092 54.6778 58.2349 56.6263Z" fill="#C68717"></path><path d="M53.0781 52.2992C53.0781 52.2992 57.9092 54.6778 58.2349 56.6263" stroke="black" stroke-width="2" stroke-linecap="round" stroke-linejoin="round"></path><path d="M6.32892 5.5989C6.32892 5.5989 2.97914 5.21783 1 3.23254Z" fill="#C68717"></path><path d="M6.32892 5.5989C6.32892 5.5989 2.97914 5.21783 1 3.23254" stroke="black" stroke-width="2" stroke-linecap="round" stroke-linejoin="round"></path><path d="M53.0781 5.59888C53.0781 5.59888 57.5097 3.40462 57.8846 1.34558Z" fill="#C68717"></path><path d="M53.0781 5.59888C53.0781 5.59888 57.5097 3.40462 57.8846 1.34558" stroke="black" stroke-width="2" stroke-linecap="round" stroke-linejoin="round"></path><path opacity="0.2" d="M53.2077 51.7521L53.2814 51.0515L53.1523 18.3219L53.2077 5.5989L55.8322 3.98854L58.1063 1.0813L58.5181 13.2757V46.9641L58.3706 56.2697L55.6539 53.8173L53.2077 51.7521Z" fill="black"></path><path d="M23.3544 22.065C23.0409 22.065 22.7213 22.0159 22.4017 21.9237C20.7483 21.4443 19.0273 20.9648 17.1404 20.4547C16.1324 20.1843 15.5177 19.6434 15.3211 18.8505C15.1858 18.3096 15.2166 17.4737 16.1508 16.5948C17.0236 15.7711 17.8903 14.9475 18.7569 14.1239L20.1275 12.8209C20.7545 12.2247 21.5166 11.8866 22.3894 11.8252C24.7373 11.6469 27.0914 11.4687 29.4393 11.2843L31.6151 11.1183C31.6582 11.1183 31.7012 11.1183 31.7442 11.1183C31.7995 11.1183 31.8487 11.1183 31.904 11.1245H31.9593C32.2421 11.0937 32.5248 11.0692 32.8075 11.0507H32.8629C33.0104 11.0261 33.164 11.0077 33.3054 11.0077C34.2274 11.0077 34.9649 11.5424 35.2415 12.4029C35.3829 12.8393 35.5673 13.958 34.2458 14.843L34.1905 14.8799C32.8752 15.8449 31.5598 16.816 30.2445 17.781C28.6096 18.9857 26.9746 20.1842 25.3397 21.3889C24.7189 21.8499 24.0489 22.0773 23.3482 22.0773L23.3544 22.065Z" fill="black"></path><path d="M22.2417 42.6185C21.5287 42.6185 20.8526 42.3296 20.2257 41.758C17.8409 39.5945 15.3885 37.4248 13.0774 35.3904C12.1309 34.5545 11.7375 33.4911 11.9158 32.225C12.2415 29.8893 12.5427 27.5045 12.8377 25.1996C12.9853 24.0195 13.1389 22.8394 13.2926 21.6593C13.3786 20.9894 13.6429 18.9611 15.7204 18.9611C16.0584 18.9611 16.4272 19.0225 16.9435 19.1577C17.6504 19.3483 18.3572 19.545 19.064 19.7417C19.9983 20.0059 20.9694 20.2764 21.916 20.5161C23.4956 20.9156 24.3684 22.0773 24.3069 23.7122C24.2823 24.4006 24.2885 25.089 24.2946 25.8204C24.2946 26.0847 24.2946 26.3552 24.2946 26.6195C24.2946 26.6748 24.3008 26.724 24.3008 26.7793C24.3008 27.0989 24.3008 27.4246 24.3008 27.7443C24.3008 28.1991 24.3008 28.6293 24.3008 29.0657C25.1121 28.8322 25.9295 28.5986 26.7409 28.365C28.3451 27.9041 29.9493 27.4431 31.5535 26.9944C32.1005 26.8407 32.4816 26.7731 32.8319 26.7731C33.6187 26.7731 34.1165 27.1112 34.3993 27.4001C35.0938 28.1069 35.0815 29.1088 35.0692 29.6496C35.0569 30.504 35.0692 31.1678 35.0815 31.7025C35.1368 34.2963 34.8357 34.8495 32.6107 36.2631C32.2112 36.5152 31.7194 36.8286 31.111 37.2404C30.232 37.8366 29.3469 38.4267 28.4619 39.0229C27.0113 39.994 25.5177 40.9959 24.061 42.0039C23.4464 42.4341 22.8502 42.637 22.2417 42.637V42.6185Z" fill="black"></path><path d="M39.255 44.776C38.5297 44.7575 37.5832 44.4072 37.1898 42.8829C37.1775 42.846 37.1713 42.803 37.1591 42.7723C36.317 40.5534 35.4135 38.1563 34.5653 35.7777C34.092 34.4623 34.1473 33.1593 34.1965 32.1144C34.2211 31.6043 34.2395 31.1187 34.1965 30.7376C34.1903 30.6762 34.1842 30.6147 34.1842 30.5471V27.4677C31.824 28.15 29.3962 28.8322 26.9622 29.5083C26.366 29.6743 25.9665 29.7603 25.5608 29.7603C23.4157 29.7603 23.3911 27.5353 23.3788 26.8039V26.5581C23.3788 26.4351 23.3788 26.3122 23.3788 26.1954C23.2313 21.6533 24.4237 20.4178 27.1712 18.6845C29.5498 17.1787 31.8609 15.4147 34.0981 13.6998C34.7742 13.1835 35.4565 12.6611 36.1387 12.1509C36.5506 11.8375 37.1959 11.4257 37.9888 11.4257C39.3779 11.4257 40.0724 12.6119 40.2937 12.9991C42.5187 16.8222 44.8113 20.6207 47.024 24.2962C47.4543 25.0092 47.9583 26.1217 47.4051 27.5599C46.4032 30.1476 45.4014 32.7413 44.4056 35.329C43.453 37.8121 42.4941 40.2953 41.5353 42.7723C41.5291 42.7968 41.5168 42.8337 41.5045 42.8767C41.0804 44.4564 40.0847 44.7883 39.3287 44.7883C39.3103 44.7883 39.2796 44.7883 39.2611 44.7883L39.255 44.776Z" fill="black"></path><path d="M36.6553 46.8165C36.4402 46.8165 36.2128 46.7919 35.9546 46.7489C35.9177 46.7427 35.8809 46.7366 35.844 46.7243L33.2379 46.0851C30.7363 45.4704 28.1549 44.8374 25.5734 44.1858C24.2396 43.8539 23.9384 42.9197 23.8708 42.5325C23.8032 42.1391 23.7663 41.1372 24.9464 40.3444C27.4542 38.648 29.968 36.97 32.4881 35.292C32.9122 35.0093 33.3608 34.8679 33.8157 34.8679C34.7438 34.8679 35.5121 35.4457 35.8686 36.4045L36.4955 38.0825C37.2208 40.0186 37.9399 41.9547 38.6529 43.897C39.0278 44.9173 38.6959 45.618 38.4685 45.9437C38.2411 46.2695 37.7063 46.8104 36.6553 46.8104V46.8165Z" fill="black"></path><path d="M17.5643 18.8689C19.3345 19.3483 21.0985 19.84 22.8564 20.3502C23.428 20.5161 23.9012 20.3994 24.3684 20.0552C27.3125 17.8793 30.2689 15.7158 33.2192 13.5461C33.4404 13.3802 33.7846 13.2265 33.674 12.8946C33.5572 12.5381 33.2007 12.661 32.9241 12.6795C32.5308 12.7102 32.1374 12.7471 31.744 12.784C31.744 12.7717 31.744 12.7655 31.744 12.7532C28.6647 12.993 25.5915 13.2327 22.5122 13.4601C22.0204 13.497 21.6086 13.6752 21.2583 14.0071C19.9307 15.2671 18.6092 16.5333 17.2754 17.7871C16.6854 18.3465 16.8083 18.6599 17.5643 18.8628V18.8689Z" fill="white"></path><path d="M14.159 34.1611C16.5561 36.2755 18.9593 38.396 21.3257 40.5472C21.9465 41.1127 22.4443 41.1065 23.1266 40.6394C25.4622 39.0229 27.8347 37.4679 30.1888 35.8698C34.1962 33.1531 33.348 34.6098 33.4279 29.6128C33.4464 28.3774 33.2128 28.2237 31.9958 28.5679C29.3345 29.3178 26.6731 30.0922 24.0117 30.8482C22.9422 31.1555 22.6964 30.9896 22.6656 29.9017C22.6349 28.8568 22.6595 27.818 22.6595 26.7731H22.6533C22.6533 25.7283 22.6226 24.6895 22.6656 23.6446C22.6964 22.7903 22.3644 22.317 21.5162 22.1019C19.8444 21.6778 18.191 21.1861 16.5192 20.7435C15.3145 20.4239 15.0871 20.5899 14.9212 21.8683C14.4602 25.3964 14.0299 28.9305 13.5382 32.4524C13.4337 33.1838 13.6243 33.6878 14.159 34.1611Z" fill="white"></path><path d="M25.0197 26.1278C25.0259 26.3429 25.0197 26.558 25.0259 26.7731C25.0443 28.2053 25.1427 28.2913 26.5256 27.9102C29.1993 27.1727 31.8607 26.4167 34.5221 25.6422C35.4194 25.3841 35.8251 25.6914 35.8251 26.6072C35.8251 27.8303 35.8251 29.0535 35.8251 30.5347C35.9849 31.9238 35.5362 33.6079 36.114 35.2121C36.9499 37.5478 37.8227 39.8772 38.7016 42.2006C38.8307 42.5509 38.843 43.1164 39.3039 43.1287C39.8448 43.1471 39.8571 42.5325 39.9985 42.1637C41.9653 37.0991 43.9014 32.016 45.8683 26.9514C46.1387 26.263 45.9728 25.7221 45.6101 25.1321C43.3421 21.3705 41.0803 17.6089 38.8676 13.8166C38.3513 12.9253 37.9333 12.8454 37.122 13.4539C34.1287 15.7035 31.203 18.0637 28.0499 20.0613C25.6713 21.561 24.8968 22.274 25.0197 26.1339V26.1278Z" fill="white"></path><path d="M34.332 36.9824C34.1537 36.503 33.828 36.38 33.4039 36.6628C30.89 38.3346 28.3761 40.0125 25.8684 41.7089C25.4013 42.0286 25.2845 42.4219 25.9729 42.594C29.464 43.473 32.9552 44.3212 36.2374 45.1325C37.0302 45.2739 37.3253 45.071 37.104 44.4687C36.1882 41.9671 35.2539 39.4778 34.3258 36.9824H34.332Z" fill="white"></path></svg>