<svg xmlns="http://www.w3.org/2000/svg" width="505" height="374" viewBox="0 0 505 374" fill="none"><g opacity="0.9"><path d="M345.766 315.678C345.766 315.678 362.185 329.162 356.181 337.95C350.177 346.738 341.406 336.206 336.492 339.024C331.578 341.841 334.781 362.151 324.937 361.078C315.092 360.004 314.874 350.998 308.669 349.942C302.463 348.885 296.778 359.115 290.12 355.728C283.462 352.34 290.439 336.441 283.932 329.699C277.424 322.957 305.616 296.845 345.8 315.678H345.766Z" fill="#F59620" stroke="black" stroke-width="3" stroke-linecap="round" stroke-linejoin="round"></path><path d="M370.303 305.549C448.758 331.527 496.706 308.97 502.425 284.417C508.144 259.865 469.319 242.507 469.319 242.507C469.319 242.507 473.311 231.605 467.038 222.465L435.358 144.799C435.358 144.799 432.305 125.126 415.702 123.399C399.099 121.671 392.306 118.955 380.265 106.846C368.223 94.7372 343.402 80.5824 319.453 77.1611C319.453 77.1611 261.107 15.9301 252.453 9.9261C243.799 3.92207 237.158 -4.41313 227.95 9.9261C218.743 24.2653 222.382 34.0261 214.249 38.1853C206.115 42.3445 175.055 29.1625 168.648 34.3279C157.512 43.3172 171.784 72.0124 167.86 80.2805C163.935 88.5486 128.163 88.8505 128.75 105.404C129.102 115.332 140.456 121.386 144.448 134.803C148.439 148.22 130.175 150.786 134.737 165.913C134.737 165.913 139.869 176.898 152.011 180.336C152.011 180.336 134.452 216.444 112.197 215.589C89.9417 214.734 69.6656 173.058 60.5254 164.773C51.3852 156.488 39.5448 140.287 31.9811 142.786C24.4173 145.285 28.7107 160.664 25.4236 170.76C22.1365 180.856 2.58147 182.466 2.01125 193.887C1.44104 205.308 22.2874 213.291 24.5683 223.287C26.8492 233.283 14.1367 241.215 19.1512 250.691C24.1658 260.167 37.4149 261.089 40.8529 269.81C44.291 278.531 33.1383 293.507 41.4232 305.213C49.708 316.92 66.9822 308.752 71.611 312.693C76.2398 316.635 80.5332 340.617 95.3755 341.472C110.218 342.328 112.599 313.264 113.354 303.503C114.109 293.742 124.557 285.642 140.758 298.086C149.043 304.442 161.889 295.805 161.889 295.805C161.889 295.805 138.896 304.358 143.626 315.779C148.355 327.2 149.881 322.857 153.051 328.626C156.221 334.395 148.992 342.428 155.902 348.315C162.812 354.202 171.885 350.311 178.174 354.587C184.463 358.864 187.884 371.207 195.868 371.711C203.851 372.214 207.876 356.919 214.701 354.587C221.527 352.256 227.313 360.071 230.114 350.311C232.915 340.55 223.64 330.37 223.691 320.76C223.691 320.76 258.96 344.307 289.919 326.747C320.879 309.188 319.269 306.605 345.784 315.611C349.574 316.903 361.129 305.767 361.129 305.767C361.129 305.767 360.039 302.077 370.32 305.482L370.303 305.549Z" fill="#F59620" stroke="black" stroke-width="3" stroke-linecap="round" stroke-linejoin="round"></path><path d="M366.848 304.559C366.848 304.559 329.348 288.778 293.692 281.281C268.905 276.065 260.855 287.839 260.855 287.839" stroke="black" stroke-width="3" stroke-linecap="round" stroke-linejoin="round"></path><path d="M299.864 282.656C299.864 282.656 290.607 279.671 298.892 273.349C298.892 273.349 280.024 275.663 266.406 283.411C266.406 283.411 278.448 275.478 299.864 282.673V282.656Z" fill="black" stroke="black" stroke-width="3" stroke-linecap="round" stroke-linejoin="round"></path><path d="M407.484 251.026C407.484 251.026 391.099 265.667 365.825 256.846" stroke="black" stroke-width="3" stroke-linecap="round" stroke-linejoin="round"></path><path d="M311.789 255.605C311.789 255.605 290.926 264.594 268.419 248.812" stroke="black" stroke-width="3" stroke-linecap="round" stroke-linejoin="round"></path><path d="M370.035 129.738C370.035 129.738 346.891 125.428 321.248 136.631" stroke="black" stroke-width="3" stroke-linecap="round" stroke-linejoin="round"></path><path d="M284.586 142.518C284.586 142.518 256.008 136.732 235.984 160.043" stroke="black" stroke-width="3" stroke-linecap="round" stroke-linejoin="round"></path><path d="M232.898 89.5045C232.898 89.5045 199.775 98.0745 179.985 136.631C160.196 175.188 139.852 199.036 139.852 199.036" stroke="black" stroke-width="3" stroke-linecap="round" stroke-linejoin="round"></path><path d="M322.975 77.7649C322.975 77.7649 316.133 75.9369 304.695 77.5133" stroke="black" stroke-width="3" stroke-linecap="round" stroke-linejoin="round"></path><path d="M75.9376 217.199C75.9376 217.199 63.6948 251.982 90.7129 273.348" stroke="black" stroke-width="3" stroke-linecap="round" stroke-linejoin="round"></path><path d="M175.927 281.415C175.927 281.415 169.721 282.707 167.575 287.201C165.428 291.696 164.573 296.409 151.726 300.4" stroke="black" stroke-width="3" stroke-linecap="round" stroke-linejoin="round"></path><path d="M436.9 229.258C413.726 229.258 394.939 210.471 394.939 187.296C394.939 164.122 413.726 145.335 436.9 145.335C460.075 145.335 478.861 164.122 478.861 187.296C478.861 210.471 460.075 229.258 436.9 229.258Z" fill="white" stroke="black" stroke-width="3" stroke-linecap="round" stroke-linejoin="round"></path><path d="M373.724 243.748C348.891 243.748 328.761 223.617 328.761 198.785C328.761 173.952 348.891 153.821 373.724 153.821C398.556 153.821 418.687 173.952 418.687 198.785C418.687 223.617 398.556 243.748 373.724 243.748Z" fill="white" stroke="black" stroke-width="3" stroke-linecap="round" stroke-linejoin="round"></path><path d="M298.942 246.314C274.11 246.314 253.979 226.183 253.979 201.35C253.979 176.518 274.11 156.387 298.942 156.387C323.775 156.387 343.905 176.518 343.905 201.35C343.905 226.183 323.775 246.314 298.942 246.314Z" fill="white" stroke="black" stroke-width="3" stroke-linecap="round" stroke-linejoin="round"></path><path d="M287.37 208.092C283.647 208.092 280.628 205.074 280.628 201.351C280.628 197.627 283.647 194.609 287.37 194.609C291.094 194.609 294.112 197.627 294.112 201.351C294.112 205.074 291.094 208.092 287.37 208.092Z" fill="black"></path><path d="M377.011 210.105C373.287 210.105 370.269 207.087 370.269 203.363C370.269 199.64 373.287 196.621 377.011 196.621C380.734 196.621 383.753 199.64 383.753 203.363C383.753 207.087 380.734 210.105 377.011 210.105Z" fill="black"></path><path d="M446.124 199.439C442.401 199.439 439.382 196.42 439.382 192.697C439.382 188.973 442.401 185.955 446.124 185.955C449.848 185.955 452.866 188.973 452.866 192.697C452.866 196.42 449.848 199.439 446.124 199.439Z" fill="black"></path><path d="M224.06 324.55C224.06 324.55 222.852 317.507 224.06 311.184" stroke="black" stroke-width="3" stroke-linecap="round" stroke-linejoin="round"></path></g></svg>