<svg xmlns="http://www.w3.org/2000/svg" width="110" height="59" viewBox="0 0 110 59" fill="none"><path d="M107.875 55.4587C107.875 58.6239 1.49946 56.9872 1.53556 54.8089L1.00002 3.19167C0.951877 0.369515 107.141 1.07957 107.141 1.07957C109.072 1.04948 107.875 55.4587 107.875 55.4587Z" fill="#C68717" stroke="black" stroke-width="2" stroke-miterlimit="10"></path><path opacity="0.2" d="M3.01019 55.1097L1.89697 54.1951L6.7169 50.7712L6.77708 51.2947L92.6212 52.2876L102.273 51.2947L103.489 50.001L104.024 51.3429L107.797 55.1097L106.744 55.8559L96.8755 56.578L14.4252 55.8078L3.01019 55.1097Z" fill="black"></path><path d="M5.87422 12.5187C5.87422 12.5187 5.03179 5.50845 6.488 5.50845C12.6318 5.50845 75.5737 5.13538 75.5737 5.13538" fill="#C68717"></path><path d="M5.87422 12.5187C5.87422 12.5187 5.03179 5.50845 6.488 5.50845C12.6318 5.50845 75.5737 5.13538 75.5737 5.13538" stroke="black" stroke-width="2" stroke-linecap="round" stroke-linejoin="round"></path><path d="M6.0249 16.8993C6.0249 16.8993 6.41002 49.3812 7.17422 51.066C7.93843 52.7509 69.8815 52.1492 69.8815 52.1492" fill="#C68717"></path><path d="M6.0249 16.8993C6.0249 16.8993 6.41002 49.3812 7.17422 51.066C7.93843 52.7509 69.8815 52.1492 69.8815 52.1492" stroke="black" stroke-width="2" stroke-linecap="round" stroke-linejoin="round"></path><path d="M65.8013 52.1612C65.8013 52.1612 102.405 52.432 103.29 50.705C104.625 48.0935 103.29 30.4264 103.29 30.4264" fill="#C68717"></path><path d="M65.8013 52.1612C65.8013 52.1612 102.405 52.432 103.29 50.705C104.625 48.0935 103.29 30.4264 103.29 30.4264" stroke="black" stroke-width="2" stroke-linecap="round" stroke-linejoin="round"></path><path d="M75.1704 5.12937C75.1704 5.12937 101.25 4.78036 101.599 6.05003C102.201 8.2524 102.826 23.1033 102.826 23.1033" fill="#C68717"></path><path d="M75.1704 5.12937C75.1704 5.12937 101.25 4.78036 101.599 6.05003C102.201 8.2524 102.826 23.1033 102.826 23.1033" stroke="black" stroke-width="2" stroke-linecap="round" stroke-linejoin="round"></path><path d="M1.89697 54.8089C1.89697 54.8089 4.92974 51.8363 7.08397 50.687Z" fill="#C68717"></path><path d="M1.89697 54.8089C1.89697 54.8089 4.92974 51.8363 7.08397 50.687" stroke="black" stroke-width="2" stroke-linecap="round" stroke-linejoin="round"></path><path d="M103.29 50.7111C103.29 50.7111 106.437 53.4369 107.46 55.3505Z" fill="#C68717"></path><path d="M103.29 50.7111C103.29 50.7111 106.437 53.4369 107.46 55.3505" stroke="black" stroke-width="2" stroke-linecap="round" stroke-linejoin="round"></path><path d="M6.48786 5.50245C6.48786 5.50245 2.37798 4.67807 1 3.19177Z" fill="#C68717"></path><path d="M6.48786 5.50245C6.48786 5.50245 2.37798 4.67807 1 3.19177" stroke="black" stroke-width="2" stroke-linecap="round" stroke-linejoin="round"></path><path d="M101.599 5.7732C101.599 5.7732 105.528 3.36022 106.708 1.33838Z" fill="#C68717"></path><path d="M101.599 5.7732C101.599 5.7732 105.528 3.36022 106.708 1.33838" stroke="black" stroke-width="2" stroke-linecap="round" stroke-linejoin="round"></path><path opacity="0.2" d="M102.688 51.2947L103.964 49.6821L103.037 18.0908L102.081 6.31472L103.128 5.1293L107.382 1.07959L108.676 13.0181V45.9994L108.212 55.1098L104.439 51.3429L102.688 51.2947Z" fill="black"></path><mask id="path-20-outside-1_452_16" maskUnits="userSpaceOnUse" x="16" y="13" width="73" height="32" fill="black"><rect fill="white" x="16" y="13" width="73" height="32"></rect><path d="M29.2 15.4C30.2667 15.4 31.536 15.9547 33.008 17.064C34.48 18.1733 35.216 19.3787 35.216 20.68C35.216 21.8107 35.0667 22.7707 34.768 23.56C34.512 24.456 33.904 25.2453 32.944 25.928C34.9493 26.888 36.56 27.752 37.776 28.52C38.8853 29.224 39.4507 30.5253 39.472 32.424C39.1947 33.256 39.0347 33.7253 38.992 33.832C38.9707 33.9387 38.8533 34.2053 38.64 34.632C37.5733 36.7867 35.9413 38.4187 33.744 39.528C31.7813 40.5093 29.5093 41 26.928 41C25.072 41 23.5893 40.7333 22.48 40.2L19.408 38.728L19.024 37.032L19.568 36.296L22.416 36.488C22.224 35.6133 22.064 34.8453 21.936 34.184C21.8293 33.7147 21.6907 32.968 21.52 31.944C21.3707 31.176 21.2853 30.1307 21.264 28.808C21.2427 27.8267 21.36 27.1227 21.616 26.696L22.416 25.928C22.3733 25.736 22.2773 25.4693 22.128 25.128C22.128 25.0853 22.032 24.744 21.84 24.104C21.648 23.464 21.552 22.664 21.552 21.704C21.552 17.5013 24.1013 15.4 29.2 15.4ZM24.56 20.296L24.72 25.8C25.4027 25.6293 26.2987 25.4907 27.408 25.384C28.304 25.2987 29.008 25.1493 29.52 24.936C30.288 24.6373 31.1413 24.072 32.08 23.24L32.656 21.576L32.08 19.176C31.5893 18.8773 30.9707 18.7173 30.224 18.696L27.664 18.632C26.0853 18.5893 25.1893 18.7813 24.976 19.208L24.56 20.296ZM24.688 30.472V36.488C24.688 37 25.0827 37.256 25.872 37.256C26.384 37.256 27.184 37.128 28.272 36.872C29.3813 36.616 30.192 36.488 30.704 36.488L33.04 35.624C34.4053 35.112 35.2693 34.3973 35.632 33.48L34.864 30.792C34.2667 30.3867 33.0613 29.992 31.248 29.608C29.5413 29.2453 28.2507 29.064 27.376 29.064C26.544 29.064 25.8827 29.1707 25.392 29.384C24.9227 29.5973 24.688 29.96 24.688 30.472ZM62.3568 16.616L63.2208 21.544L62.9648 29.672C62.5381 32.872 61.4821 35.4853 59.7968 37.512C57.8768 39.8373 55.4021 41 52.3728 41C48.8528 41 46.3034 39.6987 44.7248 37.096C43.7221 35.432 42.8901 32.488 42.2288 28.264L41.5568 16.968C41.5354 16.4773 41.7701 16.104 42.2608 15.848C42.5808 15.7413 42.7834 15.6667 42.8688 15.624C42.8688 15.624 43.1674 15.5493 43.7648 15.4L44.9808 15.688C45.3648 15.816 45.6954 16.0507 45.9728 16.392L45.8128 19.816L45.6848 24.296C45.6208 26.536 45.7701 28.744 46.1328 30.92C46.4528 32.8613 47.0394 34.44 47.8928 35.656C48.7674 36.872 50.0368 37.4907 51.7008 37.512C53.0661 37.5333 54.1754 37.1707 55.0288 36.424C55.5621 35.9547 56.2874 34.9733 57.2048 33.48C58.6128 31.176 59.3168 28.2213 59.3168 24.616C59.3168 22.7387 59.1461 20.9467 58.8048 19.24C58.6554 18.4933 58.4848 17.7893 58.2928 17.128L58.7088 16.328C58.8794 16.1147 59.2101 15.9867 59.7008 15.944L60.7568 15.848C61.3114 15.848 61.6741 15.9333 61.8448 16.104L62.3568 16.616ZM71.1605 15.688C71.5445 15.944 71.8432 16.3493 72.0565 16.904C72.2058 17.5013 72.2912 18.12 72.3125 18.76C72.3338 19.208 72.2698 19.9227 72.1205 20.904L71.9285 22.216C71.9285 23.304 72.0992 24.4667 72.4405 25.704C72.7818 26.92 73.3365 27.5707 74.1045 27.656L75.5125 27.816C76.5152 27.816 77.4965 26.9627 78.4565 25.256L81.2725 20.2C82.4885 18.408 83.8858 17.512 85.4645 17.512C86.0192 17.7467 86.3178 18.2907 86.3605 19.144C86.3818 19.464 86.2432 20.1893 85.9445 21.32L85.5285 22.952C85.5285 25.2347 85.0272 27.9333 84.0245 31.048C83.0645 34.0133 81.8058 36.488 80.2485 38.472C78.2005 41.096 75.9072 42.4187 73.3685 42.44C68.5685 42.4827 65.9765 41.9173 65.5925 40.744C65.3365 39.9547 65.2085 39.4 65.2085 39.08C65.2085 38.6747 65.4325 38.4613 65.8805 38.44C65.9658 38.44 66.5632 38.568 67.6725 38.824L69.7205 39.304C70.1685 39.368 70.7338 39.4 71.4165 39.4C75.2138 39.4 78.1258 37.3307 80.1525 33.192C80.9418 31.592 81.3898 30.1947 81.4965 29L81.8165 25.64L79.6725 29.064C78.8405 30.152 77.6992 30.696 76.2485 30.696C74.6058 30.696 73.2832 30.3973 72.2805 29.8C71.2778 29.2027 70.4032 28.168 69.6565 26.696C68.6325 24.712 68.1205 22.792 68.1205 20.936V19.048C68.1205 17.832 68.1312 17.16 68.1525 17.032C68.2805 16.328 68.6645 15.8373 69.3045 15.56L71.1605 15.688Z"></path></mask><path d="M29.2 15.4C30.2667 15.4 31.536 15.9547 33.008 17.064C34.48 18.1733 35.216 19.3787 35.216 20.68C35.216 21.8107 35.0667 22.7707 34.768 23.56C34.512 24.456 33.904 25.2453 32.944 25.928C34.9493 26.888 36.56 27.752 37.776 28.52C38.8853 29.224 39.4507 30.5253 39.472 32.424C39.1947 33.256 39.0347 33.7253 38.992 33.832C38.9707 33.9387 38.8533 34.2053 38.64 34.632C37.5733 36.7867 35.9413 38.4187 33.744 39.528C31.7813 40.5093 29.5093 41 26.928 41C25.072 41 23.5893 40.7333 22.48 40.2L19.408 38.728L19.024 37.032L19.568 36.296L22.416 36.488C22.224 35.6133 22.064 34.8453 21.936 34.184C21.8293 33.7147 21.6907 32.968 21.52 31.944C21.3707 31.176 21.2853 30.1307 21.264 28.808C21.2427 27.8267 21.36 27.1227 21.616 26.696L22.416 25.928C22.3733 25.736 22.2773 25.4693 22.128 25.128C22.128 25.0853 22.032 24.744 21.84 24.104C21.648 23.464 21.552 22.664 21.552 21.704C21.552 17.5013 24.1013 15.4 29.2 15.4ZM24.56 20.296L24.72 25.8C25.4027 25.6293 26.2987 25.4907 27.408 25.384C28.304 25.2987 29.008 25.1493 29.52 24.936C30.288 24.6373 31.1413 24.072 32.08 23.24L32.656 21.576L32.08 19.176C31.5893 18.8773 30.9707 18.7173 30.224 18.696L27.664 18.632C26.0853 18.5893 25.1893 18.7813 24.976 19.208L24.56 20.296ZM24.688 30.472V36.488C24.688 37 25.0827 37.256 25.872 37.256C26.384 37.256 27.184 37.128 28.272 36.872C29.3813 36.616 30.192 36.488 30.704 36.488L33.04 35.624C34.4053 35.112 35.2693 34.3973 35.632 33.48L34.864 30.792C34.2667 30.3867 33.0613 29.992 31.248 29.608C29.5413 29.2453 28.2507 29.064 27.376 29.064C26.544 29.064 25.8827 29.1707 25.392 29.384C24.9227 29.5973 24.688 29.96 24.688 30.472ZM62.3568 16.616L63.2208 21.544L62.9648 29.672C62.5381 32.872 61.4821 35.4853 59.7968 37.512C57.8768 39.8373 55.4021 41 52.3728 41C48.8528 41 46.3034 39.6987 44.7248 37.096C43.7221 35.432 42.8901 32.488 42.2288 28.264L41.5568 16.968C41.5354 16.4773 41.7701 16.104 42.2608 15.848C42.5808 15.7413 42.7834 15.6667 42.8688 15.624C42.8688 15.624 43.1674 15.5493 43.7648 15.4L44.9808 15.688C45.3648 15.816 45.6954 16.0507 45.9728 16.392L45.8128 19.816L45.6848 24.296C45.6208 26.536 45.7701 28.744 46.1328 30.92C46.4528 32.8613 47.0394 34.44 47.8928 35.656C48.7674 36.872 50.0368 37.4907 51.7008 37.512C53.0661 37.5333 54.1754 37.1707 55.0288 36.424C55.5621 35.9547 56.2874 34.9733 57.2048 33.48C58.6128 31.176 59.3168 28.2213 59.3168 24.616C59.3168 22.7387 59.1461 20.9467 58.8048 19.24C58.6554 18.4933 58.4848 17.7893 58.2928 17.128L58.7088 16.328C58.8794 16.1147 59.2101 15.9867 59.7008 15.944L60.7568 15.848C61.3114 15.848 61.6741 15.9333 61.8448 16.104L62.3568 16.616ZM71.1605 15.688C71.5445 15.944 71.8432 16.3493 72.0565 16.904C72.2058 17.5013 72.2912 18.12 72.3125 18.76C72.3338 19.208 72.2698 19.9227 72.1205 20.904L71.9285 22.216C71.9285 23.304 72.0992 24.4667 72.4405 25.704C72.7818 26.92 73.3365 27.5707 74.1045 27.656L75.5125 27.816C76.5152 27.816 77.4965 26.9627 78.4565 25.256L81.2725 20.2C82.4885 18.408 83.8858 17.512 85.4645 17.512C86.0192 17.7467 86.3178 18.2907 86.3605 19.144C86.3818 19.464 86.2432 20.1893 85.9445 21.32L85.5285 22.952C85.5285 25.2347 85.0272 27.9333 84.0245 31.048C83.0645 34.0133 81.8058 36.488 80.2485 38.472C78.2005 41.096 75.9072 42.4187 73.3685 42.44C68.5685 42.4827 65.9765 41.9173 65.5925 40.744C65.3365 39.9547 65.2085 39.4 65.2085 39.08C65.2085 38.6747 65.4325 38.4613 65.8805 38.44C65.9658 38.44 66.5632 38.568 67.6725 38.824L69.7205 39.304C70.1685 39.368 70.7338 39.4 71.4165 39.4C75.2138 39.4 78.1258 37.3307 80.1525 33.192C80.9418 31.592 81.3898 30.1947 81.4965 29L81.8165 25.64L79.6725 29.064C78.8405 30.152 77.6992 30.696 76.2485 30.696C74.6058 30.696 73.2832 30.3973 72.2805 29.8C71.2778 29.2027 70.4032 28.168 69.6565 26.696C68.6325 24.712 68.1205 22.792 68.1205 20.936V19.048C68.1205 17.832 68.1312 17.16 68.1525 17.032C68.2805 16.328 68.6645 15.8373 69.3045 15.56L71.1605 15.688Z" fill="black"></path><path d="M33.008 17.064L31.8043 18.6612L31.8043 18.6612L33.008 17.064ZM34.768 23.56L32.8974 22.8522L32.8679 22.9303L32.845 23.0106L34.768 23.56ZM32.944 25.928L31.785 24.2981L29.0178 26.2658L32.0804 27.7319L32.944 25.928ZM37.776 28.52L38.8477 26.8313L38.844 26.829L37.776 28.52ZM39.472 32.424L41.3694 33.0565L41.4756 32.7376L41.4719 32.4015L39.472 32.424ZM38.992 33.832L37.1351 33.0892L37.0669 33.2597L37.0308 33.4398L38.992 33.832ZM38.64 34.632L36.8511 33.7376L36.8476 33.7447L38.64 34.632ZM33.744 39.528L34.6384 41.3169L34.6454 41.3134L33.744 39.528ZM22.48 40.2L23.3466 38.3975L23.3442 38.3964L22.48 40.2ZM19.408 38.728L17.4574 39.1697L17.6711 40.1135L18.5438 40.5316L19.408 38.728ZM19.024 37.032L17.4156 35.8432L16.871 36.58L17.0734 37.4737L19.024 37.032ZM19.568 36.296L19.7025 34.3005L18.6103 34.2269L17.9596 35.1072L19.568 36.296ZM22.416 36.488L22.2815 38.4835L24.941 38.6628L24.3695 36.0592L22.416 36.488ZM21.936 34.184L23.8996 33.804L23.8934 33.7722L23.8863 33.7408L21.936 34.184ZM21.52 31.944L23.4928 31.6152L23.4884 31.5887L23.4832 31.5623L21.52 31.944ZM21.264 28.808L23.2638 28.7757L23.2635 28.7645L21.264 28.808ZM21.616 26.696L20.2309 25.2532L20.0384 25.4381L19.901 25.667L21.616 26.696ZM22.416 25.928L23.8011 27.3708L24.6123 26.592L24.3684 25.4941L22.416 25.928ZM22.128 25.128H20.128V25.5464L20.2957 25.9296L22.128 25.128ZM21.84 24.104L19.9243 24.6787L19.9243 24.6787L21.84 24.104ZM24.56 20.296L22.6919 19.5817L22.5492 19.9548L22.5608 20.3541L24.56 20.296ZM24.72 25.8L22.7208 25.8581L22.7931 28.3433L25.2051 27.7403L24.72 25.8ZM27.408 25.384L27.2184 23.393L27.2166 23.3932L27.408 25.384ZM29.52 24.936L28.7951 23.072L28.7728 23.0807L28.7508 23.0898L29.52 24.936ZM32.08 23.24L33.4066 24.7367L33.7986 24.3892L33.97 23.8942L32.08 23.24ZM32.656 21.576L34.546 22.2302L34.7372 21.6777L34.6008 21.1093L32.656 21.576ZM32.08 19.176L34.0248 18.7093L33.8306 17.9002L33.1199 17.4676L32.08 19.176ZM30.224 18.696L30.2811 16.6968L30.274 16.6966L30.224 18.696ZM27.664 18.632L27.61 20.6313L27.614 20.6314L27.664 18.632ZM24.976 19.208L23.1871 18.3136L23.1431 18.4017L23.1079 18.4937L24.976 19.208ZM28.272 36.872L27.8223 34.9232L27.8139 34.9252L28.272 36.872ZM30.704 36.488V38.488H31.062L31.3978 38.3638L30.704 36.488ZM33.04 35.624L33.7338 37.4998L33.7422 37.4967L33.04 35.624ZM35.632 33.48L37.4919 34.2153L37.7416 33.5837L37.555 32.9306L35.632 33.48ZM34.864 30.792L36.787 30.2426L36.5876 29.5446L35.987 29.137L34.864 30.792ZM31.248 29.608L30.8323 31.5643L30.8337 31.5646L31.248 29.608ZM25.392 29.384L24.5945 27.5499L24.5794 27.5564L24.5644 27.5633L25.392 29.384ZM29.2 17.4C29.6155 17.4 30.4528 17.6427 31.8043 18.6612L34.2117 15.4668C32.6192 14.2666 30.9178 13.4 29.2 13.4V17.4ZM31.8043 18.6612C32.9961 19.5594 33.216 20.2397 33.216 20.68H37.216C37.216 18.5177 35.9639 16.7873 34.2117 15.4668L31.8043 18.6612ZM33.216 20.68C33.216 21.646 33.0869 22.3515 32.8974 22.8522L36.6386 24.2678C37.0464 23.1899 37.216 21.9753 37.216 20.68H33.216ZM32.845 23.0106C32.7435 23.3656 32.4746 23.8076 31.785 24.2981L34.103 27.5579C35.3334 26.683 36.2805 25.5464 36.691 24.1094L32.845 23.0106ZM32.0804 27.7319C34.0489 28.6743 35.5832 29.5005 36.708 30.211L38.844 26.829C37.5368 26.0034 35.8498 25.1017 33.8076 24.1241L32.0804 27.7319ZM36.7044 30.2087C37.0134 30.4048 37.4547 30.8992 37.4721 32.4465L41.4719 32.4015C41.4466 30.1514 40.7572 28.0432 38.8476 26.8313L36.7044 30.2087ZM37.5746 31.7915C37.4365 32.206 37.3288 32.5263 37.251 32.7547C37.1639 33.0102 37.1325 33.0957 37.1351 33.0892L40.849 34.5748C40.9199 34.3973 41.106 33.8465 41.3694 33.0565L37.5746 31.7915ZM37.0308 33.4398C37.0457 33.3652 37.0617 33.3116 37.0687 33.2889C37.0767 33.263 37.0824 33.2476 37.0831 33.2456C37.0841 33.243 37.0774 33.261 37.0574 33.3065C37.0175 33.3971 36.9511 33.5377 36.8511 33.7376L40.4289 35.5264C40.5422 35.2997 40.6412 35.0935 40.7186 34.9175C40.7698 34.8013 40.8939 34.5205 40.9532 34.2242L37.0308 33.4398ZM36.8476 33.7447C35.9778 35.5016 34.6635 36.8233 32.8426 37.7426L34.6454 41.3134C37.2191 40.014 39.1688 38.0717 40.4324 35.5193L36.8476 33.7447ZM32.8496 37.7391C31.2096 38.5591 29.2534 39 26.928 39V43C29.7653 43 32.3531 42.4595 34.6384 41.3169L32.8496 37.7391ZM26.928 39C25.2332 39 24.0834 38.7517 23.3466 38.3975L21.6134 42.0025C23.0953 42.7149 24.9108 43 26.928 43V39ZM23.3442 38.3964L20.2722 36.9244L18.5438 40.5316L21.6158 42.0036L23.3442 38.3964ZM21.3586 38.2863L20.9746 36.5903L17.0734 37.4737L17.4574 39.1697L21.3586 38.2863ZM20.6324 38.2208L21.1764 37.4848L17.9596 35.1072L17.4156 35.8432L20.6324 38.2208ZM19.4335 38.2915L22.2815 38.4835L22.5505 34.4925L19.7025 34.3005L19.4335 38.2915ZM24.3695 36.0592C24.18 35.1958 24.0236 34.4447 23.8996 33.804L19.9724 34.564C20.1044 35.246 20.268 36.0308 20.4625 36.9168L24.3695 36.0592ZM23.8863 33.7408C23.7934 33.3321 23.6626 32.6341 23.4928 31.6152L19.5472 32.2728C19.7187 33.3019 19.8653 34.0973 19.9857 34.6272L23.8863 33.7408ZM23.4832 31.5623C23.3664 30.9613 23.2843 30.0494 23.2637 28.7757L19.2643 28.8403C19.2864 30.2119 19.375 31.3907 19.5568 32.3257L23.4832 31.5623ZM23.2635 28.7645C23.2546 28.3557 23.2766 28.0658 23.3088 27.8728C23.3427 27.6696 23.3751 27.6514 23.331 27.725L19.901 25.667C19.3385 26.6045 19.2415 27.7966 19.2645 28.8515L23.2635 28.7645ZM23.0011 28.1388L23.8011 27.3708L21.0309 24.4852L20.2309 25.2532L23.0011 28.1388ZM24.3684 25.4941C24.2829 25.1096 24.1243 24.7011 23.9603 24.3264L20.2957 25.9296C20.3577 26.0713 20.4012 26.1807 20.4302 26.2614C20.4609 26.3466 20.4667 26.3757 20.4636 26.3619L24.3684 25.4941ZM24.128 25.128C24.128 24.9739 24.1097 24.8526 24.1047 24.8198C24.0969 24.7678 24.0885 24.7244 24.0829 24.6972C24.0717 24.6421 24.0594 24.5914 24.0503 24.5549C24.0313 24.4789 24.0072 24.3904 23.9813 24.2985C23.9286 24.111 23.8526 23.8525 23.7557 23.5293L19.9243 24.6787C20.0194 24.9955 20.0874 25.2277 20.1307 25.3815C20.1528 25.4602 20.1647 25.5051 20.1697 25.5251C20.1726 25.5366 20.1693 25.5245 20.1641 25.4988C20.1615 25.4863 20.1553 25.4552 20.149 25.4132C20.1458 25.3916 20.1412 25.3586 20.1372 25.3178C20.1336 25.2808 20.128 25.2132 20.128 25.128H24.128ZM23.7557 23.5293C23.6381 23.1375 23.552 22.5466 23.552 21.704H19.552C19.552 22.7814 19.6579 23.7905 19.9243 24.6787L23.7557 23.5293ZM23.552 21.704C23.552 20.0238 24.043 19.0906 24.7361 18.5193C25.5032 17.887 26.8751 17.4 29.2 17.4V13.4C26.4263 13.4 23.9741 13.9637 22.1919 15.4327C20.3357 16.9627 19.552 19.1816 19.552 21.704H23.552ZM22.5608 20.3541L22.7208 25.8581L26.7192 25.7419L26.5592 20.2379L22.5608 20.3541ZM25.2051 27.7403C25.7524 27.6034 26.5391 27.4768 27.5994 27.3748L27.2166 23.3932C26.0582 23.5046 25.0529 23.6552 24.2349 23.8597L25.2051 27.7403ZM27.5976 27.375C28.5853 27.2809 29.5137 27.1053 30.2892 26.7822L28.7508 23.0898C28.5023 23.1934 28.0227 23.3164 27.2184 23.393L27.5976 27.375ZM30.2449 26.8C31.3175 26.3829 32.3736 25.6523 33.4066 24.7367L30.7534 21.7433C29.9091 22.4917 29.2585 22.8918 28.7951 23.072L30.2449 26.8ZM33.97 23.8942L34.546 22.2302L30.766 20.9218L30.19 22.5858L33.97 23.8942ZM34.6008 21.1093L34.0248 18.7093L30.1352 19.6427L30.7112 22.0427L34.6008 21.1093ZM33.1199 17.4676C32.2563 16.9419 31.2735 16.7252 30.2811 16.6968L30.1669 20.6952C30.6679 20.7095 30.9224 20.8128 31.0401 20.8844L33.1199 17.4676ZM30.274 16.6966L27.714 16.6326L27.614 20.6314L30.174 20.6954L30.274 16.6966ZM27.718 16.6327C26.8664 16.6097 26.0647 16.6436 25.3889 16.7884C24.8482 16.9043 23.7327 17.2225 23.1871 18.3136L26.7649 20.1024C26.5876 20.4568 26.3362 20.624 26.2381 20.6787C26.145 20.7307 26.1193 20.7227 26.2271 20.6996C26.4473 20.6524 26.8829 20.6116 27.61 20.6313L27.718 16.6327ZM23.1079 18.4937L22.6919 19.5817L26.4281 21.0103L26.8441 19.9223L23.1079 18.4937ZM22.688 30.472V36.488H26.688V30.472H22.688ZM22.688 36.488C22.688 37.3504 23.0725 38.208 23.8956 38.7419C24.5693 39.1789 25.3251 39.256 25.872 39.256V35.256C25.6296 35.256 25.7934 35.2051 26.0724 35.3861C26.2396 35.4945 26.4165 35.6679 26.5409 35.9099C26.6616 36.1447 26.688 36.3569 26.688 36.488H22.688ZM25.872 39.256C26.6324 39.256 27.6255 39.0787 28.7301 38.8188L27.8139 34.9252C26.7425 35.1773 26.1356 35.256 25.872 35.256V39.256ZM28.7217 38.8208C29.8179 38.5678 30.4373 38.488 30.704 38.488V34.488C29.9467 34.488 28.9447 34.6642 27.8223 34.9232L28.7217 38.8208ZM31.3978 38.3638L33.7338 37.4998L32.3462 33.7482L30.0102 34.6122L31.3978 38.3638ZM33.7422 37.4967C35.3812 36.882 36.8387 35.8676 37.4919 34.2153L33.7721 32.7447C33.7 32.9271 33.4294 33.342 32.3378 33.7513L33.7422 37.4967ZM37.555 32.9306L36.787 30.2426L32.941 31.3414L33.709 34.0294L37.555 32.9306ZM35.987 29.137C35.0244 28.4839 33.4507 28.0301 31.6623 27.6514L30.8337 31.5646C32.6719 31.9539 33.5089 32.2895 33.741 32.447L35.987 29.137ZM31.6637 27.6517C29.9271 27.2826 28.4684 27.064 27.376 27.064V31.064C28.0329 31.064 29.1556 31.208 30.8323 31.5643L31.6637 27.6517ZM27.376 27.064C26.4059 27.064 25.4373 27.1834 24.5945 27.5499L26.1895 31.2181C26.328 31.1579 26.6821 31.064 27.376 31.064V27.064ZM24.5644 27.5633C24.0497 27.7972 23.5473 28.1694 23.1849 28.7295C22.8219 29.2905 22.688 29.903 22.688 30.472H26.688C26.688 30.529 26.6714 30.7042 26.5431 30.9025C26.4154 31.0999 26.2649 31.1841 26.2196 31.2047L24.5644 27.5633ZM62.3568 16.616L64.3267 16.2706L64.2176 15.6484L63.771 15.2018L62.3568 16.616ZM63.2208 21.544L65.2198 21.607L65.2262 21.4013L65.1907 21.1986L63.2208 21.544ZM62.9648 29.672L64.9472 29.9363L64.9606 29.8361L64.9638 29.735L62.9648 29.672ZM59.7968 37.512L58.259 36.2332L58.2545 36.2386L59.7968 37.512ZM44.7248 37.096L43.0117 38.1282L43.0147 38.1332L44.7248 37.096ZM42.2288 28.264L40.2323 28.3828L40.238 28.4786L40.2528 28.5734L42.2288 28.264ZM41.5568 16.968L39.5586 17.0549L39.5593 17.0708L39.5603 17.0868L41.5568 16.968ZM42.2608 15.848L41.6283 13.9506L41.477 14.0011L41.3356 14.0748L42.2608 15.848ZM42.8688 15.624L42.3837 13.6837L42.1707 13.737L41.9743 13.8352L42.8688 15.624ZM43.7648 15.4L44.2257 13.4538L43.752 13.3416L43.2797 13.4597L43.7648 15.4ZM44.9808 15.688L45.6132 13.7906L45.5285 13.7624L45.4417 13.7418L44.9808 15.688ZM45.9728 16.392L47.9706 16.4854L48.0062 15.7231L47.525 15.1308L45.9728 16.392ZM45.8128 19.816L43.8149 19.7226L43.8141 19.7408L43.8136 19.7589L45.8128 19.816ZM45.6848 24.296L43.6856 24.2389L43.6856 24.2389L45.6848 24.296ZM46.1328 30.92L48.1061 30.5947L48.1055 30.5912L46.1328 30.92ZM47.8928 35.656L46.2556 36.8049L46.2623 36.8144L46.2691 36.8239L47.8928 35.656ZM51.7008 37.512L51.732 35.5122L51.7264 35.5122L51.7008 37.512ZM55.0288 36.424L56.3458 37.9292L56.35 37.9254L55.0288 36.424ZM57.2048 33.48L58.9089 34.5268L58.9113 34.5229L57.2048 33.48ZM58.8048 19.24L56.8436 19.6322L56.8436 19.6322L58.8048 19.24ZM58.2928 17.128L56.5183 16.2053L56.1487 16.9162L56.3721 17.6856L58.2928 17.128ZM58.7088 16.328L57.147 15.0786L57.0247 15.2315L56.9343 15.4053L58.7088 16.328ZM59.7008 15.944L59.874 17.9365L59.8818 17.9358L59.7008 15.944ZM60.7568 15.848V13.848H60.666L60.5757 13.8562L60.7568 15.848ZM61.8448 16.104L63.259 14.6898L63.259 14.6898L61.8448 16.104ZM60.3868 16.9614L61.2508 21.8894L65.1907 21.1986L64.3267 16.2706L60.3868 16.9614ZM61.2217 21.481L60.9657 29.609L64.9638 29.735L65.2198 21.607L61.2217 21.481ZM60.9823 29.4077C60.5942 32.3185 59.6545 34.5551 58.259 36.2332L61.3345 38.7908C63.3097 36.4156 64.482 33.4255 64.9472 29.9363L60.9823 29.4077ZM58.2545 36.2386C56.7165 38.1014 54.8085 39 52.3728 39V43C55.9956 43 59.037 41.5733 61.339 38.7854L58.2545 36.2386ZM52.3728 39C49.4225 39 47.5885 37.9608 46.4348 36.0588L43.0147 38.1332C45.0184 41.4365 48.283 43 52.3728 43V39ZM46.4378 36.0638C45.6523 34.7601 44.8626 32.1566 44.2047 27.9546L40.2528 28.5734C40.9176 32.8194 41.7919 36.1039 43.0117 38.1282L46.4378 36.0638ZM44.2252 28.1452L43.5532 16.8492L39.5603 17.0868L40.2323 28.3828L44.2252 28.1452ZM43.5549 16.8811C43.5597 16.9935 43.5331 17.1885 43.41 17.3843C43.2962 17.5654 43.1757 17.6265 43.1859 17.6212L41.3356 14.0748C40.8551 14.3255 40.372 14.7013 40.0235 15.2557C39.6657 15.8248 39.5324 16.4518 39.5586 17.0549L43.5549 16.8811ZM42.8932 17.7454C43.1742 17.6517 43.5248 17.532 43.7632 17.4128L41.9743 13.8352C42.0181 13.8133 42.0422 13.8041 42.0282 13.8098C42.0193 13.8134 41.9983 13.8217 41.9613 13.8353C41.8872 13.8626 41.7782 13.9007 41.6283 13.9506L42.8932 17.7454ZM42.8688 15.624C43.3538 17.5643 43.3538 17.5643 43.3538 17.5643C43.3538 17.5643 43.3538 17.5643 43.3538 17.5643C43.3538 17.5643 43.3539 17.5643 43.3539 17.5643C43.3539 17.5643 43.3539 17.5643 43.3539 17.5643C43.3539 17.5643 43.3539 17.5643 43.3539 17.5643C43.354 17.5642 43.354 17.5642 43.354 17.5642C43.354 17.5642 43.354 17.5642 43.354 17.5642C43.3541 17.5642 43.3545 17.5641 43.3547 17.5641C43.3552 17.564 43.3563 17.5637 43.3573 17.5634C43.3603 17.5627 43.3625 17.5621 43.3678 17.5608C43.3807 17.5576 43.3877 17.5558 43.4098 17.5503C43.425 17.5465 43.4238 17.5468 43.4413 17.5424C43.4458 17.5413 43.4546 17.5391 43.4597 17.5378C43.4613 17.5374 43.4776 17.5333 43.4798 17.5328C43.4925 17.5296 43.4884 17.5306 43.5017 17.5273C43.508 17.5257 43.5184 17.5231 43.5253 17.5214C43.5482 17.5157 43.5526 17.5146 43.5778 17.5083C43.6009 17.5025 43.6714 17.4849 43.7038 17.4768C43.7081 17.4757 43.7708 17.4601 43.7773 17.4584C43.7906 17.4551 43.8029 17.452 43.8167 17.4486C43.823 17.447 43.8306 17.4451 43.837 17.4435C43.8402 17.4427 43.8441 17.4417 43.8474 17.4409C43.8489 17.4405 43.8511 17.44 43.8526 17.4396C43.8535 17.4394 43.8543 17.4392 43.8552 17.4389C43.8561 17.4387 43.8569 17.4385 43.8578 17.4383C43.8587 17.4381 43.8596 17.4378 43.8604 17.4376C43.8613 17.4374 43.8622 17.4372 43.8631 17.437C43.8646 17.4366 43.8669 17.436 43.8684 17.4356C43.8714 17.4349 43.876 17.4337 43.879 17.433C43.8855 17.4314 43.8941 17.4292 43.9007 17.4276C43.9264 17.4211 43.919 17.423 43.9453 17.4164C43.9658 17.4113 44.017 17.3985 44.0398 17.3928C44.079 17.383 44.2013 17.3524 44.2498 17.3403L43.2797 13.4597C43.2517 13.4667 43.1968 13.4804 43.1712 13.4868C43.1517 13.4917 43.1645 13.4885 43.1451 13.4933C43.1253 13.4983 43.1522 13.4916 43.1323 13.4966C43.1301 13.4971 43.1217 13.4992 43.1196 13.4997C43.0826 13.509 43.1313 13.4968 43.0944 13.506C43.0891 13.5073 43.0748 13.5109 43.0697 13.5122C42.9226 13.549 43.0254 13.5233 42.8877 13.5577C42.8258 13.5732 42.7862 13.5831 42.7337 13.5962C42.6403 13.6195 42.7582 13.5901 42.6672 13.6128C42.6625 13.614 42.61 13.6271 42.6077 13.6277C42.5423 13.644 42.5657 13.6382 42.5097 13.6522C42.4572 13.6653 42.4829 13.6589 42.4397 13.6697C42.4169 13.6754 42.4356 13.6707 42.4152 13.6758C42.4061 13.6781 42.4044 13.6785 42.3977 13.6802C42.393 13.6814 42.3956 13.6807 42.3916 13.6817C42.3901 13.6821 42.3905 13.682 42.3891 13.6823C42.3876 13.6827 42.3897 13.6822 42.3881 13.6826C42.3876 13.6827 42.3881 13.6826 42.3876 13.6827C42.3876 13.6827 42.3875 13.6828 42.3874 13.6828C42.3873 13.6828 42.3873 13.6828 42.3872 13.6828C42.3849 13.6834 42.3878 13.6827 42.3856 13.6832C42.3849 13.6834 42.3852 13.6833 42.3846 13.6835C42.3845 13.6835 42.3845 13.6835 42.3844 13.6835C42.3844 13.6835 42.3844 13.6835 42.3844 13.6835C42.3843 13.6836 42.3843 13.6836 42.3843 13.6836C42.3842 13.6836 42.3842 13.6836 42.3842 13.6836C42.3838 13.6837 42.3842 13.6836 42.3839 13.6837C42.3837 13.6837 42.384 13.6836 42.3838 13.6837C42.3837 13.6837 42.3838 13.6837 42.3837 13.6837C42.3837 13.6837 42.3837 13.6837 42.3837 13.6837C42.3837 13.6837 42.3837 13.6837 42.3837 13.6837C42.3837 13.6837 42.3837 13.6837 42.3837 13.6837C42.3837 13.6837 42.3837 13.6837 42.8688 15.624ZM43.3038 17.3462L44.5198 17.6342L45.4417 13.7418L44.2257 13.4538L43.3038 17.3462ZM44.3483 17.5854C44.3528 17.5869 44.3546 17.5877 44.3593 17.591C44.365 17.5951 44.3865 17.6113 44.4205 17.6532L47.525 15.1308C47.0294 14.5208 46.3892 14.0493 45.6132 13.7906L44.3483 17.5854ZM43.9749 16.2986L43.8149 19.7226L47.8106 19.9094L47.9706 16.4854L43.9749 16.2986ZM43.8136 19.7589L43.6856 24.2389L47.6839 24.3531L47.8119 19.8731L43.8136 19.7589ZM43.6856 24.2389C43.6179 26.606 43.7757 28.9433 44.16 31.2488L48.1055 30.5912C47.7645 28.5447 47.6236 26.466 47.6839 24.3531L43.6856 24.2389ZM44.1594 31.2453C44.5131 33.391 45.1833 35.2768 46.2556 36.8049L49.5299 34.5071C48.8955 33.6032 48.3924 32.3316 48.1061 30.5947L44.1594 31.2453ZM46.2691 36.8239C47.5594 38.6176 49.4579 39.4834 51.6751 39.5118L51.7264 35.5122C50.6156 35.4979 49.9755 35.1264 49.5164 34.4881L46.2691 36.8239ZM51.6695 39.5118C53.4235 39.5392 55.0467 39.0658 56.3458 37.9292L53.7117 34.9188C53.3041 35.2755 52.7087 35.5275 51.732 35.5122L51.6695 39.5118ZM56.35 37.9254C57.1342 37.2353 57.9958 36.0133 58.9089 34.5268L55.5006 32.4332C54.5791 33.9333 53.99 34.674 53.7075 34.9226L56.35 37.9254ZM58.9113 34.5229C60.5653 31.8163 61.3168 28.4695 61.3168 24.616H57.3168C57.3168 27.9731 56.6602 30.5357 55.4982 32.4371L58.9113 34.5229ZM61.3168 24.616C61.3168 22.6172 61.135 20.6932 60.7659 18.8478L56.8436 19.6322C57.1572 21.2001 57.3168 22.8601 57.3168 24.616H61.3168ZM60.7659 18.8478C60.6066 18.0512 60.4228 17.2916 60.2134 16.5704L56.3721 17.6856C56.5467 18.2871 56.7042 18.9355 56.8436 19.6322L60.7659 18.8478ZM60.0672 18.0507L60.4832 17.2507L56.9343 15.4053L56.5183 16.2053L60.0672 18.0507ZM60.2705 17.5774C60.0788 17.817 59.875 17.9107 59.8067 17.9371C59.7427 17.9619 59.7495 17.9473 59.874 17.9365L59.5275 13.9515C58.894 14.0066 57.8486 14.2017 57.147 15.0786L60.2705 17.5774ZM59.8818 17.9358L60.9378 17.8398L60.5757 13.8562L59.5197 13.9522L59.8818 17.9358ZM60.7568 17.848C60.947 17.848 61.0092 17.8641 60.9867 17.8588C60.9712 17.8552 60.9073 17.8392 60.8153 17.795C60.7227 17.7506 60.5789 17.6666 60.4305 17.5182L63.259 14.6898C62.8044 14.2352 62.2649 14.0504 61.9028 13.9652C61.5177 13.8745 61.1211 13.848 60.7568 13.848V17.848ZM60.4305 17.5182L60.9425 18.0302L63.771 15.2018L63.259 14.6898L60.4305 17.5182ZM71.1605 15.688L72.2699 14.0239L71.828 13.7293L71.2981 13.6927L71.1605 15.688ZM72.0565 16.904L73.9968 16.4189L73.9671 16.3002L73.9232 16.186L72.0565 16.904ZM72.3125 18.76L70.3136 18.8266L70.3141 18.8409L70.3148 18.8551L72.3125 18.76ZM72.1205 20.904L70.1432 20.6031L70.1416 20.6144L72.1205 20.904ZM71.9285 22.216L69.9496 21.9264L69.9285 22.0704V22.216H71.9285ZM72.4405 25.704L70.5125 26.2359L70.5149 26.2445L72.4405 25.704ZM74.1045 27.656L74.3303 25.6688L74.3254 25.6682L74.1045 27.656ZM75.5125 27.816L75.2867 29.8032L75.3992 29.816H75.5125V27.816ZM78.4565 25.256L80.1997 26.2365L80.2038 26.2292L78.4565 25.256ZM81.2725 20.2L79.6175 19.077L79.5681 19.1499L79.5252 19.2268L81.2725 20.2ZM85.4645 17.512L86.2438 15.6701L85.8702 15.512H85.4645V17.512ZM86.3605 19.144L84.363 19.2439L84.3638 19.2605L84.3649 19.277L86.3605 19.144ZM85.9445 21.32L84.0108 20.8092L84.0086 20.8176L84.0065 20.826L85.9445 21.32ZM85.5285 22.952L83.5905 22.458L83.5285 22.7011V22.952H85.5285ZM84.0245 31.048L85.9273 31.664L85.9283 31.6609L84.0245 31.048ZM80.2485 38.472L78.6753 37.2371L78.6719 37.2415L80.2485 38.472ZM73.3685 42.44L73.3517 40.4401L73.3507 40.4401L73.3685 42.44ZM65.5925 40.744L63.69 41.361L63.6917 41.3661L65.5925 40.744ZM65.8805 38.44V36.44H65.8329L65.7854 36.4423L65.8805 38.44ZM67.6725 38.824L68.1289 36.8768L68.1222 36.8752L67.6725 38.824ZM69.7205 39.304L69.2641 41.2512L69.3502 41.2714L69.4377 41.2839L69.7205 39.304ZM80.1525 33.192L78.3589 32.3071L78.3563 32.3124L80.1525 33.192ZM81.4965 29L79.5055 28.8104L79.5044 28.8221L81.4965 29ZM81.8165 25.64L83.8075 25.8296L80.1214 24.5786L81.8165 25.64ZM79.6725 29.064L81.2612 30.2789L81.318 30.2046L81.3676 30.1254L79.6725 29.064ZM72.2805 29.8L73.3041 28.0818L73.3041 28.0818L72.2805 29.8ZM69.6565 26.696L71.4402 25.7912L71.4337 25.7787L69.6565 26.696ZM68.1525 17.032L66.1848 16.6742L66.1821 16.6887L66.1797 16.7032L68.1525 17.032ZM69.3045 15.56L69.4421 13.5647L68.9562 13.5312L68.5093 13.7249L69.3045 15.56ZM70.0511 17.3521C70.0037 17.3205 70.0823 17.3425 70.1898 17.622L73.9232 16.186C73.604 15.3561 73.0853 14.5675 72.2699 14.0239L70.0511 17.3521ZM70.1162 17.3891C70.23 17.844 70.2968 18.3221 70.3136 18.8266L74.3114 18.6934C74.2855 17.9179 74.1817 17.1586 73.9968 16.4189L70.1162 17.3891ZM70.3148 18.8551C70.3259 19.0891 70.2907 19.6344 70.1433 20.6031L74.0977 21.2049C74.249 20.2109 74.3418 19.3269 74.3102 18.6649L70.3148 18.8551ZM70.1416 20.6144L69.9496 21.9264L73.9074 22.5056L74.0994 21.1936L70.1416 20.6144ZM69.9285 22.216C69.9285 23.5125 70.1317 24.8554 70.5125 26.2359L74.3685 25.1721C74.0666 24.0779 73.9285 23.0955 73.9285 22.216H69.9285ZM70.5149 26.2445C70.9205 27.6895 71.8545 29.4183 73.8836 29.6438L74.3254 25.6682C74.3917 25.6756 74.4693 25.6984 74.541 25.7383C74.6095 25.7765 74.6383 25.8109 74.6345 25.8065C74.6284 25.7993 74.592 25.7538 74.5395 25.6445C74.4872 25.5356 74.4266 25.3792 74.3661 25.1635L70.5149 26.2445ZM73.8787 29.6432L75.2867 29.8032L75.7383 25.8288L74.3303 25.6688L73.8787 29.6432ZM75.5125 29.816C77.719 29.816 79.2112 27.9937 80.1997 26.2365L76.7134 24.2755C76.2946 25.0198 75.9419 25.4461 75.6881 25.6668C75.451 25.873 75.4029 25.816 75.5125 25.816V29.816ZM80.2038 26.2292L83.0198 21.1732L79.5252 19.2268L76.7092 24.2828L80.2038 26.2292ZM82.9275 21.323C83.9225 19.8566 84.779 19.512 85.4645 19.512V15.512C82.9926 15.512 81.0545 16.9594 79.6175 19.077L82.9275 21.323ZM84.6852 19.3539C84.624 19.328 84.5524 19.2854 84.4844 19.2234C84.417 19.1619 84.3746 19.1009 84.3513 19.0585C84.3108 18.9847 84.3514 19.0121 84.363 19.2439L88.358 19.0441C88.2955 17.7932 87.791 16.3247 86.2438 15.6701L84.6852 19.3539ZM84.3649 19.277C84.359 19.1875 84.3676 19.1598 84.359 19.2369C84.3518 19.3007 84.3366 19.4032 84.3081 19.5524C84.2509 19.8515 84.1543 20.2661 84.0108 20.8092L87.8782 21.8308C88.0334 21.2432 88.1554 20.7299 88.2369 20.3035C88.3077 19.9333 88.3853 19.4501 88.3561 19.011L84.3649 19.277ZM84.0065 20.826L83.5905 22.458L87.4665 23.446L87.8825 21.814L84.0065 20.826ZM83.5285 22.952C83.5285 24.9579 83.0848 27.4403 82.1207 30.4351L85.9283 31.6609C86.9695 28.4264 87.5285 25.5114 87.5285 22.952H83.5285ZM82.1217 30.432C81.2178 33.2242 80.0574 35.4763 78.6753 37.2371L81.8217 39.7069C83.5542 37.4997 84.9112 34.8025 85.9273 31.664L82.1217 30.432ZM78.6719 37.2415C76.8731 39.5461 75.1011 40.4254 73.3517 40.4401L73.3853 44.4399C76.7132 44.412 79.5279 42.6459 81.8251 39.7025L78.6719 37.2415ZM73.3507 40.4401C71.0007 40.461 69.3283 40.329 68.2507 40.0939C67.7096 39.9759 67.4243 39.8537 67.3034 39.7831C67.1869 39.715 67.3862 39.7946 67.4933 40.1219L63.6917 41.3661C63.9908 42.2801 64.6581 42.8703 65.2856 43.2369C65.9087 43.6009 66.6434 43.8374 67.3983 44.0021C68.9127 44.3324 70.9363 44.4617 73.3863 44.4399L73.3507 40.4401ZM67.4949 40.127C67.3775 39.7649 67.2999 39.4881 67.2533 39.2863C67.2014 39.0613 67.2085 39.015 67.2085 39.08H63.2085C63.2085 39.7565 63.4406 40.5917 63.6901 41.361L67.4949 40.127ZM67.2085 39.08C67.2085 39.2468 67.1528 39.6862 66.7558 40.0643C66.3919 40.4109 66.0199 40.4356 65.9756 40.4377L65.7854 36.4423C65.2931 36.4657 64.5851 36.6078 63.9972 37.1677C63.3762 37.7592 63.2085 38.5079 63.2085 39.08H67.2085ZM65.8805 40.44C65.7808 40.44 65.7064 40.4319 65.6894 40.4301C65.6617 40.4271 65.6434 40.4244 65.6398 40.4239C65.6325 40.4228 65.6407 40.4239 65.6719 40.4297C65.7324 40.4411 65.8304 40.4609 65.9734 40.4916C66.2566 40.5523 66.6712 40.6455 67.2228 40.7728L68.1222 36.8752C67.5644 36.7465 67.1257 36.6477 66.8116 36.5804C66.6559 36.547 66.5193 36.5189 66.4091 36.4983C66.3948 36.4956 66.1304 36.44 65.8805 36.44V40.44ZM67.2161 40.7712L69.2641 41.2512L70.1769 37.3568L68.1289 36.8768L67.2161 40.7712ZM69.4377 41.2839C70.0136 41.3662 70.6816 41.4 71.4165 41.4V37.4C70.7861 37.4 70.3234 37.3698 70.0033 37.3241L69.4377 41.2839ZM71.4165 41.4C73.7027 41.4 75.7907 40.769 77.607 39.4783C79.4024 38.2025 80.8301 36.3559 81.9487 34.0716L78.3563 32.3124C77.4482 34.1668 76.4066 35.4242 75.29 36.2177C74.1943 36.9963 72.9277 37.4 71.4165 37.4V41.4ZM81.9461 34.0768C82.7965 32.3531 83.352 30.7076 83.4886 29.1779L79.5044 28.8221C79.4277 29.6818 79.0872 30.8309 78.3589 32.3072L81.9461 34.0768ZM83.4875 29.1896L83.8075 25.8296L79.8255 25.4504L79.5055 28.8104L83.4875 29.1896ZM80.1214 24.5786L77.9774 28.0026L81.3676 30.1254L83.5116 26.7014L80.1214 24.5786ZM78.0838 27.8491C77.6555 28.4092 77.119 28.696 76.2485 28.696V32.696C78.2793 32.696 80.0255 31.8948 81.2612 30.2789L78.0838 27.8491ZM76.2485 28.696C74.8266 28.696 73.896 28.4344 73.3041 28.0818L71.2569 31.5182C72.6704 32.3603 74.3851 32.696 76.2485 32.696V28.696ZM73.3041 28.0818C72.735 27.7427 72.0833 27.0591 71.4402 25.7912L67.8728 27.6008C68.7231 29.2769 69.8207 30.6626 71.2569 31.5182L73.3041 28.0818ZM71.4337 25.7787C70.5267 24.0213 70.1205 22.4143 70.1205 20.936H66.1205C66.1205 23.1697 66.7383 25.4027 67.8793 27.6133L71.4337 25.7787ZM70.1205 20.936V19.048H66.1205V20.936H70.1205ZM70.1205 19.048C70.1205 18.4436 70.1232 17.9839 70.1282 17.6637C70.1308 17.5026 70.1338 17.3868 70.1369 17.3099C70.1385 17.2712 70.1397 17.2517 70.14 17.2466C70.1415 17.226 70.1389 17.2793 70.1253 17.3608L66.1797 16.7032C66.138 16.9536 66.1328 17.3454 66.1288 17.6003C66.1232 17.9521 66.1205 18.4364 66.1205 19.048H70.1205ZM70.1202 17.3898C70.128 17.3468 70.1356 17.33 70.1348 17.3318C70.1345 17.3326 70.1325 17.337 70.1284 17.344C70.1242 17.3511 70.1186 17.3596 70.1115 17.3686C70.1044 17.3777 70.0969 17.386 70.0896 17.3931C70.0822 17.4003 70.0762 17.4052 70.0725 17.408C70.0646 17.4139 70.0706 17.4077 70.0997 17.3951L68.5093 13.7249C67.2374 14.276 66.4286 15.3333 66.1848 16.6742L70.1202 17.3898ZM69.1669 17.5553L71.0229 17.6833L71.2981 13.6927L69.4421 13.5647L69.1669 17.5553Z" fill="black" mask="url(#path-20-outside-1_452_16)"></path><mask id="path-22-outside-2_452_16" maskUnits="userSpaceOnUse" x="18" y="12" width="73" height="32" fill="black"><rect fill="white" x="18" y="12" width="73" height="32"></rect><path d="M31.2 14.4C32.2667 14.4 33.536 14.9547 35.008 16.064C36.48 17.1733 37.216 18.3787 37.216 19.68C37.216 20.8107 37.0667 21.7707 36.768 22.56C36.512 23.456 35.904 24.2453 34.944 24.928C36.9493 25.888 38.56 26.752 39.776 27.52C40.8853 28.224 41.4507 29.5253 41.472 31.424C41.1947 32.256 41.0347 32.7253 40.992 32.832C40.9707 32.9387 40.8533 33.2053 40.64 33.632C39.5733 35.7867 37.9413 37.4187 35.744 38.528C33.7813 39.5093 31.5093 40 28.928 40C27.072 40 25.5893 39.7333 24.48 39.2L21.408 37.728L21.024 36.032L21.568 35.296L24.416 35.488C24.224 34.6133 24.064 33.8453 23.936 33.184C23.8293 32.7147 23.6907 31.968 23.52 30.944C23.3707 30.176 23.2853 29.1307 23.264 27.808C23.2427 26.8267 23.36 26.1227 23.616 25.696L24.416 24.928C24.3733 24.736 24.2773 24.4693 24.128 24.128C24.128 24.0853 24.032 23.744 23.84 23.104C23.648 22.464 23.552 21.664 23.552 20.704C23.552 16.5013 26.1013 14.4 31.2 14.4ZM26.56 19.296L26.72 24.8C27.4027 24.6293 28.2987 24.4907 29.408 24.384C30.304 24.2987 31.008 24.1493 31.52 23.936C32.288 23.6373 33.1413 23.072 34.08 22.24L34.656 20.576L34.08 18.176C33.5893 17.8773 32.9707 17.7173 32.224 17.696L29.664 17.632C28.0853 17.5893 27.1893 17.7813 26.976 18.208L26.56 19.296ZM26.688 29.472V35.488C26.688 36 27.0827 36.256 27.872 36.256C28.384 36.256 29.184 36.128 30.272 35.872C31.3813 35.616 32.192 35.488 32.704 35.488L35.04 34.624C36.4053 34.112 37.2693 33.3973 37.632 32.48L36.864 29.792C36.2667 29.3867 35.0613 28.992 33.248 28.608C31.5413 28.2453 30.2507 28.064 29.376 28.064C28.544 28.064 27.8827 28.1707 27.392 28.384C26.9227 28.5973 26.688 28.96 26.688 29.472ZM64.3568 15.616L65.2208 20.544L64.9648 28.672C64.5381 31.872 63.4821 34.4853 61.7968 36.512C59.8768 38.8373 57.4021 40 54.3728 40C50.8528 40 48.3034 38.6987 46.7248 36.096C45.7221 34.432 44.8901 31.488 44.2288 27.264L43.5568 15.968C43.5354 15.4773 43.7701 15.104 44.2608 14.848C44.5808 14.7413 44.7834 14.6667 44.8688 14.624C44.8688 14.624 45.1674 14.5493 45.7648 14.4L46.9808 14.688C47.3648 14.816 47.6954 15.0507 47.9728 15.392L47.8128 18.816L47.6848 23.296C47.6208 25.536 47.7701 27.744 48.1328 29.92C48.4528 31.8613 49.0394 33.44 49.8928 34.656C50.7674 35.872 52.0368 36.4907 53.7008 36.512C55.0661 36.5333 56.1754 36.1707 57.0288 35.424C57.5621 34.9547 58.2874 33.9733 59.2048 32.48C60.6128 30.176 61.3168 27.2213 61.3168 23.616C61.3168 21.7387 61.1461 19.9467 60.8048 18.24C60.6554 17.4933 60.4848 16.7893 60.2928 16.128L60.7088 15.328C60.8794 15.1147 61.2101 14.9867 61.7008 14.944L62.7568 14.848C63.3114 14.848 63.6741 14.9333 63.8448 15.104L64.3568 15.616ZM73.1605 14.688C73.5445 14.944 73.8432 15.3493 74.0565 15.904C74.2058 16.5013 74.2912 17.12 74.3125 17.76C74.3338 18.208 74.2698 18.9227 74.1205 19.904L73.9285 21.216C73.9285 22.304 74.0992 23.4667 74.4405 24.704C74.7818 25.92 75.3365 26.5707 76.1045 26.656L77.5125 26.816C78.5152 26.816 79.4965 25.9627 80.4565 24.256L83.2725 19.2C84.4885 17.408 85.8858 16.512 87.4645 16.512C88.0192 16.7467 88.3178 17.2907 88.3605 18.144C88.3818 18.464 88.2432 19.1893 87.9445 20.32L87.5285 21.952C87.5285 24.2347 87.0272 26.9333 86.0245 30.048C85.0645 33.0133 83.8058 35.488 82.2485 37.472C80.2005 40.096 77.9072 41.4187 75.3685 41.44C70.5685 41.4827 67.9765 40.9173 67.5925 39.744C67.3365 38.9547 67.2085 38.4 67.2085 38.08C67.2085 37.6747 67.4325 37.4613 67.8805 37.44C67.9658 37.44 68.5632 37.568 69.6725 37.824L71.7205 38.304C72.1685 38.368 72.7338 38.4 73.4165 38.4C77.2138 38.4 80.1258 36.3307 82.1525 32.192C82.9418 30.592 83.3898 29.1947 83.4965 28L83.8165 24.64L81.6725 28.064C80.8405 29.152 79.6992 29.696 78.2485 29.696C76.6058 29.696 75.2832 29.3973 74.2805 28.8C73.2778 28.2027 72.4032 27.168 71.6565 25.696C70.6325 23.712 70.1205 21.792 70.1205 19.936V18.048C70.1205 16.832 70.1312 16.16 70.1525 16.032C70.2805 15.328 70.6645 14.8373 71.3045 14.56L73.1605 14.688Z"></path></mask><path d="M31.2 14.4C32.2667 14.4 33.536 14.9547 35.008 16.064C36.48 17.1733 37.216 18.3787 37.216 19.68C37.216 20.8107 37.0667 21.7707 36.768 22.56C36.512 23.456 35.904 24.2453 34.944 24.928C36.9493 25.888 38.56 26.752 39.776 27.52C40.8853 28.224 41.4507 29.5253 41.472 31.424C41.1947 32.256 41.0347 32.7253 40.992 32.832C40.9707 32.9387 40.8533 33.2053 40.64 33.632C39.5733 35.7867 37.9413 37.4187 35.744 38.528C33.7813 39.5093 31.5093 40 28.928 40C27.072 40 25.5893 39.7333 24.48 39.2L21.408 37.728L21.024 36.032L21.568 35.296L24.416 35.488C24.224 34.6133 24.064 33.8453 23.936 33.184C23.8293 32.7147 23.6907 31.968 23.52 30.944C23.3707 30.176 23.2853 29.1307 23.264 27.808C23.2427 26.8267 23.36 26.1227 23.616 25.696L24.416 24.928C24.3733 24.736 24.2773 24.4693 24.128 24.128C24.128 24.0853 24.032 23.744 23.84 23.104C23.648 22.464 23.552 21.664 23.552 20.704C23.552 16.5013 26.1013 14.4 31.2 14.4ZM26.56 19.296L26.72 24.8C27.4027 24.6293 28.2987 24.4907 29.408 24.384C30.304 24.2987 31.008 24.1493 31.52 23.936C32.288 23.6373 33.1413 23.072 34.08 22.24L34.656 20.576L34.08 18.176C33.5893 17.8773 32.9707 17.7173 32.224 17.696L29.664 17.632C28.0853 17.5893 27.1893 17.7813 26.976 18.208L26.56 19.296ZM26.688 29.472V35.488C26.688 36 27.0827 36.256 27.872 36.256C28.384 36.256 29.184 36.128 30.272 35.872C31.3813 35.616 32.192 35.488 32.704 35.488L35.04 34.624C36.4053 34.112 37.2693 33.3973 37.632 32.48L36.864 29.792C36.2667 29.3867 35.0613 28.992 33.248 28.608C31.5413 28.2453 30.2507 28.064 29.376 28.064C28.544 28.064 27.8827 28.1707 27.392 28.384C26.9227 28.5973 26.688 28.96 26.688 29.472ZM64.3568 15.616L65.2208 20.544L64.9648 28.672C64.5381 31.872 63.4821 34.4853 61.7968 36.512C59.8768 38.8373 57.4021 40 54.3728 40C50.8528 40 48.3034 38.6987 46.7248 36.096C45.7221 34.432 44.8901 31.488 44.2288 27.264L43.5568 15.968C43.5354 15.4773 43.7701 15.104 44.2608 14.848C44.5808 14.7413 44.7834 14.6667 44.8688 14.624C44.8688 14.624 45.1674 14.5493 45.7648 14.4L46.9808 14.688C47.3648 14.816 47.6954 15.0507 47.9728 15.392L47.8128 18.816L47.6848 23.296C47.6208 25.536 47.7701 27.744 48.1328 29.92C48.4528 31.8613 49.0394 33.44 49.8928 34.656C50.7674 35.872 52.0368 36.4907 53.7008 36.512C55.0661 36.5333 56.1754 36.1707 57.0288 35.424C57.5621 34.9547 58.2874 33.9733 59.2048 32.48C60.6128 30.176 61.3168 27.2213 61.3168 23.616C61.3168 21.7387 61.1461 19.9467 60.8048 18.24C60.6554 17.4933 60.4848 16.7893 60.2928 16.128L60.7088 15.328C60.8794 15.1147 61.2101 14.9867 61.7008 14.944L62.7568 14.848C63.3114 14.848 63.6741 14.9333 63.8448 15.104L64.3568 15.616ZM73.1605 14.688C73.5445 14.944 73.8432 15.3493 74.0565 15.904C74.2058 16.5013 74.2912 17.12 74.3125 17.76C74.3338 18.208 74.2698 18.9227 74.1205 19.904L73.9285 21.216C73.9285 22.304 74.0992 23.4667 74.4405 24.704C74.7818 25.92 75.3365 26.5707 76.1045 26.656L77.5125 26.816C78.5152 26.816 79.4965 25.9627 80.4565 24.256L83.2725 19.2C84.4885 17.408 85.8858 16.512 87.4645 16.512C88.0192 16.7467 88.3178 17.2907 88.3605 18.144C88.3818 18.464 88.2432 19.1893 87.9445 20.32L87.5285 21.952C87.5285 24.2347 87.0272 26.9333 86.0245 30.048C85.0645 33.0133 83.8058 35.488 82.2485 37.472C80.2005 40.096 77.9072 41.4187 75.3685 41.44C70.5685 41.4827 67.9765 40.9173 67.5925 39.744C67.3365 38.9547 67.2085 38.4 67.2085 38.08C67.2085 37.6747 67.4325 37.4613 67.8805 37.44C67.9658 37.44 68.5632 37.568 69.6725 37.824L71.7205 38.304C72.1685 38.368 72.7338 38.4 73.4165 38.4C77.2138 38.4 80.1258 36.3307 82.1525 32.192C82.9418 30.592 83.3898 29.1947 83.4965 28L83.8165 24.64L81.6725 28.064C80.8405 29.152 79.6992 29.696 78.2485 29.696C76.6058 29.696 75.2832 29.3973 74.2805 28.8C73.2778 28.2027 72.4032 27.168 71.6565 25.696C70.6325 23.712 70.1205 21.792 70.1205 19.936V18.048C70.1205 16.832 70.1312 16.16 70.1525 16.032C70.2805 15.328 70.6645 14.8373 71.3045 14.56L73.1605 14.688Z" fill="#FFDE00"></path><path d="M35.008 16.064L33.8043 17.6612L33.8043 17.6612L35.008 16.064ZM36.768 22.56L34.8974 21.8522L34.8679 21.9303L34.845 22.0106L36.768 22.56ZM34.944 24.928L33.785 23.2981L31.0178 25.2658L34.0804 26.7319L34.944 24.928ZM39.776 27.52L40.8477 25.8313L40.844 25.829L39.776 27.52ZM41.472 31.424L43.3694 32.0565L43.4756 31.7376L43.4719 31.4015L41.472 31.424ZM40.992 32.832L39.1351 32.0892L39.0669 32.2597L39.0308 32.4398L40.992 32.832ZM40.64 33.632L38.8511 32.7376L38.8476 32.7447L40.64 33.632ZM35.744 38.528L36.6384 40.3169L36.6454 40.3134L35.744 38.528ZM24.48 39.2L25.3466 37.3975L25.3442 37.3964L24.48 39.2ZM21.408 37.728L19.4574 38.1697L19.6711 39.1135L20.5438 39.5316L21.408 37.728ZM21.024 36.032L19.4156 34.8432L18.871 35.58L19.0734 36.4737L21.024 36.032ZM21.568 35.296L21.7025 33.3005L20.6103 33.2269L19.9596 34.1072L21.568 35.296ZM24.416 35.488L24.2815 37.4835L26.941 37.6628L26.3695 35.0592L24.416 35.488ZM23.936 33.184L25.8996 32.804L25.8934 32.7722L25.8863 32.7408L23.936 33.184ZM23.52 30.944L25.4928 30.6152L25.4884 30.5887L25.4832 30.5623L23.52 30.944ZM23.264 27.808L25.2638 27.7757L25.2635 27.7645L23.264 27.808ZM23.616 25.696L22.2309 24.2532L22.0384 24.4381L21.901 24.667L23.616 25.696ZM24.416 24.928L25.8011 26.3708L26.6123 25.592L26.3684 24.4941L24.416 24.928ZM24.128 24.128H22.128V24.5464L22.2957 24.9296L24.128 24.128ZM23.84 23.104L21.9243 23.6787L21.9243 23.6787L23.84 23.104ZM26.56 19.296L24.6919 18.5817L24.5492 18.9548L24.5608 19.3541L26.56 19.296ZM26.72 24.8L24.7208 24.8581L24.7931 27.3433L27.2051 26.7403L26.72 24.8ZM29.408 24.384L29.2184 22.393L29.2166 22.3932L29.408 24.384ZM31.52 23.936L30.7951 22.072L30.7728 22.0807L30.7508 22.0898L31.52 23.936ZM34.08 22.24L35.4066 23.7367L35.7986 23.3892L35.97 22.8942L34.08 22.24ZM34.656 20.576L36.546 21.2302L36.7372 20.6777L36.6008 20.1093L34.656 20.576ZM34.08 18.176L36.0248 17.7093L35.8306 16.9002L35.1199 16.4676L34.08 18.176ZM32.224 17.696L32.2811 15.6968L32.274 15.6966L32.224 17.696ZM29.664 17.632L29.61 19.6313L29.614 19.6314L29.664 17.632ZM26.976 18.208L25.1871 17.3136L25.1431 17.4017L25.1079 17.4937L26.976 18.208ZM30.272 35.872L29.8223 33.9232L29.8139 33.9252L30.272 35.872ZM32.704 35.488V37.488H33.062L33.3978 37.3638L32.704 35.488ZM35.04 34.624L35.7338 36.4998L35.7422 36.4967L35.04 34.624ZM37.632 32.48L39.4919 33.2153L39.7416 32.5837L39.555 31.9306L37.632 32.48ZM36.864 29.792L38.787 29.2426L38.5876 28.5446L37.987 28.137L36.864 29.792ZM33.248 28.608L32.8323 30.5643L32.8337 30.5646L33.248 28.608ZM27.392 28.384L26.5945 26.5499L26.5794 26.5564L26.5644 26.5633L27.392 28.384ZM31.2 16.4C31.6155 16.4 32.4528 16.6427 33.8043 17.6612L36.2117 14.4668C34.6192 13.2666 32.9178 12.4 31.2 12.4V16.4ZM33.8043 17.6612C34.9961 18.5594 35.216 19.2397 35.216 19.68H39.216C39.216 17.5177 37.9639 15.7873 36.2117 14.4668L33.8043 17.6612ZM35.216 19.68C35.216 20.646 35.0869 21.3515 34.8974 21.8522L38.6386 23.2678C39.0464 22.1899 39.216 20.9753 39.216 19.68H35.216ZM34.845 22.0106C34.7435 22.3656 34.4746 22.8076 33.785 23.2981L36.103 26.5579C37.3334 25.683 38.2805 24.5464 38.691 23.1094L34.845 22.0106ZM34.0804 26.7319C36.0489 27.6743 37.5832 28.5005 38.708 29.211L40.844 25.829C39.5368 25.0034 37.8498 24.1017 35.8076 23.1241L34.0804 26.7319ZM38.7044 29.2087C39.0134 29.4048 39.4547 29.8992 39.4721 31.4465L43.4719 31.4015C43.4466 29.1514 42.7572 27.0432 40.8476 25.8313L38.7044 29.2087ZM39.5746 30.7915C39.4365 31.206 39.3288 31.5263 39.251 31.7547C39.1639 32.0102 39.1325 32.0957 39.1351 32.0892L42.849 33.5748C42.9199 33.3973 43.106 32.8465 43.3694 32.0565L39.5746 30.7915ZM39.0308 32.4398C39.0457 32.3652 39.0617 32.3116 39.0687 32.2889C39.0767 32.263 39.0824 32.2476 39.0831 32.2456C39.0841 32.243 39.0774 32.261 39.0574 32.3065C39.0175 32.3971 38.9511 32.5377 38.8511 32.7376L42.4289 34.5264C42.5422 34.2997 42.6412 34.0935 42.7186 33.9175C42.7698 33.8013 42.8939 33.5205 42.9532 33.2242L39.0308 32.4398ZM38.8476 32.7447C37.9778 34.5016 36.6635 35.8233 34.8426 36.7426L36.6454 40.3134C39.2191 39.014 41.1688 37.0717 42.4324 34.5193L38.8476 32.7447ZM34.8496 36.7391C33.2096 37.5591 31.2534 38 28.928 38V42C31.7653 42 34.3531 41.4595 36.6384 40.3169L34.8496 36.7391ZM28.928 38C27.2332 38 26.0834 37.7517 25.3466 37.3975L23.6134 41.0025C25.0953 41.7149 26.9108 42 28.928 42V38ZM25.3442 37.3964L22.2722 35.9244L20.5438 39.5316L23.6158 41.0036L25.3442 37.3964ZM23.3586 37.2863L22.9746 35.5903L19.0734 36.4737L19.4574 38.1697L23.3586 37.2863ZM22.6324 37.2208L23.1764 36.4848L19.9596 34.1072L19.4156 34.8432L22.6324 37.2208ZM21.4335 37.2915L24.2815 37.4835L24.5505 33.4925L21.7025 33.3005L21.4335 37.2915ZM26.3695 35.0592C26.18 34.1958 26.0236 33.4447 25.8996 32.804L21.9724 33.564C22.1044 34.246 22.268 35.0308 22.4625 35.9168L26.3695 35.0592ZM25.8863 32.7408C25.7934 32.3321 25.6626 31.6341 25.4928 30.6152L21.5472 31.2728C21.7187 32.3019 21.8653 33.0973 21.9857 33.6272L25.8863 32.7408ZM25.4832 30.5623C25.3664 29.9613 25.2843 29.0494 25.2637 27.7757L21.2643 27.8403C21.2864 29.2119 21.375 30.3907 21.5568 31.3257L25.4832 30.5623ZM25.2635 27.7645C25.2546 27.3557 25.2766 27.0658 25.3088 26.8728C25.3427 26.6696 25.3751 26.6514 25.331 26.725L21.901 24.667C21.3385 25.6045 21.2415 26.7966 21.2645 27.8515L25.2635 27.7645ZM25.0011 27.1388L25.8011 26.3708L23.0309 23.4852L22.2309 24.2532L25.0011 27.1388ZM26.3684 24.4941C26.2829 24.1096 26.1243 23.7011 25.9603 23.3264L22.2957 24.9296C22.3577 25.0713 22.4012 25.1807 22.4302 25.2614C22.4609 25.3466 22.4667 25.3757 22.4636 25.3619L26.3684 24.4941ZM26.128 24.128C26.128 23.9739 26.1097 23.8526 26.1047 23.8198C26.0969 23.7678 26.0885 23.7244 26.0829 23.6972C26.0717 23.6421 26.0594 23.5914 26.0503 23.5549C26.0313 23.4789 26.0072 23.3904 25.9813 23.2985C25.9286 23.111 25.8526 22.8525 25.7557 22.5293L21.9243 23.6787C22.0194 23.9955 22.0874 24.2277 22.1307 24.3815C22.1528 24.4602 22.1647 24.5051 22.1697 24.5251C22.1726 24.5366 22.1693 24.5245 22.1641 24.4988C22.1615 24.4863 22.1553 24.4552 22.149 24.4132C22.1458 24.3916 22.1412 24.3586 22.1372 24.3178C22.1336 24.2808 22.128 24.2132 22.128 24.128H26.128ZM25.7557 22.5293C25.6381 22.1375 25.552 21.5466 25.552 20.704H21.552C21.552 21.7814 21.6579 22.7905 21.9243 23.6787L25.7557 22.5293ZM25.552 20.704C25.552 19.0238 26.043 18.0906 26.7361 17.5193C27.5032 16.887 28.8751 16.4 31.2 16.4V12.4C28.4263 12.4 25.9741 12.9637 24.1919 14.4327C22.3357 15.9627 21.552 18.1816 21.552 20.704H25.552ZM24.5608 19.3541L24.7208 24.8581L28.7192 24.7419L28.5592 19.2379L24.5608 19.3541ZM27.2051 26.7403C27.7524 26.6034 28.5391 26.4768 29.5994 26.3748L29.2166 22.3932C28.0582 22.5046 27.0529 22.6552 26.2349 22.8597L27.2051 26.7403ZM29.5976 26.375C30.5853 26.2809 31.5137 26.1053 32.2892 25.7822L30.7508 22.0898C30.5023 22.1934 30.0227 22.3164 29.2184 22.393L29.5976 26.375ZM32.2449 25.8C33.3175 25.3829 34.3736 24.6523 35.4066 23.7367L32.7534 20.7433C31.9091 21.4917 31.2585 21.8918 30.7951 22.072L32.2449 25.8ZM35.97 22.8942L36.546 21.2302L32.766 19.9218L32.19 21.5858L35.97 22.8942ZM36.6008 20.1093L36.0248 17.7093L32.1352 18.6427L32.7112 21.0427L36.6008 20.1093ZM35.1199 16.4676C34.2563 15.9419 33.2735 15.7252 32.2811 15.6968L32.1669 19.6952C32.6679 19.7095 32.9224 19.8128 33.0401 19.8844L35.1199 16.4676ZM32.274 15.6966L29.714 15.6326L29.614 19.6314L32.174 19.6954L32.274 15.6966ZM29.718 15.6327C28.8664 15.6097 28.0647 15.6436 27.3889 15.7884C26.8482 15.9043 25.7327 16.2225 25.1871 17.3136L28.7649 19.1024C28.5876 19.4568 28.3362 19.624 28.2381 19.6787C28.145 19.7307 28.1193 19.7227 28.2271 19.6996C28.4473 19.6524 28.8829 19.6116 29.61 19.6313L29.718 15.6327ZM25.1079 17.4937L24.6919 18.5817L28.4281 20.0103L28.8441 18.9223L25.1079 17.4937ZM24.688 29.472V35.488H28.688V29.472H24.688ZM24.688 35.488C24.688 36.3504 25.0725 37.208 25.8956 37.7419C26.5693 38.1789 27.3251 38.256 27.872 38.256V34.256C27.6296 34.256 27.7934 34.2051 28.0724 34.3861C28.2396 34.4945 28.4165 34.6679 28.5409 34.9099C28.6616 35.1447 28.688 35.3569 28.688 35.488H24.688ZM27.872 38.256C28.6324 38.256 29.6255 38.0787 30.7301 37.8188L29.8139 33.9252C28.7425 34.1773 28.1356 34.256 27.872 34.256V38.256ZM30.7217 37.8208C31.8179 37.5678 32.4373 37.488 32.704 37.488V33.488C31.9467 33.488 30.9447 33.6642 29.8223 33.9232L30.7217 37.8208ZM33.3978 37.3638L35.7338 36.4998L34.3462 32.7482L32.0102 33.6122L33.3978 37.3638ZM35.7422 36.4967C37.3812 35.882 38.8387 34.8676 39.4919 33.2153L35.7721 31.7447C35.7 31.9271 35.4294 32.342 34.3378 32.7513L35.7422 36.4967ZM39.555 31.9306L38.787 29.2426L34.941 30.3414L35.709 33.0294L39.555 31.9306ZM37.987 28.137C37.0244 27.4839 35.4507 27.0301 33.6623 26.6514L32.8337 30.5646C34.6719 30.9539 35.5089 31.2895 35.741 31.447L37.987 28.137ZM33.6637 26.6517C31.9271 26.2826 30.4684 26.064 29.376 26.064V30.064C30.0329 30.064 31.1556 30.208 32.8323 30.5643L33.6637 26.6517ZM29.376 26.064C28.4059 26.064 27.4373 26.1834 26.5945 26.5499L28.1895 30.2181C28.328 30.1579 28.6821 30.064 29.376 30.064V26.064ZM26.5644 26.5633C26.0497 26.7972 25.5473 27.1694 25.1849 27.7295C24.8219 28.2905 24.688 28.903 24.688 29.472H28.688C28.688 29.529 28.6714 29.7042 28.5431 29.9025C28.4154 30.0999 28.2649 30.1841 28.2196 30.2047L26.5644 26.5633ZM64.3568 15.616L66.3267 15.2706L66.2176 14.6484L65.771 14.2018L64.3568 15.616ZM65.2208 20.544L67.2198 20.607L67.2262 20.4013L67.1907 20.1986L65.2208 20.544ZM64.9648 28.672L66.9472 28.9363L66.9606 28.8361L66.9638 28.735L64.9648 28.672ZM61.7968 36.512L60.259 35.2332L60.2545 35.2386L61.7968 36.512ZM46.7248 36.096L45.0117 37.1282L45.0147 37.1332L46.7248 36.096ZM44.2288 27.264L42.2323 27.3828L42.238 27.4786L42.2528 27.5734L44.2288 27.264ZM43.5568 15.968L41.5586 16.0549L41.5593 16.0708L41.5603 16.0868L43.5568 15.968ZM44.2608 14.848L43.6283 12.9506L43.477 13.0011L43.3356 13.0748L44.2608 14.848ZM44.8688 14.624L44.3837 12.6837L44.1707 12.737L43.9743 12.8352L44.8688 14.624ZM45.7648 14.4L46.2257 12.4538L45.752 12.3416L45.2797 12.4597L45.7648 14.4ZM46.9808 14.688L47.6132 12.7906L47.5285 12.7624L47.4417 12.7418L46.9808 14.688ZM47.9728 15.392L49.9706 15.4854L50.0062 14.7231L49.525 14.1308L47.9728 15.392ZM47.8128 18.816L45.8149 18.7226L45.8141 18.7408L45.8136 18.7589L47.8128 18.816ZM47.6848 23.296L45.6856 23.2389L45.6856 23.2389L47.6848 23.296ZM48.1328 29.92L50.1061 29.5947L50.1055 29.5912L48.1328 29.92ZM49.8928 34.656L48.2556 35.8049L48.2623 35.8144L48.2691 35.8239L49.8928 34.656ZM53.7008 36.512L53.732 34.5122L53.7264 34.5122L53.7008 36.512ZM57.0288 35.424L58.3458 36.9292L58.35 36.9254L57.0288 35.424ZM59.2048 32.48L60.9089 33.5268L60.9113 33.5229L59.2048 32.48ZM60.8048 18.24L58.8436 18.6322L58.8436 18.6322L60.8048 18.24ZM60.2928 16.128L58.5183 15.2053L58.1487 15.9162L58.3721 16.6856L60.2928 16.128ZM60.7088 15.328L59.147 14.0786L59.0247 14.2315L58.9343 14.4053L60.7088 15.328ZM61.7008 14.944L61.874 16.9365L61.8818 16.9358L61.7008 14.944ZM62.7568 14.848V12.848H62.666L62.5757 12.8562L62.7568 14.848ZM63.8448 15.104L65.259 13.6898L65.259 13.6898L63.8448 15.104ZM62.3868 15.9614L63.2508 20.8894L67.1907 20.1986L66.3267 15.2706L62.3868 15.9614ZM63.2217 20.481L62.9657 28.609L66.9638 28.735L67.2198 20.607L63.2217 20.481ZM62.9823 28.4077C62.5942 31.3185 61.6545 33.5551 60.259 35.2332L63.3345 37.7908C65.3097 35.4156 66.482 32.4255 66.9472 28.9363L62.9823 28.4077ZM60.2545 35.2386C58.7165 37.1014 56.8085 38 54.3728 38V42C57.9956 42 61.037 40.5733 63.339 37.7854L60.2545 35.2386ZM54.3728 38C51.4225 38 49.5885 36.9608 48.4348 35.0588L45.0147 37.1332C47.0184 40.4365 50.283 42 54.3728 42V38ZM48.4378 35.0638C47.6523 33.7601 46.8626 31.1566 46.2047 26.9546L42.2528 27.5734C42.9176 31.8194 43.7919 35.1039 45.0117 37.1282L48.4378 35.0638ZM46.2252 27.1452L45.5532 15.8492L41.5603 16.0868L42.2323 27.3828L46.2252 27.1452ZM45.5549 15.8811C45.5597 15.9935 45.5331 16.1885 45.41 16.3843C45.2962 16.5654 45.1757 16.6265 45.1859 16.6212L43.3356 13.0748C42.8551 13.3255 42.372 13.7013 42.0235 14.2557C41.6657 14.8248 41.5324 15.4518 41.5586 16.0549L45.5549 15.8811ZM44.8932 16.7454C45.1742 16.6517 45.5248 16.532 45.7632 16.4128L43.9743 12.8352C44.0181 12.8133 44.0422 12.8041 44.0282 12.8098C44.0193 12.8134 43.9983 12.8217 43.9613 12.8353C43.8872 12.8626 43.7782 12.9007 43.6283 12.9506L44.8932 16.7454ZM44.8688 14.624C45.3538 16.5643 45.3538 16.5643 45.3538 16.5643C45.3538 16.5643 45.3538 16.5643 45.3538 16.5643C45.3538 16.5643 45.3539 16.5643 45.3539 16.5643C45.3539 16.5643 45.3539 16.5643 45.3539 16.5643C45.3539 16.5643 45.3539 16.5643 45.3539 16.5643C45.354 16.5642 45.354 16.5642 45.354 16.5642C45.354 16.5642 45.354 16.5642 45.354 16.5642C45.3541 16.5642 45.3545 16.5641 45.3547 16.5641C45.3552 16.564 45.3563 16.5637 45.3573 16.5634C45.3603 16.5627 45.3625 16.5621 45.3678 16.5608C45.3807 16.5576 45.3877 16.5558 45.4098 16.5503C45.425 16.5465 45.4238 16.5468 45.4413 16.5424C45.4458 16.5413 45.4546 16.5391 45.4597 16.5378C45.4613 16.5374 45.4776 16.5333 45.4798 16.5328C45.4925 16.5296 45.4884 16.5306 45.5017 16.5273C45.508 16.5257 45.5184 16.5231 45.5253 16.5214C45.5482 16.5157 45.5526 16.5146 45.5778 16.5083C45.6009 16.5025 45.6714 16.4849 45.7038 16.4768C45.7081 16.4757 45.7708 16.4601 45.7773 16.4584C45.7906 16.4551 45.8029 16.452 45.8167 16.4486C45.823 16.447 45.8306 16.4451 45.837 16.4435C45.8402 16.4427 45.8441 16.4417 45.8474 16.4409C45.8489 16.4405 45.8511 16.44 45.8526 16.4396C45.8535 16.4394 45.8543 16.4392 45.8552 16.4389C45.8561 16.4387 45.8569 16.4385 45.8578 16.4383C45.8587 16.4381 45.8596 16.4378 45.8604 16.4376C45.8613 16.4374 45.8622 16.4372 45.8631 16.437C45.8646 16.4366 45.8669 16.436 45.8684 16.4356C45.8714 16.4349 45.876 16.4337 45.879 16.433C45.8855 16.4314 45.8941 16.4292 45.9007 16.4276C45.9264 16.4211 45.919 16.423 45.9453 16.4164C45.9658 16.4113 46.017 16.3985 46.0398 16.3928C46.079 16.383 46.2013 16.3524 46.2498 16.3403L45.2797 12.4597C45.2517 12.4667 45.1968 12.4804 45.1712 12.4868C45.1517 12.4917 45.1645 12.4885 45.1451 12.4933C45.1253 12.4983 45.1522 12.4916 45.1323 12.4966C45.1301 12.4971 45.1217 12.4992 45.1196 12.4997C45.0826 12.509 45.1313 12.4968 45.0944 12.506C45.0891 12.5073 45.0748 12.5109 45.0697 12.5122C44.9226 12.549 45.0254 12.5233 44.8877 12.5577C44.8258 12.5732 44.7862 12.5831 44.7337 12.5962C44.6403 12.6195 44.7582 12.5901 44.6672 12.6128C44.6625 12.614 44.61 12.6271 44.6077 12.6277C44.5423 12.644 44.5657 12.6382 44.5097 12.6522C44.4572 12.6653 44.4829 12.6589 44.4397 12.6697C44.4169 12.6754 44.4356 12.6707 44.4152 12.6758C44.4061 12.6781 44.4044 12.6785 44.3977 12.6802C44.393 12.6814 44.3956 12.6807 44.3916 12.6817C44.3901 12.6821 44.3905 12.682 44.3891 12.6823C44.3876 12.6827 44.3897 12.6822 44.3881 12.6826C44.3876 12.6827 44.3881 12.6826 44.3876 12.6827C44.3876 12.6827 44.3875 12.6828 44.3874 12.6828C44.3873 12.6828 44.3873 12.6828 44.3872 12.6828C44.3849 12.6834 44.3878 12.6827 44.3856 12.6832C44.3849 12.6834 44.3852 12.6833 44.3846 12.6835C44.3845 12.6835 44.3845 12.6835 44.3844 12.6835C44.3844 12.6835 44.3844 12.6835 44.3844 12.6835C44.3843 12.6836 44.3843 12.6836 44.3843 12.6836C44.3842 12.6836 44.3842 12.6836 44.3842 12.6836C44.3838 12.6837 44.3842 12.6836 44.3839 12.6837C44.3837 12.6837 44.384 12.6836 44.3838 12.6837C44.3837 12.6837 44.3838 12.6837 44.3837 12.6837C44.3837 12.6837 44.3837 12.6837 44.3837 12.6837C44.3837 12.6837 44.3837 12.6837 44.3837 12.6837C44.3837 12.6837 44.3837 12.6837 44.3837 12.6837C44.3837 12.6837 44.3837 12.6837 44.8688 14.624ZM45.3038 16.3462L46.5198 16.6342L47.4417 12.7418L46.2257 12.4538L45.3038 16.3462ZM46.3483 16.5854C46.3528 16.5869 46.3546 16.5877 46.3593 16.591C46.365 16.5951 46.3865 16.6113 46.4205 16.6532L49.525 14.1308C49.0294 13.5208 48.3892 13.0493 47.6132 12.7906L46.3483 16.5854ZM45.9749 15.2986L45.8149 18.7226L49.8106 18.9094L49.9706 15.4854L45.9749 15.2986ZM45.8136 18.7589L45.6856 23.2389L49.6839 23.3531L49.8119 18.8731L45.8136 18.7589ZM45.6856 23.2389C45.6179 25.606 45.7757 27.9433 46.16 30.2488L50.1055 29.5912C49.7645 27.5447 49.6236 25.466 49.6839 23.3531L45.6856 23.2389ZM46.1594 30.2453C46.5131 32.391 47.1833 34.2768 48.2556 35.8049L51.5299 33.5071C50.8955 32.6032 50.3924 31.3316 50.1061 29.5947L46.1594 30.2453ZM48.2691 35.8239C49.5594 37.6176 51.4579 38.4834 53.6751 38.5118L53.7264 34.5122C52.6156 34.4979 51.9755 34.1264 51.5164 33.4881L48.2691 35.8239ZM53.6695 38.5118C55.4235 38.5392 57.0467 38.0658 58.3458 36.9292L55.7117 33.9188C55.3041 34.2755 54.7087 34.5275 53.732 34.5122L53.6695 38.5118ZM58.35 36.9254C59.1342 36.2353 59.9958 35.0133 60.9089 33.5268L57.5006 31.4332C56.5791 32.9333 55.99 33.674 55.7075 33.9226L58.35 36.9254ZM60.9113 33.5229C62.5653 30.8163 63.3168 27.4695 63.3168 23.616H59.3168C59.3168 26.9731 58.6602 29.5357 57.4982 31.4371L60.9113 33.5229ZM63.3168 23.616C63.3168 21.6172 63.135 19.6932 62.7659 17.8478L58.8436 18.6322C59.1572 20.2001 59.3168 21.8601 59.3168 23.616H63.3168ZM62.7659 17.8478C62.6066 17.0512 62.4228 16.2916 62.2134 15.5704L58.3721 16.6856C58.5467 17.2871 58.7042 17.9355 58.8436 18.6322L62.7659 17.8478ZM62.0672 17.0507L62.4832 16.2507L58.9343 14.4053L58.5183 15.2053L62.0672 17.0507ZM62.2705 16.5774C62.0788 16.817 61.875 16.9107 61.8067 16.9371C61.7427 16.9619 61.7495 16.9473 61.874 16.9365L61.5275 12.9515C60.894 13.0066 59.8486 13.2017 59.147 14.0786L62.2705 16.5774ZM61.8818 16.9358L62.9378 16.8398L62.5757 12.8562L61.5197 12.9522L61.8818 16.9358ZM62.7568 16.848C62.947 16.848 63.0092 16.8641 62.9867 16.8588C62.9712 16.8552 62.9073 16.8392 62.8153 16.795C62.7227 16.7506 62.5789 16.6666 62.4305 16.5182L65.259 13.6898C64.8044 13.2352 64.2649 13.0504 63.9028 12.9652C63.5177 12.8745 63.1211 12.848 62.7568 12.848V16.848ZM62.4305 16.5182L62.9425 17.0302L65.771 14.2018L65.259 13.6898L62.4305 16.5182ZM73.1605 14.688L74.2699 13.0239L73.828 12.7293L73.2981 12.6927L73.1605 14.688ZM74.0565 15.904L75.9968 15.4189L75.9671 15.3002L75.9232 15.186L74.0565 15.904ZM74.3125 17.76L72.3136 17.8266L72.3141 17.8409L72.3148 17.8551L74.3125 17.76ZM74.1205 19.904L72.1432 19.6031L72.1416 19.6144L74.1205 19.904ZM73.9285 21.216L71.9496 20.9264L71.9285 21.0704V21.216H73.9285ZM74.4405 24.704L72.5125 25.2359L72.5149 25.2445L74.4405 24.704ZM76.1045 26.656L76.3303 24.6688L76.3254 24.6682L76.1045 26.656ZM77.5125 26.816L77.2867 28.8032L77.3992 28.816H77.5125V26.816ZM80.4565 24.256L82.1997 25.2365L82.2038 25.2292L80.4565 24.256ZM83.2725 19.2L81.6175 18.077L81.5681 18.1499L81.5252 18.2268L83.2725 19.2ZM87.4645 16.512L88.2438 14.6701L87.8702 14.512H87.4645V16.512ZM88.3605 18.144L86.363 18.2439L86.3638 18.2605L86.3649 18.277L88.3605 18.144ZM87.9445 20.32L86.0108 19.8092L86.0086 19.8176L86.0065 19.826L87.9445 20.32ZM87.5285 21.952L85.5905 21.458L85.5285 21.7011V21.952H87.5285ZM86.0245 30.048L87.9273 30.664L87.9283 30.6609L86.0245 30.048ZM82.2485 37.472L80.6753 36.2371L80.6719 36.2415L82.2485 37.472ZM75.3685 41.44L75.3517 39.4401L75.3507 39.4401L75.3685 41.44ZM67.5925 39.744L65.69 40.361L65.6917 40.3661L67.5925 39.744ZM67.8805 37.44V35.44H67.8329L67.7854 35.4423L67.8805 37.44ZM69.6725 37.824L70.1289 35.8768L70.1222 35.8752L69.6725 37.824ZM71.7205 38.304L71.2641 40.2512L71.3502 40.2714L71.4377 40.2839L71.7205 38.304ZM82.1525 32.192L80.3589 31.3071L80.3563 31.3124L82.1525 32.192ZM83.4965 28L81.5055 27.8104L81.5044 27.8221L83.4965 28ZM83.8165 24.64L85.8075 24.8296L82.1214 23.5786L83.8165 24.64ZM81.6725 28.064L83.2612 29.2789L83.318 29.2046L83.3676 29.1254L81.6725 28.064ZM74.2805 28.8L75.3041 27.0818L75.3041 27.0818L74.2805 28.8ZM71.6565 25.696L73.4402 24.7912L73.4337 24.7787L71.6565 25.696ZM70.1525 16.032L68.1848 15.6742L68.1821 15.6887L68.1797 15.7032L70.1525 16.032ZM71.3045 14.56L71.4421 12.5647L70.9562 12.5312L70.5093 12.7249L71.3045 14.56ZM72.0511 16.3521C72.0037 16.3205 72.0823 16.3425 72.1898 16.622L75.9232 15.186C75.604 14.3561 75.0853 13.5675 74.2699 13.0239L72.0511 16.3521ZM72.1162 16.3891C72.23 16.844 72.2968 17.3221 72.3136 17.8266L76.3114 17.6934C76.2855 16.9179 76.1817 16.1586 75.9968 15.4189L72.1162 16.3891ZM72.3148 17.8551C72.3259 18.0891 72.2907 18.6344 72.1433 19.6031L76.0977 20.2049C76.249 19.2109 76.3418 18.3269 76.3102 17.6649L72.3148 17.8551ZM72.1416 19.6144L71.9496 20.9264L75.9074 21.5056L76.0994 20.1936L72.1416 19.6144ZM71.9285 21.216C71.9285 22.5125 72.1317 23.8554 72.5125 25.2359L76.3685 24.1721C76.0666 23.0779 75.9285 22.0955 75.9285 21.216H71.9285ZM72.5149 25.2445C72.9205 26.6895 73.8545 28.4183 75.8836 28.6438L76.3254 24.6682C76.3917 24.6756 76.4693 24.6984 76.541 24.7383C76.6095 24.7765 76.6383 24.8109 76.6345 24.8065C76.6284 24.7993 76.592 24.7538 76.5395 24.6445C76.4872 24.5356 76.4266 24.3792 76.3661 24.1635L72.5149 25.2445ZM75.8787 28.6432L77.2867 28.8032L77.7383 24.8288L76.3303 24.6688L75.8787 28.6432ZM77.5125 28.816C79.719 28.816 81.2112 26.9937 82.1997 25.2365L78.7134 23.2755C78.2946 24.0198 77.9419 24.4461 77.6881 24.6668C77.451 24.873 77.4029 24.816 77.5125 24.816V28.816ZM82.2038 25.2292L85.0198 20.1732L81.5252 18.2268L78.7092 23.2828L82.2038 25.2292ZM84.9275 20.323C85.9225 18.8566 86.779 18.512 87.4645 18.512V14.512C84.9926 14.512 83.0545 15.9594 81.6175 18.077L84.9275 20.323ZM86.6852 18.3539C86.624 18.328 86.5524 18.2854 86.4844 18.2234C86.417 18.1619 86.3746 18.1009 86.3513 18.0585C86.3108 17.9847 86.3514 18.0121 86.363 18.2439L90.358 18.0441C90.2955 16.7932 89.791 15.3247 88.2438 14.6701L86.6852 18.3539ZM86.3649 18.277C86.359 18.1875 86.3676 18.1598 86.359 18.2369C86.3518 18.3007 86.3366 18.4032 86.3081 18.5524C86.2509 18.8515 86.1543 19.2661 86.0108 19.8092L89.8782 20.8308C90.0334 20.2432 90.1554 19.7299 90.2369 19.3035C90.3077 18.9333 90.3853 18.4501 90.3561 18.011L86.3649 18.277ZM86.0065 19.826L85.5905 21.458L89.4665 22.446L89.8825 20.814L86.0065 19.826ZM85.5285 21.952C85.5285 23.9579 85.0848 26.4403 84.1207 29.4351L87.9283 30.6609C88.9695 27.4264 89.5285 24.5114 89.5285 21.952H85.5285ZM84.1217 29.432C83.2178 32.2242 82.0574 34.4763 80.6753 36.2371L83.8217 38.7069C85.5542 36.4997 86.9112 33.8025 87.9273 30.664L84.1217 29.432ZM80.6719 36.2415C78.8731 38.5461 77.1011 39.4254 75.3517 39.4401L75.3853 43.4399C78.7132 43.412 81.5279 41.6459 83.8251 38.7025L80.6719 36.2415ZM75.3507 39.4401C73.0007 39.461 71.3283 39.329 70.2507 39.0939C69.7096 38.9759 69.4243 38.8537 69.3034 38.7831C69.1869 38.715 69.3862 38.7946 69.4933 39.1219L65.6917 40.3661C65.9908 41.2801 66.6581 41.8703 67.2856 42.2369C67.9087 42.6009 68.6434 42.8374 69.3983 43.0021C70.9127 43.3324 72.9363 43.4617 75.3863 43.4399L75.3507 39.4401ZM69.4949 39.127C69.3775 38.7649 69.2999 38.4881 69.2533 38.2863C69.2014 38.0613 69.2085 38.015 69.2085 38.08H65.2085C65.2085 38.7565 65.4406 39.5917 65.6901 40.361L69.4949 39.127ZM69.2085 38.08C69.2085 38.2468 69.1528 38.6862 68.7558 39.0643C68.3919 39.4109 68.0199 39.4356 67.9756 39.4377L67.7854 35.4423C67.2931 35.4657 66.5851 35.6078 65.9972 36.1677C65.3762 36.7592 65.2085 37.5079 65.2085 38.08H69.2085ZM67.8805 39.44C67.7808 39.44 67.7064 39.4319 67.6894 39.4301C67.6617 39.4271 67.6434 39.4244 67.6398 39.4239C67.6325 39.4228 67.6407 39.4239 67.6719 39.4297C67.7324 39.4411 67.8304 39.4609 67.9734 39.4916C68.2566 39.5523 68.6712 39.6455 69.2228 39.7728L70.1222 35.8752C69.5644 35.7465 69.1257 35.6477 68.8116 35.5804C68.6559 35.547 68.5193 35.5189 68.4091 35.4983C68.3948 35.4956 68.1304 35.44 67.8805 35.44V39.44ZM69.2161 39.7712L71.2641 40.2512L72.1769 36.3568L70.1289 35.8768L69.2161 39.7712ZM71.4377 40.2839C72.0136 40.3662 72.6816 40.4 73.4165 40.4V36.4C72.7861 36.4 72.3234 36.3698 72.0033 36.3241L71.4377 40.2839ZM73.4165 40.4C75.7027 40.4 77.7907 39.769 79.607 38.4783C81.4024 37.2025 82.8301 35.3559 83.9487 33.0716L80.3563 31.3124C79.4482 33.1668 78.4066 34.4242 77.29 35.2177C76.1943 35.9963 74.9277 36.4 73.4165 36.4V40.4ZM83.9461 33.0768C84.7965 31.3531 85.352 29.7076 85.4886 28.1779L81.5044 27.8221C81.4277 28.6818 81.0872 29.8309 80.3589 31.3072L83.9461 33.0768ZM85.4875 28.1896L85.8075 24.8296L81.8255 24.4504L81.5055 27.8104L85.4875 28.1896ZM82.1214 23.5786L79.9774 27.0026L83.3676 29.1254L85.5116 25.7014L82.1214 23.5786ZM80.0838 26.8491C79.6555 27.4092 79.119 27.696 78.2485 27.696V31.696C80.2793 31.696 82.0255 30.8948 83.2612 29.2789L80.0838 26.8491ZM78.2485 27.696C76.8266 27.696 75.896 27.4344 75.3041 27.0818L73.2569 30.5182C74.6704 31.3603 76.3851 31.696 78.2485 31.696V27.696ZM75.3041 27.0818C74.735 26.7427 74.0833 26.0591 73.4402 24.7912L69.8728 26.6008C70.7231 28.2769 71.8207 29.6626 73.2569 30.5182L75.3041 27.0818ZM73.4337 24.7787C72.5267 23.0213 72.1205 21.4143 72.1205 19.936H68.1205C68.1205 22.1697 68.7383 24.4027 69.8793 26.6133L73.4337 24.7787ZM72.1205 19.936V18.048H68.1205V19.936H72.1205ZM72.1205 18.048C72.1205 17.4436 72.1232 16.9839 72.1282 16.6637C72.1308 16.5026 72.1338 16.3868 72.1369 16.3099C72.1385 16.2712 72.1397 16.2517 72.14 16.2466C72.1415 16.226 72.1389 16.2793 72.1253 16.3608L68.1797 15.7032C68.138 15.9536 68.1328 16.3454 68.1288 16.6003C68.1232 16.9521 68.1205 17.4364 68.1205 18.048H72.1205ZM72.1202 16.3898C72.128 16.3468 72.1356 16.33 72.1348 16.3318C72.1345 16.3326 72.1325 16.337 72.1284 16.344C72.1242 16.3511 72.1186 16.3596 72.1115 16.3686C72.1044 16.3777 72.0969 16.386 72.0896 16.3931C72.0822 16.4003 72.0762 16.4052 72.0725 16.408C72.0646 16.4139 72.0706 16.4077 72.0997 16.3951L70.5093 12.7249C69.2374 13.276 68.4286 14.3333 68.1848 15.6742L72.1202 16.3898ZM71.1669 16.5553L73.0229 16.6833L73.2981 12.6927L71.4421 12.5647L71.1669 16.5553Z" fill="black" mask="url(#path-22-outside-2_452_16)"></path></svg>