<svg width="115" height="26" viewBox="0 0 115 26" fill="none" xmlns="http://www.w3.org/2000/svg">
<path d="M114.534 9.80201C115.128 10.2798 115.16 11.309 114.596 11.7501C113.97 12.1911 113.156 12.1176 112.561 12.6689C111.935 13.2203 111.715 14.1759 111.528 15.0213C111.215 16.6385 110.714 18.1823 110.244 19.7627C110.087 20.3508 109.43 20.8287 108.991 20.7551C108.49 20.6816 107.927 20.0935 107.864 19.5055C107.802 18.7336 107.802 17.9617 107.739 16.3445C107.676 15.8667 107.958 14.8008 108.897 13.8084C109.774 12.8895 110.306 11.5663 111.027 10.4636C111.778 9.28743 112.843 9.17717 113.97 9.43446C114.189 9.47121 114.346 9.69174 114.534 9.80201Z" fill="#BE0129"/>
<path d="M104.631 22.9972C104.663 23.1075 104.663 23.2177 104.631 23.3647C104.569 23.8058 104.287 24.2836 103.974 24.4674C103.348 24.8717 102.408 24.6512 102.158 24.1366C101.751 23.2545 101.344 22.3724 101.312 21.3064C101.312 20.8286 101.156 20.2773 100.905 19.873C100.78 19.6524 100.31 19.3952 100.154 19.5054C99.5589 19.8362 99.0892 20.3508 98.5256 20.7551C98.1499 21.0492 97.7742 21.3064 97.3358 21.4167C95.0187 22.1151 92.9835 19.7627 93.4844 16.9693C93.5471 16.6017 93.6723 16.2342 93.7976 15.9034C94.6117 13.8818 95.8328 12.3381 97.555 11.3089C99.2458 10.2798 100.717 10.8679 102.095 12.0441C102.377 12.3013 102.565 12.9262 102.534 13.404C102.44 15.3521 102.753 17.1898 103.285 19.0276C103.567 19.9832 103.974 20.8654 104.318 21.821C104.444 22.1886 104.569 22.5929 104.631 22.9972ZM99.4024 16.1974C99.6529 15.9034 100.624 14.8742 100.561 14.2494C100.53 14.0289 100.404 13.8451 100.06 13.7716C98.0246 13.2937 96.1459 14.9477 95.9268 17.4471C95.8328 18.2925 96.6469 18.5498 97.2105 18.4028C98.056 18.1822 98.8388 16.859 99.4024 16.1974Z" fill="#BE0129"/>
<path d="M89.8242 20.3141C90.1374 20.6081 90.4818 21.2697 90.4192 21.7108C90.3878 22.1518 89.9495 22.7767 89.6051 22.887C88.697 23.1442 87.7264 23.1442 87.6324 23.181C86.286 23.181 85.8163 23.181 85.3467 23.181C81.4327 23.1442 80.1489 19.2849 80.5873 16.0137C80.7438 14.9478 81.1196 13.8819 81.4327 12.8527C81.5579 12.4852 81.8084 12.1544 82.0902 11.8603C82.3407 11.603 82.7165 11.456 82.9983 11.2355C85.5032 9.25067 86.4113 9.28743 88.6344 11.5295C89.198 12.1176 89.4485 14.3964 88.9788 15.058C88.7596 15.3521 88.4152 15.5726 88.1021 15.7196C87.0062 16.271 85.9103 16.712 84.8457 17.3001C84.4073 17.5207 83.9689 17.8147 83.6871 18.2558C82.7791 19.5422 85.378 20.6816 86.1921 20.3508C86.9122 20.02 87.7263 20.2406 88.5091 19.9465C88.8849 19.8363 89.4798 20.02 89.8242 20.3141ZM83.8437 13.9186C83.6245 14.2494 83.7811 14.617 84.1568 14.7272C84.6265 14.8375 85.0648 14.7272 85.4406 14.4332C85.6911 14.2494 86.1295 13.8084 86.1608 13.4776C86.1608 13.2938 86.0355 13.11 85.6911 13.0365C84.9396 12.8527 84.3134 13.1835 83.8437 13.9186Z" fill="#BE0129"/>
<path d="M70.3471 24.5777C68.7189 24.7247 67.3099 24.0264 65.9008 23.328C64.6797 22.7767 64.2413 21.6005 64.21 20.2406C64.1787 19.7995 64.3666 19.1379 64.6484 18.9909C65.3372 18.6233 65.4625 18.0352 65.4625 17.2634C65.4312 13.404 65.4625 9.54471 65.3685 5.68538C65.3372 4.25192 65.7756 3.1125 66.4331 2.00983C66.7149 1.53201 67.1846 0.98068 67.5917 0.907167C68.9068 0.72339 70.1279 -0.158741 71.4743 0.0250363C73.4783 0.282324 75.2317 1.09095 76.2337 3.40654C76.766 4.69298 77.2044 5.97943 77.2357 7.52316C77.2357 8.91986 77.0478 10.1328 76.0771 11.0517C75.9206 11.1987 75.764 11.3825 75.6388 11.5663C75.1691 12.3014 75.0439 12.8895 75.5762 13.5143C76.359 14.4332 76.5468 15.6094 76.8913 16.712C77.4236 18.4763 77.3296 20.2773 76.3903 21.8946C76.1398 22.3724 75.7327 22.8502 75.2944 23.0707C73.7288 23.9161 72.1319 24.7982 70.3471 24.5777ZM67.8735 11.8603C67.8735 13.5511 67.8735 15.2418 67.8735 16.9326C67.8422 17.5206 67.8109 18.1087 67.8109 18.7336C67.8422 20.1303 68.531 21.0124 69.6896 21.0492C70.5976 21.0859 71.5369 21.0859 72.445 20.9757C74.1358 20.7919 74.9812 18.8806 74.2924 17.0428C73.9166 15.9769 73.3843 15.2418 72.4137 14.8743C71.944 14.6537 71.4743 14.3964 71.036 14.0656C70.2845 13.5511 70.2532 11.8603 71.0047 11.2722C71.4117 10.9414 71.8814 10.6841 72.3197 10.3901C72.852 10.0225 73.4157 9.69173 73.854 9.25066C74.8247 8.33178 74.9812 6.97182 74.3237 5.72214C74.1671 5.39134 73.9166 5.1708 73.7914 4.84C73.3843 3.59032 72.5702 3.36979 71.5683 3.4433C70.8481 3.48005 70.1279 3.4433 69.4078 3.51681C68.4997 3.59032 67.8735 4.32543 67.8735 5.35458C67.8422 7.52316 67.8735 9.69173 67.8735 11.8603Z" fill="#BE0129"/>
<path d="M46.1896 20.3141C46.5027 20.6081 46.8471 21.2697 46.7845 21.7108C46.7532 22.1518 46.3148 22.7767 45.9704 22.887C45.0624 23.1442 44.0917 23.1442 43.9978 23.181C42.6514 23.181 42.1817 23.181 41.712 23.181C37.798 23.1442 36.5143 19.2849 36.9526 16.0137C37.1092 14.9478 37.4849 13.8819 37.798 12.8527C37.9233 12.4852 38.1738 12.1544 38.4556 11.8603C38.7061 11.603 39.0818 11.456 39.3636 11.2355C41.8686 9.25067 42.7766 9.28743 44.9997 11.5295C45.5634 12.1176 45.8138 14.3964 45.3442 15.058C45.125 15.3521 44.7806 15.5726 44.4674 15.7196C43.3715 16.271 42.2756 16.712 41.211 17.3001C40.7727 17.5207 40.3343 17.8147 40.0525 18.2558C39.1445 19.5422 41.7433 20.6816 42.5574 20.3508C43.2776 20.02 44.0917 20.2406 44.8745 19.9465C45.2502 19.8363 45.8452 20.02 46.1896 20.3141ZM40.209 13.9186C39.9899 14.2494 40.1464 14.617 40.5222 14.7272C40.9918 14.8375 41.4302 14.7272 41.8059 14.4332C42.0564 14.2494 42.4948 13.8084 42.5261 13.4776C42.5261 13.2938 42.4009 13.11 42.0564 13.0365C41.305 12.8527 40.6787 13.1835 40.209 13.9186Z" fill="#BE0129"/>
<path d="M33.5054 18.3292C33.7246 18.9173 33.6307 19.6157 33.161 20.0935C32.9418 20.3508 32.7539 20.7183 32.3469 20.4243C31.5954 19.8362 31.157 18.9541 30.75 17.9984C30.4682 17.2633 29.8733 16.9693 29.1531 16.859C26.9613 16.4915 25.3017 17.5574 24.018 19.5422C23.2978 20.6448 22.7655 21.9313 22.0453 23.0707C21.7635 23.475 21.3565 23.769 20.9181 23.8793C20.6676 23.9161 20.4484 23.8793 20.1979 23.769C19.7909 23.5485 19.2899 23.1074 19.2273 22.5561C19.1646 22.0415 19.1646 21.527 19.1646 21.0124C19.1333 18.5498 19.0394 16.0871 19.1333 13.6613C19.196 11.9705 18.6637 10.243 18.4132 8.58903C18.3818 8.40525 18.3505 8.25823 18.2879 8.07445C18.1314 7.59663 17.693 7.30259 17.5051 6.82477C17.2546 6.19992 17.6304 5.61183 17.9435 5.09726C18.4445 4.25188 19.8535 4.43566 20.1353 5.42806C20.5737 7.00854 21.1686 8.55227 21.0433 10.2798C20.9181 12.5954 21.4504 14.8375 21.7635 17.1163C21.7948 17.4839 22.2019 17.5941 22.4837 17.3001C22.7342 17.006 22.9534 16.7487 23.1725 16.4547C24.7694 14.3596 26.7108 13.6245 29.0905 13.8451C30.2803 13.9186 31.1257 14.4332 31.9711 15.3888C32.6913 16.2342 33.1297 17.2633 33.5054 18.3292Z" fill="#BE0129"/>
<path d="M14.2966 7.30265C14.7037 7.22914 15.5178 7.85398 15.3612 8.36856C15.3299 8.55234 15.236 8.69936 15.2673 8.84638C15.2986 8.91989 15.3299 8.9934 15.3612 9.10367C15.3612 9.21393 15.2673 9.3242 15.2046 9.39771C14.1714 10.5371 12.6997 10.1696 11.4786 10.6474C11.322 10.7209 11.1654 10.7944 10.9776 10.7944C10.8836 10.7944 10.7584 10.7944 10.6644 10.8312C10.3826 10.9414 10.3826 11.3825 10.3513 11.6766C10.2261 12.7057 9.97559 13.7349 9.85034 14.764C9.59985 16.9693 9.38067 19.1379 9.22411 21.3065C9.09886 22.74 10.3826 23.8426 9.22411 25.2393C8.9423 25.5701 8.41 25.7171 8.00295 25.7907C7.56459 25.8642 7.43934 25.3863 7.22016 25.0188C6.59392 23.9529 6.68786 22.7767 6.56261 21.9313C6.5313 20.6081 6.65655 19.6157 6.75048 18.6233C6.81311 17.6309 7.03229 16.6385 7.28278 15.6829C7.37672 15.2418 7.53328 13.7349 7.62721 13.3673C7.72115 12.963 7.78377 12.5219 7.78377 12.1176C7.78377 11.9706 7.56459 11.7133 7.40803 11.6766C7.18885 11.6398 6.93835 11.6766 6.75048 11.7868C6.18687 12.0441 5.62326 12.1544 4.99703 12.1544C3.61931 12.2279 2.27291 12.7425 0.89519 12.6322C0.550761 12.5954 0.394202 12.4852 0.143708 12.1176C-0.232032 11.4193 0.17502 10.1328 0.832566 9.91229C1.11437 9.80202 1.39618 9.83878 1.67798 9.87553C2.24159 9.94904 2.86783 9.76527 3.40013 9.61824C3.71325 9.54473 5.05965 9.36096 5.43539 9.28745C6.15556 9.10367 6.90704 8.80962 7.65852 8.6626C8.00295 8.58909 8.06557 8.40531 8.15951 8.03776C8.47263 6.71456 8.44132 5.35461 8.37869 4.03141C8.34738 3.07577 8.81706 2.6347 9.34936 2.15688C9.53723 1.9731 9.91297 1.93635 10.1321 2.04661C10.4453 2.23039 10.6958 2.6347 10.9776 2.89199C11.4159 3.25955 10.5392 6.38376 10.6644 7.08212C10.7271 7.48643 10.821 7.6702 11.1654 7.63345C11.3846 7.63345 13.8896 7.37616 14.2966 7.30265Z" fill="#BE0129"/>
</svg>
