<svg width="41" height="41" viewBox="0 0 41 41" fill="none" xmlns="http://www.w3.org/2000/svg">
<path fill-rule="evenodd" clip-rule="evenodd" d="M11.989 12.2263C11.9845 12.2568 11.9787 12.2863 11.9718 12.3146C11.9788 12.2857 11.9846 12.2562 11.989 12.2263ZM11.3706 13.0075C11.2115 13.0712 11.034 13.0947 10.8523 13.0676C10.3061 12.986 9.9294 12.4771 10.011 11.9309C10.0661 11.5617 10.2958 11.3479 10.4151 11.259C10.5378 11.1677 10.6549 11.1224 10.7144 11.1016C10.8389 11.0583 10.9577 11.0403 11.027 11.0313C11.181 11.0113 11.363 11.004 11.536 11.0013C11.8933 10.9957 12.3559 11.0088 12.8119 11.0272C13.302 11.047 13.7699 11.0717 14.1408 11.0913C14.5033 11.1104 14.7732 11.1246 14.8807 11.1246C15.3556 11.1246 15.7046 11.3182 15.9216 11.4659C16.003 11.5214 16.0856 11.5848 16.1382 11.6253C16.1487 11.6333 16.158 11.6405 16.1659 11.6465C16.1947 11.6684 16.2154 11.6836 16.2305 11.6943C16.2409 11.6969 16.2545 11.7001 16.2715 11.7038C16.3316 11.7169 16.3794 11.7253 16.4412 11.7362C16.4883 11.7445 16.5435 11.7543 16.6186 11.7686C16.7513 11.7939 16.9484 11.8346 17.1388 11.9082C17.3086 11.9738 17.6441 12.1283 17.8585 12.4871C18.1417 12.9613 17.987 13.5752 17.5129 13.8585C17.1314 14.0863 16.6595 14.0307 16.3421 13.7534C16.3149 13.7472 16.2826 13.7406 16.2438 13.7332C16.2209 13.7288 16.1878 13.7229 16.1493 13.7159C16.0585 13.6996 15.9374 13.6778 15.8478 13.6584C15.7192 13.6305 15.4833 13.5751 15.2646 13.4489C15.1353 13.3742 15.0259 13.2922 14.9548 13.2381C14.933 13.2215 14.9146 13.2074 14.8986 13.1952C14.8552 13.162 14.8298 13.1425 14.8022 13.1234C14.6247 13.1188 14.2959 13.1019 13.914 13.0822C13.54 13.063 13.1151 13.0411 12.7313 13.0256C12.2809 13.0074 11.8651 12.9964 11.567 13.001C11.4833 13.0023 11.4185 13.0048 11.3706 13.0075ZM11.2763 13.0159C11.2763 13.0158 11.2783 13.0155 11.2826 13.0149C11.2786 13.0156 11.2764 13.0159 11.2763 13.0159Z" fill="#261D1B"/>
<path fill-rule="evenodd" clip-rule="evenodd" d="M17.111 12.5421C17.3639 12.0511 17.967 11.8581 18.4579 12.1111C18.7847 12.2794 19.0362 12.5238 19.2058 12.7037C19.2942 12.7974 19.3775 12.8926 19.4458 12.9708L19.4474 12.9726C19.5209 13.0566 19.5764 13.12 19.6286 13.1753C20.0992 13.6736 20.4569 14.2689 20.7477 14.7529C20.8169 14.8682 20.8824 14.9771 20.9447 15.0769C21.1285 15.3716 21.2761 15.6833 21.3952 15.9348C21.412 15.9701 21.4282 16.0043 21.4438 16.0371C21.5815 16.3256 21.693 16.5418 21.8289 16.7286C22.052 17.035 22.1775 17.3549 22.2625 17.5922C22.2944 17.6811 22.3197 17.755 22.3419 17.8194C22.3886 17.9555 22.4209 18.0495 22.4696 18.1551C22.615 18.4705 22.7222 18.6649 22.8855 18.8706C23.0368 19.0611 23.2 19.2484 23.3799 19.4531C23.3936 19.4687 23.4075 19.4845 23.4214 19.5003C23.5852 19.6867 23.7632 19.8891 23.9344 20.0992C24.1426 20.3545 24.3052 20.62 24.4345 20.8353C24.4523 20.865 24.4694 20.8936 24.486 20.9212C24.5993 21.1104 24.6863 21.2559 24.7863 21.3942C24.884 21.5293 24.9923 21.6946 25.0797 21.828C25.12 21.8895 25.1559 21.9442 25.1842 21.9861C25.2965 22.152 25.3869 22.269 25.4827 22.3629C25.8147 22.6887 26.0758 23.1331 26.2386 23.4103C26.2746 23.4716 26.3059 23.5248 26.332 23.5666C26.3901 23.6598 26.4619 23.7667 26.5411 23.8846C26.7698 24.2252 27.0604 24.6581 27.2651 25.1219C27.3358 25.2821 27.3985 25.4304 27.4572 25.5689C27.6288 25.9743 27.7652 26.2963 27.9621 26.5928C28.1237 26.8361 28.2527 27.0437 28.3731 27.2375C28.539 27.5044 28.6886 27.7451 28.8843 28.0164C29.1116 28.3315 29.3311 28.6521 29.543 28.9842C29.5461 28.9882 29.5525 28.9964 29.5634 29.0099C29.5667 29.014 29.571 29.0193 29.5762 29.0257C29.5997 29.0545 29.64 29.104 29.675 29.1501C29.7201 29.2097 29.7846 29.2996 29.8426 29.4093C29.8994 29.5168 29.9716 29.6833 29.9942 29.8928C30.0534 30.4419 29.6563 30.935 29.1072 30.9943C28.6331 31.0454 28.2008 30.7564 28.0534 30.3231C28.0533 30.323 28.0534 30.3232 28.0534 30.3231L28.0074 30.2664C27.9901 30.245 27.9677 30.217 27.9446 30.1864C27.9218 30.1562 27.8929 30.1164 27.8635 30.0702C27.6727 29.7706 27.4728 29.4783 27.2623 29.1865C27.044 28.8839 26.8137 28.5167 26.6096 28.1911C26.4945 28.0076 26.3877 27.8373 26.296 27.6993C25.985 27.2309 25.7498 26.6721 25.5658 26.235C25.5191 26.124 25.4757 26.0209 25.4352 25.9292C25.3047 25.6333 25.1681 25.431 24.9839 25.1581C24.8839 25.01 24.7699 24.8412 24.6352 24.6253C24.5497 24.4883 24.482 24.3746 24.4244 24.2778C24.288 24.0486 24.2081 23.9143 24.0819 23.7905C23.8458 23.5587 23.6682 23.3144 23.5278 23.107C23.4612 23.0085 23.4098 22.9295 23.3635 22.8585C23.2968 22.7561 23.2408 22.6702 23.1654 22.5658C23.0104 22.3514 22.8751 22.1248 22.7659 21.9419C22.75 21.9152 22.7346 21.8895 22.7199 21.8649C22.5934 21.6542 22.4938 21.4973 22.3843 21.3629C22.2376 21.183 22.0833 21.0075 21.9146 20.8155C21.9023 20.8015 21.8899 20.7873 21.8774 20.7731C21.6989 20.57 21.5052 20.3484 21.3193 20.1143C21.0135 19.7292 20.8284 19.3722 20.6533 18.9925C20.5586 18.7872 20.4781 18.5522 20.4212 18.3863C20.4055 18.3405 20.3916 18.2999 20.3797 18.2667C20.3106 18.0738 20.2618 17.9741 20.212 17.9056C19.9581 17.5569 19.7797 17.1937 19.6389 16.8986C19.6205 16.8602 19.6029 16.823 19.5857 16.787C19.4615 16.5256 19.3663 16.3255 19.2479 16.1356C19.1482 15.976 19.0586 15.8276 18.9745 15.6885C18.6981 15.2312 18.4826 14.8746 18.1746 14.5485C18.0945 14.4637 18.0159 14.3739 17.9504 14.2989C17.9476 14.2957 17.9448 14.2925 17.942 14.2893C17.87 14.207 17.8101 14.1388 17.7508 14.0759C17.6236 13.9411 17.5601 13.8983 17.542 13.889C17.051 13.6361 16.8581 13.033 17.111 12.5421Z" fill="#261D1B"/>
<path fill-rule="evenodd" clip-rule="evenodd" d="M24 29C24 28.4477 24.4477 28 25 28H29C29.5523 28 30 28.4477 30 29C30 29.5523 29.5523 30 29 30H25C24.4477 30 24 29.5523 24 29Z" fill="#261D1B"/>
<path fill-rule="evenodd" clip-rule="evenodd" d="M12.0451 12.7033C12.2089 12.1759 12.7693 11.8812 13.2968 12.0451C14.1347 12.3054 14.6738 12.8229 15.064 13.3443C15.2524 13.5962 15.4132 13.8587 15.5509 14.0879C15.5733 14.1251 15.5949 14.1613 15.6161 14.1966C15.7325 14.391 15.8333 14.5593 15.9435 14.7224C16.2251 15.1394 16.4122 15.5828 16.5597 15.9448C16.5786 15.9911 16.5968 16.0359 16.6144 16.0794C16.7459 16.4034 16.8481 16.6553 16.9801 16.8891C17.0372 16.9903 17.1131 17.0934 17.2386 17.2613L17.2463 17.2717C17.3572 17.42 17.5113 17.6261 17.6406 17.8605C17.6852 17.9413 17.7273 18.0229 17.7626 18.0914L17.7642 18.0945C17.802 18.1678 17.8332 18.2282 17.8648 18.2858C17.9292 18.4033 17.9731 18.4669 18.0057 18.504C18.076 18.5841 18.1419 18.6602 18.2048 18.7329C18.4244 18.9866 18.6081 19.1988 18.8212 19.3975C18.9187 19.4883 19.0063 19.5625 19.1104 19.6506C19.1757 19.7059 19.2474 19.7666 19.332 19.8402C19.5246 20.008 19.7525 20.218 19.9554 20.476C20.6186 21.3191 21.0921 22.2807 21.5047 23.1186C21.5437 23.1979 21.5822 23.276 21.6202 23.3529C21.754 23.6231 21.9293 23.8586 22.1628 24.0763C22.4832 24.375 22.7069 24.7068 22.8709 24.9541C22.8833 24.9728 22.8953 24.991 22.9071 25.0087C23.0663 25.2491 23.1691 25.4043 23.298 25.5429C23.3599 25.6095 23.4406 25.6913 23.5319 25.7837C23.775 26.0299 24.0924 26.3512 24.3243 26.66C24.3688 26.7193 24.4345 26.7853 24.5664 26.9041C24.5798 26.9161 24.5943 26.9291 24.6097 26.9429C24.7237 27.0447 24.8903 27.1935 25.0385 27.3623C25.1918 27.537 25.3624 27.7694 25.4881 27.9406C25.5375 28.0078 25.5799 28.0655 25.6116 28.1067C25.6178 28.1147 25.6221 28.1201 25.6298 28.1297C25.6355 28.1369 25.6431 28.1464 25.6548 28.1611C25.6758 28.1875 25.7072 28.2275 25.7399 28.2737C25.799 28.357 25.9068 28.5205 25.9659 28.741C26.109 29.2744 25.7925 29.8228 25.2591 29.9659C24.7731 30.0962 24.2747 29.8452 24.0817 29.3962L24.0768 29.3901L24.063 29.3727C24.0533 29.3606 24.0408 29.3449 24.0278 29.3279C23.9295 29.2005 23.8575 29.1014 23.7952 29.0157C23.7051 28.8916 23.6352 28.7954 23.5353 28.6816C23.4721 28.6096 23.4011 28.5458 23.276 28.4334C23.2609 28.4199 23.2451 28.4056 23.2284 28.3906C23.0932 28.2689 22.8972 28.0903 22.725 27.8609C22.5742 27.6602 22.4251 27.5103 22.2348 27.3192C22.1193 27.2032 21.9886 27.0719 21.8332 26.9047C21.5853 26.638 21.3919 26.3444 21.2496 26.1284C21.2338 26.1044 21.2186 26.0814 21.2041 26.0595C21.0422 25.8153 20.9304 25.6617 20.799 25.5392C20.3941 25.1617 20.0717 24.7326 19.8279 24.2403C19.7932 24.1702 19.7588 24.1006 19.7248 24.0317C19.2938 23.1588 18.9106 22.3826 18.3835 21.7126C18.298 21.6039 18.1828 21.4916 18.0185 21.3485C17.9766 21.312 17.9253 21.2684 17.869 21.2206C17.7407 21.1116 17.5863 20.9805 17.4575 20.8604C17.1577 20.5809 16.8838 20.2638 16.6561 20.0002C16.6023 19.9379 16.551 19.8785 16.5026 19.8233C16.3283 19.6247 16.2023 19.4137 16.1113 19.2477C16.0666 19.1662 16.0248 19.0852 15.9899 19.0175L15.9866 19.011C15.9488 18.9378 15.9189 18.8799 15.8895 18.8266C15.8341 18.7262 15.759 18.6224 15.6366 18.4587C15.6309 18.4511 15.6251 18.4433 15.6192 18.4353C15.5118 18.2919 15.3633 18.0935 15.2385 17.8724C15.038 17.5173 14.8841 17.1363 14.7585 16.8252C14.7411 16.782 14.7241 16.7401 14.7077 16.6998C14.5616 16.3413 14.4404 16.0703 14.2861 15.8418C14.1427 15.6295 14.0101 15.4078 13.8946 15.2148C13.8748 15.1817 13.8554 15.1494 13.8366 15.1181C13.7009 14.8923 13.585 14.7061 13.4625 14.5424C13.2307 14.2326 13.0107 14.0505 12.7033 13.955C12.1759 13.7911 11.8812 13.2307 12.0451 12.7033Z" fill="#261D1B"/>
<path fill-rule="evenodd" clip-rule="evenodd" d="M11.2087 11.3885C11.5464 10.9515 12.1744 10.871 12.6114 11.2087C12.6575 11.2443 12.7115 11.2821 12.7922 11.3385C12.8134 11.3534 12.8365 11.3695 12.8618 11.3873C12.9693 11.4627 13.1066 11.5605 13.2402 11.6709C13.45 11.8443 13.9111 12.2489 13.9917 12.8716C14.0626 13.4194 13.676 13.9208 13.1283 13.9917C12.6318 14.056 12.1732 13.7443 12.0391 13.2773C12.0226 13.2613 11.999 13.2398 11.9662 13.2127C11.8974 13.1558 11.8151 13.0961 11.7127 13.0242C11.6976 13.0136 11.6814 13.0023 11.6643 12.9904C11.5807 12.932 11.4764 12.8592 11.3885 12.7913C10.9515 12.4536 10.871 11.8256 11.2087 11.3885ZM12.0707 13.3112C12.0715 13.3122 12.0713 13.312 12.0704 13.3107Z" fill="#261D1B"/>
<path fill-rule="evenodd" clip-rule="evenodd" d="M18.4344 22.9394C18.4112 22.9718 18.3771 23.0179 18.3349 23.0667C18.3021 23.1045 18.2702 23.1447 18.221 23.2067L18.2125 23.2174C18.164 23.2786 18.0976 23.362 18.0221 23.446C17.8011 23.6921 17.6077 23.8941 17.4263 24.0835C17.1809 24.3397 16.9576 24.5729 16.7177 24.8612C16.1627 25.5281 15.5423 26.1508 14.9662 26.729C14.9306 26.7648 14.8951 26.8004 14.8598 26.8359C14.1072 27.5919 13.3236 28.3048 12.4881 28.9832C12.1822 29.2317 11.9379 29.4378 11.7663 29.6425C11.4115 30.0657 10.7808 30.1211 10.3576 29.7663C9.93434 29.4115 9.87888 28.7808 10.2337 28.3575C10.5474 27.9834 10.9414 27.6629 11.2273 27.4307C12.005 26.7992 12.7365 26.1339 13.4424 25.4248C13.4721 25.395 13.5017 25.3653 13.5313 25.3356C14.123 24.7415 14.6846 24.1776 15.1804 23.5818C15.4419 23.2676 15.7721 22.9199 16.0685 22.6077C16.2423 22.4248 16.4044 22.2541 16.5342 22.1095L17.2782 22.7778L16.5342 22.1095C16.5642 22.0761 16.5964 22.0366 16.6459 21.9741C16.65 21.9689 16.6543 21.9635 16.6588 21.9578C16.6989 21.9072 16.7521 21.8401 16.8098 21.7727C16.8137 21.7671 16.8213 21.7561 16.8339 21.7373C16.8359 21.7343 16.8381 21.7311 16.8405 21.7275C16.8666 21.6885 16.9159 21.6149 16.9716 21.5435C17.0313 21.4671 17.1347 21.3449 17.2833 21.2372C17.4392 21.1241 17.6836 21 18 21C18.5523 21 19 21.4477 19 22C19 22.3801 18.788 22.7106 18.4757 22.8798C18.4636 22.8977 18.4493 22.9185 18.4344 22.9394ZM18.5477 22.7748C18.5499 22.772 18.5496 22.7727 18.5466 22.7762C18.547 22.7757 18.5474 22.7753 18.5477 22.7748Z" fill="#261D1B"/>
<path fill-rule="evenodd" clip-rule="evenodd" d="M28.9484 11.6829C29.0981 12.1305 28.9134 12.6094 28.5296 12.8485C28.5197 12.8637 28.5085 12.8815 28.4963 12.9021C28.4752 12.9374 28.4554 12.9733 28.435 13.011C28.3073 13.247 28.1471 13.412 28.0477 13.5098C27.994 13.5626 27.961 13.5939 27.9384 13.6154C27.9074 13.6449 27.896 13.6557 27.8775 13.6778C27.4177 14.2263 26.9039 14.7404 26.4331 15.2115C26.3794 15.2653 26.3262 15.3186 26.2737 15.3713C26.0635 15.5821 25.8293 15.7975 25.6157 15.9939C25.5179 16.0839 25.4243 16.1699 25.3394 16.2497C25.0477 16.5238 24.8006 16.7748 24.5968 17.0413C24.3882 17.3142 24.1572 17.573 23.956 17.7985C23.9225 17.8361 23.8898 17.8727 23.8582 17.9083C23.6238 18.1723 23.4311 18.3985 23.2741 18.6319C23.2672 18.6421 23.2605 18.6522 23.2538 18.662C23.1659 18.7926 23.1005 18.8897 23.0475 18.9879C23.0071 19.0628 22.9964 19.0991 22.9946 19.1038C22.9381 19.647 22.4553 20.0454 21.9098 19.9959C21.3597 19.9461 20.9542 19.4598 21.0041 18.9098C21.0366 18.5513 21.1757 18.2453 21.2873 18.0383C21.3901 17.8479 21.5108 17.6692 21.5902 17.5518C21.5989 17.5389 21.6071 17.5267 21.6148 17.5154C21.8529 17.1614 22.1242 16.8489 22.3626 16.5805C22.3999 16.5385 22.4362 16.4977 22.4717 16.4579C22.675 16.2297 22.8492 16.0342 23.0081 15.8264C23.3121 15.4288 23.6536 15.0894 23.9699 14.7922C24.0894 14.6799 24.2005 14.5779 24.3064 14.4805C24.5 14.3027 24.6766 14.1405 24.8572 13.9593C24.9099 13.9064 24.9624 13.8539 25.0144 13.8018C25.4944 13.3211 25.9447 12.8703 26.3447 12.393C26.4114 12.3135 26.4765 12.2475 26.5269 12.1981C26.5507 12.1748 26.5741 12.1524 26.5927 12.1345L26.5956 12.1318C26.6162 12.1121 26.6315 12.0974 26.6457 12.0835C26.6669 12.0626 26.6789 12.0496 26.6848 12.0431C26.7328 11.9546 26.822 11.7939 26.9356 11.6385C27.0205 11.5223 27.2685 11.1902 27.6829 11.0516C28.2066 10.8765 28.7732 11.1591 28.9484 11.6829Z" fill="#261D1B"/>
<path fill-rule="evenodd" clip-rule="evenodd" d="M18.0499 0.00601687C18.1338 0.00789316 18.2065 0.00951858 18.2619 0.00951858C18.5739 0.00951858 18.8746 0.0370358 19.1258 0.0600218L19.1422 0.0615215C19.4113 0.086126 19.6272 0.105213 19.8386 0.105213H21C21.5523 0.105213 22 0.552928 22 1.10521C22 1.6575 21.5523 2.10521 21 2.10521H19.8386C19.5283 2.10521 19.2286 2.07778 18.978 2.05485L18.9601 2.05321C18.6913 2.02863 18.4746 2.00952 18.2619 2.00952C18.1103 2.00952 17.9853 2.00642 17.8739 2.00366C17.6829 1.99892 17.5316 1.99517 17.3538 2.00967C17.1125 2.02935 17.0131 2.07761 16.9664 2.11348C16.962 2.1169 16.9547 2.12313 16.9448 2.13168C16.8427 2.21929 16.4577 2.54993 15.9161 2.58194C15.8801 2.58407 15.8253 2.58855 15.7588 2.59397C15.5855 2.60813 15.3327 2.62878 15.1251 2.63128C15.1134 2.63469 15.0949 2.64029 15.068 2.6491C15.062 2.65105 15.0551 2.65336 15.0473 2.65595C14.9581 2.68575 14.7528 2.75429 14.5126 2.77171C14.5029 2.77478 14.4875 2.7802 14.466 2.78908C14.4048 2.81437 14.3331 2.85134 14.2493 2.89811C14.2264 2.91089 14.1994 2.92758 14.1488 2.95955L14.1382 2.96629C14.0945 2.99394 14.0309 3.03423 13.9635 3.07291C13.8388 3.14451 13.7222 3.18434 13.6351 3.20822C13.587 3.22142 13.5406 3.23151 13.5053 3.23856C13.4974 3.2451 13.4884 3.25268 13.4783 3.26145C13.4558 3.28093 13.435 3.29955 13.4074 3.32434C13.3979 3.33281 13.3877 3.34201 13.3762 3.35221C13.3359 3.38826 13.2846 3.43372 13.2276 3.48056C12.9312 3.72425 12.4969 3.91527 12.2934 4.00479C12.2838 4.01298 12.2701 4.02485 12.2492 4.04293L12.247 4.04482C12.2101 4.07686 12.1413 4.13656 12.0614 4.19393C11.9772 4.25431 11.8547 4.3316 11.6977 4.38898C11.6696 4.39926 11.6178 4.42717 11.448 4.5422C11.4393 4.54805 11.4302 4.55429 11.4205 4.56087C11.2854 4.65277 11.0525 4.81131 10.7852 4.91682C10.6102 4.98586 10.428 5.03601 10.3053 5.06975C10.2897 5.07406 10.275 5.07811 10.2614 5.08189C10.1174 5.12197 10.0449 5.14582 9.99214 5.17031C9.86352 5.22995 9.77549 5.26803 9.71043 5.29618C9.60186 5.34314 9.55726 5.36243 9.49477 5.4081C9.40898 5.47079 9.32563 5.52007 9.26958 5.55237C9.24741 5.56515 9.22391 5.57843 9.20503 5.58909C9.20002 5.59192 9.19534 5.59457 9.1911 5.59697C9.16816 5.60996 9.15139 5.61957 9.13684 5.62821C9.13665 5.62832 9.13703 5.6281 9.13684 5.62821C9.08992 5.68748 9.04436 5.73934 9.01797 5.76955C9.01294 5.77531 9.00859 5.7803 9.00502 5.78441C9.00475 5.78473 9.00447 5.78505 9.0042 5.78537C8.99038 5.82671 8.96861 5.887 8.93822 5.95178C8.89654 6.04066 8.8236 6.17162 8.69821 6.29761C8.44074 6.55631 8.15464 6.65056 7.99747 6.69465C7.95955 6.70529 7.92382 6.71432 7.89956 6.72043L7.89354 6.72195C7.86946 6.72802 7.85561 6.73151 7.84195 6.73521C7.8345 6.73722 7.82936 6.73871 7.82614 6.73967C7.77572 6.76356 7.71625 6.8092 7.53799 6.94598C7.5235 6.95709 7.50822 6.96881 7.4921 6.98117C7.40089 7.05112 7.28177 7.13298 7.1976 7.19083C7.16808 7.21111 7.14286 7.22845 7.12464 7.24128C7.02238 7.31332 6.97955 7.35064 6.96123 7.36997C6.88294 7.45257 6.81159 7.54993 6.69129 7.71585L6.68635 7.72267C6.58317 7.86499 6.43684 8.06682 6.25171 8.25595C6.24581 8.26581 6.22948 8.29266 6.19807 8.34925C6.19516 8.35449 6.192 8.36024 6.18857 8.36646C6.13481 8.46405 6.01689 8.6781 5.82784 8.86806C5.7484 8.94788 5.68114 9.04649 5.55394 9.24785C5.54842 9.25659 5.54276 9.26557 5.53696 9.27477C5.42383 9.45421 5.25628 9.71998 5.01827 9.96833C4.91874 10.0722 4.82241 10.1609 4.744 10.232C4.72362 10.2504 4.70507 10.2672 4.68789 10.2827C4.63284 10.3324 4.59189 10.3693 4.55002 10.4097C4.45561 10.5009 4.41349 10.5572 4.38205 10.6204C4.32221 10.7406 4.26707 10.875 4.20081 11.0434C4.19174 11.0665 4.18236 11.0905 4.17266 11.1152C4.11644 11.2589 4.04984 11.4292 3.97614 11.5937C3.83246 11.9145 3.64605 12.2105 3.50383 12.4363C3.48218 12.4706 3.46156 12.5034 3.44227 12.5343C3.27949 12.7955 3.17695 12.9795 3.1158 13.1639C3.07979 13.2724 3.05356 13.3853 3.01447 13.5536C3.01038 13.5713 3.00614 13.5895 3.00174 13.6084C2.96001 13.7876 2.90266 14.0281 2.80749 14.2725C2.76229 14.3886 2.71481 14.499 2.67462 14.5923L2.67181 14.5989C2.63077 14.6942 2.59746 14.7715 2.56728 14.8479C2.50675 15.0011 2.47725 15.1061 2.4659 15.1973C2.42283 15.5435 2.26937 15.825 2.20289 15.9469C2.19849 15.955 2.19447 15.9624 2.19089 15.969C2.15708 16.0318 2.14018 16.0665 2.13262 16.0821C2.1147 16.2391 2.11265 16.425 2.11929 16.6565C2.12125 16.725 2.12435 16.8042 2.12766 16.889C2.13476 17.0708 2.14286 17.2778 2.14286 17.4582V18.1494C2.14286 18.4232 2.07913 18.6715 2.04631 18.7994C2.04428 18.8073 2.04237 18.8148 2.0406 18.8218C2.00143 18.9758 2.00004 19.0002 2 19.0002C2 19.5525 1.55228 20 1 20C0.447715 20 0 19.5523 0 19C0 18.7272 0.0637178 18.4791 0.0963821 18.3519C0.0984768 18.3438 0.100444 18.3361 0.102258 18.329C0.142183 18.1719 0.14285 18.1493 0.142857 18.1493L0.142857 17.4582C0.142857 17.3136 0.137517 17.1807 0.131354 17.0273C0.127566 16.933 0.123467 16.831 0.120107 16.7138C0.112227 16.4388 0.110676 16.1129 0.154192 15.785C0.199547 15.4432 0.35174 15.1643 0.417769 15.0432C0.422343 15.0349 0.426503 15.0272 0.430186 15.0204C0.462534 14.9604 0.478919 14.9267 0.486349 14.9113C0.529734 14.5991 0.621336 14.3302 0.707272 14.1128C0.748881 14.0075 0.793096 13.9049 0.830791 13.8174L0.837659 13.8014C0.878931 13.7056 0.913132 13.6255 0.94383 13.5467C0.981897 13.449 1.01229 13.3333 1.05388 13.1547C1.058 13.137 1.06231 13.1183 1.06681 13.0988C1.1025 12.9441 1.15028 12.7368 1.21753 12.5341C1.35954 12.1061 1.57519 11.7488 1.74493 11.4765C1.77059 11.4353 1.79508 11.3962 1.81849 11.3589C1.96513 11.1248 2.06902 10.9589 2.15084 10.7762C2.20324 10.6592 2.24996 10.54 2.30677 10.395C2.31733 10.3681 2.32824 10.3403 2.3396 10.3114C2.40742 10.1389 2.48964 9.93405 2.59149 9.72937C2.7615 9.38772 2.97519 9.1502 3.16071 8.97105C3.22954 8.90459 3.30336 8.83804 3.36216 8.78503C3.376 8.77256 3.389 8.76083 3.40092 8.75004C3.47075 8.68675 3.5249 8.63606 3.57432 8.58449C3.66281 8.49216 3.73358 8.38468 3.86305 8.17972C3.86657 8.17416 3.87014 8.16851 3.87376 8.16276C3.98686 7.98359 4.15421 7.71844 4.39548 7.47218C4.40108 7.46291 4.41736 7.43633 4.44938 7.37865C4.45239 7.37322 4.45571 7.36719 4.45933 7.3606C4.51219 7.2645 4.62997 7.05039 4.81766 6.86179C4.88795 6.79117 4.95667 6.70108 5.07212 6.54185C5.07858 6.53294 5.08523 6.52374 5.09208 6.51428C5.19292 6.37492 5.33555 6.17781 5.50967 5.99412C5.67031 5.82464 5.84772 5.69437 5.97287 5.60622C6.03653 5.56137 6.08433 5.52869 6.12429 5.50137C6.18303 5.4612 6.22481 5.43263 6.27509 5.39407C6.28856 5.38375 6.30461 5.37115 6.32301 5.35671C6.46126 5.24822 6.73183 5.03589 7.02879 4.90535C7.10474 4.87196 7.17586 4.84722 7.23613 4.82866C7.24822 4.80652 7.26175 4.78331 7.27687 4.75943C7.35737 4.63233 7.44512 4.53064 7.4926 4.47576C7.49913 4.46821 7.50507 4.46135 7.51049 4.45509C7.55595 4.40258 7.56418 4.39307 7.57222 4.382C7.75978 4.12412 8.0018 3.97616 8.11581 3.90847C8.15289 3.88645 8.21065 3.85373 8.2452 3.83416C8.25732 3.82729 8.26659 3.82204 8.2711 3.81945C8.30476 3.80005 8.31541 3.79278 8.31543 3.79281C8.31543 3.79281 8.31587 3.79249 8.31543 3.79281C8.57491 3.60319 8.9018 3.46328 9.06973 3.3913C9.10404 3.3766 9.13168 3.36475 9.15072 3.35592C9.36687 3.25568 9.58124 3.19517 9.72507 3.15514C9.73915 3.15122 9.75262 3.14748 9.76554 3.14389C9.90672 3.10465 9.98152 3.08386 10.0508 3.05651C10.0931 3.03982 10.1513 3.00486 10.3265 2.8862C10.3327 2.88201 10.3392 2.87763 10.3458 2.87309C10.4701 2.78873 10.6779 2.6477 10.9243 2.54459C10.9285 2.54097 10.9333 2.53685 10.9386 2.53217C10.9415 2.52971 10.9447 2.52691 10.9482 2.52382C10.9803 2.49593 11.0398 2.44411 11.1032 2.39578C11.1773 2.33928 11.2863 2.26391 11.4256 2.2017C11.4416 2.19452 11.4575 2.18745 11.4732 2.18045C11.581 2.13243 11.6805 2.0881 11.777 2.03953C11.8301 2.01279 11.8735 1.98904 11.9077 1.96843C11.9433 1.94692 11.9576 1.93555 11.9575 1.93561C11.9982 1.90217 12.0181 1.8841 12.0463 1.85845C12.0724 1.83462 12.1058 1.80425 12.1698 1.74893C12.2669 1.66491 12.4058 1.55164 12.584 1.45214C12.7064 1.38383 12.8205 1.34529 12.9067 1.32186C12.9602 1.30734 13.0114 1.29661 13.0476 1.28961C13.0572 1.28351 13.0678 1.2768 13.0796 1.26936L13.0807 1.26866C13.1279 1.23878 13.1979 1.19454 13.2745 1.15177C13.3791 1.09338 13.5316 1.01119 13.7021 0.940718C13.8578 0.876359 14.0889 0.795799 14.3517 0.777919C14.3627 0.774619 14.3907 0.766355 14.4466 0.748094C14.4507 0.746745 14.4551 0.745302 14.4597 0.743775C14.5649 0.709188 14.8011 0.631529 15.0847 0.631529C15.2211 0.631529 15.3314 0.622033 15.4685 0.610226C15.5269 0.605193 15.5902 0.599741 15.6625 0.594425C15.6633 0.5938 15.6641 0.593167 15.6649 0.592526L15.6732 0.58602C15.6939 0.569613 15.7197 0.549184 15.7479 0.527569C16.2289 0.157986 16.7688 0.0507413 17.1913 0.016285C17.4749 -0.00684665 17.8088 0.000622052 18.0499 0.00601687Z" fill="#261D1B"/>
<path fill-rule="evenodd" clip-rule="evenodd" d="M1.01508 17C1.56736 17 2.01508 17.4477 2.01508 18C2.01508 18.3198 2.01109 18.6271 2.0072 18.9273C1.99955 19.5168 1.99226 20.0788 2.01625 20.6533C2.02224 20.7966 2.04185 20.9054 2.07102 21.0671C2.08778 21.1601 2.1077 21.2705 2.13 21.4151C2.15927 21.6048 2.17129 21.7881 2.1802 21.9288C2.18079 21.9382 2.18137 21.9474 2.18194 21.9564C2.19074 22.096 2.19697 22.1948 2.20916 22.2901C2.25785 22.6706 2.2476 23.1126 2.24004 23.4382C2.23771 23.5388 2.23563 23.6283 2.23563 23.7014C2.23563 24.1807 2.31482 24.7177 2.42614 25.2412C2.45282 25.3666 2.47691 25.4839 2.49962 25.5943C2.6052 26.108 2.68074 26.4755 2.84723 26.8486C3.03486 27.269 3.16447 27.744 3.26747 28.1214C3.2919 28.2109 3.31483 28.2949 3.33668 28.3714C3.35726 28.4435 3.38241 28.5382 3.40479 28.6224C3.41771 28.6711 3.42971 28.7162 3.43937 28.7515C3.47226 28.8718 3.50236 28.972 3.53397 29.0575C3.55963 29.1268 3.58067 29.1707 3.59479 29.1961C4.01225 29.5042 4.12712 30.0871 3.84603 30.5332C3.55156 31.0004 2.93408 31.1405 2.46685 30.846C1.98464 30.5421 1.76567 30.0418 1.65823 29.7514C1.57411 29.5241 1.50032 29.2455 1.45149 29.0611C1.43629 29.0037 1.4235 28.9554 1.41358 28.9207C1.37752 28.7944 1.3453 28.6773 1.31507 28.5674C1.21697 28.2107 1.13988 27.9304 1.02084 27.6636C0.756912 27.0722 0.632082 26.4548 0.527176 25.9359C0.507643 25.8393 0.488802 25.7461 0.469881 25.6572C0.344596 25.068 0.235629 24.3781 0.235629 23.7014C0.235629 23.524 0.239202 23.3731 0.242391 23.2383C0.248762 22.9692 0.2536 22.7648 0.225338 22.5439C0.204504 22.3811 0.19438 22.2186 0.186539 22.0927C0.185733 22.0797 0.184951 22.0672 0.184185 22.0551C0.175098 21.9114 0.167322 21.8104 0.153382 21.72C0.146781 21.6772 0.136887 21.6218 0.125373 21.5573C0.0867605 21.341 0.0299283 21.0225 0.0179924 20.7367C-0.00822502 20.1088 9.04216e-05 19.4506 0.00794304 18.8291C0.0115604 18.5428 0.0150796 18.2642 0.0150796 18C0.0150796 17.4477 0.462795 17 1.01508 17ZM3.6082 29.2177C3.6082 29.2178 3.60785 29.2173 3.60717 29.2164Z" fill="#261D1B"/>
<path fill-rule="evenodd" clip-rule="evenodd" d="M3.98425 29.8229C3.89426 29.3195 3.43331 28.9588 2.91388 29.0037C2.36364 29.0513 1.95615 29.5359 2.00371 30.0861C2.03861 30.4898 2.2341 30.7987 2.30903 30.9171C2.31364 30.9244 2.3178 30.931 2.32144 30.9368C2.3529 30.9872 2.38512 31.0528 2.43919 31.1739C2.44469 31.1862 2.45057 31.1994 2.45683 31.2136C2.50316 31.318 2.56992 31.4686 2.64994 31.6135C2.78981 31.8668 2.94307 32.1041 3.07474 32.3079C3.09146 32.3338 3.10782 32.3591 3.12377 32.3839C3.27263 32.6151 3.3947 32.8106 3.49717 33.0141C3.71209 33.4411 3.97348 33.8106 4.21344 34.1301C4.29795 34.2426 4.37651 34.3449 4.45103 34.442C4.60342 34.6405 4.7389 34.8169 4.87369 35.0135C5.28065 35.6072 5.77457 36.0861 6.19822 36.4969C6.30777 36.6031 6.41262 36.7048 6.51006 36.8027C7.35325 37.65 8.32474 38.35 9.43995 38.8298C9.94044 39.0451 10.5078 39.0997 10.8727 39.1348C10.9382 39.1411 10.9972 39.1468 11.0481 39.1527C11.4721 39.2015 11.6171 39.2643 11.7088 39.3479C11.9511 39.5687 12.2381 39.6824 12.3665 39.7333C12.3709 39.7351 12.3751 39.7367 12.3792 39.7383C12.402 39.7474 12.4215 39.7551 12.4386 39.7618C12.486 39.7806 12.5153 39.7921 12.5468 39.806C12.5636 39.8135 12.573 39.8182 12.5768 39.8202C12.7607 39.9452 12.9528 40.0233 13.0539 40.0644L13.0599 40.0669C13.0744 40.0728 13.0874 40.078 13.0992 40.0828C13.1396 40.0992 13.1668 40.1102 13.1951 40.1226C13.2108 40.1295 13.2221 40.1347 13.2302 40.1388L13.239 40.1432C13.24 40.1437 13.2406 40.1441 13.2411 40.1444C13.2416 40.1446 13.2418 40.1448 13.2418 40.1448C13.2599 40.1553 13.2785 40.1663 13.2976 40.1777C13.4945 40.2946 13.7501 40.4463 14.18 40.5186C14.4795 40.569 14.7323 40.6129 14.9852 40.6758C15.7248 40.8601 16.4789 40.8776 17.1006 40.8921C17.1407 40.8931 17.1801 40.894 17.219 40.8949C17.5905 40.904 17.9165 40.9174 18.1847 40.9675C18.4016 41.0081 18.6721 41.0185 18.9488 40.9526C19.2272 40.8863 19.5988 40.718 19.8446 40.3302C20.1403 39.8637 20.0019 39.2459 19.5354 38.9502C19.1822 38.7263 18.7422 38.7513 18.421 38.9791C18.0113 38.9151 17.588 38.9034 17.2679 38.8955L17.2212 38.8944C16.5387 38.8778 15.9872 38.8643 15.4686 38.7351C15.1307 38.651 14.8061 38.5958 14.5119 38.5463C14.4809 38.5411 14.4659 38.5369 14.4607 38.5354C14.4567 38.5341 14.4539 38.5331 14.448 38.5304C14.4398 38.5267 14.4243 38.5189 14.391 38.4999C14.3668 38.4862 14.3461 38.4739 14.3185 38.4577C14.3 38.4468 14.2784 38.4341 14.2507 38.4179C14.097 38.3281 13.9296 38.2609 13.8412 38.2254C13.8309 38.2213 13.8216 38.2176 13.8136 38.2143C13.7233 38.1776 13.6991 38.1644 13.699 38.1646C13.6989 38.1647 13.7004 38.1656 13.7026 38.1671C13.5751 38.0795 13.4501 38.0187 13.3558 37.9769C13.2828 37.9447 13.2031 37.9133 13.1492 37.8921C13.1374 37.8875 13.1269 37.8834 13.118 37.8798C13.0681 37.86 13.0399 37.8479 13.0224 37.8397C12.4344 37.3235 11.7388 37.219 11.2771 37.1658C11.1602 37.1523 11.0569 37.1414 10.9645 37.1317C10.6143 37.0947 10.4201 37.0742 10.2304 36.9926C9.38076 36.6271 8.6166 36.0842 7.92775 35.392C7.77814 35.2416 7.63999 35.1071 7.51115 34.9817C7.11489 34.596 6.80662 34.296 6.52332 33.8827C6.35725 33.6404 6.16789 33.3937 5.99983 33.1746C5.93316 33.0877 5.86984 33.0052 5.81266 32.929C5.59396 32.6378 5.41761 32.3811 5.28359 32.1149C5.12923 31.8082 4.95605 31.5352 4.80525 31.301C4.78832 31.2747 4.77173 31.249 4.75544 31.2238C4.61959 31.0132 4.50518 30.8359 4.40081 30.6468C4.36544 30.5828 4.33567 30.516 4.28462 30.4015C4.27852 30.3878 4.27211 30.3734 4.26535 30.3583C4.20997 30.2343 4.12962 30.0566 4.0182 29.878L3.99366 29.8384C3.99012 29.8326 3.98701 29.8275 3.98425 29.8229ZM13.0057 37.8312C13.0056 37.8312 13.0061 37.8315 13.0071 37.832ZM18.5479 39.0008C18.5494 39.001 18.5508 39.0013 18.5523 39.0016C18.5521 39.0016 18.552 39.0015 18.5518 39.0015C18.551 39.0013 18.5498 39.001 18.5479 39.0008Z" fill="#261D1B"/>
<path fill-rule="evenodd" clip-rule="evenodd" d="M35 32C35.5523 32 36 32.4477 36 33C36 33.4244 35.7877 33.7091 35.682 33.8338C35.6411 33.8821 35.591 33.9342 35.5766 33.9492C35.5749 33.951 35.5737 33.9522 35.5731 33.9529C35.2891 34.3416 34.8973 34.6744 34.6384 34.8942C34.604 34.9235 34.572 34.9507 34.5428 34.9758C34.1949 35.2755 33.8114 35.556 33.4653 35.8092C33.3224 35.9138 33.1859 36.0137 33.0608 36.1084C32.9347 36.2038 32.8178 36.3024 32.6789 36.4195C32.6379 36.4541 32.5949 36.4903 32.5493 36.5285C32.3622 36.6851 32.1397 36.8663 31.887 37.0305C31.4854 37.2915 31.0997 37.557 30.7625 37.8344C30.4283 38.1092 30.0033 38.3229 29.7231 38.4638C29.6451 38.503 29.5784 38.5365 29.5279 38.5642C28.733 39.0001 27.8788 39.4515 26.9761 39.8042C26.2697 40.0802 25.5057 40.2865 24.8103 40.4743C24.5545 40.5434 24.308 40.6099 24.0771 40.6765C23.1751 40.9366 22.2679 40.9971 21.4206 40.9999C20.9965 41.0013 20.5743 40.9881 20.1725 40.9752L20.1453 40.9743C19.7478 40.9616 19.3708 40.9495 19 40.9495C18.4477 40.9495 18 40.5018 18 39.9495C18 39.3972 18.4477 38.9495 19 38.9495C19.4034 38.9495 19.8086 38.9625 20.1966 38.9749L20.2366 38.9762C20.6424 38.9892 21.0305 39.0012 21.4139 38.9999C22.1816 38.9974 22.8778 38.9409 23.5229 38.7548C23.8263 38.6673 24.1156 38.5892 24.395 38.5138C25.0498 38.3371 25.6499 38.1752 26.2482 37.9414C27.0222 37.639 27.7803 37.2416 28.5664 36.8105C28.7527 36.7083 28.8946 36.6373 29.0109 36.5791C29.2157 36.4765 29.3414 36.4136 29.4921 36.2897C29.9153 35.9416 30.3741 35.6285 30.7972 35.3535C30.9435 35.2584 31.0895 35.1423 31.2656 34.9948C31.2979 34.9678 31.3319 34.9391 31.3675 34.9091C31.5119 34.7872 31.6813 34.6443 31.8537 34.5138C32.0362 34.3756 32.2034 34.2534 32.3615 34.1379C32.6743 33.9094 32.9509 33.7073 33.2377 33.4603C33.2717 33.431 33.3046 33.4028 33.3364 33.3755C33.6306 33.1229 33.831 32.9508 33.9632 32.7661C34.0005 32.7139 34.0384 32.6687 34.0691 32.634C34.2152 32.2628 34.5769 32 35 32Z" fill="#261D1B"/>
<path fill-rule="evenodd" clip-rule="evenodd" d="M39.99 22C40.5423 22 40.99 22.4477 40.99 23C40.99 23.0728 40.9921 23.1487 40.9947 23.2428L40.995 23.2508C40.9975 23.3433 41.0005 23.4533 40.9999 23.5661C40.9988 23.7901 40.9842 24.0741 40.9053 24.3723C40.8098 24.7328 40.756 25.1226 40.7276 25.5341C40.6805 26.215 40.3854 26.9219 40.1942 27.3799C40.1751 27.4258 40.157 27.4692 40.1403 27.5098C40.0709 27.6782 40.0052 27.8305 39.9437 27.9732C39.8101 28.2828 39.6961 28.5471 39.6072 28.8323C39.4078 29.4724 39.0199 30.0594 38.684 30.4946C38.5312 30.6926 38.4051 30.8906 38.2532 31.1292C38.2064 31.2028 38.157 31.2803 38.1037 31.3629C37.8917 31.691 37.6327 32.0704 37.2798 32.4269C37.2565 32.4505 37.2327 32.4747 37.2083 32.4993C36.9716 32.7391 36.6883 33.0261 36.3826 33.2804C36.3782 33.2841 36.3677 33.2932 36.3525 33.3064C36.2849 33.3652 36.1246 33.5045 35.9993 33.5991C35.9092 33.667 35.7931 33.7478 35.6611 33.8177C35.5377 33.8829 35.3412 33.9708 35.1 33.995C34.5505 34.0502 34.0602 33.6495 34.005 33.1C33.9547 32.5994 34.2828 32.148 34.757 32.0298C34.7677 32.0224 34.7803 32.0133 34.7949 32.0024C34.8367 31.9708 34.8829 31.9325 34.9362 31.8868C34.9558 31.8699 34.974 31.8541 34.9935 31.8372C35.0008 31.8309 35.0082 31.8244 35.016 31.8176C35.0422 31.7949 35.0732 31.7681 35.1036 31.7428C35.3299 31.5546 35.5448 31.3372 35.7942 31.0848C35.8153 31.0635 35.8366 31.0419 35.8582 31.0201C36.0612 30.815 36.23 30.5775 36.4238 30.2775C36.4599 30.2217 36.498 30.1617 36.538 30.0988C36.6972 29.8483 36.8868 29.5499 37.1006 29.2728C37.3823 28.9077 37.6027 28.5425 37.6978 28.2374C37.8199 27.8454 37.9999 27.4279 38.1497 27.0804C38.2015 26.9601 38.2498 26.8482 38.2908 26.7486C38.2982 26.7307 38.3055 26.7129 38.3128 26.6952C38.5405 26.1422 38.7091 25.7327 38.7323 25.3962C38.7663 24.9042 38.834 24.3809 38.9719 23.8603C38.988 23.7994 38.9992 23.7086 39 23.5558C39.0004 23.4803 38.9984 23.4014 38.9957 23.3063C38.9956 23.3007 38.9954 23.295 38.9953 23.2893C38.9929 23.203 38.99 23.1016 38.99 23C38.99 22.4477 39.4377 22 39.99 22Z" fill="#261D1B"/>
<path fill-rule="evenodd" clip-rule="evenodd" d="M36.5126 9.12682C36.9948 8.85763 37.604 9.03035 37.8732 9.51259C38.0202 9.776 38.1244 10.0451 38.2026 10.2471L38.2044 10.2517C38.2906 10.4744 38.3492 10.6251 38.4218 10.7615C38.5353 10.9749 38.6653 11.182 38.818 11.4252C38.8365 11.4546 38.8553 11.4845 38.8744 11.5151C39.043 11.784 39.2357 12.0964 39.3986 12.4356C39.8779 13.4338 40.2555 14.4796 40.5942 15.4765C40.9867 16.6315 41.0276 17.8213 40.9882 18.9142C40.9719 19.3664 40.9406 19.8214 40.9109 20.2546C40.9047 20.3447 40.8986 20.4338 40.8927 20.5218C40.8577 21.0425 40.8295 21.531 40.8295 22C40.8295 22.5523 40.3818 23 39.8295 23C39.2772 23 38.8295 22.5523 38.8295 22C38.8295 21.4586 38.862 20.9123 38.8972 20.3878C38.9035 20.2934 38.9099 20.2 38.9163 20.1072C38.9459 19.675 38.9745 19.2588 38.9895 18.8422C39.0259 17.8306 38.9757 16.9299 38.7005 16.1199C38.3674 15.1394 38.0209 14.1869 37.5956 13.3013C37.4864 13.0738 37.3481 12.8459 37.1797 12.5771C37.1616 12.5482 37.143 12.5186 37.1241 12.4885C36.9761 12.2532 36.8058 11.9823 36.6561 11.7008C36.5248 11.454 36.4271 11.201 36.3529 11.0092C36.3483 10.9971 36.3437 10.9853 36.3393 10.9738C36.2558 10.7581 36.197 10.6131 36.1268 10.4874C35.8576 10.0052 36.0303 9.39601 36.5126 9.12682Z" fill="#261D1B"/>
<path fill-rule="evenodd" clip-rule="evenodd" d="M21.2726 0C21.5422 0 21.7866 0.0400297 21.9818 0.0789053C22.1139 0.10521 22.1869 0.121802 22.2506 0.136285C22.3173 0.151444 22.3738 0.164293 22.4773 0.183548C22.6436 0.214493 22.8095 0.245545 22.9752 0.276539C23.4742 0.369878 23.9704 0.462692 24.4627 0.550471C24.7592 0.603341 25.0881 0.651585 25.4341 0.702361C26.208 0.815905 27.0682 0.942109 27.8465 1.161C28.2343 1.27005 28.6102 1.44119 28.8983 1.57239C28.9476 1.59481 28.9942 1.61607 29.038 1.63565C29.147 1.68446 29.2556 1.72455 29.3985 1.77733C29.4376 1.79177 29.4793 1.80716 29.5242 1.82394C29.7137 1.89467 29.9529 1.98742 30.1908 2.11797C30.3749 2.21902 30.5885 2.32813 30.8173 2.44503C31.3679 2.72635 32.0069 3.05279 32.5364 3.42062C33.0894 3.8047 33.5886 4.31196 34.0005 4.73047C34.1177 4.84955 34.2278 4.96144 34.33 5.06127C34.6975 5.41994 35.0406 5.83812 35.3392 6.20199C35.4541 6.34209 35.5625 6.47413 35.663 6.59163C35.7777 6.72557 35.9076 6.8546 36.0702 7.01383C36.0795 7.02292 36.0889 7.03213 36.0985 7.04146C36.2463 7.186 36.4233 7.35916 36.5902 7.5485C36.8619 7.85678 37.1172 8.21111 37.3348 8.51315C37.4122 8.6205 37.4848 8.72125 37.5517 8.81097L37.5564 8.81735C37.705 9.01655 38 9.41223 38 10C38 10.5523 37.5523 11 37 11C36.4755 11 36.0453 10.5962 36.0034 10.0826C35.9988 10.076 35.9936 10.0685 35.9875 10.0599C35.9764 10.0445 35.9637 10.0271 35.9481 10.0062C35.8386 9.85936 35.7422 9.72538 35.652 9.60014C35.4578 9.33042 35.2927 9.10121 35.0897 8.87086C34.9732 8.73862 34.8444 8.61263 34.6823 8.45396L34.6712 8.44309C34.5134 8.28862 34.3234 8.10218 34.1437 7.89224C33.9832 7.70476 33.8431 7.53366 33.7119 7.37355C33.4469 7.04991 33.2185 6.77111 32.9331 6.4925C32.7674 6.33075 32.6176 6.17893 32.4768 6.03624C32.0958 5.65015 31.7809 5.33097 31.3955 5.06325C30.9768 4.77243 30.5494 4.55506 30.0653 4.30891C29.8052 4.17663 29.5288 4.03604 29.2286 3.87128C29.1258 3.81488 29.0019 3.76375 28.8249 3.6977C28.797 3.68729 28.7668 3.67616 28.7347 3.66435C28.586 3.60961 28.3978 3.54032 28.2209 3.46112C28.1578 3.43288 28.0982 3.40593 28.0415 3.38028C27.7495 3.24827 27.5332 3.15046 27.3051 3.08631C26.6473 2.90133 26.0153 2.80972 25.3187 2.70875C24.9402 2.6539 24.5427 2.59628 24.1117 2.51942C23.6102 2.43001 23.1021 2.33497 22.6011 2.24124C22.4369 2.21053 22.2735 2.17997 22.1113 2.14979C22.022 2.13315 21.8573 2.09753 21.7344 2.07096C21.6688 2.05677 21.6151 2.04516 21.5912 2.04038C21.4472 2.01172 21.3505 2 21.2726 2H21.001L21 0H21.2726Z" fill="#261D1B"/>
</svg>
