<svg width="120" height="54" viewBox="0 0 120 54" fill="none" xmlns="http://www.w3.org/2000/svg">
<path d="M103.746 44.9654C113.146 45.4178 117.717 43.7763 117.859 29.0564C117.891 25.7846 118.745 20.0509 118.389 15.5579C118.418 12.5593 113.284 6.62497 109.689 6.66852C106.892 6.7024 105.297 6.50756 100.91 5.77544C95.3275 4.84366 87.5699 4.14055 82.1421 3.87931C74.6747 3.51991 67.0551 2.48618 59.695 4.30067C52.5662 6.05813 28.6465 4.96159 21.4389 4.61469C11.0531 4.74051 5.44017 6.93201 3.76976 14.4479C3.29294 22.449 -0.154317 32.9821 4.66529 40.4191C11.5744 51.0804 28.8695 48.3697 38.8102 48.8482C45.2051 49.1559 51.6001 49.4637 57.995 49.7715C61.7539 49.9524 65.5291 50.2967 69.2932 50.3153C72.4582 50.3309 75.6746 48.6201 78.8267 48.7718C84.5794 49.0487 90.3457 46.3228 96.0734 46.5984C100.46 46.8095 104.846 47.0207 109.233 47.2318" stroke="#261D1B" stroke-width="3" stroke-linecap="round"/>
<path d="M92.3623 24.408C92.3903 24.744 92.2223 25.528 91.9703 25.78C91.4663 26.312 90.8223 26.228 90.2063 26.312C89.2823 26.452 89.0583 26.676 89.0583 27.488C89.0583 30.036 89.0863 32.556 89.0863 35.104C89.0863 35.524 88.8903 35.888 88.3583 35.972C87.7423 36.056 87.2383 35.776 87.2103 35.244C87.1823 34.6 87.1823 33.956 87.1543 33.34C87.1543 31.52 87.1543 29.728 87.1263 27.936C87.1263 27.208 86.5943 26.844 85.8103 27.012C85.3063 27.096 84.8303 27.348 84.3263 27.488C84.0183 27.572 83.6263 27.684 83.5143 27.292C83.3743 26.928 83.3743 26.48 83.4583 26.116C83.5423 25.836 83.8223 25.584 84.1023 25.444C84.5503 25.164 85.0263 24.884 85.5023 24.744C86.3703 24.492 86.7063 23.988 86.6503 23.092C86.5103 22.504 86.3143 21.888 86.2303 21.272C86.1183 20.46 86.0623 19.62 86.0623 18.78C86.0343 18.5 86.2303 18.136 86.4263 17.94C86.6223 17.744 86.9583 17.632 87.2383 17.604C87.3783 17.604 87.6583 17.8 87.6863 17.94C87.9383 19.06 88.4983 20.124 88.4143 21.328C88.3583 22.168 88.5823 22.98 89.0023 23.736C89.2543 24.24 89.5063 24.24 89.9543 24.072C90.5423 23.848 92.2503 23.4 92.3623 24.408ZM79.2303 23.372H79.2583C80.3783 22.84 81.3023 23.344 82.1423 24.044C82.3383 24.212 82.3383 24.604 82.3943 24.772C82.3103 25.584 81.7223 26.088 81.1343 25.864C80.4903 25.612 79.9303 25.444 79.3143 25.836C79.2303 25.892 79.1463 25.92 79.0343 25.976C77.1023 27.46 77.9983 27.544 75.7023 31.744C75.2823 32.5 74.5823 34.544 73.9103 35.076C73.5463 35.356 73.0983 35.412 72.7623 35.076C72.3143 34.656 72.0623 32.836 71.8383 32.276C71.5023 31.324 71.3063 30.26 71.1943 29.224C71.1383 28.86 71.3903 28.44 71.5863 28.104C71.8943 27.572 72.6503 27.572 72.8743 28.048C73.1543 28.636 73.3783 29.224 73.6303 29.812C73.7703 30.064 73.9663 30.092 74.1063 29.868C74.3863 29.448 74.6663 29 74.9183 28.552C75.4783 27.6 75.7583 26.536 76.2903 25.584C76.9903 24.38 78.0263 23.932 79.2303 23.372Z" fill="#261D1B"/>
<path d="M68.4155 35.664C68.4435 35.748 68.4435 35.832 68.4155 35.944C68.3595 36.28 68.1075 36.644 67.8275 36.784C67.2675 37.092 66.4275 36.924 66.2035 36.532C65.8395 35.86 65.4755 35.188 65.4475 34.376C65.4475 34.012 65.3075 33.592 65.0835 33.284C64.9715 33.116 64.5515 32.92 64.4115 33.004C63.8795 33.256 63.4595 33.648 62.9555 33.956C62.6195 34.18 62.2835 34.376 61.8915 34.46C59.8195 34.992 57.9995 33.2 58.4475 31.072C58.5035 30.792 58.6155 30.512 58.7275 30.26C59.4555 28.72 60.5475 27.544 62.0875 26.76C63.5995 25.976 64.9155 26.424 66.1475 27.32C66.3995 27.516 66.5675 27.992 66.5395 28.356C66.4555 29.84 66.7355 31.24 67.2115 32.64C67.4635 33.368 67.8275 34.04 68.1355 34.768C68.2475 35.048 68.3595 35.356 68.4155 35.664ZM63.7395 30.484C63.9635 30.26 64.8315 29.476 64.7755 29C64.7475 28.832 64.6355 28.692 64.3275 28.636C62.5075 28.272 60.8275 29.532 60.6315 31.436C60.5475 32.08 61.2755 32.276 61.7795 32.164C62.5355 31.996 63.2355 30.988 63.7395 30.484Z" fill="#261D1B"/>
<path d="M55.3764 30.064C55.4324 31.408 55.3764 32.724 55.3764 34.068C55.3764 34.376 55.3764 34.684 55.2644 34.964C55.1524 35.272 54.9004 35.552 54.6204 35.72C54.2284 35.916 53.6964 35.888 53.3884 35.58C53.0244 35.244 52.9964 34.684 52.9964 34.208C52.9964 32.78 53.2484 31.1 52.9964 29.7C52.7724 28.356 51.1204 29.336 50.5044 29.728C50.2524 29.868 50.0564 30.064 49.8324 30.288C49.7764 30.344 49.7204 30.4 49.6644 30.428C49.2164 30.876 48.9644 31.492 48.9924 32.136C48.9924 33.284 48.9924 34.46 48.9644 35.58C48.9644 36.028 48.9364 36.448 48.8244 36.868C48.6564 37.372 48.2364 37.708 47.6764 37.736C47.6484 37.736 47.6204 37.736 47.5924 37.736C47.1724 37.736 46.6684 37.428 46.6124 37.008C46.5844 36.56 46.5564 36.056 46.5564 35.552C46.5284 34.348 46.5284 33.144 46.5284 31.94V30.596C46.5004 29.812 46.5284 29.028 46.5564 28.3C46.5844 26.9 46.9484 24.688 46.6964 23.288C46.5844 22.784 46.8364 22.224 47.0324 21.748C47.0884 21.608 47.1444 21.496 47.1724 21.356C47.2844 21.048 47.7604 20.824 48.0684 20.88C48.3764 20.964 48.7124 21.272 48.7684 21.58C48.8804 22 48.9084 22.448 48.8524 22.868C48.7404 23.876 48.6004 25.584 48.7684 26.592C48.8244 26.816 48.8524 27.068 48.9084 27.292C48.9924 27.768 49.4964 28.02 49.9164 27.768C50.3084 27.544 50.6724 27.32 51.0644 27.096C51.7364 26.676 52.3244 26.704 53.0524 26.9C54.7324 27.348 55.2924 28.104 55.3764 30.064Z" fill="#261D1B"/>
<path d="M35.764 36.028C34.7 36.028 33.608 35.888 32.712 35.44C32.04 35.104 31.452 34.656 30.892 34.152C30.36 33.676 29.772 33.256 29.408 32.668C28.512 31.212 28.26 28.916 28.568 27.292C28.876 25.528 29.576 23.792 30.724 22.364C31.312 21.58 32.124 20.908 32.964 20.348C34.196 19.536 35.596 19.116 36.968 18.584C38.984 17.8 41.168 18.892 42.26 20.544C42.54 20.964 42.484 21.608 42.512 22.168C42.512 22.364 42.372 22.672 42.232 22.728C41.952 22.812 41.532 22.868 41.308 22.728C40.776 22.336 40.3 21.804 39.796 21.356C39.236 20.88 38.088 20.712 37.472 20.964C36.24 21.468 35.288 21.664 34.196 22.448C31.872 24.128 31.116 27.236 31.508 30.008C31.928 33.116 36.408 33.62 38.816 32.948C39.572 32.752 40.244 32.5 41 32.892C41.616 33.228 41.952 33.872 41.784 34.544C41.728 34.74 41.56 35.048 41.42 35.076C40.16 35.244 38.956 35.692 37.668 35.86C37.08 35.944 36.436 36 35.764 36.028Z" fill="#261D1B"/>
</svg>
