<svg width="348" height="104" viewBox="0 0 348 104" fill="none" xmlns="http://www.w3.org/2000/svg">
<path d="M318.053 25.2093C324.081 24.0272 330.11 27.3369 336.374 29.2282C342.167 31.0013 346.777 34.311 346.067 41.6398C345.713 44.7131 349.022 47.1954 347.131 51.0962C344.649 56.6518 343.94 63.0349 339.211 67.5267C335.074 71.3093 330.819 75.21 325.972 78.047C323.372 79.5836 320.771 80.7657 317.934 81.7113C315.098 82.5388 311.906 82.4206 309.069 83.6026C308.123 83.9572 307.178 84.43 306.114 84.6665C304.459 84.9029 303.395 84.0754 301.977 83.6026C300.677 83.248 299.376 83.0116 298.076 82.8934C295.121 82.4206 292.048 82.1841 289.447 80.4111C286.137 78.1652 283.3 76.0375 281.882 72.2549C280.345 68.2359 278.336 64.3352 277.508 60.198C276.326 53.3421 278.572 46.7226 282.591 41.5216C291.22 30.5285 302.331 23.7908 318.053 25.2093ZM303.868 72.7277C306.587 72.4913 310.015 72.7277 312.852 71.7821C321.835 68.5905 329.755 63.5077 335.665 55.9426C336.611 54.7605 337.32 53.1057 337.438 51.6872C338.148 43.6493 337.084 40.5759 328.573 36.6752C318.644 32.1834 310.369 35.4931 301.859 39.7485C300.085 40.6941 298.549 42.5854 296.539 42.94C292.402 43.6493 290.984 45.8951 289.447 49.7959C286.374 57.0064 289.211 62.9167 292.284 68.827C293.111 70.3636 295.357 71.4275 297.249 72.1367C299.14 72.7277 301.386 72.4913 303.868 72.7277Z" fill="#261D1B"/>
<path d="M238.851 87.6216C232.704 88.0944 227.385 85.8485 222.065 83.6026C217.455 81.8295 215.801 78.047 215.682 73.6734C215.564 72.2549 216.273 70.1272 217.337 69.6544C219.938 68.4723 220.411 66.5811 220.411 64.0988C220.292 51.6872 220.411 39.2757 220.056 26.8641C219.938 22.2541 221.593 18.5898 224.075 15.0436C225.139 13.5069 226.912 11.7339 228.449 11.4975C233.413 10.9064 238.023 8.06951 243.106 8.66053C250.671 9.48797 257.291 12.0885 261.073 19.5354C263.083 23.6726 264.738 27.8098 264.856 32.7744C264.856 37.2662 264.147 41.167 260.482 44.1221C259.891 44.5949 259.3 45.1859 258.827 45.777C257.054 48.1411 256.581 50.0323 258.591 52.0418C261.546 54.997 262.255 58.7795 263.556 62.3257C265.565 67.9995 265.21 73.7916 261.664 78.9926C260.719 80.5293 259.182 82.0659 257.527 82.7752C251.617 85.4939 245.588 88.3308 238.851 87.6216ZM229.512 46.7226C229.512 52.16 229.512 57.5975 229.512 63.0349C229.394 64.9262 229.276 66.8175 229.276 68.827C229.394 73.3188 231.995 76.1557 236.368 76.2739C239.796 76.3921 243.342 76.3921 246.77 76.0375C253.153 75.4464 256.345 69.2998 253.744 63.3895C252.326 59.9616 250.317 57.5975 246.652 56.4154C244.879 55.7062 243.106 54.8788 241.451 53.8149C238.614 52.16 238.496 46.7226 241.333 44.8313C242.87 43.7675 244.643 42.94 246.298 41.9944C248.307 40.8123 250.435 39.7485 252.09 38.33C255.754 35.3749 256.345 31.0013 253.863 26.9823C253.272 25.9185 252.326 25.2093 251.853 24.1454C250.317 20.1264 247.243 19.4172 243.461 19.6536C240.742 19.7718 238.023 19.6536 235.304 19.89C231.877 20.1264 229.512 22.4905 229.512 25.8003C229.394 32.7744 229.512 39.7485 229.512 46.7226Z" fill="#261D1B"/>
<path d="M173.335 25.2093C179.364 24.0272 185.392 27.3369 191.657 29.2282C197.449 31.0013 202.059 34.311 201.35 41.6398C200.995 44.7131 204.305 47.1954 202.414 51.0962C199.931 56.6518 199.222 63.0349 194.494 67.5267C190.357 71.3093 186.101 75.21 181.255 78.047C178.654 79.5836 176.054 80.7657 173.217 81.7113C170.38 82.5388 167.188 82.4206 164.352 83.6026C163.406 83.9572 162.46 84.43 161.396 84.6665C159.742 84.9029 158.678 84.0754 157.259 83.6026C155.959 83.248 154.659 83.0116 153.358 82.8934C150.403 82.4206 147.33 82.1841 144.729 80.4111C141.42 78.1652 138.583 76.0375 137.164 72.2549C135.628 68.2359 133.618 64.3352 132.791 60.198C131.609 53.3421 133.855 46.7226 137.874 41.5216C146.503 30.5285 157.614 23.7908 173.335 25.2093ZM159.151 72.7277C161.869 72.4913 165.297 72.7277 168.134 71.7821C177.118 68.5905 185.037 63.5077 190.948 55.9426C191.893 54.7605 192.603 53.1057 192.721 51.6872C193.43 43.6493 192.366 40.5759 183.855 36.6752C173.926 32.1834 165.652 35.4931 157.141 39.7485C155.368 40.6941 153.831 42.5854 151.822 42.94C147.685 43.6493 146.266 45.8951 144.729 49.7959C141.656 57.0064 144.493 62.9167 147.566 68.827C148.394 70.3636 150.64 71.4275 152.531 72.1367C154.422 72.7277 156.668 72.4913 159.151 72.7277Z" fill="#261D1B"/>
<path d="M94.1331 87.6216C87.9864 88.0944 82.6672 85.8485 77.348 83.6026C72.7379 81.8295 71.0831 78.047 70.9649 73.6734C70.8467 72.2549 71.5559 70.1272 72.6197 69.6544C75.2203 68.4723 75.6931 66.5811 75.6931 64.0988C75.5749 51.6872 75.6931 39.2757 75.3385 26.8641C75.2203 22.2541 76.8751 18.5898 79.3574 15.0436C80.4213 13.5069 82.1944 11.7339 83.731 11.4975C88.6956 10.9064 93.3056 8.06951 98.3885 8.66053C105.954 9.48797 112.573 12.0885 116.356 19.5354C118.365 23.6726 120.02 27.8098 120.138 32.7744C120.138 37.2662 119.429 41.167 115.765 44.1221C115.174 44.5949 114.583 45.1859 114.11 45.777C112.337 48.1411 111.864 50.0323 113.873 52.0418C116.828 54.997 117.538 58.7795 118.838 62.3257C120.847 67.9995 120.493 73.7916 116.947 78.9926C116.001 80.5293 114.464 82.0659 112.809 82.7752C106.899 85.4939 100.871 88.3308 94.1331 87.6216ZM84.7949 46.7226C84.7949 52.16 84.7949 57.5975 84.7949 63.0349C84.6767 64.9262 84.5585 66.8175 84.5585 68.827C84.6767 73.3188 87.2772 76.1557 91.6508 76.2739C95.0787 76.3921 98.6249 76.3921 102.053 76.0375C108.436 75.4464 111.627 69.2998 109.027 63.3895C107.608 59.9616 105.599 57.5975 101.935 56.4154C100.162 55.7062 98.3885 54.8788 96.7336 53.8149C93.8967 52.16 93.7785 46.7226 96.6154 44.8313C98.1521 43.7675 99.9251 42.94 101.58 41.9944C103.59 40.8123 105.717 39.7485 107.372 38.33C111.036 35.3749 111.627 31.0013 109.145 26.9823C108.554 25.9185 107.608 25.2093 107.136 24.1454C105.599 20.1264 102.526 19.4172 98.7431 19.6536C96.0244 19.7718 93.3056 19.6536 90.5869 19.89C87.159 20.1264 84.7949 22.4905 84.7949 25.8003C84.6767 32.7744 84.7949 39.7485 84.7949 46.7226Z" fill="#261D1B"/>
<path d="M55.9464 58.5431C56.6556 63.2713 56.301 69.2998 53.2277 73.0824C48.9723 78.1652 42.1164 77.4559 36.3244 79.5836C35.4969 79.9382 34.4331 81.2385 34.3149 82.1842C34.0785 85.8485 34.0785 89.5129 34.1967 93.059C34.1967 96.0142 33.251 98.6147 31.7144 101.097C30.7687 102.634 29.5867 103.697 27.9318 102.988C26.6315 102.397 24.8585 100.979 24.622 99.7967C24.1492 96.6052 24.5038 93.4136 24.5038 90.1039C24.5038 88.5672 24.5038 86.9124 24.5038 85.2575C24.5038 79.4654 23.5582 78.5198 18.0026 77.1013C12.6833 75.5647 7.36409 73.7916 2.04486 72.0185C0.27178 71.4275 -0.437451 69.0634 0.27178 66.9357C0.981011 64.6898 2.9905 63.1531 4.52717 63.6259C6.53665 64.0988 8.54614 64.3352 10.3192 65.2808C13.2743 66.9357 16.3477 67.2903 19.5392 67.7631C24.1492 68.5906 25.6859 67.9995 25.8041 64.3352C25.9223 61.1436 25.9223 58.7795 25.8041 55.588C25.8041 51.4508 24.1492 50.8598 19.7756 50.0323C16.7023 49.3231 13.5108 48.7321 10.4374 47.7864C6.89127 46.8408 5.11819 44.4767 4.99999 40.9305C4.76358 37.9754 5.11819 35.3749 6.53665 32.6562C9.25537 27.5734 12.6833 23.318 18.239 20.9539C20.012 20.1264 21.7851 19.299 23.5582 18.2352C25.8041 16.9349 27.1044 13.6252 26.3951 10.7882C26.1587 9.72438 25.3313 8.66054 24.9767 7.47849C24.622 6.29644 24.622 5.11438 24.5038 3.93233C24.5038 2.39566 26.9861 -0.323059 28.5228 0.0315587C29.9413 0.267973 31.5961 1.09541 32.4236 2.27746C33.3692 3.3413 33.7238 5.11438 33.842 6.76925C34.1967 9.96079 34.0785 13.1523 34.4331 16.3439C34.5513 17.1713 35.8515 18.2352 36.7972 18.5898C38.3338 19.0626 39.9887 18.9444 41.5254 19.0626C47.081 19.7718 51.5728 22.2541 54.7644 26.6277C55.3554 27.337 55.3554 29.11 54.7644 29.8193C54.1733 30.5285 52.5185 31.1195 51.691 30.8831C48.9723 29.9375 46.49 28.8736 44.0077 27.4552C41.7618 26.2731 39.3977 25.8003 37.0336 26.3913C36.0879 26.6277 34.6695 27.5734 34.5513 28.4008C34.0785 30.2921 34.1967 32.4198 34.1967 34.4293C34.1967 39.3939 34.1967 39.3939 39.0431 41.0487C40.4615 41.5216 41.88 42.5854 43.4167 42.8218C52.0456 44.5949 54.7644 50.978 55.9464 58.5431ZM22.849 40.8123C24.5038 40.9305 25.8041 39.5121 25.8041 37.8572C25.8041 35.0203 25.8041 31.3559 25.5677 28.0462C25.5677 27.1005 24.622 26.5095 23.7946 26.9823C19.7756 28.8736 15.8749 32.4198 14.4564 36.557C13.7472 38.4482 15.1656 40.4577 17.4115 40.6941C18.1208 40.8123 18.9482 40.8123 20.2485 40.9305C20.4849 40.8123 21.6669 40.8123 22.849 40.8123ZM47.9085 64.3352C49.0905 62.2075 47.5538 60.5526 46.9628 58.6613C46.6082 57.5975 46.49 56.2972 46.1354 55.2334C44.8351 51.4508 42.1164 49.9141 37.6246 50.2688C34.5513 50.5052 33.842 54.1695 33.7238 57.8339C33.7238 60.6708 34.1967 63.6259 34.1967 65.0444C34.3149 66.8175 34.4331 68.2359 34.5513 69.1816C34.5513 69.6544 35.0241 70.009 35.4969 69.8908C39.0431 68.827 46.6082 66.6993 47.9085 64.3352Z" fill="#261D1B"/>
</svg>
