<svg width="151" height="50" viewBox="0 0 151 50" fill="none" xmlns="http://www.w3.org/2000/svg">
<path d="M23.5 2.5L53.3279 1.07962C54.4407 1.02663 55.556 1.06672 56.6621 1.19945L65.4818 2.25782C66.8238 2.41886 68.1787 2.44344 69.5256 2.3312L85.5 1H101H130.208C132.387 1 134.551 1.36557 136.609 2.08148L137.848 2.51245C142.391 4.09257 146.026 7.5646 147.812 12.0304C148.597 13.9921 149 16.0855 149 18.1983V28.6453C149 30.8571 148.536 33.0444 147.638 35.0656C145.948 38.8677 142.827 41.8503 138.952 43.3665L136.571 44.2982C134.538 45.094 132.387 45.5514 130.205 45.6521L101 47H75.5L57.5 48.5H33.2157C30.4358 48.5 27.6864 47.9205 25.1429 46.7984L12 41L11.3045 40.6136C6.1789 37.7661 3 32.3635 3 26.5V23.8516C3 21.3073 3.4855 18.7862 4.43047 16.4238L5 15L6.31088 10.7396C6.76576 9.26129 7.50991 7.8881 8.50011 6.69987C10.7178 4.03867 14.0029 2.5 17.467 2.5H23.5Z" fill="#261D1B"/>
<path d="M127.624 19.559C128.128 19.755 128.604 20.455 128.492 20.903C127.848 23.339 127.232 25.775 126.476 28.183C126.168 29.135 125.468 29.947 124.88 30.787C124.712 31.039 124.348 31.235 124.068 31.291C122.836 31.515 121.688 31.487 120.876 30.171C120.372 29.275 119.7 28.491 119.084 27.707C118.692 27.203 118.44 27.203 118.02 27.651C117.264 28.463 116.508 29.331 115.724 30.115C115.024 30.815 114.1 30.787 113.372 30.087C113.036 29.779 112.756 29.415 112.42 29.107C111.412 28.127 110.768 26.951 110.964 25.411C110.992 25.187 110.964 24.963 110.964 24.711H110.992C110.992 24.151 110.936 23.535 111.02 22.975C111.048 22.723 111.384 22.387 111.608 22.359C111.86 22.331 112.196 22.583 112.42 22.779C112.98 23.311 112.84 24.067 112.868 24.767C112.896 25.607 113.148 26.307 113.68 26.979C114.38 27.847 114.688 27.875 115.444 26.951C116.004 26.251 116.452 25.467 116.984 24.739C117.32 24.263 117.684 23.843 118.076 23.423C118.58 22.891 119.28 22.947 119.784 23.591C120.12 24.039 120.596 24.515 120.652 25.019C120.792 26.027 121.408 26.671 121.912 27.427C122.808 28.799 123.368 28.771 124.068 27.231C124.768 25.663 125.02 23.927 125.356 22.247C125.524 21.435 125.832 20.707 126.168 19.979C126.364 19.531 127.092 19.363 127.624 19.559Z" fill="#FEE1BF"/>
<path d="M107.063 23.7589C107.735 24.2629 107.987 24.9909 107.959 25.8309C107.931 27.0069 107.399 27.8749 106.727 28.7429C106.195 29.4429 105.411 29.4709 104.655 29.7229C103.647 30.0869 102.751 29.8349 101.855 29.5269C100.847 29.191 99.8951 28.6309 99.3351 27.6229C98.8871 26.8669 98.5511 25.8869 98.4951 24.9349C98.4391 24.1229 98.6071 23.3109 99.1111 22.6389C99.6151 21.9949 100.175 21.5749 101.071 21.7429C101.743 21.8829 102.415 21.9389 103.087 21.9949C104.627 22.1349 105.887 22.8909 107.063 23.7589ZM105.439 26.5029C105.831 26.0549 105.635 25.2989 105.159 24.9909C104.207 24.4029 103.199 24.1789 102.303 24.2349C100.427 24.2069 100.259 24.4589 100.875 26.0549C101.211 26.9509 102.695 27.9589 103.619 27.8749C103.815 27.8469 104.039 27.8189 104.179 27.7069C104.599 27.3149 105.047 26.9509 105.439 26.5029Z" fill="#FEE1BF"/>
<path d="M89.6475 29.611H89.6195C89.4235 29.527 88.7515 29.359 88.1355 29.051C85.8955 28.015 83.8235 26.699 82.0315 24.991C81.6955 24.683 81.3315 24.375 80.9675 24.095C80.5475 23.787 79.6235 23.955 79.3995 24.431C79.0915 25.047 78.8395 25.691 78.5875 26.363C77.9995 27.875 77.4675 29.387 76.8795 30.927C76.7955 31.123 76.5995 31.347 76.4035 31.431C76.1235 31.571 75.6475 31.739 75.4515 31.599C73.9395 30.647 74.6395 29.387 75.1995 28.071C75.8435 26.503 76.6275 24.963 77.1875 23.367C77.2715 23.143 77.3835 22.919 77.4955 22.723C78.5315 21.015 79.8475 20.651 81.6395 21.687C82.3395 22.079 83.0675 22.527 83.6275 23.115C85.1675 24.795 87.3795 25.439 89.1435 26.755C89.6475 27.119 90.6835 26.727 90.9355 26.083C91.3555 24.991 91.6635 23.899 91.9995 22.779C92.3635 21.547 92.6155 20.287 93.0355 19.111C93.2315 18.551 93.8475 18.299 94.4915 18.299C94.9675 18.299 95.4715 18.6909 95.4995 19.0829C95.4995 19.6709 95.5555 20.287 95.4435 20.847C94.9955 22.6389 94.5195 24.431 93.9595 26.195C93.7075 26.951 93.2315 27.651 92.8115 28.351C92.1955 29.359 91.2435 29.723 89.6475 29.611Z" fill="#FEE1BF"/>
<path d="M59.6311 27.0629C59.6311 27.7069 59.6871 28.4069 59.5751 29.0509C59.4631 29.7229 59.1551 30.3389 59.0991 31.0109C59.0151 31.7669 58.9591 32.5509 58.8751 33.3069C58.7071 35.0429 58.5391 36.7509 58.3431 38.4869C58.3151 38.7949 58.1751 39.1029 58.0071 39.3549C57.7551 39.7469 57.3351 39.9429 56.9151 39.8309C56.6351 39.7749 56.3551 39.4949 56.1871 39.2429C56.0191 38.9909 55.9351 38.6549 55.9351 38.3469C55.9911 37.3109 55.9351 36.2469 56.2431 35.2109C56.5511 34.2029 56.4951 33.1109 56.6071 32.0469C56.7751 30.1429 56.6911 29.9469 55.0951 30.4229C53.9471 30.7589 52.9951 30.3669 52.1551 29.9189C50.9231 29.2189 50.0551 28.0989 49.6351 26.7269C49.3271 25.6349 49.4391 24.5989 50.4191 23.8429C50.6431 23.7029 51.0071 23.5349 51.2311 23.5909C51.7631 23.7869 51.6791 24.2069 51.6791 24.6829C51.7071 25.2989 51.9031 25.8029 52.0151 26.3909C52.1551 27.2589 53.8631 28.3789 54.7031 28.2669C54.9831 28.2389 55.3191 28.0429 55.4871 27.8189C56.0471 27.0349 56.5791 26.2509 57.0271 25.4109C57.6991 24.2349 58.2591 23.7309 58.7911 24.0109C59.5751 24.4029 59.6311 25.1589 59.6311 25.9149C59.6311 26.2229 59.6311 26.5589 59.6311 27.0629Z" fill="#FEE1BF"/>
<path d="M46.2731 22.303C46.4131 23.087 46.6371 23.815 46.4971 24.683C46.2731 25.887 46.0211 27.091 45.5731 28.211C45.2371 28.967 44.6211 30.535 43.7251 30.731C43.0531 30.899 42.4931 31.291 41.7931 31.375C41.2611 31.431 40.1691 31.263 39.4971 31.067C37.7611 30.591 36.7251 29.359 35.9131 27.903C35.6891 27.483 35.6051 27.007 35.5771 26.559C35.5491 26.419 35.5771 26.307 35.5771 26.195C35.6331 25.887 35.7451 25.635 35.8291 25.299C36.2211 23.059 37.2291 23.087 37.6491 23.423C38.1811 23.871 38.2091 24.403 38.0131 24.991C37.8731 25.439 37.7051 25.915 37.6771 26.391C37.6491 26.643 37.7611 26.951 37.9291 27.175C38.2651 27.567 38.6011 27.987 39.0211 28.295C39.4971 28.631 40.0011 29.023 40.5891 29.135C41.4011 29.247 42.2411 29.107 42.8011 28.463C43.4171 27.763 43.4171 26.895 43.6131 26.027C43.7811 25.355 44.3971 24.431 44.1171 23.759C43.9211 23.199 43.6411 22.779 43.3051 22.303C42.9131 21.771 43.5571 21.099 44.0891 20.931C44.5931 20.791 44.7891 21.183 45.1251 21.211C45.8811 21.267 46.1891 21.799 46.2731 22.303Z" fill="#FEE1BF"/>
<path d="M26.476 32.327C25.02 32.439 23.76 31.907 22.5 31.375C21.408 30.955 21.016 30.059 20.988 29.023C20.96 28.687 21.128 28.183 21.38 28.071C21.996 27.791 22.108 27.343 22.108 26.755C22.08 23.815 22.108 20.875 22.024 17.935C21.996 16.843 22.388 15.975 22.976 15.135C23.228 14.771 23.648 14.351 24.012 14.295C25.188 14.155 26.28 13.483 27.484 13.623C29.276 13.819 30.844 14.435 31.74 16.199C32.216 17.179 32.608 18.159 32.636 19.335C32.636 20.399 32.468 21.323 31.6 22.023C31.46 22.135 31.32 22.275 31.208 22.415C30.788 22.975 30.676 23.423 31.152 23.899C31.852 24.599 32.02 25.495 32.328 26.335C32.804 27.679 32.72 29.051 31.88 30.283C31.656 30.647 31.292 31.011 30.9 31.179C29.5 31.823 28.072 32.495 26.476 32.327ZM24.264 22.639C24.264 23.927 24.264 25.215 24.264 26.503C24.236 26.951 24.208 27.399 24.208 27.875C24.236 28.939 24.852 29.611 25.888 29.639C26.7 29.667 27.54 29.667 28.352 29.583C29.864 29.443 30.62 27.987 30.004 26.587C29.668 25.775 29.192 25.215 28.324 24.935C27.904 24.767 27.484 24.571 27.092 24.319C26.42 23.927 26.392 22.639 27.064 22.191C27.428 21.939 27.848 21.743 28.24 21.519C28.716 21.239 29.22 20.987 29.612 20.651C30.48 19.951 30.62 18.915 30.032 17.963C29.892 17.711 29.668 17.543 29.556 17.291C29.192 16.339 28.464 16.171 27.568 16.227C26.924 16.255 26.28 16.227 25.636 16.283C24.824 16.339 24.264 16.899 24.264 17.683C24.236 19.335 24.264 20.987 24.264 22.639Z" fill="#FEE1BF"/>
<path d="M83.7521 3.31299C68.6313 3.31299 53.5105 3.31299 38.3897 3.31299C30.7165 3.31299 22.1429 2.50705 14.7392 4.23986C9.53866 5.457 8.5596 9.62115 6.54179 13.1294C5.36445 15.1763 2 18.2321 2 20.3758C2 22.8615 2 25.3472 2 27.8328C2 31.6424 2.95394 36.2299 6.54177 38.959C12.1385 43.2161 18.6742 43.3588 26.0382 46.1595C35.5075 49.7609 49.2377 48.0554 59.4924 48.0554C70.2293 48.0554 80.9023 47.2971 91.728 47.2971C100.867 47.2971 110.006 47.2971 119.145 47.2971C124.514 47.2971 131.486 48.5687 135.373 45.6119C140.21 41.9327 145.796 38.0772 148.002 32.8042C149.859 28.3649 148.556 22.4326 148.556 17.8058C148.556 16.1644 147.945 11.8725 146.5 10.459C143.917 7.93308 140.844 4.36359 136.592 3.48151C129.543 2.0192 121.818 2.55464 114.548 2.55464C104.987 2.55464 96.5196 2.96197 87.1862 4.23986C82.8436 4.83442 71.7884 4.15747 71.7884 7.86307" stroke="#261D1B" stroke-width="3" stroke-linecap="round"/>
</svg>
