<svg width="41" height="41" viewBox="0 0 41 41" fill="none" xmlns="http://www.w3.org/2000/svg">
<path fill-rule="evenodd" clip-rule="evenodd" d="M30.4036 9.00255C30.6886 9.01503 31.4381 9.09692 31.7879 9.82459C31.9804 10.2251 32.0009 10.6406 32 10.9145C31.9995 11.0574 31.9921 11.197 31.9863 11.3069L31.986 11.312C31.9796 11.4329 31.9754 11.5157 31.9754 11.5874C31.9754 12.1278 31.9244 12.6861 31.8786 13.188C31.861 13.3805 31.8442 13.5646 31.8313 13.7364C31.7993 14.1613 31.7377 14.5874 31.6822 14.9714C31.6741 15.0274 31.6661 15.0824 31.6584 15.1365C31.6345 15.3034 31.6205 15.4728 31.6035 15.6765C31.5999 15.7197 31.5962 15.7646 31.5922 15.8112C31.571 16.0599 31.543 16.3546 31.4829 16.6509C31.4149 16.9857 31.382 17.3307 31.3428 17.7411L31.3366 17.8053C31.2965 18.2245 31.2479 18.7096 31.1336 19.202C30.6836 21.1403 30.0405 23.0328 29.4186 24.8628C29.3454 25.0782 29.2725 25.2927 29.2002 25.5063C29.0355 25.9934 28.859 26.4749 28.6876 26.9428C28.6697 26.9915 28.6519 27.0401 28.6342 27.0885C28.4445 27.6068 28.262 28.1101 28.0971 28.6165C28.0874 28.6462 28.0758 28.6835 28.0625 28.7266C28.0052 28.9117 27.9149 29.2035 27.7986 29.4577C27.6489 29.7848 27.383 30.2304 26.8838 30.5071C26.8598 30.5204 26.8365 30.5353 26.7896 30.5652C26.7669 30.5796 26.7387 30.5976 26.7022 30.6206C26.6137 30.6766 26.4811 30.7585 26.3325 30.8283C26.0978 30.9384 25.4078 31.2105 24.7816 30.7056C24.0311 30.1004 23.2548 29.5418 22.442 29.037C22.3332 28.9694 22.2193 28.9001 22.1019 28.8286C21.5722 28.5061 20.9703 28.1396 20.4307 27.6896C20.3383 27.6125 20.2516 27.5293 20.1844 27.4638C20.1602 27.4403 20.1385 27.419 20.1183 27.3991C20.0742 27.3559 20.0368 27.3192 19.9953 27.2801C19.9383 27.2265 19.8964 27.1905 19.8645 27.1662C19.8517 27.1566 19.8433 27.1509 19.839 27.1481C19.8049 27.1334 19.7768 27.1225 19.7539 27.1144C19.3122 27.4406 18.8652 27.7677 18.4019 28.0893C18.1928 28.2345 17.9992 28.3776 17.7932 28.5298C17.6738 28.618 17.5502 28.7093 17.4169 28.8059L17.4186 28.8048C17.4186 28.8048 17.4018 28.8185 17.353 28.8624C17.3432 28.8712 17.3316 28.8818 17.3187 28.8935C17.2757 28.9324 17.2182 28.9846 17.164 29.0314C17.0915 29.0941 16.9938 29.1749 16.8838 29.2484C16.7854 29.314 16.6085 29.4214 16.3811 29.4731C16.07 29.5438 15.7782 29.4581 15.5697 29.3068C15.3957 29.1806 15.3076 29.0315 15.2714 28.9632C15.1993 28.8273 15.1759 28.7056 15.1698 28.674L15.1695 28.6728C15.1527 28.5856 15.1493 28.5084 15.148 28.4782C15.1448 28.4002 15.1465 28.3122 15.1489 28.2365C15.154 28.0765 15.1662 27.871 15.18 27.6722C15.2055 27.3043 15.245 26.8368 15.2662 26.711C15.2971 26.5284 15.3288 26.3265 15.3616 26.1175C15.4124 25.7937 15.4659 25.4529 15.5231 25.1408C15.552 24.9834 15.5679 24.8187 15.5889 24.602C15.5909 24.5805 15.5931 24.5585 15.5952 24.536C15.6175 24.3065 15.6471 24.0173 15.7141 23.7272C15.8467 23.1522 16.1222 22.6955 16.3999 22.326C16.5695 22.1004 16.7874 21.8513 16.971 21.6414C17.0554 21.5449 17.1325 21.4567 17.1945 21.3828C17.641 20.85 18.2406 20.5866 18.64 20.4165C18.6867 20.3966 18.7312 20.3778 18.7736 20.3598C19.1605 20.1957 19.3757 20.1044 19.5464 19.9637C19.8683 19.6984 20.1889 19.4335 20.5085 19.1684C20.006 19.419 19.502 19.6288 19.0149 19.8213C18.8069 19.9036 18.605 19.9816 18.4072 20.0581C17.9228 20.2453 17.463 20.423 16.9982 20.6299C16.7724 20.7303 16.5203 20.8512 16.2535 20.979C15.7299 21.2299 15.1499 21.5079 14.6022 21.7121C14.5826 21.7194 14.5561 21.7297 14.5248 21.7418C14.4255 21.7801 14.278 21.837 14.1492 21.8785C13.966 21.9375 13.7072 22.006 13.4167 22.006L13.3943 22.0061C13.1739 22.0061 12.8996 22.0062 12.621 21.9559C12.3019 21.8983 12.0094 21.7834 11.7038 21.5967C11.0566 21.2014 10.396 20.8693 9.68485 20.5705C9.6452 20.5539 9.60605 20.5374 9.56739 20.5211C8.91513 20.2466 8.4017 20.0305 7.92976 19.9972C7.37884 19.9585 6.96367 19.4804 7.00245 18.9295C7.01427 18.7615 7.06691 18.6062 7.15 18.4725C7.18273 18.1408 7.38048 17.833 7.70079 17.674C7.70347 17.6724 7.71618 17.6644 7.74368 17.6432C7.76464 17.6271 7.78668 17.6094 7.82045 17.5821L7.82253 17.5804C7.85283 17.5559 7.89373 17.5228 7.93732 17.4895C8.12664 17.3445 8.43802 17.1355 8.89157 17.0797C9.09518 17.0546 9.33254 16.9473 9.7291 16.7463C10.2077 16.5037 10.7148 16.3712 11.1248 16.2689C11.1731 16.2569 11.2201 16.2452 11.2658 16.2339C11.6415 16.1407 11.9348 16.068 12.2066 15.9584C12.507 15.8373 12.8184 15.7243 13.1102 15.6185C13.1921 15.5888 13.2725 15.5596 13.3507 15.531C13.7193 15.396 14.0567 15.2667 14.3711 15.1199C15.1628 14.7503 15.9994 14.5348 16.7663 14.3581C16.9401 14.318 17.1091 14.2801 17.274 14.2432C17.8665 14.1104 18.4065 13.9895 18.93 13.8204C19.4214 13.6618 19.9071 13.4402 20.4254 13.1831C20.5802 13.1063 20.7425 13.0238 20.9095 12.9391C21.2762 12.7529 21.665 12.5554 22.0447 12.3818C22.5257 12.1618 23.0342 11.9158 23.5542 11.6642C24.3361 11.2859 25.1441 10.895 25.9243 10.5607C26.1335 10.4711 26.3201 10.3957 26.492 10.3262C26.9035 10.1599 27.2308 10.0276 27.5835 9.81516C28.0432 9.53835 28.8511 9.11615 29.6177 9.05045C29.6288 9.0495 29.6489 9.0472 29.6763 9.04407C29.8153 9.02817 30.1404 8.99102 30.4036 9.00255ZM10.3407 18.6764C10.4335 18.6317 10.5182 18.5887 10.5933 18.5505C10.6069 18.5436 10.6203 18.5368 10.6333 18.5302C10.8888 18.4007 11.1957 18.3125 11.609 18.2094C11.653 18.1984 11.6986 18.1872 11.7457 18.1756C12.1033 18.0876 12.5422 17.9795 12.9545 17.8133C13.219 17.7067 13.4857 17.6099 13.7715 17.5062C13.8586 17.4746 13.9474 17.4424 14.0384 17.409C14.4164 17.2706 14.8209 17.1171 15.2171 16.9321C15.8057 16.6573 16.4675 16.4793 17.2154 16.307C17.3601 16.2736 17.5097 16.2402 17.6626 16.206C18.267 16.0709 18.9243 15.9239 19.5445 15.7237C20.1788 15.5189 20.7698 15.2448 21.3142 14.9747C21.5059 14.8796 21.6872 14.7875 21.8632 14.6981C22.2086 14.5226 22.5336 14.3574 22.8766 14.2006C23.4531 13.9369 23.9879 13.6774 24.511 13.4236C25.2401 13.0698 25.9466 12.727 26.712 12.3991C26.8372 12.3454 26.974 12.2902 27.1187 12.2318C27.5776 12.0465 28.116 11.8292 28.6154 11.5284C29.041 11.2721 29.5115 11.0669 29.7885 11.0431C29.8463 11.0382 29.9067 11.0315 29.9561 11.0261L29.9605 11.0256C29.9732 11.0242 29.9855 11.0228 29.9975 11.0215C29.9955 11.0773 29.9924 11.1377 29.9888 11.2064L29.988 11.2208C29.9825 11.326 29.9754 11.4585 29.9754 11.5874C29.9754 12.0322 29.9376 12.445 29.8952 12.9071C29.8756 13.1204 29.8551 13.3442 29.8369 13.5865C29.8105 13.9379 29.7596 14.2906 29.7034 14.6807C29.6952 14.7375 29.6869 14.795 29.6785 14.8535C29.6455 15.0847 29.6257 15.3243 29.6088 15.5285C29.6056 15.5676 29.6025 15.6053 29.5994 15.6414C29.5787 15.8844 29.5581 16.0792 29.5228 16.2531C29.4331 16.6954 29.3909 17.1396 29.3542 17.5257C29.3513 17.5557 29.3485 17.5854 29.3457 17.6147C29.305 18.0404 29.266 18.4027 29.1854 18.7497C28.7594 20.5847 28.1496 22.3801 27.5236 24.2231C27.4511 24.4366 27.3783 24.6507 27.3057 24.8655C27.1494 25.3275 26.9817 25.7853 26.8089 26.2569C26.7913 26.3048 26.7738 26.3528 26.7561 26.4009C26.5665 26.9188 26.3727 27.4527 26.1953 27.9973C26.1766 28.0549 26.158 28.1145 26.1413 28.1684L26.1364 28.1838C26.1177 28.2441 26.1004 28.2993 26.0825 28.3537C26.0464 28.4634 26.0136 28.5519 25.9799 28.6256C25.938 28.7171 25.9085 28.7551 25.8988 28.7665C25.8458 28.7964 25.7963 28.827 25.7568 28.8518C25.739 28.863 25.7213 28.8743 25.7047 28.8848C24.9992 28.3333 24.2657 27.8153 23.4971 27.338C23.3569 27.2508 23.2219 27.1685 23.0916 27.0889C22.5721 26.7717 22.1265 26.4996 21.7116 26.1536C21.6596 26.1102 21.6228 26.0737 21.5669 26.0182C21.52 25.9717 21.4597 25.9119 21.3658 25.8235C21.2211 25.6874 20.9696 25.4598 20.6523 25.3209C20.1875 25.1173 19.4067 24.884 18.6429 25.4486C18.205 25.7723 17.7791 26.0848 17.3436 26.3891C17.3444 26.3842 17.3451 26.3793 17.3459 26.3744C17.3914 26.0824 17.4349 25.8039 17.4903 25.5018C17.5357 25.2546 17.5598 25.002 17.5791 24.7994C17.5814 24.7753 17.5837 24.752 17.5859 24.7294C17.6085 24.4963 17.6286 24.3255 17.6629 24.1766C17.7095 23.9745 17.8134 23.7742 17.9986 23.5278C18.1287 23.3547 18.2518 23.2148 18.3987 23.0479C18.4951 22.9384 18.6017 22.8173 18.7272 22.6675C18.8339 22.5403 19.0155 22.4304 19.4239 22.2565C19.4633 22.2397 19.5064 22.2218 19.5523 22.2027C19.8962 22.0597 20.4042 21.8485 20.8185 21.507C21.848 20.6585 22.8735 19.8075 23.8937 18.9361C24.2152 18.6615 24.5539 18.4002 24.9164 18.1205L24.9383 18.1036C25.3021 17.8229 25.6896 17.5234 26.0631 17.2007C26.3425 16.9593 26.5807 16.6957 26.7756 16.4796L26.7865 16.4675C26.9887 16.2431 27.1467 16.0679 27.3183 15.9135C27.3785 15.8593 27.4437 15.797 27.5031 15.7295C27.5416 15.6859 27.6654 15.5453 27.7382 15.3398C27.7775 15.229 27.837 15.0021 27.7632 14.7278C27.6786 14.413 27.4651 14.2027 27.2544 14.0916C27.0742 13.9966 26.9095 13.9785 26.8302 13.9736C26.7404 13.9681 26.6654 13.9747 26.6181 13.9805C26.4583 14.0002 26.3041 14.0533 26.2406 14.0752C26.1703 14.0994 26.0937 14.1282 26.0372 14.1495C26.0253 14.154 26.0142 14.1581 26.0043 14.1618C25.1871 14.4673 24.426 14.9176 23.7741 15.3033C23.7508 15.3171 23.7277 15.3308 23.7047 15.3444C23.1869 15.6506 22.6356 15.8989 22.0257 16.1711L21.9794 16.1917C21.3983 16.451 20.7619 16.7349 20.1478 17.0926C19.5688 17.4298 18.9502 17.6963 18.2796 17.9614C18.1028 18.0313 17.9194 18.1022 17.7319 18.1747C17.2301 18.3686 16.6985 18.5741 16.1849 18.8027C15.8424 18.9551 15.5404 19.1008 15.2543 19.2388C14.7969 19.4594 14.3801 19.6604 13.9034 19.8382C13.861 19.854 13.8078 19.8745 13.762 19.8922C13.7371 19.9018 13.7144 19.9105 13.6968 19.9172C13.634 19.9411 13.5826 19.9598 13.5362 19.9748C13.4488 20.0029 13.4144 20.006 13.4144 20.006L13.4167 20.006C13.1575 20.006 13.0573 20.0023 12.9764 19.9877C12.9265 19.9787 12.8648 19.9622 12.7463 19.8899C12.0048 19.437 11.2535 19.0602 10.4594 18.7266C10.4212 18.7106 10.3816 18.6938 10.3407 18.6764ZM30.345 11.0031L30.3425 11.0027Z" fill="#261D1B"/>
<path fill-rule="evenodd" clip-rule="evenodd" d="M21.1229 0.0392834C21.3368 0.0215385 21.5964 0 21.8659 0C22.3788 0 22.8323 0.218303 23.0686 0.332059C23.0854 0.340172 23.1012 0.347753 23.1158 0.354685C23.4258 0.502016 23.4958 0.51575 23.5263 0.51575C24.1173 0.51575 24.5309 0.675008 24.8612 0.802189C24.9101 0.820995 24.9571 0.8391 25.0026 0.855886C25.0504 0.87351 25.1505 0.890955 25.391 0.874358C25.4334 0.871436 25.4975 0.865267 25.5744 0.857864C25.7764 0.838421 26.0669 0.810465 26.2841 0.810465C26.7109 0.810465 27.1356 0.953416 27.4267 1.06606C27.6557 1.15464 27.8964 1.26422 28.0736 1.34483C28.1303 1.37068 28.1806 1.39355 28.2218 1.41179C28.6179 1.5871 28.9703 1.70872 29.3647 1.79601C29.7929 1.89077 30.3137 2.14377 30.583 2.28815C30.7968 2.40281 31.0119 2.5273 31.2099 2.64181C31.2956 2.69138 31.378 2.73909 31.4557 2.78332C31.915 3.04472 32.3353 3.34578 32.7058 3.61124L32.7158 3.61835C33.1031 3.89584 33.4366 4.13403 33.7819 4.33057C34.0041 4.45704 34.2062 4.60615 34.3594 4.71931L34.367 4.72494C34.5319 4.84665 34.6507 4.93442 34.7715 5.00765C34.9033 5.08754 35.039 5.16323 35.1887 5.24588C35.2046 5.25467 35.2208 5.26358 35.2371 5.27259C35.3693 5.34548 35.5145 5.42552 35.6574 5.50956C35.9833 5.70126 36.3432 5.93951 36.6809 6.2758C37.0547 6.64819 37.3583 7.04949 37.622 7.41837C37.71 7.5414 37.7911 7.65723 37.869 7.76837C38.0382 8.00983 38.1919 8.22919 38.3662 8.45231C38.4195 8.52064 38.5238 8.65464 38.6146 8.81205C38.6824 8.92951 38.8054 9.16299 38.8347 9.45908C38.8362 9.46195 38.8379 9.46522 38.8398 9.46884C38.8589 9.50534 38.8968 9.57763 38.9249 9.63733C38.9655 9.72368 39.018 9.848 39.0532 9.99881C39.1139 10.2584 39.21 10.5307 39.3313 10.8449C39.3585 10.9153 39.3877 10.9897 39.4181 11.067C39.5143 11.3117 39.6216 11.5849 39.71 11.849C39.8116 12.1525 39.8503 12.4539 39.8764 12.6625L39.8818 12.7057C39.9084 12.9188 39.924 13.0438 39.9545 13.1594C39.9636 13.1938 39.9732 13.2295 39.9831 13.2666C40.0678 13.5842 40.1771 13.9942 40.2305 14.3954C40.2342 14.4034 40.2396 14.4151 40.2474 14.4311C40.2504 14.4371 40.2539 14.4442 40.258 14.4525C40.2995 14.5355 40.3959 14.7285 40.4487 14.9654C40.4546 14.992 40.4602 15.0172 40.4655 15.0413C40.4858 15.1335 40.5025 15.2091 40.5235 15.2863C40.546 15.3687 40.5617 15.406 40.565 15.4138C40.5657 15.4155 40.5658 15.4158 40.5653 15.4149C40.6796 15.6213 40.8116 15.9059 40.8994 16.2174C40.98 16.5034 41.0637 16.9499 40.9285 17.4044C40.8336 17.7232 40.8352 18.0312 40.8376 18.522C40.838 18.6055 40.8385 18.6943 40.8385 18.7893C40.8385 19.096 40.8181 19.3929 40.8003 19.6531L40.7991 19.6694C40.7803 19.944 40.7645 20.1811 40.7645 20.4184C40.7645 20.5272 40.7685 20.6439 40.7735 20.7825L40.7744 20.8054C40.779 20.9326 40.7844 21.0777 40.7855 21.2238C40.788 21.5283 40.7744 21.9079 40.6734 22.288C40.6329 22.4404 40.613 22.5942 40.5842 22.8175C40.5758 22.8825 40.5666 22.9534 40.5559 23.0319C40.5151 23.3326 40.4504 23.7481 40.2674 24.1491C40.1122 24.4891 40.0987 24.8581 40.0987 25.5022C40.0987 25.5204 40.0987 25.5385 40.0987 25.5566C40.0991 26.1353 40.0995 26.6925 39.6925 27.422C39.4009 27.9448 39.0516 28.5318 38.538 29.0518C38.5355 29.057 38.5325 29.0638 38.529 29.0722C38.5028 29.1356 38.4797 29.2122 38.4354 29.3603L38.4337 29.366C38.3969 29.4894 38.3397 29.6807 38.2553 29.865C38.1985 29.989 38.1169 30.139 37.9962 30.2853C37.9822 30.3501 37.9608 30.4308 37.9286 30.5126C37.8691 30.6635 37.7632 30.8463 37.5816 30.9983C37.5798 31.0015 37.5779 31.005 37.5757 31.0089C37.5615 31.0343 37.5418 31.0689 37.5188 31.1063C37.475 31.1775 37.4003 31.2902 37.2891 31.401C37.2534 31.4366 37.2218 31.4803 37.1702 31.6036C37.1494 31.6532 37.1331 31.696 37.1116 31.7524C37.0995 31.7841 37.0858 31.8201 37.0687 31.8641C37.0269 31.9716 36.9731 32.1043 36.9018 32.2463C36.7758 32.4972 36.609 32.686 36.5142 32.7925C36.4987 32.8098 36.4847 32.8255 36.4721 32.8396C36.3875 32.9345 36.3636 32.9613 36.3426 32.9932C36.2584 33.1215 36.1656 33.2209 36.0957 33.2896C36.0326 33.3516 35.9671 33.4086 35.9267 33.4437L35.9172 33.452C35.8918 33.4741 35.8751 33.4889 35.8636 33.4993C35.6378 33.8827 35.3734 34.2342 35.1368 34.5423C35.0994 34.591 35.0627 34.6385 35.0269 34.6851C34.8124 34.9633 34.6253 35.206 34.4603 35.4573C33.9047 36.3036 33.0263 36.8229 32.3125 37.1596C32.2473 37.1904 32.1759 37.2218 32.1168 37.2479C32.106 37.2526 32.0957 37.2572 32.0859 37.2615C32.0152 37.2927 31.9567 37.3191 31.9035 37.3452C31.8585 37.3674 31.8274 37.3847 31.8072 37.3966C31.8022 37.4066 31.7962 37.4188 31.7888 37.4338C31.7863 37.4388 31.7835 37.4445 31.7805 37.4507C31.7326 37.5488 31.6158 37.7882 31.4079 37.9952C31.0916 38.3102 30.7361 38.4904 30.4795 38.611C30.3996 38.6486 30.331 38.68 30.2704 38.7077C30.1064 38.7827 30.0014 38.8307 29.8892 38.9025C29.7367 39.0001 29.5785 39.0841 29.4607 39.1467C29.4503 39.1522 29.4402 39.1575 29.4305 39.1627C29.2954 39.2346 29.2091 39.2823 29.1381 39.3304C29.1412 39.3283 29.142 39.3276 29.1401 39.3291C29.1378 39.3309 29.1318 39.3359 29.121 39.3456C29.1015 39.3634 29.0832 39.3813 29.0497 39.4141C29.0433 39.4204 29.0363 39.4272 29.0287 39.4347L29.0223 39.441C28.945 39.5167 28.7894 39.6691 28.5815 39.7909C28.092 40.0777 27.5861 40.1885 27.2165 40.2695C27.1922 40.2749 27.1685 40.28 27.1454 40.2852C26.011 40.5362 24.8789 40.6813 23.6784 40.6813C23.2826 40.6813 22.8695 40.6593 22.4899 40.6391C22.3315 40.6307 22.1789 40.6226 22.0358 40.6166C21.5206 40.5947 21.0574 40.5937 20.6093 40.6555C20.3021 40.6979 20.0275 40.7598 19.7088 40.8316C19.5592 40.8653 19.3999 40.9012 19.223 40.9383C18.9138 41.0031 18.6097 41.0039 18.3801 40.9974C18.2497 40.9937 18.1563 40.989 18.0757 40.985C17.9772 40.98 17.8977 40.976 17.793 40.976C17.3817 40.976 16.97 40.9346 16.616 40.8991L16.598 40.8973C16.2208 40.8594 15.906 40.8286 15.6107 40.8286C15.2494 40.8286 14.921 40.7531 14.7001 40.7022L14.6978 40.7016C14.4453 40.6434 14.3138 40.6131 14.1868 40.6061C13.8755 40.5888 13.5242 40.498 13.2215 40.2487C12.9381 40.0154 12.7849 39.7158 12.7087 39.4317C12.7055 39.4288 12.7019 39.4256 12.6977 39.4222C12.6726 39.4011 12.6372 39.3764 12.5924 39.351C12.548 39.3259 12.5012 39.304 12.4569 39.2868C12.4029 39.2657 12.3318 39.2454 12.2161 39.2182C12.1943 39.2131 12.1682 39.2072 12.1391 39.2006C12.0427 39.1787 11.9133 39.1492 11.7984 39.1172C11.4678 39.025 11.002 38.8489 10.6348 38.3919C10.6048 38.3545 10.57 38.3098 10.5401 38.2714C10.5285 38.2565 10.5176 38.2425 10.508 38.2303C10.4682 38.1794 10.4336 38.1362 10.4009 38.098C10.3679 38.0593 10.344 38.0343 10.3282 38.0192C10.3273 38.0183 10.3264 38.0176 10.3257 38.0168C10.1598 37.9163 9.99203 37.829 9.79355 37.7257C9.71185 37.6832 9.62495 37.638 9.53082 37.588C9.22691 37.4267 8.86815 37.2251 8.53877 36.9567C8.4236 36.8629 8.28887 36.7764 8.10153 36.6621C8.08219 36.6503 8.06203 36.638 8.04117 36.6254C7.87725 36.5258 7.66979 36.3997 7.47207 36.2542C7.46098 36.246 7.42856 36.2248 7.34713 36.1775C7.33166 36.1685 7.31353 36.1581 7.29356 36.1466C7.23018 36.1101 7.14824 36.063 7.07405 36.0176L7.07196 36.0163C6.91799 35.9221 6.53881 35.69 6.3244 35.3056C6.17882 35.0447 6.04131 34.8428 5.8798 34.6057C5.77461 34.4513 5.65925 34.282 5.52485 34.0716C5.49879 34.0308 5.47749 33.9972 5.45868 33.9674C5.42859 33.9198 5.40487 33.8823 5.37823 33.8419C5.34028 33.7844 5.31764 33.7542 5.30172 33.7353C5.28615 33.7168 5.26822 33.6954 5.19421 33.6564C4.97172 33.5391 4.8207 33.3757 4.73263 33.2672C4.63761 33.1501 4.56196 33.0288 4.50577 32.9309C4.44826 32.8307 4.39835 32.7323 4.36039 32.6562C4.34593 32.6271 4.33405 32.6031 4.32392 32.5826C4.30309 32.5405 4.28963 32.5133 4.27621 32.4881C4.25419 32.4466 4.21401 32.3927 4.10427 32.2988C4.04654 32.2494 3.98283 32.1997 3.89502 32.1316L3.89001 32.1277C3.80916 32.0649 3.70774 31.9863 3.60577 31.8992C3.33611 31.669 3.10978 31.4146 2.93163 31.2143C2.73913 30.998 2.598 30.8394 2.44552 30.7044C2.07857 30.3796 1.88197 29.9257 1.77292 29.654C1.72488 29.5342 1.6789 29.4087 1.64054 29.304C1.63068 29.277 1.62132 29.2515 1.61256 29.2277C1.56464 29.098 1.53096 29.0125 1.50201 28.9515C1.31031 28.5472 1.21108 28.1369 1.13706 27.8309L1.13296 27.814C1.05109 27.4756 0.99567 27.255 0.904924 27.0573C0.776368 26.7772 0.672689 26.4222 0.603581 26.1855C0.584996 26.1219 0.568911 26.0668 0.555515 26.024C0.554075 26.0214 0.552208 26.018 0.549851 26.0139C0.536054 25.9898 0.524111 25.9709 0.502997 25.9376C0.492163 25.9205 0.478913 25.8995 0.461758 25.8721L0.45608 25.8631C0.382992 25.7465 0.2088 25.4687 0.160909 25.111C0.148752 25.0202 0.134458 24.9247 0.11949 24.8247C0.0643146 24.4561 0 24.0265 0 23.5457C0 22.9442 0.0999348 22.3004 0.181746 21.7734C0.2015 21.6462 0.220197 21.5257 0.236175 21.4143C0.298813 20.9777 0.297689 20.5369 0.296327 20.0027C0.296122 19.9224 0.295912 19.8401 0.295912 19.7553C0.295912 18.8957 0.407171 18.1794 0.626953 17.3723C0.756511 16.8965 0.849836 16.412 0.951513 15.8842C0.97172 15.7793 0.992257 15.6727 1.01347 15.5641C1.13749 14.9293 1.28255 14.2412 1.51904 13.564C1.55289 13.4671 1.58679 13.3688 1.6211 13.2694C1.83885 12.638 2.07316 11.9587 2.41606 11.2757C2.67778 10.7543 2.99953 10.2119 3.29704 9.7103C3.45008 9.4523 3.59669 9.20511 3.72543 8.97717C4.39116 7.79844 5.40372 6.83378 6.31007 6.06005C6.70792 5.72042 7.08464 5.36142 7.48407 4.98077C7.55619 4.91204 7.62906 4.84261 7.70292 4.77245C8.17582 4.32327 8.68219 3.85213 9.23923 3.4194C9.71981 3.04607 10.2312 2.73346 10.7125 2.45308C10.8605 2.36684 11.0034 2.28493 11.1424 2.20521C11.4729 2.01572 11.7818 1.83855 12.0883 1.64475C13.0799 1.01771 14.289 0.368393 15.7504 0.368393H18.4885C18.5954 0.260646 18.7296 0.175722 18.8835 0.124612C19.2996 -0.0135032 19.6758 -0.00265992 19.9484 0.0208296C20.0898 0.0330176 20.1838 0.0443407 20.2586 0.0533541C20.3608 0.0656739 20.4272 0.0736786 20.5302 0.0736786C20.7025 0.0736786 20.8815 0.0593101 21.1111 0.0402612L21.1229 0.0392834ZM20.4995 2.07353C20.3184 2.25565 20.0676 2.36839 19.7904 2.36839H15.7504C14.8874 2.36839 14.0879 2.74664 13.1572 3.33514C12.8119 3.55349 12.4444 3.76425 12.0991 3.96227C11.9685 4.03718 11.841 4.11027 11.7192 4.18126C11.2565 4.45075 10.8385 4.70957 10.4662 4.99882C9.99373 5.36585 9.54893 5.77745 9.08028 6.22258C9.01154 6.28787 8.94206 6.35411 8.87185 6.42104C8.47359 6.80072 8.05181 7.20282 7.60861 7.58117C6.73999 8.32269 5.95262 9.10068 5.46688 9.96072C5.29118 10.2718 5.12236 10.5556 4.96016 10.8282C4.68991 11.2824 4.43806 11.7057 4.20346 12.173C3.92479 12.7281 3.73699 13.271 3.51674 13.9078C3.48124 14.0104 3.4449 14.1155 3.4072 14.2235C3.22156 14.755 3.09863 15.3218 2.97636 15.9476C2.95749 16.0442 2.93855 16.1427 2.9193 16.2428C2.81785 16.7706 2.708 17.342 2.5567 17.8977C2.3771 18.5573 2.29591 19.0961 2.29591 19.7553C2.29591 19.8294 2.29621 19.9056 2.29651 19.9834C2.29856 20.5055 2.3009 21.1058 2.21591 21.6983C2.19274 21.8599 2.169 22.0143 2.14614 22.1631C2.06793 22.6719 2 23.1139 2 23.5457C2 23.8651 2.03583 24.1067 2.08545 24.4413C2.10034 24.5417 2.11648 24.6505 2.13326 24.7722C2.13942 24.7826 2.14711 24.7951 2.15708 24.811C2.16136 24.8179 2.16699 24.8268 2.17364 24.8373C2.20164 24.8814 2.24754 24.9539 2.28536 25.0199C2.33693 25.1099 2.40324 25.2372 2.45307 25.3916C2.5062 25.5562 2.54271 25.6829 2.5734 25.7893C2.62314 25.9619 2.65756 26.0813 2.72259 26.223C2.89949 26.6084 2.99487 27.0037 3.06625 27.2996C3.06984 27.3145 3.07338 27.3292 3.07686 27.3436C3.15686 27.6742 3.21517 27.8964 3.30916 28.0946C3.3802 28.2444 3.4407 28.4049 3.48873 28.535C3.50134 28.5691 3.51324 28.6015 3.52467 28.6327C3.56146 28.7331 3.59351 28.8205 3.62909 28.9092C3.67451 29.0224 3.71274 29.104 3.7462 29.1621C3.76426 29.1935 3.77609 29.2095 3.78031 29.215C4.02084 29.4292 4.22953 29.664 4.3958 29.8511C4.40583 29.8624 4.4157 29.8735 4.42541 29.8844C4.61254 30.0948 4.75367 30.2495 4.9043 30.3781C4.96731 30.4319 5.0344 30.4842 5.12114 30.5515L5.12936 30.5579C5.20863 30.6194 5.3076 30.6962 5.40477 30.7793C5.61161 30.9564 5.85642 31.1998 6.04221 31.5493C6.07046 31.6025 6.10355 31.6694 6.12977 31.7224C6.13734 31.7377 6.14434 31.7519 6.15048 31.7642C6.18413 31.8317 6.21295 31.8876 6.24032 31.9352C6.24525 31.9438 6.24987 31.9517 6.25417 31.9588C6.74704 32.2547 6.97449 32.6184 7.15321 32.9043C7.17269 32.9354 7.19159 32.9657 7.21019 32.9948C7.28071 33.1051 7.36713 33.233 7.46083 33.3716C7.64273 33.6407 7.85208 33.9505 8.02586 34.2517C8.0463 34.2663 8.07604 34.286 8.11814 34.3118C8.16737 34.3419 8.21305 34.3682 8.26863 34.4002C8.29384 34.4146 8.32108 34.4303 8.35161 34.4481C8.4326 34.4951 8.55001 34.5642 8.65774 34.6435C8.77973 34.7333 8.90871 34.8119 9.08236 34.9177C9.10212 34.9297 9.12246 34.9421 9.14344 34.9549C9.3327 35.0704 9.57137 35.2183 9.80216 35.4063C9.97234 35.545 10.1866 35.6718 10.4686 35.8215C10.5287 35.8534 10.5944 35.8876 10.6639 35.9238C10.8888 36.0407 11.153 36.1781 11.3904 36.3236C11.6309 36.471 11.8147 36.6738 11.9215 36.7989C11.9976 36.8879 12.0917 37.0085 12.1496 37.0827C12.1687 37.1071 12.1838 37.1265 12.1931 37.1381C12.1942 37.1389 12.1961 37.14 12.1987 37.1414C12.215 37.1504 12.2524 37.1675 12.3357 37.1907C12.4006 37.2088 12.4581 37.2219 12.5373 37.2399C12.5762 37.2487 12.6204 37.2588 12.6733 37.2712C12.8116 37.3037 12.9939 37.3495 13.1832 37.4233C13.4303 37.5196 13.7213 37.6708 13.9812 37.8883C14.1819 38.0563 14.4089 38.3022 14.5495 38.6338C14.7602 38.6625 14.9519 38.7072 15.0952 38.7407C15.1142 38.7451 15.1323 38.7493 15.1495 38.7533C15.3802 38.8065 15.5044 38.8286 15.6107 38.8286C16.0143 38.8286 16.4212 38.8695 16.7725 38.9048L16.7977 38.9073C17.1739 38.945 17.492 38.976 17.793 38.976C17.9264 38.976 18.1114 38.9843 18.2581 38.9909C18.3305 38.9942 18.3936 38.997 18.4365 38.9982C18.6263 39.0036 18.7398 38.9961 18.8126 38.9809C18.9266 38.957 19.0508 38.929 19.1819 38.8995C19.536 38.8199 19.941 38.7287 20.3361 38.6743C20.9637 38.5877 21.5691 38.5949 22.1206 38.6183C22.3106 38.6264 22.4886 38.6359 22.66 38.6451C23.0126 38.6639 23.3368 38.6813 23.6784 38.6813C24.7123 38.6813 25.6984 38.557 26.7132 38.3324C27.1446 38.2369 27.3608 38.1853 27.5591 38.0718C27.5654 38.0663 27.5861 38.0481 27.6299 38.0053C27.6351 38.0002 27.6411 37.9942 27.6478 37.9876C27.7138 37.9223 27.8511 37.7865 28.0166 37.6744C28.1874 37.5587 28.3628 37.4653 28.4912 37.397L28.5012 37.3917C28.639 37.3184 28.7294 37.2703 28.8108 37.2182C29.0548 37.062 29.3307 36.9368 29.5173 36.8521C29.5594 36.833 29.5969 36.816 29.6285 36.8011C29.8085 36.7165 29.9037 36.6592 29.9661 36.6061C29.9728 36.5934 29.9825 36.5747 29.9954 36.5486C30.0172 36.5043 30.0606 36.4148 30.1141 36.3251C30.1708 36.2302 30.2527 36.1102 30.3705 35.9928C30.5897 35.7745 30.8502 35.6345 31.0206 35.5507C31.1135 35.505 31.2043 35.4645 31.2777 35.432C31.2916 35.4259 31.3046 35.4202 31.317 35.4147C31.3762 35.3886 31.4194 35.3696 31.4592 35.3508C32.0761 35.0597 32.5418 34.7354 32.7884 34.3597C32.9987 34.0393 33.2382 33.729 33.4501 33.4545C33.4845 33.41 33.5181 33.3664 33.5507 33.3239C33.7976 33.0025 34.0029 32.7244 34.1625 32.4461C34.2469 32.2991 34.346 32.1885 34.4171 32.1163C34.4857 32.0466 34.5566 31.9848 34.5992 31.9477L34.6031 31.9443C34.6514 31.9022 34.6735 31.8828 34.6898 31.867C34.7971 31.7096 34.9231 31.5702 34.9933 31.4927C35.0038 31.481 35.0131 31.4707 35.0209 31.462C35.1082 31.3641 35.1167 31.3443 35.1144 31.349C35.1621 31.2539 35.1829 31.1978 35.2137 31.1149C35.2383 31.0487 35.2692 30.9654 35.3252 30.8316C35.4227 30.5986 35.5666 30.3109 35.83 30.0329C35.8307 30.0317 35.8314 30.0304 35.8321 30.029C35.8388 30.017 35.849 29.9985 35.8688 29.9635C35.8975 29.9129 35.9523 29.8176 36.029 29.72C36.0436 29.7014 36.0597 29.6818 36.0775 29.6614C36.0857 29.6266 36.0962 29.5876 36.1097 29.546C36.1569 29.4001 36.2511 29.193 36.4454 29.0125C36.4627 28.9704 36.4837 28.9064 36.5191 28.7877C36.522 28.7781 36.525 28.768 36.5282 28.7574C36.5624 28.6421 36.6136 28.47 36.6818 28.3057C36.7581 28.1216 36.8823 27.8783 37.0984 27.6631C37.4175 27.3453 37.6625 26.9557 37.9459 26.4477C38.0917 26.1863 38.0987 26.0853 38.0987 25.5022C38.0987 25.4807 38.0987 25.4588 38.0987 25.4366C38.0981 24.8661 38.0974 24.0868 38.4479 23.3187C38.4989 23.207 38.5355 23.0471 38.5741 22.7627C38.5797 22.7215 38.5855 22.6755 38.5918 22.6258C38.6218 22.3893 38.6625 22.0679 38.7405 21.7743C38.7724 21.6544 38.7876 21.4871 38.7856 21.24C38.7847 21.1233 38.7803 21.0045 38.7754 20.8702L38.7749 20.8556C38.77 20.7212 38.7645 20.5691 38.7645 20.4184C38.7645 20.1061 38.7851 19.8058 38.8031 19.5435L38.8038 19.5325C38.8227 19.2572 38.8385 19.0225 38.8385 18.7893C38.8385 18.7238 38.8377 18.6536 38.8369 18.5794C38.8316 18.1145 38.8247 17.4926 38.9989 16.8775C38.9965 16.8539 38.9898 16.8147 38.9744 16.7599C38.9385 16.6326 38.8758 16.4923 38.8158 16.384C38.6375 16.0622 38.5478 15.6405 38.5081 15.454C38.5046 15.4372 38.5014 15.4223 38.4986 15.4095C38.4951 15.402 38.4831 15.3759 38.4505 15.3091C38.3963 15.1982 38.2879 14.9763 38.2503 14.6773C38.2166 14.4087 38.1398 14.1189 38.0468 13.768C38.0383 13.736 38.0297 13.7034 38.0209 13.6703C37.9537 13.4159 37.9217 13.1546 37.8993 12.9709C37.8967 12.9499 37.8943 12.9298 37.8919 12.9109C37.865 12.696 37.8444 12.5766 37.8134 12.4838C37.7428 12.2727 37.6627 12.0688 37.5719 11.8377C37.538 11.7513 37.5025 11.661 37.4655 11.5652C37.3408 11.2422 37.2062 10.8737 37.1128 10.4837C37.1052 10.4679 37.0994 10.4568 37.0889 10.4368C37.0804 10.4207 37.0689 10.3989 37.0511 10.3641L37.0475 10.3571C36.9996 10.2642 36.8886 10.0485 36.8526 9.76645C36.8516 9.76507 36.8506 9.76367 36.8496 9.76223C36.8325 9.7384 36.8134 9.71345 36.7899 9.6833C36.5824 9.41758 36.3808 9.12999 36.1984 8.86982C36.1274 8.76861 36.0594 8.67155 35.995 8.58154C35.75 8.23873 35.5234 7.94577 35.2695 7.69288C35.1007 7.52471 34.9011 7.38503 34.6435 7.23349C34.526 7.16441 34.406 7.09823 34.2705 7.02351C34.2546 7.01474 34.2385 7.00587 34.2222 6.99685C34.0717 6.91375 33.9046 6.82088 33.7347 6.71792C33.5333 6.5958 33.3468 6.45792 33.2028 6.35143C33.1921 6.34353 33.1816 6.3358 33.1714 6.32826C33.0081 6.20767 32.8967 6.12801 32.7927 6.06879C32.3513 5.81756 31.9414 5.52391 31.5768 5.26266L31.551 5.2442C31.1656 4.9681 30.8247 4.72543 30.4665 4.52154C30.3619 4.46204 30.2656 4.40626 30.1732 4.35275C29.9905 4.24699 29.823 4.15006 29.6378 4.0507C29.3888 3.91717 29.0736 3.77997 28.9326 3.74875C28.3863 3.62786 27.9069 3.45957 27.4123 3.24064C27.3368 3.20722 27.2647 3.17439 27.194 3.14223C27.0308 3.06794 26.8754 2.99724 26.705 2.93131C26.5908 2.88712 26.4928 2.85461 26.4114 2.83384C26.3716 2.82367 26.3403 2.81749 26.317 2.814C26.2933 2.81046 26.283 2.81046 26.2841 2.81046C26.1529 2.81046 26.0569 2.82052 25.9256 2.83427C25.8247 2.84484 25.7031 2.85758 25.5287 2.86961C25.2144 2.8913 24.7666 2.90056 24.3105 2.7323C24.2393 2.70605 24.1773 2.68283 24.1225 2.66233C23.806 2.5438 23.7311 2.51575 23.5263 2.51575C22.9982 2.51575 22.5405 2.29663 22.296 2.17957C22.2825 2.17307 22.2695 2.16688 22.2573 2.16107C22.1105 2.09131 22.0239 2.05084 21.9452 2.02288C21.8919 2.00396 21.8676 2.00052 21.8634 2C21.6856 2.00014 21.5035 2.01459 21.2765 2.03342L21.2573 2.03501C21.0464 2.05252 20.7916 2.07368 20.5302 2.07368C20.5199 2.07368 20.5097 2.07363 20.4995 2.07353ZM35.8423 33.5194C35.8422 33.5195 35.8424 33.5193 35.8423 33.5194Z" fill="#261D1B"/>
</svg>
