<svg width="208" height="54" viewBox="0 0 208 54" fill="none" xmlns="http://www.w3.org/2000/svg">
<path d="M179.986 8.22479C196.495 7.77236 204.522 9.41394 204.772 24.1338C204.827 27.4055 206.328 33.1393 205.703 37.6323C205.754 40.6309 196.736 46.5652 190.422 46.5217C185.512 46.4878 182.709 46.6826 175.006 47.4147C165.202 48.3465 151.578 49.0496 142.046 49.3109C128.932 49.6703 115.55 50.704 102.625 48.8895C90.1051 47.1321 48.0977 48.2286 35.4398 48.5755C17.2003 48.4497 7.34307 46.2582 4.40952 38.7423C3.57214 30.7411 -2.48189 20.208 5.98223 12.771C18.1159 2.10982 48.4893 4.82048 65.9469 4.34204C77.1776 4.03425 88.4084 3.72646 99.6391 3.41867C106.24 3.23776 112.87 2.89346 119.481 2.87489C125.039 2.85928 130.688 4.57007 136.223 4.41836C146.326 4.14148 156.453 6.86743 166.512 6.59175C174.215 6.38064 181.918 6.16952 189.622 5.95841" stroke="#261D1B" stroke-width="3" stroke-linecap="round"/>
<path d="M184.177 31.604C184.177 32.248 184.233 32.948 184.121 33.592C184.009 34.264 183.701 34.88 183.645 35.552C183.561 36.308 183.505 37.092 183.421 37.848C183.253 39.584 183.085 41.292 182.889 43.028C182.861 43.336 182.721 43.644 182.553 43.896C182.301 44.288 181.881 44.484 181.461 44.372C181.181 44.316 180.901 44.036 180.733 43.784C180.565 43.532 180.481 43.196 180.481 42.888C180.537 41.852 180.481 40.788 180.789 39.752C181.097 38.744 181.041 37.652 181.153 36.588C181.321 34.684 181.237 34.488 179.641 34.964C178.493 35.3 177.541 34.908 176.701 34.46C175.469 33.76 174.601 32.64 174.181 31.268C173.873 30.176 173.985 29.14 174.965 28.384C175.189 28.244 175.553 28.076 175.777 28.132C176.309 28.328 176.225 28.748 176.225 29.224C176.253 29.84 176.449 30.344 176.561 30.932C176.701 31.8 178.409 32.92 179.249 32.808C179.529 32.78 179.865 32.584 180.033 32.36C180.593 31.576 181.125 30.792 181.573 29.952C182.245 28.776 182.805 28.272 183.337 28.552C184.121 28.944 184.177 29.7 184.177 30.456C184.177 30.764 184.177 31.1 184.177 31.604Z" fill="#261D1B"/>
<path d="M167.824 25.892C169.672 25.948 171.772 28.188 170.932 30.764C170.876 30.96 170.764 31.156 170.624 31.324C169.084 33.228 167.152 34.32 164.688 34.432C164.352 34.46 164.016 34.488 163.68 34.46C161.776 34.32 161.468 34.88 162.056 36.896C162.14 37.204 162.336 37.484 162.42 37.792C162.7 38.912 162.448 39.78 161.86 39.752C161.048 39.696 160.768 39.136 160.488 38.492C159.564 36.168 159.116 33.732 159.172 30.456C159.172 30.68 159.172 30.3999 159.172 30.1199C159.172 29.1119 159.116 28.132 159.956 27.348C160.88 26.508 161.916 25.892 163.176 25.892C164.744 25.864 166.284 25.836 167.824 25.892ZM168.58 30.2039C168.944 29.6999 168.972 29.1679 168.58 28.748C168.104 28.2719 167.6 27.824 166.872 27.824C165.78 27.824 164.66 27.796 163.568 27.88C161.888 28.02 160.88 29.448 161.244 31.184C161.3 31.436 161.608 31.744 161.86 31.8C162.504 31.9399 163.176 31.94 163.82 31.996C165.64 31.996 167.376 31.7999 168.58 30.2039ZM159.172 30.344V30.456C159.172 30.428 159.172 30.372 159.172 30.344Z" fill="#261D1B"/>
<path d="M155.019 28.3C155.691 28.804 155.943 29.532 155.915 30.372C155.887 31.548 155.355 32.416 154.683 33.284C154.151 33.984 153.367 34.012 152.611 34.264C151.603 34.628 150.707 34.376 149.811 34.068C148.803 33.732 147.851 33.172 147.291 32.164C146.843 31.408 146.507 30.428 146.451 29.476C146.395 28.664 146.563 27.852 147.067 27.18C147.571 26.536 148.131 26.116 149.027 26.284C149.699 26.424 150.371 26.48 151.043 26.536C152.583 26.676 153.843 27.432 155.019 28.3ZM153.395 31.044C153.787 30.596 153.591 29.84 153.115 29.532C152.163 28.944 151.155 28.72 150.259 28.776C148.383 28.748 148.215 29 148.831 30.596C149.167 31.492 150.651 32.5 151.575 32.416C151.771 32.388 151.995 32.36 152.135 32.248C152.555 31.856 153.003 31.492 153.395 31.044Z" fill="#261D1B"/>
<path d="M143.359 37.2879C143.667 38.2399 143.051 39.1079 142.071 39.2479C141.231 39.3319 140.755 39.2479 139.887 38.8279C139.159 38.4359 138.739 37.9039 138.179 37.3719C137.591 36.7839 137.031 36.1399 136.891 35.2719C136.695 34.2639 136.387 33.2279 136.359 32.1919C136.303 30.9039 136.835 29.7839 136.947 28.5239C136.947 28.3839 136.947 28.2159 137.003 28.0479C137.059 27.8799 137.171 27.7119 137.255 27.5439C137.395 27.2359 137.311 26.9839 137.339 26.6759C137.367 26.3679 137.591 26.0879 137.731 25.8359C137.899 25.5279 138.039 25.1919 138.179 24.8839C138.347 24.5479 138.487 24.1839 138.711 23.8479C138.907 23.5679 138.907 23.2319 139.159 22.9239C139.551 22.4199 140.055 22.1399 140.587 21.8879C141.259 21.5799 142.883 21.8599 143.135 22.6439C143.247 23.0919 143.667 23.5959 143.163 24.1279C142.827 24.4919 142.379 24.7159 142.071 24.4079C141.763 24.1279 140.923 24.4079 140.755 24.7159C140.587 25.0239 140.363 25.3319 140.223 25.6679C140.111 26.0039 140.083 26.3679 139.971 26.7039C139.859 27.0679 139.663 27.3759 139.551 27.7119C139.411 28.0479 139.299 28.3839 139.215 28.7479C138.991 29.8959 138.795 31.0719 138.627 32.0799C138.739 32.9759 138.683 34.1519 139.159 34.9359C139.551 35.5519 140.139 35.9159 140.671 36.3639C141.231 36.8679 141.735 37.0639 142.491 36.8959C142.911 36.7839 143.191 36.8399 143.359 37.2879Z" fill="#261D1B"/>
<path d="M115.721 32.7519C115.693 32.7519 115.693 32.7239 115.777 32.7239C115.749 32.7519 115.721 32.7519 115.721 32.7519ZM119.837 30.5679C119.977 30.9319 120.229 31.3519 120.173 31.7439C120.061 32.3599 119.669 33.7879 119.109 34.1519C118.241 34.6839 117.373 35.2159 116.309 35.1319C115.889 35.1039 115.497 35.1319 114.993 35.1319C112.977 35.4679 111.381 34.5439 110.009 33.0319C109.365 32.3599 109.225 31.3799 108.973 30.5399C108.861 30.0919 108.973 29.8399 109.253 29.4759C109.869 28.6639 110.597 27.9919 111.577 27.5999C112.137 27.3759 112.669 27.0959 113.229 26.8439C114.013 26.5079 114.769 26.4519 115.525 26.9279C116.477 27.5159 117.457 28.0759 118.353 28.7199C118.997 29.1679 119.501 29.7839 119.837 30.5679ZM117.317 31.9959C117.429 31.4359 117.233 30.9879 116.813 30.6799C116.113 30.1199 115.357 29.6159 114.573 29.1959C114.265 29.0279 113.761 29.0279 113.425 29.1399C112.865 29.3079 112.333 29.6439 111.801 29.9239C111.381 30.1759 111.325 30.7079 111.661 31.2119C111.857 31.5479 112.109 31.8559 112.417 32.1079C113.229 32.7799 114.237 32.8359 115.721 32.7519C115.777 32.7519 115.973 32.7519 116.169 32.7239C116.897 32.6959 117.233 32.4439 117.317 31.9959ZM107.041 24.4359C107.601 24.2119 107.965 24.8279 107.965 25.3319C107.965 25.3879 107.965 25.4439 107.965 25.4999C107.881 26.1719 107.237 26.4239 106.621 26.5079C106.005 26.5919 105.389 26.5919 104.801 26.7039C102.589 27.2079 102.617 27.2359 102.561 29.5039C102.533 30.4279 102.449 31.3519 102.505 32.2479C102.561 32.9759 102.309 33.6759 102.113 34.3479C101.917 34.9359 101.917 35.7759 101.329 36.1119C100.629 36.5319 99.5368 35.8879 99.6768 35.0479C99.7328 34.5159 100.041 34.0399 100.125 33.4799C100.181 32.7799 100.125 32.0519 100.181 31.3519C100.209 30.8479 100.181 30.3439 100.209 29.8399C100.293 27.8519 100.069 27.4599 97.9688 27.9639C97.6608 28.0479 97.4088 28.2159 97.1288 28.2719C96.7088 28.3839 96.0648 27.9079 95.9808 27.4599C95.8968 27.0119 96.1768 26.7599 96.5688 26.5359C97.2128 26.1719 97.8848 26.0319 98.6128 26.0319C100.321 26.0319 100.881 25.2479 100.797 23.5119C100.769 22.8959 100.769 22.2799 100.797 21.6639C100.825 20.8519 101.889 19.3399 102.393 20.7399C102.533 21.1039 102.561 21.5239 102.561 21.9159C102.617 22.6159 102.617 23.3439 102.645 24.0439C102.645 24.4639 103.037 24.8279 103.429 24.7999C104.633 24.7439 105.865 24.8839 107.041 24.4359Z" fill="#261D1B"/>
<path d="M81.8047 34.908C82.0007 35.328 81.7767 35.832 81.2727 36.14C80.8807 36.364 80.5167 36.308 80.2367 36C80.0127 35.804 79.7887 35.552 79.7047 35.3C79.3127 34.18 78.5847 33.228 77.7167 32.444C77.2967 32.08 76.8207 31.716 76.3447 31.38C76.0087 31.156 75.3927 30.512 74.9447 30.54C74.2167 30.596 74.3847 31.604 74.3567 32.108C74.3007 32.836 74.2447 33.564 74.2447 34.292C74.2447 35.076 74.2727 36.056 74.2167 37.036C74.2167 37.232 73.8527 37.484 73.6287 37.54C73.3767 37.596 72.9287 37.512 72.8447 37.372C72.5087 36.784 72.0887 36.112 72.0887 35.496C72.1727 33.088 71.6687 30.624 72.4527 28.216C72.7887 27.18 72.3967 25.808 72.2847 24.772C72.2007 24.156 72.0327 23.596 72.0047 22.98C71.9487 22.42 71.8927 21.86 71.6687 21.356C71.6127 21.272 71.5567 21.16 71.5567 21.076C71.5007 20.768 71.7807 20.376 71.9767 20.152C72.3127 19.76 72.9847 19.844 73.2367 20.264C73.4327 20.6 73.6287 20.964 73.7127 21.328C74.0207 22.756 74.3847 24.156 74.3847 25.64C74.3847 26.228 74.8607 26.452 75.3647 26.228C76.5127 25.752 77.2407 24.856 77.8567 23.82C78.1367 23.372 78.7247 23.4 79.1447 23.792C79.5927 24.184 79.7047 24.716 79.3687 25.08C78.8647 25.668 78.3047 26.228 77.7727 26.816C75.8687 28.776 75.6167 28.244 77.9967 30.204C79.6207 31.548 80.9367 33.004 81.8047 34.908Z" fill="#261D1B"/>
<path d="M66.4414 37.2879C66.7494 38.2399 66.1334 39.1079 65.1534 39.2479C64.3134 39.3319 63.8374 39.2479 62.9694 38.8279C62.2414 38.4359 61.8214 37.9039 61.2614 37.3719C60.6734 36.7839 60.1134 36.1399 59.9734 35.2719C59.7774 34.2639 59.4694 33.2279 59.4414 32.1919C59.3854 30.9039 59.9174 29.7839 60.0294 28.5239C60.0294 28.3839 60.0294 28.2159 60.0854 28.0479C60.1414 27.8799 60.2534 27.7119 60.3374 27.5439C60.4774 27.2359 60.3934 26.9839 60.4214 26.6759C60.4494 26.3679 60.6734 26.0879 60.8134 25.8359C60.9814 25.5279 61.1214 25.1919 61.2614 24.8839C61.4294 24.5479 61.5694 24.1839 61.7934 23.8479C61.9894 23.5679 61.9894 23.2319 62.2414 22.9239C62.6334 22.4199 63.1374 22.1399 63.6694 21.8879C64.3414 21.5799 65.9654 21.8599 66.2174 22.6439C66.3294 23.0919 66.7494 23.5959 66.2454 24.1279C65.9094 24.4919 65.4614 24.7159 65.1534 24.4079C64.8454 24.1279 64.0054 24.4079 63.8374 24.7159C63.6694 25.0239 63.4454 25.3319 63.3054 25.6679C63.1934 26.0039 63.1654 26.3679 63.0534 26.7039C62.9414 27.0679 62.7454 27.3759 62.6334 27.7119C62.4934 28.0479 62.3814 28.3839 62.2974 28.7479C62.0734 29.8959 61.8774 31.0719 61.7094 32.0799C61.8214 32.9759 61.7654 34.1519 62.2414 34.9359C62.6334 35.5519 63.2214 35.9159 63.7534 36.3639C64.3134 36.8679 64.8174 37.0639 65.5734 36.8959C65.9934 36.7839 66.2734 36.8399 66.4414 37.2879Z" fill="#261D1B"/>
<path d="M55.3471 34.9079C55.4871 35.5239 54.9551 35.8879 54.4791 36.1959C53.9191 36.5319 53.3871 36.3639 52.9951 35.9159C51.9031 34.6839 51.3991 33.1159 51.3991 31.4919C51.3991 30.8199 51.3431 29.8679 51.8191 29.3919C52.3511 28.8319 53.1071 28.9439 53.6111 29.4479C53.8911 29.7279 54.0591 30.1479 54.1711 30.5399C54.5911 31.9959 55.0111 33.4239 55.3471 34.9079ZM53.1071 24.2399C52.0711 24.4079 51.2311 23.7919 51.2031 22.9239C51.1751 22.6159 51.5391 22.0839 51.8191 22.0559C52.2951 21.9719 52.8551 22.0839 53.3311 22.2799C53.6391 22.4199 54.0311 23.0079 53.9471 23.2039C53.7791 23.6519 53.3311 24.0159 53.1071 24.2399Z" fill="#261D1B"/>
<path d="M45.7416 25.696C45.6296 26.116 45.4056 26.508 45.3776 26.928C45.3776 29.336 45.3216 31.744 45.3216 34.18C45.3216 34.488 45.6296 34.768 45.7416 35.104C45.9936 35.888 45.5176 36.7 44.7336 36.924C43.9216 37.148 42.7456 36.448 42.7176 35.552C42.6896 33.844 42.7176 32.136 42.8016 30.428C42.8576 29.336 43.1656 28.272 43.2496 27.18C43.3336 26.06 43.3056 24.912 43.3336 23.764C43.3336 22.728 43.3616 21.748 43.7536 20.74C44.0896 19.816 44.0896 18.752 43.6976 17.744C43.4456 17.016 43.9216 16.428 44.6776 16.316C45.3216 16.204 45.9096 16.568 45.9096 17.156C45.9376 18.528 45.9096 19.872 45.9096 21.888C45.9376 22.672 45.9376 23.484 45.9096 24.268C45.9096 24.744 45.8536 25.22 45.7416 25.696Z" fill="#261D1B"/>
<path d="M31.5051 36.028C30.4411 36.028 29.3491 35.888 28.4531 35.44C27.7811 35.104 27.1931 34.656 26.6331 34.152C26.1011 33.676 25.5131 33.256 25.1491 32.668C24.2531 31.212 24.0011 28.916 24.3091 27.292C24.6171 25.528 25.3171 23.792 26.4651 22.364C27.0531 21.58 27.8651 20.908 28.7051 20.348C29.9371 19.536 31.3371 19.116 32.7091 18.584C34.7251 17.8 36.9091 18.892 38.0011 20.544C38.2811 20.964 38.2251 21.608 38.2531 22.168C38.2531 22.364 38.1131 22.672 37.9731 22.728C37.6931 22.812 37.2731 22.868 37.0491 22.728C36.5171 22.336 36.0411 21.804 35.5371 21.356C34.9771 20.88 33.8291 20.712 33.2131 20.964C31.9811 21.468 31.0291 21.664 29.9371 22.448C27.6131 24.128 26.8571 27.236 27.2491 30.008C27.6691 33.116 32.1491 33.62 34.5571 32.948C35.3131 32.752 35.9851 32.5 36.7411 32.892C37.3571 33.228 37.6931 33.872 37.5251 34.544C37.4691 34.74 37.3011 35.048 37.1611 35.076C35.9011 35.244 34.6971 35.692 33.4091 35.86C32.8211 35.944 32.1771 36 31.5051 36.028Z" fill="#261D1B"/>
</svg>
