<svg width="80" height="80" viewBox="0 0 80 80" fill="none" xmlns="http://www.w3.org/2000/svg">
<g clip-path="url(#clip0_346_57)">
<path fill-rule="evenodd" clip-rule="evenodd" d="M4.98132 1.97356C4.75965 0.9489 3.75659 0.275699 2.72477 0.46605C1.6821 0.658404 1.00489 1.65974 1.2122 2.70259C1.40811 3.68817 2.02288 4.48514 2.53782 5.02903C2.96207 5.80267 3.56056 6.42472 3.97499 6.85196C4.03059 6.90927 4.08385 6.96406 4.13492 7.01658C4.61272 7.50804 4.89736 7.80082 5.08599 8.10151C5.70887 9.09449 6.5277 9.90901 7.17667 10.5546L7.1806 10.5585C7.88463 11.2588 8.41535 11.7867 8.8133 12.3738C10.0372 14.1794 11.5947 15.6241 13.1049 16.8759C15.0815 18.5143 17.1443 20.855 18.5083 23.0019C19.3167 24.2744 20.2962 25.3674 21.1555 26.3262L21.176 26.3491C22.0747 27.3521 22.8454 28.2152 23.4626 29.1749C23.7198 29.5748 23.9491 29.993 24.2111 30.4765C24.2246 30.5014 24.2382 30.5266 24.2519 30.5519C24.4941 30.9992 24.7692 31.5071 25.0849 32.0105C25.2593 32.2885 25.4212 32.5372 25.5695 32.7651C26.0033 33.4317 26.3218 33.921 26.5012 34.4479C26.7443 35.1619 27.2082 36.0865 28.0964 36.6733C29.104 37.339 30.2642 37.3234 31.2855 36.8282C31.3787 36.8045 31.5143 36.7734 31.6934 36.7347C31.9124 36.6874 32.1494 36.6386 32.4048 36.5859C32.5921 36.5473 32.7893 36.5067 32.9967 36.4631C33.4519 36.3674 33.9478 36.2591 34.327 36.1546C34.496 36.108 34.7468 36.0346 34.974 35.9312L34.9788 35.929C35.0577 35.8932 35.3555 35.7579 35.6251 35.4829C35.7669 35.3382 36.0734 34.9822 36.1576 34.414C36.2314 33.9156 36.1053 33.4746 35.9039 33.1338C35.9033 33.1304 35.9027 33.1269 35.902 33.1233C35.8563 32.8629 35.7278 32.1304 35.1235 31.4894C34.73 31.0719 34.3898 30.6346 33.9753 30.1019C33.9208 30.0319 33.865 29.9603 33.8077 29.8868C33.1682 29.0672 32.4191 28.3421 31.7775 27.7211C31.7279 27.6731 31.679 27.6257 31.6307 27.5789C30.92 26.8895 30.333 26.3025 29.8624 25.6567C29.4294 25.0626 28.911 24.5475 28.5 24.1429C28.4679 24.1112 28.4363 24.0802 28.4053 24.0497C28.0028 23.6538 27.6941 23.3501 27.4331 23.0297C26.9711 22.4626 26.4068 21.9657 25.9885 21.5973C25.9256 21.5419 25.8659 21.4893 25.8104 21.4399C25.3193 21.0026 25.0375 20.716 24.8626 20.4371C24.2092 19.3954 23.3295 18.571 22.6118 17.9223C22.4928 17.8148 22.3785 17.7122 22.2687 17.6136C21.6533 17.0611 21.1779 16.6343 20.7918 16.1605C20.2721 15.5225 19.7193 15.0142 19.2158 14.5802C19.0132 14.4055 18.8329 14.2543 18.6632 14.1119C18.3737 13.8691 18.1149 13.6521 17.8289 13.3888C17.5824 13.1619 17.3705 12.9167 17.0815 12.5823C16.9815 12.4665 16.8723 12.3401 16.7492 12.2001C16.328 11.7209 15.7579 11.1036 15.015 10.6228C14.157 10.0674 13.356 9.34325 12.4683 8.54065C12.1368 8.24099 11.7932 7.9304 11.4301 7.61357C9.94095 6.31432 8.39235 5.01144 6.87575 3.75433C6.72949 3.63309 6.58785 3.51915 6.44971 3.40802C6.114 3.13796 5.79903 2.88459 5.48908 2.5839C5.48854 2.58338 5.48801 2.58286 5.48747 2.58234C5.46941 2.56387 5.45102 2.54579 5.43231 2.52811C5.25958 2.35609 5.13585 2.21102 5.05471 2.09439C5.00906 2.02878 4.98862 1.9889 4.98132 1.97356ZM27.8902 29.2339C28.0402 29.5054 28.1852 29.7584 28.3405 30.0061C28.4192 30.1315 28.5153 30.2777 28.6224 30.4406C29.0817 31.1393 29.7439 32.1464 30.1079 33.1536C30.1746 33.1343 30.2272 33.121 30.257 33.1136C30.2628 33.1121 30.2677 33.1109 30.2717 33.1098C30.437 33.0675 30.6322 33.0235 30.8286 32.981C30.9707 32.9504 31.1314 32.9167 31.2992 32.8819C31.1754 32.7253 31.0566 32.5724 30.9425 32.4254C30.8879 32.3552 30.8344 32.2863 30.782 32.2191C30.3168 31.6229 29.7535 31.0768 29.062 30.4065C29.0306 30.376 28.9988 30.3452 28.9668 30.3141C28.6273 29.9848 28.2589 29.6258 27.8902 29.2339ZM31.1922 36.8541C31.1917 36.8541 31.1994 36.8515 31.2172 36.8464C31.2017 36.8516 31.1928 36.8542 31.1922 36.8541Z" fill="#261D1B"/>
<path fill-rule="evenodd" clip-rule="evenodd" d="M32.9617 35.5158C33.7093 35.1369 34.1401 34.2927 33.9586 33.4354C33.7419 32.4115 32.7339 31.7567 31.7072 31.9729C30.9864 32.1246 30.5126 32.5669 30.2809 32.8116C30.0298 33.0768 29.821 33.3767 29.692 33.5628C29.6671 33.5987 29.6441 33.6319 29.6227 33.6629C29.5062 33.8314 29.4373 33.931 29.3664 34.0186C29.3647 34.0207 29.3631 34.0227 29.3614 34.0247C29.1111 34.1681 28.8781 34.3192 28.6949 34.438C28.6688 34.4549 28.6437 34.4712 28.6197 34.4867C28.3753 34.6446 28.208 34.7479 28.0501 34.8266C27.1748 35.263 26.5239 35.7518 26.0166 36.4609C25.6942 36.9115 25.4343 37.4764 25.2298 37.9209C25.1784 38.0326 25.1304 38.1368 25.0859 38.2296C24.8018 38.8217 24.7408 39.396 24.7364 39.8309C24.7332 40.1598 24.7663 40.5134 24.787 40.7333C24.7912 40.778 24.7949 40.8171 24.7976 40.8495C24.8061 40.9496 24.8097 41.0244 24.811 41.0783C24.6541 41.273 24.5359 41.4667 24.4568 41.604C24.3424 41.8024 24.2383 42.0101 24.1546 42.1814C24.1122 42.2683 24.078 42.3392 24.0468 42.4039C24.0057 42.4893 23.9698 42.5638 23.9272 42.6493C23.895 42.7138 23.8687 42.7646 23.847 42.8046C23.8364 42.8241 23.828 42.8389 23.8218 42.8496C23.8159 42.8597 23.813 42.8642 23.813 42.8642L23.813 42.8641C23.5869 43.2147 23.3893 43.5329 23.2039 43.8314C22.802 44.4787 22.4571 45.0341 22.0012 45.6295C21.9973 45.6341 21.9863 45.6473 21.9656 45.6712C21.9311 45.7112 21.8839 45.7648 21.8264 45.8289C21.7117 45.957 21.5678 46.1139 21.4244 46.2655C21.3037 46.3931 21.194 46.5055 21.1075 46.5904C20.7157 46.7944 20.4465 47.0613 20.3225 47.1867C20.0878 47.4241 19.8713 47.6974 19.7203 47.8891C19.693 47.9239 19.6671 47.9568 19.6425 47.988C19.5075 48.16 19.412 48.2814 19.3195 48.3864C19.3005 48.4079 19.2848 48.425 19.2724 48.4382C18.8972 48.6467 18.3691 48.9407 17.8736 49.2914C17.3433 49.6666 16.6842 50.2179 16.2412 50.9873C15.8501 51.6665 15.7434 52.2553 15.6978 52.7255C15.6816 52.8931 15.6731 53.0062 15.6667 53.0905C15.6549 53.2468 15.6506 53.3043 15.6181 53.4274C15.5863 53.548 15.5457 53.6874 15.5005 53.8425C15.2967 54.5418 15 55.5596 15 56.6042L15 56.6868C14.9998 58.1835 14.9995 60.0956 15.5952 61.9012C15.6922 62.1953 15.8185 62.4692 15.921 62.6805C15.9742 62.7899 16.0287 62.8983 16.0771 62.9941L16.0833 63.0065C16.1311 63.1012 16.1731 63.1845 16.2133 63.2667C16.299 63.4418 16.3526 63.5636 16.3854 63.6553C16.396 63.6851 16.4021 63.7053 16.4054 63.717C16.4336 64.1267 16.5463 64.5323 16.7705 64.9069C16.9914 65.276 17.2605 65.5117 17.4212 65.6407C17.4774 65.6858 17.5353 65.7293 17.5725 65.757C17.7597 66.0271 17.9711 66.2334 18.1825 66.3946C18.2588 66.4527 18.3303 66.5013 18.3902 66.5399C18.5252 66.8097 18.7144 67.0747 18.9757 67.3039C19.3194 67.6053 19.692 67.7609 20.0079 67.8405C20.3035 67.9151 20.5689 67.9274 20.7287 67.9308C20.8238 67.9327 20.9971 67.9309 21.0687 67.9301C21.0853 67.93 21.0964 67.9298 21.0999 67.9298C21.1246 67.9298 21.1499 67.9299 21.1757 67.9299C21.7577 67.9303 22.614 67.931 23.4251 67.7046C24.3702 67.4407 25.2663 66.8749 25.8926 65.832C25.893 65.8318 25.8934 65.8316 25.8937 65.8314C25.9419 65.8022 26.0099 65.7661 26.1338 65.7052C26.1554 65.6946 26.1805 65.6823 26.2083 65.6688C26.3127 65.6179 26.4546 65.5488 26.5866 65.4794C26.8905 65.3194 27.1703 65.1102 27.4071 64.8387C27.642 64.5692 27.778 64.3026 27.8611 64.1092C27.8999 64.0189 27.9299 63.9372 27.9467 63.8916C27.9522 63.8765 27.9566 63.8646 27.9601 63.8551C27.9601 63.8549 27.9602 63.8547 27.9603 63.8546C28.4514 63.094 28.4078 62.3258 28.3879 62.0191C28.386 61.9902 28.3843 61.9652 28.3828 61.9435C28.3941 61.9272 28.4071 61.9085 28.4219 61.887C28.6148 61.607 28.9997 61.0102 28.9997 60.1513C28.9997 59.9683 29.0033 59.7554 29.0072 59.5251C29.0163 58.9872 29.027 58.3547 28.9971 57.7887C28.9744 57.3595 28.8594 56.9855 28.7582 56.7171C28.6546 56.4421 28.5294 56.1866 28.4304 55.9912C28.3814 55.8946 28.3421 55.8187 28.3073 55.7515C28.2576 55.6555 28.2172 55.5773 28.1709 55.482C28.1384 55.4152 28.1154 55.3644 28.0992 55.3253C28.0827 55.2855 28.0781 55.2695 28.0789 55.2724C27.8716 54.5653 27.3394 53.4934 26.9672 52.9393C26.7727 52.6498 26.5331 52.3881 26.3583 52.2037C26.2634 52.1036 26.1658 52.004 26.078 51.9146L26.0545 51.8906C25.9726 51.8072 25.8987 51.7319 25.8268 51.657C25.682 51.5061 25.585 51.3974 25.5221 51.3175C25.3034 50.323 25.1998 49.2809 25.1998 48.2258C25.1998 48.0676 25.1804 47.914 25.1437 47.7671C25.6676 47.0635 26.1241 46.329 26.5353 45.6673C26.6999 45.4024 26.8572 45.1492 27.0088 44.9143C27.1375 44.7148 27.2489 44.4985 27.3298 44.3362C27.3789 44.2378 27.4387 44.1138 27.4915 44.0046C27.521 43.9434 27.5483 43.8869 27.5702 43.8421C27.6459 43.6873 27.7038 43.5748 27.751 43.4929C27.7608 43.476 27.7687 43.4628 27.7747 43.4531C28.7429 42.3861 28.632 41.0906 28.5862 40.5559C28.5854 40.5469 28.5847 40.538 28.584 40.5294C28.5756 40.4311 28.5682 40.3493 28.5618 40.2792C28.5445 40.0889 28.535 39.9849 28.5362 39.8685C28.5364 39.8445 28.5373 39.8266 28.5382 39.8139C28.6111 39.661 28.6766 39.5195 28.7339 39.3956L28.7352 39.393C28.8013 39.2501 28.8538 39.1367 28.9039 39.0334C29.0042 38.8266 29.0638 38.7263 29.1098 38.6619L29.1113 38.6598C29.1559 38.5975 29.2509 38.4646 29.7494 38.216C30.1157 38.0334 30.4403 37.8256 30.6857 37.6671C30.7105 37.651 30.7346 37.6355 30.7579 37.6204C30.9883 37.4714 31.1485 37.3678 31.3153 37.2763C31.7998 37.0106 32.1331 36.6337 32.3231 36.3989C32.4935 36.1884 32.6573 35.9506 32.7686 35.789C32.7863 35.7632 32.8027 35.7394 32.8176 35.7179C32.8804 35.6273 32.927 35.5624 32.9617 35.5158ZM21.6649 51.3885C21.5354 51.495 21.3887 51.6 21.2267 51.6902C21.2066 51.7014 21.1865 51.7126 21.1666 51.7237C20.7596 51.9504 20.3968 52.1525 20.0723 52.382C19.7205 52.6309 19.5784 52.8015 19.5365 52.8743C19.5019 52.9343 19.4938 52.949 19.4801 53.0904C19.4781 53.1107 19.476 53.1414 19.4732 53.181C19.4578 53.4018 19.4232 53.8981 19.2929 54.3918C19.2118 54.6993 19.1387 54.9558 19.0752 55.1787C18.902 55.7868 18.7999 56.145 18.7999 56.6042C18.7999 58.22 18.8202 59.5512 19.2048 60.717C19.245 60.8389 19.3047 60.9575 19.4184 61.1832C19.474 61.2936 19.5426 61.4296 19.628 61.6042C19.7676 61.8892 20.0031 62.3753 20.1243 62.9397C20.2635 63.0594 20.43 63.222 20.5886 63.4386C20.735 63.5283 20.9925 63.6953 21.2457 63.9726C21.2952 64.0268 21.3422 64.0825 21.3867 64.1397C21.5859 64.1384 21.7572 64.1347 21.9182 64.1243C22.147 64.1096 22.2978 64.0841 22.4006 64.0554C22.4951 64.029 22.5312 64.0048 22.5435 63.9957L22.5435 63.9957C22.5522 63.9892 22.588 63.9627 22.641 63.8707C23.0095 63.2308 23.5068 62.8433 23.9221 62.5919C24.0754 62.4991 24.3087 62.3788 24.4987 62.2836C24.5229 62.2289 24.551 62.1693 24.5839 62.1061C24.5837 62.1032 24.5834 62.1003 24.5832 62.0973C24.5777 62.0241 24.5707 61.9207 24.5686 61.8058C24.5643 61.5765 24.577 61.2376 24.6914 60.8581C24.795 60.5149 24.9475 60.2493 25.0596 60.0747C25.1127 59.9918 25.1642 59.9184 25.2011 59.8665C25.2029 59.6549 25.2065 59.4605 25.2099 59.2765C25.2178 58.8464 25.2247 58.4721 25.2061 58.0635C25.2047 58.0596 25.2032 58.0554 25.2014 58.0508C25.1727 57.9745 25.1237 57.8676 25.0391 57.7007C25.0191 57.6613 24.9927 57.6102 24.9631 57.5527C24.8969 57.4245 24.8146 57.2649 24.7512 57.1343C24.6511 56.9283 24.5228 56.6467 24.4317 56.336C24.349 56.0538 24 55.3309 23.8102 55.0483C23.8105 55.0488 23.8107 55.0491 23.8107 55.0491C23.8106 55.0491 23.7966 55.0292 23.7594 54.9856C23.7198 54.939 23.6671 54.881 23.5974 54.8075C23.4975 54.7021 23.4318 54.6355 23.3572 54.5599C23.286 54.4878 23.2066 54.4074 23.0817 54.2772C22.8939 54.0816 22.6613 53.8308 22.4572 53.5588C22.2735 53.314 21.9875 52.8916 21.8609 52.3519C21.786 52.0324 21.7208 51.711 21.6649 51.3885ZM25.217 58.0967C25.217 58.0967 25.2167 58.0956 25.2161 58.0934C25.2168 58.0956 25.217 58.0967 25.217 58.0967ZM25.3068 59.7155C25.3068 59.7155 25.3063 59.7163 25.3053 59.7179C25.3063 59.7163 25.3068 59.7155 25.3068 59.7155ZM24.5976 62.2975C24.5978 62.3079 24.5977 62.3127 24.5975 62.3125C24.5973 62.3123 24.5972 62.307 24.5976 62.2975ZM20.7907 64.1414C20.7907 64.1414 20.7931 64.1415 20.7974 64.1418C20.7928 64.1416 20.7906 64.1415 20.7907 64.1414ZM25.4667 51.2405C25.4669 51.2406 25.4701 51.2452 25.4752 51.2543C25.4689 51.245 25.4664 51.2404 25.4667 51.2405ZM29.3187 34.0731C29.3187 34.073 29.3209 34.0706 29.3253 34.0665C29.3209 34.0712 29.3187 34.0733 29.3187 34.0731ZM33.0382 35.4193C33.0402 35.4171 33.042 35.4151 33.0437 35.4134C33.0545 35.402 33.0526 35.4057 33.0382 35.4193Z" fill="#261D1B"/>
<path fill-rule="evenodd" clip-rule="evenodd" d="M19.0001 55.2874C19 55.3009 19 55.3144 19.0001 55.3278V57.9642C19.0001 58.6834 19.035 59.388 19.0695 60.0435C19.0723 60.0981 19.0752 60.1524 19.0781 60.2062C19.1098 60.8066 19.1393 61.3638 19.1483 61.9204C19.1478 61.9074 19.1462 61.9296 19.1381 62.099C19.1316 62.2346 19.1226 62.4587 19.1333 62.6866C19.1386 62.8003 19.1506 62.9602 19.1835 63.1355C19.209 63.2718 19.2801 63.6138 19.5056 63.9663C19.774 64.3861 20.414 65.0023 21.416 64.925C22.1674 64.867 22.6335 64.4292 22.7712 64.2942C23.4573 63.6214 23.9222 62.8686 23.9911 61.8606C24.0168 61.485 23.9809 61.1267 23.9583 60.9012L23.9575 60.893C23.9543 60.8613 23.9512 60.8302 23.9481 60.7997C23.9258 60.5794 23.9063 60.3873 23.8963 60.153C23.8915 60.0418 23.897 59.8568 23.9061 59.5454C23.9097 59.4235 23.9139 59.2821 23.9183 59.1182C23.9318 58.6073 23.9424 57.9637 23.9077 57.3299C23.8749 56.731 23.7952 55.9732 23.5532 55.3016C23.4428 54.9953 23.2186 54.5055 22.8138 54.0874C22.4955 53.4048 21.8031 52.9316 21.0001 52.9316C19.8955 52.9316 19.0001 53.827 19.0001 54.9316V55.2874Z" fill="#261D1B"/>
<path fill-rule="evenodd" clip-rule="evenodd" d="M35.6552 35.0542C35.6522 35.0656 35.6298 35.138 35.5336 35.4586C35.4171 35.847 35.1666 36.6336 34.3941 37.263C33.9056 37.661 33.2959 37.9302 32.5932 37.9316C31.9635 37.9329 31.4698 37.7131 31.2259 37.5956C31.1202 37.5447 31.0112 37.4869 30.9438 37.4512C30.9321 37.445 30.9217 37.4395 30.9128 37.4348C30.8761 37.4155 30.8489 37.4014 30.828 37.3909C29.8039 37.3037 29 36.4448 29 35.3982C29 34.2937 29.8954 33.3983 30.9999 33.3983C31.3649 33.3983 31.6862 33.4615 31.9539 33.5431C32.0451 33.3191 32.1698 33.0656 32.3475 32.8051C32.9698 31.8925 34.214 31.6572 35.1266 32.2794C36.0377 32.9007 36.2737 34.142 35.6552 35.0542ZM32.9836 34.0017C32.9838 34.002 32.9789 34.0001 32.9687 33.9953C32.9784 33.9991 32.9835 34.0015 32.9836 34.0017Z" fill="#261D1B"/>
<path fill-rule="evenodd" clip-rule="evenodd" d="M38.3015 19.8372C38.3587 19.9266 38.4092 20.0163 38.4507 20.0933C38.4835 20.1542 38.5173 20.2086 38.5735 20.2949C38.5783 20.3024 38.584 20.3111 38.5906 20.3211C38.6415 20.3987 38.7402 20.5494 38.8265 20.7072C39.0914 21.1916 39.2441 21.7265 39.2666 22.3961C39.2699 22.4925 39.2728 22.5889 39.2758 22.6854C39.2868 23.0414 39.2978 23.3987 39.3226 23.7599C39.3337 23.8175 39.3454 23.8762 39.3584 23.9387C39.4616 24.4362 39.5501 24.6365 39.6279 24.7467C40.0213 25.3033 40.1087 26.023 39.9159 26.6486C40.0747 27.3263 40.2457 27.9913 40.4546 28.5802C40.6704 29.1887 40.8805 29.5796 41.0577 29.7935C41.1373 29.8896 41.1861 29.9202 41.1983 29.9269C41.1989 29.9272 41.1994 29.9275 41.1998 29.9278C41.2031 29.9298 41.2056 29.9313 41.2222 29.9313C42.2041 29.9313 43 30.8268 43 31.9315C43 33.0361 42.2041 33.9316 41.2222 33.9316C40.0253 33.9316 39.1022 33.3002 38.4567 32.5211C37.846 31.7838 37.4385 30.8699 37.1523 30.063C36.8595 29.2376 36.6441 28.378 36.4769 27.6642C36.4211 27.4258 36.3726 27.2134 36.3291 27.023C36.2298 26.5881 36.1568 26.2682 36.0825 26.0159C35.9224 25.4724 35.8443 24.8726 35.8002 24.3612C35.7822 24.2645 35.7665 24.177 35.752 24.0961C35.697 23.7899 35.6587 23.5773 35.5793 23.3151C35.5767 23.3065 35.567 23.2759 35.5519 23.2289C35.4829 23.0127 35.303 22.4487 35.1969 22.074C35.1608 21.9464 35.1229 21.806 35.0918 21.6728C35.0912 21.6704 35.0906 21.6677 35.09 21.6649C35.0707 21.5827 35.0098 21.3226 35.0012 21.0406C34.9986 20.955 34.997 20.779 35.0342 20.5644C35.0622 20.4028 35.1662 19.8783 35.5999 19.442C36.1644 18.8742 36.8488 18.8641 37.2966 19.0122C37.6541 19.1305 37.8853 19.3442 37.9645 19.4202C38.1462 19.5947 38.2636 19.7778 38.3015 19.8372ZM38.5239 20.6242C38.5242 20.6247 38.5264 20.6341 38.5294 20.651C38.5251 20.6321 38.5236 20.6237 38.5239 20.6242Z" fill="#261D1B"/>
<path fill-rule="evenodd" clip-rule="evenodd" d="M38 17.9316C38 16.8271 38.8506 15.9316 39.9 15.9316C40.627 15.9316 41.2383 16.2189 41.6474 16.4619C42.0754 16.7161 42.4632 17.0327 42.7734 17.3044C42.9889 17.4932 43.2177 17.7065 43.4077 17.8836C43.4827 17.9536 43.5517 18.0179 43.6114 18.0728C43.8705 18.3111 43.9965 18.412 44.0492 18.4462C45.3689 19.3045 47.1048 20.4955 47.7923 22.8507C48.0374 23.6907 48.336 24.5586 48.6862 25.3696C48.9255 25.0679 49.2269 24.8699 49.5035 24.7632C49.8806 24.6178 50.2034 24.6349 50.3263 24.6448C50.4802 24.6573 50.6043 24.6862 50.6766 24.7053C50.9173 24.7688 51.1353 24.8749 51.2105 24.9115L51.2144 24.9134C51.298 24.9541 51.3815 24.9976 51.4393 25.028C51.4454 25.0292 51.4528 25.0305 51.4618 25.0319C51.5298 25.0424 51.6373 25.0501 51.8009 25.0486C51.9656 25.047 52.1403 25.0372 52.3595 25.0244L52.3798 25.0232C52.5758 25.0118 52.8253 24.9972 53.0649 24.9972C56.5898 24.9972 59.8161 25.9201 62.881 27.0176C64.8549 27.7244 66.7575 29.3811 67.98 30.4456C68.0068 30.4689 68.0332 30.4919 68.0593 30.5146C68.2071 30.6432 68.367 30.78 68.5339 30.9227C68.9981 31.3198 69.5172 31.7637 69.984 32.2108C70.1311 32.3517 70.3547 32.4967 70.7881 32.7335C70.8354 32.7593 70.8868 32.7871 70.9417 32.8166C71.3084 33.0143 71.8285 33.2946 72.2908 33.645C72.9535 34.1472 73.4343 34.8244 73.723 35.2309C73.7247 35.2334 73.7265 35.2358 73.7282 35.2382C74.1014 35.3741 74.4766 35.555 74.8313 35.7993C75.0559 35.9539 75.4934 36.2802 75.7644 36.8265C75.9151 37.1301 76.1031 37.69 75.9321 38.363C75.751 39.0762 75.2768 39.493 74.9009 39.6926C74.2745 40.0251 73.6664 39.9299 73.4217 39.8786C73.0814 39.8071 72.7508 39.6671 72.452 39.478C72.1504 39.287 71.887 39.0644 71.6587 38.8371C71.5974 38.8288 71.5332 38.8208 71.4658 38.8131C71.3094 38.7953 71.1029 38.7778 70.8701 38.758C70.3101 38.7105 69.5979 38.65 69.0638 38.5411C68.1001 38.3444 67.1364 37.9266 66.3863 37.6015C66.271 37.5515 66.1608 37.5037 66.0564 37.4593C65.1572 37.0763 64.5545 36.8715 64.048 36.8528C63.5996 36.8363 63.1718 36.8425 62.6945 36.8495C62.488 36.8525 62.2722 36.8557 62.0415 36.8572C61.322 36.8618 60.5142 36.8479 59.6807 36.7217C58.4324 36.5328 57.2473 36.2116 56.1516 35.8892C55.837 35.7967 55.5343 35.7055 55.2392 35.6166C54.4719 35.3855 53.7567 35.1701 53.0219 34.9873C51.9207 34.7135 51.2326 34.0353 50.836 33.6322C50.3763 33.1651 50.3207 33.1141 50.2251 33.0718C49.6197 32.8042 49.0446 32.2913 48.7065 31.9762C48.3626 31.6557 48.0318 31.313 47.8167 31.0902C47.7849 31.0573 47.7557 31.0271 47.7294 30.9999C45.8572 29.0687 44.7628 26.0912 44.1599 24.0255C43.9274 23.2289 43.376 22.7103 42.0519 21.8491C41.699 21.6196 41.3575 21.3116 41.111 21.0849C41.011 20.9928 40.9199 20.9078 40.8331 20.8269C40.6645 20.6696 40.5124 20.5276 40.3429 20.3792C40.0959 20.1629 39.9128 20.0244 39.78 19.9455C39.7663 19.9374 39.7543 19.9306 39.744 19.925C38.7676 19.8415 38 18.9809 38 17.9316ZM39.6957 19.9016C39.6956 19.9014 39.6981 19.9023 39.7032 19.9045C39.6982 19.9028 39.6957 19.9017 39.6957 19.9016ZM64.8485 32.9189C64.7943 32.8732 64.7401 32.8277 64.6859 32.7825C64.6864 32.8014 64.6866 32.8204 64.6866 32.8395C64.6866 32.8585 64.6864 32.8775 64.6859 32.8965C64.7403 32.9033 64.7945 32.9108 64.8485 32.9189ZM72.7511 39.1467C72.7851 39.1701 72.7778 39.1696 72.7454 39.1428C72.7473 39.1441 72.7492 39.1454 72.7511 39.1467Z" fill="#261D1B"/>
<path fill-rule="evenodd" clip-rule="evenodd" d="M51 33.853C51 32.7919 51.8656 31.9316 52.9333 31.9316C53.385 31.9316 53.8663 32.0406 54.3081 32.318C54.7413 32.5899 55.0194 32.95 55.1936 33.2713C55.5039 33.8436 55.571 34.4631 55.6002 34.7696C55.615 34.9252 55.6254 35.0853 55.6336 35.2105C55.6349 35.2306 55.6362 35.2497 55.6374 35.2679C55.6442 35.3716 55.65 35.4505 55.6561 35.515C55.6576 35.5171 55.659 35.5192 55.6604 35.5213C56.0699 35.6721 56.414 35.9567 56.6389 36.3218C56.8603 36.3918 57.179 36.468 57.5982 36.5457C57.9815 36.6168 58.3583 36.6741 58.7428 36.7325C58.9184 36.7592 59.0957 36.7862 59.276 36.8148C59.544 36.8574 59.8238 36.9048 60.0758 36.9591C60.2918 37.0057 60.6353 37.0867 60.9529 37.2357C61.7953 37.6308 62.7116 37.8979 63.7703 38.2065C63.9684 38.2643 64.1715 38.3235 64.38 38.3852C67.1831 39.2156 69.8343 40.9081 71.8765 42.6109C72.3359 42.9939 72.806 43.3059 73.3681 43.6788C73.525 43.783 73.6891 43.8919 73.8622 44.0084C74.6061 44.5094 75.4649 45.1227 76.2302 45.971C76.6267 46.4105 76.8996 46.9155 77.0479 47.1899C77.0682 47.2273 77.0861 47.2604 77.1017 47.2885C77.264 47.581 77.3364 47.6705 77.4124 47.7367C77.7159 48.001 77.9317 48.3067 78.0853 48.5841C78.3824 48.8907 78.7075 49.2648 78.9702 49.6867C79.2325 50.1079 79.5332 50.736 79.5332 51.4954C79.5332 51.9292 79.5792 52.2616 79.6795 52.6619C79.7776 52.9761 79.8554 53.2397 79.8994 53.3965C79.912 53.4415 79.9264 53.494 79.9382 53.5409C79.9388 53.5436 79.9591 53.6219 79.9742 53.7127C79.978 53.7357 79.99 53.8095 79.9961 53.9046C79.9989 53.9477 80.0044 54.0521 79.9935 54.1844C79.9934 54.1852 79.9933 54.1864 79.9932 54.1883C79.9901 54.2389 79.9609 54.7078 79.6272 55.1614C79.4016 55.417 78.7493 55.8248 78.3302 55.9307C77.9468 55.9449 77.3197 55.7995 77.085 55.6826C76.7224 55.4703 76.5259 55.1907 76.4921 55.1426C76.4908 55.1408 76.4897 55.1393 76.4889 55.1381C76.3847 54.992 76.3239 54.8607 76.3133 54.8379L76.3123 54.8356C76.2783 54.763 76.2557 54.7022 76.2504 54.6881L76.25 54.6869C76.2455 54.6748 76.2414 54.6636 76.2379 54.6538C76.2344 54.644 76.2315 54.6355 76.2292 54.6289C76.2197 54.6015 76.2109 54.5743 76.2036 54.5516C76.1885 54.5047 76.1702 54.4457 76.1491 54.3765C76.0812 54.1536 76.0163 53.9327 75.9572 53.7073C75.9471 53.6753 75.9368 53.6427 75.9263 53.6095C75.6617 52.7785 75.364 51.9615 75.2126 51.6977C75.063 51.4371 74.9638 51.1814 74.9004 51.0068C74.8738 50.9335 74.8489 50.8612 74.8277 50.7992C74.7473 50.7268 74.6642 50.6535 74.579 50.5793C74.5072 50.5167 74.4276 50.4481 74.3453 50.3772C74.1668 50.2233 73.9761 50.059 73.8272 49.9235C73.6233 49.7379 73.3246 49.55 73.0187 49.4232C72.6739 49.2803 72.3836 49.0878 72.1961 48.957C72.095 48.8864 71.9978 48.815 71.9172 48.7555C71.903 48.745 71.8893 48.7349 71.8761 48.7251C71.8086 48.6753 71.7527 48.634 71.6959 48.5933C71.6241 48.5417 71.5716 48.5062 71.5337 48.482C70.7959 48.4125 70.1325 48.1913 69.6841 48.0418C69.6619 48.0344 69.6401 48.0271 69.6189 48.0201C69.0442 47.829 68.7493 47.7418 68.4797 47.725C67.6356 47.6722 66.9536 47.3207 66.6205 47.1491C66.6027 47.1399 66.5859 47.1312 66.5701 47.1231C66.3453 47.0081 66.2457 46.9658 66.2165 46.9525C65.3599 46.9024 64.4847 46.6004 63.9749 46.4244C63.8672 46.3873 63.7757 46.3557 63.7043 46.3334C63.471 46.2604 63.2304 46.1888 62.9837 46.1153C61.6103 45.7063 60.0459 45.2403 58.4869 44.1789C57.4928 43.5021 56.4309 42.6149 55.6066 41.8932C55.5261 41.8228 55.4341 41.7473 55.3112 41.6472C55.3039 41.6412 55.2965 41.6352 55.289 41.6291C55.1787 41.5393 55.044 41.4296 54.9109 41.315C54.6368 41.079 54.2601 40.7316 53.9551 40.2804C53.8537 40.1305 53.7968 40.0577 53.7209 39.9609C53.6509 39.8715 53.5648 39.7616 53.4128 39.5513C53.1803 39.2297 52.8892 38.7838 52.6967 38.206C52.6917 38.1911 52.6744 38.1429 52.6432 38.0674C52.6134 37.9955 52.5781 37.9158 52.5416 37.8396C52.5059 37.7654 52.4758 37.7084 52.4545 37.6715C52.1841 37.3445 52.0466 37.0027 51.9718 36.7629C51.8891 36.4976 51.849 36.2443 51.8258 36.0542C51.8021 35.8604 51.7888 35.6677 51.7791 35.5206C51.7775 35.4965 51.7759 35.4734 51.7745 35.4514C51.773 35.4294 51.7717 35.4083 51.7703 35.388C51.3024 35.0373 51 34.4802 51 33.853ZM71.4617 48.4395C71.4619 48.4396 71.462 48.4396 71.4622 48.4397ZM64.902 42.6795C64.8897 42.6756 64.8773 42.6717 64.8647 42.6678C64.5511 42.5697 64.259 42.4814 63.9843 42.3984C63.1127 42.1349 62.4152 41.924 61.7549 41.6205C62.0982 41.7256 62.4318 41.8222 62.747 41.9136C62.9299 41.9666 63.1066 42.0178 63.2755 42.0679C63.8162 42.228 64.3608 42.4351 64.902 42.6795ZM79.8981 53.4157C79.8983 53.4167 79.8953 53.4083 79.8886 53.3876C79.8945 53.4044 79.8979 53.4147 79.8981 53.4157ZM56.3856 36.2241C56.3857 36.224 56.388 36.2252 56.3922 36.2277C56.3876 36.2254 56.3855 36.2241 56.3856 36.2241Z" fill="#261D1B"/>
<path fill-rule="evenodd" clip-rule="evenodd" d="M63.0246 40.4908C63.1908 39.4785 64.1542 38.7914 65.1763 38.956C66.0331 39.094 66.9245 39.4978 67.5967 39.8387C68.1658 40.1272 68.7307 40.4526 69.1561 40.6976C69.2574 40.7559 69.3508 40.8097 69.4345 40.8574C69.4541 40.8685 69.4736 40.8798 69.493 40.8912C69.7509 40.938 70.0854 41.0273 70.432 41.2192C70.9776 41.5214 71.5606 41.8302 72.1047 42.0932C73.7863 42.9059 74.805 44.0994 75.6686 45.1112C75.6894 45.1355 75.71 45.1597 75.7306 45.1837C76.4372 46.0111 76.9928 46.7733 77.4983 47.8184C77.5884 48.0046 77.6746 48.2851 77.7126 48.4099C77.7725 48.6062 77.8458 48.8669 77.9018 49.1253C77.9297 49.2537 77.9586 49.4059 77.9776 49.5631C77.9929 49.6899 78.0192 49.95 77.9777 50.2422C77.9575 50.3849 77.9037 50.6701 77.7244 50.9764C77.5218 51.3224 77.1216 51.7423 76.476 51.8853C75.8934 52.0143 75.4255 51.8445 75.1966 51.735C74.9574 51.6206 74.7847 51.4805 74.6859 51.393C74.3179 51.067 74.1285 50.6946 74.027 50.4299C73.9818 50.3123 73.9474 50.1967 73.9219 50.0994C73.7659 49.938 73.6254 49.7602 73.5013 49.5599C73.3056 49.2442 73.1887 48.9292 73.1139 48.7181C73.0951 48.7022 73.0626 48.6764 73.0094 48.6377C72.9888 48.6227 72.9598 48.6028 72.9237 48.5781C72.6819 48.4121 72.1248 48.0298 71.6938 47.4782C71.4416 47.1554 71.2476 46.889 71.071 46.6465C70.826 46.3099 70.6145 46.0194 70.3274 45.6882C70.3244 45.6868 70.3211 45.6854 70.3176 45.6838C70.2652 45.6609 70.2121 45.6407 70.1043 45.5996C70.0872 45.5931 70.0688 45.586 70.0488 45.5784C69.9208 45.5296 69.7405 45.4598 69.5446 45.368C69.0355 45.1292 68.5972 44.8095 68.2985 44.5893C68.2607 44.5614 68.2247 44.5349 68.1904 44.5096C68.175 44.4982 68.16 44.4871 68.1452 44.4762C68.0664 44.4633 67.9829 44.4469 67.8981 44.4261C67.5817 44.3484 67.1662 44.1916 66.782 43.8513C66.6405 43.7259 66.5227 43.584 66.429 43.4313C66.2519 43.334 66.0713 43.2377 65.8879 43.1447C65.2584 42.8255 64.8115 42.6602 64.5742 42.6219C63.5522 42.4573 62.8584 41.5032 63.0246 40.4908Z" fill="#261D1B"/>
<path fill-rule="evenodd" clip-rule="evenodd" d="M37.5028 38.3054C37.7739 38.1571 38.2704 37.9316 38.9099 37.9316C40.0147 37.9316 40.9103 38.7151 40.9103 39.6816C40.9103 40.0816 40.757 40.4502 40.4989 40.7449C40.6202 40.9496 40.6966 41.1778 40.7169 41.4197C40.7283 41.4436 40.7435 41.4752 40.7632 41.5159C40.8357 41.6657 40.9784 41.9788 40.9978 42.3883C41.0179 42.8148 40.9005 43.1981 40.7256 43.529C40.4535 44.0437 39.976 44.5319 39.246 44.7787C38.5642 45.0092 37.9346 44.9354 37.5337 44.8405C36.8487 44.6782 36.2824 44.3119 36.1512 44.227C36.1427 44.2215 36.136 44.2171 36.1312 44.2141C35.0341 43.5223 34.9458 42.4581 35.0194 41.8529C35.0958 41.225 35.3723 40.632 35.6528 40.173C35.9423 39.6992 36.3192 39.2326 36.735 38.8584C36.9418 38.6722 37.1998 38.4712 37.5028 38.3054ZM37.0792 42.8811C37.0808 42.8845 37.0799 42.883 37.0772 42.877C37.078 42.8787 37.0787 42.88 37.0792 42.8811Z" fill="#261D1B"/>
<path fill-rule="evenodd" clip-rule="evenodd" d="M44.0348 66.7123C43.6626 66.7286 43.2408 66.7471 42.8375 66.7471C40.3994 66.7471 38.2164 66.7912 36.4469 67.5045C36.1715 67.6155 35.925 67.6996 35.7197 67.7674C35.6582 67.7877 35.6038 67.8055 35.5542 67.8217C35.4242 67.8643 35.3273 67.8959 35.2236 67.9334C34.996 68.0157 34.8306 68.0934 34.6236 68.2462C34.5118 68.3287 34.3548 68.4336 34.2132 68.527C34.0204 69.3665 33.2451 69.9942 32.318 69.9942C32.1045 69.9942 31.6398 69.9827 31.1696 69.7621C30.902 69.6366 30.5439 69.4012 30.2862 68.9823C30.0159 68.5431 29.9666 68.082 30.018 67.7094C30.1027 67.0956 30.4599 66.6866 30.5622 66.5701C30.7197 66.3909 30.8902 66.243 31.0188 66.1385C31.2805 65.9258 31.5836 65.7213 31.8022 65.5762C31.8941 65.5152 31.969 65.466 32.0305 65.4255C32.1507 65.3464 32.22 65.3007 32.2667 65.2663C32.852 64.8344 33.3788 64.5963 33.8627 64.4214C34.1324 64.3239 34.2904 64.2739 34.4242 64.2316C34.5845 64.1808 34.7102 64.1411 34.9517 64.0437C37.5482 62.9971 40.5181 62.9971 42.8083 62.9971L42.8375 62.9971C43.1443 62.9971 43.4572 62.9835 43.8239 62.9675C43.913 62.9637 44.0054 62.9596 44.1016 62.9557C44.5649 62.9364 45.1009 62.9189 45.6434 62.9443C46.7149 62.9943 48.0742 63.2194 49.2215 64.1715C49.3984 64.3184 49.6252 64.4669 49.9752 64.6924C49.986 64.6993 49.9969 64.7063 50.008 64.7135C50.3091 64.9073 50.7292 65.1777 51.0969 65.4916C51.3171 65.6796 51.4868 65.8781 51.606 66.029C51.7219 66.1757 51.8281 66.327 51.903 66.4337L51.9094 66.4428C51.9955 66.5654 52.0502 66.6429 52.1029 66.7107C52.1485 66.7694 52.1693 66.7902 52.1693 66.7902C52.1693 66.7902 52.169 66.79 52.1684 66.7894C52.8324 67.4078 53.3262 68.2234 53.6387 68.7594C53.6614 68.773 53.6843 68.787 53.7045 68.7996C53.8494 68.8897 54.18 69.1003 54.4608 69.456C54.7343 69.8024 54.9088 70.2163 54.9563 70.671C55.0208 70.7571 55.1291 70.881 55.3009 71.0534C55.4343 71.1875 55.5416 71.2891 55.6627 71.4037C55.7556 71.4917 55.8567 71.5874 55.9839 71.7113C56.204 71.9258 56.5285 72.25 56.7717 72.6132C57.4735 73.6616 58.8319 74.1816 61.0588 74.1816C62.1309 74.1816 63 75.0211 63 76.0566C63 77.0922 62.1309 77.9316 61.0588 77.9316C58.4149 77.9316 55.3115 77.3339 53.5144 74.6537C53.5135 74.6527 53.4963 74.6297 53.4522 74.5812C53.3981 74.5217 53.3255 74.4477 53.2271 74.3518C53.1761 74.3021 53.1023 74.2318 53.0179 74.1515C52.8559 73.9972 52.6552 73.8061 52.503 73.6533C52.2421 73.3913 51.9201 73.0467 51.6572 72.6519C51.4996 72.4152 51.3162 72.0916 51.2009 71.6998C51.2002 71.6993 51.1996 71.6988 51.1989 71.6983C50.9778 71.5426 50.65 71.2742 50.3995 70.8465C50.005 70.1729 49.7508 69.747 49.4738 69.4891C49.1313 69.1702 48.8652 68.7893 48.7247 68.5882C48.7146 68.5738 48.7052 68.5603 48.6964 68.5478C48.6112 68.4265 48.5621 68.3577 48.5195 68.3038C48.5113 68.2934 48.5048 68.2855 48.5 68.2798C48.3543 68.1596 48.152 68.0253 47.8214 67.8123C47.8072 67.8032 47.7927 67.7939 47.7779 67.7844C47.4772 67.5909 47.0633 67.3245 46.6914 67.0158C46.5026 66.8592 46.174 66.7234 45.4559 66.6899C45.1036 66.6735 44.7194 66.6835 44.2683 66.7022C44.1932 66.7053 44.1152 66.7087 44.0348 66.7123ZM54.9011 70.5877C54.9014 70.5878 54.9039 70.592 54.9079 70.6003C54.9028 70.5918 54.9008 70.5877 54.9011 70.5877Z" fill="#261D1B"/>
<path fill-rule="evenodd" clip-rule="evenodd" d="M39.9533 64.005C40.9382 64.2875 41.5046 65.3047 41.2184 66.277C41.0584 66.8203 40.7423 67.209 40.4896 67.458C40.2356 67.7082 39.961 67.8998 39.7522 68.0346C39.5855 68.1422 39.4031 68.2495 39.2663 68.3299C39.2348 68.3485 39.2057 68.3656 39.1797 68.3809C39.0109 68.481 38.9298 68.5337 38.8862 68.5666C38.8345 68.6056 38.7831 68.6411 38.7324 68.6735C38.7352 68.7099 38.7382 68.7483 38.7415 68.789C38.7424 68.8002 38.7433 68.8116 38.7443 68.8234C38.7514 68.911 38.7599 69.0159 38.7666 69.1243C38.7814 69.1433 38.7999 69.1655 38.8226 69.1902C38.8853 69.2583 38.9649 69.3296 39.0524 69.3937C39.141 69.4587 39.2164 69.5008 39.2632 69.5223C39.8305 69.7827 40.3997 70.141 40.8336 70.4141C40.9456 70.4847 41.0487 70.5495 41.1403 70.6055C41.6665 70.9272 42.0264 71.1029 42.3578 71.1787C42.6355 71.2422 42.9972 71.2679 43.4858 71.2649C43.5002 71.2648 43.5146 71.2647 43.529 71.2646C42.7552 71.0433 42.1895 70.3386 42.1895 69.5035C42.1895 68.491 43.021 67.6702 44.0466 67.6702C45.0441 67.6702 46.4056 67.782 47.2758 68.8488C47.6952 69.3629 47.854 69.93 47.9249 70.3711C47.9937 70.7989 47.9999 71.2508 47.9999 71.6296C47.9999 71.6406 47.9999 71.6523 47.9999 71.6646C48.0006 71.984 48.0021 72.7566 47.6372 73.4539C47.4147 73.8792 47.0612 74.2788 46.5499 74.5518C46.0604 74.8132 45.5422 74.8968 45.0714 74.8968C44.8551 74.8968 44.6241 74.9036 44.3562 74.9119L44.3198 74.9131C44.0705 74.9209 43.7908 74.9296 43.5088 74.9313C42.9261 74.9349 42.2218 74.9111 41.5198 74.7506C40.5661 74.5326 39.7767 74.0845 39.1849 73.7228C39.0006 73.6101 38.839 73.5088 38.6924 73.4168C38.3046 73.1735 38.0209 72.9956 37.6971 72.8469C37.1127 72.5787 36.5306 72.1526 36.0727 71.6548C35.6497 71.1948 35.1014 70.4201 35.0639 69.4337C35.0606 69.3484 35.0525 69.2474 35.0392 69.0825L35.039 69.0798C35.0269 68.9302 35.0113 68.7338 35.0042 68.5298C34.9914 68.1607 34.9928 67.5386 35.2346 66.9226C35.3845 66.5408 35.6289 66.1985 35.97 65.9346C36.2851 65.6908 36.5976 65.5819 36.7599 65.5315C36.7848 65.5238 36.8094 65.5165 36.8323 65.51C36.9929 65.4014 37.1485 65.3082 37.2682 65.2373C37.3169 65.2085 37.3611 65.1824 37.4019 65.1584C37.5292 65.0834 37.6238 65.0277 37.7188 64.9664C37.7452 64.9493 37.7674 64.9344 37.7859 64.9217C38.1852 64.1592 39.0869 63.7564 39.9533 64.005ZM44.2728 71.9407C44.2728 71.9407 44.2731 71.9386 44.2739 71.9347C44.2733 71.9388 44.2729 71.9408 44.2728 71.9407ZM44.2499 70.9112C44.2499 70.9112 44.2503 70.9124 44.2508 70.9149C44.2502 70.9125 44.2499 70.9113 44.2499 70.9112ZM38.7215 68.1707C38.7216 68.1707 38.7214 68.1715 38.7211 68.173Z" fill="#261D1B"/>
<path fill-rule="evenodd" clip-rule="evenodd" d="M63.8849 46.9316C64.9158 46.9316 65.7515 47.7926 65.7515 48.8547C65.7515 49.0623 65.7505 49.2649 65.749 49.4634C66.0962 49.4903 66.355 49.6077 66.4797 49.6713C66.7724 49.8205 66.9825 50.0195 67.0675 50.1018C67.4301 50.4524 67.8862 51.0692 68.2631 51.5894C68.8624 51.8241 69.3729 52.1943 69.6762 52.4143C69.7051 52.4352 69.732 52.4548 69.757 52.4727C70.142 52.7493 70.285 52.8273 70.3872 52.8586C72.076 53.3748 73.1849 54.5352 73.95 55.6927C74.5603 56.616 75.0354 57.6786 75.4072 58.51C75.4801 58.6731 75.549 58.8273 75.6142 58.9698C76.0302 59.8788 76.0149 60.93 75.9888 61.5517C75.9759 61.8608 75.9521 62.1716 75.9322 62.4305C75.9293 62.4683 75.9265 62.505 75.9238 62.5404C75.9008 62.8448 75.8881 63.049 75.8881 63.1991C75.8881 64.7166 75.7322 66.6982 75.0725 68.3832C74.8922 68.8439 74.6337 69.3828 74.2987 69.8937C73.9753 70.3868 73.5071 70.9671 72.8706 71.3806C72.6665 71.5131 72.4285 71.6532 72.1753 71.756C72.0037 71.8257 71.4428 72.0466 70.7778 71.8558C70.3775 71.7409 69.9994 71.4919 69.7258 71.1114C69.4736 70.7607 69.3856 70.404 69.3533 70.1679C69.2951 69.7422 69.3758 69.3798 69.4066 69.2465C69.4634 69.0017 69.5721 68.6917 69.623 68.5468C69.6323 68.5202 69.6397 68.4992 69.6445 68.4851C69.6531 68.4595 69.6603 68.4375 69.6663 68.4188C69.6577 68.1244 69.626 67.8097 69.5839 67.4126L69.579 67.366C69.534 66.9418 69.4773 66.4075 69.4773 65.859C69.4773 65.7816 69.4498 65.628 69.2221 65.1248C69.2033 65.0832 69.1816 65.0365 69.1579 64.9852C68.9664 64.5722 68.6362 63.86 68.5214 63.09C68.5038 62.9721 68.4074 62.7097 68.1006 62.3173C67.8093 61.9449 67.4272 61.5808 67.0476 61.2651C66.4519 60.7697 66.0941 60.1681 65.8758 59.7856C65.8128 59.6754 65.7606 59.5825 65.7158 59.503C65.5714 59.2463 65.5047 59.1278 65.4078 59.0087C64.9171 58.4052 64.5071 57.849 64.0797 57.2234C64.0075 57.1177 63.9056 56.9768 63.7885 56.8149C63.5079 56.4271 63.1402 55.9188 62.8846 55.4845C62.4503 54.7464 62.0584 53.8204 62.0194 52.6577C61.9902 51.7861 62.0002 50.8725 62.0096 50.0156C62.014 49.6127 62.0183 49.2223 62.0183 48.8547C62.0183 47.7926 62.854 46.9316 63.8849 46.9316ZM71.9428 61.5062C72.0513 61.4683 72.1575 61.4196 72.2602 61.3598C72.2598 61.3684 72.2595 61.377 72.2591 61.3856C72.2492 61.6214 72.2311 61.8586 72.2109 62.123C72.208 62.1619 72.205 62.2014 72.2019 62.2415C72.1984 62.2875 72.1949 62.3351 72.1913 62.3839C72.1363 62.0753 72.05 61.7821 71.9428 61.5062ZM67.2805 50.9709C67.2807 50.9709 67.2835 50.9742 67.2884 50.9809C67.2827 50.9742 67.2802 50.9709 67.2805 50.9709Z" fill="#261D1B"/>
<path fill-rule="evenodd" clip-rule="evenodd" d="M58.0999 45.9316C59.1492 45.9316 59.9998 46.827 59.9998 47.9316C59.9998 47.991 59.9999 48.0513 59.9999 48.1124C60.0009 49.4857 60.0023 51.2773 59.4989 52.8573C58.9075 54.7137 57.6406 56.2569 55.355 56.9617C54.9175 57.0966 54.48 57.2463 54.0113 57.4067C53.984 57.416 53.9565 57.4254 53.929 57.4348C53.4393 57.6023 52.9162 57.7803 52.3828 57.9398C51.3154 58.2589 50.1226 58.5312 48.8332 58.5312C48.5196 58.5312 48.2172 58.5295 47.9243 58.5278C46.1918 58.5178 44.7899 58.5097 43.3449 58.8757C42.3247 59.1341 41.2986 58.473 41.0532 57.3991C40.8077 56.3253 41.4357 55.2452 42.4559 54.9868C44.3879 54.4975 46.303 54.513 48.0158 54.5269C48.2939 54.5291 48.5666 54.5313 48.8332 54.5313C49.6225 54.5313 50.433 54.3647 51.3445 54.0921C51.8006 53.9557 52.2607 53.7997 52.7547 53.6307C52.7863 53.62 52.818 53.6091 52.8498 53.5982C53.3063 53.442 53.7937 53.2752 54.2868 53.1232C55.3004 52.8106 55.673 52.2862 55.8962 51.5855C56.1852 50.6785 56.1999 49.513 56.1999 47.9316C56.1999 46.827 57.0506 45.9316 58.0999 45.9316Z" fill="#261D1B"/>
</g>
<defs>
<clipPath id="clip0_346_57">
<rect width="80" height="80" fill="white"/>
</clipPath>
</defs>
</svg>
