<svg width="80" height="80" viewBox="0 0 80 80" fill="none" xmlns="http://www.w3.org/2000/svg">
<path d="M30.875 33.8826C30.2518 34.5058 30.625 36.2083 30.625 37.0215C30.625 38.4051 30.6928 39.8123 30.6181 41.1951C30.547 42.5096 30.5 43.8124 30.5 45.1326" stroke="#261D1B" stroke-width="3" stroke-linecap="round"/>
<path d="M30.75 46.0076C31.2816 46.5392 31.8701 46.9743 32.5 47.3826C32.932 47.6626 33.494 47.7917 33.875 48.1326C34.4144 48.6152 35.1181 49.0593 35.75 49.4103C36.6094 49.8878 37.4735 50.1991 38.375 50.6048C38.7205 50.7603 39.3843 51.1326 39.75 51.1326" stroke="#261D1B" stroke-width="3" stroke-linecap="round"/>
<path d="M50.625 45.7576C48.4083 47.2069 46.063 48.254 43.6806 49.3826C43.0757 49.6691 42.447 49.996 41.8056 50.1951C41.3892 50.3243 40.5881 50.4564 40.375 50.8826" stroke="#261D1B" stroke-width="3" stroke-linecap="round"/>
<path d="M50.625 34.2576C50.625 36.3156 50.4958 38.3326 50.3819 40.3826C50.3435 41.0744 50.2552 41.991 50.3819 42.6881C50.4852 43.2563 50.5037 44.0151 50.75 44.5076" stroke="#261D1B" stroke-width="3" stroke-linecap="round"/>
<path d="M50.5 34.2576C50.138 33.8956 49.6899 33.5904 49.2222 33.3826C48.6887 33.1454 48.3311 32.7114 47.8472 32.4103C46.7595 31.7336 45.7264 30.9314 44.7222 30.1326C44.0123 29.5679 43.2596 28.9777 42.4028 28.6603C41.9031 28.4753 41.4926 27.8789 41 27.6326" stroke="#261D1B" stroke-width="3" stroke-linecap="round"/>
<path d="M30.9375 33.3826C31.3437 33.3826 31.7365 32.7759 32 32.5388C32.3575 32.2171 32.9156 31.9948 33.2639 31.6465C33.4689 31.4415 33.8472 31.377 34.1111 31.2715C34.216 31.2295 34.3068 31.1306 34.4062 31.0701C34.5188 31.0016 34.7292 30.985 34.816 30.9069C35.1535 30.6031 35.9852 30.0476 36.4653 30.0076C36.7894 29.9806 37.0813 29.7797 37.4236 29.7576C37.7217 29.7383 38.038 29.6002 38.316 29.5076C38.6372 29.4005 38.9268 29.2158 39.1736 28.9937C39.4062 28.7844 39.7655 28.6865 40.0312 28.5388C40.2917 28.3941 40.6506 28.1326 40.9375 28.1326" stroke="#261D1B" stroke-width="3" stroke-linecap="round"/>
<path d="M40.5625 15.1952C40.8233 15.1662 41.0807 14.9047 41.3125 14.7854C41.5646 14.6558 41.9337 14.4616 42.1389 14.2716C42.6827 13.7681 43.4853 13.3439 44.1806 13.1049C44.7654 12.9039 45.3682 12.7489 45.9514 12.5389C46.0901 12.489 46.2097 12.3446 46.3264 12.2577C46.5622 12.0821 46.8483 11.9838 47.0938 11.8202C47.5028 11.5475 47.9497 11.2801 48.3785 11.0389C48.6624 10.8792 48.891 10.6637 49.1875 10.5077C49.857 10.1554 50.4049 9.58968 51.0903 9.29239C51.1239 9.27784 51.8464 8.84788 51.7084 8.75767C51.5086 8.62707 51.2212 8.56867 51.0035 8.466C50.4098 8.18596 49.7827 7.99273 49.1945 7.69864C48.4356 7.31919 47.6612 7.00148 46.9098 6.60489C46.295 6.28043 45.7136 5.89571 45.0903 5.58406C44.7 5.3889 44.2875 5.22243 43.9098 5.0042C43.567 4.80618 43.1556 4.65843 42.8473 4.41392C42.4957 4.13506 42.1233 3.85914 41.7535 3.60489C41.5016 3.4317 41.1944 3.33465 40.941 3.16045C40.7351 3.01888 40.6496 2.97726 40.3785 3.01114C40.1657 3.03774 39.9026 3.30278 39.6875 3.38267C39.1889 3.5679 38.6917 3.81809 38.2153 4.05628C37.3457 4.49108 36.4657 5.00917 35.6598 5.54934C35.0512 5.95719 34.368 6.33 33.7987 6.78545C33.0014 7.42329 32.1201 8.02106 31.4375 8.78892C31.2786 8.96778 31.0161 9.06102 30.8473 9.22989C30.6476 9.42956 30.8557 9.46985 31.0799 9.54239C31.9508 9.82415 32.8252 9.9883 33.6841 10.3167C34.3886 10.5861 35.0406 10.9468 35.7778 11.1466C36.4304 11.3234 36.9025 11.711 37.4375 12.1049C37.6371 12.2518 37.8626 12.386 38.0938 12.4764C38.343 12.574 38.5215 12.7936 38.7466 12.9382C39.2908 13.2881 39.8674 13.6601 40.4375 13.9452" stroke="#261D1B" stroke-width="3" stroke-linecap="round"/>
<path d="M52 21.0076C52.5091 20.6003 53.1805 20.3565 53.7083 19.959C54.1886 19.5972 54.7193 19.4023 55.2361 19.0701C55.6037 18.8337 55.9899 18.6515 56.375 18.459C56.7891 18.2519 57.1536 17.7071 57.6215 17.6291C58.0277 17.5614 58.458 17.1766 58.75 16.9138C58.8395 16.8333 58.8863 16.7276 59 16.6708C59.0919 16.6248 59.2384 16.6707 59.3125 16.6048C59.5443 16.3987 59.758 16.3162 60.0521 16.1985C60.2574 16.1164 60.3636 15.9427 60.5486 15.8687C60.7124 15.8032 60.9332 15.6283 61.0278 15.4798C61.1119 15.3476 61.2964 15.3267 61.4375 15.2437C61.5457 15.18 61.5944 15.0541 61.6875 15.0076" stroke="#261D1B" stroke-width="3" stroke-linecap="round"/>
<path d="M51.0625 21.8826C51.3801 21.8826 51.6778 22.0855 51.9514 22.2333C52.9592 22.7775 54.0177 23.3223 55.0799 23.7472C55.662 23.98 56.2657 24.1534 56.8472 24.386C57.4243 24.6169 57.9547 24.9627 58.5312 25.202C59.0456 25.4155 59.5266 25.7038 60.0625 25.8687C60.4313 25.9822 60.7264 26.3061 61.0903 26.4451C61.3594 26.5478 61.6895 26.5746 61.9375 26.6951C62.1463 26.7965 62.337 26.9512 62.5625 27.0076" stroke="#261D1B" stroke-width="3" stroke-linecap="round"/>
<path d="M62.3125 27.2576C62.3125 27.4872 62.3813 27.6971 62.4097 27.9242C62.4648 28.3649 62.4145 28.8095 62.4653 29.2506C62.5593 30.0676 62.6517 30.8997 62.684 31.7228C62.7166 32.5525 62.9375 33.3622 62.9375 34.1916C62.9375 34.9844 62.9375 35.7772 62.9375 36.5701C62.9375 38.7159 62.9375 40.8617 62.9375 43.0076C62.9375 45.0954 62.6875 47.1671 62.6875 49.2576C62.6875 50.0162 62.625 50.7964 62.625 51.5701" stroke="#261D1B" stroke-width="3" stroke-linecap="round"/>
<path d="M61.9375 14.5701C62.0267 14.8377 62.665 14.9585 62.8819 15.0423C63.2728 15.1933 63.762 15.2328 64.1215 15.4485C64.3454 15.5829 64.572 15.575 64.8125 15.6465C65.2347 15.772 65.5796 16.1359 66.0243 16.2506C67.0961 16.5272 67.9796 17.1236 68.8889 17.7298C69.3079 18.0091 69.7594 18.2849 70.1806 18.5423C70.6141 18.8072 71.0102 19.1516 71.4618 19.4069C72.1113 19.774 72.6968 20.2935 73.375 20.6326" stroke="#261D1B" stroke-width="3" stroke-linecap="round"/>
<path d="M73.1875 20.3826C73.1875 20.788 73.3125 21.1648 73.3125 21.5701C73.3125 22.01 73.2779 22.4689 73.316 22.9069C73.3998 23.871 73.4375 24.8759 73.4375 25.8478C73.4375 26.8616 73.1875 27.8328 73.1875 28.8409C73.1875 29.6699 73.25 30.5056 73.25 31.3235C73.25 33.4019 73.125 35.465 73.125 37.5388C73.125 38.5486 73.3125 39.5307 73.3125 40.5423C73.3125 41.3205 73.2679 42.0982 73.25 42.8687C73.2334 43.5808 73.25 44.2952 73.25 45.0076C73.25 45.8106 73.1471 46.5853 73.125 47.3826C73.1162 47.6998 73 48.0041 73 48.3201C73 48.6522 73 48.9844 73 49.3166C73 49.6267 73.0834 49.9505 73.1736 50.2437C73.3295 50.7505 73.0625 51.2441 73.0625 51.7298C73.0625 52.0634 72.875 52.3335 72.875 52.6638C72.875 52.9569 72.8214 53.318 72.8889 53.6048C72.9585 53.9007 73 54.1989 73 54.5076C73 54.7985 73.1219 55.1309 73.059 55.4138C72.9983 55.6871 72.9375 55.9119 72.9375 56.1985C72.9375 56.4138 73.0053 56.8034 72.9236 57.0076C72.7987 57.3199 72.8889 57.6435 72.7812 57.9451C72.6941 58.189 72.6875 58.37 72.6875 58.6326" stroke="#261D1B" stroke-width="3" stroke-linecap="round"/>
<path d="M18.8125 14.8826C19.1853 14.8826 19.3693 14.9591 19.625 15.2298C19.9137 15.5354 20.1908 15.8512 20.4861 16.1465C20.8133 16.4737 21.2756 16.6274 21.625 16.9451C21.8601 17.1588 22.1801 17.2177 22.4375 17.3965C22.6203 17.5234 22.8795 17.7151 23.0903 17.7853C23.5219 17.9292 23.8681 18.2971 24.2604 18.5423C24.6589 18.7914 25.0992 18.9669 25.5069 19.1708C26.3208 19.5777 27.0224 20.1671 27.8403 20.5388C28.1415 20.6757 28.3553 20.9411 28.6875 21.0076" stroke="#261D1B" stroke-width="3" stroke-linecap="round"/>
<path d="M18.625 14.3826C18.0791 15.3652 16.7349 15.3367 16.0938 16.1916C15.9684 16.3587 15.6916 16.4567 15.5347 16.6048C15.3358 16.7926 15.1166 16.9543 14.934 17.1673C14.6295 17.5226 14.0998 17.8462 13.6875 18.0701C12.7951 18.5545 11.929 19.1327 11.0278 19.6048C10.6181 19.8194 10.1563 20.1543 9.84722 20.5076C9.49804 20.9066 9.07157 21.2485 8.6875 21.6326" stroke="#261D1B" stroke-width="3" stroke-linecap="round"/>
<path d="M28.75 21.5701C28.7189 21.8497 27.8748 21.9896 27.6528 22.0076C27.4615 22.0231 27.2983 22.227 27.125 22.2576C26.9175 22.2942 26.3206 22.6224 26.1875 22.7888C26.0882 22.9129 25.849 22.941 25.7188 23.0423C25.5606 23.1653 25.3069 23.2739 25.184 23.4173C24.9852 23.6492 24.2782 24.2112 24 24.2576C23.8233 24.287 23.6767 24.5376 23.5 24.6048C23.2606 24.6958 23.059 24.8752 22.8264 24.959C22.3452 25.1322 21.9566 25.545 21.4688 25.6951C21.3031 25.746 21.0291 25.8856 20.875 25.9798C20.6659 26.1076 20.4688 26.202 20.2812 26.3478C20.1285 26.4667 19.922 26.5743 19.75 26.6603C19.6017 26.7345 19.4817 26.8292 19.375 26.8826" stroke="#261D1B" stroke-width="3" stroke-linecap="round"/>
<path d="M8.125 21.7576C8.35129 21.8707 8.17697 23.6597 8.24653 24.0423C8.37021 24.7225 8.48707 25.4341 8.5 26.1326C8.51756 27.0806 8.54911 28.0541 8.49653 29.0006C8.46785 29.5168 8.47742 30.0646 8.40625 30.577C8.33259 31.1074 8.38963 31.6749 8.28125 32.1951C8.11913 32.9733 8.1875 33.8396 8.1875 34.6326C8.1875 35.4524 8.1405 36.2851 8.23611 37.0978C8.30443 37.6785 8.27006 38.2876 8.30903 38.8722C8.3331 39.2332 8.39824 39.5837 8.43403 39.9416C8.47179 40.3192 8.4375 40.7193 8.4375 41.0978C8.4375 41.6048 8.48461 42.138 8.40625 42.6395C8.27778 43.4617 8.32473 44.3562 8.3125 45.1881C8.30447 45.7344 8.1875 46.3247 8.1875 46.8548C8.1875 48.3379 7.875 49.7748 7.875 51.2576C7.875 51.9439 7.875 52.6303 7.875 53.3166C7.875 53.6245 7.8856 54.0231 7.97222 54.3201C8.04947 54.5849 8.00361 54.8802 8.09375 55.1326C8.26885 55.6228 8.1875 56.2429 8.1875 56.7576C8.1875 56.9451 8.1875 57.1326 8.1875 57.3201C8.1875 57.4542 8.1875 58.2661 8.1875 57.9451" stroke="#261D1B" stroke-width="3" stroke-linecap="round"/>
<path d="M19.125 27.3826C19.125 28.1575 19.1875 28.8917 19.1875 29.6603C19.1875 30.178 19.375 30.6759 19.375 31.1951C19.375 31.7635 19.5 32.338 19.5 32.9103C19.5 33.9844 19.5 35.0585 19.5 36.1326C19.5 37.0785 19.6473 38.1781 19.4236 39.0978C19.3026 39.5952 19.3125 40.0646 19.3125 40.5735C19.3125 41.1878 19.2737 41.8202 19.375 42.4277C19.4639 42.9611 19.5625 43.4473 19.5625 43.9937C19.5625 44.5035 19.6617 45.1377 19.5486 45.6326C19.4403 46.1065 19.5 46.6386 19.5 47.1256C19.5 47.8941 19.5 48.6627 19.5 49.4312C19.5 49.9659 19.5 50.5006 19.5 51.0353C19.5 51.3345 19.3958 51.8826 19.5625 52.1326" stroke="#261D1B" stroke-width="3" stroke-linecap="round"/>
<path d="M20.125 52.7576C19.8594 53.0564 20.3656 53.2282 20.4514 53.3826C20.553 53.5654 21.0214 53.7496 21.2153 53.8201C21.3913 53.8841 21.4765 54.0396 21.6007 54.1638C21.8718 54.4349 22.2924 54.5123 22.5903 54.7576C23.007 55.1007 23.3552 55.35 23.875 55.584C24.2618 55.758 24.603 55.9024 24.9653 56.1187C25.1911 56.2535 25.4586 56.3028 25.6875 56.4173C26.0455 56.5963 26.392 56.8077 26.7813 56.9138C27.27 57.0471 27.6841 57.3357 28.1354 57.5388C28.3504 57.6356 28.695 57.6658 28.875 57.8201C29.0925 58.0065 29.3443 58.145 29.5972 58.2715C30.1071 58.5264 30.5548 58.8792 31.0625 59.1465C31.2184 59.2285 31.3249 59.3277 31.5 59.386C31.7675 59.4752 32.1746 59.6332 32.3993 59.7888C32.617 59.9395 32.7877 60.1269 33.0347 60.2437C33.4556 60.4427 33.9887 60.5544 34.3403 60.8826C34.585 61.111 34.9123 61.2545 35.1875 61.4451C35.4705 61.641 35.6468 61.8622 35.9653 62.0215C36.819 62.4483 37.7636 62.6776 38.6181 63.1048C39.0177 63.3046 39.3695 63.5353 39.7153 63.8201C40.0611 64.1048 40.2591 64.5064 40.75 64.4451" stroke="#261D1B" stroke-width="3" stroke-linecap="round"/>
<path d="M62.8125 52.3826C62.3993 52.7958 61.9775 53.1188 61.441 53.3513C61.1914 53.4594 60.5573 53.6639 60.4236 53.8826C60.3311 54.0339 60.1083 54.0492 59.9653 54.1395C59.7135 54.2985 59.503 54.528 59.2153 54.6326C58.9815 54.7176 58.7876 54.8787 58.5764 55.0076C58.3699 55.1336 58.1495 55.253 57.9514 55.3826C57.0079 55.9994 55.825 56.196 54.8889 56.7853C54.414 57.0843 53.859 57.359 53.3472 57.5978C52.7007 57.8996 52.129 58.3493 51.4931 58.6673C50.4792 59.1742 49.4506 59.5943 48.4479 60.1291C48.0357 60.349 47.6765 60.6527 47.2708 60.8826C46.7292 61.1895 46.1521 61.3912 45.6215 61.7228C44.7304 62.2798 43.6359 62.5142 42.7465 63.0701C42.3511 63.3172 41.8013 63.4333 41.375 63.6465C41.1239 63.772 40.8779 64.0483 40.625 64.1326" stroke="#261D1B" stroke-width="3" stroke-linecap="round"/>
<path d="M72.25 58.9451C72.2046 59.3536 71.6193 59.4893 71.375 59.6951C71.1606 59.8756 70.6597 59.9788 70.3819 60.0041C70.0035 60.0385 69.7389 60.1828 69.3958 60.3201C69.1088 60.4349 68.8688 60.5319 68.5903 60.6638C68.1876 60.8546 67.8399 61.0703 67.4653 61.3201C67.2685 61.4512 67.0911 61.5791 66.9062 61.7228C66.6692 61.9072 66.4558 62.1821 66.1875 62.3201C65.6478 62.5976 65.1572 62.9674 64.625 63.2715C63.9695 63.646 63.3847 64.1097 62.7431 64.4867C62.0335 64.9036 61.4202 65.3808 60.6875 65.7576C60.5814 65.8121 60.5097 65.879 60.4236 65.959C60.242 66.1276 59.9899 66.1671 59.7812 66.2923C59.4812 66.4723 59.1212 66.5863 58.8403 66.7923C58.2739 67.2076 57.5406 67.4626 57.0243 67.9485C56.6252 68.3242 56.011 68.5145 55.5625 68.8478C55.0848 69.2029 54.5974 69.6151 54.0625 69.8826C53.4589 70.1843 52.9582 70.6399 52.3472 70.9138C51.3725 71.3508 50.4995 72.0226 49.5347 72.4728C47.7976 73.2835 45.8898 73.7643 44.2153 74.702C43.7804 74.9456 43.298 75.1233 42.8472 75.3548C42.4788 75.544 42.1259 75.7431 41.7465 75.9138C41.4198 76.0608 41.0998 76.1892 40.7778 76.3548C40.5878 76.4525 40.345 76.505 40.25 76.6951" stroke="#261D1B" stroke-width="3" stroke-linecap="round"/>
<path d="M7.6875 57.8826C7.6875 58.1165 8.07577 58.3018 8.25 58.4138C8.64524 58.6679 9.07042 58.7204 9.46528 59.0076C9.99568 59.3933 10.5924 59.725 11.0625 60.1951C11.4095 60.5421 11.8169 60.7743 12.191 61.0735C12.4414 61.2739 12.7208 61.5555 13 61.6951" stroke="#261D1B" stroke-width="3" stroke-linecap="round"/>
<path d="M12.9375 61.2576C13.3624 61.64 13.9028 62.0777 14.4097 62.3409C14.9075 62.5993 15.2764 63.104 15.7778 63.3826C16.3133 63.6801 16.7856 64.0704 17.3472 64.3201C17.6696 64.4633 17.9901 64.6011 18.3125 64.7576C18.7121 64.9515 19.1161 65.2053 19.5347 65.3548C19.7907 65.4462 19.9884 65.5713 20.2222 65.6951C20.363 65.7696 20.558 65.9961 20.7014 66.0076C20.8284 66.0177 21.0366 66.2031 21.1597 66.2715C21.4008 66.4054 21.6697 66.6005 21.9097 66.7576C22.5967 67.2072 23.2624 67.6409 23.9028 68.1465C24.4675 68.5923 25.1273 68.8803 25.7014 69.3201C26.0276 69.57 26.3942 69.8161 26.7708 69.9798C27.0169 70.0868 27.1983 70.3005 27.4514 70.3965C28.2073 70.6832 28.8976 71.284 29.5903 71.6951C30.5273 72.2511 31.5619 72.7335 32.5903 73.0701C32.9464 73.1866 33.2984 73.3383 33.6597 73.4312C33.8998 73.4929 34.0519 73.6447 34.2847 73.7298C35.2429 74.0799 36.1793 74.6938 37.0625 75.209C37.7172 75.5909 38.3928 75.8144 39.0833 76.1187C39.3354 76.2297 39.5622 76.4241 39.8125 76.5076" stroke="#261D1B" stroke-width="3" stroke-linecap="round"/>
<path d="M39.875 5.75C39.2474 6.18741 38.6685 6.72334 38 7.09722C37.6943 7.26822 37.3626 7.42017 37.125 7.6875C37.0282 7.79636 36.7035 7.93908 36.75 8.125C36.8273 8.43418 40.395 7.06499 40.6875 6.96528C41.6652 6.63198 43.1927 5.86564 44.2639 5.93056C44.413 5.93959 44.0895 6.17826 43.9722 6.27083C43.5493 6.60469 43.1377 6.95209 42.7083 7.27778C41.9475 7.85494 39.6608 9.18063 40.375 10.4306C40.4579 10.5756 40.6857 11.2137 40.7917 11.2222C42.163 11.3328 43.8609 10.5467 45.1111 10.0556C45.9651 9.72007 46.8119 9.32869 47.625 8.90278C48.1353 8.63549 47.39 8.99417 47.25 9C46.6037 9.02693 45.9971 9.25 45.375 9.25" stroke="#261D1B" stroke-width="3" stroke-linecap="round"/>
<path d="M35.125 9C35.125 8.50738 36.1101 8.06993 36.5 7.875" stroke="#261D1B" stroke-width="3" stroke-linecap="round"/>
<path d="M38.5 9.75C39.0171 9.53844 39.591 9.41688 40.125 9.25" stroke="#261D1B" stroke-width="3" stroke-linecap="round"/>
<path d="M40.375 30.375C38.6712 31.5677 36.7146 32.7525 34.7222 33.4167C34.0906 33.6272 33.6614 33.8386 33.1875 34.3125C33.0084 34.4916 32.2589 35.1932 32.8195 35.0694C35.3936 34.5011 38.0061 33.774 40.5417 33.0556C41.8508 32.6846 43.26 31.9071 44.6111 31.7569C45.0137 31.7122 44.1226 32.4145 43.8056 32.6667C42.4168 33.7714 40.8811 34.6219 39.3611 35.5278C37.9108 36.3921 36.4339 37.2085 35 38.0764C34.4748 38.3943 34.2341 38.8852 33.7639 39.1875C33.4244 39.4057 33.14 39.8158 32.8472 40.0972C32.7454 40.1952 32.3457 40.3351 32.4861 40.3194C32.8608 40.2778 33.3331 39.9634 33.6806 39.8194C36.3068 38.7318 39.1645 37.961 41.6389 36.5556C42.6678 35.9711 43.8664 35.4819 44.8472 34.8472C45.2987 34.5551 45.907 34.4633 46.4306 34.3681C46.7294 34.3137 45.7188 34.8851 45.6945 34.9028C43.5502 36.4647 41.4371 38.0651 39.2222 39.5278C37.5957 40.6019 35.6207 41.5043 34.2292 42.8958C33.7645 43.3605 33.3819 43.8826 32.9375 44.3611C32.9084 44.3925 32.5096 44.6343 32.7361 44.6667C33.3778 44.7583 34.5275 43.8532 35.0278 43.5833C38.0085 41.9753 41.0838 40.5646 44.0695 38.9722C44.7469 38.6109 45.2344 37.9406 45.9236 37.5694C46.4232 37.3004 46.871 36.9678 47.3681 36.6944C47.6803 36.5227 48.3556 36.0376 47.8472 36.625C46.1913 38.5385 44.3044 40.3574 42.4584 42.0833C41.0991 43.3541 39.5847 44.5631 38.125 45.7222C37.7426 46.0259 37.4795 46.3847 37.25 46.8194C37.0141 47.2664 36.1652 48.4323 36.6111 48.1944C37.4031 47.7721 38.1379 46.9431 38.8611 46.4028C40.4233 45.2356 42.031 44.1233 43.7361 43.1736C44.9046 42.5228 46.0014 42.0196 47 41.1319C47.1546 40.9946 48.161 40.5355 48.0834 40.6597C47.6206 41.4002 46.8403 42.0245 46.2361 42.6389C45.0947 43.7997 44.032 45.0109 43.0278 46.2917C42.8038 46.5773 42.4044 46.9185 43.0139 46.8472C43.6928 46.7679 44.3042 46.5434 44.9028 46.2222C46.1438 45.5563 47.2913 44.8157 48.5 44.125" stroke="#261D1B" stroke-width="3" stroke-linecap="round"/>
<path d="M30.125 37.375C31.2464 36.8704 32.6119 36.6754 33.625 36" stroke="#261D1B" stroke-width="3" stroke-linecap="round"/>
<path d="M40 48.125C40.2325 48.0959 40.5929 47.7451 40.7778 47.625C40.9398 47.5198 42.443 46.7003 41.9931 47.0486C41.477 47.4481 40.4146 48.4968 39.6667 48.3472C38.8598 48.1858 38.0852 47.8017 37.2709 47.6389C36.397 47.4641 34.5966 47.2933 34.2778 46.25C34.0085 45.3687 35.888 44.2448 36.5 44" stroke="#261D1B" stroke-width="3" stroke-linecap="round"/>
<path d="M18.8749 17.125C17.4645 18.0744 16.1593 19.1879 14.7361 20.1111C13.5868 20.8566 12.3255 21.3931 11.0972 21.9861C10.6137 22.2195 9.85766 22.761 9.77772 23.3472C9.75507 23.5133 10.112 23.2788 10.2569 23.1944C10.9746 22.7768 11.6433 22.2802 12.3472 21.8403C13.3563 21.2095 14.4713 20.5237 15.6597 20.3194C17.1426 20.0646 18.6032 20.1402 20.0555 19.6806C20.6189 19.5023 21.4497 19.0139 22.0555 19.0139C22.1761 19.0139 22.0213 19.147 22.0138 19.1528C21.1581 19.8164 20.2554 20.4397 19.3749 21.0694C17.8479 22.1616 16.2571 23.1279 14.6527 24.0972C13.7224 24.6593 12.7244 25.4428 12.0069 26.25C11.8323 26.4464 11.2382 27.204 10.8749 26.8194C10.1887 26.0929 11.3335 25.4034 11.9305 25.375C15.4441 25.2077 18.5368 22.7126 21.9791 22.1389C22.8807 21.9886 23.8169 22.0412 24.7361 21.875C25.0149 21.8246 25.8319 21.625 25.5486 21.625C25.2361 21.625 24.9706 21.6177 24.6805 21.7569C24.35 21.9156 24.0397 22.0666 23.6805 22.1319C23.4614 22.1718 23.2813 22.3613 23.1111 22.4861C22.3908 23.0143 21.6282 23.4821 20.8958 23.9931C19.5859 24.9069 18.3451 25.9236 17.0138 26.8056C15.6385 27.7167 14.1044 28.3497 12.6249 29.0694C12.1157 29.3172 11.4542 29.3991 11.0069 29.7569C10.8814 29.8573 10.4411 30.0786 10.3749 30.1944C10.0811 30.7087 10.3659 29.5821 10.8055 29.4722C12.0685 29.1565 13.6391 29.3754 14.9444 29.2778C15.5651 29.2314 16.1798 29.1858 16.7986 29.1319C17.3781 29.0815 16.1664 29.9851 16.0069 30.1181C15.0294 30.9326 13.7405 31.7637 12.6249 32.375C11.7005 32.8816 10.7933 33.47 9.93745 34.0625C9.61014 34.2891 8.5703 34.9933 9.56245 34.7361C11.0956 34.3386 12.4115 33.6708 13.8472 33.0278C14.4063 32.7773 15.3699 32.125 15.9999 32.125C16.1666 32.125 16.3333 32.125 16.4999 32.125C17.0196 32.125 16.1364 33.0477 16.0277 33.1944C14.7632 34.9023 13.3882 36.4871 12.0555 38.1389C11.9377 38.2849 10.3151 40.2289 10.4027 40.3056C10.6994 40.5651 11.7669 40.3647 12.0833 40.2639C12.8966 40.0048 13.6446 39.4178 14.3194 38.9028C15.0141 38.3726 15.7531 37.8867 16.4236 37.3194C16.6396 37.1366 17.6613 35.7086 17.1666 35.8264C15.1674 36.3024 13.5212 38.0223 11.5624 38.625C11.2459 38.7224 10.9634 38.8656 10.6249 38.875C10.0148 38.8919 10.795 38.0496 11.0277 37.875C11.4308 37.5727 12.0735 37.4043 12.2499 36.875" stroke="#261D1B" stroke-width="3" stroke-linecap="round"/>
<path d="M9.12501 45.5C9.2841 45.0227 9.95362 44.4769 10.3056 44.125C10.7095 43.7211 11.1897 43.2658 11.6528 42.9305C12.2653 42.487 12.952 42.2351 13.5625 41.8125C14.4097 41.226 15.3624 41.0059 16.3195 40.6805C16.641 40.5712 17.3531 39.8249 17.1597 40.1041C15.2671 42.8379 12.6092 45.1926 10.1458 47.4097C9.69965 47.8112 8.69983 48.2016 8.62501 48.875C8.56833 49.3851 9.16047 48.8182 9.50001 48.6527C10.4878 48.1713 11.543 47.6398 12.5903 47.3055C13.7992 46.9197 15.0316 46.6762 16.2639 46.3819C16.5516 46.3132 17.1745 46.256 17.4028 46.0277C17.6499 45.7806 18.0579 45.7999 17.75 45.3472C17.4968 44.9748 17.125 45.0263 17.125 44.493C17.125 44.1202 17.0689 43.7525 16.8195 44.3194C16.5616 44.9054 16.375 45.4556 16.375 46.0972C16.375 46.4398 16.375 46.7824 16.375 47.125C16.375 47.4125 16.6856 47.4687 16.8056 47.743C17.1338 48.4933 16.583 49.7266 16.25 50.375C15.7841 51.2822 14.0967 51.9548 13.2014 52.368C12.2783 52.7941 11.5929 53.125 10.5625 53.125C9.65614 53.125 10.3151 51.8237 10.632 51.5069C11.1277 51.0111 11.7916 50.5057 12.4236 50.2013C12.9018 49.9711 13.414 49.9089 13.875 49.6527C14.2385 49.4508 14.1563 49.8315 14.0695 50.125C13.7406 51.2369 12.5604 52.0421 11.8889 52.9444C11.1527 53.9336 10.7288 55.2442 9.90279 56.1527C9.76747 56.3016 9.58702 56.661 9.93056 56.5694C11.8946 56.0457 13.7541 54.9043 15.5972 54.0555C16.1205 53.8145 16.6605 53.5692 17.2222 53.4305C17.403 53.3859 17.7114 53.4052 17.8472 53.25C18.011 53.0628 18.3176 52.936 18.5556 52.868C18.7726 52.806 18.2484 53.2542 18.1667 53.3472C17.4684 54.1418 16.8576 55.0405 16.0833 55.7638C15.4002 56.402 14.6832 56.9182 13.9722 57.5C13.7872 57.6514 12.2887 58.2291 12.382 58.5555C12.424 58.7028 15.6644 57.9137 15.8472 57.875C16.5649 57.7227 17.3359 57.5985 18.0208 57.3194C18.1371 57.272 18.2494 57.1316 18.375 57.125C19.2366 57.0796 19.9858 56.625 20.882 56.625C21.2942 56.625 21.7401 56.4946 21.2153 56.9027C20.47 57.4824 19.8451 58.1507 19 58.5972C17.8371 59.2115 16.4097 59.8542 15.5972 60.8472C15.4563 61.0194 15.3173 61.2024 15.6389 61.0138C16.2766 60.64 16.809 60.2798 17.5139 60.0555C19.1564 59.5329 20.7834 58.9565 22.4722 58.5972C22.704 58.5479 24.1473 58.0679 24.2222 58.2777C24.3573 58.6559 22.8931 59.8578 22.6528 60.1527C22.277 60.6139 21.6051 61.7219 20.9931 61.875C20.4941 61.9997 20.0391 62.5861 19.5972 62.875C18.9253 63.3143 19.4294 61.9324 19.75 61.6805C21.0025 60.6964 22.9475 60.5605 24.4653 60.2569C24.8893 60.1721 26.5233 59.4892 25.875 60.3472C24.7806 61.7957 23.2313 63.0882 21.5695 63.8194C21.1644 63.9976 19.9604 64.9601 21.125 64.25C22.1261 63.6395 23.0984 63.0505 24.2222 62.6805C25.4076 62.2902 26.6493 62.0574 27.8195 61.625C28.175 61.4935 28.725 61.1536 29.0972 61.125C29.6315 61.0839 29.5593 61.0314 29.0972 61.5833C28.2948 62.5418 27.3633 63.4556 26.4167 64.2708C26.1381 64.5107 25.7122 64.8025 25.5 65.0972C25.2199 65.4862 24.6688 66.0865 24.5764 66.5486C24.4803 67.0289 25.4282 66.0553 25.8056 65.743C26.6226 65.0669 27.4391 64.4616 28.3472 63.9027C29.0708 63.4575 29.8085 63.0507 30.5417 62.625C30.7369 62.5116 30.9782 62.1937 31.1945 62.1319C31.2617 62.1127 31.5229 62.0138 31.5625 62.0138C31.8443 62.0138 31.3646 62.5457 31.2153 62.7847C30.8291 63.4026 30.4217 63.9875 30.0695 64.625C29.491 65.6717 28.7539 66.6655 28.125 67.6875C27.8438 68.1445 27.9358 68.0543 28.3264 67.7361C29.2222 67.0061 29.9375 66.168 30.6736 65.2847C31.4051 64.4069 32.5734 64.043 33.25 63.1527C33.3575 63.0113 33.7037 62.6926 33.5695 63.1111C33.1881 64.2999 32.4124 65.2863 31.7708 66.3402C31.2088 67.2635 30.4824 68.1781 30.0556 69.1666C29.3384 70.8275 31.7974 68.5709 32.1528 68.1944C33.0755 67.2169 33.9817 66.6333 35.1528 66C35.9521 65.5677 36.5813 64.9525 37.3611 64.5069C38.1451 64.0589 37.6597 64.5847 37.3056 65.1527C36.2751 66.8058 35.0168 68.3327 34.125 70.0694C33.7668 70.7669 33.6281 71.4199 33.257 72.0694C32.6946 73.0534 33.8425 71.9047 34.0139 71.7222C35.1588 70.5034 35.9624 69.0089 37.1736 67.8472C37.8383 67.2097 38.6023 66.6873 39.2361 66.0138C39.2765 65.9709 40.0887 65.2162 40.0972 65.2361C40.3571 65.8424 40.0251 67.0086 39.875 67.5833C39.6488 68.4492 39.2174 69.2671 38.9445 70.125C38.6762 70.968 38.75 71.8779 38.75 72.75C38.75 72.9158 38.7587 73.0843 38.75 73.25C38.741 73.421 38.671 73.5041 38.5417 73.2916C38.1764 72.6916 37.9525 71.9374 37.7639 71.2638C37.3187 69.6739 38.2268 70.059 38.6945 71.1666C38.9093 71.6754 39.147 72.4448 39.6806 72.6388C39.8115 72.6865 40.0848 73.1281 40.1806 73.25C40.4699 73.6183 40.4611 73.8146 40.875 74.125" stroke="#261D1B" stroke-width="3" stroke-linecap="round"/>
<path d="M62.5 16.375C61.7727 16.6395 61.3326 17.6516 60.6666 18.0556C59.2686 18.9035 58.0117 19.9708 56.6805 20.9167C56.4031 21.1138 56.1194 21.4235 55.8194 21.5972C55.5163 21.7727 55.6095 21.7308 55.875 21.5556C56.3926 21.2139 56.9062 20.9289 57.4722 20.6736C58.5247 20.199 59.7552 20.0655 60.7569 19.4931C61.2449 19.2142 61.7552 18.9001 62.25 18.6528C62.5726 18.4915 62.995 18.6761 63.3472 18.5C63.8157 18.2657 62.6471 19.2835 62.25 19.625C61.3342 20.4124 60.4297 21.2387 59.6527 22.1667C59.1733 22.7393 58.7308 23.3803 58.2013 23.9097C57.1074 25.0037 60.8795 22.3483 62.125 21.4306C62.5632 21.1076 63.0717 20.812 63.5833 20.625C63.9795 20.4802 64.431 20.4659 64.75 20.1806C65.0501 19.912 65.3165 19.9393 65.4444 19.5556C65.5352 19.2833 66.075 18.7313 65.993 18.4444C65.9275 18.2153 64.5381 18.1273 64.4027 18.2778C64.079 18.6375 65.2593 18.875 65.375 18.875C66.0456 18.875 66.4662 18.9133 67.0555 19.25C67.2258 19.3473 64.3688 22.1858 64.1388 22.4444C63.5366 23.122 62.9955 23.8376 62.3819 24.5069C62.3333 24.56 61.3144 25.8064 61.4027 25.8472C61.7561 26.0103 63.3313 24.8817 63.625 24.7222C64.5424 24.2242 65.4767 23.7723 66.4166 23.3194C67.1789 22.9522 68.0067 22.7431 68.7638 22.375C68.9909 22.2646 69.2672 21.9172 69.5138 21.8819C69.8736 21.8306 70.7464 21.3647 70.0277 22.0833C68.7233 23.3878 67.4795 24.7337 66.1944 26.0556C65.7595 26.5028 65.2826 26.9636 64.9305 27.4722C64.8225 27.6283 64.3398 28.1672 64.5902 28.0486C65.9483 27.4053 67.2744 26.5536 68.5416 25.75C68.9659 25.4809 69.3548 25.1834 69.7986 24.9444C70.0231 24.8235 70.2754 24.9435 70.5 24.8472C70.9283 24.6636 72.0943 24.0549 71.25 24.9306C69.8637 26.3681 68.6127 27.9011 67.2013 29.3125C66.6107 29.9031 66.0866 30.54 65.5625 31.1806C65.5186 31.2341 64.9647 31.8296 65.0555 31.875C65.2708 31.9826 65.8092 31.7091 66 31.6528C66.63 31.4666 67.1817 31.3166 67.7222 30.9306C68.4898 30.3823 69.4845 30.0804 70.2986 29.5764C70.6815 29.3393 71.2855 29.2293 71.6111 28.9444C72.1737 28.4521 70.6466 30.0894 70.118 30.6181C68.7457 31.9903 67.3854 33.3785 66.0138 34.75C65.707 35.0569 65.3332 35.4932 65.125 35.875C64.9967 36.1101 64.6782 36.3722 64.625 36.625C64.5714 36.8796 64.3334 37.0317 64.7916 36.9444C65.8334 36.746 66.8072 36.3036 67.7986 35.9444C68.6721 35.6279 69.6122 35.3144 70.4305 34.8681C70.5835 34.7846 71.06 34.4077 71.1527 34.25C71.2593 34.0689 72.1881 33.7841 71.625 33.75C70.9996 33.7121 70.7817 33.1892 70.5138 34.1458C70.3325 34.7935 70.4838 35.4326 70.368 36.0694C70.3053 36.4142 69.8552 36.6785 69.6111 36.8819C68.9169 37.4604 68.1359 37.9116 67.4583 38.5139C66.5839 39.2911 65.7116 40.0767 64.9027 40.9167C64.6144 41.2161 64.5677 41.6456 64.2569 41.9306C63.8836 42.2728 64.783 41.9431 64.8333 41.9236C65.3891 41.7081 65.9041 41.417 66.4513 41.1875C67.6055 40.7035 68.6179 40.1377 69.625 39.4028C70.0507 39.0921 70.5492 38.9296 70.9722 38.625C71.5835 38.1849 70.6649 39.1056 70.4861 39.3819C69.3481 41.1406 67.5283 42.5646 66.0972 44.0833C65.6632 44.5439 65.305 44.8256 65.0972 45.4028C65.0216 45.6128 64.13 46.6161 64.3333 46.8194C64.5539 47.04 66.2426 45.9322 66.4583 45.8056C67.1905 45.3755 67.7708 44.7434 68.5 44.3125C68.7008 44.1938 70.7453 42.8902 70.7916 42.9167C71.2812 43.1964 67.7511 46.863 67.5138 47.0833C66.485 48.0387 64.8816 48.9401 64.3055 50.2569C64.1504 50.6116 63.4749 51.2546 64.3611 50.9653C65.569 50.5708 66.6791 49.569 67.75 48.875C68.3891 48.4607 69.1575 48.1407 69.7083 47.6111C70.3313 47.0121 70.5271 46.1774 70.75 45.375C71.0465 44.3073 71.5461 42.4279 71.125 41.375" stroke="#261D1B" stroke-width="3" stroke-linecap="round"/>
<path d="M44.25 65.625C43.9795 65.8685 43.5876 66.0492 43.25 66.1805C42.2707 66.5614 44.1871 65.305 44.3194 65.2083C44.9193 64.7702 45.5266 64.3431 46.125 63.9028C46.3056 63.7698 47.0343 63.4391 47.1042 63.1944C47.1095 63.1756 46.1378 64.0809 46 64.2778C44.8518 65.9181 43.2935 67.2214 42.0694 68.8055C41.4981 69.5449 41.125 69.898 41.125 70.8472C41.125 71.9563 41.5696 71.9489 42.375 71.2778C44.9666 69.1181 46.5486 66.4861 48.3194 63.6528C49.3941 61.9334 45.8658 66.9165 45 68.75C44.8032 69.1668 44.6133 69.9923 44.8125 70.4305C45.0178 70.8822 46.2464 71.7878 46.7361 71.368C47.2322 70.9429 47.7333 70.0911 48.0694 69.5555C49.547 67.2011 50.7583 64.6973 51.5833 62.0417C51.6757 61.7444 51.7316 61.4349 51.8472 61.1458C51.8792 61.0658 51.875 61.3166 51.875 61.4028C51.875 61.8657 51.875 62.3287 51.875 62.7917C51.875 64.2089 51.801 65.6465 51.8819 67.0625C51.9214 67.7522 52.0025 68.875 52.9306 68.875C53.5569 68.875 53.5585 67.7992 53.625 67.3472C53.8237 65.9961 54.0118 64.6294 54.3264 63.2986C54.6827 61.7913 55.6085 60.4345 55.8819 58.9305C55.9348 58.6397 55.9886 58.3947 56 58.0972C56.026 57.42 56.3584 59.0159 56.375 59.1944C56.5193 60.7461 56.5 62.2895 56.5 63.8472C56.5 64.3666 56.6982 64.6287 57.0694 65C57.4536 65.3842 57.3934 65.1359 57.5694 64.618C58.0022 63.3451 58.2921 62.0367 58.5 60.7083C58.6687 59.6305 59.0131 58.7816 59.4306 57.7708C59.6962 57.1277 59.7868 56.5519 59.9722 55.9028C60.1382 55.3218 60.3881 56.2199 60.4861 56.5C60.8567 57.5587 60.6347 58.9915 60.5 60.0694C60.3815 61.0172 60.375 61.9514 60.375 62.9028C60.375 63.2922 60.4388 63.5563 60.625 62.9444C61.0932 61.4062 61.0992 59.731 61.375 58.1528C61.6064 56.8285 61.9155 55.5378 62.3681 54.2708C62.4148 54.1401 62.5897 53.3843 62.7986 53.3611C62.9243 53.3471 62.969 54.4757 62.9722 54.5278C63.076 56.2144 63.0213 57.8887 62.6319 59.5347C62.5778 59.7637 62.1129 62.0114 62.2708 61.9028C63.0247 61.3845 63.4058 60.0395 63.6806 59.25C64.4695 56.983 64.9671 54.6339 66.0556 52.4792C66.6715 51.2598 67.4736 50.1321 68.3056 49.0625C68.3505 49.0047 68.375 48.781 68.375 48.8542C68.375 49.4762 68.2246 50.1042 68.0972 50.7083C67.6989 52.598 67.143 54.4304 66.7014 56.2986C66.503 57.1381 66.2144 57.9302 66 58.7639C65.6477 60.1339 67.2999 57.3204 67.4167 57.0625C68.2181 55.2918 68.6527 53.3621 69.125 51.4861C69.2675 50.92 69.4166 50.4373 69.6944 49.9305C69.7698 49.7931 70.125 49.2383 70.125 49.2917C70.125 50.2278 70.1458 51.1637 70.0625 52.0972C69.8858 54.0761 69.125 55.8725 69.125 57.875" stroke="#261D1B" stroke-width="3" stroke-linecap="round"/>
<path d="M48.25 61.1251C49.0811 59.752 50.9323 58.955 52.4583 58.5626C53.0501 58.4104 53.87 58.2367 54.4792 58.389C54.9045 58.4953 53.4114 59.6425 53.25 59.7223C51.7412 60.4684 49.8905 59.5208 48.9444 61.1876C48.8607 61.3352 48.4497 61.8946 48.8194 61.9515C50.0697 62.1438 51.57 61.6914 52.8056 61.5209C53.9917 61.3573 55.235 61.2551 56.375 60.8751" stroke="#261D1B" stroke-width="3" stroke-linecap="round"/>
<path d="M47.375 69.125C47.1864 69.3764 47.1243 69.7006 46.9653 69.9722C46.6167 70.5677 46.1583 71.059 45.7361 71.5972C45.4467 71.9662 45.1682 72.256 44.75 72.5C44.2344 72.8008 43.7946 73.8516 43.2639 73.9722C42.4939 74.1472 41.5778 73.8442 40.7778 73.875C40.4027 73.8894 40.1497 74.0285 39.7222 73.9722C39.3858 73.928 38.9894 73.8294 38.7083 73.625C38.557 73.5149 38.5992 73.26 38.4444 73.125C37.7223 72.495 36.6641 72.2129 35.8611 71.6875C35.2266 71.2723 34.7044 70.6949 34.0556 70.3056C33.8617 70.1893 33.7188 70.0729 33.5 70" stroke="#261D1B" stroke-width="3" stroke-linecap="round"/>
<path d="M31.875 70.125C31.875 70.5423 32.8883 70.3632 33.125 70.375" stroke="#261D1B" stroke-width="3" stroke-linecap="round"/>
<path d="M50.375 69C50.2695 69.0558 49.7669 69.3788 49.875 69.3333C50.7835 68.9508 51.5335 68.1429 52.375 67.625" stroke="#261D1B" stroke-width="3" stroke-linecap="round"/>
</svg>
