<svg width="80" height="80" viewBox="0 0 80 80" fill="none" xmlns="http://www.w3.org/2000/svg">
<path d="M21.6271 3.34297C19.6613 3.34297 17.6955 3.34297 15.7297 3.34297C14.9619 3.34297 14.2691 3.21419 13.6109 3.64001C13.1164 3.95987 12.8286 4.95076 12.6006 5.47504C12.3019 6.16206 11.9275 6.79887 11.656 7.5015C11.2226 8.6229 11.1181 9.9751 11.1181 11.1914C11.1181 15.0273 11 18.8842 11 22.7296C11 30.1337 11.1181 37.5273 11.1181 44.9283C11.1181 47.599 10.9874 50.3141 11.1443 52.9813C11.223 54.3192 11.3539 56.018 11.7347 57.3115C12.0333 58.3255 11.8266 59.6136 11.8266 60.6647C11.8266 63.2401 11.3542 65.7908 11.3542 68.3745C11.3542 69.0742 11.3542 69.7738 11.3542 70.4735C11.3542 71.1506 11.2139 72.0067 11.3608 72.6716C11.4984 73.2947 11.5885 73.9389 11.8331 74.5132C12.0199 74.9518 12.6185 75.3233 12.9417 75.6486C13.2836 75.9926 13.594 76.5791 14.07 76.7707C15.1064 77.1879 16.2783 77.6485 17.4287 77.7147C18.3697 77.7688 19.3267 77.7213 20.2692 77.7213C21.5619 77.7213 22.7639 77.4836 24.0477 77.4836C26.1119 77.4836 28.1761 77.4836 30.2403 77.4836C31.9827 77.4836 33.8152 77.4065 35.5407 77.6619C36.1541 77.7526 36.7781 77.7213 37.3972 77.7213C38.1993 77.7213 38.9769 77.9038 39.7719 77.9523C41.4667 78.0557 43.1962 77.9589 44.8952 77.9589C46.4933 77.9589 48.1871 78.0743 49.7626 77.7807C50.6885 77.6081 51.7526 77.4307 52.6949 77.3714C53.7751 77.3035 54.7748 77.0649 55.7715 76.6519C56.7499 76.2465 58.0889 76.4449 58.9334 75.7014C59.7219 75.0072 60.728 74.5098 61.4721 73.8004C62.4561 72.8624 63.2841 71.9179 64.1092 70.83C64.7093 70.0387 65.2868 69.4282 65.6442 68.4801C65.9718 67.611 66.3344 66.7358 66.5889 65.8397C67.134 63.9199 67.7999 62.0718 68.2945 60.1366C68.8681 57.8917 68.9767 55.6803 68.9767 53.3642C68.9767 52.5971 69.1464 51.1454 68.57 50.5654C68.2166 50.2098 67.6796 49.0914 67.4941 48.6115C67.2763 48.0478 66.6323 46.9259 66.1428 46.5389C65.8035 46.2706 65.6736 45.8307 65.3818 45.5224C64.8557 44.9665 64.3833 44.346 63.8403 43.7995C62.714 42.6663 61.9053 41.5843 62.6004 40.0106C62.8008 39.5569 63.3025 39.0695 63.5975 38.6377C64.1348 37.8514 65.1657 37.2379 65.841 36.5584C67.5612 34.8275 67.1003 32.4674 67.4154 30.248C67.5939 28.9905 67.5597 27.641 67.5597 26.3667C67.5597 24.4928 67.5803 22.664 67.3498 20.8088C67.1929 19.5456 66.6019 18.3366 66.2543 17.1123C65.978 16.1393 65.5435 15.2649 65.1982 14.3268C64.9503 13.6533 64.4029 12.2312 63.7812 11.8449C63.0128 11.3673 62.4907 10.4794 61.6624 10.0626C61.0451 9.75208 60.5351 9.26646 59.9502 8.90088C58.5753 8.04143 57.0815 7.39455 55.8043 6.39256C54.9604 5.7305 53.8754 5.09862 52.9311 4.59713C52.0972 4.15426 51.2738 3.2717 50.3334 3.07894C48.6163 2.72698 46.9064 2.59416 45.1641 2.41885C41.7065 2.07093 38.1172 1.84478 34.6289 2.12842C33.8428 2.19233 32.9406 1.99581 32.1951 2.27364C31.3263 2.59743 30.4767 2.56371 29.5777 2.65648C28.1566 2.80315 26.7096 3.10534 25.3007 3.10534C23.6432 3.10534 21.9857 3.10534 20.3282 3.10534" stroke="#261D1B" stroke-width="3" stroke-linecap="round"/>
<path d="M42.1963 31.7246C41.8272 32.1372 41.4878 32.7716 41.2295 33.2623C41.0088 33.6818 40.315 34.2667 40.315 34.7408C40.315 35.0853 40.1167 35.7416 40.0211 36.088C39.821 36.8126 39.9517 37.7184 39.9623 38.4668C39.9849 40.0566 40.385 41.6139 40.7788 43.1324C41.2352 44.8925 41.92 46.7447 42.9018 48.2843C43.3607 49.0039 43.7112 49.8237 44.1037 50.5842C44.5226 51.3957 45.0538 52.2154 45.3645 53.0748C45.9093 54.5822 46.6619 56.1526 46.8734 57.7601C47.1062 59.5296 46.9956 61.5392 46.7232 63.2931C46.6329 63.8742 46.5162 64.4302 46.3378 64.9885C46.0944 65.7502 45.4365 66.2294 44.8484 66.7365C43.8908 67.5622 42.7819 67.8816 41.5692 68.2216C39.8001 68.7176 37.904 68.9839 36.0691 68.9839C34.7483 68.9839 33.5458 69.1535 32.411 68.3925C31.9998 68.1167 31.6861 67.4984 31.405 67.0913C31.0255 66.5416 30.7015 65.9656 30.386 65.3762C29.0381 62.8579 28.4655 59.7382 29.6217 57.0241C29.9618 56.2259 30.2449 55.3852 30.6212 54.6059C30.8221 54.1897 30.8722 53.7601 31.0523 53.3442C31.3753 52.598 31.774 51.9358 32.0583 51.1625C32.3864 50.27 32.8027 49.4166 33.1426 48.5274C33.4502 47.7229 33.5924 46.9065 33.8481 46.0895C34.2887 44.6815 33.8647 42.9296 33.9722 41.4698C34.113 39.5577 34.4827 37.5228 34.1747 35.6017C34.0944 35.1009 33.8068 34.6819 33.724 34.1823C33.6382 33.6642 33.4696 33.2016 33.2341 32.7366C32.875 32.0275 32.3187 31.3254 32.0909 30.5615C31.6942 29.2312 30.5827 28.0868 30.2292 26.7041C29.8922 25.3855 29.5944 24.043 29.3213 22.6694C29.2111 22.1151 29.2625 21.5245 29.2625 20.9608C29.2625 20.4315 29.4807 20.0083 29.4976 19.5151C29.531 18.5418 30.1468 16.9764 30.791 16.2821C31.5952 15.4153 32.156 14.2682 33.4562 14.0938C35.0579 13.879 36.6085 14.1004 38.1986 14.1004C38.5992 14.1004 38.9999 14.1004 39.4005 14.1004C39.8352 14.1004 40.4289 14.4879 40.8376 14.6852C41.3006 14.9088 41.7996 15.1321 42.2486 15.2964C42.5871 15.4202 42.8218 16.0094 43.137 16.2032C43.4107 16.3715 43.58 17.1036 43.7249 17.4123C43.9156 17.8187 43.9994 18.4385 44.0776 18.8909C44.4564 21.0821 44.5278 23.3384 44.3062 25.5673C44.2015 26.621 43.7898 28.1872 43.1631 29.0698C42.755 29.6445 42.4315 30.6333 42.4315 31.3698" stroke="#261D1B" stroke-width="3" stroke-linecap="round"/>
<path d="M16.6767 4.86341C15.1659 6.39132 14.0479 8.15227 13.0915 10.0866C12.8792 10.5161 12.7827 11.1548 12.5213 11.5184C12.3201 11.7982 12.7863 11.4871 12.8687 11.4389C14.4491 10.5119 15.8075 9.61583 17.1356 8.33673C17.8523 7.64642 18.5018 7.03367 19.0953 6.24876C19.334 5.93313 19.4577 5.53603 19.7573 5.27437C20.0654 5.00526 20.4627 4.48596 20.8322 4.31987C21.3023 4.10858 20.5842 6.23543 20.5438 6.32167C19.714 8.09629 18.2883 9.68606 16.9389 11.0875C16.3548 11.6942 15.6617 12.1584 15.143 12.8308C14.7022 13.4024 14.3505 14.0621 13.9895 14.6868C13.6508 15.2728 13.2355 15.7721 12.9276 16.3837C12.8546 16.5287 12.6332 16.7894 12.6261 16.9537C12.6083 17.3698 13.4226 16.7252 13.7928 16.5428C17.7705 14.583 21.1702 11.2389 23.6637 7.6076C24.0358 7.06572 24.5749 6.43063 25.0598 5.99688C25.3868 5.70435 25.7063 5.38437 25.9905 5.049C26.0628 4.96369 26.1234 5.02607 26.1675 5.11529C26.3145 5.41256 25.9326 5.78099 25.7808 5.97699C24.5531 7.56201 23.6024 9.33408 22.4053 10.9483C20.933 12.9335 19.238 14.7431 17.8041 16.7549C16.3666 18.7718 15.1588 20.9354 13.937 23.0917C13.6042 23.6791 13.17 24.2064 12.8424 24.7952C12.5213 25.3725 13.4132 24.5553 13.5241 24.4638C16.8236 21.7417 19.3514 18.3364 22.3791 15.3364C23.5584 14.1678 24.8443 13.0684 25.9709 11.8498C26.6004 11.1688 27.1023 10.3823 27.7012 9.67568C28.6534 8.55222 29.8299 7.77047 30.8276 6.71938C31.3347 6.18518 31.8404 5.6558 32.3417 5.12855C32.6136 4.84256 32.8688 4.60617 33.2462 4.47896C33.348 4.44464 34.006 3.96801 34 4.0017C33.838 4.90254 33.2236 5.8989 32.8398 6.71938C32.3441 7.77943 31.8939 8.91337 31.4765 10.0071C31.2812 10.519 30.9491 10.9535 30.6638 11.419C30.3311 11.9616 30.1362 12.5479 29.8314 13.096C29.6596 13.4049 29.5832 13.7084 29.366 13.9908C29.1262 14.3027 28.7382 12.3127 28.704 12.1415C28.3998 10.6185 28.0748 9.03353 28.4091 7.48828C28.6223 6.50259 29.1132 5.65922 29.4185 4.71758C29.4594 4.59132 29.8146 3.88959 29.6741 4.01496C28.1864 5.34245 26.9947 7.02483 25.8529 8.64827C24.7801 10.1736 23.9993 11.8148 23.0214 13.3876C22.0385 14.9685 20.7953 16.233 19.4689 17.5238C18.4707 18.4952 17.5267 19.4961 16.5588 20.4934C16.3008 20.7592 16.0037 20.9994 15.8247 21.3285C15.6502 21.6494 14.9976 22.6456 14.6646 22.2035C14.1222 21.4836 13.6621 20.5457 14.1074 19.6449C14.5493 18.7513 15.256 17.8335 15.8771 17.0598C16.0165 16.8862 17.3506 15.3286 16.6112 16.1716C15.0556 17.945 13.3871 19.6118 11.8396 21.3948C11.711 21.5431 11.019 22.1001 11.0007 22.3228C10.9793 22.5821 11.4842 22.1445 11.7216 22.0444" stroke="#261D1B" stroke-width="3" stroke-linecap="round"/>
<path d="M12.3383 26.6089C13.9685 25.0518 15.7678 23.6554 17.5113 22.2226C18.7587 21.1975 20.0166 20.0608 21.3637 19.1655C23.7701 17.5662 27.0262 17.2919 29.1231 15.2445C29.4456 14.9297 30.7064 13.5997 29.3001 14.0084C28.3694 14.2788 27.5363 14.9755 26.6455 15.3641C25.9185 15.6813 25.4736 16.4246 25.0188 17.0322C24.588 17.6078 24.6468 17.0067 24.7329 16.6003C24.9615 15.5216 26.5148 14.4627 27.299 13.7492C27.4718 13.592 29.5658 12.0832 29.198 12.0279C27.4132 11.7598 25.9367 13.4806 24.978 14.6863C24.3955 15.4186 23.7131 16.0315 25.012 16.0752C25.6872 16.098 26.4155 16.1329 27.0675 15.9357C27.5011 15.8045 27.7981 15.8035 28.1294 16.1417C28.9361 16.9652 26.9517 18.2083 26.4005 18.6937C25.7228 19.2905 25.2452 20.047 24.6717 20.734C23.8415 21.7283 22.9533 22.5935 22.0035 23.472C21.0731 24.3327 20.2532 25.2981 19.3218 26.1569C18.3099 27.09 17.6804 28.3093 16.7217 29.2672C16.1427 29.8457 14.6264 31.5217 13.7133 30.9153C13.0449 30.4716 12.6301 30.2825 12.8829 29.3602C13.1032 28.5562 13.8617 27.9891 14.5028 27.5127C16.247 26.2166 18.2368 25.2639 19.948 23.9306C20.8635 23.2173 21.7562 22.469 22.6297 21.7109C23.0565 21.3405 23.8203 21.236 24.3313 20.9865C24.794 20.7606 25.4196 20.3884 25.9513 20.3884C26.019 20.3884 26.4941 20.3398 26.523 20.415C26.7357 20.9687 24.7981 22.8095 24.5219 23.0999C22.1997 25.5417 19.5553 27.697 16.9395 29.8254C15.8005 30.7522 14.6632 31.7401 13.686 32.8293C13.1373 33.441 12.6594 34.1099 12.1069 34.7168C12.064 34.7639 11.4752 35.229 11.8074 35.2218C12.4548 35.2078 13.0731 34.835 13.5975 34.5041C14.836 33.7227 15.9887 32.7586 17.1573 31.8856C20.2965 29.5405 23.6098 27.8246 26.9927 25.8911C27.6647 25.507 28.4562 25.441 29.1639 25.1268C29.7317 24.8749 28.3964 26.0868 28.0068 26.5623C26.8664 27.9542 25.722 29.1656 24.4198 30.4169C22.7199 32.0504 20.5641 33.4094 18.5595 34.6636C16.6767 35.8415 14.4248 36.7676 12.8556 38.3587C12.6484 38.5688 12.0707 39.3666 12.175 39.3157C14.4517 38.2042 16.376 36.5286 18.4233 35.0756C21.6474 32.7876 25.5041 31.5963 28.9189 29.6261C29.3931 29.3525 29.8752 29.2412 30.3891 29.0545C31.0933 28.7987 29.3071 30.177 29.1367 30.3305C24.9628 34.0924 20.875 38.0068 16.4495 41.4888C14.7962 42.7896 13.1314 44.0822 11.4943 45.3899C11.1161 45.6921 10.7354 45.8917 11.2493 45.3899C12.1858 44.4756 13.4294 43.6144 14.5232 42.9111C16.7692 41.4669 19.4219 40.8052 21.7789 39.5682C23.5386 38.6447 25.0167 37.2453 26.7068 36.1988C28.1831 35.2847 29.6094 34.321 31.0561 33.3344C31.2087 33.2304 32.2246 32.7684 31.9546 33.2015C30.2389 35.9537 27.444 38.2305 25.0256 40.3657C23.1214 42.0469 21.1999 43.7249 19.1993 45.2969C17.8679 46.343 16.4091 47.2435 15.1018 48.3141C14.0476 49.1774 12.8146 50.1083 11.6373 50.8063C10.7117 51.355 11.3114 50.6078 11.6577 50.1749C12.4873 49.1381 13.6163 48.3792 14.4075 47.2907C15.2821 46.0874 16.1056 44.882 17.0212 43.7019C17.2902 43.3552 17.7291 43.078 17.7291 42.6386" stroke="#261D1B" stroke-width="3" stroke-linecap="round"/>
<path d="M19 39C18.3086 39.1163 17.7811 39.567 17.2296 39.9307C16.3527 40.5088 15.407 41.0191 14.4961 41.5527C13.8022 41.9591 13.0966 42.35 12.4071 42.7625C11.1688 43.5033 13.1244 42.2907 13.3998 42.111" stroke="#261D1B" stroke-width="3" stroke-linecap="round"/>
<path d="M23 29C23.0776 27.4481 24.3466 24.9186 26 24" stroke="#261D1B" stroke-width="3" stroke-linecap="round"/>
<path d="M22 6.7524C23.9124 5.53078 25.5064 3.78664 27.2691 2.36434C28.0464 1.73719 28.1063 1.94554 27.8949 2.79077C27.8216 3.08424 27.7496 3.31896 27.5719 3.56109C27.0244 4.30719 26.2016 4.95851 25.5935 5.67946C25.2025 6.14304 25.1448 6.57076 24.6648 7" stroke="#261D1B" stroke-width="3" stroke-linecap="round"/>
<path d="M37.3385 4.60442C37.054 4.12066 36.3687 5.45224 36.3116 5.60854C35.8935 6.75301 35.5874 7.90102 34.9131 8.94904C34.4565 9.65867 33.9334 9.53833 33.9334 10.511C33.9334 11.3001 32.6716 12.9803 33.0822 11.3379C33.3184 10.3931 33.7094 9.42074 34.3793 8.68652C35.0721 7.92729 35.838 7.29642 36.3116 6.37639C36.5543 5.90481 36.9856 5.92779 37.3318 5.54947C37.5712 5.2878 37.666 4.76666 38.1222 4.84725C38.8318 4.97256 37.3541 10.1496 37.2304 10.7932C37.1116 11.4114 37.0953 12.0132 37.0953 12.6374C37.0953 12.6702 37.5502 11.625 37.6088 11.4035C38.1367 9.40942 38.8331 7.47013 39.7167 5.60198C39.8878 5.24033 40.5004 3.25581 40.5004 4.57161C40.5004 6.64582 40.2963 8.79191 40.6828 10.8195C40.7887 11.3746 40.6312 11.9776 40.7707 12.5192C40.9826 13.3429 41.559 11.6166 41.5949 11.4561C42.0487 9.4282 41.9063 7.22589 42.811 5.31321C42.9441 5.0319 42.9832 4.71561 43.115 4.43379C43.242 4.16239 43.0831 3.71619 43.2434 4.25003C43.8267 6.19268 43.6623 8.12696 43.6623 10.1632C43.6623 10.5896 43.7898 11.0276 43.9325 11.4298C44.0481 11.7553 44.3731 11.9253 44.3919 12.283C44.431 13.0229 44.5656 14.367 45 15" stroke="#261D1B" stroke-width="3" stroke-linecap="round"/>
<path d="M32.775 36C32.3236 36.0426 31.9218 36.4188 31.6068 36.7271C30.7969 37.5195 29.6653 38.0674 28.6862 38.5985C28.001 38.9702 26.9468 39.4899 26.4405 40.12C26.27 40.3322 25.868 40.3886 25.6358 40.4969C25.1873 40.7063 24.7089 40.9269 24.2988 41.2105C23.6314 41.672 24.2941 41.7098 24.7401 41.4663C26.1224 40.7117 27.5426 39.9195 29.0496 39.4602C29.8545 39.2149 30.5561 39.0765 31.3731 39.0294C31.5646 39.0183 31.7157 38.7942 31.9573 38.787C32.2109 38.7795 33.3733 38.8164 32.8789 39.3525C30.8604 41.5413 28.0569 42.6415 25.2983 43.459C24.0261 43.836 22.7286 44.3212 21.495 44.8189C20.7954 45.101 19.9979 45.3791 19.3402 45.7479C18.651 46.1343 18.1666 47.065 17.5294 47.5722C16.0433 48.7552 14.3443 49.5417 12.85 50.6689C12.3239 51.0658 11.9064 51.4658 11.4545 51.9345C11.088 52.3147 10.6179 52.8609 11.5194 52.7424C13.2872 52.5099 15.0383 51.6114 16.6662 50.9045C18.8933 49.9376 21.1946 49.0086 23.5329 48.3733C25.7706 47.7654 28.7951 47.8799 30.5034 46.0037C30.8936 45.5752 31.1252 44.4905 31.2304 43.9572C31.3307 43.4485 30.8349 43.919 30.5813 43.9976C28.7606 44.5613 26.9858 45.2924 25.1555 45.8152C23.6665 46.2405 22.2204 46.804 20.9757 47.7809C20.3971 48.2351 19.9951 48.8401 19.3402 49.2081C18.1491 49.8773 16.9237 50.5793 15.7835 51.3354C15.0779 51.8034 14.4138 52.3136 13.8559 52.9645C13.6019 53.261 13.5594 53.6886 13.3043 53.9407C13.0116 54.2298 11.9784 55.107 12.9603 54.5129C15.7613 52.8181 18.7311 51.7791 21.9363 51.2815C24.2052 50.9293 27.0331 50.9745 28.9133 49.3899C29.6393 48.7781 30.5237 48.7551 31.3147 48.2993C31.8561 47.9873 31.8358 48.4703 31.5224 48.8446C30.6973 49.8301 29.1949 50.4165 28.1345 51.0728C27.1251 51.6977 26.1339 52.3295 25.0711 52.8501C24.0396 53.3553 23.0164 53.8128 21.9817 54.2974C20.8167 54.8432 19.3183 55.1307 18.0551 55.2668C17.0448 55.3757 15.9981 55.3962 15.0047 55.6304C14.6495 55.7141 14.3349 55.9324 13.9857 56.041C13.2275 56.277 12.3622 56.6172 12.0062 57.448C11.8041 57.9198 13.1424 57.8101 13.3172 57.8115C15.503 57.8292 17.6867 57.7051 19.8724 57.6904C22.117 57.6752 24.2179 57.4338 26.3497 56.8421C26.9411 56.678 27.6027 56.4438 28.154 56.1824C28.4925 56.0219 28.6005 56.0461 28.7121 55.7246C28.7285 55.6775 28.8941 55.4615 28.8744 55.4553C28.3903 55.3047 27.6623 55.8235 27.2843 56.0343C25.0809 57.263 22.7574 57.7806 20.3981 58.5453C19.4168 58.8634 18.4934 59.3063 17.5359 59.683C16.8215 59.9641 16.0545 60.2124 15.4461 60.7063C14.5893 61.4017 13.4358 61.7681 12.6552 62.5778C12.4999 62.7389 12.0916 63.042 12.5774 62.9951C13.3825 62.9174 14.1658 62.596 14.9528 62.4162C16.1461 62.1436 17.3628 61.9631 18.5679 61.7565C20.9036 61.3559 23.2871 60.9749 25.6422 60.7265C26.4373 60.6426 27.3778 60.7318 28.102 60.3562" stroke="#261D1B" stroke-width="3" stroke-linecap="round"/>
<path d="M30 54C28.5673 54.3734 27.267 55.0846 25.8518 55.5093C25.063 55.746 24.3022 56.03 23.5788 56.3919C23.1088 56.6269 22.5642 56.7549 22.1013 56.993C21.6641 57.218 21.0434 57.1598 20.638 57.3895C20.395 57.5273 19.6904 58.928 20.155 58.95C22.529 59.0625 24.9378 58.95 27.315 58.95" stroke="#261D1B" stroke-width="3" stroke-linecap="round"/>
<path d="M25 33.9721C22.3847 33.9721 19.7387 34.0585 17.1293 33.9271C16.9139 33.9163 15.7033 33.9449 16.068 33.5626C16.2507 33.3711 16.4675 33.2059 16.6079 33" stroke="#261D1B" stroke-width="3" stroke-linecap="round"/>
<path d="M14.004 63.2332C13.1302 64.0667 11.9212 64.5642 11.1951 65.5561C11.0797 65.7138 10.8279 66.07 11.1818 66.07C11.8003 66.07 12.1385 65.8038 12.6531 65.467C13.4126 64.9698 14.2033 64.6246 15.0606 64.3501C15.1114 64.3338 16.1931 63.9407 16.1574 64.0829C16.0614 64.4656 15.5451 64.8635 15.3014 65.1381C14.4694 66.0757 13.6721 67.0426 12.8804 68.0159C12.2028 68.8491 11.2353 69.6049 11.2353 70.7567C11.2353 71.1949 10.759 72.5561 11.69 72.2505C13.3247 71.7139 14.461 70.4409 15.5622 69.1602C16.6233 67.9261 17.5497 66.8619 18.2774 65.3985C18.3574 65.2377 19.7419 62.7054 19.849 63.0003C20.2528 64.1121 19.3825 66.0236 19.0465 67.0155C18.5463 68.4919 18.2042 70.1039 17.4949 71.4967C17.1134 72.246 16.8432 73.2517 16.2644 73.8675C15.9896 74.1599 15.7428 74.4423 15.4485 74.7103C14.9981 75.1205 14.9256 75.186 14.7262 74.5733C14.2365 73.0679 15.7052 71.9839 16.679 71.2501C18.6574 69.7593 20.5649 67.7218 21.6079 65.4122C21.9157 64.7304 21.6885 63.7672 22.076 63.1716C22.2274 62.939 22.5089 62.7021 22.5241 63.1784C22.5677 64.55 21.9573 66.0268 21.5811 67.317C21.1099 68.9333 20.6146 70.5388 20.0229 72.1134C19.7999 72.7068 19.6192 73.3172 19.3943 73.9086C19.2817 74.2046 19.0322 74.4534 18.9529 74.7583C18.909 74.9269 18.9588 75.0849 18.886 75.2516C18.8616 75.3075 18.5612 75.9692 18.6653 75.9574C18.9694 75.9228 19.5975 75.2046 19.7688 75.005C21.6116 72.8564 22.2638 69.9917 22.6846 67.2348C22.919 65.6991 22.9019 63.9009 23.6877 62.5206C23.9357 62.0852 24.177 61.4964 24.5906 61.2051C24.6267 61.1796 24.9115 60.9166 24.9317 61.0269C25.0521 61.6851 24.5655 62.6727 24.41 63.2881C23.7867 65.7545 23.2731 68.4496 23.2731 71.0102C23.2731 72.1636 23.4241 73.3823 23.3935 74.5116C23.3894 74.661 23.1504 75.5045 23.34 75.56C23.9528 75.7394 24.2514 75.1518 24.4836 74.6761C25.9066 71.7602 26.1131 68.4528 27.2991 65.467C27.5711 64.7822 27.8475 64.1768 27.8475 63.4251C27.8475 63.1199 27.7828 62.7198 27.9077 62.4384C27.9437 62.3573 27.9126 62.6173 27.901 62.7056C27.7393 63.936 27.6337 65.1775 27.5131 66.4126C27.344 68.1448 27.0323 69.8564 26.9112 71.5927C26.8504 72.4654 26.6975 73.2708 26.5835 74.1348C26.5425 74.4454 26.4221 74.9608 26.5835 75.2585C26.6831 75.4422 26.7881 75.6428 26.8577 75.8409C27.1026 76.538 27.9904 74.731 28.0615 74.5253C28.6861 72.7192 28.7627 70.9552 29.7067 69.2972C29.7134 69.2855 29.8494 70.5362 29.8672 70.7704C29.9398 71.7281 29.6216 72.6291 29.6532 73.566C29.6606 73.7875 30.5773 72.0816 30.6496 71.9216C31.1104 70.9028 31.6023 69.8961 32.4353 69.1397C32.5985 68.9914 33.0404 68.498 32.997 69.0095C32.8485 70.7597 32.0794 72.4705 31.6996 74.1827C31.6109 74.5828 31.4588 75.799 31.4588 75.3887C31.4588 75.171 31.5121 74.9909 31.5926 74.7857C31.9112 73.9736 32.2109 73.2161 32.4152 72.3601C32.5744 71.6928 32.685 71.047 32.6626 70.3593C32.645 69.8185 32.5047 71.4294 32.4152 71.9627C32.2821 72.7551 32.1363 73.546 32.0139 74.3403C31.9683 74.6363 31.7363 75.4219 31.9671 75.2379C32.5866 74.7443 32.5423 72.761 32.5423 72.0586C32.5423 70.8038 31.5024 71.6372 31.178 72.3464C30.8361 73.0935 30.9773 72.8896 30.9773 72.1066C30.9773 71.6286 31.2714 66.8104 30.1748 67.2348C29.3583 67.5509 29.5755 67.9335 29.3857 66.9607C29.314 66.5937 29.1177 66.5633 28.8105 66.5633" stroke="#261D1B" stroke-width="3" stroke-linecap="round"/>
<path d="M35.7017 72.2619C36.0751 72.644 36.0474 72.9685 36.0474 73.4746C36.0474 73.9311 35.985 74.295 36.1626 73.5984C36.2384 73.3011 36.3183 73.0049 36.3931 72.7074C36.4048 72.6606 36.5489 72.0627 36.5723 72.0886C37.1079 72.6801 36.6777 74.4911 36.5339 75.1453C36.316 76.1372 36.1033 75.4907 35.7017 74.8668C35.3969 74.3935 35.0239 73.7553 35.0103 73.1776C34.9872 72.195 35.0103 73.7652 35.0103 74.0129C35.0103 74.189 34.9591 75.2638 35.0871 75.1453C36.5665 73.7749 37.7656 72.4699 38.749 70.7273C39.0234 70.2411 39.3433 69.7902 39.6581 69.329C39.833 69.0727 39.8377 69.9254 39.8437 70.2323C39.8745 71.8078 39.8234 73.3842 39.8501 74.9596C39.8653 75.8542 40.369 74.9096 40.5351 74.576C41.0571 73.5282 41.4684 70.0128 41.2073 71.1481C40.8437 72.7296 40.3113 74.2902 40.0358 75.8878C39.8022 77.2423 40.229 75.1181 40.2598 74.8359C40.3191 74.2938 40.4129 73.5846 40.1958 73.0601C40.1102 72.8533 40.094 73.9058 40.1062 74.0439C40.1403 74.4286 40.2359 75.379 40.8616 74.9411C42.1672 74.0273 42.5587 72.0434 42.731 70.616C42.7715 70.28 42.8424 69.3079 42.9615 69.626C43.2095 70.2887 43.0767 71.1866 43.0767 71.872C43.0767 72.5073 43.0767 73.1426 43.0767 73.7778C43.0767 73.7911 43.0776 74.3975 43.1023 74.3904C43.2481 74.3481 43.4158 73.7021 43.448 73.6107C43.8689 72.4174 44.1273 71.1694 44.3827 69.9353C44.4926 69.4041 44.5127 68.7011 44.7476 68.1966C44.8608 67.9534 45.0979 69.5397 45.0997 69.5641C45.2528 71.6701 44.9391 73.8299 45.2149 75.9249C45.4065 77.3794 45.8762 75.5604 45.9576 75.071C46.3297 72.8327 46.2602 70.5048 46.713 68.2895C46.7318 68.1972 46.753 67.9301 46.7898 68.0172C47.0787 68.6997 46.9787 69.6378 46.9883 70.3437C47.0102 71.9645 46.9947 73.5862 46.9947 75.2071C46.9947 75.6974 46.882 74.045 46.4185 73.8459C45.5233 73.4613 43.9544 75.0167 43.4864 75.5536C43.2938 75.7746 42.1485 77.7841 42.5005 76.6612C42.7298 75.93 42.7794 75.0915 42.6414 74.3409C42.5267 73.7176 43.1871 73.1693 43.5376 72.7074" stroke="#261D1B" stroke-width="3" stroke-linecap="round"/>
<path d="M46.8227 4.36167C45.6748 4.66168 45.0854 6.97946 45.0087 7.98138C44.9972 8.13211 44.9194 10.5493 45.5752 9.71138C46.7121 8.25873 47.0936 6.14905 47.5673 4.38829C47.6061 4.24411 47.7392 3.7302 47.7392 4.18202C47.7392 5.12471 47.7573 6.06254 47.6119 6.9966C47.4123 8.27804 47.2565 9.5437 46.8736 10.776C46.6484 11.5006 46.3126 12.3128 46.2498 13.0782C46.2274 13.3522 46.2181 13.5293 46.0844 13.7836C45.9693 14.0024 45.6417 14.3852 45.677 14.6619C45.6854 14.7275 46.5563 13.8631 46.619 13.7969C48.347 11.9718 49.8037 9.82221 51.2397 7.74184C51.5972 7.22406 51.86 6.76862 51.978 6.15156C52.2085 4.94697 51.9522 6.45054 51.8317 6.83691C51.0289 9.41064 50.141 12.2243 48.7766 14.5421C48.5032 15.0066 48.0927 15.7171 47.9556 16.2189C47.8602 16.5677 47.0923 17.0527 46.8227 17.2702C46.6395 17.4179 45.7983 18.4263 46.1607 18.2017C47.1796 17.5705 48.2014 17.0325 49.0885 16.1656C50.6921 14.5987 52.4149 12.4821 53.391 10.4034C53.5697 10.0229 53.6535 9.63732 53.8747 9.25892C53.993 9.05654 54.4091 8.09359 54.3712 8.46046C54.0759 11.3153 52.4251 14.1005 50.9024 16.4251C50.011 17.7861 49.0172 19.0769 48.0892 20.4108C47.9465 20.616 46.466 22.9924 46.4662 22.9925C46.7608 23.0746 47.5013 22.4567 47.631 22.3604C48.4505 21.7518 49.1901 21.043 49.8904 20.291C51.1993 18.8858 52.3575 17.3032 53.4165 15.6866C54.4512 14.1069 55.1844 12.5051 55.9623 10.8159C56.2231 10.2498 56.487 9.70115 56.6688 9.09923C56.7207 8.92742 56.7262 8.63331 56.8534 8.50038C56.8669 8.48629 57.1009 8.32763 56.9488 8.38061C56.271 8.61682 55.3903 8.50691 54.6767 8.6135C54.1787 8.68786 53.6829 8.67338 53.181 8.67338C52.0151 8.67338 51.6518 8.41989 50.9724 7.40914C50.7199 7.03349 50.8185 6.89573 50.3487 6.87683C49.9514 6.86086 49.5108 6.70645 49.1139 6.6373" stroke="#261D1B" stroke-width="3" stroke-linecap="round"/>
<path d="M60.049 11C58.2712 12.651 56.6602 14.5429 55.0004 16.314C52.6216 18.8524 50.1476 21.181 47.4276 23.3591C46.3895 24.1904 45.479 25.0861 44.6873 26.1235C44.5656 26.2831 42.9459 28.2571 43 28.3108C43.448 28.7562 47.3141 25.8818 47.5693 25.6941C50.971 23.1917 53.4411 19.8532 55.9791 16.5623C56.8417 15.4438 57.4832 14.1699 58.4561 13.1337C58.8424 12.7223 59.2769 12.2535 59.9342 12.3352C60.239 12.3731 60.6175 12.4017 60.4539 12.7713C60.2085 13.3258 59.7543 13.8265 59.4078 14.3146C58.5949 15.4593 57.8357 16.6457 56.9847 17.7633C55.9432 19.1313 54.6884 20.2729 53.4211 21.4267C52.489 22.2754 51.655 23.2286 50.6943 24.0435C49.1679 25.3382 47.7407 26.725 46.2532 28.0559C44.4813 29.6412 42.9729 31.5931 41.5354 33.4571C41.3337 33.7186 40.867 34.2443 41.5286 33.9603C43.4368 33.1412 45.1335 31.635 46.6649 30.2767C48.6624 28.5052 50.43 26.5463 52.5166 24.8688C53.8583 23.7902 55.3738 22.6292 56.4043 21.2389C57.9913 19.0978 59.67 16.9323 61.5608 15.0526C62.0429 14.5734 62.6298 14.2448 63.0794 13.7308C63.2281 13.5608 63.4114 13.3325 63.6261 13.241C63.692 13.213 62.9819 14.638 62.904 14.7574C61.0163 17.6472 58.8014 20.2105 56.4043 22.6949C53.155 26.0624 49.5968 29.179 46.179 32.3768C45.3419 33.16 44.4897 33.7868 43.7154 34.6581C43.2257 35.2093 42.4825 35.7329 42.0956 36.3624C42.0215 36.4829 40.9453 37.7488 41.0022 37.7848C41.3826 38.0255 43.3556 36.4074 43.6479 36.1879C45.4497 34.8352 47.1103 33.2004 48.791 31.7059C50.9196 29.813 53.1661 28.1323 55.4054 26.3784C56.5563 25.477 57.5292 24.4025 58.7261 23.547C60.025 22.6185 61.3457 21.6675 62.4787 20.5411C63.0638 19.9595 63.7606 19.4949 64.3416 18.9174C65.879 17.389 61.9426 22.5487 60.4539 24.124C55.2015 29.6824 50.5687 36.0137 44.4039 40.6565C43.9942 40.9651 43.7073 41.3141 43.162 41.3141C42.937 41.3141 42.712 41.3141 42.487 41.3141C41.9285 41.3141 43.184 40.2622 43.3375 40.1197C44.8445 38.7215 46.7409 37.7004 48.4805 36.6307C51.7337 34.6303 55.124 33.0665 58.5573 31.4107C60.4367 30.5043 62.1316 29.4634 63.8421 28.2907C64.0181 28.1701 64.4208 27.9218 64.5441 27.7606C64.9056 27.2877 65.1515 27.0271 65.1515 26.4053C65.1515 25.1638 65.1076 23.6454 65.9074 22.6211C66.1671 22.2885 66.5283 21.8831 66.8254 21.5878C67.6654 20.7527 65.2462 23.3534 64.4226 24.2045C62.9756 25.6999 61.467 27.0845 59.725 28.2303C58.4567 29.0645 57.1404 29.8335 56.0601 30.9074C55.2943 31.6687 57.1566 30.6132 57.2682 30.5451C58.4213 29.8417 59.4931 28.7043 60.7577 28.2236C62.6044 27.5216 61.0899 29.2199 60.4472 29.7936C57.0883 32.792 53.9062 35.7645 50.0869 38.1807C48.5408 39.1587 46.7824 40.1368 45.4973 41.4617C45.2126 41.7552 44.9853 42.1899 44.7413 42.5218C44.4459 42.9238 44.026 43.1524 43.7964 43.6087C43.7405 43.7199 44.0172 43.4911 44.1204 43.4209C45.4601 42.5091 46.8182 41.6244 48.1565 40.7102C50.8271 38.886 53.5142 37.0402 56.3503 35.4767C57.8102 34.6719 59.5126 34.1413 60.8994 33.2223C61.2921 32.962 61.6181 32.6247 62.0198 32.3768C62.9991 31.7726 63.936 31.1623 64.9558 30.6256C67.1078 29.493 61.4034 33.9457 59.4955 35.4499C57.8028 36.7844 56.0073 38.0298 54.177 39.167C51.7147 40.6969 48.9473 41.9627 46.6852 43.7698C45.5181 44.7021 44.0728 45.2645 42.919 46.2121C42.7632 46.34 42.3712 46.4679 42.7705 46.1316C44.9049 44.3339 47.4286 43.0031 49.9316 41.7972C51.7214 40.9348 53.5078 40.2445 55.1759 39.1536C56.2447 38.4545 57.4168 38.0259 58.5034 37.3889C59.6823 36.6978 61.1064 35.8312 62.1143 34.9064C62.542 34.5139 63.0999 33.9274 63.6329 33.6919C63.7238 33.6517 64.1184 33.285 64.0514 33.6517C63.8955 34.5037 62.9963 35.3534 62.4787 36C61.0758 37.7528 59.513 39.2772 57.5922 40.4686C55.4239 41.8135 53.0551 42.7779 50.8293 44.0247C49.9159 44.5364 48.9983 45.0472 48.0755 45.5411C47.3921 45.9069 46.8054 46.4237 46.0642 46.6952C45.8094 46.7885 45.6512 46.8669 45.4028 46.9904C44.4555 47.4612 45.7242 46.808 46.044 46.675C49.4759 45.2483 53.3226 44.9186 56.9712 44.4005C57.7455 44.2905 58.3959 43.9195 59.131 43.6758C59.5644 43.5322 60.0126 43.2638 60.4134 42.9982C61.0682 42.5642 61.5294 42.409 60.5619 42.0655C60.2492 41.9545 60.3724 41.8117 60.2919 41.5556C60.2351 41.3748 56.0344 43.7141 55.6754 43.8906C53.2882 45.0641 50.4747 46.1012 47.8191 46.5073C46.9162 46.6454 45.9608 47.0261 45.1328 47.4198C44.9803 47.4923 43.4395 48.0466 43.4252 47.9968C43.3616 47.7753 43.8818 47.2843 44.0124 47.1112" stroke="#261D1B" stroke-width="3" stroke-linecap="round"/>
<path d="M47.06 35C46.6268 34.8724 48.6717 33.1692 49 33" stroke="#261D1B" stroke-width="3" stroke-linecap="round"/>
<path d="M45 48.9967C45.4195 48.9967 45.8445 49.0195 46.2592 48.9448C46.8307 48.8418 47.3861 48.6509 47.9381 48.4769C49.5486 47.9692 51.1917 47.5921 52.8174 47.1384C53.6852 46.8962 54.5438 46.6141 55.3948 46.3197C55.7158 46.2086 56.0783 45.9794 56.4245 45.9558C56.9951 45.9168 57.4707 45.8189 58.0313 45.6699C59.1882 45.3623 60.4145 45.542 61.5268 45.0461C61.6544 44.9892 62.2428 44.9479 61.8875 45.1565C61.3659 45.4628 60.6598 45.5282 60.2283 45.9558" stroke="#261D1B" stroke-width="3" stroke-linecap="round"/>
<path d="M47.0666 52.5152C47.139 51.613 47.9072 51.2421 48.6946 50.8894C51.0828 49.8194 53.73 49.6772 56.3148 49.4537C57.3705 49.3624 58.5127 49.347 59.475 48.8571C60.1341 48.5215 60.6385 48.4666 61.3424 48.3261C61.8801 48.2187 63.077 48.3311 63.4698 48.0573C63.6294 47.946 64.0496 48.0311 64.2427 48.0311C64.8496 48.0311 63.1793 48.723 63.032 48.8046C61.5479 49.6266 60.042 50.395 58.4626 51.0336C56.5805 51.7946 54.5981 52.2636 52.6551 52.8561C52.1069 53.0232 51.4011 53.1194 50.8835 53.3674C50.591 53.5076 50.3801 53.8253 50.0763 53.9312C49.4335 54.1552 48.6102 54.0956 47.9285 54.259C47.7689 54.2972 47.2486 54.3838 47.4565 54.1016C47.9736 53.3996 49.2073 53.3399 49.9806 53.2494C52.5907 52.9441 55.236 52.7629 57.8607 52.6332C59.1914 52.5674 60.523 52.5232 61.8555 52.5152C62.1307 52.5135 62.4934 52.5716 62.7584 52.4562C63.2589 52.2381 63.9984 52.2015 64.5369 52.1546C65.2551 52.092 65.9674 51.6366 66.6437 51.4269C66.7457 51.3953 67.1342 51.1562 67.102 51.1778C65.8636 52.0086 64.497 52.7165 63.1551 53.3805C60.6028 54.6435 57.8376 55.2144 55.0972 55.9307C53.4621 56.3581 51.7606 56.4045 50.0832 56.6518C49.6237 56.7195 49.0611 56.8828 48.633 57.0517C48.0047 57.2996 48.9376 56.8442 49.1597 56.7895C52.4666 55.9745 56.0584 56.4694 59.4476 56.4092C60.4528 56.3914 61.5202 55.973 62.519 55.8258C63.7098 55.6502 64.8268 55.1818 66.0076 54.9932C66.4564 54.9215 66.9749 54.6903 67.3825 54.495C67.5322 54.4233 68.3722 53.9341 67.8066 54.1148C67.0873 54.3445 66.4531 54.7632 65.7955 55.1112C63.1528 56.5097 60.6952 58.3713 57.6965 58.8938C56.5255 59.0979 55.4155 59.3025 54.2216 59.3855C53.2604 59.4524 52.3231 59.7133 51.3623 59.7133C50.7026 59.7133 50.0754 59.9493 49.406 59.9493C49.1487 59.9493 48.1389 60.0506 48.8382 59.7658C50.2904 59.1743 52.2685 59.1848 53.8112 59.2675C55.048 59.3338 56.2448 59.499 57.4913 59.4773C58.3618 59.4621 59.1726 59.0989 60.0359 59.0119C60.7998 58.9348 61.5341 58.74 62.2796 58.6447C63.4537 58.4947 64.6109 58.2606 65.7955 58.1531C66.1038 58.1251 67.1082 58.2159 67.3756 58.0023C67.4281 57.9604 67.9777 57.767 67.6698 57.8777C65.7404 58.5711 63.8611 59.3373 61.9991 60.1919C59.9832 61.117 57.5539 61.8987 55.3297 62.1651C54.8413 62.2237 54.3784 62.3094 53.8864 62.3094C52.9333 62.3094 51.9802 62.3094 51.0271 62.3094C50.4509 62.3094 49.6911 62.4479 49.1324 62.2831C48.4986 62.0962 49.2944 62.2289 49.5154 62.2569C52.3459 62.6152 55.1862 62.758 58.0248 62.9912C59.2759 63.0939 60.321 62.8553 61.4724 62.5716C62.4617 62.3278 63.4044 61.945 64.3864 61.5948C65.3251 61.26 66.2536 61.0251 67.0747 60.4803C67.367 60.2864 67.6828 60.0404 67.0678 60.264C65.6989 60.7616 64.3328 61.6512 63.0594 62.3356C61.3933 63.2311 59.8166 63.7884 57.9017 64.0794C56.0953 64.3539 54.2663 64.5628 52.4431 64.7022C51.5979 64.7668 50.7348 64.7367 49.8985 64.8792C49.2165 64.9954 48.502 64.8185 47.819 64.912C46.9855 65.0261 49.0584 65.2614 49.2144 65.266C53.176 65.381 57.1547 65.5888 61.1167 65.6134C61.6835 65.617 63.3035 65.8463 63.7844 65.4692C63.9811 65.315 63.2355 65.8044 63.1414 65.8494C61.9577 66.4167 60.6905 66.8704 59.3587 66.9049C56.5621 66.9773 53.5719 66.5018 50.8288 67.1475C50.2532 67.283 49.6846 67.407 49.105 67.508C48.3868 67.6332 47.6552 68.1504 46.9161 68.3275C45.4132 68.6876 47.1672 68.0568 47.6754 67.862C48.7572 67.4473 49.8524 67.057 50.9382 66.6492C51.1529 66.5686 51.7116 66.2013 51.5675 66.3739C51.2786 66.7201 50.7405 67.0129 50.391 67.2917C48.8751 68.5008 47.3411 69.6981 45.9311 71.0219C45.8119 71.1337 44.971 71.9791 45.0008 72.2216C45.0689 72.7763 50.2577 71.3377 50.692 71.2054C52.2364 70.735 54.0666 70.2279 55.4187 69.3371C55.7569 69.1142 56.0664 68.857 56.4242 68.6553C56.6682 68.5177 55.8347 68.6664 55.7675 68.6749C55.5085 68.708 55.6749 68.1284 55.6854 68.039C55.7961 67.1024 54.9899 67.8697 54.4952 68.1439C52.4271 69.2903 50.18 70.4363 48.3047 71.8741C47.9612 72.1374 46.4424 73.6376 47.4701 73.6376C49.3175 73.6376 50.9849 73.3858 52.662 72.569C54.5829 71.6334 56.1763 70.1627 57.806 68.8388C58.127 68.578 59.1092 67.9735 58.6884 67.9735C58.4195 67.9735 57.9931 68.3889 57.8402 68.511C56.6399 69.4696 55.599 70.5903 54.4405 71.5922C53.1555 72.7034 51.774 73.5411 50.1721 74.1358C49.856 74.2532 48.3499 74.6123 48.1884 74.8832C47.9942 75.2089 50.5011 74.7562 50.6783 74.6996C52.1897 74.2168 53.4184 73.3509 54.8099 72.6411C55.9303 72.0696 57.0445 71.4892 58.1753 70.9366C59.0437 70.5124 59.474 69.9371 60.118 69.2715C60.9453 68.4165 61.5736 67.3774 62.3753 66.4919C62.5399 66.3101 63.4173 65.2164 63.675 65.2988C63.7204 65.3133 62.0741 67.7074 61.9444 67.8686C60.8215 69.2635 59.6618 70.6169 58.3805 71.8807C57.818 72.4355 57.4348 72.9976 56.8073 73.5065C56.3333 73.8908 55.8372 74.2319 55.3776 74.6341C54.789 75.1491 55.3425 74.7302 55.7128 74.5292C57.8464 73.3704 60.0724 72.521 61.5271 70.4909C62.6387 68.9397 63.5856 67.2643 64.4274 65.561C64.6814 65.0471 65.7001 63.2536 65.0431 62.7814" stroke="#261D1B" stroke-width="3" stroke-linecap="round"/>
</svg>
