<svg width="80" height="80" viewBox="0 0 80 80" fill="none" xmlns="http://www.w3.org/2000/svg">
<path d="M57 31C57.1156 31.2619 58.5081 31.7845 58.8737 31.9159C59.2834 32.0631 59.8951 32.6984 60.2702 32.9745C61.6273 33.9735 62.8347 34.8122 64 36" stroke="#261D1B" stroke-width="3" stroke-linecap="round"/>
<path d="M58 30C58.0368 29.6894 58.6439 29.3108 58.8667 29.0556C59.2109 28.6612 59.4886 28.2711 59.8519 27.8819C60.1608 27.5509 60.5234 27.3059 60.8593 27C61.1854 26.703 61.6418 26.2239 62 26" stroke="#261D1B" stroke-width="3" stroke-linecap="round"/>
<path d="M65 37C65.0523 36.5269 66.3516 35.8964 66.7164 35.5435C67.0711 35.2004 67.4504 34.8939 67.791 34.5375C68.1314 34.1814 68.6247 33.6998 68.8955 33.3213C69.2826 32.7804 69.883 32.4806 70.2463 31.9324C70.8903 30.9606 71.9219 30.3186 72.403 29.2297C72.77 28.3989 73.5027 27.7504 74 27" stroke="#261D1B" stroke-width="3" stroke-linecap="round"/>
<path d="M52 50C50.9268 48.9213 49.7424 47.8787 48.746 46.7267C48.2186 46.117 47.7301 45.3453 47 45" stroke="#261D1B" stroke-width="3" stroke-linecap="round"/>
<path d="M64 54C63.6881 53.6588 63.5585 53.236 63.254 52.9062C62.8634 52.4833 62.4224 52.2648 62 51.8906C61.2916 51.263 60.657 50.6045 60 49.9219C58.4265 48.2869 56.7877 46.7944 55.3571 45.0156C52.4351 41.3823 48.9164 38.5702 45 36" stroke="#261D1B" stroke-width="3" stroke-linecap="round"/>
<path d="M47 45.1179C45.699 46.3132 44.5807 46.7987 42.8291 46.9116C42.1954 46.9525 41.6691 47.1013 41.0513 46.8868C40.3107 46.6297 39.6125 46.2747 38.8718 46.0189C38.3467 45.8375 37.8548 45.5619 37.3248 45.4154C36.4886 45.1844 36.1766 43.4351 35.7692 42.7703C35.2476 41.919 35 40.7415 35 39.7613C35 38.6055 36.1514 37.94 36.8376 37.1658C37.0832 36.8886 37.6077 36.5968 37.9316 36.3226C38.2641 36.0412 38.5478 35.7224 38.9231 35.5208C39.6865 35.1106 40.8618 35 41.735 35C42.6282 35 43.1096 35.106 43.7692 35.744" stroke="#261D1B" stroke-width="3" stroke-linecap="round"/>
<path d="M52 50.3347C51.7156 50.3973 51.2244 50.8209 50.9503 50.9748C50.2497 51.3683 49.5125 51.7638 48.8347 52.1912C48.111 52.6476 47.3176 53.0379 46.6223 53.5356C45.181 54.5672 43.7365 54.944 41.9632 54.944C41.0255 54.944 39.8439 55.1268 38.9514 54.8319C38.3255 54.6252 37.7158 54.2616 37.0296 54.2238C36.7623 54.2091 36.4543 53.9676 36.2222 53.8557C35.8905 53.6958 35.2518 53.6464 34.9948 53.4235C34.4838 52.9804 33.5062 53.0329 32.96 52.5593C32.0509 51.7709 31.2121 50.87 30.4892 49.9746C30.0031 49.3724 29.393 48.3993 28.7451 47.998C28.335 47.744 28.2414 46.8461 27.873 46.5176C27.3769 46.075 27.5708 45.2875 27.219 44.8691C26.9729 44.5765 27.001 43.3522 27.001 42.9886C27.001 42.4978 27.001 42.007 27.001 41.5161C27.001 40.3222 27.0997 39.1802 27.1463 37.9791C27.1739 37.2681 27.762 36.4347 28.0103 35.7785C28.1986 35.2808 28.4912 34.8139 28.5917 34.2661C28.723 33.5504 28.9871 32.8512 29.2134 32.1535C29.3714 31.6662 29.7859 31.409 30.0209 30.9691C30.5622 29.9557 31.8595 29.6869 32.7985 29.0886C33.9069 28.3825 35.529 27.8196 36.8359 27.5842C38.4294 27.297 39.8682 27 41.5353 27C42.4298 27 43.2236 27.2881 44.0788 27.2881C44.7235 27.2881 45.0835 27.6475 45.5968 27.9443C45.939 28.1421 46.3428 28.2716 46.7676 28.2964C47.1942 28.3212 47.3825 28.8725 47.785 28.8725" stroke="#261D1B" stroke-width="3" stroke-linecap="round"/>
<path d="M48 29C48.698 29.5499 49.3029 30.0648 49.9367 30.6691C50.1672 30.8888 50.2785 31.2824 50.5 31.5358C50.6684 31.7284 51.0432 32.0292 51.1636 32.242C51.4073 32.6729 52.0567 33.1131 52.4599 33.4858C53.1991 34.1691 53.813 34.7439 54.4583 35.5642C54.8164 36.0194 55.4815 36.4752 55.7469 36.9444C55.934 37.2751 56.8162 38.4905 57.1667 38.5333C57.4407 38.5669 58.5736 39.6936 58.6944 39.9136C59.0901 40.6338 59.9962 41.0904 60.5077 41.7111C60.7324 41.9837 61.0309 42.2472 61.2716 42.4975C61.477 42.7112 61.6302 42.9562 61.8117 43.1556C62.4951 43.9057 63.3135 44.6007 64.034 45.3142C65.2375 46.5062 66.4797 47.6214 67.6759 48.821C69.5842 50.7347 72.1702 52.4111 73 55" stroke="#261D1B" stroke-width="3" stroke-linecap="round"/>
<path d="M64 24C63.1106 22.5986 61.954 21.352 60.946 20.098C60.0415 18.9727 59.3826 18.1762 58.0654 17.3979C57.0394 16.7916 56.1646 16.0808 55.0362 15.6342C54.1878 15.2984 53.4452 14.7015 52.5435 14.3699C51.5371 13.9999 50.4691 13.1581 49.4317 13.0355C48.5069 12.9262 47.7888 12.285 46.9473 11.9819C46.4401 11.7993 45.8019 11.6825 45.2635 11.6073C43.6826 11.3868 42.2005 11.0767 40.6 11.0767C40.1132 11.0767 38.2038 10.8319 38 11.2171" stroke="#261D1B" stroke-width="3" stroke-linecap="round"/>
<path d="M73 26C73 25.1741 72.8875 24.4927 72.6455 23.7073C72.2936 22.5653 71.3404 21.8178 70.8731 20.7516C69.9998 18.7589 68.2941 17.0533 66.9818 15.3595C65.9636 14.0454 64.5897 12.7761 63.1849 11.8446C61.5078 10.7326 59.9882 9.32967 58.1907 8.39361C54.7571 6.60554 51.1362 5.18693 47.2807 4.72694C45.8362 4.5546 44.2974 4.18271 42.8773 4.14379C40.2492 4.07176 37.6393 4 35 4" stroke="#261D1B" stroke-width="3" stroke-linecap="round"/>
<path d="M64 55C63.9194 55.4217 63.3962 55.9509 63.1746 56.3448C62.9735 56.7024 62.7178 57.0364 62.5 57.3908C62.3463 57.641 62.0703 58.0688 62.0079 58.3621C61.9244 58.7553 61.2102 59.3137 60.9365 59.6654C60.0965 60.7448 59.0623 61.3767 58.1508 62.3301C57.8578 62.6366 57.3479 62.9095 57.1429 63.2848C56.9918 63.5613 55.8265 63.8146 55.4921 63.9987C54.4552 64.5695 53.5373 65.2668 52.4206 65.6756C50.9361 66.2191 49.4263 66.5403 48.0317 67.3691C46.992 67.987 45.7925 67.8506 44.6429 67.8506C43.424 67.8506 42.2111 68 41 68" stroke="#261D1B" stroke-width="3" stroke-linecap="round"/>
<path d="M72.9377 55C73.4387 55.1335 70.7629 59.3522 70.4159 59.8276C69.3895 61.2339 68.4779 62.7821 67.0938 63.8667C66.2922 64.4947 65.3966 64.9477 64.7004 65.7333C64.1308 66.376 63.5578 66.8816 62.9562 67.4552C62.7468 67.6549 62.3771 68.0477 62.1333 68.1632C61.562 68.4338 61.2891 68.9903 60.8497 69.4586C60.4175 69.9192 59.8493 70.2762 59.3699 70.6655C58.5544 71.3276 57.4449 71.9849 56.463 72.3471C55.6154 72.6598 54.7681 73.1135 53.9185 73.3851C52.5808 73.8127 51.1195 74.8414 49.6979 74.8414C48.8859 74.8414 48.0971 75.131 47.2818 75.131C46.9414 75.131 46.6674 75.2195 46.3532 75.3483C46.1182 75.4446 45.5058 75.7103 45.281 75.7103C44.4224 75.7103 43.4615 75.5562 42.6309 75.7425C42.043 75.8744 41.6219 76 41 76" stroke="#261D1B" stroke-width="3" stroke-linecap="round"/>
<path d="M37 11C36.2124 11 35.3119 11.2967 34.5482 11.4987C34.0448 11.6319 33.6359 11.5762 33.1607 11.7883C32.3804 12.1367 31.5038 12.3358 30.6852 12.5928C29.0382 13.1099 27.4253 13.7914 26.0655 14.9015C25.5606 15.3136 24.9196 15.4707 24.4493 15.9231C24.0905 16.2683 23.3672 16.4112 23.1249 16.8562C22.7787 17.4921 21.6601 17.8469 21.1067 18.3846C19.613 19.8362 17.8421 20.8276 16.6288 22.6159C15.5948 24.1399 14.9078 25.56 14.2007 27.2655C13.8528 28.1045 13.16 29.2507 13.16 30.1855C13.16 30.601 12.7262 31.3184 12.5924 31.7622C12.4931 32.0916 12.3086 32.2869 12.3086 32.6471C12.3086 33.1944 12.0248 33.7176 12.0248 34.3122C12.0248 35.529 11.5786 36.7621 11.2837 37.9321C10.879 39.5382 10.9231 41.3994 11.3153 43" stroke="#261D1B" stroke-width="3" stroke-linecap="round"/>
<path d="M41 67.3814C40.3522 67.3814 39.7606 67.399 39.1231 67.5267C38.0161 67.7484 37.5144 68.2783 36.2956 67.8171C35.21 67.4064 33.7731 67.2125 32.7995 66.6553C32.3219 66.3819 31.6956 66.4667 31.1723 66.2519C30.7956 66.0973 30.3007 65.9589 29.9559 65.7517C28.8384 65.0801 27.8221 64.3217 26.6934 63.6701C25.5918 63.034 24.4239 62.5997 23.4551 61.7176C22.8969 61.2094 22.3064 60.4954 21.6507 60.1201C21.4862 60.026 21.1981 59.4529 21.0224 59.281C20.756 59.0204 20.3004 58.8369 20.1121 58.5226C19.7391 57.9 18.6369 57.1823 18.1224 56.667C17.5177 56.0613 17.1374 55.456 16.7046 54.7467C16.5623 54.5134 16.1232 54.3409 16.0682 54.0932C15.9984 53.7785 15.9603 53.752 15.7702 53.472C15.4099 52.9413 14.8215 51.8919 14.7552 51.2613C14.6954 50.6927 14.1337 49.7341 13.8852 49.2362C13.6441 48.7533 13.6012 48.2229 13.418 47.7275C13.3501 47.5439 13.097 47.4819 13.0152 47.195C12.8609 46.654 12.3711 46.1901 12.1774 45.6298C11.9866 45.0775 12.0002 44.5845 12.0002 44" stroke="#261D1B" stroke-width="3" stroke-linecap="round"/>
<path d="M34.8399 4C32.6165 4 30.9776 5.72009 28.8231 6.03142C27.612 6.20642 26.6054 6.69078 25.5282 7.17409C24.1423 7.79589 22.613 8.14982 21.3817 9.07061C20.652 9.61627 19.9927 10.1367 19.1771 10.5704C18.6437 10.854 18.3109 11.5032 17.7923 11.8479C16.912 12.4331 16.3553 13.498 15.4206 14.0063C14.9597 14.257 14.4468 14.9592 14.0835 15.3474C13.8105 15.639 13.4683 16.2249 13.2876 16.5853C12.8576 17.4427 12.2678 18.1068 11.7755 18.8865C10.7642 20.4879 9.67249 22.077 8.79888 23.8539C8.29784 24.873 8.05382 26.0758 7.68465 27.1391C7.27339 28.3237 6.65759 29.546 6.46696 30.7814C6.09421 33.1971 5.04235 35.4506 5.04235 37.931C5.04235 38.9918 4.89356 40.1784 5.15377 41.2162C5.42801 42.3099 5.36133 43.5997 5.83026 44.6283C6.17081 45.3753 5.93863 46.5331 6.11678 47.3501C6.4854 49.0408 6.67004 50.7252 7.04795 52.4207C7.20547 53.1275 7.39167 53.9985 7.70057 54.6585C8.12849 55.5727 8.58527 56.5266 8.94214 57.4517C9.77839 59.6195 11.1219 61.2276 12.9533 62.5619C13.4577 62.9294 14.5212 63.8316 14.8157 64.4188C15.0473 64.8806 15.5613 65.1978 15.8663 65.6408C16.2205 66.1555 16.4454 66.5716 16.9248 66.9898C17.6491 67.6217 18.4058 68.1844 19.2328 68.6483C19.7536 68.9404 20.2342 69.4765 20.745 69.7116C21.1344 69.8908 21.6746 70.0878 22.0184 70.3543C22.4812 70.7132 23.1997 71.035 23.7375 71.2669C24.7673 71.7109 25.6066 72.127 26.523 72.7666C27.2543 73.277 28.1291 73.4459 28.9982 73.7347C30.1528 74.1185 31.2956 74.5526 32.4682 74.8774C32.9046 74.9983 33.6579 75.1284 34.0122 75.3853C34.271 75.5729 34.7545 75.3221 35.0548 75.4884C35.582 75.7804 36.1313 75.6473 36.7023 75.7106C37.1813 75.7637 37.6533 75.9271 38.1348 75.9804C38.4855 76.0193 38.8559 75.9883 39.2093 75.9883C40.0267 75.9883 40.4104 75.3846 41 74.8457" stroke="#261D1B" stroke-width="3" stroke-linecap="round"/>
<path d="M47 47.1504C47 48.522 46.8759 49.7888 46.5807 51.0725C46.4801 51.5098 46.2224 51.2754 45.9793 51.0495C45.1942 50.3201 44.6036 49.3194 43.7243 48.6948C43.2088 48.3284 43.9328 50.053 43.9775 50.3462C44.1112 51.2219 43.9845 51.9184 43.5186 52.6551C43.3902 52.8582 43.3167 53.1714 43.0597 52.8844C42.2341 51.9625 41.5559 50.8936 40.7493 49.9486C40.6338 49.8133 38.8922 47.537 39.6654 48.4501C40.199 49.0803 39.4471 50.0264 39.1827 50.6367C38.9753 51.1156 38.8 51.6516 38.5656 52.1046C38.4995 52.2322 38.3538 52.3027 38.3203 52.4487C38.0997 53.4076 38.2248 50.4861 38.17 49.5052C38.1384 48.9404 38.0275 48.4076 38.0275 47.8385C38.0275 46.5816 36.216 47.7372 35.6064 48.1213C34.9359 48.5439 34.2125 49.0666 33.8182 49.7651C33.4404 50.4345 34.286 49.5662 34.467 49.4287C34.8627 49.1283 35.1158 48.4585 35.1712 47.9761C35.3078 46.7887 35.5997 48.5577 35.6064 48.97C35.6123 49.3352 35.2333 51.0767 35.0367 49.9486C34.8344 48.7881 34.7346 47.4976 35.2503 46.4011C35.7784 45.2787 34.8234 45.7662 34.0398 46.1259C33.1899 46.5159 30.298 46.4623 31.2388 46.4623C31.9024 46.4623 33.08 46.2947 33.4384 45.6366C33.7447 45.0744 33.285 44.1777 33.4938 43.5723C33.6395 43.1502 34.3479 42.8809 33.4068 43.0524C32.6926 43.1826 32.2616 43.7308 31.6898 44.1151C31.2967 44.3794 29.4044 45.3426 29.0551 45.025C28.7373 44.736 29.8885 44.2011 30.1153 44.0616C30.3531 43.9154 30.3732 43.7324 30.6217 43.5723" stroke="#261D1B" stroke-width="3" stroke-linecap="round"/>
<path d="M32.3153 40.8398C32.8512 40.8398 31.8919 40.9747 31.7817 40.9822C31.2698 41.0166 30.7519 40.9905 30.2391 40.9905C29.2648 40.9905 31.5454 39.6342 32.1253 39.6342C33.1857 39.6342 34.0687 39.6182 33.0757 38.1272C32.4406 37.1737 31.8398 36.2296 31.1675 35.3058C31.0455 35.1381 30.8307 34.9175 30.7362 34.7281C30.4249 34.1042 32.2256 35.1652 32.4616 35.3142C32.9386 35.6154 33.6185 36.2842 34.2162 36.1598C34.5838 36.0832 34.482 34.4862 34.3916 34.1756C34.2826 33.8009 33.8945 33.4694 33.8945 33.0788C33.8945 32.7802 33.8945 32.4816 33.8945 32.183C33.8945 31.5128 35.0751 32.8856 35.1812 33.0704C35.5227 33.6656 35.8045 34.4418 36 35.1133" stroke="#261D1B" stroke-width="3" stroke-linecap="round"/>
<path d="M30 38C29.6301 38 29.1987 37.7703 29.0366 37.4583C28.8022 37.0073 29.7618 37 30 37" stroke="#261D1B" stroke-width="3" stroke-linecap="round"/>
<path d="M36 30.3547C36.4535 30.8241 36.5373 31.2876 36.7147 31.8718C36.7911 32.1232 36.6422 32.4731 36.8976 32.6382C37.9542 33.3218 38.7024 32.1098 39.075 31.0898C39.1284 30.9438 39.8218 29.6249 40.1887 30.1044C40.6648 30.7267 40.2331 33.5627 41.2441 33.4437C42.1957 33.3318 42.6944 31.9931 43.1723 31.3635C43.3847 31.0837 44.2812 29.692 44.5186 30.5111C44.7938 31.4604 44.5738 32.2772 44.3192 33.2091C44.2445 33.4823 43.8442 35.1078 44.4521 34.2649C44.9382 33.5908 45.2012 31.5571 46.5382 31.7858C47.2593 31.9092 46.9205 34.4162 46.9205 35" stroke="#261D1B" stroke-width="3" stroke-linecap="round"/>
<path d="M48.3127 33C49.1135 33 48.392 34.9837 48.1859 35.3498C48.0142 35.6548 47.8098 36.4921 48.3444 36.5405C50.2022 36.7085 52.1146 36.4563 53.9723 36.4143C54.6663 36.3986 55.9438 36.05 55.2485 36.8953C55.0037 37.193 54.8071 37.5658 54.5906 37.8889C54.4331 38.1239 54.2519 38.4151 54.0516 38.6143C53.8206 38.8442 53.6877 37.6245 53.6632 37.5025C53.5037 36.7091 53.2637 35.6381 52.8626 34.9398C52.5537 34.402 49.246 38.6289 50.6907 38.9297C51.081 39.011 54.4118 38.8735 54.5589 39.1663C54.7912 39.6284 54.4832 40.2128 54.337 40.633C54.1367 41.2086 56.4558 40.963 56.7467 40.9799C57.108 41.0009 58.5872 40.8072 58.4113 41.4373C58.2444 42.0349 57.6457 42.349 57.4759 42.9039C57.39 43.1848 58.1507 42.3354 57.8405 42.7541C57.2856 43.5033 56.4988 44.304 57.9753 44.1971C58.2458 44.1776 60.2978 43.7981 60.2978 43.8423C60.2978 44.0128 59.9768 45.501 60.0521 45.5534C60.5007 45.8658 61.138 45.3832 61.138 46.2158C61.138 46.5564 60.4339 47.9583 60.7021 48.1634C61.2844 48.6091 62.8536 48.581 63.5477 48.7233C63.9381 48.8033 64.8504 48.8437 65.2044 49.1176C65.478 49.3293 64.6758 49.966 64.5861 50.1742C64.2677 50.9133 66.8521 50.9378 67.3049 51.0258C67.4302 51.0501 68.8169 51.1661 68.5336 51.4832C68.2561 51.7936 67.9753 52.115 67.6854 52.4136C67.0868 53.0304 68.673 52.4247 67.9391 53.1548C67.6037 53.4885 66.4894 54.4627 66.2269 53.833C65.8864 53.016 66.6258 53.2968 67.3208 53.2968C67.9276 53.2968 69.0168 53.1783 69.5403 53.6122C70.0166 54.007 69.3564 54.8399 70 55" stroke="#261D1B" stroke-width="3" stroke-linecap="round"/>
<path d="M58.2915 29.9449C60.0253 30.0107 60.9598 32.5197 62.3067 33.3655C62.4361 33.4468 63.3347 34.2479 63.483 33.9227C64.1046 32.5596 62.8038 30.5282 62.4949 29.2174C62.4307 28.945 62.301 28.5912 62.1655 28.3429C61.6547 27.4068 63.306 28.8616 63.483 29.0472C64.0731 29.6659 64.4872 30.7706 65.271 31.1831C65.3648 31.2325 65.9215 31.4818 65.8905 31.2218C65.7034 29.6524 64.6192 28.152 63.9692 26.741C63.9177 26.6292 63.6253 25.5259 63.8908 25.5182C64.8149 25.4914 65.8807 26.9177 66.3924 27.5536C66.6713 27.9002 66.9853 28.4665 67.3884 28.6835C68.2142 29.128 67.8302 28.429 67.6001 27.7857C67.3324 27.0371 66.5469 26.7811 66.1336 26.2147C66.024 26.0644 65.8737 25.9273 65.7415 25.7968C65.6485 25.705 66.32 25.9911 66.4003 26.06C67.0686 26.6335 67.4748 27.4144 68.0863 28.0179C68.2873 28.2162 68.6569 27.2598 68.7294 27.1047C68.9678 26.595 69.4107 26.6807 69.7959 26.385C70.304 25.995 71.0633 25.5242 70.9958 24.7908C70.9383 24.1668 67.8607 23.9705 67.357 23.955C67.1881 23.9498 66.7936 24.0331 66.6512 23.9395C66.594 23.9019 68.365 22.9896 68.5098 22.9025C68.7142 22.7795 70.2733 21.9284 69.9841 21.8035C69.2485 21.4859 67.9785 21.7262 67.1845 21.7262C66.761 21.7262 66.3375 21.7262 65.9141 21.7262C65.0448 21.7262 65.7766 21.3046 66.165 20.9213C66.6195 20.4728 67.4269 19.7396 67.6001 19.1414C67.8721 18.202 67.1158 18.4987 66.2434 18.53C65.1525 18.5691 63.2518 18.4493 62.3537 19.1878C61.5129 19.8792 63.9437 17.6577 64.4711 16.7113C64.91 15.9239 64.6661 15.9924 63.781 16.2393C62.9709 16.4652 61.9043 16.7445 61.1931 17.1911C60.9287 17.3572 60.3799 17.671 60.0717 17.671C59.8498 17.671 60.4728 16.74 60.5187 16.6494C60.7615 16.1701 60.9604 15.5923 61.0833 15.0707C61.2245 14.4715 61.7096 14.0387 61.993 13.5074C62.0937 13.3186 62.4104 13.065 61.9381 13.2443C61.0688 13.5742 60.2875 14.0404 59.3737 14.2658C58.0008 14.6046 56.6076 14.3515 55.2252 14.5522C54.4511 14.6645 55.9059 14.5398 56.0957 14.3355C56.7017 13.6831 57.1892 13.0605 57.4132 12.1763C57.5178 11.7634 57.7269 11.4374 57.7269 11" stroke="#261D1B" stroke-width="3" stroke-linecap="round"/>
<path d="M57 10.1085C56.4227 10.2036 55.8215 10.6828 55.3397 10.9547C54.768 11.2772 54.1927 11.5098 53.7752 11.9961C53.6872 12.0986 53.8199 10.1468 53.8391 9.74685C53.8589 9.33414 54.0873 9.20564 53.8231 9.6673C53.4975 10.2363 53.0011 10.6735 52.6258 11.2078C52.1627 11.8672 52.9364 9.62151 52.7216 8.86451C52.6687 8.678 52.5616 8.51813 52.4741 8.34378C52.2392 7.8754 52.3682 7.91004 51.8994 8.4812C51.3761 9.1189 50.8405 9.74967 50.311 10.3833C50.1511 10.5746 49.7889 11.1516 49.6405 10.7594C49.4174 10.1698 48.9218 9.73069 48.8263 9.08148C48.7633 8.65324 48.8103 8.19748 48.8103 7.7652C48.8103 6.83568 47.5963 8.60522 47.3736 8.9079C47.2243 9.11071 47.0411 9.32675 46.8707 9.51542C46.5077 9.91737 46.1788 8.55468 46.0725 8.35825C45.7807 7.81935 45.4906 7.21661 45.1066 6.72374C44.997 6.58298 44.3148 7.71259 44.2446 7.83752C44.1295 8.04217 43.9869 8.68034 43.9173 8.4595C43.6998 7.76967 43.2347 7.09284 42.72 6.5574C42.6426 6.47687 42.17 5.85956 42.0575 6.02944C41.6278 6.67826 41.4683 7.58328 41.1954 8.30039C40.7472 9.47808 40.1515 8.10195 39.7746 7.55546C39.5126 7.17563 38.9319 6.18843 38.3937 6.08006C37.8054 5.96161 37.3735 8.95433 37.1724 9.3997C37.0512 9.6681 36.9205 9.37921 36.8292 9.25505C36.3409 8.59145 35.7556 8.01996 35.113 7.4759C34.9953 7.37624 33.3473 6.03237 33.2133 6.10176C32.8406 6.29474 32.5343 7.24171 32.3991 7.59162C32.1908 8.13092 32 8.62527 32 9.1972" stroke="#261D1B" stroke-width="3" stroke-linecap="round"/>
<path d="M36 9.52707C35.3671 9.91756 34.8875 10.2347 34.1667 9.76616C33.4089 9.27352 32.6702 8.49625 32 8" stroke="#261D1B" stroke-width="3" stroke-linecap="round"/>
<path d="M28.7299 8C28.5761 8.28726 27.9745 11.1747 28.8706 11.2243C29.047 11.2341 29.6445 11.3145 29.7775 11.2009C29.978 11.0298 30.1707 9.26168 29.7463 9.26168C29.1039 9.26168 27.8855 11.0166 27.8855 11.567C27.8855 12.1155 26.5258 11.6048 26.3218 11.5047C25.9145 11.3047 25.6473 10.9393 25.3836 10.5857C25.3488 10.539 25.1193 10.0954 25.0708 10.204C24.703 11.0285 24.7894 11.998 24.7894 12.8754C24.7894 13.8653 23.9091 13.3559 23.1397 13.0935C22.3292 12.817 21.5489 12.504 20.7237 12.2757C20.1613 12.1201 20.5834 13.1291 20.6768 13.3583C21.068 14.3173 21.7771 14.9848 20.2624 14.8536C18.9585 14.7406 17.6676 14.2559 16.4079 13.9268C15.5449 13.7013 16.6593 14.5244 16.877 14.9003C17.1309 15.3386 17.4821 15.8151 17.6902 16.271C17.8391 16.5974 16.5695 15.9304 16.4314 15.8505C16.1792 15.7046 15.6884 15.1999 15.6495 15.7414C15.6097 16.2969 15.6334 16.8501 15.7512 17.3925C15.8063 17.6465 15.8338 17.8376 15.5792 17.6106C15.3991 17.4501 13.923 16.4746 14.4924 17.081C15.1274 17.7571 15.7269 18.4348 16.3141 19.1526C16.8324 19.7863 16.1813 19.6355 15.6026 19.6355C14.6265 19.6355 13.6376 19.5878 12.6629 19.6433C11.9352 19.6847 12.2411 20.0754 12.4831 20.5078C12.6258 20.763 13.6648 22.9892 13.1554 22.8442C12.8242 22.75 12.5151 22.635 12.1938 22.5171C11.7609 22.3583 12.814 24.1805 12.9365 24.4798C13.1848 25.086 13.5661 25.7049 12.7332 25.8193C11.6012 25.9749 10.6045 26.0749 9.44166 26.0062C8.69242 25.962 7.94562 25.8963 7.19776 25.8349C6.57695 25.7839 7.6111 25.9859 7.66687 26.0062C8.29493 26.2356 8.9638 26.4975 9.37911 27.0031C9.56526 27.2297 10.001 27.7835 10.0124 28.0779C10.0377 28.7322 8.83862 29.1551 8.35489 29.5031C7.83301 29.8786 10.0241 30.6709 10.2939 30.9128C10.4024 31.0101 10.6852 31.02 10.6535 31.162C10.6034 31.3868 9.55608 31.7452 9.3713 31.8396C8.92028 32.07 7.61995 32.5827 7.61995 33.2648C7.61995 33.8757 8.71671 33.9346 9.1602 33.9346C11.1741 33.9346 7.15285 35.7831 7.04921 36.2477C6.92459 36.8063 7.52762 36.8624 8.07343 37.0498C8.75144 37.2827 9.02728 37.2641 9.02728 38" stroke="#261D1B" stroke-width="3" stroke-linecap="round"/>
<path d="M65.9185 55.2506C66.1815 55.5223 69.136 56.9171 68.8581 57.4337C68.6557 57.8102 66.3147 57.0978 66.0138 57.0398C64.9758 56.8396 63.9188 56.9467 62.8994 56.6458C62.0032 56.3813 64.0686 57.8315 64.3136 58.0903C64.7336 58.534 65.713 59.4157 65.8867 60.0437C66.1895 61.1385 66.4833 62.0393 67.0943 63.0147C67.7743 64.1004 66.094 60.4656 66.3793 59.2065C66.527 58.5544 67.4119 58.6484 67.8968 58.6484C68.3789 58.6484 68.4661 58.86 68.7469 59.2394C68.9375 59.4969 69.2056 59.6297 68.7469 59.7482C67.5396 60.06 66.0863 59.9895 64.8539 59.978C63.9339 59.9694 63.0201 59.9218 62.1129 59.7564C61.9752 59.7313 61.195 59.4256 61.0006 59.5594C60.6125 59.8267 61.293 60.6501 61.4534 60.8316C61.7424 61.1586 62.4098 61.939 62.5975 62.3417C62.8034 62.7835 62.8009 64.0292 63.2728 64.2458C63.4629 64.3331 63.5966 64.237 63.7734 64.41C64.9149 65.5272 62.7385 64.2004 62.2956 63.9996C61.8217 63.7848 60.533 62.9458 60.4921 63.8765C60.4447 64.9535 60.4842 66.0404 60.4842 67.1184C60.4842 67.584 60.5574 68.1344 60.4762 68.5958C60.4249 68.8874 59.5267 67.963 59.4831 67.9227C59.2046 67.6656 58.3177 66.5442 57.8544 66.6506C57.4808 66.7364 58.045 67.8014 58.1086 67.9474C58.3695 68.5463 58.4036 70.1636 57.5445 69.0225C56.8159 68.0548 56.7274 66.9612 55.6775 68.0459C55.0763 68.6669 54.5368 69.3323 54.0329 70.0402C54.0192 70.0595 53.6717 70.8037 53.6277 70.5081C53.5295 69.849 53.6528 69.2732 53.3337 68.645C53.1023 68.1893 52.8785 67.9888 52.7696 68.645C52.5631 69.8896 52.214 71.0943 52.0784 72.3547C51.9799 73.2705 51.7824 72.9265 51.5461 72.207C51.2844 71.4101 50.2631 67.7626 48.8925 69.1785C48.2121 69.8813 47.9146 70.9583 47.5339 71.8459C47.1381 72.7689 47.0343 72.0608 46.8348 71.3863C46.3021 69.5854 46.4693 71.816 46.4693 72.5353C46.4693 74.0661 45.3526 71.3539 45.1187 71.0087C44.8423 70.6009 44.0881 69.9301 43.5456 70.032C43.1973 70.0974 43.1526 71.0788 43.1007 71.337C43.0821 71.4291 43.0281 72.5804 42.8226 72.486C42.6554 72.4093 42.6256 71.8491 42.6081 71.7474C42.4789 70.9974 42.3174 70.3172 41.9566 69.6463C41.5339 68.8603 41.5122 68.9987 41.3131 69.753C41.1101 70.5217 40.9561 71.297 40.892 72.0921C40.8619 72.4645 39.6143 69.1674 39.2871 69.5314C38.7656 70.1116 38.5001 71.0713 38.1192 71.7556C37.6236 72.646 37.6889 71.5328 37.6346 71.0415C37.6285 70.9868 37.6126 69.9236 37.3803 70.229C36.9787 70.757 36.7296 71.7615 36.5223 72.404C36.4164 72.732 36.4184 73.1424 36.2442 72.5025C36.0538 71.8033 35.8993 70.6038 35.1637 70.2618C34.4751 69.9418 33.4953 71.2426 33.0583 71.6489C32.6544 72.0244 32.1685 72.8398 32.1685 71.8951C32.1685 71.5943 32.2852 69.4486 31.8507 69.4165C31.6894 69.4046 31.4312 69.8033 31.3501 69.8843C30.8301 70.4042 30.1454 70.7572 29.5228 71.1236C29.3165 71.245 27.4851 72.5056 27.3379 71.9115C27.187 71.3019 27.3534 70.5623 27.5127 69.9746C27.5388 69.8784 27.6331 69.6134 27.5604 69.6791C27.5275 69.7088 27.3683 70.0256 27.4015 69.9089C27.5653 69.3337 28.0929 68.8405 28.1563 68.251C28.2276 67.5881 26.5994 67.7393 26.0985 67.5945C25.7894 67.505 25.4415 67.4076 25.3358 67.8078C25.2889 67.9855 25.1237 68.5644 25.2564 67.9966C25.2955 67.8292 25.9886 66.4383 25.6218 66.4126C25.1255 66.3778 24.4084 66.9271 24.017 67.143C23.3373 67.5181 22.6604 67.9187 21.9195 68.1526C21.0776 68.4183 21.9306 67.752 22.1737 67.496C22.5203 67.131 22.8225 66.7009 22.8649 66.1746C23.0056 64.4314 22.1699 65.8585 21.5938 66.4536C21.1753 66.8859 22.5987 63.9808 22.0784 63.8273C21.5934 63.6841 17.7318 64.3596 18.1774 65.0502C18.3165 65.2656 20.5602 60.517 19.4089 61.2994C18.6467 61.8174 18.126 62.6445 17.3591 63.1625C16.7428 63.5788 17.2223 62.5499 17.2956 62.3335C17.505 61.7154 18.4462 59.9877 17.3114 61.1599C17.1703 61.3057 17.0033 61.8983 17.0095 61.6852C17.0275 61.0738 17.2499 60.4925 17.3591 59.8959C17.429 59.5143 17.7016 58.558 17.1049 58.7141C15.6865 59.085 14.2635 59.5913 12.8941 60.1258C12.3845 60.3246 13.0335 59.7679 13.1563 59.5841C13.5082 59.0569 14.0228 58.4385 14.1811 57.8113C14.2647 57.4805 14.503 57.0215 14.4274 56.6705C14.3703 56.405 12.5244 57.3831 12.3379 57.4666C12.0582 57.5918 9.85312 58.454 10.5265 57.6471C11.1545 56.8945 11.8762 56.1483 12.4015 55.3162C12.5543 55.0742 12.9814 54.5157 12.4253 54.594C11.817 54.6797 12.2397 54.4328 12.4968 54.0851C12.802 53.6724 13.0908 53.2489 13.4184 52.854C13.6022 52.6325 14.2559 52.0932 13.5456 52.4601C13.2524 52.6115 12.7799 53.0147 12.4333 53.0346C12.1229 53.0524 11.9473 52.7569 11.6547 52.7391C11.1572 52.7089 10.5381 52.3783 10.3994 51.8527C10.1643 50.9623 12.0648 50.8177 12.4253 49.9486C12.5598 49.6246 10.2314 49.9099 9.73199 49.6285C9.40257 49.4429 8.27747 49.0056 8.68326 48.4467C9.11906 47.8464 10.4189 47.6009 10.5662 46.7642C10.6694 46.1778 8.90644 46.1848 8.73093 45.3689C8.59359 44.7304 8.42903 43.8638 8.42903 43.2186C8.42903 42.2717 9.35429 42.3467 9.98623 42.0203C10.6873 41.6582 8.67005 40.8111 8.50053 40.4609C8.26432 39.9729 8.28716 39.445 8 39" stroke="#261D1B" stroke-width="3" stroke-linecap="round"/>
<path d="M65.125 32.25C65.4063 33.5159 68.1105 31.8021 68.5278 31.4444C69.2498 30.8256 69.6541 30.107 70.25 29.4028C70.6056 28.9825 71.125 28.7433 71.125 28.125" stroke="#261D1B" stroke-width="3" stroke-linecap="round"/>
<path d="M37.125 30.25C35.868 30.7738 34.5043 30.5754 33.1806 30.6528C32.4817 30.6936 31.625 30.5676 31.625 31.375C31.625 31.6629 31.6281 31.8706 31.7778 32.125C31.8993 32.3316 32.2088 32.206 32.375 32.1458C33.7066 31.6642 34.8885 30.969 36.2847 30.632C37.9247 30.2361 39.5859 29.9064 41.2361 29.5556C41.9397 29.406 42.7335 29.328 43.3611 28.9445C43.7886 28.6832 43.9938 28.5708 44.4722 28.8472C44.939 29.1169 45.368 29.3891 45.8333 29.6458C46.9412 30.2571 48.52 30.645 49.375 31.5" stroke="#261D1B" stroke-width="3" stroke-linecap="round"/>
<path d="M37.625 37C36.865 37.8075 37.2106 39.0261 36.7778 40C36.6263 40.3409 36.5 40.7273 36.5 41.125C36.5 41.66 36.9059 42.1852 37 42.75" stroke="#261D1B" stroke-width="3" stroke-linecap="round"/>
<path d="M65.75 56C64.0787 55.8922 63.5914 54.4838 62.25 53.7778C61.928 53.6083 61.8098 53.3236 61.5556 53.0694C61.1356 52.6495 60.5585 52.4129 60.125 52C59.7816 51.6729 59.6342 51.2274 59.3819 50.8333C59.0132 50.2572 58.4121 49.867 58.0278 49.2778C57.7025 48.7791 57.1605 48.4843 56.7014 48.125C56.272 47.7889 55.9 47.3534 55.4722 47C54.0895 45.8577 52.9697 44.3186 51.75 43C51.2213 42.4285 50.8965 41.6947 50.3611 41.1181C49.5827 40.2798 48.809 39.434 48 38.625C46.8112 37.4362 45.7925 36.3075 45.125 34.75" stroke="#261D1B" stroke-width="3" stroke-linecap="round"/>
<path d="M73.875 53.375C73.8142 53.1318 73.107 53.0379 72.9028 52.8472C72.5422 52.5107 72.2544 52.1062 71.875 51.7778C70.7458 50.8002 69.6238 49.7571 68.4583 48.8194C65.8417 46.7141 63.0615 44.881 60.6806 42.5C59.9295 41.7489 58.9893 40.9698 58.4306 40.0556C57.4665 38.478 56.1353 36.978 54.6806 35.8333C53.6502 35.0226 52.5589 34.302 51.5278 33.5C51.094 33.1626 50.829 32.6474 50.375 32.375" stroke="#261D1B" stroke-width="3" stroke-linecap="round"/>
<path d="M57.625 31.5C58.4631 31.5524 58.9089 32.8679 59.7431 33.0069C60.1585 33.0762 60.4597 33.5 60.9375 33.5C61.1988 33.5 61.5107 34.4551 61.7083 34.6528C62.2737 35.2182 62.9308 35.768 63.5556 36.125C63.8835 36.3124 63.3447 36.75 63.9375 36.75C64.2132 36.75 64.633 36.9637 64.875 37.125" stroke="#261D1B" stroke-width="3" stroke-linecap="round"/>
<path d="M17.875 21.75C17.341 22.2472 16.6671 22.4697 16.1528 22.9722C15.7278 23.3875 15.4057 23.879 15.0695 24.3681C14.7076 24.8944 14.7459 25.9968 14.6528 26.625C14.5135 27.5655 14.5778 28.5059 14.1945 29.3819C13.7544 30.3878 13.17 31.2247 12.5 32.1181C11.466 33.4968 12.0445 35.7244 11.757 37.3056C11.4522 38.982 11.3921 40.4914 12.0695 42.125C12.2967 42.673 12.3426 43.525 12.375 44.125C12.4027 44.6363 12.7199 45.1249 12.8056 45.6389C13.1457 47.6794 13.3733 49.738 13.9028 51.75C14.0234 52.2082 14.0707 52.7362 13.9723 51.875C13.84 50.7181 13.6863 49.5845 13.4445 48.4444C13.2169 47.3717 13.2632 46.2426 13.25 45.1528C13.2376 44.1233 13.125 43.1023 13.125 42.0694C13.125 40.516 12.6645 39.0381 12.625 37.5C12.5918 36.2058 11.9644 34.8923 12.3056 33.625C12.536 32.769 12.4276 31.8797 12.6875 31C12.9513 30.1072 13.4126 29.3099 13.6806 28.4167C13.9821 27.4116 14.375 26.6809 14.375 25.625" stroke="#261D1B" stroke-width="3" stroke-linecap="round"/>
<path d="M13.75 29.875C13.0724 31.2302 12.6395 32.2125 12.625 33.75C12.6134 34.9768 12.1871 36.154 12.125 37.375C12.0913 38.037 11.875 38.6318 11.875 39.3056C11.875 39.433 11.903 40.0815 11.9306 40.0278C12.3812 39.1491 12.6435 38.1137 12.9028 37.1667C13.3646 35.4801 14.2015 33.6933 14.3472 31.9444C14.3857 31.4823 14.2895 30.9531 14.4028 30.5C14.4693 30.2339 14.6097 30.0326 14.625 29.75C14.7107 28.1644 15.6554 26.5506 16 25" stroke="#261D1B" stroke-width="3" stroke-linecap="round"/>
<path d="M54.125 13.375C52.606 12.0248 50.1761 11.875 48.2361 11.875C45.9509 11.875 43.724 11.625 41.4444 11.625C39.8456 11.625 38.3023 11.9349 36.7083 12C35.9704 12.0301 35.3111 12.375 34.5694 12.375C33.6796 12.375 32.7519 12.5124 31.9028 12.7778C31.01 13.0568 30.2786 13.4124 29.4375 13.8194C28.7612 14.1467 27.9161 14.5952 27.3056 15.0139C26.5548 15.5287 25.7998 16.1427 25.1875 16.8194C24.5407 17.5343 23.6242 17.8809 22.8125 18.375C22.0745 18.8242 21.3526 19.321 20.6528 19.8056C20.0724 20.2074 19.6068 20.8296 19 21.2222C17.4986 22.1937 16.0726 23.2957 15.125 24.875" stroke="#261D1B" stroke-width="3" stroke-linecap="round"/>
<path d="M20.875 17C21.5619 16.0658 22.3154 15.1628 23 14.25" stroke="#261D1B" stroke-width="3" stroke-linecap="round"/>
<path d="M19.375 16.5C18.2148 17.2251 16.9313 17.7793 15.8194 18.5556C15.0193 19.1142 13.6869 20.0643 13.375 21" stroke="#261D1B" stroke-width="3" stroke-linecap="round"/>
<path d="M16.625 25.125C16.7561 23.88 17.5325 22.6656 18.2569 21.6875C18.5909 21.2367 19.625 20.4446 19.625 19.875" stroke="#261D1B" stroke-width="3" stroke-linecap="round"/>
</svg>
