<svg width="80" height="80" viewBox="0 0 80 80" fill="none" xmlns="http://www.w3.org/2000/svg">
<path d="M47.0125 6.40367C43.4297 6.40367 39.8469 6.40367 36.2641 6.40367C35.3091 6.40367 34.3541 6.40367 33.399 6.40367C33.0554 6.40367 32.378 6.27777 32.0767 6.49691C31.8592 6.65505 31.3958 6.75799 31.1273 6.87836C30.6192 7.10613 30.2603 7.66057 29.8812 8.03966C27.4766 10.4443 25.0447 12.8123 22.5532 15.1431C21.8895 15.7639 21.1744 16.3776 20.4255 16.8935C19.5243 17.5144 18.781 18.3201 17.9885 19.0678C16.2419 20.7155 14.1473 22.071 12.5804 23.9164C12.0242 24.5715 11.5945 25.306 11.0546 25.9762C10.7343 26.3738 10.2833 26.8118 9.87636 27.1206C9.52031 27.3907 9.26342 27.8035 8.96089 28.1293C8.68445 28.427 8.65708 29.0497 8.54553 29.4262C8.43516 29.7987 8.4753 30.2379 8.48619 30.6299C8.49463 30.9335 8.75595 31.5223 8.8846 31.8081C9.07493 32.2311 9.35352 32.5944 9.71107 32.8804C10.1298 33.2154 10.5121 33.5845 10.9232 33.9443C11.5735 34.5132 11.9943 35.3151 12.6737 35.8812C13.5364 36.6001 14.3144 37.4062 15.1488 38.1571C16.2045 39.1072 17.2334 40.0113 18.2343 41.0222C19.0071 41.8029 19.8708 42.5088 20.5739 43.3448C21.0218 43.8775 21.6657 44.2651 22.0658 44.8367C22.8062 45.8945 23.9598 46.6577 24.8419 47.5916C25.4345 48.2191 26.1613 48.7698 26.8296 49.3166C27.2194 49.6356 27.6315 49.7037 28.1266 49.732C29.1988 49.7933 30.2734 49.9322 31.3477 49.9609C34.3239 50.0402 37.3042 50.0414 40.2821 50.0414C40.402 50.0414 41.1128 49.9997 41.1043 49.8549C41.0903 49.6178 40.2348 49.1677 40.0786 49.0157C39.3812 48.3371 38.5534 47.8206 37.8577 47.1424C37.3753 46.672 36.9149 46.1945 36.4845 45.6759C36.1792 45.3079 35.7951 45.0111 35.4334 44.7011C35.076 44.3948 34.8319 43.9685 34.501 43.6331C33.7081 42.8291 32.8843 42.0756 32.0767 41.285C31.6295 40.8472 31.1202 40.5601 30.7458 40.0474C30.3614 39.521 29.95 39.026 29.6184 38.4623C29.1233 37.6205 28.6342 36.7825 28.0927 35.9702C27.6713 35.3381 27.2076 34.7239 26.7279 34.1392C26.1135 33.3904 25.625 32.5382 24.969 31.8166C24.635 31.4492 24.3347 31.0634 24.0493 30.6638C23.779 30.2854 24.5362 29.7305 24.8122 29.5618C26.1869 28.7217 27.4966 27.5163 28.5801 26.328C28.8834 25.9953 29.1992 25.6702 29.4913 25.3278C29.7154 25.065 29.8611 24.7287 30.0931 24.4801C30.7254 23.8027 31.4422 23.1851 32.1021 22.5347C32.6135 22.0307 33.0671 21.4992 33.6025 21.0174C34.212 20.4688 34.6158 19.7346 35.2893 19.2373C37.2562 17.7848 39.0055 16.225 40.6466 14.4141C41.3288 13.6612 41.9316 12.8831 42.6979 12.2059C43.4145 11.5727 44.0976 10.7166 44.6051 9.90452C45.035 9.21681 45.4014 8.62028 46.0165 8.08204C46.1972 7.9239 46.4785 7.72891 46.4785 7.47172" stroke="#261D1B" stroke-width="3" stroke-linecap="round"/>
<path d="M36.3319 31.9607C36.8476 31.7888 37.4854 31.8844 38.0188 31.8844C38.9385 31.8844 39.8582 31.8844 40.7779 31.8844C42.2656 31.8844 43.7532 31.8844 45.2409 31.8844C46.2376 31.8844 47.2365 31.8656 48.2331 31.8844C49.642 31.911 51.1141 32.037 52.5053 32.037" stroke="#261D1B" stroke-width="3" stroke-linecap="round"/>
<path d="M52.5054 32.2659C52.798 32.339 53.1361 32.6312 53.387 32.7999C53.7575 33.0491 54.1281 33.3164 54.4889 33.5797C54.9059 33.8841 55.4028 34.229 55.7265 34.6309C55.895 34.84 56.1189 34.9281 56.3029 35.1055C56.6446 35.435 56.9002 35.8771 57.2014 36.2414C57.7024 36.8472 58.2217 37.4182 58.7611 37.9876C59.3434 38.6022 59.8323 39.2877 60.4395 39.8948C61.0436 40.499 61.6065 41.0964 62.2535 41.6495C63.5703 42.7752 64.8857 43.9054 66.2036 45.0317C67.0658 45.7685 67.9594 46.5467 68.6788 47.4306C69.2459 48.1272 70.2249 48.666 70.6454 49.465C71.7602 51.5831 70.0343 53.5049 68.3991 54.7883C67.9433 55.146 67.5002 55.5176 67.0428 55.8733C66.5448 56.2606 66.1868 56.7987 65.7459 57.2465C65.2528 57.7475 64.772 58.2553 64.3049 58.7808C64.0883 59.0244 63.844 59.4068 63.5674 59.5776C63.2914 59.748 63.1102 60.0791 62.8638 60.2981C62.4606 60.6565 62.0965 61.0525 61.7534 61.4679C61.0551 62.3132 60.4188 63.2079 59.7529 64.0787C58.6934 65.4642 57.6863 66.8501 56.3538 67.9949C55.8155 68.4574 55.2972 68.9576 54.7517 69.402C54.0594 69.9661 53.2369 70.3399 52.5562 70.9109C51.8792 71.4787 51.0849 71.9332 50.3693 72.4536C49.9272 72.7751 49.4525 73.0818 48.9961 73.386C48.5093 73.7106 48.1428 74.1701 47.6568 74.471C47.5349 74.5465 47.5247 74.7129 47.377 74.7762C47.2035 74.8506 46.9767 74.9711 46.8769 75.1407C46.7283 75.3934 45.7108 75.217 45.4528 75.217C44.4074 75.217 43.3619 75.217 42.3165 75.217C40.7526 75.217 39.2444 75.282 37.7137 74.9288C36.6935 74.6934 35.6524 74.7592 34.6112 74.7592C34.1883 74.7592 33.7574 74.8355 33.3524 74.8355C33.1661 74.8355 32.6422 75.0024 32.7972 74.8991C33.0514 74.7296 33.3409 74.4887 33.5855 74.293C34.2202 73.7853 35.0235 73.1493 35.4843 72.479C35.8858 71.895 36.3469 71.3876 36.849 70.8854C37.2313 70.5032 37.6263 70.1761 37.9764 69.7623C38.4837 69.1628 38.9909 68.4495 39.57 67.9313C40.1954 67.3717 40.6293 66.6474 41.223 66.0537C41.8872 65.3895 42.4681 64.6179 43.1641 63.9939C43.85 63.379 44.3203 62.5911 45.101 62.0612C45.9373 61.4938 46.6156 60.9663 47.3304 60.2515C47.9767 59.6051 48.6488 59.0379 49.2207 58.323C49.5265 57.9408 49.9349 57.632 50.3227 57.3355C50.5434 57.1667 50.663 56.9413 50.8694 56.7549C51.1379 56.5123 51.4407 56.2839 51.662 55.9962C52.0674 55.4692 52.6455 54.9975 53.1538 54.5764C54.0675 53.8194 54.7761 52.9666 55.5188 52.0588C55.7081 51.8275 55.8956 51.5682 56.0147 51.3002C56.1918 50.9018 56.133 50.9904 55.8198 50.6771C55.1724 50.0297 54.489 49.4396 53.8405 48.7911C53.3469 48.2975 52.9388 47.8011 52.5435 47.2187C52.1676 46.6647 51.6606 46.1802 51.2424 45.6505C50.2218 44.3577 49.2183 43.0499 48.106 41.8318C47.4946 41.1621 46.8559 40.4448 46.131 39.8948C45.5247 39.4349 44.912 38.9965 44.3805 38.4453C43.9284 37.9764 43.4546 37.4462 42.9183 37.0764C42.1986 36.58 41.3466 36.2524 40.6381 35.7328C40.2318 35.4349 39.7562 35.2387 39.3454 34.936C38.7987 34.5332 38.3671 33.9818 37.7942 33.6094C37.4718 33.3999 37.1512 33.1464 36.8406 32.9186C36.6448 32.775 36.2832 32.5498 36.1794 32.3422" stroke="#261D1B" stroke-width="3" stroke-linecap="round"/>
<path d="M40.5279 8.84497C42.0458 8.84497 37.5024 9.15013 35.9845 9.15013C34.5371 9.15013 33.7498 9.3637 32.4328 9.98932C31.7899 10.2947 30.9481 10.6101 30.4323 11.0743C30.0921 11.3804 29.6555 11.7485 30.4577 11.371C31.3964 10.9293 32.31 10.5326 33.3567 10.4047C34.6427 10.2475 35.9304 10.0333 37.222 9.92998C37.678 9.8935 38.2017 9.929 38.6292 9.72654C38.949 9.57503 40.5908 9.42828 40.4177 9.87064C39.9491 11.0683 38.3248 11.9329 37.3407 12.6086C35.5293 13.8524 33.1579 15.5025 30.8646 15.5585C29.4788 15.5923 27.7206 15.2272 26.4143 15.711C26.0077 15.8617 25.5664 16.0138 25.1513 16.1349C24.5478 16.3109 26.1826 15.4073 26.7449 15.1262C28.4033 14.297 30.5189 14.1125 32.3395 13.8801C33.7719 13.6972 31.9755 15.3189 31.6529 15.5839C30.6801 16.383 29.7961 17.4452 28.5928 17.9065C26.1429 18.8456 23.4548 18.4309 20.9469 19.0678C20.5947 19.1572 20.2539 19.2872 19.9297 19.4492C19.7908 19.5187 18.8539 19.8672 19.4211 19.7629C22.2169 19.2487 25.0421 19.373 27.8723 19.373C28.8433 19.373 28.0506 20.7467 28.3555 21.3565C28.4662 21.5779 28.68 21.6098 28.8556 21.7464C29.557 22.2919 27.2931 22.6861 27.084 22.7467C23.6408 23.7434 20.0367 25.0184 16.4204 25.0184C15.5927 25.0184 14.3788 25.8546 13.6061 26.1204C12.1037 26.6372 10.564 26.9061 9.0118 27.2223C8.58239 27.3098 8.04668 27.5933 8.67274 27.2223C10.0096 26.4301 12.2309 26.2572 13.7418 26.1627C15.873 26.0295 18.0153 26.0864 20.1501 26.0864C20.6906 26.0864 20.9949 25.7362 21.4555 26.1712C22.0089 26.6939 22.6629 27.0211 21.5572 27.6292C18.196 29.4779 14.4735 29.3031 10.8936 30.2739C10.0879 30.4924 7.70717 31.2113 8.53711 31.1216C9.5941 31.0073 10.6897 30.1628 11.648 29.7229C13.3713 28.9319 14.9586 27.9266 16.6069 27.0019C18.7022 25.8265 21.0164 25.4056 22.5575 23.4926C22.7493 23.2544 23.0611 23.2515 23.1424 22.967C23.1931 22.7895 21.652 22.8239 21.3538 22.7975C20.99 22.7653 17.8906 22.704 17.7766 22.3906C17.6876 22.1457 19.0483 21.9668 19.1838 21.9499C20.1292 21.8317 21.0647 21.5027 22.015 21.3565C23.9001 21.0665 25.7825 20.9193 27.6774 20.7123C29.1928 20.5467 30.5623 20.3253 31.8902 19.6103C32.4556 19.3059 33.3492 19.0697 33.967 18.9152" stroke="#261D1B" stroke-width="3" stroke-linecap="round"/>
<path d="M22.2184 30.2061C19.3936 31.4615 16.0317 32.3422 12.9364 32.3422C12.4589 32.3422 13.8915 32.3422 14.369 32.3422C16.3218 32.3422 18.2379 32.5627 20.184 32.6473C20.6121 32.6659 21.6362 32.7287 21.8878 33.1898C22.221 33.8008 20.033 34.3891 19.7262 34.4613C18.5378 34.741 17.2304 35.0314 16.0813 35.4277C15.8673 35.5014 15.5933 35.6717 15.3862 35.7752C15.0417 35.9474 16.1539 35.8515 16.539 35.8515C17.3556 35.8515 18.1722 35.8515 18.9888 35.8515C20.5947 35.8515 22.1133 35.9883 23.7102 36.1227C24.2319 36.1667 25.5206 36.0586 24.329 36.5635C21.9774 37.56 19.4744 38.1084 17.073 38.9539C16.6245 39.1119 15.4892 39.3943 16.6068 39.4795C18.3071 39.6092 20.0056 39.6557 21.7098 39.666C24.0022 39.6798 26.3354 39.9094 28.0164 41.4969C29.3547 42.7609 25.9173 43.2365 25.1174 43.4042C24.8403 43.4623 23.0438 43.7924 23.422 43.7856C25.1307 43.7551 26.8302 43.633 28.5419 43.633C30.1915 43.633 31.8559 43.5702 33.5008 43.7178C33.8374 43.748 36.6784 43.8662 35.4673 44.4044C33.4909 45.2828 31.4241 45.7692 29.2709 45.7692C28.5337 45.7692 27.9632 45.9328 27.2535 46.0658C25.6056 46.3748 27.4171 46.3758 28.135 46.2947C29.4954 46.1411 30.8292 46.0006 32.2038 46.1082C33.006 46.171 33.7915 46.6408 34.5773 46.8372" stroke="#261D1B" stroke-width="3" stroke-linecap="round"/>
<path d="M22.8286 26.0866C23.0663 25.4923 24.3856 25.3984 24.8969 25.1711C25.7213 24.8047 26.8089 25.0163 27.7112 24.866" stroke="#261D1B" stroke-width="3" stroke-linecap="round"/>
<path d="M41.9012 34.0205C41.4998 34.1926 40.9952 34.2261 40.6297 34.4698C40.3495 34.6566 41.297 34.3769 41.63 34.3257C43.6445 34.0158 45.503 33.593 47.5552 34.0883C48.8152 34.3925 50.0631 34.9251 51.3951 35.1649C51.5267 35.1886 53.6617 35.496 53.2091 35.8176C52.0955 36.6088 49.9855 36.4746 48.6825 36.6822C47.5164 36.868 44.1114 37.0037 43.6983 38.4792C43.544 39.0304 45.9159 38.644 46.1904 38.6318C47.6351 38.568 49.0846 38.5979 50.5305 38.5979C51.4994 38.5979 52.8957 38.4444 53.8024 38.7844C54.7052 39.1229 55.9427 39.2754 56.9049 39.3523C57.3255 39.386 57.3118 39.4126 57.3118 39.8185C57.3118 40.5673 55.7786 40.6761 55.2519 40.8103C53.7139 41.2024 52.0371 41.483 50.4626 41.658C50.3466 41.6709 49.6949 41.9245 49.9117 41.9462C51.5924 42.1143 53.3988 41.8021 55.0909 41.8021C56.9388 41.8021 58.7924 41.7565 60.5837 42.2683C61.2214 42.4505 59.5371 43.1347 58.9054 43.3364C57.2616 43.861 55.5347 44.2397 53.8363 44.5485C53.6814 44.5767 52.9191 45.0685 53.1497 45.2351C53.7838 45.693 55.2262 45.6272 55.9386 45.6844C57.5297 45.8121 59.1248 45.8616 60.7194 45.9217C62.2486 45.9794 63.7205 45.8504 65.0679 46.6083C65.2902 46.7334 65.3213 47.1242 65.1781 47.3288C64.2745 48.6197 61.6907 48.8312 60.2955 49.1937C59.2211 49.4729 58.1206 49.7131 57.0744 50.0753C56.2245 50.3695 58.8706 50.1868 59.77 50.194C61.1569 50.205 62.5248 50.4612 63.8896 50.6856C64.4303 50.7745 64.9928 51.212 65.5171 51.4146C66.4881 51.7897 66.9953 52.301 65.7884 53.0251C64.0766 54.0522 61.8837 54.5005 59.9819 54.9917C57.6724 55.5882 55.2781 56.152 52.887 56.2887C51.6927 56.3569 55.2717 55.9051 56.4641 56.0004C57.4473 56.0791 58.8469 56.5124 59.6683 57.06C60.0775 57.3328 60.0582 57.5875 60.0582 58.0433C60.0582 58.6727 58.7907 58.9793 58.3459 59.1368C55.3357 60.2029 52.2779 60.8536 49.1742 61.6035C48.3733 61.797 47.5777 62.0292 46.7668 62.1799C46.4824 62.2328 45.6435 62.2787 45.9192 62.3664C46.9204 62.685 48.4359 62.1062 49.4963 62.0951C50.9751 62.0797 52.5283 62.1478 53.955 62.5868C54.4706 62.7454 51.9123 63.7751 51.7172 63.8413C49.2647 64.674 46.6871 65.1821 44.1899 65.8757C42.9693 66.2148 41.74 66.5258 40.4941 66.7573C40.2068 66.8107 39.9794 66.8306 39.7312 66.9777C39.0246 67.3964 40.0752 67.1303 40.545 67.1303C43.3339 67.1303 46.119 67.2829 48.9029 67.2829C49.1661 67.2829 52.3512 67.1362 52.1241 67.8932C51.8377 68.8477 48.6952 69.6397 47.9536 69.9106C45.2305 70.9054 42.4773 71.8985 39.7143 72.7757C38.9919 73.005 41.144 72.8414 41.4435 72.7757C41.8118 72.695 42.1372 72.6231 42.5116 72.6231" stroke="#261D1B" stroke-width="3" stroke-linecap="round"/>
</svg>
