<svg width="80" height="80" viewBox="0 0 80 80" fill="none" xmlns="http://www.w3.org/2000/svg">
<path d="M39.8704 21.8839C39.8704 22.9047 40.1707 23.8495 40.1707 24.8873C40.1707 26.336 40.3209 27.8194 40.3209 29.234C40.3209 30.5674 40.6212 31.9278 40.6212 33.2635C40.6212 33.9866 40.6212 34.7096 40.6212 35.4327C40.6212 35.8518 40.8486 37.1423 40.5878 37.4683C40.1709 37.9895 41.4635 37.7602 41.7392 37.8104C42.3863 37.928 43.129 38.1024 43.7915 38.1024C45.213 38.1024 46.613 38.4027 48.063 38.4027C50.9162 38.4027 53.7695 38.4027 56.6227 38.4027C57.0955 38.4027 57.5683 38.4027 58.041 38.4027C58.5493 38.4027 58.3414 37.5897 58.3414 37.2013C58.3414 35.9666 58.3414 34.7319 58.3414 33.4971C58.3414 30.3513 58.942 27.2735 58.942 24.1448C58.942 23.7027 58.942 23.2605 58.942 22.8183C58.942 21.9897 58.4922 22.0341 57.774 22.0341C55.3202 22.0341 52.9004 21.2833 50.449 21.2833C48.6764 21.2833 46.9459 20.9829 45.1597 20.9829C43.7286 20.9829 42.3335 21.1331 40.9216 21.1331" stroke="#261D1B" stroke-width="3" stroke-linecap="round"/>
<path d="M39.2696 20.5324C39.2696 15.9844 38.9692 11.5604 38.9692 7.01709" stroke="#261D1B" stroke-width="3" stroke-linecap="round"/>
<path d="M58.9419 39.9045C61.5365 39.9045 63.9932 40.2049 66.6006 40.2049C68.9138 40.2049 71.1875 40.3551 73.5084 40.3551" stroke="#261D1B" stroke-width="3" stroke-linecap="round"/>
<path d="M38.8191 20.9829C37.829 20.9829 36.8399 20.9881 35.8992 21.2833C35.3482 21.4561 34.787 21.4908 34.2306 21.5919C33.84 21.663 33.5786 22.0113 33.2295 22.1509C32.4863 22.4482 31.7121 23.0475 31.0103 23.419C30.5538 23.6607 29.8764 24.2192 29.5086 24.587C28.373 25.7225 26.882 26.396 25.7543 27.5237C25.1381 28.1399 24.4588 28.6941 23.9522 29.4258C23.4173 30.1985 23.1561 31.0941 22.6675 31.8619C22.1053 32.7453 21.913 34.0327 21.5495 35.0322C21.226 35.9219 21.0065 36.738 20.7236 37.6435C20.449 38.5222 20.4983 39.4373 20.4983 40.3549C20.4983 41.5536 20.9344 42.4007 21.2825 43.5085C21.5211 44.2676 21.8321 45.0581 22.1836 45.7611C22.5023 46.3986 23.0629 47.0162 23.3182 47.6799C23.4991 48.1503 23.998 48.7856 24.286 49.1816C24.7342 49.798 24.4084 50.5895 24.9284 51.1672C25.6768 51.9988 26.6284 52.4751 27.4062 53.2529C27.9088 53.7555 28.4152 54.2619 28.9162 54.763C29.6108 55.4575 30.3145 55.483 31.1604 55.9059C31.9381 56.2948 33.221 56.3782 33.8635 56.9404C34.4739 57.4746 35.6918 57.198 36.4164 57.3993C37.0808 57.5838 38.1641 57.3774 38.7441 57.6996C39.2793 57.997 40.4748 57.7747 41.0717 57.7747C42.0989 57.7747 43.121 57.6382 44.0751 57.3576C44.9965 57.0866 45.8366 56.4926 46.7448 56.1562C47.0491 56.0435 47.7739 55.919 47.9795 55.7391C48.183 55.5611 48.7702 55.2652 49.0307 55.2218C49.5151 55.1411 50.6293 54.1012 50.9162 53.6867C51.3223 53.1001 51.7618 52.474 52.2594 51.9765C52.8642 51.3717 53.411 50.6723 54.0698 50.1077C54.8308 49.4554 55.2531 48.5261 55.8635 47.78C56.6998 46.7579 56.883 45.2254 57.3736 44.0341C57.7769 43.0545 57.5666 41.8498 57.7406 40.8054" stroke="#261D1B" stroke-width="3" stroke-linecap="round"/>
<path d="M38.0683 5.96582C36.272 5.96582 34.4604 6.26616 32.6455 6.26616C30.9912 6.26616 29.4691 6.63347 27.865 6.94193C25.0543 7.48247 22.8223 9.2717 20.6819 11.0716C18.6886 12.7478 16.7542 14.8134 15.0922 16.8532C14.0534 18.1281 12.6733 19.1144 11.6383 20.4156C10.5327 21.8055 9.86807 23.3887 9.08538 24.9541C8.81419 25.4964 8.4122 26.0873 8.32618 26.6894C8.26088 27.1465 8.12084 27.9039 7.95075 28.3412C7.52855 29.4269 7.83674 30.6564 7.58367 31.7952C7.40058 32.6191 7.36674 33.5139 7.28333 34.3481C7.16334 35.5479 7.07891 36.7734 6.94961 37.9855C6.65448 40.7524 6.68264 43.575 6.68264 46.3617C6.68264 47.2964 6.4778 48.5021 6.86619 49.3651C7.02232 49.7121 7.6163 51.4023 7.73384 51.1672" stroke="#261D1B" stroke-width="3" stroke-linecap="round"/>
<path d="M6.38232 50.2661C6.84278 50.8417 6.8578 52.2396 7.04975 52.9525C7.28016 53.8084 7.36094 54.5672 7.80895 55.3636C8.06509 55.819 8.4888 56.2166 8.78505 56.6567C9.19778 57.2699 9.5689 57.9674 10.1282 58.4504C10.8386 59.0639 11.2911 59.9498 12.0137 60.5612C12.7634 61.1956 13.375 62.0224 14.1245 62.6719C14.7955 63.2535 15.6211 63.7979 16.2185 64.4656C16.8765 65.201 17.5963 66.3406 18.421 66.8767C19.4001 67.5131 20.0695 68.5895 21.1157 69.1126C24.5173 70.8133 28.1835 71.8977 31.903 72.6416C34.2589 73.1128 36.5591 73.2423 38.9694 73.2423C40.3758 73.2423 41.86 73.3828 43.2409 73.0921C44.7605 72.7722 46.3051 72.5506 47.8294 72.3329C48.7797 72.1971 49.7357 71.7886 50.6493 71.4736C51.6653 71.1232 52.7494 71.0876 53.7528 70.7728C55.4136 70.2517 56.8164 69.0871 58.308 68.2032C59.7214 67.3656 61.1512 66.3778 62.3626 65.1664C62.9154 64.6137 63.5472 64.0515 64.0479 63.4478C64.7843 62.5597 65.7856 61.946 66.3672 60.9283C66.8638 60.0592 68.146 59.5014 68.4362 58.5255C68.7101 57.604 69.1832 56.6211 69.6042 55.7557C70.0485 54.8425 70.4829 53.9788 70.7722 53.0026C71.0871 51.9396 71.2185 50.7881 71.5564 49.7322C71.8489 48.8182 71.6435 47.8228 71.8901 46.929C72.069 46.2803 72.571 45.3499 72.6076 44.7098C72.6792 43.4557 72.7578 42.2102 72.7578 40.9556" stroke="#261D1B" stroke-width="3" stroke-linecap="round"/>
<path d="M27.5 7.875C26.5795 9.37518 25.4293 10.5575 24.2986 11.9028C23.337 13.047 22.4771 14.281 21.5 15.4097C20.9466 16.049 20.2882 16.5707 19.75 17.2222C18.2705 19.0132 16.572 20.6398 15.1111 22.4444C14.8685 22.7442 12.8212 25.5936 12.375 25.1944C11.352 24.2791 13.096 21.648 13.5695 20.875C14.4099 19.5028 15.6207 18.444 16.5 17.125" stroke="#261D1B" stroke-width="3" stroke-linecap="round"/>
<path d="M31.5 8C29.9226 9.0735 28.905 10.6006 27.7361 12.0833C26.102 14.1563 24.4286 16.1598 22.6806 18.1389C20.571 20.5275 18.1274 22.4976 15.882 24.7431C15.4548 25.1703 15.1023 25.6497 14.6111 26.0069C14.0979 26.3802 13.5347 26.6868 13 27.0278C12.8344 27.1334 12.3666 27.4911 12.5139 27.3611C13.1549 26.7955 13.8954 26.3434 14.5695 25.8194C16.5631 24.2698 18.5951 22.6509 20.4375 20.9236C22.7176 18.786 24.8232 16.4747 27.0834 14.3194C28.1881 13.2659 29.3047 12.3037 30.7222 11.7083C31.2143 11.5017 31.7256 11.3578 32.2014 11.1111C33.2418 10.5716 34.3832 9.91455 35.5 9.55556C36.2542 9.31313 34.6088 10.8773 34.0486 11.4375C32.3108 13.1754 30.4088 14.6984 28.5695 16.3194C26.2267 18.3842 23.7668 20.4496 21.6389 22.7361C21.4128 22.979 20.8505 23.4567 20.7222 23.7986C20.6649 23.9516 21.0387 23.7061 21.1806 23.625C21.7634 23.292 22.5202 22.8034 23.0625 22.4653C26.0095 20.6278 29.1024 19.2192 32.3611 18.0278C33.3361 17.6713 34.0626 17.4767 34.75 16.75C34.9614 16.5265 36.6552 14.3622 36.4722 14.2778C36.0162 14.0673 34.2325 15.5984 33.8403 15.8264C32.3427 16.6971 36.5334 13.645 37.8334 12.5C39.0932 11.3903 37.6762 12.3807 37.2222 12.6944C35.9614 13.5659 34.7359 14.4654 33.5278 15.4097C32.5113 16.2042 30.701 17.3743 30.3472 18.75C30.0974 19.7215 31.676 18.6361 32.0278 18.4861C33.5828 17.8229 34.9755 16.9668 36.4584 16.1736C36.8335 15.973 38.8608 14.5986 38.3542 15.8333C37.7228 17.3722 36.3783 18.572 34.8472 19.1528C34.1322 19.424 33.4889 20.0749 32.9028 20.5417C32.0593 21.2133 31.2198 21.8894 30.3611 22.5417C29.9042 22.8887 29.4375 23.2201 29.0486 23.6389C27.3435 25.4752 25.0131 26.8389 22.9167 28.1667C22.6525 28.334 22.4139 28.5305 22.1945 28.75C21.7557 29.1887 21.4645 29.4507 21.9722 28.6528C22.9828 27.0648 24.1989 25.6066 25.4375 24.1944C26.7584 22.6885 28.1555 21.2543 29.4931 19.7639C29.664 19.5735 29.8387 19.3861 30 19.1875C30.0438 19.1337 29.8701 19.239 29.8125 19.2778C27.4826 20.8469 25.4047 22.7466 23.1945 24.4722C20.3091 26.7249 17.0729 28.5874 14.5278 31.25C13.5669 32.2553 13.1558 33.8228 12.0417 34.625C11.4152 35.0761 10.6649 35.3398 10.0278 35.7778C9.53182 36.1188 9.18987 36.2947 9.05558 35.4722C8.63278 32.8825 11.4046 30.0999 13.2292 28.6528C14.4271 27.7027 15.5439 26.705 16.6667 25.6667C17.3777 25.0091 18.4938 24.3862 19.0625 23.6042C19.3696 23.1819 18.2238 24.2286 17.7778 24.5C16.4899 25.2839 15.3298 26.2627 14.0556 27.0694C13.3272 27.5306 12.5549 27.9171 11.8264 28.375C11.4231 28.6285 10.9901 29.0461 10.5625 29.2361C10.1777 29.4072 10.5008 28.0407 10.625 27.875" stroke="#261D1B" stroke-width="3" stroke-linecap="round"/>
<path d="M19.625 29.75C18.5159 30.5818 17.5656 31.6259 16.4861 32.5C14.6059 34.0224 12.5487 35.3606 10.7222 36.9444C10.1072 37.4778 9.39634 38.2628 9.02775 39C8.95469 39.1461 8.8756 39.1677 8.77775 39.2778C8.73531 39.3255 9.94693 38.7374 10.0555 38.6667C12.8144 36.8687 15.2599 34.6649 18.125 33.0278C18.8444 32.6167 19.5125 32.1879 20.1666 31.6806C20.3515 31.5372 20.8098 31.1609 21.0694 31.2778C21.7528 31.5853 19.966 33.8889 19.8333 34.0417C18.0395 36.1059 15.6478 37.6826 14 39.8611C13.4939 40.5302 13.0502 41.7258 12.4305 42.2569C11.5104 43.0457 10.409 43.5607 9.50692 44.3125C9.31973 44.4685 9.26256 43.7749 9.25692 43.6875C9.20348 42.8592 9.88961 42.3772 10.4861 41.9167C12.5303 40.3382 14.5925 39.1108 16.9305 38.0556C17.226 37.9222 17.895 37.4882 18.25 37.5C18.6025 37.5117 17.2161 38.8997 17.125 39C15.7223 40.543 14.2558 42.0297 12.75 43.4722C11.6899 44.4877 10.5956 45.5638 9.4722 46.5C9.12577 46.7887 8.56927 47.1362 8.49303 47.5556C8.42998 47.9024 8.22441 48.2909 8.12498 48.6389C7.81508 49.7235 8.15342 49.6988 9.15275 49.3542C11.3962 48.5806 13.118 46.9762 14.6805 45.2639C15.3213 44.5616 15.9877 43.8873 16.6597 43.2153C16.8112 43.0638 16.9882 42.8087 17.2083 42.75C17.7769 42.5984 18.3254 42.5294 18.8541 42.2431C19.2609 42.0227 19.6118 41.7174 20.0555 41.5694C20.2444 41.5065 19.8553 41.9213 19.7083 42.0556C18.784 42.8999 17.8147 43.6932 16.8819 44.5278C15.8655 45.4372 14.9334 46.489 14.0833 47.5556C13.0419 48.8621 11.9722 50.1611 11.0694 51.5694C10.7304 52.0982 10.6795 52.7274 10.375 53.2222C10.1642 53.5648 10.1186 53.9638 9.9722 54.3194C9.91268 54.464 10.6473 53.9068 10.7222 53.8472C11.6179 53.1343 12.4986 52.4843 13.5139 51.9444C15.5751 50.8483 17.6801 49.8275 19.75 48.75C20.1964 48.5176 21.3035 47.5891 21.0833 48.0417C20.8982 48.4223 20.4741 48.8023 20.2083 49.1111C19.4387 50.0052 18.6807 50.9101 17.8889 51.7847C17.8047 51.8777 15.7375 53.8866 15.6944 53.7431C15.5779 53.3546 16.0758 52.4126 16.1944 52.0972C16.4647 51.3787 16.7601 50.6718 17.0069 49.9444C17.3869 48.8244 17.8849 47.5917 17.993 46.4028C18.0182 46.1257 18.0344 46.1872 18.25 46.0486C18.5794 45.8369 18.9608 45.6389 19.368 45.6389C19.4135 45.6389 18.5804 47.0016 18.493 47.1389C17.7235 48.3482 16.9669 49.4599 15.9722 50.5C14.403 52.1409 12.7693 53.7036 11.0833 55.2222C10.4937 55.7533 10.0687 56.3268 9.62498 56.9722C9.34988 57.3724 9.24998 57.5438 9.24998 58.0278C9.24998 59.2926 11.3768 57.6199 11.7639 57.3611C13.0864 56.4766 14.3009 55.4543 15.5833 54.5139C16.5863 53.7784 17.6652 53.1346 18.6389 52.3611C19.5565 51.6322 20.4549 50.9169 21.5 50.375C21.869 50.1836 22.3791 50.0338 22.6944 49.75C22.8666 49.595 22.9835 49.5645 23.1944 49.4722C23.5394 49.3213 22.6551 50.0002 22.4166 50.2917C20.5094 52.6228 18.1911 54.7085 16.0833 56.8611C15.8018 57.1486 15.441 57.3845 15.1875 57.6944C14.8717 58.0804 14.789 58.304 14.6041 58.7083C14.5412 58.846 13.984 59.9443 14.1875 59.7917C15.0778 59.1239 15.9421 58.2449 16.7222 57.4514C18.0191 56.1322 19.2444 55.0882 20.8333 54.1181C21.8583 53.4923 22.9027 53.0056 23.9861 52.5C24.0965 52.4485 25.3513 51.6862 25.0833 52.2222C23.8365 54.7158 22.0056 56.9184 20.625 59.3194C20.2027 60.0539 19.4684 60.6976 19.1528 61.4722C19.0133 61.8144 18.78 62.11 18.4444 62.2778C18.1337 62.4331 17.6818 62.6778 17.3194 62.5972C16.5911 62.4354 17.8278 61.5529 18.0069 61.3889C20.0653 59.5045 22.5951 58.0913 25.0833 56.8472C25.4855 56.6461 26.3348 56.6851 26.6319 56.4375C26.869 56.2399 27.704 56.2278 27.2778 56.7222C25.9879 58.2185 24.6756 59.6998 23.3819 61.1875C22.5843 62.1048 21.486 62.8425 20.7986 63.8472C20.3138 64.5558 21.6354 64.1624 21.9166 64.0903C23.6093 63.6563 25.2359 62.7239 26.7847 61.9444C28.0288 61.3183 29.2263 60.5086 30.5 59.9514C31.0858 59.6951 31.6522 59.4819 32.1875 59.125C32.8233 58.7011 33.1797 58.2163 32.2222 58.75C30.9193 59.4762 29.8693 60.4484 28.6528 61.3056C27.3608 62.2158 25.9594 62.9963 24.6111 63.8194C24.2045 64.0676 23.7449 64.3106 23.4028 64.6528C22.8052 65.2503 22.6278 66.2847 21.9861 66.8194C21.892 66.8978 21.2355 67.4975 21.4861 67.2708C21.9583 66.8436 22.3544 66.4047 22.7361 65.8958C23.8266 64.4418 24.8847 62.9571 26.125 61.625C26.7396 60.9648 27.3629 60.3106 27.9722 59.6458C28.1326 59.4708 28.1958 59.2021 28.3819 59.0625C28.5199 58.959 29.0337 58.3581 28.75 58.5" stroke="#261D1B" stroke-width="3" stroke-linecap="round"/>
<path d="M29.25 58.2501C29.25 58.0605 29.2556 57.8701 29.25 57.6806C29.2485 57.6289 29.2728 57.5169 29.2222 57.5279C28.4548 57.6947 27.2645 58.5349 26.6667 58.8612C23.4192 60.6339 20.5525 62.5285 17.6111 64.7779C17.2206 65.0765 16.806 65.4637 16.375 65.7223C16.2888 65.774 16.5785 65.6942 16.6667 65.6459C17.6686 65.0972 18.3055 64.3103 18.9931 63.4376C19.3551 62.9781 19.5137 62.5563 19.6528 62.0001C19.7123 61.7619 19.7361 61.4237 19.9306 61.257C20.1268 61.0888 19.4121 61.2846 19.1597 61.3404C18.1431 61.565 17.1315 61.8543 16.0833 61.8751C15.1909 61.8927 15.4918 61.1026 15.75 60.5001" stroke="#261D1B" stroke-width="3" stroke-linecap="round"/>
<path d="M33.25 58.5C33.25 58.8281 33.1699 58.9453 32.9444 59.2083C31.6621 60.7044 30.2783 62.1673 28.9028 63.5764C27.8375 64.6676 26.6217 65.6307 25.625 66.7778C25.5399 66.8757 24.2883 68.5164 24.5486 68.4375C26.6198 67.8099 28.335 66.0765 30.125 64.9306C31.2361 64.2192 32.5385 63.8589 33.6111 63.125C34.6262 62.4304 35.67 61.8412 36.75 61.2778C37.1393 61.0747 37.5923 60.824 37.9375 60.5556C38.0104 60.4988 38.1015 60.3953 37.9236 60.5139C37.2672 60.9515 36.7332 61.6404 36.1528 62.1667C34.0262 64.0949 31.4495 65.5643 29.4167 67.5972C29.0371 67.9768 28.3127 69.0186 29.375 68.6806C30.2171 68.4126 30.8479 67.8774 31.5069 67.3056C32.866 66.1264 34.2596 64.9292 35.4861 63.6111C35.9365 63.1272 36.6216 62.6351 36 61.9444C35.6788 61.5876 35.4836 61.0098 35.2083 60.6111C35.0737 60.4162 34.3447 59.6155 34.5139 59.3194C34.7544 58.8985 36.4165 58.9566 36.8333 58.875C37.3287 58.7781 37.8133 58.6131 38.3055 58.5C38.6527 58.4203 39.4933 58.0477 39.8611 58.1528C40.2578 58.2661 39.883 59.2983 39.7778 59.4792C39.0086 60.8021 38.3516 62.0052 37.2222 63.0556C35.8738 64.3096 34.5095 65.5344 33.125 66.75C32.3501 67.4304 31.5676 68.104 31 68.9722C30.7179 69.4037 31.2013 69.1334 31.4444 69.0556C32.4898 68.721 33.521 68.3867 34.5 67.8472C36.899 66.5253 39.1097 64.811 41.4167 63.3333C42.4751 62.6554 43.6291 62.1277 44.493 61.1875C45.0213 60.6127 45.5169 60.0122 46.0417 59.4375C46.1707 59.2961 46.5006 58.7784 46.0694 59.0833C45.4031 59.5546 44.791 59.9577 44.0278 60.25C43.1393 60.5903 42.6015 61.2052 41.8472 61.7639C39.9846 63.1436 38.7333 64.6527 37.5 66.5556C37.022 67.293 37 67.9036 37 68.75C37 69.5806 36.5184 69.8185 35.7222 69.9861C35.0036 70.1374 34.2879 71.4483 33.5694 71.2431C33.3524 71.181 34.1821 70.7141 34.2708 70.6875C35.6262 70.2809 37.0042 70.0011 38.3333 69.5C39.8851 68.9149 41.6125 68.5142 42.375 66.9444C43.0937 65.4648 44.3419 64.2027 45.2708 62.8403C45.951 61.8427 46.5547 60.8849 46.9444 59.7361C47.0476 59.4321 47.1462 59.0778 47.3194 58.8056C47.5082 58.5089 47.6553 58.1893 47.8125 57.875C48.2824 56.9351 45.6185 59.1671 45.4583 59.3194C43.8405 60.8577 42.2937 62.6642 41.0417 64.5139C40.4573 65.3772 40.1697 66.318 39.6805 67.2222C39.2193 68.0749 39.385 68.6911 40.2708 69.1944C40.7089 69.4434 41.5213 70.2844 41.9722 69.75C42.2238 69.4518 42.4102 69.2007 42.6319 68.8681C44.151 66.5895 45.1376 63.948 46.4305 61.5417C46.8955 60.6763 47.0959 59.7173 47.618 58.8819C48.0367 58.2121 48.4565 57.5446 48.875 56.875" stroke="#261D1B" stroke-width="3" stroke-linecap="round"/>
<path d="M60.4999 42.1249C60.2184 42.8006 59.336 43.2134 58.9722 43.8749C58.858 44.0825 57.7517 44.9661 57.7847 45.0485C57.9089 45.359 64.5679 42.383 65.4999 42.2499C66.4453 42.1148 67.6142 42.2292 68.4999 41.8749C68.8107 41.7506 69.0828 41.7499 69.4166 41.7499C69.5764 41.7499 69.9917 41.6359 69.8958 41.7638C69.5296 42.252 68.1467 42.6745 67.6111 42.9304C66.2913 43.561 65.0901 44.317 63.8055 44.9999C62.8011 45.5339 62.0494 46.1867 61.1805 46.8818C60.3261 47.5654 59.4948 48.2918 58.7638 49.1041C58.1779 49.7551 57.0229 49.8802 56.2499 50.2499C56.1491 50.2981 55.6501 50.5442 55.6805 50.5138C56.3539 49.8404 57.104 49.3595 57.993 48.9999C60.5602 47.9615 63.4773 47.7231 66.1944 47.2777C66.721 47.1913 67.5116 46.978 67.9513 46.6735C68.2456 46.4697 68.5616 46.3157 68.868 46.1318C69.0709 46.0101 69.3965 46.0658 69.5277 45.8749C69.7027 45.6204 69.9999 45.5795 69.9999 45.1874C69.9999 44.7886 69.3436 45.2998 69.2291 45.361C67.7176 46.1685 66.3211 47.0596 64.9999 48.1527C63.4696 49.4189 61.9686 50.7212 60.4027 51.9443C59.7489 52.455 59.1454 52.9277 58.3611 53.1943C57.6848 53.4242 57.2464 53.8857 56.4791 54.0068C55.4586 54.168 54.4786 54.445 53.4444 54.5554C52.7784 54.6266 52.1106 54.681 51.4444 54.7499C51.2709 54.7678 50.2168 54.8779 50.2499 54.861C53.015 53.4514 55.9418 52.3464 58.9652 51.6388C60.1921 51.3516 61.6634 51.4123 62.8055 50.8749C63.3604 50.6137 63.9202 50.5754 64.4999 50.4304C65.1949 50.2567 65.9227 50.3306 66.5972 50.0971C66.9763 49.9659 67.4238 49.8432 67.8124 49.7568C68.1585 49.6799 68.5375 49.7966 68.8888 49.7221C69.0784 49.6819 69.0213 49.8312 68.9722 50.0277C68.7667 50.8496 67.6419 51.5534 67.0138 51.986C64.194 53.9279 60.8992 55.9118 57.3749 55.9999C55.9104 56.0365 54.484 56.9969 53.1388 57.486C52.2282 57.8171 51.3691 57.9668 50.4305 58.1249C49.8492 58.2228 49.2559 58.2172 48.6805 58.3471C47.7736 58.5519 50.5061 57.9936 51.4166 57.8054C54.3961 57.1897 57.5525 56.4341 60.5972 56.2221C61.9718 56.1264 63.5343 56.1848 64.8749 55.8124C65.7632 55.5657 66.7327 55.5653 67.6319 55.3124C68.8336 54.9744 66.7502 55.5714 66.5763 55.6179C65.042 56.0292 63.5021 56.3169 62.0416 56.9721C58.8244 58.4155 55.8602 60.3961 52.6041 61.7916C51.4803 62.2732 50.4923 63.0103 49.3749 63.4999C48.2262 64.0033 47.219 64.5467 45.9999 64.8749C45.3605 65.0471 45.0641 65.2652 45.2013 64.4721C45.355 63.5842 45.6806 62.9769 46.4166 62.4443C48.2627 61.1085 50.369 60.1839 52.2291 58.8749C52.4961 58.687 52.7401 58.4741 52.9999 58.2777C53.0052 58.2737 53.2668 58.0921 53.2708 58.1041C53.3562 58.3602 52.9399 58.5312 52.7638 58.736C52.1059 59.5015 51.4318 60.254 50.7222 60.9721C48.9817 62.7336 47.4928 64.8571 45.6111 66.4582C44.5741 67.3405 43.2293 68.2262 42.4444 69.3679C42.0968 69.8735 42.9106 69.4237 43.1249 69.3402C44.5583 68.7817 45.8644 67.9897 47.2222 67.2777C50.443 65.5887 53.8328 64.2899 57.2291 63.0068C58.814 62.4081 60.4722 61.9363 61.9861 61.1666C62.9656 60.6685 63.8796 60.0335 64.8055 59.4443C65.079 59.2703 65.2678 59.1626 65.4999 58.9304C66.2108 58.2196 63.5683 59.0777 63.3472 59.1318C62.0787 59.4425 60.388 59.606 59.6805 60.7638C59.2065 61.5395 58.5826 62.4172 57.9444 63.0554C55.1835 65.8163 51.2031 66.7126 47.6805 68.0277C46.5784 68.4391 45.4666 68.9676 44.3194 69.2429C44.2584 69.2576 43.6062 69.44 43.993 69.3541C45.2369 69.0776 46.4644 68.532 47.6388 68.0554C48.7237 67.6152 49.8784 67.2963 50.9166 66.7499C51.797 66.2865 52.593 65.6724 53.4583 65.1804C54.2682 64.7199 55.3294 64.0265 56.2499 63.7777C57.0677 63.5567 58.0555 63.1291 58.7916 62.6874C59.1027 62.5007 59.1111 63.0767 59.1111 63.3054C59.1111 63.9605 58.5979 64.499 58.1944 64.9582C57.1361 66.1625 55.8987 66.7436 54.4722 67.4166C52.3865 68.4004 50.1032 69.1728 47.8888 69.8054C46.7912 70.1191 45.6814 70.4423 44.6041 70.8193C43.9861 71.0356 42.7513 71.179 42.2777 71.6527C42.2556 71.6748 42.8252 71.3314 42.8888 71.2916C44.4063 70.3412 46.0529 69.5687 47.6666 68.7985C48.4997 68.4009 49.1548 68.04 49.8749 67.4999" stroke="#261D1B" stroke-width="3" stroke-linecap="round"/>
<path d="M20.5625 10.1875C18.2761 11.4627 16.1213 12.9886 14.1875 14.7465C13.7325 15.1602 13.3785 15.6525 12.9862 16.125C12.6392 16.5428 12.2636 16.9022 11.9653 17.3611C11.6811 17.7983 11.4152 18.3286 11.1841 18.7986C10.8874 19.4017 10.5904 20.0336 10.3438 20.6597C9.84801 21.9182 9.34771 23.1777 8.75351 24.3958C8.5324 24.8491 8.41189 25.3261 8.21532 25.7847C8.04434 26.1837 8.11309 26.6328 7.93754 27.0278C7.76517 27.4156 7.70362 27.9011 7.59379 28.316C7.48579 28.724 7.36505 29.133 7.21532 29.5278C7.05272 29.9565 6.77211 30.4119 6.70143 30.8681C6.63253 31.3128 6.55193 31.7556 6.48615 32.2014C6.3559 33.0842 6.06254 33.9626 6.06254 34.8611C6.06254 35.5136 6.00004 36.1526 6.00004 36.809C6.00004 38.5201 6.06254 40.2267 6.06254 41.941C6.06254 43.3548 6.07067 44.7421 5.86115 46.1389C5.73218 46.9987 5.69554 47.9429 5.75351 48.8125C5.77169 49.0852 5.82716 49.9375 6.18754 49.9375" stroke="#261D1B" stroke-width="3" stroke-linecap="round"/>
<path d="M36.625 8.5625C36.625 8.42516 36.6153 8.35742 36.75 8.3125" stroke="#261D1B" stroke-width="3" stroke-linecap="round"/>
</svg>
