<svg width="80" height="80" viewBox="0 0 80 80" fill="none" xmlns="http://www.w3.org/2000/svg">
<path d="M6 19.6775C6.3039 19.9609 6.51334 20.2834 6.77351 20.6007C7.14414 21.0527 7.66805 21.4228 8.13146 21.776C9.52289 22.8367 10.5176 24.3635 11.8168 25.5302C12.3775 26.0338 13.0623 26.4633 13.5495 27.0224C13.7893 27.2976 14.117 27.4622 14.354 27.7582C14.6224 28.0937 15.1508 28.3153 15.4884 28.5963C15.6976 28.7704 15.804 29.0019 15.9972 29.1857C16.1242 29.3064 16.239 29.4661 16.396 29.5502C16.495 29.6032 16.6201 29.5971 16.7054 29.6728C17.0504 29.9787 17.4772 30.1625 17.8331 30.4564C18.3646 30.8953 19.1548 31.183 19.8339 30.8652C20.0903 30.7452 20.2794 30.4882 20.5077 30.3201C20.8817 30.0448 21.234 29.7818 21.5322 29.4207C21.7067 29.2094 21.8394 28.9686 22.0135 28.753C22.2583 28.4498 22.6307 28.2393 22.897 27.949C23.3613 27.4429 23.8683 26.8471 24.4268 26.4364C25.1174 25.9287 25.7811 25.5325 26.3314 24.8693C26.9369 24.1395 27.7319 23.5552 28.3666 22.8423C28.8251 22.3274 29.4891 21.8937 29.8827 21.3366C30.3943 20.6123 31 20.3104 31 19.3709C31 18.7564 30.1759 18.0684 29.7693 17.6607C28.8207 16.7096 27.7262 15.9045 26.9433 14.799C26.4311 14.0758 25.7719 13.477 25.1866 12.8197C24.6003 12.1612 24.0458 11.5359 23.5605 10.7995C23.299 10.4027 22.9061 10.126 22.5979 9.77072C22.2488 9.36824 21.9382 9.00528 21.5116 8.68397C21.038 8.3273 20.5302 8.01552 20.0608 7.65855C19.8966 7.53371 19.7043 7.40277 19.5864 7.23271C19.4665 7.0599 19.3698 6.95607 19.1463 7.01808C18.8242 7.10746 18.2837 7.12787 18.0325 7.35194C17.8534 7.51162 17.6075 7.63739 17.3999 7.76756C16.992 8.02329 16.6523 8.38566 16.2413 8.61584C16.065 8.71462 15.9674 8.90699 15.8391 9.05531C15.6287 9.2986 15.3872 9.52125 15.155 9.74346C14.5814 10.2922 14.0589 10.8888 13.4532 11.4059C12.7769 11.9835 12.1967 12.6329 11.5418 13.232C11.064 13.669 10.5429 14.0719 10.0842 14.5265C9.50535 15.1001 9.13911 15.8385 8.57838 16.4206C8.2044 16.8089 7.93475 17.3215 7.54015 17.6845C7.26148 17.941 6.86634 18.2255 6.86634 18.635C6.86634 18.7917 6.84742 18.9637 6.86977 19.1188C6.88644 19.2343 6.9901 19.299 6.9901 19.4322" stroke="#261D1B" stroke-width="3" stroke-linecap="round"/>
<path d="M58.9928 7.18304C58.1547 7.95459 57.2312 8.60654 56.3805 9.36596C55.2697 10.3577 54.1574 11.3561 53.1 12.4031C52.5704 12.9275 51.9824 13.3862 51.399 13.847C50.9191 14.226 50.5047 14.6865 50.0355 15.0809C49.6267 15.4243 49.2136 15.7572 48.8137 16.1113C48.1596 16.6904 47.5593 17.3237 46.944 17.9417C46.3564 18.5317 45.794 19.1295 45.2699 19.7755C44.2043 21.089 42.9294 22.2787 41.7363 23.477C40.0997 25.1206 38.5483 26.855 36.9269 28.5173C36.5096 28.9451 36.1819 29.4561 35.7557 29.8732C35.4404 30.1818 35.0917 30.4553 34.7803 30.768C34.1421 31.4091 33.401 31.9934 32.8161 32.6798C32.5233 33.0234 32.2128 33.3467 31.8947 33.6662C31.5942 33.9679 31.3726 34.3323 31.0813 34.639C30.4111 35.3447 29.858 36.1388 29.171 36.8287C28.3373 37.666 27.4634 38.4719 26.498 39.1506C25.8045 39.6381 25.152 40.181 24.473 40.6861C24.0965 40.9662 23.7537 41.2536 23.4065 41.5674C23.084 41.8589 22.6431 42.1079 22.3602 42.4284C22.014 42.8207 21.5542 43.1027 21.206 43.4995C20.7328 44.0387 20.2159 44.5323 19.7142 45.0451C18.3682 46.4211 17.0836 47.8628 15.7621 49.2618C14.9252 50.1477 14.2594 51.2077 13.5717 52.2074C13.2407 52.6885 12.8148 53.0646 12.4579 53.5226C11.9561 54.1666 11.44 54.7765 10.8581 55.3496C10.3759 55.8246 9.79656 56.2055 9.27863 56.6377C8.71742 57.1059 8.18624 57.6071 7.63161 58.0816C7.27132 58.3899 6.76814 58.9773 7.11861 59.5053C7.26624 59.7277 7.41769 59.9603 7.53711 60.2002C7.64074 60.4083 7.72254 60.665 7.87124 60.8476C7.97598 60.9761 7.99642 61.1496 8.08386 61.2882C8.16778 61.4213 8.30793 61.5141 8.38762 61.6441C8.70786 62.1668 9.02159 62.5827 9.17062 63.2135C9.32327 63.8596 9.36939 64.3458 9.81188 64.8711C10.0117 65.1082 10.1767 65.3028 10.4194 65.5117C10.7991 65.8386 11.2281 66.0339 11.6378 66.3083C12.1023 66.6193 12.7104 66.811 13.0587 67.2675C13.3975 67.7117 13.471 68.3459 13.9429 68.6979C14.1588 68.859 14.4472 69.0426 14.6787 69.1725C15.0544 69.3834 15.3445 69.618 15.7587 69.7826C16.0622 69.9033 16.3644 70.0877 16.6463 70.247C17.3021 70.6175 18.0304 70.9793 18.7186 71.3046C19.1382 71.5029 19.5415 71.7204 19.9606 71.9147C20.3386 72.0899 20.3592 71.8348 20.7065 71.7961C20.9847 71.765 21.1875 71.4796 21.4355 71.369C21.8696 71.1752 22.2369 70.859 22.6775 70.6707C23.1454 70.4707 23.4499 70.0892 23.879 69.8572C24.3973 69.5769 24.8109 69.1303 25.1885 68.6912C25.863 67.9068 26.7675 67.3515 27.4363 66.5455C28.254 65.56 29.1543 64.5836 30.1363 63.7559C31.1455 62.9052 32.2389 62.1137 33.3358 61.3831C34.3734 60.6921 35.2354 59.8221 36.2147 59.068C36.6597 58.7254 36.9596 58.2479 37.3994 57.9122C37.5834 57.7717 37.7165 57.5956 37.8516 57.4105C38.0157 57.1858 38.2672 57.0473 38.4524 56.8444C38.8143 56.4479 39.1988 56.0375 39.5999 55.675C39.7447 55.5441 40.355 55.9924 40.5246 56.0546C40.7057 56.1211 40.8736 56.2265 41.0444 56.3123C41.2939 56.4375 41.4586 56.651 41.6924 56.8004C42.2638 57.1655 42.7904 57.687 43.3192 58.1155C43.858 58.5523 44.4127 58.9891 44.8447 59.5392C45.1895 59.9783 45.6837 60.2645 46.0529 60.6781C46.518 61.1991 46.9733 61.7224 47.403 62.278C47.6361 62.5795 47.9306 62.819 48.1488 63.1322C48.3489 63.4191 48.5758 63.6745 48.8475 63.8948C49.8216 64.6851 50.7844 65.4894 51.7601 66.2676C52.2897 66.69 52.6218 67.2491 53.127 67.7048C53.618 68.1476 54.1654 68.5956 54.6053 69.0844C54.9078 69.4205 55.2749 69.7147 55.5975 70.0334C56.0202 70.4511 56.5067 70.9791 57.0218 71.2808C57.3657 71.4823 57.6275 71.8889 57.933 72.1486C58.1847 72.3624 58.4553 72.5562 58.7464 72.6841C59.27 72.9142 59.5943 73.2635 60.0829 72.6807C60.7294 71.9097 61.2797 71.0753 61.8616 70.2572C62.2295 69.7399 62.7666 69.382 63.1711 68.8945C63.5385 68.4518 63.9122 68.095 64.3658 67.7421C64.8875 67.3363 65.3787 66.8206 65.8576 66.3659C66.2726 65.9718 66.7275 65.6075 67.13 65.2032C67.5142 64.8173 67.8726 64.4032 68.2573 64.0169C68.6112 63.6614 68.9561 63.1665 69.3474 62.8678C70.1906 62.2242 70.5962 61.1187 71.3387 60.373C71.7765 59.9333 72.2013 59.4392 72.5537 58.9968C72.6866 58.83 72.2859 58.6895 72.1622 58.5901C71.6545 58.1822 71.1301 57.7434 70.6704 57.2817C70.1594 56.7685 69.6709 56.2107 69.1651 55.6852C68.5577 55.054 67.7469 54.6609 67.103 54.0717C66.3003 53.3372 65.4416 52.6261 64.6831 51.8481C64.3485 51.5049 64.0769 51.1168 63.7921 50.7329C63.4653 50.2924 63.0594 49.919 62.756 49.4618C62.515 49.0988 62.2005 48.7982 61.9696 48.428C61.6569 47.9266 61.3562 47.4231 61.0583 46.9128C60.5947 46.1185 60.0424 45.2789 59.4788 44.5536C58.6753 43.5197 57.7137 42.6687 56.7855 41.7572C56.3474 41.327 55.9305 40.6981 55.4085 40.3742C55.2565 40.2799 55.1418 40.0798 55.017 39.9471C54.7603 39.6742 54.9003 39.5006 55.1689 39.215C56.1343 38.1884 57.4263 37.6291 58.392 36.6151C59.0345 35.9405 59.6602 35.2652 60.2821 34.5712C61.0655 33.6969 61.7426 32.7387 62.5568 31.8866C63.537 30.8609 64.2701 29.6226 65.2569 28.5919C65.8336 27.9895 66.4029 27.3864 66.9646 26.7683C68.3141 25.2832 69.7269 23.8585 71.0484 22.3482C71.4544 21.8843 71.8755 21.3544 72.1757 20.8161C72.3715 20.4649 72.643 20.1439 72.8135 19.7823C72.9626 19.4662 73.147 19.446 72.8102 19.1077C72.3831 18.6788 71.9253 18.248 71.4737 17.8468C70.8992 17.3364 70.4246 16.692 69.8334 16.2062C69.1324 15.6302 68.3809 15.0937 67.6531 14.5521C66.8009 13.9178 65.8945 13.372 65.1354 12.62C64.636 12.1253 64.1949 11.6124 63.7651 11.0574C62.6195 9.57814 61.3358 7.84101 59.6611 7" stroke="#261D1B" stroke-width="3" stroke-linecap="round"/>
<path d="M18.6538 10C17.3864 11.2363 15.8812 12.1937 14.6597 13.476C13.8506 14.3254 13.0512 15.1917 12.1967 15.9961C11.7102 16.4542 11.1184 16.7746 10.6257 17.2328C9.85777 17.9468 8.75972 18.8602 8.32245 19.8398C8.10463 20.3277 7.61889 20.7158 8.54878 20.2676C10.7173 19.2223 12.7356 17.487 14.6531 16.0429C15.7065 15.2496 16.7401 14.1637 17.8883 13.5428C18.333 13.3024 18.6818 12.9691 19.1065 12.7006C19.2765 12.5931 19.5352 12.3094 19.7322 12.2861C20.2235 12.2281 20.1712 12.463 19.9053 13.0415C19.2762 14.4102 18.3717 15.6289 17.5954 16.9119C17.1465 17.6538 16.9109 18.5732 16.3705 19.2515C15.5461 20.2863 14.4129 21.0096 13.5281 21.9788C13.0511 22.5014 12.3387 22.9914 11.9704 23.5965C11.7069 24.0294 11.2686 24.3791 11.7241 23.5698C12.3618 22.4367 12.821 21.3215 13.5547 20.2408C15.0585 18.0261 18.3265 17.5232 20.3979 16.1365C20.8873 15.8088 21.5592 15.7983 22.0089 15.4145C22.1919 15.2583 22.8128 14.905 22.6479 15.0803C20.5844 17.2743 18.1774 19.1044 16.0976 21.2836C14.8003 22.643 13.1879 23.8939 12.3032 25.5818C12.2036 25.7718 11.8158 26.6478 11.9704 26.8185C12.5706 27.4815 16.1067 24.4709 16.5636 24.158C18.2613 22.9952 20.0522 22.0409 21.6627 20.7422C22.5149 20.055 23.2433 19.1897 24.1457 18.5697C24.6492 18.2237 25.0837 17.8617 25.517 17.4266C26.0634 16.8779 26.5902 16.5018 26.0163 17.6606C24.69 20.3385 23.0269 22.9262 21.3166 25.3746C20.6121 26.383 19.8357 27.4441 18.7271 27.9281C17.8582 28.3075 18.2487 27.0791 18.6272 26.7115C19.8628 25.5116 21.3923 24.5727 22.7544 23.5297C23.609 22.8753 24.4096 22.1693 25.3106 21.5777C25.9847 21.1352 26.8272 20.6832 27.4009 20.1071C27.5868 19.9204 27.7145 19.7462 28 19.7462" stroke="#261D1B" stroke-width="3" stroke-linecap="round"/>
<path d="M10.5269 57.9727C10.6558 58.0079 10.725 58.1468 10.7569 58.2661C10.9035 58.8134 10.8884 59.4253 10.8777 59.9858C10.8658 60.6102 10.8374 61.2332 10.8374 61.8579C10.8374 62.0711 10.8182 62.2968 10.8777 62.5049C10.9713 62.8325 11.5493 61.8691 11.5679 61.832C12.0404 60.887 12.1847 59.8253 12.3386 58.7952C12.4315 58.1734 12.5013 57.5509 12.5687 56.926C12.6011 56.6252 12.5982 56.2532 12.6952 56.7707C13.0605 58.719 13.316 60.694 13.5177 62.666C13.5991 63.4619 13.5942 64.2989 13.9835 65.0126C14.1 65.2262 14.1752 64.1911 14.1791 64.1384C14.4198 60.8893 14.3056 57.6167 14.3056 54.3608C14.3056 52.0073 14.7342 59.0484 14.9785 61.3892C15.135 62.8881 15.3897 64.3568 15.755 65.8178C15.8643 66.255 15.9387 66.7267 16.0771 67.1522C16.1652 67.4231 16.311 67.7273 16.4682 67.9632C16.5546 68.0927 16.7406 68.0716 16.842 68.2105C17.0867 68.5452 17.0863 67.2413 17.0894 67.1522C17.1769 64.6025 16.5376 62.0766 16.1116 59.5774C15.7037 57.1843 15.3409 54.7246 15.3409 52.2902C15.3409 51.9533 15.3423 51.6198 15.3696 51.2837C15.3826 51.1251 15.3316 50.4014 15.594 50.7948C16.4347 52.056 16.9851 53.6552 17.3367 55.1142C18.0064 57.8934 17.9612 60.7621 18.2742 63.5862C18.4236 64.9346 18.6807 66.343 18.9989 67.6641C18.9997 67.6674 19.6879 69.6517 19.7293 69.6253C19.8002 69.5802 19.839 68.929 19.853 68.8489C20.0849 67.5151 20.2461 66.1608 20.408 64.8171C20.7049 62.3529 20.6208 59.8631 20.6208 57.3861C20.6208 56.0968 20.6389 54.8374 20.8739 53.5671C21.0852 52.4247 21.2528 51.3388 21.242 50.1737C21.2394 49.8956 21.2459 49.5348 21.0867 49.2879C20.9805 49.1233 20.8245 49.0041 20.7761 48.8105" stroke="#261D1B" stroke-width="3" stroke-linecap="round"/>
<path d="M18.1879 48.9141C18.3667 50.4044 18.9243 51.8907 19.2749 53.3485C19.3537 53.6759 19.3765 54.0328 19.482 54.3493" stroke="#261D1B" stroke-width="3" stroke-linecap="round"/>
<path d="M22.2772 45.9117C22.2969 47.9793 22.6406 50.0525 22.8984 52.1004C23.2214 54.6667 23.5196 57.1825 23.5196 59.7758C23.5196 60.4818 23.5884 61.2289 23.4678 61.9297C23.3879 62.3943 23.3667 62.8803 23.324 63.3504C23.2694 63.9505 23.2559 64.527 23.5454 65.0615C23.7981 65.528 24.1453 66.0139 24.2414 66.5425C24.3949 67.3871 24.8924 66.1027 24.9689 65.8178C25.298 64.5929 25.2508 63.2966 25.383 62.0448C25.663 59.3952 26.1499 56.7492 26.1595 54.0789C26.1642 52.7751 26.2 51.4621 26.0819 50.1621C26.0039 49.3041 25.8745 48.4509 25.8518 47.5883C25.8268 46.6367 25.8489 45.6818 25.8489 44.7298C25.8489 44.5507 25.8529 44.3711 25.8489 44.192C25.846 44.0591 25.7471 43.3662 25.8202 43.8584C26.0783 45.5976 26.2222 47.3142 26.2832 49.0751C26.3742 51.7038 26.3954 54.3267 26.5506 56.9547C26.6246 58.2083 26.8324 59.4513 26.8324 60.7047C26.8324 61.4123 27.3063 62 27.3501 62.7005C27.3555 62.7878 27.4136 63.331 27.4795 63.0455C27.6794 62.1793 27.6766 61.211 27.7182 60.3308C27.7998 58.602 27.7956 56.8548 27.7239 55.1257C27.6463 53.2531 27.4703 51.3725 27.2983 49.5064C27.2143 48.5949 27.029 47.7467 26.7404 46.8809C26.5599 46.3395 26.3367 45.9352 26.0272 45.466C25.7947 45.1135 25.6533 44.6848 25.3198 44.4106C25.1475 44.2689 24.9287 44.1403 24.7734 43.985C24.625 43.8366 24.4168 43.4834 24.1925 43.4386C24.0614 43.4123 23.8672 44.2872 23.8301 44.4106" stroke="#261D1B" stroke-width="3" stroke-linecap="round"/>
<path d="M21.9149 68.9984C22.1251 69.1852 22.3244 67.8705 22.3405 67.8078C22.6898 66.4486 23.0315 65.1768 23.1055 63.7703" stroke="#261D1B" stroke-width="3" stroke-linecap="round"/>
<path d="M27.6089 40.3213C27.6384 41.7288 28.0937 43.0425 28.4083 44.4049C29.0359 47.1219 29.0263 49.9393 29.1791 52.7101C29.2489 53.9763 29.3552 55.2392 29.4091 56.5061C29.4282 56.9553 29.3755 57.4226 29.4321 57.8693C29.5147 58.5205 29.7154 59.1708 29.8462 59.8133C29.9129 60.1404 30.1123 60.6388 30.3006 60.9118C30.3898 61.0411 30.5997 60.9636 30.686 60.8773C31.0607 60.5026 31.137 59.9952 31.1921 59.4912C31.5269 56.4298 31.6465 53.3437 31.6465 50.2657C31.6465 48.5774 31.6977 46.8773 31.5602 45.1929C31.475 44.149 31.3506 43.1048 31.2324 42.064C31.1655 41.4754 31.0771 40.9096 31.0771 40.3156C31.0771 39.7681 30.9838 39.2326 30.9735 38.6879C30.9728 38.6509 30.9752 38.1896 30.9735 38.3485C30.9556 40.0316 30.9128 41.714 31.0771 43.3926C31.296 45.6312 31.8762 47.8221 32.1181 50.0587C32.2578 51.3504 32.3194 52.6592 32.3194 53.9582C32.3194 54.6196 32.3183 55.2978 32.653 55.8907C32.8504 56.2404 33.1297 56.4714 33.3432 56.811C33.5334 57.1136 33.7928 57.7085 34.1829 57.806C34.7371 57.9445 34.7991 57.212 34.8328 56.8225C34.9368 55.6207 34.6666 54.3699 34.5567 53.176C34.4181 51.6687 34.326 50.1544 34.1714 48.6495C33.9208 46.2107 33.8293 43.759 33.5502 41.3221C33.3721 39.7674 33.3547 38.2097 33.3547 36.6461C33.3547 36.4304 33.5759 37.0339 33.5847 37.0545C34.4072 38.9736 35.0614 40.953 35.4942 42.9958C36.1941 46.2991 36.4672 49.6449 36.9666 52.9747C37.06 53.5973 37.1997 54.2113 37.3002 54.8324C37.3188 54.9473 37.3446 55.2981 37.4037 55.3846C37.4291 55.4217 37.4734 55.3228 37.49 55.2811C37.5574 55.112 37.6448 54.7976 37.6798 54.6369C37.836 53.921 37.8717 53.1707 37.8581 52.4398C37.7998 49.3041 36.8904 46.2018 36.0982 43.1913C35.3918 40.5072 34.7268 37.7961 33.8838 35.1507C33.7385 34.6946 33.6098 34.2291 33.4697 33.7703C33.4405 33.6746 33.2415 33.1041 33.4985 33.3332C33.964 33.7482 34.2591 34.5537 34.4532 35.1277C34.9499 36.5966 35.242 38.1355 35.569 39.6484C36.0896 42.0571 36.7033 44.4828 37.4498 46.8321C37.9841 48.5136 38.3782 50.2274 39.0257 51.8762C39.2499 52.4472 39.524 53.0173 39.7849 53.5729C39.9057 53.83 40.0057 54.0965 40.1357 54.3493C40.2346 54.5415 40.1573 53.6277 40.153 53.5844C39.972 51.7474 39.6682 49.9123 39.3708 48.0916C38.9842 45.7256 38.7225 43.3442 38.3528 40.977C38.1472 39.661 37.789 38.3855 37.5245 37.0832C37.3673 36.3089 37.2184 35.5295 37.0414 34.7596C36.8579 33.9614 36.5799 33.0929 36.564 32.2692C36.5594 32.0308 36.5871 31.7979 36.5123 31.5732" stroke="#261D1B" stroke-width="3" stroke-linecap="round"/>
<path d="M38.4275 29.2957C38.4566 29.9076 38.6112 30.5023 38.6288 31.1189C38.6682 32.4989 38.7195 33.8652 38.8934 35.237C39.1342 37.1369 39.2788 39.0491 39.5145 40.9483C39.6695 42.1968 39.9827 43.4473 40.2191 44.6839C40.341 45.3217 40.4405 45.9498 40.5268 46.5934C40.6025 47.1579 40.7575 47.7063 40.8115 48.2728C40.9135 49.3439 41.1217 50.3996 41.2112 51.4736C41.2419 51.8414 41.2938 52.286 41.4068 52.6411C41.6023 53.2555 41.9474 54.0033 41.9474 54.6599" stroke="#261D1B" stroke-width="3" stroke-linecap="round"/>
<path d="M69.227 17.4417C69.7874 17.6454 69.5803 18.8781 69.5923 19.2678C69.614 19.9729 69.7371 20.6801 69.6929 21.3872C69.6828 21.549 69.5609 21.6974 69.5117 21.8502C69.4543 22.029 69.4793 22.2486 69.3334 22.3823C69.1581 22.543 69.06 21.9828 69.0286 21.8876C68.5899 20.559 68.2433 19.2149 67.9042 17.8587C67.7186 17.1163 67.5225 16.3387 67.1968 15.6415C67.0926 15.4186 66.8575 14.787 66.5871 14.7097C65.8795 14.5076 65.9403 15.5778 65.9228 16.0096C65.8293 18.3163 65.9662 20.623 65.8221 22.9287C65.7915 23.4189 65.8624 23.8959 65.8624 24.378" stroke="#261D1B" stroke-width="3" stroke-linecap="round"/>
<path d="M62.446 12.9901C62.851 14.0962 62.8318 15.4059 62.9521 16.5676C63.0945 17.943 63.1774 19.3246 63.349 20.6972C63.517 22.0413 63.7335 23.3765 63.9471 24.7117C64.0475 25.3392 63.8838 25.8717 63.8148 26.5005C63.7911 26.7168 63.7918 26.9332 63.7918 27.1504C63.7918 27.2061 63.8181 27.3581 63.7803 27.3172C63.595 27.1164 63.5847 26.4182 63.5445 26.1841C63.4027 25.3575 63.2148 24.5548 63.0297 23.7369C62.4636 21.235 61.9721 18.722 61.333 16.2369C61.0818 15.2599 60.8045 14.2937 60.6227 13.3007C60.4757 12.4975 60.2719 11.6304 60.2719 10.8103C60.2719 10.5751 60.192 10.3777 60.1712 10.1489C60.1288 9.68207 60.0177 10.5061 60.0131 10.5687C59.8523 12.7305 59.8258 14.9081 59.737 17.0737C59.6554 19.0655 59.6467 21.0921 59.7341 23.0841C59.8217 25.0795 60.0874 27.0711 60.2604 29.0599C60.2986 29.4998 60.3754 29.9645 60.3754 30.4058C60.3754 30.7654 60.4258 31.1826 60.3237 31.5273C60.2939 31.6276 60.2702 31.7354 60.1684 31.7804C60.0504 31.8324 59.9934 31.7485 59.9383 31.6481C59.5996 31.0302 59.3457 30.3387 59.0612 29.6954C57.7198 26.6628 56.6923 23.5168 55.7512 20.3406C55.4566 19.3464 55.1856 18.3524 55.0092 17.3296C54.8857 16.6134 54.8237 15.8844 54.6584 15.1757C54.5087 14.5338 54.2155 13.8885 54.2155 13.223C54.2155 12.8071 54.5654 12.7737 54.8942 12.645C55.3409 12.4702 55.844 12.2563 56.2228 11.9548C56.4509 11.7733 56.512 11.4449 56.6168 11.187C56.6245 11.168 56.6922 10.9312 56.7289 10.9512C56.8737 11.0302 56.9388 11.6828 56.959 11.788C57.3082 13.6088 57.2696 15.5068 57.2696 17.3526C57.2696 19.9615 57.2178 22.5693 57.2178 25.1776C57.2178 25.7994 57.3062 26.5268 57.1546 27.1331C57.1495 27.1533 57.0868 27.2847 57.051 27.2654C56.9685 27.2208 56.8455 26.935 56.844 26.9318C56.5538 26.3214 56.3089 25.6928 55.9985 25.0913C55.0963 23.3433 53.9573 21.7282 52.9329 20.053C52.4143 19.2049 52.03 18.3255 51.9494 17.3268C51.9292 17.0759 51.9606 16.8365 52.0127 16.5906C52.0263 16.5262 52.0679 16.2546 52.145 16.2225C52.2946 16.1601 52.6723 17.3955 52.6799 17.4188C54.3917 22.71 54.9024 28.2908 56.1308 33.6956C56.2433 34.1906 56.405 34.7986 56.3321 35.3089C56.2855 35.6347 56.2191 35.9552 56.1825 36.2838C56.1803 36.3041 56.1518 36.6147 56.1279 36.4592C56.0036 35.651 55.9359 34.8416 55.7857 34.035C55.1745 30.7525 54.3887 27.5073 53.4333 24.3091C53.0269 22.9486 52.7137 21.5696 52.3779 20.191C52.2641 19.7238 52.1402 19.2604 51.9379 18.8222C51.6351 18.166 51.8087 19.1567 51.8286 19.3743C52.1387 22.7596 52.2878 26.1485 52.5533 29.5373C52.7017 31.4302 52.8682 33.3218 53.025 35.214C53.0712 35.7719 53.0747 36.3509 53.1572 36.905C53.2175 37.3094 53.2868 37.7816 53.4793 38.1473C53.5599 38.3005 53.9225 38.0807 54.0027 38.038C55.2911 37.3531 56.0827 35.9751 56.4184 34.6015C56.6884 33.4961 56.6643 32.4145 56.7031 31.2915C56.7075 31.1641 56.7203 30.9767 56.7865 31.2282C56.9258 31.7577 57.0952 32.2718 57.2811 32.7869C57.6566 33.8273 57.8592 34.8752 58.1266 35.9445C58.1528 36.0496 58.1894 36.3685 58.2013 36.2608C58.2404 35.9091 58.1962 35.5147 58.1668 35.1651C58.0963 34.325 57.9214 33.4715 57.7125 32.6546C57.6718 32.4956 57.6081 32.4155 57.4766 32.3498" stroke="#261D1B" stroke-width="3" stroke-linecap="round"/>
<path d="M41.0675 28.7263C42.6673 35.1806 42.4134 41.9208 42.4134 48.5288C42.4134 50.2174 42.2269 51.9079 42.6492 53.5585C42.7471 53.9412 42.8857 54.3197 43.0748 54.66C43.0886 54.6848 43.1922 54.8647 43.1927 54.8641C43.2583 54.7876 43.3201 54.4541 43.3394 54.3896C43.5644 53.6343 43.7517 52.8768 43.8915 52.1005C44.3847 49.363 44.8433 46.6332 44.9958 43.8528C45.1647 40.7737 45.3742 37.6956 45.3524 34.6101C45.3403 32.895 45.1145 31.2266 44.9613 29.5258C44.8866 28.6969 44.7739 27.8716 44.7169 27.0411C44.705 26.8686 44.7111 24.9533 44.4954 24.9533C44.1474 24.9533 43.5639 25.2522 43.6154 25.6579C43.797 27.088 44.1272 28.4943 44.2941 29.9284C44.4539 31.3016 44.5753 32.6607 44.8319 34.0206C44.8633 34.1872 44.7849 34.2479 44.6622 34.0752C44.506 33.8554 44.4457 33.5244 44.3746 33.2758C44.2151 32.7175 44.0748 32.1544 43.8858 31.6049C43.6094 30.8014 43.2507 30.0622 42.8792 29.3015C42.7035 28.9415 42.4651 28.497 42.4651 28.0821C42.4651 27.7184 42.3442 27.1153 42.1287 26.8168C42.0208 26.6674 41.7871 26.7049 41.6254 26.7075C41.3003 26.7127 41.19 26.8539 41.1797 27.1849C41.1756 27.3147 41.1318 27.8475 41.2889 27.9182C41.6765 28.0926 42.202 27.5142 42.4306 27.2999C43.1172 26.6563 43.8382 26.0172 44.4408 25.2926C44.7621 24.9063 45.1398 24.4683 45.3236 23.9928C45.4887 23.5659 45.3986 23.1764 45.5019 22.7505C45.5419 22.586 45.8197 21.5568 46.1806 21.813C46.5751 22.0929 46.7832 22.8948 46.9226 23.3084C47.4623 24.9098 47.5195 26.6218 47.5581 28.2949C47.6102 30.5527 47.5897 32.8121 47.5897 35.0702C47.5897 36.9596 47.6784 38.8344 47.7364 40.7211C47.8041 42.9215 47.8711 45.1226 47.9032 47.3239C47.9145 48.0965 47.9285 48.8792 47.9751 49.6504C48.0271 50.5122 48.0042 51.3906 48.1074 52.2472C48.234 53.2984 48.2109 54.4001 48.2109 55.4594C48.2109 56.4525 48.2109 57.4456 48.2109 58.4387C48.2109 58.786 48.2916 59.2299 48.1706 59.566C48.1054 59.7473 47.7588 59.9224 47.5782 59.8651C47.1835 59.7398 47.0827 59.1697 46.9887 58.8356C46.8358 58.2918 46.7071 57.7778 46.6695 57.2136C46.5233 55.0207 46.2377 52.8696 45.916 50.6972C45.855 50.2848 45.7977 49.8718 45.7291 49.4606C45.7005 49.2886 45.7015 48.8149 45.5968 48.9544C45.5146 49.0641 45.511 49.429 45.4962 49.5353C45.389 50.3073 45.294 51.0807 45.1914 51.8532C44.9953 53.3297 44.7317 54.8029 44.5472 56.279C44.5255 56.4527 44.5357 56.6299 44.5357 56.3682" stroke="#261D1B" stroke-width="3" stroke-linecap="round"/>
<path d="M48.4697 18.5806C49.0568 18.6393 49.0334 19.853 49.0909 20.237C49.2453 21.268 49.3291 22.3026 49.39 23.3428C49.5468 26.0239 49.7331 28.7033 49.8558 31.3864C50.0396 35.4037 50.1696 39.4191 50.4252 43.4329C50.5594 45.5387 50.5978 47.6441 50.592 49.7539C50.5887 50.9823 50.5266 52.1932 50.4166 53.4147C50.317 54.5215 50.3042 55.62 50.1549 56.7247C49.9879 57.9608 49.8156 59.1836 49.8156 60.4345C49.8156 61.1239 49.5729 61.8007 49.5568 62.4935C49.5538 62.6211 49.5573 62.4455 49.5596 62.4216C49.583 62.188 49.7173 61.9489 49.7868 61.7286C50.4098 59.7543 50.8648 57.7169 51.0982 55.6607C51.5774 51.4386 51.2671 47.1706 51.6561 42.9441C51.7931 41.4554 52.235 40.0926 52.6856 38.6764C52.7107 38.5974 52.7144 39.5797 52.7144 39.6542C52.7144 41.7325 52.7851 43.8034 52.8725 45.8802C53.0422 49.9096 53.1707 53.9562 53.1802 57.9901C53.183 59.1447 53.1285 60.2976 53.1285 61.4525C53.1285 62.1494 53.1285 62.8463 53.1285 63.5432C53.1285 64.2464 53.2546 64.9347 53.2838 65.6339C53.2872 65.7161 53.264 65.921 53.3557 65.6684C53.7728 64.5184 54.0971 63.2781 54.2788 62.0679C54.6118 59.8498 54.7435 57.6312 54.7331 55.3904C54.7224 53.0548 54.515 50.7725 54.8597 48.454C55.0375 47.2575 55.1646 46.0502 55.4866 44.8795C55.5643 44.5969 55.629 44.8227 55.6649 45.0002C55.7974 45.6554 55.8925 46.3265 55.9927 46.9874C56.3348 49.2433 56.4811 51.5423 56.5621 53.8202C56.6348 55.8639 56.6111 57.9099 56.6513 59.9542C56.6676 60.7853 56.7717 61.5976 56.8325 62.4245C56.9228 63.6544 57.0108 64.8809 57.1143 66.1112C57.1613 66.6697 57.2443 67.3174 57.1402 67.8798C57.1136 68.0235 57.0625 68.1258 57.0625 68.2738C57.0625 68.3054 57.0625 68.4735 57.0625 68.3256C57.0625 67.9841 57.1097 67.6554 57.166 67.3191C57.742 63.8795 57.8714 60.3637 57.7815 56.88C57.7487 55.6117 57.6662 54.3961 57.7901 53.1329C57.9197 51.8109 58.06 50.4683 58.302 49.1615C58.3575 48.8618 58.4389 48.5689 58.4831 48.2671C58.4944 48.1902 58.5157 47.55 58.6097 47.9364C58.9025 49.1403 58.9789 50.3988 59.1129 51.626C59.3353 53.6624 59.5387 55.692 59.6622 57.737C59.8748 61.2573 60.0183 64.7764 60.2086 68.2968C60.24 68.8776 60.2401 69.4652 60.1683 70.0395C60.1376 70.2851 60.1182 70.5726 60.0361 70.8074C59.8296 71.3974 60.055 69.5573 60.0706 68.9324C60.1698 64.9377 60.996 60.9567 61.6407 57.0238C61.8824 55.5496 62.4174 54.1281 62.6473 52.6469C62.686 52.3972 62.7152 51.6466 62.7537 51.8963C62.8547 52.5534 62.6933 53.3231 62.676 53.9813C62.5963 57.0169 62.7048 60.0603 62.7048 63.0974C62.7048 64.2319 62.746 65.3636 62.7565 66.4966C62.7596 66.8297 62.8332 67.1233 62.8601 67.4456C62.8826 67.7156 63.1515 66.9819 63.2339 66.7238C64.0514 64.1647 64.7178 61.5497 65.3821 58.9477C65.6572 57.8703 65.9281 56.7901 66.1787 55.7067C66.3443 54.9908 66.2582 55.3445 66.3858 54.7577C66.4376 54.5192 66.4318 54.6175 66.4318 54.775C66.4318 55.5687 66.5101 56.3552 66.5871 57.1446C66.7228 58.5362 66.7881 59.9377 66.9523 61.326C67.0107 61.8198 67.1458 62.2922 67.2255 62.7811C67.28 63.1158 67.2668 63.483 67.4038 63.7991C67.4722 63.957 67.5156 63.9004 67.5821 63.7704C67.8124 63.3202 68.0033 62.8556 68.186 62.3842C68.7657 60.8881 69.1522 59.3589 69.5376 57.8175" stroke="#261D1B" stroke-width="3" stroke-linecap="round"/>
<path d="M58.4084 46.2741C58.2019 45.8225 58.1869 45.3412 58.0173 44.8823C57.9839 44.7919 57.9046 44.4667 57.8792 44.7327C57.8375 45.1706 57.8003 45.6099 57.7901 46.0498C57.7871 46.1767 57.8599 46.8922 57.7239 46.9873C57.67 47.0251 57.249 46.6766 57.2408 46.671C56.575 46.217 55.8803 45.8098 55.2048 45.3711C54.3549 44.8193 53.7435 44.2016 53.4707 43.2316C53.3341 42.7461 53.9306 42.3401 54.3708 42.3401" stroke="#261D1B" stroke-width="3" stroke-linecap="round"/>
</svg>
