<svg width="80" height="80" viewBox="0 0 80 80" fill="none" xmlns="http://www.w3.org/2000/svg">
<g clip-path="url(#clip0_365_276)">
<path d="M54 62.8544C54.4358 62.8544 54.865 62.9515 55.3054 62.9515C55.6015 62.9515 55.8976 62.9515 56.1937 62.9515C57.2735 62.9515 58.3532 62.9515 59.4329 62.9515C61.6767 62.9515 63.9198 63 66.1658 63C67.162 63 68.0972 62.964 69.08 62.8059C69.8712 62.6787 70.6501 62.7301 71.4308 62.5256C71.9705 62.3843 72.6302 62.3762 73.1316 62.1267C73.6564 61.8656 74.1417 61.5564 74.6239 61.2264C74.8955 61.0406 75.1061 60.7924 75.3498 60.5741C75.5962 60.3534 75.8206 60.1331 76.0431 59.8895C76.2913 59.6178 76.5477 59.2311 76.6443 58.8679C76.7547 58.4531 76.9249 58.0773 77.0343 57.6658C77.2668 56.7919 77.8357 56.0835 77.9606 55.1887C78.024 54.7342 77.985 54.2585 77.985 53.8005C77.985 53.2278 78.0205 52.6439 77.9823 52.0728C77.9162 51.0873 77.6252 50.2229 76.9368 49.4906C76.4205 48.9413 75.998 48.3833 75.7208 47.6739C75.629 47.439 75.5346 47.1887 75.4771 46.9434C75.4036 46.6303 75.1705 46.3806 74.9896 46.1186C74.7242 45.7345 74.3877 45.3791 74.1337 45" stroke="#261D1B" stroke-width="3" stroke-linecap="round"/>
<path d="M74 44C73.8679 43.5051 73.6126 43.0465 73.4294 42.5681C72.9087 41.2084 72.1313 39.9487 71.4529 38.6604C70.8873 37.5862 70.5297 36.4368 69.9203 35.3823C68.6474 33.1799 67.3413 31.0051 65.9618 28.8632C65.3956 27.9842 64.9491 27.0402 64.2748 26.228C63.9007 25.7773 63.5716 25.3074 63.1832 24.8626C62.5074 24.0884 62.1793 23.1138 61.7939 22.1954C61.619 21.7788 61.333 21.3209 61 21" stroke="#261D1B" stroke-width="3" stroke-linecap="round"/>
<path d="M61 20.5804C60.7538 20.4055 60.4656 20.1685 60.2619 19.9456C60.0834 19.7501 59.8752 19.6422 59.7363 19.4089C59.3914 18.8298 58.8077 18.4927 58.3212 18.0766C57.7333 17.5738 57.0443 17.2376 56.407 16.8016C56.106 16.5956 55.6207 16.3118 55.2547 16.2648C54.6584 16.1884 54.046 16.2224 53.4547 16.1177C52.6828 15.9812 51.8547 15.9849 51.0706 16.0224C50.111 16.0682 49.2207 16.6499 48.413 17.1203C47.916 17.4098 47.4633 17.7799 46.9899 18.1066C46.5235 18.4284 46.1815 18.8211 45.7554 19.1855C45.2116 19.6505 44.7725 20.3044 44.3164 20.8583C43.8002 21.4851 43.2987 22.1253 42.7951 22.7626C42.5854 23.0281 42.467 23.33 42.3411 23.6426C42.1869 24.0258 41.9608 24.3722 41.773 24.7379C41.4038 25.4568 41.0692 26.2047 40.7376 26.942C40.5828 27.2861 40.5234 27.6763 40.403 28.0345C40.2181 28.5849 39.9598 29.1108 39.7287 29.6419C39.5307 30.0968 39.3468 30.5591 39.1393 31.0095C39.0231 31.2617 38.8452 31.4639 38.7304 31.7125C38.1628 32.9422 37.3968 34.0495 36.7605 35.2433C35.9789 36.7095 35.2093 38.161 34.4056 39.6106C33.9467 40.4382 33.4155 41.2225 32.9268 42.0327C32.5941 42.584 32.3224 43.1538 31.9736 43.6973C31.3121 44.7281 30.6269 45.7683 30.1258 46.8931C29.7326 47.7757 29.263 48.642 28.8382 49.514C28.6191 49.9636 28.5022 50.5299 28.2143 50.9362C28.0366 51.1868 27.8762 51.5251 27.7895 51.8216C27.4306 53.0492 27.0222 54.1828 27.0222 55.486C27.0222 56.031 26.9312 56.6843 27.1178 57.2024C27.3805 57.9318 27.7115 58.6852 28.0735 59.371C28.4212 60.0298 29.0615 60.3653 29.6134 60.7932C30.1379 61.1998 30.7411 61.5282 31.3232 61.8339C32.7752 62.5967 34.3316 62.477 35.9003 62.6676C36.8103 62.7782 37.7091 63 38.6349 63C39.3842 63 40.1246 62.9186 40.8703 62.9019C42.8163 62.8585 44.7708 62.8529 46.7218 62.8529C47.7721 62.8529 48.7989 62.8614 49.8387 62.9619C50.467 63.0225 51.0576 62.951 51.6812 62.951C52.1443 62.951 52.6814 62.9988 53.1255 62.8638C53.3972 62.7812 54.1945 63.0309 54.2618 62.7548" stroke="#261D1B" stroke-width="3" stroke-linecap="round"/>
<path d="M40 28.7809C39.3779 28.1568 38.9478 27.4167 38.4005 26.7356C37.8789 26.0865 37.5123 25.3979 37.1154 24.6739C36.9704 24.4093 36.7509 24.1717 36.5786 23.9232C36.3454 23.5869 36.1559 23.2243 35.9279 22.8842C35.5235 22.2808 35.0671 21.7102 34.6835 21.0945C34.402 20.6425 34.1937 20.124 33.9488 19.6502C33.7689 19.3021 33.4404 18.7977 33.1301 18.5487C32.8281 18.3063 32.5881 18.0241 32.2571 17.8116C31.8153 17.5279 31.4031 17.2175 30.9449 16.9548C30.1232 16.4837 29.1174 16.3034 28.185 16.2449C27.9323 16.2291 27.6959 16.1269 27.4422 16.1008C27.1986 16.0757 26.946 16.0755 26.7048 16.0409C26.2083 15.9698 25.7146 16.0039 25.2191 16.0491C24.7315 16.0936 24.3444 16.3695 23.9124 16.5631C23.6473 16.6819 23.3099 16.8618 23.08 17.0391C22.5624 17.4386 21.9947 17.7123 21.5022 18.157C21.1591 18.4668 20.7282 18.6717 20.3852 18.9893C20.0177 19.3296 19.681 19.729 19.3686 20.1153C19.0747 20.4787 18.7617 20.876 18.5525 21.2958C18.264 21.8748 18.1084 22.519 17.8341 23.0963C17.6266 23.5329 17.5187 24.1357 17.2322 24.5188C16.809 25.085 16.4661 25.7489 16.1315 26.3765C15.7285 27.1325 15.1911 27.8481 14.822 28.615C14.6782 28.9138 14.5315 29.1061 14.3259 29.3575C14.0665 29.6747 13.8937 30.0492 13.6373 30.3693C13.1301 31.0026 12.5972 31.6168 12.0974 32.257C11.6008 32.8929 11.0206 33.6255 10.693 34.3703C10.5351 34.7294 10.2769 35.0336 10.083 35.374C9.86986 35.7482 9.66409 36.1374 9.46221 36.5163C9.16216 37.0795 8.84819 37.6206 8.52959 38.1727C7.717 39.5808 6.70251 40.8761 6.03538 42.3668C5.75199 43.0001 5.4723 43.6341 5.15699 44.2517C4.9034 44.7484 4.66387 45.2898 4.37619 45.764C4.07745 46.2563 3.83208 46.7829 3.52219 47.2654C3.22045 47.7351 3.10955 48.3486 2.77664 48.7939C2.48016 49.1905 2.38767 49.7937 2.20189 50.2464C2.11202 50.4653 1.95277 50.756 1.9362 50.997C1.9114 51.3579 1.69991 51.784 1.5946 52.134C1.47183 52.542 1.28814 53.0357 1.25572 53.4586C1.23169 53.772 1.07112 54.0559 1.05781 54.3697C1.03785 54.8402 0.973941 55.3103 1.01172 55.7841C1.07326 56.5558 1.30188 57.302 1.5458 58.0361C1.82938 58.8896 2.36539 59.6701 3.08571 60.2121C3.25542 60.3398 3.38787 60.5263 3.54117 60.6744C3.70123 60.8291 3.89676 60.9292 4.06441 61.0716C4.48386 61.4276 5.1415 61.6872 5.66667 61.8277C6.16748 61.9617 6.67693 62.0423 7.17675 62.1731C7.36301 62.2219 7.46509 62.2775 7.67288 62.2656C7.86851 62.2544 8.05917 62.1755 8.25306 62.1704C8.81588 62.1555 9.37485 62.1512 9.92852 62.2465C10.3828 62.3248 10.8007 62.4293 11.2461 62.5512C11.5743 62.641 11.9162 62.6268 12.2492 62.6844C13.3255 62.8706 14.4975 62.7579 15.5893 62.7579C17.0388 62.7579 18.4884 62.7579 19.9379 62.7579C20.3815 62.7579 20.8234 62.7612 21.2663 62.7334C21.6903 62.7068 22.1537 62.7593 22.5676 62.6491C22.8621 62.5707 23.088 62.4641 23.3972 62.4641C23.7968 62.4641 24.2005 62.4813 24.5983 62.4369C25.8934 62.2926 27.1835 62.5621 28.4833 62.5621C29.3235 62.5621 30.1455 62.8558 30.972 62.8558C31.537 62.8558 32.0915 62.77 32.6529 62.8558C33.6006 63.0007 34.6243 63.0903 35.5592 62.8558" stroke="#261D1B" stroke-width="3" stroke-linecap="round"/>
<path d="M40.0144 28C39.9079 28.3855 40.4213 28.89 40.6359 29.173C41.1477 29.8478 41.7241 30.4453 42.1728 31.1693C42.5947 31.8498 42.9413 32.5629 43.3707 33.2371C43.8233 33.9478 44.0678 34.7576 44.5404 35.4619C45.832 37.3871 47.055 39.3583 48.2753 41.3269C48.5229 41.7263 48.7237 42.1496 48.9816 42.5439C49.2125 42.8968 49.4737 43.2333 49.6597 43.6122C50.3642 45.0479 51.2524 46.3711 52.1346 47.7094C52.7221 48.6007 53.222 49.5357 53.8071 50.4299C54.3442 51.2506 54.69 52.1663 55.2225 52.9906C55.7718 53.8408 56.0392 54.8412 56.5702 55.7083C57.1689 56.686 57.6212 57.7295 58.1862 58.7234C58.4421 59.1735 58.7522 59.6059 58.9434 60.0891C59.0761 60.4244 59.1539 60.7858 59.3163 61.1024C59.3647 61.1967 59.4928 61.357 59.5677 61.43C59.7484 61.6061 59.8533 61.7998 60 62" stroke="#261D1B" stroke-width="3" stroke-linecap="round"/>
<path d="M47.1234 19.4671C45.3876 21.2976 44.1801 23.4898 42.2394 25.1575C42.0587 25.3127 41.9553 25.5537 41.7632 25.6874C41.5118 25.8624 42.1613 25.227 42.3834 25.0183C43.8872 23.6048 45.5065 22.3155 47.3338 21.3086C48.5151 20.6576 49.7601 20.1335 50.9276 19.4564C51.3433 19.2152 51.8458 18.9955 52.2122 18.6855C52.412 18.5165 52.4804 18.247 52.7051 18.1181C52.9807 17.9598 53.0188 17.9074 52.7604 18.3054C52.0075 19.4656 50.8339 20.492 49.8035 21.4156C47.4604 23.5159 44.6325 25.012 42.3834 27.1863C42.1144 27.4464 41.7797 27.6253 41.4531 27.8073C41.383 27.8463 41.1839 27.9732 41.2371 27.9143C41.5811 27.5343 42.1585 27.1952 42.5716 26.9133C45.0215 25.2415 47.6583 24.1225 50.5898 23.5248C51.8483 23.2681 53.5323 23.3448 54.6708 22.6897C55.3119 22.3208 55.8675 21.6645 56.4428 21.1961C56.7389 20.9551 57.4645 20.4214 56.7031 20.3396C55.8536 20.2484 54.9255 20.686 54.0839 20.9981C53.0693 21.3743 52.1489 21.6453 51.4647 22.5184C50.705 23.4877 50.0325 24.5464 49.2719 25.5268C48.343 26.7242 47.1657 27.5436 45.883 28.3372C44.9427 28.919 44.0111 29.6611 42.9814 30.0877C42.5009 30.2868 41.8477 30.1461 41.3368 30.168C40.7859 30.1917 40.9894 30.1012 41.3866 29.7344C43.0714 28.1789 45.7395 28.0461 47.8322 27.2934C49.5834 26.6634 51.238 25.7865 52.9709 25.1093C53.4868 24.9077 54.0297 24.8085 54.549 24.6168C55.1356 24.4003 55.6643 24.0542 56.249 23.8459C56.9819 23.5849 57.7366 23.3881 58.4418 23.0537C58.858 22.8563 59.4392 22.6522 59.7819 22.3578C59.8813 22.2723 58.8765 23.0942 58.7298 23.2036C57.3975 24.1969 56.0185 25.128 54.6265 26.0407C52.4705 27.4544 50.6369 29.2017 48.3527 30.4357C47.732 30.771 47.221 31.2224 46.625 31.5866C45.7958 32.0933 44.6821 32.5339 43.729 32.7643C43.5971 32.7962 43.4895 32.8394 43.369 32.9035C43.3385 32.9197 42.8362 33.2079 42.8264 33.1604C42.7706 32.8908 43.5738 32.4937 43.729 32.4003C47.0822 30.3819 50.6989 28.9609 54.2777 27.3683C55.7402 26.7175 57.0859 25.8188 58.5526 25.1949C59.1303 24.9492 59.7344 24.7182 60.3356 24.5633C60.3489 24.5598 60.5694 24.4807 60.5682 24.4883C60.5048 24.8761 59.4879 25.5528 59.2392 25.7731C57.456 27.3527 55.513 28.6976 53.5135 30.0074C50.8422 31.7574 48.0762 33.2793 45.6283 35.3231C45.4023 35.5117 43.8091 36.4211 44.8752 35.9012C46.3609 35.1768 47.7606 34.2977 49.2497 33.578C50.8649 32.7972 52.5314 32.1256 54.1448 31.3403C56.1712 30.3541 57.8866 29.0097 59.7209 27.743C60.6744 27.0847 62.0817 26.5413 62.8717 25.6821C62.9681 25.5773 63.3814 25.3469 63.359 25.3769C63.1066 25.7165 62.7804 25.9975 62.5118 26.3245C60.7039 28.5253 58.6901 30.4792 56.3542 32.1594C54.5967 33.4236 52.8031 34.5845 50.9553 35.7085C49.5915 36.538 48.4964 37.6961 47.0016 38.353C46.8224 38.4317 46.0333 38.9553 46.1488 38.8776C47.3432 38.0743 48.4626 37.1213 49.7149 36.3509C52.6091 34.5704 55.8408 33.3516 58.7741 31.6187C59.4028 31.2473 60.0646 30.9112 60.7011 30.5481C61.502 30.0911 62.2429 29.578 63.0711 29.1777C63.2101 29.1105 63.3565 29.0819 63.4919 29.0064C63.5272 28.9867 63.6392 28.9649 63.6137 28.9957C63.2761 29.4037 62.7522 29.7283 62.3623 30.0877C59.4027 32.8157 56.5886 35.6723 53.8126 38.5724C53.1007 39.3161 52.3592 40.0268 51.5311 40.6495C50.9716 41.0702 50.6085 41.4616 49.9419 41.688C49.8115 41.7323 49.0098 42.1798 48.9396 41.9289C48.7728 41.3322 49.1715 40.7095 49.4712 40.2266C50.0524 39.2902 50.6603 38.7989 51.4592 38.1174C52.3771 37.3345 53.7756 36.8717 54.848 36.3134C57.419 34.9751 60.1523 33.8545 62.905 32.9195C63.3104 32.7818 63.7021 32.6355 64.09 32.4966C64.3514 32.403 65.3604 31.8861 64.8652 32.3039C63.9887 33.0434 63.2441 33.9209 62.3789 34.6754C59.5844 37.112 56.3194 39.0924 53.2145 41.1259C51.4033 42.3121 54.071 40.5553 52.096 41.4685C51.5852 41.7047 51.1761 42.0042 50.7116 42.3036M50.7116 42.3036C50.3391 42.5436 49.9459 42.7218 49.5321 42.8817C49.4134 42.9276 49.0903 43.0962 49.4159 42.9246C55.1969 39.4129 50.9008 41.8938 51.6087 41.3828C52.6879 40.6038 49.2856 42.3036 50.7116 42.3036Z" stroke="#261D1B" stroke-width="3" stroke-linecap="round"/>
<path d="M50 45.5936C52.302 44.0105 54.4612 42.3362 56.951 40.9864C59.0093 39.8704 60.988 38.6514 62.9551 37.4053C63.8805 36.8191 64.925 36.4673 65.8183 35.8223C66.2685 35.4972 66.7103 35.3721 67.1903 35.1344C68.8789 34.2983 64.3741 37.5888 62.9154 38.7591C61.7369 39.7047 60.9396 41.0086 59.7291 41.9198C58.7177 42.6812 57.6565 43.3373 56.6335 44.0761C55.402 44.9654 54.1788 46.443 52.7554 46.9911C51.9556 47.2992 54.0516 45.896 54.7398 45.3971C56.6727 43.9958 58.6728 42.6828 60.6306 41.3139C62.3404 40.1184 63.9822 38.9641 65.858 38.0276C66.4428 37.7357 67.0056 37.4704 67.6099 37.187C67.7506 37.121 69.4621 36.3308 69.4865 36.4719C69.5499 36.8378 69.1321 37.2313 68.9366 37.5036C67.9669 38.854 66.6419 40.1313 65.3307 41.172C64.3093 41.9826 63.1527 42.2927 62.0083 42.886C61.0682 43.3734 60.2 44.0891 59.3492 44.6929C58.1269 45.5604 56.8676 46.4052 55.7263 47.3732C54.9996 47.9896 54.2857 48.5748 53.4755 49.0819C53.3515 49.1595 52.9023 49.6918 52.7781 49.6769C52.7029 49.6678 53.1049 49.2362 53.1183 49.2238C53.5421 48.8321 53.9929 48.5102 54.479 48.1921C57.1609 46.437 60.1262 44.8956 63.0628 43.5793C64.046 43.1387 64.9928 42.6352 65.9657 42.1764C66.7076 41.8265 67.4881 41.5925 68.1995 41.1774C68.961 40.7331 69.8252 40.282 70.4674 39.6981C70.6544 39.5279 70.6148 39.5863 70.6148 39.8345C70.6148 40.0462 70.2053 40.2518 70.0818 40.3422C68.9047 41.2042 67.7673 42.1116 66.5553 42.9297C64.202 44.5183 61.6799 45.8881 59.4116 47.5916C58.9576 47.9326 58.4934 48.1423 58.1019 48.5414C57.4736 49.182 56.6166 49.5075 56.0552 50.2282C55.6867 50.7012 55.2019 51.0798 54.8192 51.5438C54.7862 51.5838 54.5579 51.7318 54.7341 51.6639C55.2102 51.4806 55.6248 51.146 56.0665 50.8997C59.349 49.0686 62.8525 47.6398 66.1018 45.7574C67.0867 45.1868 68.1026 44.6904 69.1293 44.1962C70.0842 43.7365 70.8451 43.0789 71.7374 42.5258C72.1111 42.2941 72.4703 42.0387 72.8486 41.8161C73.3749 41.5064 72.3678 42.6109 72.2703 42.7441C71.5739 43.6958 70.698 44.4327 69.8437 45.2552C68.7548 46.3036 67.6144 47.3285 66.3682 48.203C64.858 49.2627 63.4332 50.4551 62.0196 51.6312C61.5576 52.0156 61.0636 52.6298 60.4888 52.8867C60.0363 53.089 59.4975 53.6446 59.1338 53.9949C58.7663 54.3487 58.2919 54.5645 57.7901 54.6881C57.6268 54.7284 55.8774 55.4404 56.2933 54.568C56.7676 53.5732 58.0691 53.0332 58.9183 52.379C59.3708 52.0305 59.8745 51.4994 60.4265 51.2927C61.152 51.021 61.7027 50.4298 62.3485 50.0153" stroke="#261D1B" stroke-width="3" stroke-linecap="round"/>
<path d="M72.2266 45C71.5601 45.3888 70.9249 45.9157 70.3205 46.4118C68.6483 47.7843 66.9618 49.0535 65.1951 50.2738C63.2824 51.5948 61.4929 53.0575 59.6672 54.5091C58.8623 55.1491 58.0188 55.8302 57.168 56.3876C57.0353 56.4746 56.844 56.7172 57.221 56.4809C57.8379 56.0942 58.4221 55.6336 59.0107 55.1975C60.4252 54.1492 61.7332 52.9568 63.0877 51.8197C64.7475 50.4264 66.353 48.9639 68.1125 47.7302C68.8362 47.2228 69.5171 46.5744 70.2781 46.1551C70.7885 45.8739 70.9371 45.9451 71.4642 45.9451C71.6546 45.9451 72.0174 45.8377 72.1843 45.8867C72.2142 45.8955 70.4829 47.9832 70.3364 48.1328C68.9315 49.5659 67.565 50.8853 66.0105 52.1231C65.0267 52.9064 64.1335 53.6953 63.2783 54.6374C62.39 55.6162 61.3073 56.2647 60.3185 57.0818C60.0699 57.2872 59.8179 57.459 59.556 57.6477C59.3351 57.8068 59.0243 57.8515 59.4978 57.7994C60.7084 57.666 61.7831 57.0757 62.8547 56.4809C65.0778 55.2471 67.0248 53.5683 68.9544 51.8489C70.3766 50.5816 71.9302 49.4617 73.328 48.1736C73.6112 47.9126 73.8161 47.5746 74.0904 47.3102C74.4667 46.9475 73.8609 48.4155 73.561 48.8561C72.6314 50.2217 71.1332 51.3366 69.8863 52.2864C67.4834 54.117 65.0319 55.8552 62.7224 57.8344C61.4012 58.9665 60.1544 60.2961 58.9789 61.5913C58.9545 61.6182 58.8356 61.7857 58.9683 61.708C59.594 61.3413 60.1829 60.8627 60.7897 60.4596C62.8141 59.1147 64.6787 57.5015 66.7412 56.2242C68.718 55 70.544 53.8968 72.1843 52.1872C72.8001 51.5455 73.6049 50.9572 74.3234 50.4604C74.9874 50.0014 74.0576 51.373 74.0163 51.4288C73.3433 52.3387 72.5828 53.1513 71.8242 53.9724C70.7861 55.096 69.8292 56.2992 68.822 57.4552C68.0556 58.3348 67.2233 59.1233 66.4552 59.9695C66.0838 60.3787 65.749 60.8373 65.3592 61.2238C65.1643 61.4171 64.9065 61.8802 64.655 61.988C64.3021 62.1392 64.3168 60.8121 64.602 60.6462C67.0754 59.208 69.5976 57.823 72.0307 56.2884C73.2294 55.5324 74.29 54.6082 75.3771 53.7099C75.5178 53.5936 75.9436 53.4721 75.9436 53.2548C75.9436 53.2531 75.7588 53.5446 75.753 53.5523C75.3362 54.109 74.8588 54.6165 74.4134 55.145C73.0973 56.7067 71.8356 58.3656 70.3629 59.7537C69.8657 60.2222 69.3546 60.6755 68.8697 61.1596C68.6681 61.3609 69.3822 60.952 69.6216 60.8096C71.1249 59.9152 72.5233 58.8032 73.9528 57.776C74.1248 57.6524 74.0412 57.6769 73.8945 57.8052C73.3518 58.2801 72.8271 58.7846 72.3008 59.2811C71.728 59.8216 71.1544 60.366 70.617 60.9496C70.5032 61.0732 70.3659 61.2063 70.617 61.1246C71.2507 60.9186 72.0061 60.6094 72.5867 60.2612C73.7172 59.5832 74.0927 58.1534 74.8582 57.1226C75.1256 56.7625 75.6577 56.2854 75.6577 55.7634C75.6577 55.4884 76.2782 54.7658 75.8483 54.7658" stroke="#261D1B" stroke-width="3" stroke-linecap="round"/>
<path d="M63.0476 61.2169C62.6321 61.5719 62.053 61.696 61.5386 61.8827C61.1687 62.017 60.7757 62.0047 60.3839 61.9937C59.8682 61.9792 59.9846 61.6495 60.0953 61.2662C60.4172 60.1516 61.6963 59.8117 62.6409 59.3057C63.4615 58.8661 64.3062 58.4041 65.0552 57.8631C65.3654 57.6391 65.871 57.3636 66 57" stroke="#261D1B" stroke-width="3" stroke-linecap="round"/>
<path d="M66.3388 60.3214C66.2908 60.4052 65.9094 60.7974 66.02 60.9581C66.2044 61.2261 67.2703 60.1249 67.4107 59.999C68.0418 59.4325 68.5326 58.8896 69 58" stroke="#261D1B" stroke-width="3" stroke-linecap="round"/>
<path d="M66 32.1899C66 31.8795 66 31.569 66 31.2585C66 30.87 65.9215 30.9831 65.6085 31.1844C64.8995 31.6403 63.845 31.9414 63.2381 32.5181C62.7716 32.9614 62.381 33.4804 62 34" stroke="#261D1B" stroke-width="3" stroke-linecap="round"/>
<path d="M64 30C63.3377 30.4494 62.7311 30.8346 62 31" stroke="#261D1B" stroke-width="3" stroke-linecap="round"/>
</g>
<defs>
<clipPath id="clip0_365_276">
<rect width="80" height="80" fill="white"/>
</clipPath>
</defs>
</svg>
