<?xml version="1.0" encoding="UTF-8"?><svg xmlns="http://www.w3.org/2000/svg" xmlns:xlink="http://www.w3.org/1999/xlink" height="1980.2" preserveAspectRatio="xMidYMid meet" version="1.0" viewBox="76.6 235.8 2309.9 1980.2" width="2309.9" zoomAndPan="magnify"><defs><clipPath id="a"><path d="M 267 1472 L 2194 1472 L 2194 1814 L 267 1814 Z M 267 1472"/></clipPath><clipPath id="b"><path d="M 1226.351562 253.980469 L 1220.46875 253.980469 C 958.417969 255.53125 712.660156 359.019531 528.496094 545.390625 C 344.296875 731.78125 243.71875 978.691406 245.269531 1240.738281 C 248.375 1778.480469 688.355469 2215.949219 1226.078125 2215.949219 L 1232.039062 2215.949219 C 1494.078125 2214.421875 1739.820312 2110.980469 1924 1924.558594 C 2108.191406 1738.148438 2208.769531 1491.210938 2207.230469 1229.179688 C 2204.089844 691.46875 1764.070312 253.980469 1226.351562 253.980469 Z M 1226.351562 253.980469"/></clipPath><clipPath id="c"><path d="M 267 644 L 2194 644 L 2194 986 L 267 986 Z M 267 644"/></clipPath><clipPath id="d"><path d="M 1226.351562 253.980469 L 1220.46875 253.980469 C 958.417969 255.53125 712.660156 359.019531 528.496094 545.390625 C 344.296875 731.78125 243.71875 978.691406 245.269531 1240.738281 C 248.375 1778.480469 688.355469 2215.949219 1226.078125 2215.949219 L 1232.039062 2215.949219 C 1494.078125 2214.421875 1739.820312 2110.980469 1924 1924.558594 C 2108.191406 1738.148438 2208.769531 1491.210938 2207.230469 1229.179688 C 2204.089844 691.46875 1764.070312 253.980469 1226.351562 253.980469 Z M 1226.351562 253.980469"/></clipPath></defs><g><g id="change1_3"><path d="M 1231.785156 2174.601562 C 712.800781 2177.691406 289.59375 1759.480469 286.605469 1240.484375 C 283.519531 721.574219 701.710938 298.414062 1220.714844 295.363281 C 1739.640625 292.289062 2162.867188 710.476562 2165.875 1229.433594 C 2168.9375 1748.363281 1750.722656 2171.582031 1231.785156 2174.601562 Z M 1226.347656 253.980469 L 1220.46875 253.980469 C 958.417969 255.539062 712.660156 359.023438 528.492188 545.402344 C 344.292969 731.792969 243.714844 978.699219 245.269531 1240.742188 C 248.375 1778.480469 688.351562 2215.949219 1226.078125 2215.949219 L 1232.035156 2215.949219 C 1494.074219 2214.421875 1739.816406 2110.980469 1923.996094 1924.5625 C 2108.191406 1738.152344 2208.765625 1491.210938 2207.21875 1229.183594 C 2204.089844 691.476562 1764.070312 253.980469 1226.347656 253.980469" fill="#6f7375"/></g><g id="change1_4"><path d="M 1213.976562 2177.890625 L 1207.164062 292.355469 L 1238.503906 292.050781 L 1245.375 2177.582031 L 1213.976562 2177.890625" fill="#6f7375"/></g><g id="change1_5"><path d="M 1099.578125 2196.339844 C 681.308594 1624.652344 677.675781 846.964844 1093.847656 269.863281 C 1102.375 275.929688 1110.886719 281.96875 1119.417969 288.007812 C 711.089844 854.074219 714.621094 1616.863281 1124.777344 2177.628906 C 1116.367188 2183.859375 1107.976562 2190.101562 1099.578125 2196.339844" fill="#6f7375"/></g><g id="change1_6"><path d="M 664.59375 1988.269531 C 683.175781 2002.15625 702.359375 2015.179688 721.964844 2027.679688 C 442.890625 1540.785156 438.332031 940.941406 711.519531 449 C 692.109375 461.734375 673.152344 475.023438 654.789062 489.132812 C 415.800781 961.136719 419.902344 1520.617188 664.59375 1988.269531" fill="#6f7375"/></g><g id="change1_7"><path d="M 1346.644531 2196.339844 C 1764.910156 1624.652344 1768.535156 846.964844 1352.375 269.863281 C 1343.832031 275.929688 1335.328125 281.96875 1326.804688 288.007812 C 1735.140625 854.074219 1731.59375 1616.863281 1321.445312 2177.628906 C 1329.855469 2183.859375 1338.238281 2190.101562 1346.644531 2196.339844" fill="#6f7375"/></g><g id="change1_8"><path d="M 1784.171875 1988.269531 C 1765.578125 2002.160156 1746.394531 2015.179688 1726.8125 2027.679688 C 2005.878906 1540.789062 2010.429688 940.945312 1737.253906 449.015625 C 1756.648438 461.75 1775.605469 475.03125 1793.964844 489.140625 C 2032.96875 961.136719 2028.851562 1520.621094 1784.171875 1988.269531" fill="#6f7375"/></g><g id="change1_9"><path d="M 2175.234375 1249.5625 L 289.714844 1256.382812 L 289.421875 1225.042969 L 2174.929688 1218.171875 L 2175.234375 1249.5625" fill="#6f7375"/></g><g clip-path="url(#a)"><g clip-path="url(#b)" id="change1_1"><path d="M 2193.703125 1497.976562 C 1622.007812 1916.230469 844.308594 1919.867188 267.230469 1503.707031 C 273.273438 1495.160156 279.324219 1486.660156 285.386719 1478.128906 C 851.417969 1886.457031 1614.230469 1882.929688 2174.996094 1472.789062 C 2181.214844 1481.179688 2187.457031 1489.578125 2193.703125 1497.976562" fill="#6f7375"/></g></g><g clip-path="url(#c)"><g clip-path="url(#d)" id="change1_2"><path d="M 2193.703125 960.566406 C 1622.007812 542.28125 844.308594 538.675781 267.230469 954.832031 C 273.273438 963.351562 279.324219 971.886719 285.386719 980.417969 C 851.417969 572.078125 1614.230469 575.617188 2174.996094 985.761719 C 2181.214844 977.363281 2187.457031 968.964844 2193.703125 960.566406" fill="#6f7375"/></g></g><g id="change2_1"><path d="M 1106.210938 636.289062 C 1106.210938 636.289062 339.117188 1205.589844 562.464844 1868.210938 C 562.464844 1868.210938 82.726562 1085.976562 967.980469 410.972656 L 785.890625 253.304688 L 1384.996094 326.769531 L 1156.402344 836.429688 L 1106.210938 636.289062" fill="#fff"/></g><g id="change1_10"><path d="M 838.410156 276.617188 L 978.941406 398.304688 C 982.757812 401.609375 984.886719 406.453125 984.722656 411.496094 C 984.570312 416.53125 982.148438 421.25 978.136719 424.296875 C 345.777344 906.457031 421.964844 1448.25 509.792969 1706.570312 C 446.203125 1113.289062 1089.109375 628.113281 1096.230469 622.835938 C 1100.730469 619.546875 1106.597656 618.675781 1111.839844 620.523438 C 1117.109375 622.402344 1121.089844 626.78125 1122.449219 632.222656 L 1160.890625 785.476562 L 1360.417969 340.628906 Z M 562.476562 1884.960938 C 556.804688 1884.960938 551.320312 1882.078125 548.1875 1876.96875 C 543.335938 1869.050781 76.554688 1083.828125 941.519531 410.207031 L 774.929688 265.980469 C 769.359375 261.140625 767.589844 253.238281 770.578125 246.507812 C 773.566406 239.761719 780.621094 235.75 787.929688 236.6875 L 1387.035156 310.140625 C 1392.308594 310.777344 1396.976562 313.894531 1399.585938 318.542969 C 1402.183594 323.167969 1402.457031 328.769531 1400.265625 333.613281 L 1171.679688 843.273438 C 1168.757812 849.773438 1162.078125 853.636719 1154.929688 853.105469 C 1147.820312 852.480469 1141.890625 847.421875 1140.148438 840.5 L 1096.25 665.429688 C 977.960938 761.023438 381.667969 1279.390625 578.34375 1862.859375 C 581.058594 1870.929688 577.285156 1879.757812 569.566406 1883.378906 C 567.273438 1884.449219 564.863281 1884.960938 562.476562 1884.960938" fill="#6f7375"/></g><g id="change2_2"><path d="M 1524.722656 1706.960938 C 1524.722656 1706.960938 2177.578125 1288.792969 2033.800781 739.855469 C 2033.800781 739.855469 2378.527344 1400 1624.039062 1897.101562 L 1762.695312 2034.921875 L 1281.6875 1942.03125 L 1495.21875 1542.050781 L 1524.722656 1706.960938" fill="#fff"/></g><g id="change1_11"><path d="M 1307.175781 1929.878906 L 1711.910156 2008.046875 L 1612.238281 1908.988281 C 1608.652344 1905.425781 1606.878906 1900.4375 1607.375 1895.417969 C 1607.890625 1890.40625 1610.613281 1885.886719 1614.828125 1883.117188 C 2144.554688 1534.117188 2126.707031 1109.945312 2070.984375 891.796875 C 2075.230469 1368.175781 1539.75 1717.226562 1533.75 1721.066406 C 1529.050781 1724.078125 1523.136719 1724.539062 1518.023438 1722.316406 C 1512.902344 1720.066406 1509.226562 1715.417969 1508.246094 1709.90625 L 1487.234375 1592.566406 Z M 1762.699219 2051.667969 C 1761.660156 2051.667969 1760.589844 2051.558594 1759.523438 2051.367188 L 1278.523438 1958.476562 C 1273.292969 1957.46875 1268.863281 1954.050781 1266.574219 1949.226562 C 1264.292969 1944.429688 1264.414062 1938.828125 1266.914062 1934.136719 L 1480.441406 1534.15625 C 1483.808594 1527.894531 1490.707031 1524.515625 1497.835938 1525.496094 C 1504.878906 1526.605469 1510.457031 1532.085938 1511.699219 1539.105469 L 1536.648438 1678.496094 C 1646.1875 1601.007812 2142.082031 1219.34375 2017.59375 744.101562 C 2015.441406 735.859375 2019.816406 727.28125 2027.765625 724.234375 C 2035.761719 721.191406 2044.707031 724.527344 2048.660156 732.082031 C 2052.144531 738.773438 2386.417969 1401.246094 1650.375 1899.65625 L 1774.5 2023.039062 C 1779.742188 2028.25 1780.957031 2036.226562 1777.5 2042.75 C 1774.574219 2048.308594 1768.820312 2051.667969 1762.699219 2051.667969" fill="#6f7375"/></g></g></svg>